<?xml version="1.0" encoding="utf-8"?>
<!-- Generator: Adobe Illustrator 16.0.0, SVG Export Plug-In . SVG Version: 6.00 Build 0)  -->
<!DOCTYPE svg PUBLIC "-//W3C//DTD SVG 1.1//EN" "http://www.w3.org/Graphics/SVG/1.1/DTD/svg11.dtd">
<svg version="1.1" id="Layer_1" xmlns="http://www.w3.org/2000/svg" xmlns:xlink="http://www.w3.org/1999/xlink" x="0px" y="0px"
	 width="450.333px" height="77.105px" viewBox="0 0 450.333 77.105" enable-background="new 0 0 450.333 77.105"
	 xml:space="preserve">
<g display="none">
	<g display="inline">
		<path fill="#2D79BD" d="M196.895,42.47c0.557,0.75,0.835,1.674,0.835,2.77c0,0.979-0.257,1.834-0.771,2.568
			s-1.248,1.303-2.201,1.707c-0.953,0.406-2.07,0.607-3.352,0.607h-8.879V32.288h8.626c1.872,0,3.36,0.417,4.465,1.252
			s1.657,1.961,1.657,3.378c0,0.91-0.245,1.716-0.733,2.415c-0.49,0.7-1.173,1.211-2.05,1.532
			C195.537,41.185,196.338,41.72,196.895,42.47z M187.054,39.296h3.314c0.877,0,1.518-0.135,1.923-0.405
			c0.404-0.27,0.606-0.699,0.606-1.29c0-0.624-0.202-1.079-0.606-1.366c-0.405-0.286-1.046-0.43-1.923-0.43h-3.314V39.296z
			 M192.81,46.164c0.396-0.295,0.594-0.779,0.594-1.455c0-0.674-0.198-1.158-0.594-1.453c-0.396-0.295-1.059-0.443-1.986-0.443
			h-3.77v3.795h3.77C191.751,46.607,192.413,46.458,192.81,46.164z"/>
		<path fill="#2D79BD" d="M214.047,50.123l-1.594-3.693h-7.894l-1.594,3.693h-4.68l8.323-17.834h3.693l8.348,17.834H214.047z
			 M206.053,42.939h4.907l-2.454-5.718L206.053,42.939z"/>
		<path fill="#2D79BD" d="M222.951,49.82c-1.3-0.355-2.354-0.826-3.163-1.418l1.442-3.287c0.86,0.539,1.779,0.953,2.758,1.238
			c0.978,0.287,1.964,0.432,2.96,0.432c1.012,0,1.783-0.141,2.314-0.418c0.531-0.279,0.797-0.67,0.797-1.176
			c0-0.457-0.24-0.826-0.721-1.113c-0.481-0.287-1.396-0.574-2.745-0.861c-1.67-0.354-2.977-0.775-3.921-1.264
			c-0.945-0.49-1.606-1.063-1.986-1.721s-0.569-1.467-0.569-2.429c0-1.096,0.308-2.078,0.924-2.947
			c0.615-0.868,1.483-1.551,2.605-2.049c1.121-0.497,2.407-0.746,3.857-0.746c1.282,0,2.525,0.182,3.731,0.544
			s2.146,0.831,2.821,1.403l-1.417,3.289c-1.619-1.113-3.322-1.67-5.11-1.67c-0.859,0-1.552,0.165-2.074,0.494
			c-0.522,0.328-0.784,0.763-0.784,1.303c0,0.32,0.093,0.581,0.278,0.784c0.186,0.202,0.531,0.4,1.037,0.594
			c0.506,0.194,1.256,0.393,2.252,0.595c1.619,0.355,2.892,0.781,3.819,1.277c0.928,0.498,1.585,1.076,1.974,1.734
			c0.388,0.656,0.582,1.441,0.582,2.352c0,1.754-0.675,3.125-2.024,4.111s-3.246,1.48-5.691,1.48
			C225.564,50.351,224.249,50.173,222.951,49.82z"/>
		<path fill="#2D79BD" d="M237.598,50.123V32.288h4.654v17.834H237.598z"/>
		<path fill="#2D79BD" d="M249.627,49.212c-1.375-0.76-2.429-1.83-3.162-3.213c-0.734-1.383-1.101-2.984-1.101-4.807
			c0-1.822,0.366-3.419,1.101-4.794c0.733-1.374,1.787-2.44,3.162-3.199c1.374-0.76,2.988-1.139,4.844-1.139
			c1.164,0,2.29,0.177,3.378,0.531c1.088,0.354,1.977,0.826,2.669,1.416l-1.442,3.289c-1.467-1.028-2.969-1.543-4.503-1.543
			c-1.45,0-2.56,0.455-3.326,1.366c-0.768,0.91-1.151,2.269-1.151,4.073c0,1.805,0.384,3.166,1.151,4.086
			c0.767,0.92,1.876,1.379,3.326,1.379c1.534,0,3.036-0.516,4.503-1.543l1.442,3.287c-0.692,0.592-1.581,1.063-2.669,1.418
			c-1.088,0.354-2.214,0.531-3.378,0.531C252.615,50.351,251.001,49.972,249.627,49.212z"/>
		<path fill="#2D79BD" d="M265.806,49.82c-1.3-0.355-2.354-0.826-3.163-1.418l1.442-3.287c0.86,0.539,1.779,0.953,2.758,1.238
			c0.978,0.287,1.964,0.432,2.96,0.432c1.012,0,1.783-0.141,2.314-0.418c0.531-0.279,0.797-0.67,0.797-1.176
			c0-0.457-0.24-0.826-0.721-1.113c-0.481-0.287-1.396-0.574-2.745-0.861c-1.67-0.354-2.977-0.775-3.921-1.264
			c-0.945-0.49-1.606-1.063-1.986-1.721s-0.569-1.467-0.569-2.429c0-1.096,0.308-2.078,0.924-2.947
			c0.615-0.868,1.483-1.551,2.605-2.049c1.121-0.497,2.407-0.746,3.857-0.746c1.282,0,2.525,0.182,3.731,0.544
			s2.146,0.831,2.821,1.403l-1.417,3.289c-1.619-1.113-3.322-1.67-5.11-1.67c-0.859,0-1.552,0.165-2.074,0.494
			c-0.522,0.328-0.784,0.763-0.784,1.303c0,0.32,0.093,0.581,0.278,0.784c0.186,0.202,0.531,0.4,1.037,0.594
			c0.506,0.194,1.256,0.393,2.252,0.595c1.619,0.355,2.892,0.781,3.819,1.277c0.928,0.498,1.585,1.076,1.974,1.734
			c0.388,0.656,0.582,1.441,0.582,2.352c0,1.754-0.675,3.125-2.024,4.111s-3.246,1.48-5.691,1.48
			C268.419,50.351,267.104,50.173,265.806,49.82z"/>
	</g>
	<rect y="0.314" display="inline" fill="#397FC2" width="121.571" height="76.22"/>
	<g display="inline">
		<defs>
			<rect id="SVGID_1_" y="0.314" width="446.063" height="76.289"/>
		</defs>
		<clipPath id="SVGID_2_">
			<use xlink:href="#SVGID_1_"  overflow="visible"/>
		</clipPath>
		<path clip-path="url(#SVGID_2_)" fill="#226290" d="M160.105,38.494c0,21.048-17.063,38.109-38.11,38.109
			c-21.047,0-38.11-17.061-38.11-38.109s17.063-38.11,38.11-38.11C143.043,0.384,160.105,17.446,160.105,38.494"/>
		<path clip-path="url(#SVGID_2_)" fill="#3598D4" d="M147.704,43.257c-1.797-0.805-2.737-2.215-2.795-4.193
			c-0.062-2.136,0.823-3.792,2.559-4.792c0.299-0.173,0.591-0.354,0.898-0.547l0.226-0.139c0.049-0.031,0.079-0.055,0.097-0.069
			c-0.001-0.021-0.004-0.051-0.013-0.092c-0.044-0.207-0.085-0.413-0.128-0.619c-0.169-0.837-0.331-1.628-0.584-2.39
			c-0.136-0.411-0.39-1.174-0.547-1.287c-0.157-0.114-0.975-0.106-1.369-0.103c-0.981,0.012-2.12-0.044-3.16-0.863
			c-2.45-1.929-3.026-4.231-1.76-7.039c0.205-0.456,0.434-1.014,0.378-1.283c-0.043-0.21-0.304-0.521-0.847-1.012
			c-0.308-0.28-0.636-0.541-0.983-0.818l-0.168-0.134c-0.611-0.489-1.24-0.992-1.448-1.03c-0.212,0.051-0.848,0.625-1.409,1.13
			c-1.129,1.021-2.425,1.231-3.748,0.607c-0.159-0.074-0.317-0.15-0.476-0.227c-0.399-0.193-0.777-0.376-1.16-0.529
			c-2.14-0.845-2.571-1.472-2.566-3.727V14.09c0.021-1.339-0.137-1.604-0.654-1.767c-0.886-0.28-1.744-0.497-2.548-0.643
			c-0.362-0.065-1.464-0.266-1.681-0.157c-0.174,0.152-0.402,1.198-0.511,1.701c-0.397,1.836-1.599,2.476-2.536,2.689
			c-1,0.227-2.038,0.438-3.085,0.626c-1.092,0.199-2.079-0.214-2.777-1.162c-0.211-0.286-0.381-0.576-0.545-0.858
			c-0.105-0.178-0.204-0.347-0.306-0.503c-0.469-0.711-0.757-0.799-1.543-0.476c-0.604,0.249-1.218,0.529-1.812,0.8l-0.428,0.194
			c-0.745,0.339-1.157,0.621-1.26,0.862c-0.101,0.237-0.012,0.711,0.272,1.45c0.544,1.417,0.265,2.73-0.81,3.798
			c-0.225,0.225-0.457,0.432-0.681,0.632c-0.137,0.123-0.275,0.245-0.409,0.371c-1.99,1.858-2.78,1.983-5.291,0.837
			c-0.767-0.351-1.077-0.285-1.577,0.335c-0.515,0.639-1.021,1.382-1.543,2.275c-0.363,0.62-0.51,1.047-0.45,1.309
			c0.062,0.269,0.388,0.614,0.999,1.058c1.396,1.015,1.773,2.06,1.344,3.729c-0.065,0.25-0.139,0.484-0.21,0.711
			c-0.065,0.204-0.126,0.396-0.177,0.584c-0.337,1.278-0.576,2.092-1.221,2.661c-0.642,0.568-1.481,0.704-2.787,0.86
			c-0.649,0.078-0.922,0.325-1.047,0.946c-0.192,0.951-0.122,1.962-0.054,2.939c0.052,0.742,0.157,1.18,0.322,1.34
			c0.165,0.162,0.61,0.262,1.361,0.307c1.851,0.111,2.539,0.939,3.163,2.426c0.821,1.951,1.557,4.813-1.522,7.096
			c-0.117,0.086-0.292,0.215,0.019,0.688c0.232,0.354,0.434,0.713,0.63,1.061c0.21,0.375,0.409,0.73,0.632,1.055
			c0.283,0.412,0.756,1.102,0.997,1.186c0.242,0.086,1.073-0.188,1.473-0.318c1.484-0.488,2.795-0.359,4.006,0.396
			c2.255,1.402,3.448,2.83,2.871,5.969c-0.107,0.588-0.108,0.963,0,1.148c0.106,0.184,0.437,0.381,1.009,0.605
			c0.225,0.09,0.448,0.178,0.671,0.268c0.625,0.248,1.27,0.506,1.903,0.73c0.535,0.188,0.679,0.172,0.702,0.166
			c0.016-0.01,0.145-0.096,0.458-0.635c1.189-2.049,2.555-2.705,4.869-2.344c0.174,0.029,0.316,0.084,0.413,0.123
			c1.996-0.049,2.908,0.588,3.586,2.48c0.204,0.57,0.379,1.045,0.569,1.51c0.005,0.016,0.011,0.027,0.017,0.039
			c0.4,0.023,0.794,0.063,1.177,0.102c0.562,0.055,1.094,0.109,1.615,0.109h0.009c1.035,0,1.648-0.131,1.931-0.412
			c0.283-0.279,0.423-0.895,0.44-1.934c0.001-0.045,0-0.088,0-0.131c-0.001-0.061-0.001-0.121,0-0.18
			c0.035-1.467,0.805-2.508,2.167-2.938l0.104-0.033c0.461-0.145,0.897-0.281,1.251-0.48c1.013-0.568,1.684-0.943,2.455-0.854
			c0.796,0.094,1.368,0.652,2.16,1.428c0.769,0.752,1.253,0.803,2.072,0.219c0.761-0.539,1.461-1.131,2.086-1.758
			c0.787-0.793,0.831-1.248,0.209-2.209c-0.624-0.965-0.851-1.928-0.694-2.941c0.1-0.66,0.399-1.172,0.664-1.625
			c0.106-0.18,0.207-0.352,0.282-0.516c1.083-2.33,2.027-2.832,4.591-2.441c1.082,0.164,1.403-0.01,1.808-0.977
			c0.369-0.881,0.609-1.711,0.731-2.539C148.753,43.925,148.463,43.597,147.704,43.257"/>
		<path clip-path="url(#SVGID_2_)" fill="#D3EEF8" d="M113.539,45.802c-2.396,0-4.652-0.93-6.358-2.619
			c-1.718-1.703-2.668-3.969-2.675-6.384c-0.007-2.417,0.93-4.689,2.637-6.396c1.705-1.708,3.974-2.647,6.391-2.647h0.017
			c2.408,0.005,4.667,0.938,6.36,2.631c1.694,1.691,2.631,3.95,2.641,6.362c0.02,4.959-3.996,9.022-8.952,9.053
			C113.579,45.802,113.558,45.802,113.539,45.802"/>
		<path clip-path="url(#SVGID_2_)" fill="#20629D" d="M114.924,32.439c-1.594-0.029-2.983,1.261-3.069,2.85
			c-0.088,1.612,1.318,3.117,2.951,3.154c1.59,0.039,2.961-1.261,3.027-2.871C117.905,33.855,116.617,32.47,114.924,32.439"/>
		<path clip-path="url(#SVGID_2_)" fill="#D3EEF8" d="M123.523,65.234c0.4,0.023,0.795,0.063,1.177,0.102
			c0.562,0.057,1.094,0.111,1.615,0.111h0.009c1.035,0,1.648-0.133,1.931-0.412c0.283-0.281,0.423-0.896,0.44-1.934
			c0.001-0.045,0-0.088,0-0.131c-0.001-0.061-0.001-0.121,0-0.182c0.035-1.467,0.805-2.508,2.167-2.938l0.104-0.031
			c0.461-0.145,0.896-0.281,1.251-0.48c1.013-0.568,1.684-0.943,2.455-0.855c0.796,0.096,1.369,0.654,2.16,1.43
			c0.77,0.752,1.253,0.803,2.073,0.219c0.759-0.539,1.461-1.133,2.085-1.76c0.787-0.791,0.83-1.246,0.208-2.207
			c-0.623-0.965-0.851-1.928-0.694-2.941c0.1-0.66,0.399-1.172,0.664-1.625c0.107-0.182,0.208-0.352,0.284-0.516
			c1.082-2.33,2.027-2.832,4.59-2.441c1.081,0.164,1.402-0.01,1.807-0.977c0.37-0.881,0.609-1.713,0.732-2.541
			c0.171-1.15-0.119-1.479-0.878-1.818c-1.797-0.805-2.737-2.217-2.794-4.194c-0.061-2.135,0.824-3.792,2.559-4.792
			c0.298-0.172,0.59-0.354,0.897-0.546l0.226-0.14c0.049-0.031,0.08-0.055,0.097-0.069c-0.001-0.02-0.004-0.05-0.014-0.092
			c-0.042-0.206-0.084-0.413-0.126-0.619c-0.171-0.837-0.332-1.627-0.585-2.39c-0.136-0.411-0.39-1.173-0.546-1.287
			c-0.157-0.114-0.975-0.106-1.369-0.101c-0.981,0.01-2.119-0.046-3.16-0.865c-2.45-1.929-3.026-4.231-1.759-7.038
			c0.205-0.456,0.433-1.014,0.379-1.284c-0.044-0.209-0.304-0.521-0.848-1.012c-0.308-0.279-0.636-0.541-0.983-0.818l-0.168-0.134
			c-0.61-0.489-1.24-0.992-1.447-1.029c-0.213,0.05-0.848,0.624-1.409,1.13c-1.128,1.021-2.425,1.23-3.748,0.607
			c-0.158-0.075-0.317-0.151-0.475-0.228c-0.4-0.193-0.778-0.376-1.161-0.528c-2.14-0.846-2.572-1.473-2.565-3.728v-0.012
			c0.02-1.338-0.139-1.604-0.655-1.767c-0.886-0.28-1.744-0.496-2.549-0.643c-0.362-0.065-1.465-0.266-1.681-0.156
			c-0.174,0.151-0.401,1.197-0.511,1.701c-0.397,1.836-1.598,2.475-2.536,2.689c-1,0.226-2.038,0.438-3.084,0.627
			c-1.094,0.198-2.08-0.215-2.779-1.163c-0.211-0.285-0.381-0.576-0.545-0.858c-0.104-0.178-0.203-0.347-0.306-0.502
			c-0.468-0.711-0.757-0.8-1.542-0.477c-0.604,0.249-1.219,0.529-1.813,0.8l-0.428,0.195c-0.745,0.338-1.158,0.621-1.26,0.861
			c-0.101,0.236-0.012,0.71,0.273,1.45c0.544,1.416,0.265,2.729-0.809,3.797c-0.225,0.225-0.458,0.432-0.682,0.632
			c-0.137,0.122-0.274,0.245-0.408,0.371c-1.989,1.857-2.78,1.983-5.291,0.837c-0.767-0.35-1.076-0.284-1.577,0.335
			c-0.516,0.639-1.021,1.383-1.543,2.275c-0.362,0.619-0.51,1.047-0.45,1.309c0.061,0.269,0.388,0.614,0.999,1.058
			c1.397,1.015,1.773,2.061,1.344,3.729c-0.065,0.251-0.14,0.484-0.211,0.711c-0.065,0.203-0.126,0.396-0.177,0.585
			c-0.336,1.277-0.576,2.091-1.221,2.661c-0.642,0.567-1.481,0.704-2.787,0.86c-0.648,0.077-0.922,0.324-1.047,0.945
			c-0.191,0.951-0.122,1.963-0.053,2.94c0.051,0.742,0.157,1.18,0.322,1.34c0.165,0.162,0.61,0.262,1.36,0.307
			c1.851,0.111,2.539,0.938,3.164,2.426c0.821,1.951,1.557,4.813-1.522,7.094c-0.117,0.086-0.292,0.217,0.019,0.689
			c0.232,0.352,0.434,0.713,0.629,1.061c0.211,0.375,0.41,0.73,0.632,1.055c0.283,0.41,0.756,1.1,0.996,1.186
			c0.243,0.086,1.074-0.188,1.474-0.318c1.485-0.488,2.794-0.359,4.006,0.395c2.255,1.404,3.448,2.832,2.871,5.971
			c-0.107,0.588-0.108,0.963,0,1.146c0.106,0.186,0.437,0.383,1.009,0.607c0.225,0.088,0.448,0.178,0.671,0.268
			c0.625,0.246,1.27,0.506,1.904,0.73c0.534,0.188,0.679,0.17,0.702,0.166c0.016-0.01,0.145-0.096,0.458-0.637
			c1.189-2.047,2.554-2.703,4.869-2.342c0.174,0.027,0.316,0.084,0.413,0.121c1.997-0.047,2.908,0.59,3.586,2.48
			c0.205,0.572,0.379,1.047,0.569,1.512C123.512,65.21,123.517,65.224,123.523,65.234 M126.323,67.429h-0.008
			c-0.62,0-1.227-0.061-1.813-0.121c-0.391-0.039-0.761-0.076-1.13-0.096c-0.553-0.029-1.297-0.271-1.701-1.268
			c-0.204-0.498-0.386-0.996-0.599-1.59c-0.398-1.113-0.548-1.211-1.769-1.164c-0.303,0.012-0.539-0.084-0.681-0.143
			c-0.01-0.004-0.021-0.008-0.033-0.012c-1.476-0.225-2.032,0.053-2.806,1.385c-0.931,1.607-1.824,1.947-3.535,1.342
			c-0.671-0.236-1.334-0.502-1.976-0.758c-0.221-0.086-0.441-0.176-0.663-0.262c-2.012-0.789-2.618-1.861-2.234-3.959
			c0.382-2.074-0.157-2.801-1.969-3.928c-0.7-0.436-1.421-0.496-2.338-0.195c-1.098,0.361-1.938,0.594-2.754,0.305
			c-0.79-0.279-1.292-0.947-1.969-1.932c-0.273-0.398-0.503-0.811-0.727-1.207c-0.187-0.334-0.364-0.648-0.558-0.943
			c-0.814-1.238-0.634-2.561,0.458-3.369c1.572-1.166,1.816-2.494,0.874-4.734c-0.435-1.037-0.584-1.162-1.454-1.215
			c-2.475-0.148-3.37-1.027-3.542-3.486c-0.075-1.058-0.158-2.256,0.087-3.469c0.294-1.47,1.248-2.344,2.755-2.523
			c0.812-0.098,1.501-0.193,1.709-0.377c0.21-0.186,0.396-0.844,0.618-1.684c0.063-0.237,0.134-0.46,0.202-0.676
			c0.067-0.213,0.131-0.413,0.183-0.61c0.226-0.876,0.148-1.09-0.59-1.626c-2.023-1.469-2.331-2.863-1.095-4.973
			c0.573-0.979,1.133-1.803,1.711-2.519c1.068-1.325,2.358-1.617,3.941-0.894c0.85,0.388,1.399,0.602,1.707,0.554
			c0.3-0.046,0.744-0.415,1.407-1.035c0.146-0.135,0.294-0.269,0.444-0.401c0.213-0.191,0.414-0.371,0.602-0.557
			c0.523-0.521,0.623-0.993,0.358-1.683c-0.945-2.458-0.417-3.721,2.019-4.828l0.425-0.194c0.61-0.277,1.241-0.565,1.879-0.828
			c1.667-0.687,2.961-0.288,3.955,1.218c0.132,0.201,0.249,0.4,0.362,0.594c0.144,0.246,0.28,0.479,0.429,0.681
			c0.309,0.418,0.593,0.432,0.83,0.388c1.019-0.184,2.028-0.388,2.998-0.609c0.408-0.092,0.85-0.305,1.038-1.176
			c0.315-1.447,0.546-2.36,1.304-2.897c0.787-0.56,1.771-0.433,3.182-0.176c0.885,0.162,1.824,0.398,2.791,0.702
			c2.081,0.658,2.056,2.623,2.04,3.682c-0.001,0.558,0.014,1.095,0.129,1.262c0.137,0.197,0.818,0.465,1.185,0.61
			c0.451,0.179,0.88,0.386,1.293,0.587c0.152,0.074,0.305,0.146,0.457,0.219c0.595,0.281,1.037,0.201,1.574-0.285
			c1.153-1.041,1.789-1.613,2.676-1.642c0.887-0.029,1.545,0.502,2.747,1.463l0.168,0.133c0.356,0.285,0.724,0.578,1.078,0.898
			c1.678,1.517,1.882,2.502,0.946,4.581c-0.896,1.985-0.566,3.293,1.178,4.666c0.488,0.384,1.026,0.449,1.913,0.439
			c1.128-0.013,1.916,0.016,2.555,0.48c0.628,0.457,0.896,1.161,1.263,2.266c0.292,0.875,0.472,1.763,0.646,2.621
			c0.041,0.201,0.082,0.403,0.125,0.604c0.14,0.663,0.084,1.594-0.978,2.255l-0.224,0.138c-0.309,0.192-0.628,0.392-0.955,0.58
			l0,0.001c-1.11,0.639-1.607,1.599-1.567,3.018c0.035,1.217,0.521,1.948,1.623,2.44c1.672,0.748,2.316,1.994,2.029,3.922
			c-0.146,0.979-0.437,1.994-0.864,3.016c-0.765,1.824-1.943,2.471-3.935,2.168c-0.905-0.139-1.373-0.143-1.616-0.014
			c-0.241,0.127-0.503,0.525-0.879,1.332c-0.116,0.25-0.245,0.469-0.37,0.682c-0.199,0.34-0.371,0.635-0.415,0.922
			c-0.081,0.531,0.042,1.012,0.399,1.564c1.126,1.742,0.977,3.23-0.467,4.684c-0.705,0.707-1.492,1.371-2.342,1.979
			c-1.606,1.141-3.157,1.002-4.608-0.418c-0.334-0.326-0.835-0.818-1.007-0.877c-0.181,0.014-0.799,0.359-1.251,0.613
			c-0.535,0.301-1.117,0.482-1.629,0.643l-0.1,0.033c-0.554,0.174-0.766,0.469-0.781,1.086c0,0.035,0,0.08,0,0.123
			c0,0.061,0.001,0.121,0,0.18C130.625,66.263,129.445,67.429,126.323,67.429"/>
		<path clip-path="url(#SVGID_2_)" fill="#D3EEF8" d="M133.341,44.935c-0.021,0-0.042,0-0.063,0
			c-2.035-0.018-3.938-0.826-5.356-2.279c-1.417-1.451-2.188-3.379-2.172-5.426c0.032-4.157,3.43-7.522,7.584-7.522
			c0.016,0,0.031,0,0.047,0.001c2.046,0.012,3.955,0.812,5.376,2.252c1.419,1.439,2.197,3.36,2.189,5.41
			c-0.01,2.039-0.81,3.948-2.255,5.374C137.26,44.158,135.362,44.935,133.341,44.935"/>
		<path clip-path="url(#SVGID_2_)" fill="#20629D" d="M134.416,33.489c-1.349-0.024-2.525,1.068-2.598,2.413
			c-0.074,1.364,1.116,2.64,2.498,2.67c1.347,0.032,2.507-1.067,2.563-2.431C136.939,34.688,135.848,33.514,134.416,33.489"/>
	</g>
</g>
<g>
	<rect y="0" fill="#F7942D" width="121.663" height="76.846"/>
	<rect x="114.125" y="8.12" fill="#FFFFFF" width="8.536" height="8.049"/>
	<g>
		<defs>
			<rect id="SVGID_3_" y="0" width="372.61" height="76.848"/>
		</defs>
		<clipPath id="SVGID_4_">
			<use xlink:href="#SVGID_3_"  overflow="visible"/>
		</clipPath>
		<path clip-path="url(#SVGID_4_)" fill="#E37D30" d="M121.784,38.424c14.222,0,26.639-7.728,33.283-19.213
			C148.423,7.727,136.006,0,121.784,0c-14.223,0-26.639,7.727-33.283,19.211C95.145,30.697,107.562,38.424,121.784,38.424"/>
		<path clip-path="url(#SVGID_4_)" fill="#FFFFFF" d="M122.09,16.28h-7.776c-2.253,0-4.081-1.826-4.081-4.08s1.827-4.08,4.081-4.08
			h7.586L122.09,16.28z"/>
		<path clip-path="url(#SVGID_4_)" fill="#F9F1E3" d="M123.355,16.28h-3.634c-2.253,0-4.08-1.826-4.08-4.08s1.826-4.08,4.08-4.08
			h2.94L123.355,16.28z"/>
		<path clip-path="url(#SVGID_4_)" fill="#F5E3C9" d="M133.099,12.2c0-2.201-1.743-3.994-3.924-4.076V8.12h-7.509v8.16h7.509v-0.004
			C131.356,16.194,133.099,14.401,133.099,12.2"/>
	</g>
	<rect x="113.639" y="16.28" fill="#F9F1E3" width="4.003" height="6.642"/>
	<rect x="117.681" y="16.28" fill="#F5E3C9" width="4.004" height="6.642"/>
	<rect x="121.666" y="16.28" fill="#EBB182" width="7.868" height="6.642"/>
	<g>
		<defs>
			<rect id="SVGID_5_" y="0" width="372.61" height="76.848"/>
		</defs>
		<clipPath id="SVGID_6_">
			<use xlink:href="#SVGID_5_"  overflow="visible"/>
		</clipPath>
		<path clip-path="url(#SVGID_6_)" fill="#E37D30" d="M146.034,68.229c8.649-7.045,14.174-17.779,14.174-29.805
			c0-7-1.872-13.561-5.141-19.213c-4.938,8.537-13.066,14.996-22.754,17.75c13.083,20.172,14.509,21.641,14.509,26.473
			C146.823,65.153,146.484,66.799,146.034,68.229"/>
		<path clip-path="url(#SVGID_6_)" fill="#E37D30" d="M111.031,36.899c-9.589-2.791-17.63-9.217-22.53-17.688
			c-3.27,5.652-5.14,12.214-5.14,19.213c0,11.859,5.374,22.465,13.819,29.514c-0.405-1.361-0.699-2.9-0.699-4.506
			C96.481,58.598,97.911,57.129,111.031,36.899"/>
		<path clip-path="url(#SVGID_6_)" fill="#F5E3C9" d="M132.314,36.961c-0.875-1.348-1.801-2.779-2.781-4.299v-9.741h-7.867v9.741
			v5.76v38.424c0.039,0,0.078,0.002,0.117,0.002c9.196,0,17.637-3.23,24.25-8.617c0.45-1.432,0.789-3.078,0.789-4.799
			C146.823,58.602,145.396,57.133,132.314,36.961"/>
		<path clip-path="url(#SVGID_6_)" fill="#F9F1E3" d="M117.681,23.032v9.631l-1.645,5.334l-4.029,13.072l-2.882,17.016l0.921,1.518
			c0,0,0.683,3.414,2.754,6.189c2.845,0.682,5.813,1.047,8.866,1.055V38.424v-5.762h0.018v-9.631H117.681z"/>
		<path clip-path="url(#SVGID_6_)" fill="#FFFFFF" d="M117.643,32.663v-9.741h-4.004v9.741h0.131
			c-0.965,1.497-1.876,2.906-2.739,4.236c-13.12,20.23-14.549,21.699-14.549,26.533c0,1.605,0.293,3.145,0.699,4.506
			c4.451,3.715,9.753,6.439,15.574,7.842c-2.064-2.771-2.746-6.176-2.746-6.176l-0.92-1.52l2.882-17.016L116,37.991L117.643,32.663
			h0.038H117.643z"/>
	</g>
	<polygon fill="#FFFFFF" points="116.001,37.991 116.037,37.997 117.681,32.663 117.643,32.663 	"/>
	<g>
		<defs>
			<rect id="SVGID_7_" y="0" width="372.61" height="76.848"/>
		</defs>
		<clipPath id="SVGID_8_">
			<use xlink:href="#SVGID_7_"  overflow="visible"/>
		</clipPath>
		<path clip-path="url(#SVGID_8_)" fill="#FFFFFF" d="M109.126,68.084l2.882-17.016l4.029-13.072l-0.036-0.006l-4.031,13.078
			l-2.882,17.016l0.921,1.52c0,0,0.681,3.404,2.745,6.178c0.016,0.002,0.031,0.006,0.047,0.01c-2.071-2.773-2.754-6.188-2.754-6.188
			L109.126,68.084z"/>
		<path clip-path="url(#SVGID_8_)" fill="#FDB727" d="M121.667,46.579h8.71c0,0,7.211,11.195,9.614,15.244
			c2.405,4.049-1.898,7.781-3.794,7.781h-14.53V46.579z"/>
		<path clip-path="url(#SVGID_8_)" fill="#FAD18B" d="M121.667,46.579h-8.711c0,0-7.211,11.195-9.615,15.244
			c-2.403,4.049,1.898,7.781,3.796,7.781h14.53V46.579z"/>
		<path clip-path="url(#SVGID_8_)" fill="#FAD18B" d="M128.289,52.745c0,0.996-0.807,1.803-1.803,1.803s-1.803-0.807-1.803-1.803
			c0-0.994,0.807-1.803,1.803-1.803S128.289,51.75,128.289,52.745"/>
		<path clip-path="url(#SVGID_8_)" fill="#F9F1E3" d="M117.251,53.426c0,0.775-0.631,1.406-1.407,1.406
			c-0.777,0-1.408-0.631-1.408-1.406c0-0.777,0.631-1.408,1.408-1.408C116.62,52.018,117.251,52.649,117.251,53.426"/>
		<path clip-path="url(#SVGID_8_)" fill="#F9F1E3" d="M114.291,63.432c0,1.119-0.907,2.025-2.024,2.025s-2.024-0.906-2.024-2.025
			c0-1.117,0.906-2.023,2.024-2.023S114.291,62.315,114.291,63.432"/>
		<path clip-path="url(#SVGID_8_)" fill="#F9F1E3" d="M123.07,61.459c0,0.777-0.629,1.408-1.407,1.408s-1.407-0.631-1.407-1.408
			s0.629-1.408,1.407-1.408S123.07,60.682,123.07,61.459"/>
		<path clip-path="url(#SVGID_8_)" fill="#FAD18B" d="M132.527,63.508c0,0.828-0.67,1.498-1.498,1.498
			c-0.827,0-1.497-0.67-1.497-1.498c0-0.826,0.67-1.496,1.497-1.496C131.857,62.012,132.527,62.682,132.527,63.508"/>
	</g>
	<g>
		<path fill="#F7942D" d="M196.509,50.185l-1.605-3.724h-7.959l-1.607,3.724h-4.717l8.391-17.982h3.725l8.416,17.982H196.509z
			 M188.45,42.941h4.947l-2.475-5.764L188.45,42.941z"/>
		<path fill="#F7942D" d="M205.603,49.267c-1.387-0.766-2.449-1.845-3.188-3.239c-0.74-1.395-1.111-3.01-1.111-4.847
			c0-1.836,0.371-3.448,1.111-4.833c0.738-1.386,1.801-2.461,3.188-3.227c1.385-0.765,3.014-1.148,4.885-1.148
			c1.172,0,2.309,0.179,3.404,0.536c1.098,0.357,1.994,0.833,2.691,1.428l-1.453,3.316c-1.48-1.037-2.994-1.556-4.541-1.556
			c-1.463,0-2.58,0.459-3.354,1.377c-0.775,0.918-1.16,2.287-1.16,4.107c0,1.82,0.385,3.193,1.16,4.119
			c0.773,0.928,1.891,1.391,3.354,1.391c1.547,0,3.061-0.519,4.541-1.556l1.453,3.315c-0.697,0.596-1.594,1.071-2.691,1.429
			c-1.096,0.356-2.232,0.535-3.404,0.535C208.616,50.415,206.987,50.032,205.603,49.267z"/>
		<path fill="#F7942D" d="M223.8,50.185V36.003h-5.381v-3.8h15.508v3.8h-5.383v14.182H223.8z"/>
		<path fill="#F7942D" d="M236.146,50.185V32.203h4.693v17.982H236.146z"/>
		<path fill="#F7942D" d="M257.979,32.203h4.744l-8.188,17.982h-3.725l-8.188-17.982h4.871l5.229,12.142L257.979,32.203z"/>
		<path fill="#F7942D" d="M264.509,50.185V32.203h4.693v17.982H264.509z"/>
		<path fill="#F7942D" d="M276.776,50.185V36.003h-5.381v-3.8h15.508v3.8h-5.383v14.182H276.776z"/>
		<path fill="#F7942D" d="M307.384,32.203l-7.602,9.974v8.009h-4.691v-8.009l-7.551-9.974h5.279l4.592,6.25l4.643-6.25H307.384z"/>
	</g>
</g>
<g display="none">
	<g display="inline">
		<path fill="#B657A1" d="M199.959,50.352h-5.17l-3.122-5.758c-0.393-0.666-1.016-0.998-1.868-0.998h-1.434v6.756h-4.632V32.31
			h8.599c2.185,0,3.826,0.474,4.927,1.42c1.101,0.947,1.65,2.316,1.65,4.107c0,1.365-0.375,2.521-1.126,3.468
			c-0.751,0.947-1.809,1.583-3.173,1.907c1.04,0.222,1.868,0.896,2.482,2.021L199.959,50.352z M193.829,39.578
			c0.452-0.324,0.679-0.853,0.679-1.586c0-0.75-0.227-1.292-0.679-1.625c-0.452-0.333-1.198-0.499-2.239-0.499h-3.275v4.197h3.275
			C192.631,40.064,193.377,39.902,193.829,39.578z"/>
		<path fill="#B657A1" d="M202.287,50.352V32.31h12.821v3.634h-8.24v3.429h7.729v3.609h-7.729v3.736h8.24v3.634H202.287z"/>
		<path fill="#B657A1" d="M218.384,50.352V32.31h12.565v3.686h-7.934v3.327h7.422v3.686h-7.422v7.345H218.384z"/>
		<path fill="#B657A1" d="M233.637,50.352V32.31h12.821v3.634h-8.24v3.429h7.729v3.609h-7.729v3.736h8.24v3.634H233.637z"/>
		<path fill="#B657A1" d="M265.959,50.352h-5.17l-3.122-5.758c-0.393-0.666-1.016-0.998-1.868-0.998h-1.434v6.756h-4.632V32.31
			h8.599c2.185,0,3.826,0.474,4.927,1.42c1.101,0.947,1.65,2.316,1.65,4.107c0,1.365-0.375,2.521-1.126,3.468
			c-0.751,0.947-1.809,1.583-3.173,1.907c1.04,0.222,1.868,0.896,2.482,2.021L265.959,50.352z M259.829,39.578
			c0.452-0.324,0.679-0.853,0.679-1.586c0-0.75-0.227-1.292-0.679-1.625c-0.452-0.333-1.198-0.499-2.239-0.499h-3.275v4.197h3.275
			C258.631,40.064,259.377,39.902,259.829,39.578z"/>
		<path fill="#B657A1" d="M268.287,50.352V32.31h12.821v3.634h-8.24v3.429h7.729v3.609h-7.729v3.736h8.24v3.634H268.287z"/>
		<path fill="#B657A1" d="M296.079,32.31h4.402v18.042h-3.48l-8.241-10.313v10.313h-4.376V32.31h3.43l8.266,10.314V32.31z"/>
		<path fill="#B657A1" d="M307.915,49.431c-1.391-0.769-2.457-1.852-3.199-3.251c-0.742-1.398-1.113-3.02-1.113-4.862
			c0-1.842,0.371-3.458,1.113-4.85c0.742-1.39,1.809-2.469,3.199-3.237c1.391-0.768,3.024-1.151,4.901-1.151
			c1.177,0,2.315,0.179,3.416,0.537c1.101,0.358,2,0.836,2.7,1.433l-1.459,3.327c-1.484-1.041-3.003-1.561-4.556-1.561
			c-1.467,0-2.589,0.46-3.365,1.382s-1.164,2.295-1.164,4.12c0,1.826,0.388,3.204,1.164,4.134s1.898,1.395,3.365,1.395
			c1.553,0,3.071-0.521,4.556-1.562l1.459,3.327c-0.7,0.598-1.6,1.075-2.7,1.434c-1.101,0.357-2.239,0.537-3.416,0.537
			C310.939,50.583,309.306,50.199,307.915,49.431z"/>
		<path fill="#B657A1" d="M321.671,50.352V32.31h12.821v3.634h-8.24v3.429h7.729v3.609h-7.729v3.736h8.24v3.634H321.671z"/>
	</g>
	<rect display="inline" fill="#CD74AF" width="122.071" height="77.105"/>
	<g display="inline">
		<defs>
			<rect id="SVGID_9_" width="450.333" height="77.105"/>
		</defs>
		<clipPath id="SVGID_10_">
			<use xlink:href="#SVGID_9_"  overflow="visible"/>
		</clipPath>
		<path clip-path="url(#SVGID_10_)" fill="#B657A1" d="M161.053,38.553c0,21.292-17.261,38.552-38.553,38.552
			s-38.552-17.26-38.552-38.552C83.948,17.261,101.208,0,122.5,0S161.053,17.261,161.053,38.553"/>
	</g>
	<polygon display="inline" fill="#E6BEDA" points="110.515,26.921 110.521,26.915 98.529,14.958 96.667,16.814 100.65,26.082 
		108.731,28.79 109.508,27.975 109.547,28.016 123.477,41.946 124.508,40.915 	"/>
	<polygon display="inline" fill="#F4E2EF" points="125.544,39.877 111.576,25.909 112.342,25.177 109.635,17.096 100.369,13.114 
		98.528,14.959 110.469,26.967 110.522,26.916 124.514,40.909 	"/>
	
		<rect x="127.395" y="38.952" transform="matrix(0.7071 -0.7071 0.7071 0.7071 8.6517 105.1341)" display="inline" fill="#697E88" width="7.677" height="6.343"/>
	
		<rect x="122.036" y="44.314" transform="matrix(0.7073 -0.7069 0.7069 0.7073 3.2783 102.8868)" display="inline" fill="#465A62" width="7.676" height="6.341"/>
	
		<rect x="134.387" y="45.52" transform="matrix(0.7073 -0.707 0.707 0.7073 0.1532 113.1872)" display="inline" fill="#E6BEDA" width="4.722" height="21.777"/>
	
		<rect x="137.661" y="42.263" transform="matrix(0.7069 -0.7073 0.7073 0.7069 3.44 114.6061)" display="inline" fill="#962C91" width="4.686" height="21.778"/>
	<g display="inline">
		<defs>
			<rect id="SVGID_11_" width="450.333" height="77.105"/>
		</defs>
		<clipPath id="SVGID_12_">
			<use xlink:href="#SVGID_11_"  overflow="visible"/>
		</clipPath>
		<path clip-path="url(#SVGID_12_)" fill="#F4E2EF" d="M102.929,54.932c0-2.532,2.052-4.586,4.584-4.586
			c1.266,0,2.412,0.515,3.242,1.344l28.854-28.854l-1.16-1.161l6.468-6.469c-1.776-1.273-3.956-2.023-6.308-2.023
			c-5.99,0-10.846,4.856-10.846,10.846c0,1.209,0.197,2.372,0.563,3.458L111.117,44.7c-1.128-0.397-2.34-0.614-3.604-0.614
			c-5.99,0-10.846,4.856-10.846,10.847c0,2.994,1.214,5.706,3.177,7.669l4.427-4.428C103.442,57.343,102.929,56.197,102.929,54.932"
			/>
		<path clip-path="url(#SVGID_12_)" fill="#E6BEDA" d="M140.688,23.916l-1.078-1.079L110.755,51.69
			c0.831,0.829,1.342,1.976,1.342,3.241c0,2.532-2.052,4.586-4.584,4.586c-1.266,0-2.412-0.513-3.242-1.344l-4.427,4.428
			c1.962,1.965,4.675,3.176,7.669,3.176c5.99,0,10.846-4.854,10.846-10.846c0-1.289-0.226-2.525-0.639-3.673l17.073-17.073
			c1.187,0.445,2.473,0.69,3.816,0.69c5.99,0,10.846-4.855,10.846-10.845c0-2.495-0.843-4.792-2.258-6.625L140.688,23.916z"/>
	</g>
</g>
</svg>
