<?xml version="1.0" encoding="utf-8"?>
<!-- Generator: Adobe Illustrator 16.0.0, SVG Export Plug-In . SVG Version: 6.00 Build 0)  -->
<!DOCTYPE svg PUBLIC "-//W3C//DTD SVG 1.1//EN" "http://www.w3.org/Graphics/SVG/1.1/DTD/svg11.dtd">
<svg version="1.1" id="Layer_1" xmlns="http://www.w3.org/2000/svg" xmlns:xlink="http://www.w3.org/1999/xlink" x="0px" y="0px"
	 width="1078.75px" height="971.698px" viewBox="0 0 1078.75 971.698" enable-background="new 0 0 1078.75 971.698"
	 xml:space="preserve">
<rect x="200.588" y="342.889" fill="#15394C" width="25.104" height="31.276"/>
<rect x="200.588" y="249.172" fill="#15394C" width="25.104" height="31.276"/>
<g>
	<defs>
		<rect id="SVGID_1_" width="1078.75" height="971.698"/>
	</defs>
	<clipPath id="SVGID_2_">
		<use xlink:href="#SVGID_1_"  overflow="visible"/>
	</clipPath>
	<path clip-path="url(#SVGID_2_)" fill="none" stroke="#2E78BC" stroke-width="7.134" stroke-miterlimit="10" d="M793.231,803.313
		H261.817c-65.807,0-119.648-53.842-119.648-119.647V222.543c0-65.807,53.841-119.648,119.648-119.648h531.414
		c65.807,0,119.647,53.841,119.647,119.648v461.122C912.879,749.471,859.038,803.313,793.231,803.313z"/>
	<polygon clip-path="url(#SVGID_2_)" fill="none" stroke="#2E78BC" stroke-width="7.134" stroke-miterlimit="10" points="
		420.671,459.647 420.671,433.77 720.252,435.888 720.252,459.647 758.746,459.647 758.746,656.75 721.926,656.75 721.926,681.854 
		420.671,681.854 420.671,660.098 382.177,660.098 382.177,459.647 	"/>
	<path clip-path="url(#SVGID_2_)" fill-rule="evenodd" clip-rule="evenodd" fill="#2E78BC" d="M421.194,495.699
		c0,3.195-2.59,5.784-5.784,5.784c-3.195,0-5.785-2.589-5.785-5.784c0-3.193,2.59-5.783,5.785-5.783
		C418.604,489.916,421.194,492.506,421.194,495.699"/>
	<path clip-path="url(#SVGID_2_)" fill-rule="evenodd" clip-rule="evenodd" fill="#2E78BC" d="M452.436,495.699
		c0,3.195-2.59,5.784-5.784,5.784c-3.194,0-5.784-2.589-5.784-5.784c0-3.193,2.59-5.783,5.784-5.783
		C449.846,489.916,452.436,492.506,452.436,495.699"/>
	<path clip-path="url(#SVGID_2_)" fill-rule="evenodd" clip-rule="evenodd" fill="#2E78BC" d="M483.677,495.699
		c0,3.195-2.589,5.784-5.784,5.784c-3.195,0-5.784-2.589-5.784-5.784c0-3.193,2.589-5.783,5.784-5.783
		C481.088,489.916,483.677,492.506,483.677,495.699"/>
	<path clip-path="url(#SVGID_2_)" fill-rule="evenodd" clip-rule="evenodd" fill="#2E78BC" d="M514.919,495.699
		c0,3.195-2.59,5.784-5.784,5.784c-3.195,0-5.784-2.589-5.784-5.784c0-3.193,2.589-5.783,5.784-5.783
		C512.329,489.916,514.919,492.506,514.919,495.699"/>
	<path clip-path="url(#SVGID_2_)" fill-rule="evenodd" clip-rule="evenodd" fill="#2E78BC" d="M546.159,495.699
		c0,3.195-2.589,5.784-5.783,5.784c-3.196,0-5.784-2.589-5.784-5.784c0-3.193,2.588-5.783,5.784-5.783
		C543.57,489.916,546.159,492.506,546.159,495.699"/>
	<path clip-path="url(#SVGID_2_)" fill-rule="evenodd" clip-rule="evenodd" fill="#2E78BC" d="M577.401,495.699
		c0,3.195-2.59,5.784-5.785,5.784c-3.192,0-5.784-2.589-5.784-5.784c0-3.193,2.592-5.783,5.784-5.783
		C574.812,489.916,577.401,492.506,577.401,495.699"/>
	<path clip-path="url(#SVGID_2_)" fill-rule="evenodd" clip-rule="evenodd" fill="#2E78BC" d="M608.643,495.699
		c0,3.195-2.59,5.784-5.785,5.784c-3.193,0-5.784-2.589-5.784-5.784c0-3.193,2.591-5.783,5.784-5.783
		C606.053,489.916,608.643,492.506,608.643,495.699"/>
	<path clip-path="url(#SVGID_2_)" fill-rule="evenodd" clip-rule="evenodd" fill="#2E78BC" d="M639.884,495.699
		c0,3.195-2.591,5.784-5.784,5.784c-3.195,0-5.785-2.589-5.785-5.784c0-3.193,2.59-5.783,5.785-5.783
		C637.293,489.916,639.884,492.506,639.884,495.699"/>
	<path clip-path="url(#SVGID_2_)" fill-rule="evenodd" clip-rule="evenodd" fill="#2E78BC" d="M671.125,495.699
		c0,3.195-2.59,5.784-5.784,5.784s-5.785-2.589-5.785-5.784c0-3.193,2.591-5.783,5.785-5.783S671.125,492.506,671.125,495.699"/>
	<path clip-path="url(#SVGID_2_)" fill-rule="evenodd" clip-rule="evenodd" fill="#2E78BC" d="M702.366,495.699
		c0,3.195-2.591,5.784-5.784,5.784c-3.196,0-5.785-2.589-5.785-5.784c0-3.193,2.589-5.783,5.785-5.783
		C699.775,489.916,702.366,492.506,702.366,495.699"/>
	<path clip-path="url(#SVGID_2_)" fill-rule="evenodd" clip-rule="evenodd" fill="#2E78BC" d="M733.607,495.699
		c0,3.195-2.59,5.784-5.784,5.784s-5.784-2.589-5.784-5.784c0-3.193,2.59-5.783,5.784-5.783S733.607,492.506,733.607,495.699"/>
	<path clip-path="url(#SVGID_2_)" fill-rule="evenodd" clip-rule="evenodd" fill="#2E78BC" d="M421.194,527.323
		c0,3.193-2.59,5.783-5.784,5.783c-3.195,0-5.785-2.59-5.785-5.783c0-3.195,2.59-5.784,5.785-5.784
		C418.604,521.539,421.194,524.128,421.194,527.323"/>
	<path clip-path="url(#SVGID_2_)" fill-rule="evenodd" clip-rule="evenodd" fill="#2E78BC" d="M452.436,527.323
		c0,3.193-2.59,5.783-5.784,5.783c-3.194,0-5.784-2.59-5.784-5.783c0-3.195,2.59-5.784,5.784-5.784
		C449.846,521.539,452.436,524.128,452.436,527.323"/>
	<path clip-path="url(#SVGID_2_)" fill-rule="evenodd" clip-rule="evenodd" fill="#2E78BC" d="M483.677,527.323
		c0,3.193-2.589,5.783-5.784,5.783c-3.195,0-5.784-2.59-5.784-5.783c0-3.195,2.589-5.784,5.784-5.784
		C481.088,521.539,483.677,524.128,483.677,527.323"/>
	<path clip-path="url(#SVGID_2_)" fill-rule="evenodd" clip-rule="evenodd" fill="#2E78BC" d="M514.919,527.323
		c0,3.193-2.59,5.783-5.784,5.783c-3.195,0-5.784-2.59-5.784-5.783c0-3.195,2.589-5.784,5.784-5.784
		C512.329,521.539,514.919,524.128,514.919,527.323"/>
	<path clip-path="url(#SVGID_2_)" fill-rule="evenodd" clip-rule="evenodd" fill="#2E78BC" d="M546.159,527.323
		c0,3.193-2.589,5.783-5.783,5.783c-3.196,0-5.784-2.59-5.784-5.783c0-3.195,2.588-5.784,5.784-5.784
		C543.57,521.539,546.159,524.128,546.159,527.323"/>
	<path clip-path="url(#SVGID_2_)" fill-rule="evenodd" clip-rule="evenodd" fill="#2E78BC" d="M577.401,527.323
		c0,3.193-2.59,5.783-5.785,5.783c-3.192,0-5.784-2.59-5.784-5.783c0-3.195,2.592-5.784,5.784-5.784
		C574.812,521.539,577.401,524.128,577.401,527.323"/>
	<path clip-path="url(#SVGID_2_)" fill-rule="evenodd" clip-rule="evenodd" fill="#2E78BC" d="M608.643,527.323
		c0,3.193-2.59,5.783-5.785,5.783c-3.193,0-5.784-2.59-5.784-5.783c0-3.195,2.591-5.784,5.784-5.784
		C606.053,521.539,608.643,524.128,608.643,527.323"/>
	<path clip-path="url(#SVGID_2_)" fill-rule="evenodd" clip-rule="evenodd" fill="#2E78BC" d="M639.884,527.323
		c0,3.193-2.591,5.783-5.784,5.783c-3.195,0-5.785-2.59-5.785-5.783c0-3.195,2.59-5.784,5.785-5.784
		C637.293,521.539,639.884,524.128,639.884,527.323"/>
	<path clip-path="url(#SVGID_2_)" fill-rule="evenodd" clip-rule="evenodd" fill="#2E78BC" d="M671.125,527.323
		c0,3.193-2.59,5.783-5.784,5.783s-5.785-2.59-5.785-5.783c0-3.195,2.591-5.784,5.785-5.784S671.125,524.128,671.125,527.323"/>
	<path clip-path="url(#SVGID_2_)" fill-rule="evenodd" clip-rule="evenodd" fill="#2E78BC" d="M702.366,527.323
		c0,3.193-2.591,5.783-5.784,5.783c-3.196,0-5.785-2.59-5.785-5.783c0-3.195,2.589-5.784,5.785-5.784
		C699.775,521.539,702.366,524.128,702.366,527.323"/>
	<path clip-path="url(#SVGID_2_)" fill-rule="evenodd" clip-rule="evenodd" fill="#2E78BC" d="M733.607,527.323
		c0,3.193-2.59,5.783-5.784,5.783s-5.784-2.59-5.784-5.783c0-3.195,2.59-5.784,5.784-5.784S733.607,524.128,733.607,527.323"/>
	<path clip-path="url(#SVGID_2_)" fill-rule="evenodd" clip-rule="evenodd" fill="#2E78BC" d="M421.194,558.944
		c0,3.195-2.59,5.784-5.784,5.784c-3.195,0-5.785-2.589-5.785-5.784c0-3.193,2.59-5.782,5.785-5.782
		C418.604,553.162,421.194,555.751,421.194,558.944"/>
	<path clip-path="url(#SVGID_2_)" fill-rule="evenodd" clip-rule="evenodd" fill="#2E78BC" d="M452.436,558.944
		c0,3.195-2.59,5.784-5.784,5.784c-3.194,0-5.784-2.589-5.784-5.784c0-3.193,2.59-5.782,5.784-5.782
		C449.846,553.162,452.436,555.751,452.436,558.944"/>
	<path clip-path="url(#SVGID_2_)" fill-rule="evenodd" clip-rule="evenodd" fill="#2E78BC" d="M483.677,558.944
		c0,3.195-2.589,5.784-5.784,5.784c-3.195,0-5.784-2.589-5.784-5.784c0-3.193,2.589-5.782,5.784-5.782
		C481.088,553.162,483.677,555.751,483.677,558.944"/>
	<path clip-path="url(#SVGID_2_)" fill-rule="evenodd" clip-rule="evenodd" fill="#2E78BC" d="M514.919,558.944
		c0,3.195-2.59,5.784-5.784,5.784c-3.195,0-5.784-2.589-5.784-5.784c0-3.193,2.589-5.782,5.784-5.782
		C512.329,553.162,514.919,555.751,514.919,558.944"/>
	<path clip-path="url(#SVGID_2_)" fill-rule="evenodd" clip-rule="evenodd" fill="#2E78BC" d="M546.159,558.944
		c0,3.195-2.589,5.784-5.783,5.784c-3.196,0-5.784-2.589-5.784-5.784c0-3.193,2.588-5.782,5.784-5.782
		C543.57,553.162,546.159,555.751,546.159,558.944"/>
	<path clip-path="url(#SVGID_2_)" fill-rule="evenodd" clip-rule="evenodd" fill="#2E78BC" d="M577.401,558.944
		c0,3.195-2.59,5.784-5.785,5.784c-3.192,0-5.784-2.589-5.784-5.784c0-3.193,2.592-5.782,5.784-5.782
		C574.812,553.162,577.401,555.751,577.401,558.944"/>
	<path clip-path="url(#SVGID_2_)" fill-rule="evenodd" clip-rule="evenodd" fill="#2E78BC" d="M608.643,558.944
		c0,3.195-2.59,5.784-5.785,5.784c-3.193,0-5.784-2.589-5.784-5.784c0-3.193,2.591-5.782,5.784-5.782
		C606.053,553.162,608.643,555.751,608.643,558.944"/>
	<path clip-path="url(#SVGID_2_)" fill-rule="evenodd" clip-rule="evenodd" fill="#2E78BC" d="M639.884,558.944
		c0,3.195-2.591,5.784-5.784,5.784c-3.195,0-5.785-2.589-5.785-5.784c0-3.193,2.59-5.782,5.785-5.782
		C637.293,553.162,639.884,555.751,639.884,558.944"/>
	<path clip-path="url(#SVGID_2_)" fill-rule="evenodd" clip-rule="evenodd" fill="#2E78BC" d="M671.125,558.944
		c0,3.195-2.59,5.784-5.784,5.784s-5.785-2.589-5.785-5.784c0-3.193,2.591-5.782,5.785-5.782S671.125,555.751,671.125,558.944"/>
	<path clip-path="url(#SVGID_2_)" fill-rule="evenodd" clip-rule="evenodd" fill="#2E78BC" d="M702.366,558.944
		c0,3.195-2.591,5.784-5.784,5.784c-3.196,0-5.785-2.589-5.785-5.784c0-3.193,2.589-5.782,5.785-5.782
		C699.775,553.162,702.366,555.751,702.366,558.944"/>
	<path clip-path="url(#SVGID_2_)" fill-rule="evenodd" clip-rule="evenodd" fill="#2E78BC" d="M733.607,558.944
		c0,3.195-2.59,5.784-5.784,5.784s-5.784-2.589-5.784-5.784c0-3.193,2.59-5.782,5.784-5.782S733.607,555.751,733.607,558.944"/>
	<path clip-path="url(#SVGID_2_)" fill-rule="evenodd" clip-rule="evenodd" fill="#2E78BC" d="M421.194,590.567
		c0,3.195-2.59,5.784-5.784,5.784c-3.195,0-5.785-2.589-5.785-5.784c0-3.194,2.59-5.783,5.785-5.783
		C418.604,584.784,421.194,587.373,421.194,590.567"/>
	<path clip-path="url(#SVGID_2_)" fill-rule="evenodd" clip-rule="evenodd" fill="#2E78BC" d="M452.436,590.567
		c0,3.195-2.59,5.784-5.784,5.784c-3.194,0-5.784-2.589-5.784-5.784c0-3.194,2.59-5.783,5.784-5.783
		C449.846,584.784,452.436,587.373,452.436,590.567"/>
	<path clip-path="url(#SVGID_2_)" fill-rule="evenodd" clip-rule="evenodd" fill="#2E78BC" d="M483.677,590.567
		c0,3.195-2.589,5.784-5.784,5.784c-3.195,0-5.784-2.589-5.784-5.784c0-3.194,2.589-5.783,5.784-5.783
		C481.088,584.784,483.677,587.373,483.677,590.567"/>
	<path clip-path="url(#SVGID_2_)" fill-rule="evenodd" clip-rule="evenodd" fill="#2E78BC" d="M514.919,590.567
		c0,3.195-2.59,5.784-5.784,5.784c-3.195,0-5.784-2.589-5.784-5.784c0-3.194,2.589-5.783,5.784-5.783
		C512.329,584.784,514.919,587.373,514.919,590.567"/>
	<path clip-path="url(#SVGID_2_)" fill-rule="evenodd" clip-rule="evenodd" fill="#2E78BC" d="M546.159,590.567
		c0,3.195-2.589,5.784-5.783,5.784c-3.196,0-5.784-2.589-5.784-5.784c0-3.194,2.588-5.783,5.784-5.783
		C543.57,584.784,546.159,587.373,546.159,590.567"/>
	<path clip-path="url(#SVGID_2_)" fill-rule="evenodd" clip-rule="evenodd" fill="#2E78BC" d="M577.401,590.567
		c0,3.195-2.59,5.784-5.785,5.784c-3.192,0-5.784-2.589-5.784-5.784c0-3.194,2.592-5.783,5.784-5.783
		C574.812,584.784,577.401,587.373,577.401,590.567"/>
	<path clip-path="url(#SVGID_2_)" fill-rule="evenodd" clip-rule="evenodd" fill="#2E78BC" d="M608.643,590.567
		c0,3.195-2.59,5.784-5.785,5.784c-3.193,0-5.784-2.589-5.784-5.784c0-3.194,2.591-5.783,5.784-5.783
		C606.053,584.784,608.643,587.373,608.643,590.567"/>
	<path clip-path="url(#SVGID_2_)" fill-rule="evenodd" clip-rule="evenodd" fill="#2E78BC" d="M639.884,590.567
		c0,3.195-2.591,5.784-5.784,5.784c-3.195,0-5.785-2.589-5.785-5.784c0-3.194,2.59-5.783,5.785-5.783
		C637.293,584.784,639.884,587.373,639.884,590.567"/>
	<path clip-path="url(#SVGID_2_)" fill-rule="evenodd" clip-rule="evenodd" fill="#2E78BC" d="M671.125,590.567
		c0,3.195-2.59,5.784-5.784,5.784s-5.785-2.589-5.785-5.784c0-3.194,2.591-5.783,5.785-5.783S671.125,587.373,671.125,590.567"/>
	<path clip-path="url(#SVGID_2_)" fill-rule="evenodd" clip-rule="evenodd" fill="#2E78BC" d="M702.366,590.567
		c0,3.195-2.591,5.784-5.784,5.784c-3.196,0-5.785-2.589-5.785-5.784c0-3.194,2.589-5.783,5.785-5.783
		C699.775,584.784,702.366,587.373,702.366,590.567"/>
	<path clip-path="url(#SVGID_2_)" fill-rule="evenodd" clip-rule="evenodd" fill="#2E78BC" d="M733.607,590.567
		c0,3.195-2.59,5.784-5.784,5.784s-5.784-2.589-5.784-5.784c0-3.194,2.59-5.783,5.784-5.783S733.607,587.373,733.607,590.567"/>
	<path clip-path="url(#SVGID_2_)" fill-rule="evenodd" clip-rule="evenodd" fill="#2E78BC" d="M421.194,622.19
		c0,3.194-2.59,5.784-5.784,5.784c-3.195,0-5.785-2.59-5.785-5.784s2.59-5.783,5.785-5.783
		C418.604,616.407,421.194,618.996,421.194,622.19"/>
	<path clip-path="url(#SVGID_2_)" fill-rule="evenodd" clip-rule="evenodd" fill="#2E78BC" d="M452.436,622.19
		c0,3.194-2.59,5.784-5.784,5.784c-3.194,0-5.784-2.59-5.784-5.784s2.59-5.783,5.784-5.783
		C449.846,616.407,452.436,618.996,452.436,622.19"/>
	<path clip-path="url(#SVGID_2_)" fill-rule="evenodd" clip-rule="evenodd" fill="#2E78BC" d="M483.677,622.19
		c0,3.194-2.589,5.784-5.784,5.784c-3.195,0-5.784-2.59-5.784-5.784s2.589-5.783,5.784-5.783
		C481.088,616.407,483.677,618.996,483.677,622.19"/>
	<path clip-path="url(#SVGID_2_)" fill-rule="evenodd" clip-rule="evenodd" fill="#2E78BC" d="M514.919,622.19
		c0,3.194-2.59,5.784-5.784,5.784c-3.195,0-5.784-2.59-5.784-5.784s2.589-5.783,5.784-5.783
		C512.329,616.407,514.919,618.996,514.919,622.19"/>
	<path clip-path="url(#SVGID_2_)" fill-rule="evenodd" clip-rule="evenodd" fill="#2E78BC" d="M546.159,622.19
		c0,3.194-2.589,5.784-5.783,5.784c-3.196,0-5.784-2.59-5.784-5.784s2.588-5.783,5.784-5.783
		C543.57,616.407,546.159,618.996,546.159,622.19"/>
	<path clip-path="url(#SVGID_2_)" fill-rule="evenodd" clip-rule="evenodd" fill="#2E78BC" d="M577.401,622.19
		c0,3.194-2.59,5.784-5.785,5.784c-3.192,0-5.784-2.59-5.784-5.784s2.592-5.783,5.784-5.783
		C574.812,616.407,577.401,618.996,577.401,622.19"/>
	<path clip-path="url(#SVGID_2_)" fill-rule="evenodd" clip-rule="evenodd" fill="#2E78BC" d="M608.643,622.19
		c0,3.194-2.59,5.784-5.785,5.784c-3.193,0-5.784-2.59-5.784-5.784s2.591-5.783,5.784-5.783
		C606.053,616.407,608.643,618.996,608.643,622.19"/>
	<path clip-path="url(#SVGID_2_)" fill-rule="evenodd" clip-rule="evenodd" fill="#2E78BC" d="M639.884,622.19
		c0,3.194-2.591,5.784-5.784,5.784c-3.195,0-5.785-2.59-5.785-5.784s2.59-5.783,5.785-5.783
		C637.293,616.407,639.884,618.996,639.884,622.19"/>
	<path clip-path="url(#SVGID_2_)" fill-rule="evenodd" clip-rule="evenodd" fill="#2E78BC" d="M671.125,622.19
		c0,3.194-2.59,5.784-5.784,5.784s-5.785-2.59-5.785-5.784s2.591-5.783,5.785-5.783S671.125,618.996,671.125,622.19"/>
	<path clip-path="url(#SVGID_2_)" fill-rule="evenodd" clip-rule="evenodd" fill="#2E78BC" d="M702.366,622.19
		c0,3.194-2.591,5.784-5.784,5.784c-3.196,0-5.785-2.59-5.785-5.784s2.589-5.783,5.785-5.783
		C699.775,616.407,702.366,618.996,702.366,622.19"/>
	<path clip-path="url(#SVGID_2_)" fill-rule="evenodd" clip-rule="evenodd" fill="#2E78BC" d="M733.607,622.19
		c0,3.194-2.59,5.784-5.784,5.784s-5.784-2.59-5.784-5.784s2.59-5.783,5.784-5.783S733.607,618.996,733.607,622.19"/>
	
		<rect x="200.588" y="217.784" clip-path="url(#SVGID_2_)" fill="none" stroke="#2E78BC" stroke-width="7.134" stroke-miterlimit="10" width="25.104" height="376.007"/>
	
		<rect x="200.588" y="157.382" clip-path="url(#SVGID_2_)" fill="none" stroke="#2E78BC" stroke-width="6.576" stroke-miterlimit="10" width="188.199" height="25.105"/>
	
		<rect x="176.737" y="699.129" clip-path="url(#SVGID_2_)" fill="none" stroke="#2E78BC" stroke-width="7.134" stroke-miterlimit="10" width="125.104" height="25.106"/>
	
		<rect x="467.394" y="157.382" clip-path="url(#SVGID_2_)" fill="none" stroke="#2E78BC" stroke-width="7.134" stroke-miterlimit="10" width="250.207" height="25.105"/>
	
		<rect x="483.676" y="355.59" clip-path="url(#SVGID_2_)" fill="none" stroke="#2E78BC" stroke-width="7.134" stroke-miterlimit="10" width="56.698" height="56.698"/>
	
		<rect x="645.668" y="299.973" clip-path="url(#SVGID_2_)" fill="none" stroke="#2E78BC" stroke-width="7.134" stroke-miterlimit="10" width="56.698" height="28.349"/>
	
		<rect x="727.823" y="236.952" clip-path="url(#SVGID_2_)" fill="none" stroke="#2E78BC" stroke-width="7.134" stroke-miterlimit="10" width="56.694" height="28.349"/>
	
		<rect x="727.823" y="363.007" clip-path="url(#SVGID_2_)" fill="none" stroke="#2E78BC" stroke-width="7.134" stroke-miterlimit="10" width="56.694" height="28.349"/>
	
		<rect x="324.856" y="702.643" clip-path="url(#SVGID_2_)" fill="none" stroke="#2E78BC" stroke-width="7.134" stroke-miterlimit="10" width="170.711" height="65.626"/>
	
		<rect x="550.68" y="702.643" clip-path="url(#SVGID_2_)" fill="none" stroke="#2E78BC" stroke-width="7.134" stroke-miterlimit="10" width="170.711" height="65.626"/>
	
		<rect x="806.338" y="299.973" clip-path="url(#SVGID_2_)" fill="none" stroke="#2E78BC" stroke-width="7.134" stroke-miterlimit="10" width="56.698" height="28.349"/>
	
		<rect x="348.35" y="738.981" clip-path="url(#SVGID_2_)" fill-rule="evenodd" clip-rule="evenodd" fill="#2E78BC" width="7.531" height="7.531"/>
	
		<rect x="377.22" y="738.981" clip-path="url(#SVGID_2_)" fill-rule="evenodd" clip-rule="evenodd" fill="#2E78BC" width="7.531" height="7.531"/>
	
		<rect x="406.09" y="738.981" clip-path="url(#SVGID_2_)" fill-rule="evenodd" clip-rule="evenodd" fill="#2E78BC" width="7.532" height="7.531"/>
	
		<rect x="434.96" y="738.981" clip-path="url(#SVGID_2_)" fill-rule="evenodd" clip-rule="evenodd" fill="#2E78BC" width="7.531" height="7.531"/>
	
		<rect x="463.83" y="738.981" clip-path="url(#SVGID_2_)" fill-rule="evenodd" clip-rule="evenodd" fill="#2E78BC" width="7.531" height="7.531"/>
	
		<rect x="573.88" y="738.981" clip-path="url(#SVGID_2_)" fill-rule="evenodd" clip-rule="evenodd" fill="#2E78BC" width="7.531" height="7.531"/>
	
		<rect x="602.75" y="738.981" clip-path="url(#SVGID_2_)" fill-rule="evenodd" clip-rule="evenodd" fill="#2E78BC" width="7.532" height="7.531"/>
	
		<rect x="631.621" y="738.981" clip-path="url(#SVGID_2_)" fill-rule="evenodd" clip-rule="evenodd" fill="#2E78BC" width="7.53" height="7.531"/>
	
		<rect x="660.492" y="738.981" clip-path="url(#SVGID_2_)" fill-rule="evenodd" clip-rule="evenodd" fill="#2E78BC" width="7.529" height="7.531"/>
	
		<rect x="689.363" y="738.981" clip-path="url(#SVGID_2_)" fill-rule="evenodd" clip-rule="evenodd" fill="#2E78BC" width="7.528" height="7.531"/>
	
		<rect x="754.352" y="707.071" clip-path="url(#SVGID_2_)" fill-rule="evenodd" clip-rule="evenodd" fill="#2E78BC" width="7.531" height="7.529"/>
	
		<rect x="788.133" y="707.071" clip-path="url(#SVGID_2_)" fill-rule="evenodd" clip-rule="evenodd" fill="#2E78BC" width="7.531" height="7.529"/>
	
		<rect x="186.911" y="643.25" clip-path="url(#SVGID_2_)" fill-rule="evenodd" clip-rule="evenodd" fill="#2E78BC" width="7.531" height="7.531"/>
	
		<rect x="220.689" y="643.25" clip-path="url(#SVGID_2_)" fill-rule="evenodd" clip-rule="evenodd" fill="#2E78BC" width="7.532" height="7.531"/>
	
		<rect x="819.458" y="707.071" clip-path="url(#SVGID_2_)" fill-rule="evenodd" clip-rule="evenodd" fill="#2E78BC" width="7.531" height="7.529"/>
	
		<line clip-path="url(#SVGID_2_)" fill="none" stroke="#2E78BC" stroke-width="7.134" stroke-miterlimit="10" x1="208.015" y1="699.128" x2="208.015" y2="724.231"/>
	
		<line clip-path="url(#SVGID_2_)" fill="none" stroke="#2E78BC" stroke-width="7.134" stroke-miterlimit="10" x1="239.29" y1="699.128" x2="239.29" y2="724.231"/>
	
		<line clip-path="url(#SVGID_2_)" fill="none" stroke="#2E78BC" stroke-width="7.134" stroke-miterlimit="10" x1="270.566" y1="699.128" x2="270.566" y2="724.231"/>
	
		<rect x="743.762" y="699.129" clip-path="url(#SVGID_2_)" fill="none" stroke="#2E78BC" stroke-width="6.191" stroke-miterlimit="10" width="94.229" height="25.106"/>
	
		<line clip-path="url(#SVGID_2_)" fill="none" stroke="#2E78BC" stroke-width="7.134" stroke-miterlimit="10" x1="775.039" y1="699.128" x2="775.039" y2="724.231"/>
	
		<line clip-path="url(#SVGID_2_)" fill="none" stroke="#2E78BC" stroke-width="7.134" stroke-miterlimit="10" x1="806.315" y1="699.128" x2="806.315" y2="724.231"/>
	
		<rect x="175.532" y="633.508" clip-path="url(#SVGID_2_)" fill="none" stroke="#2E78BC" stroke-width="7.134" stroke-miterlimit="10" width="62.552" height="25.105"/>
	
		<line clip-path="url(#SVGID_2_)" fill="none" stroke="#2E78BC" stroke-width="7.134" stroke-miterlimit="10" x1="206.808" y1="633.508" x2="206.808" y2="658.613"/>
	
		<line clip-path="url(#SVGID_2_)" fill="none" stroke="#2E78BC" stroke-width="7.134" stroke-miterlimit="10" x1="225.692" y1="562.62" x2="200.588" y2="562.62"/>
	
		<line clip-path="url(#SVGID_2_)" fill="none" stroke="#2E78BC" stroke-width="7.134" stroke-miterlimit="10" x1="225.692" y1="530.545" x2="200.588" y2="530.545"/>
	
		<line clip-path="url(#SVGID_2_)" fill="none" stroke="#2E78BC" stroke-width="7.134" stroke-miterlimit="10" x1="225.692" y1="499.27" x2="200.588" y2="499.27"/>
	
		<line clip-path="url(#SVGID_2_)" fill="none" stroke="#2E78BC" stroke-width="7.134" stroke-miterlimit="10" x1="225.692" y1="467.994" x2="200.588" y2="467.994"/>
	
		<line clip-path="url(#SVGID_2_)" fill="none" stroke="#2E78BC" stroke-width="7.134" stroke-miterlimit="10" x1="225.692" y1="436.717" x2="200.588" y2="436.717"/>
	
		<line clip-path="url(#SVGID_2_)" fill="none" stroke="#2E78BC" stroke-width="7.134" stroke-miterlimit="10" x1="225.692" y1="405.442" x2="200.588" y2="405.442"/>
	
		<line clip-path="url(#SVGID_2_)" fill="none" stroke="#2E78BC" stroke-width="7.134" stroke-miterlimit="10" x1="225.692" y1="374.166" x2="200.588" y2="374.166"/>
	
		<line clip-path="url(#SVGID_2_)" fill="none" stroke="#2E78BC" stroke-width="7.134" stroke-miterlimit="10" x1="225.692" y1="342.889" x2="200.588" y2="342.889"/>
	
		<line clip-path="url(#SVGID_2_)" fill="none" stroke="#2E78BC" stroke-width="7.134" stroke-miterlimit="10" x1="225.692" y1="311.613" x2="200.588" y2="311.613"/>
	
		<line clip-path="url(#SVGID_2_)" fill="none" stroke="#2E78BC" stroke-width="7.134" stroke-miterlimit="10" x1="225.692" y1="280.337" x2="200.588" y2="280.337"/>
	
		<line clip-path="url(#SVGID_2_)" fill="none" stroke="#2E78BC" stroke-width="7.134" stroke-miterlimit="10" x1="225.692" y1="249.061" x2="200.588" y2="249.061"/>
	
		<line clip-path="url(#SVGID_2_)" fill="none" stroke="#2E78BC" stroke-width="7.134" stroke-miterlimit="10" x1="498.669" y1="182.487" x2="498.669" y2="157.383"/>
	
		<line clip-path="url(#SVGID_2_)" fill="none" stroke="#2E78BC" stroke-width="7.134" stroke-miterlimit="10" x1="356.968" y1="182.487" x2="356.968" y2="157.383"/>
	
		<line clip-path="url(#SVGID_2_)" fill="none" stroke="#2E78BC" stroke-width="7.134" stroke-miterlimit="10" x1="325.692" y1="182.487" x2="325.692" y2="157.383"/>
	
		<line clip-path="url(#SVGID_2_)" fill="none" stroke="#2E78BC" stroke-width="7.134" stroke-miterlimit="10" x1="294.416" y1="182.487" x2="294.416" y2="157.383"/>
	
		<line clip-path="url(#SVGID_2_)" fill="none" stroke="#2E78BC" stroke-width="7.134" stroke-miterlimit="10" x1="263.14" y1="182.487" x2="263.14" y2="157.383"/>
	
		<line clip-path="url(#SVGID_2_)" fill="none" stroke="#2E78BC" stroke-width="7.134" stroke-miterlimit="10" x1="231.863" y1="182.487" x2="231.863" y2="157.383"/>
	
		<line clip-path="url(#SVGID_2_)" fill="none" stroke="#2E78BC" stroke-width="7.134" stroke-miterlimit="10" x1="529.946" y1="182.487" x2="529.946" y2="157.383"/>
	
		<line clip-path="url(#SVGID_2_)" fill="none" stroke="#2E78BC" stroke-width="7.134" stroke-miterlimit="10" x1="561.222" y1="182.487" x2="561.222" y2="157.383"/>
	
		<line clip-path="url(#SVGID_2_)" fill="none" stroke="#2E78BC" stroke-width="7.134" stroke-miterlimit="10" x1="592.498" y1="182.487" x2="592.498" y2="157.383"/>
	
		<line clip-path="url(#SVGID_2_)" fill="none" stroke="#2E78BC" stroke-width="7.134" stroke-miterlimit="10" x1="623.774" y1="182.487" x2="623.774" y2="157.383"/>
	
		<line clip-path="url(#SVGID_2_)" fill="none" stroke="#2E78BC" stroke-width="7.134" stroke-miterlimit="10" x1="655.05" y1="182.487" x2="655.05" y2="157.383"/>
	
		<line clip-path="url(#SVGID_2_)" fill="none" stroke="#2E78BC" stroke-width="7.134" stroke-miterlimit="10" x1="686.327" y1="182.487" x2="686.327" y2="157.383"/>
	<path clip-path="url(#SVGID_2_)" fill="#2C78BC" d="M261.489,133.622v9.649h-3.404v-22.03h6.404c3.9,0,6.057,2.091,6.057,5.905
		c0,3.223-1.675,4.608-2.888,5.063c1.82,0.774,2.569,2.344,2.569,5.541v0.877c0,2.349,0.1,3.463,0.302,4.644h-3.332
		c-0.316-1.008-0.362-2.825-0.362-4.686v-0.783c0-3.011-0.663-4.18-3.319-4.18H261.489z M261.489,130.816h2.18
		c2.484,0,3.443-1.192,3.443-3.533c0-2.005-0.946-3.237-3.107-3.237h-2.516V130.816z M286.979,132.079
		c0,7.87-2.053,11.553-7.026,11.553c-4.673,0-6.836-3.602-6.836-11.57c0-7.798,2.524-11.159,6.993-11.159
		C284.828,120.903,286.979,124.492,286.979,132.079 M276.632,132.02c0,5.587,0.955,8.715,3.409,8.715
		c2.565,0,3.423-2.945,3.423-8.695c0-5.561-0.919-8.218-3.433-8.218C277.561,123.822,276.632,126.738,276.632,132.02
		 M290.194,121.241h6.382c3.643,0,5.718,2.068,5.718,5.509c0,2.838-1.359,4.165-2.601,4.62c1.596,0.621,3.267,2.088,3.267,5.43
		c0,4.111-2.612,6.471-6.497,6.471h-6.269V121.241z M295.669,130.166c2.558,0,3.325-1.043,3.325-3.104
		c0-2.019-1.064-3.071-3.131-3.071h-2.31v6.175H295.669z M293.553,140.566h2.561c2.181,0,3.409-1.198,3.409-3.815
		c0-2.502-1.134-3.881-3.851-3.881h-2.119V140.566z M319.078,132.079c0,7.87-2.053,11.553-7.025,11.553
		c-4.673,0-6.836-3.602-6.836-11.57c0-7.798,2.524-11.159,6.992-11.159C316.928,120.903,319.078,124.492,319.078,132.079
		 M308.731,132.02c0,5.587,0.955,8.715,3.41,8.715c2.565,0,3.422-2.945,3.422-8.695c0-5.561-0.919-8.218-3.432-8.218
		C309.66,123.822,308.731,126.738,308.731,132.02 M324.762,124.251h-4.776v-3.01h12.98v3.01h-4.777v19.02h-3.427V124.251z
		 M344.638,143.271h-3.427v-22.03h3.427V143.271z M348.724,143.271v-22.03h3.967c5.079,13.224,5.947,15.463,6.217,16.5h0.033
		c-0.176-2.754-0.196-6.021-0.196-9.621v-6.879h3.096v22.03h-3.801c-5.259-14.019-6.075-16.25-6.348-17.212h-0.033
		c0.163,2.728,0.173,6.096,0.173,10.049v7.163H348.724z M373.576,143.271h-3.427c0.001,0,5.176-22.03,5.177-22.03h4.442l5.267,22.03
		h-3.603l-1.277-6.039h-5.312L373.576,143.271z M379.525,134.245c-0.978-4.625-1.693-7.83-2.022-9.815h-0.088
		c-0.28,1.99-1.047,5.524-1.95,9.815H379.525z M405.7,136.965c-0.098,1.171-0.566,6.667-6.414,6.667
		c-6.127,0-6.752-5.741-6.752-11.449c0-6.885,1.955-11.28,6.999-11.28c5.659,0,6.059,4.997,6.138,6.618h-3.401
		c-0.056-0.748-0.137-3.68-2.792-3.68c-2.818,0-3.396,3.616-3.396,8.401c0,4.323,0.448,8.497,3.269,8.497
		c2.552,0,2.827-2.838,2.925-3.774H405.7z M410.489,143.271h-3.427l5.176-22.03h4.443l5.267,22.03h-3.603l-1.277-6.039h-5.311
		L410.489,143.271z M416.437,134.245c-0.978-4.625-1.693-7.83-2.021-9.815h-0.088c-0.28,1.99-1.047,5.524-1.95,9.815H416.437z
		 M424.009,143.271v-22.03h3.967c5.079,13.224,5.948,15.463,6.217,16.5h0.033c-0.176-2.754-0.195-6.021-0.195-9.621v-6.879h3.095
		v22.03h-3.801c-5.258-14.019-6.075-16.25-6.348-17.212h-0.032c0.162,2.728,0.172,6.096,0.172,10.049v7.163H424.009z"/>
	<path clip-path="url(#SVGID_2_)" fill="#2C78BC" d="M372.277,378.448v-2.63c0.654-0.088,1.206-0.154,2.048-0.176
		c-1.672-0.895-2.409-2.277-2.409-4.387c0-4.659,4.379-6.181,11.277-6.181c7.886,0,11.453,2.583,11.453,7.226
		c0,5.733-4.97,6.069-6.28,6.134v-3.391c0.852-0.065,3.36-0.251,3.36-2.844c0-2.737-3.482-3.578-8.514-3.578
		c-5.263,0-8.399,0.679-8.399,3.393c0,2.392,1.903,3.039,5.617,3.039h1.181v-3.26h2.942v6.655H372.277z M383.469,417.799
		c-7.869,0-11.553-2.053-11.553-7.025c0-4.673,3.603-6.837,11.57-6.837c7.798,0,11.16,2.524,11.16,6.993
		C394.646,415.649,391.057,417.799,383.469,417.799 M394.308,388.347c0,3.577-2.178,6.188-6.409,6.188
		c-4.141,0-6.468-2.361-6.468-6.51v-2.555h-9.153v-3.427h22.03V388.347z M394.308,400.658h-22.03v-3.428h22.03V400.658z
		 M383.528,407.452c-5.587,0-8.715,0.955-8.715,3.41c0,2.564,2.945,3.421,8.696,3.421c5.56,0,8.217-0.918,8.217-3.431
		C391.727,408.381,388.811,407.452,383.528,407.452 M384.212,385.47v2.174c0,2.344,1.193,3.445,3.731,3.445
		c2.282,0,3.559-1.183,3.559-3.211v-2.408H384.212z"/>
	<path clip-path="url(#SVGID_2_)" fill="#2C78BC" d="M394.75,213.424h2.07v11.528h4.62l-0.224,1.777h-6.466V213.424z
		 M404.753,226.729h-2.07v-13.305h2.07V226.729z M414.809,226.729h-1.588c-0.053-0.395-0.092-0.729-0.106-1.237
		c-0.54,1.01-1.376,1.455-2.649,1.455c-2.814,0-3.733-2.644-3.733-6.811c0-4.763,1.559-6.916,4.364-6.916
		c3.463,0,3.665,3.001,3.704,3.792h-2.047c-0.04-0.515-0.152-2.029-1.718-2.029c-1.653,0-2.161,2.102-2.161,5.141
		c0,3.18,0.41,5.074,2.049,5.074c1.444,0,1.835-1.15,1.835-3.394v-0.712h-1.968v-1.777h4.018V226.729z M416.979,213.424h2.07v5.382
		h3.585v-5.382h2.07v13.305h-2.07v-6.119h-3.585v6.119h-2.07V213.424z M428.903,215.242h-2.884v-1.818h7.839v1.818h-2.885v11.487
		h-2.07V215.242z"/>
	<path clip-path="url(#SVGID_2_)" fill="#2C78BC" d="M487.628,338.724v5.828h-2.056v-13.305h3.868c2.356,0,3.657,1.263,3.657,3.567
		c0,1.946-1.01,2.782-1.743,3.057c1.099,0.468,1.551,1.416,1.551,3.346v0.53c0,1.419,0.061,2.092,0.183,2.805h-2.013
		c-0.191-0.609-0.218-1.707-0.218-2.83v-0.473c0-1.819-0.401-2.525-2.005-2.525H487.628z M487.628,337.03h1.317
		c1.5,0,2.079-0.72,2.079-2.134c0-1.211-0.571-1.955-1.877-1.955h-1.519V337.03z M502.725,344.552h-1.588
		c-0.052-0.395-0.091-0.729-0.105-1.237c-0.541,1.01-1.376,1.455-2.649,1.455c-2.815,0-3.734-2.646-3.734-6.811
		c0-4.762,1.56-6.916,4.364-6.916c3.463,0,3.665,3.001,3.705,3.792h-2.048c-0.039-0.514-0.152-2.029-1.718-2.029
		c-1.652,0-2.161,2.102-2.161,5.142c0,3.179,0.411,5.073,2.05,5.073c1.444,0,1.835-1.15,1.835-3.393v-0.713h-1.969v-1.777h4.018
		V344.552z M504.882,331.247h3.854c2.2,0,3.453,1.249,3.453,3.327c0,1.714-0.821,2.516-1.571,2.791
		c0.964,0.375,1.974,1.26,1.974,3.279c0,2.482-1.578,3.908-3.925,3.908h-3.785V331.247z M508.188,336.637
		c1.546,0,2.009-0.63,2.009-1.875c0-1.219-0.643-1.854-1.891-1.854h-1.395v3.729H508.188z M506.91,342.918h1.547
		c1.317,0,2.058-0.723,2.058-2.304c0-1.511-0.684-2.344-2.325-2.344h-1.28V342.918z M518.17,331.247h2.07v11.528h4.62l-0.225,1.777
		h-6.465V331.247z M532.473,338.478h-4.328v4.284h4.841l-0.261,1.791h-6.622v-13.305h6.578v1.818h-4.536v3.607h4.328V338.478z
		 M534.488,331.247h3.293c3.302,0,4.645,2.176,4.645,6.353c0,4.501-1.263,6.952-4.838,6.952h-3.099V331.247z M536.572,342.844h0.978
		c2.056,0,2.742-1.582,2.742-5.221c0-3.221-0.686-4.64-2.723-4.64h-0.997V342.844z"/>
	<path clip-path="url(#SVGID_2_)" fill="#2C78BC" d="M388.688,304.085c0.112,1.193,0.628,2.206,1.928,2.206
		c1.248,0,1.774-0.744,1.774-1.919c0-1.198-0.548-1.871-2.274-2.698c-2.212-1.052-3.113-1.997-3.113-3.957
		c0-2.029,1.303-3.488,3.628-3.488c2.848,0,3.571,1.962,3.611,3.635h-2.029c-0.072-0.72-0.269-1.983-1.627-1.983
		c-1.058,0-1.521,0.703-1.521,1.661c0,1.066,0.475,1.566,2.071,2.314c2.367,1.106,3.363,2.19,3.363,4.333
		c0,2.093-1.257,3.755-3.944,3.755c-2.925,0-3.839-1.886-3.929-3.859H388.688z M402.613,301.657h-4.328v4.284h4.84l-0.261,1.791
		h-6.621v-13.305h6.578v1.818h-4.536v3.608h4.328V301.657z M404.627,307.732v-13.305h2.396c3.068,7.987,3.592,9.339,3.755,9.965
		h0.02c-0.106-1.663-0.118-3.637-0.118-5.81v-4.155h1.869v13.305h-2.296c-3.175-8.466-3.668-9.814-3.833-10.396h-0.02
		c0.098,1.648,0.104,3.682,0.104,6.07v4.326H404.627z M416.22,304.085c0.112,1.193,0.628,2.206,1.928,2.206
		c1.248,0,1.774-0.744,1.774-1.919c0-1.198-0.548-1.871-2.274-2.698c-2.212-1.052-3.113-1.997-3.113-3.957
		c0-2.029,1.302-3.488,3.629-3.488c2.848,0,3.57,1.962,3.61,3.635h-2.029c-0.073-0.72-0.269-1.983-1.627-1.983
		c-1.058,0-1.521,0.703-1.521,1.661c0,1.066,0.475,1.566,2.071,2.314c2.367,1.106,3.363,2.19,3.363,4.333
		c0,2.093-1.257,3.755-3.944,3.755c-2.925,0-3.838-1.886-3.929-3.859H416.22z M431.717,300.974c0,4.753-1.24,6.977-4.243,6.977
		c-2.822,0-4.128-2.176-4.128-6.988c0-4.709,1.524-6.739,4.223-6.739C430.418,294.224,431.717,296.392,431.717,300.974
		 M425.469,300.938c0,3.375,0.577,5.264,2.059,5.264c1.55,0,2.067-1.78,2.067-5.252c0-3.359-0.555-4.963-2.073-4.963
		C426.029,295.986,425.469,297.748,425.469,300.938 M435.728,301.904v5.828h-2.056v-13.305h3.868c2.355,0,3.657,1.263,3.657,3.567
		c0,1.945-1.011,2.782-1.743,3.057c1.099,0.468,1.551,1.416,1.551,3.346v0.531c0,1.418,0.06,2.091,0.182,2.804h-2.012
		c-0.191-0.609-0.218-1.707-0.218-2.83v-0.473c0-1.819-0.401-2.525-2.005-2.525H435.728z M435.728,300.21h1.316
		c1.5,0,2.08-0.72,2.08-2.134c0-1.211-0.572-1.955-1.877-1.955h-1.519V300.21z"/>
</g>
<text transform="matrix(1 0 0 1 238.8955 245.8896)"><tspan x="0" y="0" fill="#2C78BC" font-family="'OCRAStd'" font-size="24.5465" letter-spacing="-1">3</tspan><tspan x="16.544" y="0" fill="#2C78BC" font-family="'OCRAStd'" font-size="24.5465">.</tspan></text>
<text transform="matrix(1 0 0 1 271.9351 245.8896)" fill="#2C78BC" font-family="'OCRAStd'" font-size="24.5465">3</text>
<text transform="matrix(1 0 0 1 288.3813 245.8896)" fill="#2C78BC" font-family="'OCRAStd'" font-size="24.5465"> </text>
<text transform="matrix(1 0 0 1 304.7783 245.8896)" fill="#2C78BC" font-family="'OCRAStd'" font-size="24.5465">V</text>
<text transform="matrix(1 0 0 1 238.8955 276.8184)" fill="#2C78BC" font-family="'OCRAStd'" font-size="24.5465">G</text>
<text transform="matrix(1 0 0 1 255.3906 276.8184)" fill="#2C78BC" font-family="'OCRAStd'" font-size="24.5465">N</text>
<text transform="matrix(1 0 0 1 271.8369 276.8184)" fill="#2C78BC" font-family="'OCRAStd'" font-size="24.5465">D</text>
<text transform="matrix(1 0 0 1 238.8955 338.6753)"><tspan x="0" y="0" fill="#2C78BC" font-family="'OCRAStd'" font-size="24.5465" letter-spacing="-1">4 </tspan><tspan x="33.088" y="0" fill="#2C78BC" font-family="'OCRAStd'" font-size="24.5465">(</tspan></text>
<text transform="matrix(1 0 0 1 288.4551 338.6753)" fill="#2C78BC" font-family="'OCRAStd'" font-size="24.5465">I</text>
<text transform="matrix(1 0 0 1 304.8765 338.6753)" fill="#2C78BC" font-family="'OCRAStd'" font-size="24.5465">O</text>
<text transform="matrix(1 0 0 1 321.249 338.6753)" fill="#2C78BC" font-family="'OCRAStd'" font-size="24.5465">)</text>
<text transform="matrix(1 0 0 1 238.8955 369.604)"><tspan x="0" y="0" fill="#2C78BC" font-family="'OCRAStd'" font-size="24.5465" letter-spacing="-1">5 </tspan><tspan x="33.088" y="0" fill="#2C78BC" font-family="'OCRAStd'" font-size="24.5465">(</tspan></text>
<text transform="matrix(1 0 0 1 288.4551 369.604)" fill="#2C78BC" font-family="'OCRAStd'" font-size="24.5465">P</text>
<text transform="matrix(1 0 0 1 304.8765 369.604)" fill="#2C78BC" font-family="'OCRAStd'" font-size="24.5465">W</text>
<text transform="matrix(1 0 0 1 321.249 369.604)" fill="#2C78BC" font-family="'OCRAStd'" font-size="24.5465">)</text>
<text transform="matrix(1 0 0 1 238.8955 400.5327)"><tspan x="0" y="0" fill="#2C78BC" font-family="'OCRAStd'" font-size="24.5465" letter-spacing="-1">10 </tspan><tspan x="49.632" y="0" fill="#2C78BC" font-family="'OCRAStd'" font-size="24.5465">(</tspan></text>
<text transform="matrix(1 0 0 1 304.9746 400.5327)" fill="#2C78BC" font-family="'OCRAStd'" font-size="24.5465">P</text>
<text transform="matrix(1 0 0 1 321.3716 400.5327)" fill="#2C78BC" font-family="'OCRAStd'" font-size="24.5465">W</text>
<text transform="matrix(1 0 0 1 337.7197 400.5327)" fill="#2C78BC" font-family="'OCRAStd'" font-size="24.5465">)</text>
<text transform="matrix(1 0 0 1 238.8955 431.4609)"><tspan x="0" y="0" fill="#2C78BC" font-family="'OCRAStd'" font-size="24.5465" letter-spacing="-1">16 </tspan><tspan x="49.632" y="0" fill="#2C78BC" font-family="'OCRAStd'" font-size="24.5465">(</tspan></text>
<text transform="matrix(1 0 0 1 304.9746 431.4609)" fill="#2C78BC" font-family="'OCRAStd'" font-size="24.5465">P</text>
<text transform="matrix(1 0 0 1 321.3716 431.4609)" fill="#2C78BC" font-family="'OCRAStd'" font-size="24.5465">W</text>
<text transform="matrix(1 0 0 1 337.7197 431.4609)" fill="#2C78BC" font-family="'OCRAStd'" font-size="24.5465">)</text>
<text transform="matrix(1 0 0 1 238.8955 462.3896)"><tspan x="0" y="0" fill="#2C78BC" font-family="'OCRAStd'" font-size="24.5465" letter-spacing="-1">14</tspan><tspan x="33.088" y="0" fill="#2C78BC" font-family="'OCRAStd'" font-size="24.5465"> </tspan></text>
<text transform="matrix(1 0 0 1 288.4551 462.3896)" fill="#2C78BC" font-family="'OCRAStd'" font-size="24.5465">(</text>
<text transform="matrix(1 0 0 1 304.8765 462.3896)" fill="#2C78BC" font-family="'OCRAStd'" font-size="24.5465">L</text>
<text transform="matrix(1 0 0 1 321.249 462.3896)" fill="#2C78BC" font-family="'OCRAStd'" font-size="24.5465">)</text>
<text transform="matrix(1 0 0 1 238.8955 493.3184)"><tspan x="0" y="0" fill="#2C78BC" font-family="'OCRAStd'" font-size="24.5465" letter-spacing="-1">12</tspan><tspan x="33.088" y="0" fill="#2C78BC" font-family="'OCRAStd'" font-size="24.5465"> </tspan></text>
<text transform="matrix(1 0 0 1 288.4551 493.3184)" fill="#2C78BC" font-family="'OCRAStd'" font-size="24.5465">(</text>
<text transform="matrix(1 0 0 1 304.8765 493.3184)" fill="#2C78BC" font-family="'OCRAStd'" font-size="24.5465">D</text>
<text transform="matrix(1 0 0 1 321.249 493.3184)" fill="#2C78BC" font-family="'OCRAStd'" font-size="24.5465">)</text>
<text transform="matrix(1 0 0 1 238.8955 524.2471)"><tspan x="0" y="0" fill="#2C78BC" font-family="'OCRAStd'" font-size="24.5465" letter-spacing="-1">13</tspan><tspan x="33.088" y="0" fill="#2C78BC" font-family="'OCRAStd'" font-size="24.5465"> </tspan></text>
<text transform="matrix(1 0 0 1 288.4551 524.2471)" fill="#2C78BC" font-family="'OCRAStd'" font-size="24.5465">(</text>
<text transform="matrix(1 0 0 1 304.8765 524.2471)" fill="#2C78BC" font-family="'OCRAStd'" font-size="24.5465">C</text>
<text transform="matrix(1 0 0 1 321.249 524.2471)" fill="#2C78BC" font-family="'OCRAStd'" font-size="24.5465">)</text>
<text transform="matrix(1 0 0 1 739.6445 226.2524)" fill="#2C78BC" font-family="'OCRAStd'" font-size="24.5465">S</text>
<text transform="matrix(1 0 0 1 756.1152 226.2524)" fill="#2C78BC" font-family="'OCRAStd'" font-size="24.5465">1</text>
<text transform="matrix(1 0 0 1 739.6445 420.1699)" fill="#2C78BC" font-family="'OCRAStd'" font-size="24.5465">S</text>
<text transform="matrix(1 0 0 1 756.1152 420.1699)" fill="#2C78BC" font-family="'OCRAStd'" font-size="24.5465">3</text>
<text transform="matrix(1 0 0 1 658.6406 356.3486)" fill="#2C78BC" font-family="'OCRAStd'" font-size="24.5465">S</text>
<text transform="matrix(1 0 0 1 675.1113 356.3486)" fill="#2C78BC" font-family="'OCRAStd'" font-size="24.5465">4</text>
<text transform="matrix(1 0 0 1 820.6475 356.3486)" fill="#2C78BC" font-family="'OCRAStd'" font-size="24.5465">S</text>
<text transform="matrix(1 0 0 1 837.1182 356.3486)" fill="#2C78BC" font-family="'OCRAStd'" font-size="24.5465">2</text>
<text transform="matrix(1 0 0 1 241.3481 555.1748)"><tspan x="0" y="0" fill="#2C78BC" font-family="'OCRAStd'" font-size="17.1826">0 (12</tspan><tspan x="57.904" y="0" fill="#2C78BC" font-family="'OCRAStd'" font-size="17.1826">C</tspan></text>
<text transform="matrix(1 0 0 1 310.7314 555.1748)" fill="#2C78BC" font-family="'OCRAStd'" font-size="17.1826">-</text>
<text transform="matrix(1 0 0 1 322.1748 555.1748)" fill="#2C78BC" font-family="'OCRAStd'" font-size="17.1826">D</text>
<text transform="matrix(1 0 0 1 333.5845 555.1748)" fill="#2C78BC" font-family="'OCRAStd'" font-size="17.1826">)</text>
<text transform="matrix(1 0 0 1 241.3481 586.1035)"><tspan x="0" y="0" fill="#2C78BC" font-family="'OCRAStd'" font-size="17.1826">2 (12</tspan><tspan x="57.904" y="0" fill="#2C78BC" font-family="'OCRAStd'" font-size="17.1826">C</tspan></text>
<text transform="matrix(1 0 0 1 310.7314 586.1035)" fill="#2C78BC" font-family="'OCRAStd'" font-size="17.1826">-</text>
<text transform="matrix(1 0 0 1 322.1748 586.1035)" fill="#2C78BC" font-family="'OCRAStd'" font-size="17.1826">D</text>
<text transform="matrix(1 0 0 1 333.5845 586.1035)" fill="#2C78BC" font-family="'OCRAStd'" font-size="17.1826">)</text>
<text transform="matrix(1 0 0 1 174.6626 621.4482)"><tspan x="0" y="0" fill="#2C78BC" font-family="'OCRAStd'" font-size="17.1826">V +</tspan><tspan x="34.743" y="0" fill="#2C78BC" font-family="'OCRAStd'" font-size="17.1826"> </tspan></text>
<text transform="matrix(1 0 0 1 220.918 621.4482)" fill="#2C78BC" font-family="'OCRAStd'" font-size="17.1826">G</text>
<text transform="matrix(1 0 0 1 232.396 621.4482)" fill="#2C78BC" font-family="'OCRAStd'" font-size="17.1826">N</text>
<text transform="matrix(1 0 0 1 243.8394 621.4482)" fill="#2C78BC" font-family="'OCRAStd'" font-size="17.1826">D</text>
<text transform="matrix(1 0 0 1 177.5317 690.1787)" fill="#2C78BC" font-family="'OCRAStd'" font-size="17.1826">C</text>
<text transform="matrix(1 0 0 1 189.0615 690.1787)" fill="#2C78BC" font-family="'OCRAStd'" font-size="17.1826">K</text>
<text transform="matrix(1 0 0 1 275.7134 690.1787)" fill="#2C78BC" font-family="'OCRAStd'" font-size="17.1826">C</text>
<text transform="matrix(1 0 0 1 287.2427 690.1787)" fill="#2C78BC" font-family="'OCRAStd'" font-size="17.1826">O</text>
<text transform="matrix(1 0 0 1 243.8052 690.1787)" fill="#2C78BC" font-family="'OCRAStd'" font-size="17.1826">M</text>
<text transform="matrix(1 0 0 1 255.335 690.1787)" fill="#2C78BC" font-family="'OCRAStd'" font-size="17.1826">I</text>
<text transform="matrix(1 0 0 1 211.897 690.1787)" fill="#2C78BC" font-family="'OCRAStd'" font-size="17.1826">M</text>
<text transform="matrix(1 0 0 1 223.4268 690.1787)" fill="#2C78BC" font-family="'OCRAStd'" font-size="17.1826">O</text>
<text transform="matrix(1 0 0 1 869.1006 636.5459)" fill="#2E78BC" font-family="'Nunito-ExtraBold'" font-size="34.2443">0</text>
<text transform="matrix(1 0 0 1 869.1006 517.8213)" fill="#2E78BC" font-family="'Nunito-ExtraBold'" font-size="34.2443">1</text>
<g>
	<defs>
		<rect id="SVGID_3_" width="1078.75" height="971.698"/>
	</defs>
	<clipPath id="SVGID_4_">
		<use xlink:href="#SVGID_3_"  overflow="visible"/>
	</clipPath>
	<path clip-path="url(#SVGID_4_)" fill="none" stroke="#2C78BC" stroke-width="3.034" stroke-miterlimit="10" d="M199.368,214.298
		h129.688c20.026,0,36.411,16.385,36.411,36.41v310.107c0,20.023-16.385,36.409-36.411,36.409H199.368"/>
	<rect x="226.78" y="280.574" clip-path="url(#SVGID_4_)" fill="#2C78BC" width="137.46" height="31.91"/>
</g>
<text transform="matrix(1 0 0 1 278.168 307.2568)" fill="#FFFFFF" font-family="'OCRAStd'" font-size="26.1943">A</text>
<text transform="matrix(1 0 0 1 295.7441 307.2568)" fill="#FFFFFF" font-family="'OCRAStd'" font-size="26.1943">O</text>
<g>
	<defs>
		<rect id="SVGID_5_" width="1078.75" height="971.698"/>
	</defs>
	<clipPath id="SVGID_6_">
		<use xlink:href="#SVGID_5_"  overflow="visible"/>
	</clipPath>
	
		<line clip-path="url(#SVGID_6_)" fill="none" stroke="#2C78BC" stroke-width="2.455" stroke-miterlimit="10" x1="225.551" y1="436.445" x2="365.467" y2="436.445"/>
	
		<line clip-path="url(#SVGID_6_)" fill="none" stroke="#2C78BC" stroke-width="2.455" stroke-miterlimit="10" x1="225.551" y1="528.494" x2="365.467" y2="528.494"/>
	<path clip-path="url(#SVGID_6_)" fill="none" stroke="#2E78BC" stroke-width="7.134" stroke-miterlimit="10" d="M443.916,261.18
		c0-10.333-5.356-19.464-13.42-24.789h-32.557c-8.065,5.325-13.42,14.456-13.42,24.789c0,9.296,4.336,17.62,11.078,23.076h37.241
		C439.579,278.8,443.916,270.476,443.916,261.18z"/>
</g>
<text transform="matrix(1 0 0 1 505.3027 213.0479)" fill="#2E78BC" font-family="'OCRAStd'" font-size="24.5465">R</text>
<g>
	<defs>
		<rect id="SVGID_7_" width="1078.75" height="971.698"/>
	</defs>
	<clipPath id="SVGID_8_">
		<use xlink:href="#SVGID_7_"  overflow="visible"/>
	</clipPath>
	<path clip-path="url(#SVGID_8_)" fill="#2C78BC" d="M610.746,412.25h3.852c2.202,0,3.455,1.249,3.455,3.327
		c0,1.714-0.821,2.516-1.571,2.791c0.964,0.375,1.975,1.26,1.975,3.279c0,2.483-1.578,3.908-3.925,3.908h-3.785V412.25z
		 M614.052,417.641c1.545,0,2.007-0.63,2.007-1.875c0-1.219-0.641-1.855-1.889-1.855h-1.396v3.73H614.052z M612.773,423.922h1.547
		c1.317,0,2.06-0.724,2.06-2.304c0-1.511-0.686-2.344-2.326-2.344h-1.28V423.922z M622.222,419.728v5.827h-2.056V412.25h3.868
		c2.354,0,3.656,1.263,3.656,3.567c0,1.946-1.011,2.783-1.743,3.057c1.1,0.468,1.552,1.416,1.552,3.347v0.53
		c0,1.418,0.06,2.091,0.182,2.804h-2.012c-0.191-0.608-0.219-1.706-0.219-2.829v-0.474c0-1.818-0.4-2.524-2.005-2.524H622.222z
		 M622.222,418.033h1.316c1.5,0,2.079-0.719,2.079-2.133c0-1.211-0.571-1.955-1.876-1.955h-1.52V418.033z M635.98,419.48h-4.328
		v4.285h4.842l-0.263,1.79h-6.621V412.25h6.578v1.819h-4.536v3.607h4.328V419.48z M639.514,425.555h-2.07l3.127-13.305h2.684
		l3.18,13.305h-2.175l-0.771-3.647h-3.21L639.514,425.555z M643.105,420.104c-0.592-2.793-1.021-4.729-1.22-5.927h-0.053
		c-0.169,1.202-0.633,3.336-1.179,5.927H643.105z M647.676,412.25h3.292c3.3,0,4.647,2.176,4.647,6.354
		c0,4.501-1.267,6.951-4.843,6.951h-3.097V412.25z M649.759,423.847h0.977c2.058,0,2.741-1.581,2.741-5.22
		c0-3.221-0.683-4.641-2.721-4.641h-0.997V423.847z M657.539,412.25h3.854c2.201,0,3.454,1.249,3.454,3.327
		c0,1.714-0.821,2.516-1.571,2.791c0.965,0.375,1.974,1.26,1.974,3.279c0,2.483-1.577,3.908-3.924,3.908h-3.786V412.25z
		 M660.846,417.641c1.543,0,2.006-0.63,2.006-1.875c0-1.219-0.64-1.855-1.889-1.855h-1.396v3.73H660.846z M659.566,423.922h1.547
		c1.317,0,2.061-0.724,2.061-2.304c0-1.511-0.686-2.344-2.326-2.344h-1.281V423.922z M674.982,418.796
		c0,4.753-1.238,6.978-4.242,6.978c-2.822,0-4.129-2.176-4.129-6.989c0-4.709,1.525-6.739,4.224-6.739
		C673.684,412.046,674.982,414.214,674.982,418.796 M668.733,418.76c0,3.375,0.577,5.264,2.061,5.264
		c1.549,0,2.065-1.779,2.065-5.252c0-3.359-0.554-4.963-2.071-4.963C669.296,413.809,668.733,415.571,668.733,418.76
		 M677.845,425.555h-2.071l3.126-13.305h2.685l3.18,13.305h-2.175l-0.772-3.647h-3.208L677.845,425.555z M681.436,420.104
		c-0.59-2.793-1.021-4.729-1.22-5.927h-0.053c-0.169,1.202-0.634,3.336-1.179,5.927H681.436z M688.063,419.728v5.827h-2.055V412.25
		h3.868c2.354,0,3.657,1.263,3.657,3.567c0,1.946-1.013,2.783-1.744,3.057c1.1,0.468,1.552,1.416,1.552,3.347v0.53
		c0,1.418,0.06,2.091,0.182,2.804h-2.012c-0.191-0.608-0.219-1.706-0.219-2.829v-0.474c0-1.818-0.403-2.524-2.004-2.524H688.063z
		 M688.063,418.033h1.317c1.5,0,2.08-0.719,2.08-2.133c0-1.211-0.572-1.955-1.877-1.955h-1.521V418.033z M695.453,412.25h3.292
		c3.303,0,4.645,2.176,4.645,6.354c0,4.501-1.262,6.951-4.838,6.951h-3.099V412.25z M697.537,423.847h0.977
		c2.057,0,2.742-1.581,2.742-5.22c0-3.221-0.686-4.641-2.723-4.641h-0.996V423.847z"/>
	<rect x="606.021" y="214.348" clip-path="url(#SVGID_8_)" fill="#FFFFFF" width="53.25" height="32.922"/>
	
		<rect x="606.021" y="214.348" clip-path="url(#SVGID_8_)" fill="none" stroke="#2E78BC" stroke-width="7.134" stroke-miterlimit="10" width="53.25" height="32.922"/>
	<line clip-path="url(#SVGID_8_)" fill="#FFFFFF" x1="649.129" y1="244.522" x2="649.129" y2="254.123"/>
	
		<line clip-path="url(#SVGID_8_)" fill="none" stroke="#2E78BC" stroke-width="7.134" stroke-miterlimit="10" x1="649.129" y1="244.522" x2="649.129" y2="254.123"/>
	<line clip-path="url(#SVGID_8_)" fill="#FFFFFF" x1="639.529" y1="244.522" x2="639.529" y2="254.123"/>
	
		<line clip-path="url(#SVGID_8_)" fill="none" stroke="#2E78BC" stroke-width="7.134" stroke-miterlimit="10" x1="639.529" y1="244.522" x2="639.529" y2="254.123"/>
	<line clip-path="url(#SVGID_8_)" fill="#FFFFFF" x1="629.93" y1="244.522" x2="629.93" y2="254.123"/>
	
		<line clip-path="url(#SVGID_8_)" fill="none" stroke="#2E78BC" stroke-width="7.134" stroke-miterlimit="10" x1="629.93" y1="244.522" x2="629.93" y2="254.123"/>
	<line clip-path="url(#SVGID_8_)" fill="#FFFFFF" x1="620.33" y1="244.522" x2="620.33" y2="254.123"/>
	
		<line clip-path="url(#SVGID_8_)" fill="none" stroke="#2E78BC" stroke-width="7.134" stroke-miterlimit="10" x1="620.33" y1="244.522" x2="620.33" y2="254.123"/>
	<line clip-path="url(#SVGID_8_)" fill="#FFFFFF" x1="649.129" y1="207.492" x2="649.129" y2="217.097"/>
	
		<line clip-path="url(#SVGID_8_)" fill="none" stroke="#2E78BC" stroke-width="7.134" stroke-miterlimit="10" x1="649.129" y1="207.492" x2="649.129" y2="217.097"/>
	<line clip-path="url(#SVGID_8_)" fill="#FFFFFF" x1="639.529" y1="207.492" x2="639.529" y2="217.097"/>
	
		<line clip-path="url(#SVGID_8_)" fill="none" stroke="#2E78BC" stroke-width="7.134" stroke-miterlimit="10" x1="639.529" y1="207.492" x2="639.529" y2="217.097"/>
	<line clip-path="url(#SVGID_8_)" fill="#FFFFFF" x1="629.93" y1="207.492" x2="629.93" y2="217.097"/>
	
		<line clip-path="url(#SVGID_8_)" fill="none" stroke="#2E78BC" stroke-width="7.134" stroke-miterlimit="10" x1="629.93" y1="207.492" x2="629.93" y2="217.097"/>
	<line clip-path="url(#SVGID_8_)" fill="#FFFFFF" x1="620.33" y1="207.492" x2="620.33" y2="217.097"/>
	
		<line clip-path="url(#SVGID_8_)" fill="none" stroke="#2E78BC" stroke-width="7.134" stroke-miterlimit="10" x1="620.33" y1="207.492" x2="620.33" y2="217.097"/>
	<path clip-path="url(#SVGID_8_)" fill="#FFFFFF" d="M612.557,366.929c-11.737,0-21.257-9.516-21.257-21.26
		c0-11.737,9.52-21.257,21.257-21.257c11.738,0,21.257,9.52,21.257,21.257C633.813,357.413,624.295,366.929,612.557,366.929"/>
	<path clip-path="url(#SVGID_8_)" fill="none" stroke="#2E78BC" stroke-width="7.134" stroke-miterlimit="10" d="M612.557,366.929
		c-11.737,0-21.257-9.516-21.257-21.26c0-11.737,9.52-21.257,21.257-21.257c11.738,0,21.257,9.52,21.257,21.257
		C633.813,357.413,624.295,366.929,612.557,366.929z"/>
	<path clip-path="url(#SVGID_8_)" fill-rule="evenodd" clip-rule="evenodd" fill="#2E78BC" d="M683.677,588.84
		c0,34.14-27.675,61.815-61.814,61.815s-61.814-27.676-61.814-61.815c0-34.139,27.675-61.814,61.814-61.814
		S683.677,554.701,683.677,588.84"/>
	<path clip-path="url(#SVGID_8_)" fill-rule="evenodd" clip-rule="evenodd" fill="#2E78BC" d="M636.192,588.84
		c0,7.914-6.416,14.33-14.33,14.33c-7.915,0-14.33-6.416-14.33-14.33s6.415-14.33,14.33-14.33
		C629.776,574.51,636.192,580.926,636.192,588.84"/>
	
		<circle clip-path="url(#SVGID_8_)" fill="none" stroke="#FFFFFF" stroke-width="2.533" stroke-miterlimit="10" cx="621.862" cy="588.84" r="14.33"/>
</g>
<text transform="matrix(1 0 0 1 563.0801 599.8174)" fill="#FFFFFF" font-family="'OCRAStd'" font-size="30">+</text>
<g>
	<defs>
		<rect id="SVGID_9_" width="1078.75" height="971.698"/>
	</defs>
	<clipPath id="SVGID_10_">
		<use xlink:href="#SVGID_9_"  overflow="visible"/>
	</clipPath>
	<path clip-path="url(#SVGID_10_)" fill="none" stroke="#FBAF19" stroke-width="16" stroke-miterlimit="10" d="M569.825,493.567
		c-33.594-60.605-83.739-123.595-148.631-147.897c-64.892-24.302-158.055-25.12-209.144,13.911"/>
	<path clip-path="url(#SVGID_10_)" fill="none" stroke="#000000" stroke-width="15" stroke-miterlimit="10" d="M663.365,494.026
		c-1.482-52.034-23.924-106.905-45.965-153.702c-19.025-40.396-44.557-78.45-79.139-106.697
		c-27.092-22.129-59.241-37.767-92.993-46.959c-45.351-12.352-94.86-12.909-138.467,4.635c-18.347,7.382-35.397,17.93-50.296,30.927
		c-15.347,13.39-24.837,29.033-36.592,44.99"/>
	
		<rect x="150.553" y="249.063" clip-path="url(#SVGID_10_)" fill-rule="evenodd" clip-rule="evenodd" width="46.458" height="31.497"/>
	
		<rect x="150.553" y="342.778" clip-path="url(#SVGID_10_)" fill-rule="evenodd" clip-rule="evenodd" fill="#FBAF19" width="46.458" height="31.497"/>
	
		<rect x="855.45" y="527.97" clip-path="url(#SVGID_10_)" fill="none" stroke="#2E78BC" stroke-width="7.134" stroke-miterlimit="10" width="31.241" height="73.518"/>
	
		<rect x="886.691" y="534.716" clip-path="url(#SVGID_10_)" fill-rule="evenodd" clip-rule="evenodd" fill="#2E78BC" width="13.109" height="13.11"/>
</g>
</svg>
