<?xml version="1.0" encoding="utf-8"?>
<!-- Generator: Adobe Illustrator 16.0.0, SVG Export Plug-In . SVG Version: 6.00 Build 0)  -->
<!DOCTYPE svg PUBLIC "-//W3C//DTD SVG 1.1//EN" "http://www.w3.org/Graphics/SVG/1.1/DTD/svg11.dtd">
<svg version="1.1" id="Layer_1" xmlns="http://www.w3.org/2000/svg" xmlns:xlink="http://www.w3.org/1999/xlink" x="0px" y="0px"
	 width="1078.75px" height="971.699px" viewBox="0 0 1078.75 971.699" enable-background="new 0 0 1078.75 971.699"
	 xml:space="preserve">
<rect x="594.645" y="157.383" fill="#15394C" width="31.275" height="25.104"/>
<rect x="592.997" y="106.039" fill="#EE8322" stroke="#4C6482" stroke-width="2" stroke-miterlimit="10" width="31.497" height="51.344"/>
<rect x="200.588" y="312.684" fill="#15394C" width="25.104" height="31.276"/>
<path fill="none" stroke="#2E78BC" stroke-width="7.134" stroke-miterlimit="10" d="M793.231,803.312H261.817
	c-65.807,0-119.648-53.842-119.648-119.646V222.543c0-65.807,53.841-119.648,119.648-119.648H793.23
	c65.808,0,119.647,53.841,119.647,119.648v461.123C912.879,749.47,859.038,803.312,793.231,803.312z"/>
<polygon fill="none" stroke="#2E78BC" stroke-width="7.134" stroke-miterlimit="10" points="420.671,459.647 420.671,433.77 
	720.252,435.888 720.252,459.647 758.746,459.647 758.746,656.75 721.926,656.75 721.926,681.853 420.671,681.853 420.671,660.097 
	382.177,660.097 382.177,459.647 "/>
<path fill="#2E78BC" d="M421.194,495.699c0,3.195-2.591,5.785-5.784,5.785c-3.195,0-5.785-2.59-5.785-5.785
	c0-3.193,2.59-5.783,5.785-5.783C418.604,489.916,421.194,492.505,421.194,495.699"/>
<path fill="#2E78BC" d="M452.436,495.699c0,3.195-2.59,5.785-5.783,5.785c-3.194,0-5.784-2.59-5.784-5.785
	c0-3.193,2.59-5.783,5.784-5.783C449.846,489.916,452.436,492.505,452.436,495.699"/>
<path fill="#2E78BC" d="M483.677,495.699c0,3.195-2.589,5.785-5.784,5.785c-3.194,0-5.783-2.59-5.783-5.785
	c0-3.193,2.589-5.783,5.783-5.783C481.088,489.916,483.677,492.505,483.677,495.699"/>
<path fill="#2E78BC" d="M514.919,495.699c0,3.195-2.59,5.785-5.784,5.785s-5.784-2.59-5.784-5.785c0-3.193,2.59-5.783,5.784-5.783
	S514.919,492.505,514.919,495.699"/>
<path fill="#2E78BC" d="M546.159,495.699c0,3.195-2.589,5.785-5.783,5.785c-3.196,0-5.784-2.59-5.784-5.785
	c0-3.193,2.588-5.783,5.784-5.783C543.57,489.916,546.159,492.505,546.159,495.699"/>
<path fill="#2E78BC" d="M577.401,495.699c0,3.195-2.591,5.785-5.785,5.785c-3.192,0-5.784-2.59-5.784-5.785
	c0-3.193,2.592-5.783,5.784-5.783C574.813,489.916,577.401,492.505,577.401,495.699"/>
<path fill="#2E78BC" d="M608.643,495.699c0,3.195-2.59,5.785-5.784,5.785c-3.193,0-5.784-2.59-5.784-5.785
	c0-3.193,2.591-5.783,5.784-5.783C606.053,489.916,608.643,492.505,608.643,495.699"/>
<path fill="#2E78BC" d="M639.884,495.699c0,3.195-2.591,5.785-5.784,5.785c-3.194,0-5.784-2.59-5.784-5.785
	c0-3.193,2.59-5.783,5.784-5.783C637.293,489.916,639.884,492.505,639.884,495.699"/>
<path fill="#2E78BC" d="M671.125,495.699c0,3.195-2.59,5.785-5.784,5.785c-3.193,0-5.785-2.59-5.785-5.785
	c0-3.193,2.592-5.783,5.785-5.783C668.535,489.916,671.125,492.505,671.125,495.699"/>
<path fill="#2E78BC" d="M702.366,495.699c0,3.195-2.591,5.785-5.784,5.785c-3.196,0-5.785-2.59-5.785-5.785
	c0-3.193,2.589-5.783,5.785-5.783C699.775,489.916,702.366,492.505,702.366,495.699"/>
<path fill="#2E78BC" d="M733.607,495.699c0,3.195-2.591,5.785-5.784,5.785c-3.194,0-5.784-2.59-5.784-5.785
	c0-3.193,2.59-5.783,5.784-5.783C731.017,489.916,733.607,492.505,733.607,495.699"/>
<path fill="#2E78BC" d="M421.194,527.324c0,3.191-2.591,5.783-5.784,5.783c-3.195,0-5.785-2.592-5.785-5.783
	c0-3.195,2.59-5.785,5.785-5.785C418.604,521.539,421.194,524.128,421.194,527.324"/>
<path fill="#2E78BC" d="M452.436,527.324c0,3.191-2.59,5.783-5.783,5.783c-3.194,0-5.784-2.592-5.784-5.783
	c0-3.195,2.59-5.785,5.784-5.785C449.846,521.539,452.436,524.128,452.436,527.324"/>
<path fill="#2E78BC" d="M483.677,527.324c0,3.191-2.589,5.783-5.784,5.783c-3.194,0-5.783-2.592-5.783-5.783
	c0-3.195,2.589-5.785,5.783-5.785C481.088,521.539,483.677,524.128,483.677,527.324"/>
<path fill="#2E78BC" d="M514.919,527.324c0,3.191-2.59,5.783-5.784,5.783s-5.784-2.592-5.784-5.783c0-3.195,2.59-5.785,5.784-5.785
	S514.919,524.128,514.919,527.324"/>
<path fill="#2E78BC" d="M546.159,527.324c0,3.191-2.589,5.783-5.783,5.783c-3.196,0-5.784-2.592-5.784-5.783
	c0-3.195,2.588-5.785,5.784-5.785C543.57,521.539,546.159,524.128,546.159,527.324"/>
<path fill="#2E78BC" d="M577.401,527.324c0,3.191-2.591,5.783-5.785,5.783c-3.192,0-5.784-2.592-5.784-5.783
	c0-3.195,2.592-5.785,5.784-5.785C574.813,521.539,577.401,524.128,577.401,527.324"/>
<path fill="#2E78BC" d="M608.643,527.324c0,3.191-2.59,5.783-5.784,5.783c-3.193,0-5.784-2.592-5.784-5.783
	c0-3.195,2.591-5.785,5.784-5.785C606.053,521.539,608.643,524.128,608.643,527.324"/>
<path fill="#2E78BC" d="M639.884,527.324c0,3.191-2.591,5.783-5.784,5.783c-3.194,0-5.784-2.592-5.784-5.783
	c0-3.195,2.59-5.785,5.784-5.785C637.293,521.539,639.884,524.128,639.884,527.324"/>
<path fill="#2E78BC" d="M671.125,527.324c0,3.191-2.59,5.783-5.784,5.783c-3.193,0-5.785-2.592-5.785-5.783
	c0-3.195,2.592-5.785,5.785-5.785C668.535,521.539,671.125,524.128,671.125,527.324"/>
<path fill="#2E78BC" d="M702.366,527.324c0,3.191-2.591,5.783-5.784,5.783c-3.196,0-5.785-2.592-5.785-5.783
	c0-3.195,2.589-5.785,5.785-5.785C699.775,521.539,702.366,524.128,702.366,527.324"/>
<path fill="#2E78BC" d="M733.607,527.324c0,3.191-2.591,5.783-5.784,5.783c-3.194,0-5.784-2.592-5.784-5.783
	c0-3.195,2.59-5.785,5.784-5.785C731.017,521.539,733.607,524.128,733.607,527.324"/>
<path fill="#2E78BC" d="M421.194,558.945c0,3.193-2.591,5.783-5.784,5.783c-3.195,0-5.785-2.59-5.785-5.783s2.59-5.783,5.785-5.783
	C418.604,553.162,421.194,555.751,421.194,558.945"/>
<path fill="#2E78BC" d="M452.436,558.945c0,3.193-2.59,5.783-5.783,5.783c-3.194,0-5.784-2.59-5.784-5.783s2.59-5.783,5.784-5.783
	C449.846,553.162,452.436,555.751,452.436,558.945"/>
<path fill="#2E78BC" d="M483.677,558.945c0,3.193-2.589,5.783-5.784,5.783c-3.194,0-5.783-2.59-5.783-5.783s2.589-5.783,5.783-5.783
	C481.088,553.162,483.677,555.751,483.677,558.945"/>
<path fill="#2E78BC" d="M514.919,558.945c0,3.193-2.59,5.783-5.784,5.783s-5.784-2.59-5.784-5.783s2.59-5.783,5.784-5.783
	S514.919,555.751,514.919,558.945"/>
<path fill="#2E78BC" d="M546.159,558.945c0,3.193-2.589,5.783-5.783,5.783c-3.196,0-5.784-2.59-5.784-5.783s2.588-5.783,5.784-5.783
	C543.57,553.162,546.159,555.751,546.159,558.945"/>
<path fill="#2E78BC" d="M577.401,558.945c0,3.193-2.591,5.783-5.785,5.783c-3.192,0-5.784-2.59-5.784-5.783s2.592-5.783,5.784-5.783
	C574.813,553.162,577.401,555.751,577.401,558.945"/>
<path fill="#2E78BC" d="M608.643,558.945c0,3.193-2.59,5.783-5.784,5.783c-3.193,0-5.784-2.59-5.784-5.783s2.591-5.783,5.784-5.783
	C606.053,553.162,608.643,555.751,608.643,558.945"/>
<path fill="#2E78BC" d="M639.884,558.945c0,3.193-2.591,5.783-5.784,5.783c-3.194,0-5.784-2.59-5.784-5.783s2.59-5.783,5.784-5.783
	C637.293,553.162,639.884,555.751,639.884,558.945"/>
<path fill="#2E78BC" d="M671.125,558.945c0,3.193-2.59,5.783-5.784,5.783c-3.193,0-5.785-2.59-5.785-5.783s2.592-5.783,5.785-5.783
	C668.535,553.162,671.125,555.751,671.125,558.945"/>
<path fill="#2E78BC" d="M702.366,558.945c0,3.193-2.591,5.783-5.784,5.783c-3.196,0-5.785-2.59-5.785-5.783s2.589-5.783,5.785-5.783
	C699.775,553.162,702.366,555.751,702.366,558.945"/>
<path fill="#2E78BC" d="M733.607,558.945c0,3.193-2.591,5.783-5.784,5.783c-3.194,0-5.784-2.59-5.784-5.783s2.59-5.783,5.784-5.783
	C731.017,553.162,733.607,555.751,733.607,558.945"/>
<path fill="#2E78BC" d="M421.194,590.568c0,3.193-2.591,5.783-5.784,5.783c-3.195,0-5.785-2.59-5.785-5.783
	c0-3.195,2.59-5.783,5.785-5.783C418.604,584.785,421.194,587.373,421.194,590.568"/>
<path fill="#2E78BC" d="M452.436,590.568c0,3.193-2.59,5.783-5.783,5.783c-3.194,0-5.784-2.59-5.784-5.783
	c0-3.195,2.59-5.783,5.784-5.783C449.846,584.785,452.436,587.373,452.436,590.568"/>
<path fill="#2E78BC" d="M483.677,590.568c0,3.193-2.589,5.783-5.784,5.783c-3.194,0-5.783-2.59-5.783-5.783
	c0-3.195,2.589-5.783,5.783-5.783C481.088,584.785,483.677,587.373,483.677,590.568"/>
<path fill="#2E78BC" d="M514.919,590.568c0,3.193-2.59,5.783-5.784,5.783s-5.784-2.59-5.784-5.783c0-3.195,2.59-5.783,5.784-5.783
	S514.919,587.373,514.919,590.568"/>
<path fill="#2E78BC" d="M546.159,590.568c0,3.193-2.589,5.783-5.783,5.783c-3.196,0-5.784-2.59-5.784-5.783
	c0-3.195,2.588-5.783,5.784-5.783C543.57,584.785,546.159,587.373,546.159,590.568"/>
<path fill="#2E78BC" d="M577.401,590.568c0,3.193-2.591,5.783-5.785,5.783c-3.192,0-5.784-2.59-5.784-5.783
	c0-3.195,2.592-5.783,5.784-5.783C574.813,584.785,577.401,587.373,577.401,590.568"/>
<path fill="#2E78BC" d="M608.643,590.568c0,3.193-2.59,5.783-5.784,5.783c-3.193,0-5.784-2.59-5.784-5.783
	c0-3.195,2.591-5.783,5.784-5.783C606.053,584.785,608.643,587.373,608.643,590.568"/>
<path fill="#2E78BC" d="M639.884,590.568c0,3.193-2.591,5.783-5.784,5.783c-3.194,0-5.784-2.59-5.784-5.783
	c0-3.195,2.59-5.783,5.784-5.783C637.293,584.785,639.884,587.373,639.884,590.568"/>
<path fill="#2E78BC" d="M671.125,590.568c0,3.193-2.59,5.783-5.784,5.783c-3.193,0-5.785-2.59-5.785-5.783
	c0-3.195,2.592-5.783,5.785-5.783C668.535,584.785,671.125,587.373,671.125,590.568"/>
<path fill="#2E78BC" d="M702.366,590.568c0,3.193-2.591,5.783-5.784,5.783c-3.196,0-5.785-2.59-5.785-5.783
	c0-3.195,2.589-5.783,5.785-5.783C699.775,584.785,702.366,587.373,702.366,590.568"/>
<path fill="#2E78BC" d="M733.607,590.568c0,3.193-2.591,5.783-5.784,5.783c-3.194,0-5.784-2.59-5.784-5.783
	c0-3.195,2.59-5.783,5.784-5.783C731.017,584.785,733.607,587.373,733.607,590.568"/>
<path fill="#2E78BC" d="M421.194,622.191c0,3.193-2.591,5.783-5.784,5.783c-3.195,0-5.785-2.59-5.785-5.783
	c0-3.195,2.59-5.783,5.785-5.783C418.604,616.408,421.194,618.996,421.194,622.191"/>
<path fill="#2E78BC" d="M452.436,622.191c0,3.193-2.59,5.783-5.783,5.783c-3.194,0-5.784-2.59-5.784-5.783
	c0-3.195,2.59-5.783,5.784-5.783C449.846,616.408,452.436,618.996,452.436,622.191"/>
<path fill="#2E78BC" d="M483.677,622.191c0,3.193-2.589,5.783-5.784,5.783c-3.194,0-5.783-2.59-5.783-5.783
	c0-3.195,2.589-5.783,5.783-5.783C481.088,616.408,483.677,618.996,483.677,622.191"/>
<path fill="#2E78BC" d="M514.919,622.191c0,3.193-2.59,5.783-5.784,5.783s-5.784-2.59-5.784-5.783c0-3.195,2.59-5.783,5.784-5.783
	S514.919,618.996,514.919,622.191"/>
<path fill="#2E78BC" d="M546.159,622.191c0,3.193-2.589,5.783-5.783,5.783c-3.196,0-5.784-2.59-5.784-5.783
	c0-3.195,2.588-5.783,5.784-5.783C543.57,616.408,546.159,618.996,546.159,622.191"/>
<path fill="#2E78BC" d="M577.401,622.191c0,3.193-2.591,5.783-5.785,5.783c-3.192,0-5.784-2.59-5.784-5.783
	c0-3.195,2.592-5.783,5.784-5.783C574.813,616.408,577.401,618.996,577.401,622.191"/>
<path fill="#2E78BC" d="M608.643,622.191c0,3.193-2.59,5.783-5.784,5.783c-3.193,0-5.784-2.59-5.784-5.783
	c0-3.195,2.591-5.783,5.784-5.783C606.053,616.408,608.643,618.996,608.643,622.191"/>
<path fill="#2E78BC" d="M639.884,622.191c0,3.193-2.591,5.783-5.784,5.783c-3.194,0-5.784-2.59-5.784-5.783
	c0-3.195,2.59-5.783,5.784-5.783C637.293,616.408,639.884,618.996,639.884,622.191"/>
<path fill="#2E78BC" d="M671.125,622.191c0,3.193-2.59,5.783-5.784,5.783c-3.193,0-5.785-2.59-5.785-5.783
	c0-3.195,2.592-5.783,5.785-5.783C668.535,616.408,671.125,618.996,671.125,622.191"/>
<path fill="#2E78BC" d="M702.366,622.191c0,3.193-2.591,5.783-5.784,5.783c-3.196,0-5.785-2.59-5.785-5.783
	c0-3.195,2.589-5.783,5.785-5.783C699.775,616.408,702.366,618.996,702.366,622.191"/>
<path fill="#2E78BC" d="M733.607,622.191c0,3.193-2.591,5.783-5.784,5.783c-3.194,0-5.784-2.59-5.784-5.783
	c0-3.195,2.59-5.783,5.784-5.783C731.017,616.408,733.607,618.996,733.607,622.191"/>
<rect x="200.588" y="217.784" fill="none" stroke="#2E78BC" stroke-width="7.134" stroke-miterlimit="10" width="25.104" height="376.006"/>
<rect x="200.588" y="157.382" fill="none" stroke="#2E78BC" stroke-width="6.576" stroke-miterlimit="10" width="188.199" height="25.105"/>
<rect x="176.737" y="699.128" fill="none" stroke="#2E78BC" stroke-width="7.134" stroke-miterlimit="10" width="125.104" height="25.107"/>
<rect x="467.394" y="157.382" fill="none" stroke="#2E78BC" stroke-width="7.134" stroke-miterlimit="10" width="250.207" height="25.105"/>
<rect x="483.676" y="355.59" fill="none" stroke="#2E78BC" stroke-width="7.134" stroke-miterlimit="10" width="56.698" height="56.698"/>
<rect x="645.668" y="299.973" fill="none" stroke="#2E78BC" stroke-width="7.134" stroke-miterlimit="10" width="56.698" height="28.349"/>
<rect x="727.823" y="236.952" fill="none" stroke="#2E78BC" stroke-width="7.134" stroke-miterlimit="10" width="56.693" height="28.349"/>
<rect x="727.823" y="363.007" fill="none" stroke="#2E78BC" stroke-width="7.134" stroke-miterlimit="10" width="56.693" height="28.35"/>
<rect x="324.856" y="702.642" fill="none" stroke="#2E78BC" stroke-width="7.134" stroke-miterlimit="10" width="170.711" height="65.627"/>
<rect x="550.68" y="702.642" fill="none" stroke="#2E78BC" stroke-width="7.134" stroke-miterlimit="10" width="170.711" height="65.627"/>
<rect x="806.338" y="299.973" fill="none" stroke="#2E78BC" stroke-width="7.134" stroke-miterlimit="10" width="56.698" height="28.349"/>
<rect x="348.35" y="738.982" fill="#2E78BC" width="7.531" height="7.529"/>
<rect x="377.22" y="738.982" fill="#2E78BC" width="7.531" height="7.529"/>
<rect x="406.09" y="738.982" fill="#2E78BC" width="7.532" height="7.529"/>
<rect x="434.96" y="738.982" fill="#2E78BC" width="7.531" height="7.529"/>
<rect x="463.83" y="738.982" fill="#2E78BC" width="7.531" height="7.529"/>
<rect x="573.88" y="738.982" fill="#2E78BC" width="7.531" height="7.529"/>
<rect x="602.75" y="738.982" fill="#2E78BC" width="7.532" height="7.529"/>
<rect x="631.621" y="738.982" fill="#2E78BC" width="7.53" height="7.529"/>
<rect x="660.492" y="738.982" fill="#2E78BC" width="7.529" height="7.529"/>
<rect x="689.363" y="738.982" fill="#2E78BC" width="7.527" height="7.529"/>
<rect x="754.352" y="707.072" fill="#2E78BC" width="7.531" height="7.527"/>
<rect x="788.133" y="707.072" fill="#2E78BC" width="7.531" height="7.527"/>
<rect x="186.911" y="643.25" fill="#2E78BC" width="7.531" height="7.531"/>
<rect x="220.689" y="643.25" fill="#2E78BC" width="7.532" height="7.531"/>
<rect x="819.458" y="707.072" fill="#2E78BC" width="7.531" height="7.527"/>
<line fill="none" stroke="#2E78BC" stroke-width="7.134" stroke-miterlimit="10" x1="208.015" y1="699.128" x2="208.015" y2="724.232"/>
<line fill="none" stroke="#2E78BC" stroke-width="7.134" stroke-miterlimit="10" x1="239.29" y1="699.128" x2="239.29" y2="724.232"/>
<line fill="none" stroke="#2E78BC" stroke-width="7.134" stroke-miterlimit="10" x1="270.566" y1="699.128" x2="270.566" y2="724.232"/>
<rect x="743.762" y="699.128" fill="none" stroke="#2E78BC" stroke-width="6.191" stroke-miterlimit="10" width="94.229" height="25.107"/>
<line fill="none" stroke="#2E78BC" stroke-width="7.134" stroke-miterlimit="10" x1="775.039" y1="699.128" x2="775.039" y2="724.232"/>
<line fill="none" stroke="#2E78BC" stroke-width="7.134" stroke-miterlimit="10" x1="806.315" y1="699.128" x2="806.315" y2="724.232"/>
<rect x="175.532" y="633.507" fill="none" stroke="#2E78BC" stroke-width="7.134" stroke-miterlimit="10" width="62.552" height="25.105"/>
<line fill="none" stroke="#2E78BC" stroke-width="7.134" stroke-miterlimit="10" x1="206.808" y1="633.507" x2="206.808" y2="658.613"/>
<line fill="none" stroke="#2E78BC" stroke-width="7.134" stroke-miterlimit="10" x1="225.692" y1="562.621" x2="200.588" y2="562.621"/>
<line fill="none" stroke="#2E78BC" stroke-width="7.134" stroke-miterlimit="10" x1="225.692" y1="530.544" x2="200.588" y2="530.544"/>
<line fill="none" stroke="#2E78BC" stroke-width="7.134" stroke-miterlimit="10" x1="225.692" y1="499.269" x2="200.588" y2="499.269"/>
<line fill="none" stroke="#2E78BC" stroke-width="7.134" stroke-miterlimit="10" x1="225.692" y1="467.994" x2="200.588" y2="467.994"/>
<line fill="none" stroke="#2E78BC" stroke-width="7.134" stroke-miterlimit="10" x1="225.692" y1="436.717" x2="200.588" y2="436.717"/>
<line fill="none" stroke="#2E78BC" stroke-width="7.134" stroke-miterlimit="10" x1="225.692" y1="405.442" x2="200.588" y2="405.442"/>
<line fill="none" stroke="#2E78BC" stroke-width="7.134" stroke-miterlimit="10" x1="225.692" y1="374.166" x2="200.588" y2="374.166"/>
<line fill="none" stroke="#2E78BC" stroke-width="7.134" stroke-miterlimit="10" x1="225.692" y1="342.889" x2="200.588" y2="342.889"/>
<line fill="none" stroke="#2E78BC" stroke-width="7.134" stroke-miterlimit="10" x1="225.692" y1="311.613" x2="200.588" y2="311.613"/>
<line fill="none" stroke="#2E78BC" stroke-width="7.134" stroke-miterlimit="10" x1="225.692" y1="280.337" x2="200.588" y2="280.337"/>
<line fill="none" stroke="#2E78BC" stroke-width="7.134" stroke-miterlimit="10" x1="225.692" y1="249.061" x2="200.588" y2="249.061"/>
<line fill="none" stroke="#2E78BC" stroke-width="7.134" stroke-miterlimit="10" x1="498.669" y1="182.487" x2="498.669" y2="157.383"/>
<line fill="none" stroke="#2E78BC" stroke-width="7.134" stroke-miterlimit="10" x1="356.968" y1="182.487" x2="356.968" y2="157.383"/>
<line fill="none" stroke="#2E78BC" stroke-width="7.134" stroke-miterlimit="10" x1="325.692" y1="182.487" x2="325.692" y2="157.383"/>
<line fill="none" stroke="#2E78BC" stroke-width="7.134" stroke-miterlimit="10" x1="294.416" y1="182.487" x2="294.416" y2="157.383"/>
<line fill="none" stroke="#2E78BC" stroke-width="7.134" stroke-miterlimit="10" x1="263.14" y1="182.487" x2="263.14" y2="157.383"/>
<line fill="none" stroke="#2E78BC" stroke-width="7.134" stroke-miterlimit="10" x1="231.863" y1="182.487" x2="231.863" y2="157.383"/>
<line fill="none" stroke="#2E78BC" stroke-width="7.134" stroke-miterlimit="10" x1="529.946" y1="182.487" x2="529.946" y2="157.383"/>
<line fill="none" stroke="#2E78BC" stroke-width="7.134" stroke-miterlimit="10" x1="561.222" y1="182.487" x2="561.222" y2="157.383"/>
<line fill="none" stroke="#2E78BC" stroke-width="7.134" stroke-miterlimit="10" x1="592.498" y1="182.487" x2="592.498" y2="157.383"/>
<line fill="none" stroke="#2E78BC" stroke-width="7.134" stroke-miterlimit="10" x1="623.774" y1="182.487" x2="623.774" y2="157.383"/>
<line fill="none" stroke="#2E78BC" stroke-width="7.134" stroke-miterlimit="10" x1="655.05" y1="182.487" x2="655.05" y2="157.383"/>
<line fill="none" stroke="#2E78BC" stroke-width="7.134" stroke-miterlimit="10" x1="686.327" y1="182.487" x2="686.327" y2="157.383"/>
<path fill="#2C78BC" d="M261.489,133.622v9.649h-3.404v-22.03h6.404c3.9,0,6.057,2.091,6.057,5.905c0,3.223-1.675,4.608-2.888,5.063
	c1.82,0.774,2.569,2.344,2.569,5.541v0.877c0,2.349,0.1,3.463,0.302,4.644h-3.332c-0.316-1.008-0.362-2.825-0.362-4.686v-0.783
	c0-3.011-0.663-4.18-3.319-4.18H261.489z M261.489,130.816h2.18c2.484,0,3.443-1.192,3.443-3.533c0-2.005-0.946-3.237-3.107-3.237
	h-2.516V130.816z M286.979,132.079c0,7.87-2.053,11.553-7.026,11.553c-4.673,0-6.836-3.602-6.836-11.57
	c0-7.798,2.524-11.159,6.993-11.159C284.828,120.903,286.979,124.492,286.979,132.079 M276.632,132.02
	c0,5.587,0.955,8.715,3.409,8.715c2.565,0,3.423-2.945,3.423-8.695c0-5.561-0.919-8.218-3.433-8.218
	C277.561,123.822,276.632,126.738,276.632,132.02 M290.194,121.241h6.382c3.643,0,5.718,2.068,5.718,5.509
	c0,2.838-1.359,4.165-2.601,4.62c1.596,0.621,3.267,2.088,3.267,5.43c0,4.111-2.612,6.471-6.497,6.471h-6.269V121.241
	L290.194,121.241z M295.669,130.166c2.558,0,3.325-1.043,3.325-3.104c0-2.019-1.064-3.071-3.131-3.071h-2.31v6.175H295.669z
	 M293.553,140.566h2.561c2.181,0,3.409-1.198,3.409-3.815c0-2.502-1.134-3.881-3.851-3.881h-2.119V140.566z M319.078,132.079
	c0,7.87-2.053,11.553-7.025,11.553c-4.673,0-6.836-3.602-6.836-11.57c0-7.798,2.524-11.159,6.992-11.159
	C316.928,120.903,319.078,124.492,319.078,132.079 M308.731,132.02c0,5.587,0.955,8.715,3.41,8.715c2.565,0,3.422-2.945,3.422-8.695
	c0-5.561-0.919-8.218-3.432-8.218C309.66,123.822,308.731,126.738,308.731,132.02 M324.762,124.251h-4.776v-3.01h12.98v3.01h-4.777
	v19.02h-3.427V124.251z M344.638,143.271h-3.427v-22.03h3.427V143.271z M348.724,143.271v-22.03h3.967
	c5.079,13.224,5.947,15.463,6.217,16.5h0.033c-0.176-2.754-0.196-6.021-0.196-9.621v-6.879h3.096v22.03h-3.801
	c-5.259-14.019-6.075-16.25-6.348-17.212h-0.033c0.163,2.728,0.173,6.096,0.173,10.049v7.163H348.724z M373.576,143.271h-3.427
	c0.001,0,5.176-22.03,5.177-22.03h4.442l5.267,22.03h-3.603l-1.277-6.039h-5.312L373.576,143.271z M379.525,134.245
	c-0.978-4.625-1.693-7.83-2.022-9.815h-0.088c-0.28,1.99-1.047,5.524-1.95,9.815H379.525z M405.7,136.965
	c-0.099,1.171-0.566,6.667-6.414,6.667c-6.127,0-6.752-5.741-6.752-11.449c0-6.885,1.955-11.28,6.999-11.28
	c5.659,0,6.059,4.997,6.138,6.618h-3.401c-0.056-0.748-0.137-3.68-2.792-3.68c-2.817,0-3.396,3.616-3.396,8.401
	c0,4.323,0.448,8.497,3.269,8.497c2.553,0,2.827-2.838,2.926-3.774H405.7L405.7,136.965z M410.489,143.271h-3.427l5.176-22.03h4.442
	l5.268,22.03h-3.604l-1.276-6.039h-5.312L410.489,143.271z M416.438,134.245c-0.979-4.625-1.693-7.83-2.021-9.815h-0.088
	c-0.28,1.99-1.047,5.524-1.95,9.815H416.438z M424.009,143.271v-22.03h3.967c5.079,13.224,5.948,15.463,6.218,16.5h0.032
	c-0.176-2.754-0.194-6.021-0.194-9.621v-6.879h3.095v22.03h-3.801c-5.258-14.019-6.075-16.25-6.349-17.212h-0.031
	c0.162,2.728,0.172,6.096,0.172,10.049v7.163H424.009z"/>
<path fill="#2C78BC" d="M372.277,378.448v-2.63c0.654-0.088,1.206-0.154,2.048-0.177c-1.672-0.895-2.409-2.276-2.409-4.387
	c0-4.659,4.379-6.181,11.277-6.181c7.886,0,11.453,2.583,11.453,7.226c0,5.733-4.97,6.069-6.28,6.134v-3.391
	c0.852-0.064,3.36-0.251,3.36-2.844c0-2.737-3.482-3.578-8.514-3.578c-5.263,0-8.399,0.679-8.399,3.393
	c0,2.393,1.903,3.039,5.617,3.039h1.181v-3.26h2.942v6.655H372.277L372.277,378.448z M383.469,417.799
	c-7.869,0-11.553-2.053-11.553-7.024c0-4.674,3.603-6.837,11.57-6.837c7.798,0,11.16,2.523,11.16,6.992
	C394.646,415.649,391.057,417.799,383.469,417.799 M394.308,388.347c0,3.577-2.178,6.188-6.409,6.188
	c-4.141,0-6.468-2.361-6.468-6.51v-2.556h-9.153v-3.427h22.03V388.347z M394.308,400.658h-22.03v-3.428h22.03V400.658z
	 M383.528,407.452c-5.587,0-8.715,0.955-8.715,3.41c0,2.563,2.945,3.421,8.696,3.421c5.56,0,8.217-0.918,8.217-3.432
	C391.727,408.381,388.811,407.452,383.528,407.452 M384.212,385.47v2.174c0,2.345,1.193,3.445,3.731,3.445
	c2.282,0,3.559-1.183,3.559-3.211v-2.408H384.212L384.212,385.47z"/>
<path fill="#2C78BC" d="M394.75,213.424h2.07v11.528h4.62l-0.225,1.777h-6.466V213.424z M404.753,226.729h-2.07v-13.305h2.07
	V226.729z M414.809,226.729h-1.588c-0.053-0.395-0.092-0.729-0.105-1.237c-0.54,1.01-1.376,1.455-2.649,1.455
	c-2.813,0-3.732-2.644-3.732-6.811c0-4.763,1.559-6.916,4.363-6.916c3.463,0,3.665,3.001,3.704,3.792h-2.047
	c-0.04-0.515-0.152-2.029-1.718-2.029c-1.653,0-2.161,2.102-2.161,5.141c0,3.18,0.41,5.074,2.049,5.074
	c1.444,0,1.835-1.15,1.835-3.394v-0.712h-1.968v-1.777h4.018V226.729L414.809,226.729z M416.979,213.424h2.07v5.382h3.585v-5.382
	h2.07v13.305h-2.07v-6.119h-3.585v6.119h-2.07V213.424z M428.903,215.242h-2.885v-1.818h7.84v1.818h-2.886v11.487h-2.069V215.242
	L428.903,215.242z"/>
<path fill="#2C78BC" d="M487.628,338.724v5.828h-2.056v-13.305h3.868c2.355,0,3.656,1.263,3.656,3.567
	c0,1.945-1.01,2.781-1.743,3.057c1.1,0.468,1.552,1.416,1.552,3.346v0.53c0,1.419,0.061,2.092,0.183,2.805h-2.013
	c-0.191-0.608-0.218-1.707-0.218-2.83v-0.473c0-1.819-0.401-2.525-2.006-2.525H487.628L487.628,338.724z M487.628,337.03h1.317
	c1.5,0,2.079-0.721,2.079-2.134c0-1.212-0.571-1.955-1.878-1.955h-1.519V337.03L487.628,337.03z M502.725,344.552h-1.588
	c-0.052-0.395-0.091-0.729-0.104-1.236c-0.541,1.01-1.376,1.454-2.649,1.454c-2.814,0-3.733-2.646-3.733-6.811
	c0-4.762,1.56-6.916,4.363-6.916c3.463,0,3.665,3.001,3.705,3.792h-2.048c-0.039-0.514-0.152-2.029-1.718-2.029
	c-1.652,0-2.161,2.103-2.161,5.143c0,3.179,0.411,5.073,2.05,5.073c1.444,0,1.835-1.15,1.835-3.394v-0.713h-1.969v-1.777h4.018
	V344.552L502.725,344.552z M504.882,331.247h3.854c2.199,0,3.453,1.249,3.453,3.327c0,1.714-0.821,2.516-1.571,2.791
	c0.964,0.375,1.974,1.26,1.974,3.278c0,2.482-1.578,3.908-3.925,3.908h-3.785V331.247z M508.188,336.637
	c1.547,0,2.01-0.63,2.01-1.875c0-1.219-0.644-1.854-1.892-1.854h-1.395v3.729H508.188z M506.91,342.918h1.547
	c1.317,0,2.058-0.723,2.058-2.304c0-1.511-0.684-2.345-2.324-2.345h-1.28V342.918z M518.17,331.247h2.07v11.528h4.62l-0.226,1.776
	h-6.465V331.247z M532.473,338.478h-4.328v4.284h4.842l-0.262,1.791h-6.621v-13.305h6.577v1.818h-4.536v3.606h4.328V338.478z
	 M534.488,331.247h3.293c3.302,0,4.645,2.176,4.645,6.353c0,4.501-1.263,6.952-4.838,6.952h-3.099L534.488,331.247L534.488,331.247z
	 M536.572,342.844h0.978c2.057,0,2.742-1.582,2.742-5.221c0-3.221-0.686-4.64-2.723-4.64h-0.997V342.844z"/>
<path fill="#2C78BC" d="M388.688,304.085c0.112,1.193,0.628,2.206,1.928,2.206c1.248,0,1.774-0.744,1.774-1.919
	c0-1.198-0.548-1.871-2.274-2.698c-2.212-1.052-3.113-1.997-3.113-3.957c0-2.029,1.303-3.488,3.628-3.488
	c2.848,0,3.571,1.962,3.611,3.635h-2.029c-0.072-0.72-0.269-1.983-1.627-1.983c-1.058,0-1.521,0.703-1.521,1.661
	c0,1.066,0.475,1.566,2.071,2.314c2.367,1.106,3.363,2.19,3.363,4.333c0,2.093-1.257,3.755-3.944,3.755
	c-2.925,0-3.839-1.887-3.929-3.859H388.688z M402.613,301.657h-4.328v4.284h4.84l-0.261,1.792h-6.621v-13.306h6.578v1.818h-4.536
	v3.608h4.328V301.657z M404.627,307.732v-13.306h2.396c3.067,7.987,3.592,9.339,3.755,9.965h0.02
	c-0.105-1.663-0.118-3.637-0.118-5.81v-4.155h1.869v13.306h-2.296c-3.175-8.466-3.668-9.814-3.833-10.396h-0.02
	c0.098,1.648,0.104,3.682,0.104,6.07v4.326H404.627z M416.22,304.085c0.112,1.193,0.628,2.206,1.929,2.206
	c1.248,0,1.773-0.744,1.773-1.919c0-1.198-0.548-1.871-2.273-2.698c-2.213-1.052-3.113-1.997-3.113-3.957
	c0-2.029,1.302-3.488,3.629-3.488c2.848,0,3.57,1.962,3.61,3.635h-2.029c-0.073-0.72-0.27-1.983-1.627-1.983
	c-1.059,0-1.521,0.703-1.521,1.661c0,1.066,0.476,1.566,2.071,2.314c2.367,1.106,3.363,2.19,3.363,4.333
	c0,2.093-1.257,3.755-3.944,3.755c-2.925,0-3.838-1.887-3.929-3.859H416.22z M431.717,300.974c0,4.753-1.24,6.977-4.243,6.977
	c-2.821,0-4.128-2.176-4.128-6.988c0-4.709,1.524-6.739,4.224-6.739C430.418,294.224,431.717,296.392,431.717,300.974
	 M425.469,300.938c0,3.375,0.577,5.264,2.06,5.264c1.55,0,2.066-1.78,2.066-5.252c0-3.359-0.555-4.963-2.073-4.963
	C426.029,295.986,425.469,297.748,425.469,300.938 M435.728,301.904v5.829h-2.056v-13.306h3.868c2.354,0,3.657,1.263,3.657,3.567
	c0,1.945-1.012,2.782-1.743,3.057c1.099,0.468,1.551,1.416,1.551,3.346v0.531c0,1.417,0.061,2.09,0.183,2.804h-2.013
	c-0.19-0.609-0.218-1.707-0.218-2.831v-0.473c0-1.819-0.401-2.525-2.005-2.525H435.728L435.728,301.904z M435.728,300.21h1.316
	c1.5,0,2.08-0.72,2.08-2.134c0-1.211-0.572-1.955-1.877-1.955h-1.52V300.21L435.728,300.21z"/>
<rect fill="none" width="1078.75" height="971.699"/>
<text transform="matrix(1 0 0 1 238.8955 245.8892)" fill="#2C78BC" font-family="'OCRAStd'" font-size="24.5465">3</text>
<text transform="matrix(1 0 0 1 255.4395 245.8892)" fill="#2C78BC" font-family="'OCRAStd'" font-size="24.5465">.</text>
<text transform="matrix(1 0 0 1 271.9351 245.8892)" fill="#2C78BC" font-family="'OCRAStd'" font-size="24.5465">3</text>
<text transform="matrix(1 0 0 1 288.3813 245.8892)" fill="#2C78BC" font-family="'OCRAStd'" font-size="24.5465"> </text>
<text transform="matrix(1 0 0 1 304.7783 245.8892)" fill="#2C78BC" font-family="'OCRAStd'" font-size="24.5465">V</text>
<text transform="matrix(1 0 0 1 238.8955 276.8179)" fill="#2C78BC" font-family="'OCRAStd'" font-size="24.5465">G</text>
<text transform="matrix(1 0 0 1 255.3906 276.8179)" fill="#2C78BC" font-family="'OCRAStd'" font-size="24.5465">N</text>
<text transform="matrix(1 0 0 1 271.8369 276.8179)" fill="#2C78BC" font-family="'OCRAStd'" font-size="24.5465">D</text>
<text transform="matrix(1 0 0 1 238.8955 338.6753)" fill="#2C78BC" font-family="'OCRAStd'" font-size="24.5465">4 </text>
<text transform="matrix(1 0 0 1 271.9834 338.6753)" fill="#2C78BC" font-family="'OCRAStd'" font-size="24.5465">(</text>
<text transform="matrix(1 0 0 1 288.4551 338.6753)" fill="#2C78BC" font-family="'OCRAStd'" font-size="24.5465">I</text>
<text transform="matrix(1 0 0 1 304.8765 338.6753)" fill="#2C78BC" font-family="'OCRAStd'" font-size="24.5465">O</text>
<text transform="matrix(1 0 0 1 321.249 338.6753)" fill="#2C78BC" font-family="'OCRAStd'" font-size="24.5465">)</text>
<text transform="matrix(1 0 0 1 238.8955 369.603)" fill="#2C78BC" font-family="'OCRAStd'" font-size="24.5465">5 </text>
<text transform="matrix(1 0 0 1 271.9834 369.603)" fill="#2C78BC" font-family="'OCRAStd'" font-size="24.5465">(</text>
<text transform="matrix(1 0 0 1 288.4551 369.603)" fill="#2C78BC" font-family="'OCRAStd'" font-size="24.5465">P</text>
<text transform="matrix(1 0 0 1 304.8765 369.603)" fill="#2C78BC" font-family="'OCRAStd'" font-size="24.5465">W</text>
<text transform="matrix(1 0 0 1 321.249 369.603)" fill="#2C78BC" font-family="'OCRAStd'" font-size="24.5465">)</text>
<text transform="matrix(1 0 0 1 238.8955 400.5327)" fill="#2C78BC" font-family="'OCRAStd'" font-size="24.5465">10 </text>
<text transform="matrix(1 0 0 1 288.5273 400.5327)" fill="#2C78BC" font-family="'OCRAStd'" font-size="24.5465">(</text>
<text transform="matrix(1 0 0 1 304.9746 400.5327)" fill="#2C78BC" font-family="'OCRAStd'" font-size="24.5465">P</text>
<text transform="matrix(1 0 0 1 321.3716 400.5327)" fill="#2C78BC" font-family="'OCRAStd'" font-size="24.5465">W</text>
<text transform="matrix(1 0 0 1 337.7197 400.5327)" fill="#2C78BC" font-family="'OCRAStd'" font-size="24.5465">)</text>
<text transform="matrix(1 0 0 1 238.8955 431.4604)" fill="#2C78BC" font-family="'OCRAStd'" font-size="24.5465">16 </text>
<text transform="matrix(1 0 0 1 288.5273 431.4604)" fill="#2C78BC" font-family="'OCRAStd'" font-size="24.5465">(</text>
<text transform="matrix(1 0 0 1 304.9746 431.4604)" fill="#2C78BC" font-family="'OCRAStd'" font-size="24.5465">P</text>
<text transform="matrix(1 0 0 1 321.3716 431.4604)" fill="#2C78BC" font-family="'OCRAStd'" font-size="24.5465">W</text>
<text transform="matrix(1 0 0 1 337.7197 431.4604)" fill="#2C78BC" font-family="'OCRAStd'" font-size="24.5465">)</text>
<text transform="matrix(1 0 0 1 238.8955 462.3892)" fill="#2C78BC" font-family="'OCRAStd'" font-size="24.5465">14</text>
<text transform="matrix(1 0 0 1 271.9834 462.3892)" fill="#2C78BC" font-family="'OCRAStd'" font-size="24.5465"> </text>
<text transform="matrix(1 0 0 1 288.4551 462.3892)" fill="#2C78BC" font-family="'OCRAStd'" font-size="24.5465">(</text>
<text transform="matrix(1 0 0 1 304.8765 462.3892)" fill="#2C78BC" font-family="'OCRAStd'" font-size="24.5465">L</text>
<text transform="matrix(1 0 0 1 321.249 462.3892)" fill="#2C78BC" font-family="'OCRAStd'" font-size="24.5465">)</text>
<text transform="matrix(1 0 0 1 238.8955 493.3179)" fill="#2C78BC" font-family="'OCRAStd'" font-size="24.5465">12</text>
<text transform="matrix(1 0 0 1 271.9834 493.3179)" fill="#2C78BC" font-family="'OCRAStd'" font-size="24.5465"> </text>
<text transform="matrix(1 0 0 1 288.4551 493.3179)" fill="#2C78BC" font-family="'OCRAStd'" font-size="24.5465">(</text>
<text transform="matrix(1 0 0 1 304.8765 493.3179)" fill="#2C78BC" font-family="'OCRAStd'" font-size="24.5465">D</text>
<text transform="matrix(1 0 0 1 321.249 493.3179)" fill="#2C78BC" font-family="'OCRAStd'" font-size="24.5465">)</text>
<text transform="matrix(1 0 0 1 238.8955 524.2466)" fill="#2C78BC" font-family="'OCRAStd'" font-size="24.5465">13</text>
<text transform="matrix(1 0 0 1 271.9834 524.2466)" fill="#2C78BC" font-family="'OCRAStd'" font-size="24.5465"> </text>
<text transform="matrix(1 0 0 1 288.4551 524.2466)" fill="#2C78BC" font-family="'OCRAStd'" font-size="24.5465">(</text>
<text transform="matrix(1 0 0 1 304.8765 524.2466)" fill="#2C78BC" font-family="'OCRAStd'" font-size="24.5465">C</text>
<text transform="matrix(1 0 0 1 321.249 524.2466)" fill="#2C78BC" font-family="'OCRAStd'" font-size="24.5465">)</text>
<text transform="matrix(1 0 0 1 739.6445 226.2515)" fill="#2C78BC" font-family="'OCRAStd'" font-size="24.5465">S</text>
<text transform="matrix(1 0 0 1 756.1152 226.2515)" fill="#2C78BC" font-family="'OCRAStd'" font-size="24.5465">1</text>
<text transform="matrix(1 0 0 1 739.6445 420.1694)" fill="#2C78BC" font-family="'OCRAStd'" font-size="24.5465">S</text>
<text transform="matrix(1 0 0 1 756.1152 420.1694)" fill="#2C78BC" font-family="'OCRAStd'" font-size="24.5465">3</text>
<text transform="matrix(1 0 0 1 658.6406 356.3481)" fill="#2C78BC" font-family="'OCRAStd'" font-size="24.5465">S</text>
<text transform="matrix(1 0 0 1 675.1113 356.3481)" fill="#2C78BC" font-family="'OCRAStd'" font-size="24.5465">4</text>
<text transform="matrix(1 0 0 1 820.6475 356.3481)" fill="#2C78BC" font-family="'OCRAStd'" font-size="24.5465">S</text>
<text transform="matrix(1 0 0 1 837.1182 356.3481)" fill="#2C78BC" font-family="'OCRAStd'" font-size="24.5465">2</text>
<text transform="matrix(1 0 0 1 241.3481 555.1743)" fill="#2C78BC" font-family="'OCRAStd'" font-size="17.1826">0 (12</text>
<text transform="matrix(1 0 0 1 299.252 555.1743)" fill="#2C78BC" font-family="'OCRAStd'" font-size="17.1826">C</text>
<text transform="matrix(1 0 0 1 310.7314 555.1743)" fill="#2C78BC" font-family="'OCRAStd'" font-size="17.1826">-</text>
<text transform="matrix(1 0 0 1 322.1748 555.1743)" fill="#2C78BC" font-family="'OCRAStd'" font-size="17.1826">D</text>
<text transform="matrix(1 0 0 1 333.5845 555.1743)" fill="#2C78BC" font-family="'OCRAStd'" font-size="17.1826">)</text>
<text transform="matrix(1 0 0 1 241.3481 586.103)" fill="#2C78BC" font-family="'OCRAStd'" font-size="17.1826">2 (12</text>
<text transform="matrix(1 0 0 1 299.252 586.103)" fill="#2C78BC" font-family="'OCRAStd'" font-size="17.1826">C</text>
<text transform="matrix(1 0 0 1 310.7314 586.103)" fill="#2C78BC" font-family="'OCRAStd'" font-size="17.1826">-</text>
<text transform="matrix(1 0 0 1 322.1748 586.103)" fill="#2C78BC" font-family="'OCRAStd'" font-size="17.1826">D</text>
<text transform="matrix(1 0 0 1 333.5845 586.103)" fill="#2C78BC" font-family="'OCRAStd'" font-size="17.1826">)</text>
<text transform="matrix(1 0 0 1 174.6626 621.4478)" fill="#2C78BC" font-family="'OCRAStd'" font-size="17.1826">V +</text>
<text transform="matrix(1 0 0 1 209.4058 621.4478)" fill="#2C78BC" font-family="'OCRAStd'" font-size="17.1826"> </text>
<text transform="matrix(1 0 0 1 220.918 621.4478)" fill="#2C78BC" font-family="'OCRAStd'" font-size="17.1826">G</text>
<text transform="matrix(1 0 0 1 232.396 621.4478)" fill="#2C78BC" font-family="'OCRAStd'" font-size="17.1826">N</text>
<text transform="matrix(1 0 0 1 243.8394 621.4478)" fill="#2C78BC" font-family="'OCRAStd'" font-size="17.1826">D</text>
<text transform="matrix(1 0 0 1 177.5317 690.1782)" fill="#2C78BC" font-family="'OCRAStd'" font-size="17.1826">C</text>
<text transform="matrix(1 0 0 1 189.0615 690.1782)" fill="#2C78BC" font-family="'OCRAStd'" font-size="17.1826">K</text>
<text transform="matrix(1 0 0 1 275.7134 690.1782)" fill="#2C78BC" font-family="'OCRAStd'" font-size="17.1826">C</text>
<text transform="matrix(1 0 0 1 287.2427 690.1782)" fill="#2C78BC" font-family="'OCRAStd'" font-size="17.1826">O</text>
<text transform="matrix(1 0 0 1 243.8052 690.1782)" fill="#2C78BC" font-family="'OCRAStd'" font-size="17.1826">M</text>
<text transform="matrix(1 0 0 1 255.335 690.1782)" fill="#2C78BC" font-family="'OCRAStd'" font-size="17.1826">I</text>
<text transform="matrix(1 0 0 1 211.897 690.1782)" fill="#2C78BC" font-family="'OCRAStd'" font-size="17.1826">M</text>
<text transform="matrix(1 0 0 1 223.4268 690.1782)" fill="#2C78BC" font-family="'OCRAStd'" font-size="17.1826">O</text>
<g>
	<g>
		<defs>
			<rect id="SVGID_1_" width="1078.75" height="971.699"/>
		</defs>
		<clipPath id="SVGID_2_">
			<use xlink:href="#SVGID_1_"  overflow="visible"/>
		</clipPath>
		
			<rect x="853.469" y="533.105" clip-path="url(#SVGID_2_)" fill="none" stroke="#2E78BC" stroke-width="7.134" stroke-miterlimit="10" width="31.241" height="73.518"/>
	</g>
	<g>
		<defs>
			<rect id="SVGID_3_" width="1078.75" height="971.699"/>
		</defs>
		<clipPath id="SVGID_4_">
			<use xlink:href="#SVGID_3_"  overflow="visible"/>
		</clipPath>
		<rect x="884.71" y="539.853" clip-path="url(#SVGID_4_)" fill="#2E78BC" width="13.11" height="13.109"/>
	</g>
</g>
<text transform="matrix(1 0 0 1 869.1006 636.5454)" fill="#2E78BC" font-family="'NunitoSans-Regular'" font-size="34.2443">0</text>
<text transform="matrix(1 0 0 1 869.1006 517.8208)" fill="#2E78BC" font-family="'NunitoSans-Regular'" font-size="34.2443">1</text>
<g>
	<g>
		<defs>
			<rect id="SVGID_5_" width="1078.75" height="971.699"/>
		</defs>
		<clipPath id="SVGID_6_">
			<use xlink:href="#SVGID_5_"  overflow="visible"/>
		</clipPath>
		<path clip-path="url(#SVGID_6_)" fill="none" stroke="#2C78BC" stroke-width="3.034" stroke-miterlimit="10" d="M199.368,214.298
			h129.688c20.026,0,36.411,16.385,36.411,36.41v310.108c0,20.021-16.385,36.408-36.411,36.408H199.368"/>
	</g>
	<g>
		<defs>
			<rect id="SVGID_7_" width="1078.75" height="971.699"/>
		</defs>
		<clipPath id="SVGID_8_">
			<use xlink:href="#SVGID_7_"  overflow="visible"/>
		</clipPath>
		<rect x="226.78" y="280.574" clip-path="url(#SVGID_8_)" fill="#2C78BC" width="137.46" height="31.91"/>
	</g>
</g>
<text transform="matrix(1 0 0 1 278.168 307.2563)" fill="#FFFFFF" font-family="'OCRAStd'" font-size="26.1943">A</text>
<text transform="matrix(1 0 0 1 295.7441 307.2563)" fill="#FFFFFF" font-family="'OCRAStd'" font-size="26.1943">O</text>
<g>
	<g>
		<defs>
			<rect id="SVGID_9_" width="1078.75" height="971.699"/>
		</defs>
		<clipPath id="SVGID_10_">
			<use xlink:href="#SVGID_9_"  overflow="visible"/>
		</clipPath>
		
			<line clip-path="url(#SVGID_10_)" fill="none" stroke="#2C78BC" stroke-width="2.455" stroke-miterlimit="10" x1="225.551" y1="436.445" x2="365.467" y2="436.445"/>
	</g>
	<g>
		<defs>
			<rect id="SVGID_11_" width="1078.75" height="971.699"/>
		</defs>
		<clipPath id="SVGID_12_">
			<use xlink:href="#SVGID_11_"  overflow="visible"/>
		</clipPath>
		
			<line clip-path="url(#SVGID_12_)" fill="none" stroke="#2C78BC" stroke-width="2.455" stroke-miterlimit="10" x1="225.551" y1="528.494" x2="365.467" y2="528.494"/>
	</g>
	<g>
		<defs>
			<rect id="SVGID_13_" width="1078.75" height="971.699"/>
		</defs>
		<clipPath id="SVGID_14_">
			<use xlink:href="#SVGID_13_"  overflow="visible"/>
		</clipPath>
		<path clip-path="url(#SVGID_14_)" fill="none" stroke="#2E78BC" stroke-width="7.134" stroke-miterlimit="10" d="M443.916,261.18
			c0-10.333-5.356-19.464-13.42-24.789h-32.557c-8.065,5.325-13.42,14.456-13.42,24.789c0,9.296,4.336,17.62,11.078,23.076h37.241
			C439.579,278.8,443.916,270.476,443.916,261.18z"/>
	</g>
</g>
<text transform="matrix(1 0 0 1 602.75 213.0474)" fill="#2E78BC" font-family="'OCRAStd'" font-size="24.5465">1</text>
<path fill="#2C78BC" d="M610.746,412.25h3.852c2.202,0,3.455,1.249,3.455,3.327c0,1.714-0.82,2.516-1.57,2.791
	c0.964,0.375,1.975,1.26,1.975,3.278c0,2.483-1.578,3.908-3.925,3.908h-3.785L610.746,412.25L610.746,412.25z M614.052,417.641
	c1.545,0,2.007-0.63,2.007-1.875c0-1.219-0.641-1.854-1.889-1.854h-1.396v3.729H614.052z M612.773,423.922h1.547
	c1.316,0,2.06-0.724,2.06-2.304c0-1.511-0.686-2.344-2.326-2.344h-1.279L612.773,423.922L612.773,423.922z M622.222,419.728v5.827
	h-2.056V412.25h3.868c2.354,0,3.655,1.263,3.655,3.567c0,1.945-1.011,2.782-1.742,3.057c1.1,0.468,1.552,1.416,1.552,3.347v0.53
	c0,1.418,0.06,2.091,0.182,2.804h-2.012c-0.191-0.607-0.219-1.706-0.219-2.829v-0.474c0-1.818-0.4-2.524-2.005-2.524H622.222
	L622.222,419.728z M622.222,418.033h1.316c1.5,0,2.079-0.719,2.079-2.133c0-1.211-0.571-1.955-1.876-1.955h-1.521L622.222,418.033
	L622.222,418.033z M635.98,419.48h-4.328v4.284h4.842l-0.264,1.79h-6.62V412.25h6.577v1.819h-4.535v3.606h4.328V419.48z
	 M639.514,425.555h-2.069l3.127-13.305h2.684l3.18,13.305h-2.175l-0.771-3.646h-3.21L639.514,425.555z M643.105,420.104
	c-0.593-2.793-1.021-4.729-1.221-5.927h-0.053c-0.169,1.202-0.633,3.336-1.179,5.927H643.105z M647.676,412.25h3.292
	c3.3,0,4.647,2.176,4.647,6.354c0,4.502-1.268,6.951-4.844,6.951h-3.097L647.676,412.25L647.676,412.25z M649.759,423.847h0.978
	c2.058,0,2.74-1.581,2.74-5.22c0-3.221-0.683-4.641-2.721-4.641h-0.997V423.847z M657.539,412.25h3.854
	c2.201,0,3.454,1.249,3.454,3.327c0,1.714-0.82,2.516-1.57,2.791c0.965,0.375,1.974,1.26,1.974,3.278
	c0,2.483-1.577,3.908-3.924,3.908h-3.786L657.539,412.25L657.539,412.25z M660.846,417.641c1.543,0,2.006-0.63,2.006-1.875
	c0-1.219-0.64-1.854-1.889-1.854h-1.396v3.729H660.846z M659.566,423.922h1.547c1.316,0,2.061-0.724,2.061-2.304
	c0-1.511-0.686-2.344-2.326-2.344h-1.28L659.566,423.922L659.566,423.922z M674.982,418.796c0,4.753-1.238,6.979-4.242,6.979
	c-2.822,0-4.129-2.177-4.129-6.989c0-4.709,1.524-6.739,4.224-6.739C673.684,412.046,674.982,414.214,674.982,418.796
	 M668.733,418.76c0,3.375,0.576,5.265,2.061,5.265c1.549,0,2.065-1.779,2.065-5.252c0-3.359-0.555-4.964-2.071-4.964
	C669.296,413.809,668.733,415.571,668.733,418.76 M677.845,425.555h-2.07l3.126-13.305h2.685l3.18,13.305h-2.175l-0.771-3.646
	h-3.208L677.845,425.555z M681.436,420.104c-0.59-2.793-1.021-4.729-1.22-5.927h-0.053c-0.169,1.202-0.634,3.336-1.179,5.927
	H681.436z M688.063,419.728v5.827h-2.055V412.25h3.868c2.354,0,3.657,1.263,3.657,3.567c0,1.945-1.014,2.782-1.744,3.057
	c1.1,0.468,1.552,1.416,1.552,3.347v0.53c0,1.418,0.061,2.091,0.183,2.804h-2.013c-0.19-0.607-0.219-1.706-0.219-2.829v-0.474
	c0-1.818-0.403-2.524-2.004-2.524H688.063L688.063,419.728z M688.063,418.033h1.317c1.5,0,2.08-0.719,2.08-2.133
	c0-1.211-0.572-1.955-1.877-1.955h-1.521V418.033L688.063,418.033z M695.453,412.25h3.292c3.303,0,4.645,2.176,4.645,6.354
	c0,4.502-1.262,6.951-4.838,6.951h-3.099V412.25z M697.537,423.847h0.977c2.058,0,2.742-1.581,2.742-5.22
	c0-3.221-0.686-4.641-2.723-4.641h-0.996V423.847z"/>
<rect fill="none" width="1078.75" height="971.699"/>
<text transform="matrix(1 0 0 1 560.8965 462.3892)" fill="#FFFFFF" font-family="'OCRAStd'" font-size="16">A</text>
<text transform="matrix(1 0 0 1 570.832 462.3892)" fill="#FFFFFF" font-family="'OCRAStd'" font-size="16">0</text>
<text transform="matrix(1 0 0 1 587.1846 462.3892)" fill="#FFFFFF" font-family="'OCRAStd'" font-size="16">G</text>
<text transform="matrix(1 0 0 1 597.1367 462.3892)" fill="#FFFFFF" font-family="'OCRAStd'" font-size="16">N</text>
<text transform="matrix(1 0 0 1 607.0566 462.3892)" fill="#FFFFFF" font-family="'OCRAStd'" font-size="16">D</text>
<text transform="matrix(1 0 0 1 628.3525 462.3892)" fill="#FFFFFF" font-family="'OCRAStd'" font-size="16">+</text>
<path d="M195.692,344.278h-53.323v-29.497h53.323V344.278z M196.891,313.78h-55.722v31.497h55.722V313.78z"/>
<rect fill="none" width="1078.75" height="971.699"/>
<path fill="none" stroke="#EE8322" stroke-width="16" stroke-miterlimit="10" d="M610.746,169.936
	C615,84.698,500.092,53.143,477.893,49.698c-45.108-7-173.967-24.004-222.558-18C182.072,40.751,102,115.698,100,182.487
	c-0.884,29.531,23,145.543,111.897,141.925"/>
<rect fill="none" width="1078.75" height="971.699"/>
</svg>
