<?xml version="1.0" encoding="utf-8"?>
<!-- Generator: Adobe Illustrator 16.0.0, SVG Export Plug-In . SVG Version: 6.00 Build 0)  -->
<!DOCTYPE svg PUBLIC "-//W3C//DTD SVG 1.1//EN" "http://www.w3.org/Graphics/SVG/1.1/DTD/svg11.dtd">
<svg version="1.1" id="Layer_1" xmlns="http://www.w3.org/2000/svg" xmlns:xlink="http://www.w3.org/1999/xlink" x="0px" y="0px"
	 width="1210px" height="1178px" viewBox="0 0 1210 1178" enable-background="new 0 0 1210 1178" xml:space="preserve">
<g>
	<defs>
		<rect id="SVGID_1_" width="1210" height="1178"/>
	</defs>
	<clipPath id="SVGID_2_">
		<use xlink:href="#SVGID_1_"  overflow="visible"/>
	</clipPath>
	<g clip-path="url(#SVGID_2_)">
		<defs>
			<rect id="SVGID_3_" width="1210" height="1178"/>
		</defs>
		<clipPath id="SVGID_4_">
			<use xlink:href="#SVGID_3_"  overflow="visible"/>
		</clipPath>
		<g clip-path="url(#SVGID_4_)">
			<g>
				<defs>
					<rect id="SVGID_5_" x="666.144" y="971.672" width="72.878" height="10.357"/>
				</defs>
				<clipPath id="SVGID_6_">
					<use xlink:href="#SVGID_5_"  overflow="visible"/>
				</clipPath>
				<g clip-path="url(#SVGID_6_)">
					<defs>
						<rect id="SVGID_7_" x="666.143" y="971.672" width="72.879" height="10.357"/>
					</defs>
					<clipPath id="SVGID_8_">
						<use xlink:href="#SVGID_7_"  overflow="visible"/>
					</clipPath>
					
						<line clip-path="url(#SVGID_8_)" fill="none" stroke="#FF9425" stroke-width="10.058" stroke-miterlimit="10" x1="739" y1="977" x2="666.165" y2="976.701"/>
				</g>
			</g>
		</g>
	</g>
	
		<line clip-path="url(#SVGID_2_)" fill="none" stroke="#FFEAB6" stroke-width="25.145" stroke-miterlimit="10" x1="655.436" y1="1054.103" x2="655.436" y2="899.3"/>
	<g clip-path="url(#SVGID_2_)">
		<defs>
			<rect id="SVGID_9_" width="1210" height="1178"/>
		</defs>
		<clipPath id="SVGID_10_">
			<use xlink:href="#SVGID_9_"  overflow="visible"/>
		</clipPath>
		<path clip-path="url(#SVGID_10_)" fill="none" stroke="#2C77BC" stroke-width="7.085" stroke-miterlimit="10" d="M867.801,806.865
			H340.073c-65.351,0-118.818-53.469-118.818-118.819V230.124c0-65.351,53.467-118.819,118.818-118.819h527.728
			c65.351,0,118.818,53.468,118.818,118.819v457.922C986.619,753.396,933.151,806.865,867.801,806.865z"/>
		
			<rect x="279.268" y="225.398" clip-path="url(#SVGID_10_)" fill="none" stroke="#2C77BC" stroke-width="7.085" stroke-miterlimit="10" width="24.93" height="373.399"/>
		
			<rect x="279.268" y="165.415" clip-path="url(#SVGID_10_)" fill="none" stroke="#2C77BC" stroke-width="6.531" stroke-miterlimit="10" width="186.893" height="24.93"/>
		
			<rect x="255.583" y="703.404" clip-path="url(#SVGID_10_)" fill="none" stroke="#2C77BC" stroke-width="7.085" stroke-miterlimit="10" width="124.237" height="24.93"/>
		
			<rect x="544.223" y="165.415" clip-path="url(#SVGID_10_)" fill="none" stroke="#2C77BC" stroke-width="7.085" stroke-miterlimit="10" width="248.474" height="24.93"/>
		
			<rect x="560.394" y="362.248" clip-path="url(#SVGID_10_)" fill="none" stroke="#2C77BC" stroke-width="7.085" stroke-miterlimit="10" width="56.305" height="56.305"/>
		
			<rect x="721.261" y="307.017" clip-path="url(#SVGID_10_)" fill="none" stroke="#2C77BC" stroke-width="7.085" stroke-miterlimit="10" width="56.308" height="28.153"/>
		
			<rect x="802.846" y="244.432" clip-path="url(#SVGID_10_)" fill="none" stroke="#2C77BC" stroke-width="7.085" stroke-miterlimit="10" width="56.308" height="28.153"/>
		
			<rect x="802.846" y="369.614" clip-path="url(#SVGID_10_)" fill="none" stroke="#2C77BC" stroke-width="7.085" stroke-miterlimit="10" width="56.308" height="28.152"/>
		
			<rect x="402.674" y="706.891" clip-path="url(#SVGID_10_)" fill="none" stroke="#2C77BC" stroke-width="7.085" stroke-miterlimit="10" width="169.527" height="65.174"/>
		
			<rect x="626.932" y="706.891" clip-path="url(#SVGID_10_)" fill="none" stroke="#2C77BC" stroke-width="7.085" stroke-miterlimit="10" width="169.527" height="65.174"/>
		
			<rect x="880.816" y="307.017" clip-path="url(#SVGID_10_)" fill="none" stroke="#2C77BC" stroke-width="7.085" stroke-miterlimit="10" width="56.305" height="28.153"/>
		
			<rect x="426.004" y="742.979" clip-path="url(#SVGID_10_)" fill-rule="evenodd" clip-rule="evenodd" fill="#2C77BC" width="7.479" height="7.479"/>
		
			<rect x="454.675" y="742.979" clip-path="url(#SVGID_10_)" fill-rule="evenodd" clip-rule="evenodd" fill="#2C77BC" width="7.479" height="7.479"/>
		
			<rect x="483.345" y="742.979" clip-path="url(#SVGID_10_)" fill-rule="evenodd" clip-rule="evenodd" fill="#2C77BC" width="7.479" height="7.479"/>
		
			<rect x="512.015" y="742.979" clip-path="url(#SVGID_10_)" fill-rule="evenodd" clip-rule="evenodd" fill="#2C77BC" width="7.479" height="7.479"/>
		
			<rect x="540.685" y="742.979" clip-path="url(#SVGID_10_)" fill-rule="evenodd" clip-rule="evenodd" fill="#2C77BC" width="7.479" height="7.479"/>
		
			<rect x="649.971" y="742.979" clip-path="url(#SVGID_10_)" fill-rule="evenodd" clip-rule="evenodd" fill="#2C77BC" width="7.479" height="7.479"/>
		
			<rect x="678.641" y="742.979" clip-path="url(#SVGID_10_)" fill-rule="evenodd" clip-rule="evenodd" fill="#2C77BC" width="7.479" height="7.479"/>
		
			<rect x="707.311" y="742.979" clip-path="url(#SVGID_10_)" fill-rule="evenodd" clip-rule="evenodd" fill="#2C77BC" width="7.479" height="7.479"/>
		
			<rect x="735.981" y="742.979" clip-path="url(#SVGID_10_)" fill-rule="evenodd" clip-rule="evenodd" fill="#2C77BC" width="7.479" height="7.479"/>
		
			<rect x="764.651" y="742.979" clip-path="url(#SVGID_10_)" fill-rule="evenodd" clip-rule="evenodd" fill="#2C77BC" width="7.479" height="7.479"/>
		
			<rect x="829.192" y="711.289" clip-path="url(#SVGID_10_)" fill-rule="evenodd" clip-rule="evenodd" fill="#2C77BC" width="7.479" height="7.479"/>
		
			<rect x="862.738" y="711.289" clip-path="url(#SVGID_10_)" fill-rule="evenodd" clip-rule="evenodd" fill="#2C77BC" width="7.479" height="7.479"/>
		
			<rect x="265.686" y="647.911" clip-path="url(#SVGID_10_)" fill-rule="evenodd" clip-rule="evenodd" fill="#2C77BC" width="7.479" height="7.479"/>
		
			<rect x="299.23" y="647.911" clip-path="url(#SVGID_10_)" fill-rule="evenodd" clip-rule="evenodd" fill="#2C77BC" width="7.479" height="7.479"/>
		
			<rect x="893.845" y="711.289" clip-path="url(#SVGID_10_)" fill-rule="evenodd" clip-rule="evenodd" fill="#2C77BC" width="7.479" height="7.479"/>
		
			<line clip-path="url(#SVGID_10_)" fill="none" stroke="#2C77BC" stroke-width="7.085" stroke-miterlimit="10" x1="286.643" y1="703.404" x2="286.643" y2="728.334"/>
		
			<line clip-path="url(#SVGID_10_)" fill="none" stroke="#2C77BC" stroke-width="7.085" stroke-miterlimit="10" x1="317.702" y1="703.404" x2="317.702" y2="728.334"/>
		
			<line clip-path="url(#SVGID_10_)" fill="none" stroke="#2C77BC" stroke-width="7.085" stroke-miterlimit="10" x1="348.761" y1="703.404" x2="348.761" y2="728.334"/>
		
			<rect x="818.676" y="703.404" clip-path="url(#SVGID_10_)" fill="none" stroke="#2C77BC" stroke-width="6.149" stroke-miterlimit="10" width="93.571" height="24.93"/>
		
			<line clip-path="url(#SVGID_10_)" fill="none" stroke="#2C77BC" stroke-width="7.085" stroke-miterlimit="10" x1="849.735" y1="703.404" x2="849.735" y2="728.334"/>
		
			<line clip-path="url(#SVGID_10_)" fill="none" stroke="#2C77BC" stroke-width="7.085" stroke-miterlimit="10" x1="880.794" y1="703.404" x2="880.794" y2="728.334"/>
		
			<rect x="254.386" y="638.239" clip-path="url(#SVGID_10_)" fill="none" stroke="#2C77BC" stroke-width="7.085" stroke-miterlimit="10" width="62.118" height="24.93"/>
		
			<line clip-path="url(#SVGID_10_)" fill="none" stroke="#2C77BC" stroke-width="7.085" stroke-miterlimit="10" x1="285.445" y1="638.238" x2="285.445" y2="663.169"/>
		
			<line clip-path="url(#SVGID_10_)" fill="none" stroke="#2C77BC" stroke-width="7.085" stroke-miterlimit="10" x1="304.198" y1="567.842" x2="279.268" y2="567.842"/>
		
			<line clip-path="url(#SVGID_10_)" fill="none" stroke="#2C77BC" stroke-width="7.085" stroke-miterlimit="10" x1="304.198" y1="535.99" x2="279.268" y2="535.99"/>
		
			<line clip-path="url(#SVGID_10_)" fill="none" stroke="#2C77BC" stroke-width="7.085" stroke-miterlimit="10" x1="304.198" y1="504.931" x2="279.268" y2="504.931"/>
		
			<line clip-path="url(#SVGID_10_)" fill="none" stroke="#2C77BC" stroke-width="7.085" stroke-miterlimit="10" x1="304.198" y1="473.871" x2="279.268" y2="473.871"/>
		
			<line clip-path="url(#SVGID_10_)" fill="none" stroke="#2C77BC" stroke-width="7.085" stroke-miterlimit="10" x1="304.198" y1="442.813" x2="279.268" y2="442.813"/>
		
			<line clip-path="url(#SVGID_10_)" fill="none" stroke="#2C77BC" stroke-width="7.085" stroke-miterlimit="10" x1="304.198" y1="411.753" x2="279.268" y2="411.753"/>
		
			<line clip-path="url(#SVGID_10_)" fill="none" stroke="#2C77BC" stroke-width="7.085" stroke-miterlimit="10" x1="304.198" y1="380.694" x2="279.268" y2="380.694"/>
		
			<line clip-path="url(#SVGID_10_)" fill="none" stroke="#2C77BC" stroke-width="7.085" stroke-miterlimit="10" x1="304.198" y1="349.635" x2="279.268" y2="349.635"/>
		
			<line clip-path="url(#SVGID_10_)" fill="none" stroke="#2C77BC" stroke-width="7.085" stroke-miterlimit="10" x1="304.198" y1="318.575" x2="279.268" y2="318.575"/>
		
			<line clip-path="url(#SVGID_10_)" fill="none" stroke="#2C77BC" stroke-width="7.085" stroke-miterlimit="10" x1="304.198" y1="287.516" x2="279.268" y2="287.516"/>
		
			<line clip-path="url(#SVGID_10_)" fill="none" stroke="#2C77BC" stroke-width="7.085" stroke-miterlimit="10" x1="304.198" y1="256.457" x2="279.268" y2="256.457"/>
		
			<line clip-path="url(#SVGID_10_)" fill="none" stroke="#2C77BC" stroke-width="7.085" stroke-miterlimit="10" x1="575.282" y1="190.345" x2="575.282" y2="165.415"/>
		
			<line clip-path="url(#SVGID_10_)" fill="none" stroke="#2C77BC" stroke-width="7.085" stroke-miterlimit="10" x1="434.563" y1="190.345" x2="434.563" y2="165.415"/>
		
			<line clip-path="url(#SVGID_10_)" fill="none" stroke="#2C77BC" stroke-width="7.085" stroke-miterlimit="10" x1="403.504" y1="190.345" x2="403.504" y2="165.415"/>
		
			<line clip-path="url(#SVGID_10_)" fill="none" stroke="#2C77BC" stroke-width="7.085" stroke-miterlimit="10" x1="372.445" y1="190.345" x2="372.445" y2="165.415"/>
		
			<line clip-path="url(#SVGID_10_)" fill="none" stroke="#2C77BC" stroke-width="7.085" stroke-miterlimit="10" x1="341.386" y1="190.345" x2="341.386" y2="165.415"/>
		
			<line clip-path="url(#SVGID_10_)" fill="none" stroke="#2C77BC" stroke-width="7.085" stroke-miterlimit="10" x1="310.327" y1="190.345" x2="310.327" y2="165.415"/>
		
			<line clip-path="url(#SVGID_10_)" fill="none" stroke="#2C77BC" stroke-width="7.085" stroke-miterlimit="10" x1="606.342" y1="190.345" x2="606.342" y2="165.415"/>
		
			<line clip-path="url(#SVGID_10_)" fill="none" stroke="#2C77BC" stroke-width="7.085" stroke-miterlimit="10" x1="637.4" y1="190.345" x2="637.4" y2="165.415"/>
		
			<line clip-path="url(#SVGID_10_)" fill="none" stroke="#2C77BC" stroke-width="7.085" stroke-miterlimit="10" x1="668.46" y1="190.345" x2="668.46" y2="165.415"/>
		
			<line clip-path="url(#SVGID_10_)" fill="none" stroke="#2C77BC" stroke-width="7.085" stroke-miterlimit="10" x1="699.519" y1="190.345" x2="699.519" y2="165.415"/>
		
			<line clip-path="url(#SVGID_10_)" fill="none" stroke="#2C77BC" stroke-width="7.085" stroke-miterlimit="10" x1="730.578" y1="190.345" x2="730.578" y2="165.415"/>
		
			<line clip-path="url(#SVGID_10_)" fill="none" stroke="#2C77BC" stroke-width="7.085" stroke-miterlimit="10" x1="761.638" y1="190.345" x2="761.638" y2="165.415"/>
		<path clip-path="url(#SVGID_10_)" fill="#2A77BC" d="M339.749,141.814v9.586h-3.382v-21.885h6.363
			c3.873,0,6.016,2.077,6.016,5.867c0,3.201-1.664,4.577-2.869,5.029c1.809,0.769,2.552,2.328,2.552,5.504v0.872
			c0,2.333,0.101,3.441,0.3,4.613h-3.31c-0.314-1.001-0.359-2.807-0.359-4.655v-0.778c0-2.991-0.659-4.153-3.297-4.153H339.749z
			 M339.749,139.027h2.166c2.467,0,3.42-1.184,3.42-3.509c0-1.993-0.94-3.216-3.087-3.216h-2.499V139.027z M365.064,140.281
			c0,7.819-2.039,11.478-6.979,11.478c-4.642,0-6.791-3.579-6.791-11.494c0-7.747,2.508-11.086,6.947-11.086
			C362.929,129.179,365.064,132.745,365.064,140.281 M354.787,140.223c0,5.551,0.949,8.658,3.387,8.658c2.548,0,3.4-2.926,3.4-8.639
			c0-5.524-0.913-8.163-3.41-8.163C355.708,132.079,354.787,134.976,354.787,140.223 M368.253,129.515h6.34
			c3.619,0,5.68,2.054,5.68,5.472c0,2.82-1.35,4.138-2.584,4.59c1.586,0.617,3.246,2.074,3.246,5.395
			c0,4.083-2.595,6.428-6.455,6.428h-6.227V129.515z M373.691,138.381c2.542,0,3.303-1.036,3.303-3.083
			c0-2.005-1.056-3.051-3.109-3.051h-2.295v6.134H373.691z M371.591,148.713h2.544c2.166,0,3.387-1.19,3.387-3.79
			c0-2.486-1.127-3.856-3.826-3.856h-2.105V148.713z M396.941,140.281c0,7.819-2.039,11.478-6.979,11.478
			c-4.642,0-6.791-3.579-6.791-11.494c0-7.747,2.508-11.086,6.947-11.086C394.806,129.179,396.941,132.745,396.941,140.281
			 M386.663,140.223c0,5.551,0.949,8.658,3.388,8.658c2.548,0,3.4-2.926,3.4-8.639c0-5.524-0.914-8.163-3.41-8.163
			C387.585,132.079,386.663,134.976,386.663,140.223 M402.583,132.505h-4.745v-2.99h12.895v2.99h-4.745V151.4h-3.405V132.505z
			 M422.322,151.4h-3.404v-21.885h3.404V151.4z M426.377,151.4v-21.885h3.94c5.047,13.137,5.909,15.361,6.177,16.391h0.032
			c-0.174-2.735-0.194-5.981-0.194-9.557v-6.834h3.075V151.4h-3.776c-5.223-13.926-6.034-16.143-6.305-17.099h-0.033
			c0.161,2.71,0.171,6.056,0.171,9.984v7.115H426.377z M451.058,151.4h-3.404l5.142-21.885h4.413l5.233,21.885h-3.579l-1.268-5.999
			h-5.278L451.058,151.4z M456.968,142.433c-0.972-4.594-1.682-7.779-2.009-9.75h-0.087c-0.278,1.977-1.04,5.488-1.937,9.75H456.968
			z M482.962,145.136c-0.097,1.162-0.562,6.623-6.371,6.623c-6.087,0-6.708-5.704-6.708-11.374c0-6.84,1.942-11.206,6.953-11.206
			c5.622,0,6.019,4.965,6.097,6.575h-3.378c-0.056-0.744-0.136-3.656-2.774-3.656c-2.799,0-3.374,3.592-3.374,8.345
			c0,4.295,0.446,8.442,3.248,8.442c2.535,0,2.809-2.819,2.906-3.749H482.962z M487.714,151.4h-3.404l5.142-21.885h4.414
			l5.232,21.885h-3.579l-1.269-5.999h-5.277L487.714,151.4z M493.624,142.433c-0.971-4.594-1.681-7.779-2.008-9.75h-0.087
			c-0.278,1.977-1.04,5.488-1.937,9.75H493.624z M501.141,151.4v-21.885h3.94c5.046,13.137,5.909,15.361,6.177,16.391h0.032
			c-0.174-2.735-0.193-5.981-0.193-9.557v-6.834h3.074V151.4h-3.776c-5.223-13.926-6.034-16.143-6.305-17.099h-0.033
			c0.162,2.71,0.171,6.056,0.171,9.984v7.115H501.141z"/>
		<path clip-path="url(#SVGID_10_)" fill="#2A77BC" d="M449.767,384.951v-2.612c0.649-0.087,1.198-0.152,2.034-0.175
			c-1.66-0.888-2.393-2.262-2.393-4.357c0-4.629,4.35-6.142,11.203-6.142c7.834,0,11.377,2.566,11.377,7.179
			c0,5.697-4.936,6.03-6.239,6.094v-3.369c0.847-0.064,3.339-0.249,3.339-2.825c0-2.718-3.459-3.554-8.458-3.554
			c-5.229,0-8.344,0.674-8.344,3.37c0,2.376,1.891,3.019,5.58,3.019h1.173v-3.239h2.923v6.611H449.767z M460.886,424.03
			c-7.819,0-11.478-2.039-11.478-6.979c0-4.643,3.579-6.792,11.494-6.792c7.747,0,11.086,2.508,11.086,6.947
			C471.988,421.894,468.422,424.03,460.886,424.03 M471.652,394.78c0,3.554-2.164,6.148-6.368,6.148
			c-4.112,0-6.425-2.346-6.425-6.468v-2.538h-9.092v-3.404h21.885V394.78z M471.652,407.005h-21.885V403.6h21.885V407.005z
			 M460.944,413.751c-5.551,0-8.658,0.949-8.658,3.387c0,2.548,2.926,3.4,8.639,3.4c5.524,0,8.163-0.913,8.163-3.409
			C469.088,414.674,466.191,413.751,460.944,413.751 M461.623,391.922v2.16c0,2.328,1.185,3.422,3.707,3.422
			c2.267,0,3.535-1.175,3.535-3.19v-2.392H461.623z"/>
		<path clip-path="url(#SVGID_10_)" fill="#2A77BC" d="M472.083,221.067h2.056v11.447h4.588l-0.223,1.764h-6.421V221.067z
			 M482.018,234.279h-2.055v-13.211h2.055V234.279z M492.003,234.279h-1.577c-0.052-0.392-0.091-0.723-0.105-1.228
			c-0.536,1.003-1.366,1.445-2.631,1.445c-2.794,0-3.707-2.626-3.707-6.763c0-4.73,1.549-6.868,4.334-6.868
			c3.439,0,3.64,2.98,3.679,3.766h-2.034c-0.039-0.511-0.15-2.015-1.706-2.015c-1.641,0-2.146,2.088-2.146,5.105
			c0,3.157,0.408,5.038,2.036,5.038c1.434,0,1.822-1.142,1.822-3.369v-0.708h-1.955v-1.765h3.99V234.279z M494.16,221.067h2.055
			v5.344h3.56v-5.344h2.056v13.211h-2.056v-6.075h-3.56v6.075h-2.055V221.067z M506,222.873h-2.865v-1.805h7.784v1.805h-2.864
			v11.406H506V222.873z"/>
		<path clip-path="url(#SVGID_10_)" fill="#2A77BC" d="M564.317,345.498v5.787h-2.041v-13.212h3.841
			c2.338,0,3.632,1.254,3.632,3.542c0,1.932-1.005,2.763-1.732,3.036c1.092,0.464,1.541,1.406,1.541,3.323v0.526
			c0,1.409,0.06,2.077,0.181,2.785h-1.999c-0.189-0.605-0.216-1.695-0.216-2.81v-0.47c0-1.806-0.398-2.507-1.991-2.507H564.317z
			 M564.317,343.816h1.308c1.489,0,2.065-0.715,2.065-2.119c0-1.203-0.568-1.941-1.864-1.941h-1.509V343.816z M579.31,351.285
			h-1.577c-0.053-0.392-0.092-0.723-0.105-1.228c-0.537,1.003-1.366,1.445-2.631,1.445c-2.794,0-3.707-2.626-3.707-6.763
			c0-4.73,1.548-6.869,4.334-6.869c3.438,0,3.639,2.981,3.678,3.766h-2.033c-0.039-0.51-0.151-2.015-1.706-2.015
			c-1.642,0-2.146,2.088-2.146,5.106c0,3.157,0.407,5.037,2.035,5.037c1.434,0,1.822-1.141,1.822-3.368v-0.708h-1.955v-1.765h3.991
			V351.285z M581.451,338.073h3.827c2.185,0,3.43,1.241,3.43,3.304c0,1.702-0.815,2.498-1.56,2.771
			c0.957,0.373,1.96,1.252,1.96,3.256c0,2.465-1.567,3.881-3.897,3.881h-3.76V338.073z M584.734,343.426
			c1.535,0,1.995-0.626,1.995-1.861c0-1.211-0.638-1.843-1.878-1.843h-1.386v3.704H584.734z M583.465,349.663h1.537
			c1.307,0,2.044-0.719,2.044-2.288c0-1.501-0.68-2.328-2.31-2.328h-1.271V349.663z M594.648,338.073h2.055v11.448h4.588
			l-0.223,1.764h-6.42V338.073z M608.852,345.253h-4.298v4.254h4.806l-0.258,1.778h-6.576v-13.212h6.533v1.806h-4.505v3.582h4.298
			V345.253z M610.851,338.073h3.27c3.278,0,4.614,2.161,4.614,6.309c0,4.469-1.256,6.903-4.807,6.903h-3.077V338.073z
			 M612.92,349.589h0.971c2.042,0,2.723-1.571,2.723-5.184c0-3.199-0.68-4.608-2.703-4.608h-0.99V349.589z"/>
		<path clip-path="url(#SVGID_10_)" fill="#2A77BC" d="M686.581,418.514h3.827c2.185,0,3.428,1.241,3.428,3.304
			c0,1.702-0.813,2.498-1.559,2.771c0.957,0.373,1.96,1.252,1.96,3.256c0,2.466-1.566,3.881-3.897,3.881h-3.759V418.514z
			 M689.864,423.867c1.534,0,1.994-0.626,1.994-1.861c0-1.211-0.638-1.842-1.878-1.842h-1.385v3.703H689.864z M688.596,430.104
			h1.535c1.309,0,2.045-0.719,2.045-2.288c0-1.501-0.68-2.327-2.31-2.327h-1.271V430.104z M697.978,425.939v5.787h-2.042v-13.212
			h3.841c2.339,0,3.632,1.254,3.632,3.542c0,1.932-1.004,2.763-1.731,3.037c1.092,0.463,1.54,1.405,1.54,3.322v0.527
			c0,1.408,0.061,2.076,0.182,2.784H701.4c-0.189-0.604-0.217-1.694-0.217-2.81v-0.47c0-1.805-0.398-2.507-1.99-2.507H697.978z
			 M697.978,424.257h1.308c1.489,0,2.064-0.715,2.064-2.119c0-1.203-0.567-1.941-1.864-1.941h-1.508V424.257z M711.642,425.694
			h-4.298v4.254h4.807l-0.26,1.778h-6.575v-13.212h6.532v1.806h-4.504v3.582h4.298V425.694z M715.15,431.727h-2.056l3.104-13.212
			h2.664l3.159,13.212h-2.161l-0.766-3.621h-3.186L715.15,431.727z M718.717,426.313c-0.586-2.774-1.015-4.696-1.212-5.886h-0.053
			c-0.168,1.194-0.628,3.313-1.17,5.886H718.717z M723.255,418.514h3.27c3.278,0,4.614,2.162,4.614,6.309
			c0,4.47-1.256,6.903-4.808,6.903h-3.076V418.514z M725.324,430.03h0.968c2.044,0,2.726-1.57,2.726-5.184
			c0-3.199-0.682-4.608-2.704-4.608h-0.989V430.03z M733.05,418.514h3.827c2.186,0,3.43,1.241,3.43,3.304
			c0,1.702-0.815,2.498-1.561,2.771c0.958,0.373,1.96,1.252,1.96,3.256c0,2.466-1.566,3.881-3.896,3.881h-3.76V418.514z
			 M736.331,423.867c1.536,0,1.996-0.626,1.996-1.861c0-1.211-0.638-1.842-1.877-1.842h-1.386v3.703H736.331z M735.064,430.104
			h1.536c1.308,0,2.044-0.719,2.044-2.288c0-1.501-0.68-2.327-2.312-2.327h-1.269V430.104z M750.371,425.014
			c0,4.72-1.231,6.929-4.214,6.929c-2.802,0-4.1-2.161-4.1-6.939c0-4.677,1.514-6.692,4.191-6.692
			C749.081,418.313,750.371,420.465,750.371,425.014 M744.165,424.979c0,3.351,0.573,5.227,2.043,5.227
			c1.54,0,2.055-1.767,2.055-5.216c0-3.335-0.552-4.928-2.059-4.928C744.723,420.063,744.165,421.812,744.165,424.979
			 M753.214,431.727h-2.055l3.104-13.212h2.664l3.158,13.212h-2.16l-0.766-3.621h-3.186L753.214,431.727z M756.781,426.313
			c-0.586-2.774-1.016-4.696-1.212-5.886h-0.053c-0.168,1.194-0.628,3.313-1.17,5.886H756.781z M763.362,425.939v5.787h-2.041
			v-13.212h3.841c2.336,0,3.63,1.254,3.63,3.542c0,1.932-1.003,2.763-1.729,3.037c1.091,0.463,1.54,1.405,1.54,3.322v0.527
			c0,1.408,0.061,2.076,0.182,2.784h-1.999c-0.189-0.604-0.217-1.694-0.217-2.81v-0.47c0-1.805-0.398-2.507-1.99-2.507H763.362z
			 M763.362,424.257h1.308c1.489,0,2.064-0.715,2.064-2.119c0-1.203-0.569-1.941-1.863-1.941h-1.509V424.257z M770.701,418.514h3.27
			c3.277,0,4.612,2.162,4.612,6.309c0,4.47-1.254,6.903-4.806,6.903h-3.076V418.514z M772.77,430.03h0.971
			c2.043,0,2.723-1.57,2.723-5.184c0-3.199-0.68-4.608-2.703-4.608h-0.99V430.03z"/>
		<path clip-path="url(#SVGID_10_)" fill="#2A77BC" d="M466.064,311.099c0.11,1.185,0.623,2.192,1.914,2.192
			c1.239,0,1.761-0.74,1.761-1.907c0-1.189-0.544-1.857-2.257-2.678c-2.197-1.045-3.092-1.984-3.092-3.93
			c0-2.015,1.294-3.464,3.603-3.464c2.828,0,3.546,1.949,3.585,3.61h-2.014c-0.072-0.715-0.268-1.968-1.616-1.968
			c-1.05,0-1.51,0.697-1.51,1.649c0,1.058,0.471,1.555,2.057,2.297c2.35,1.099,3.339,2.175,3.339,4.303
			c0,2.079-1.248,3.729-3.917,3.729c-2.904,0-3.811-1.873-3.901-3.833H466.064z M479.892,308.688h-4.298v4.254h4.807l-0.259,1.778
			h-6.575v-13.212h6.532v1.805h-4.505v3.583h4.298V308.688z M481.893,314.721v-13.212h2.379c3.046,7.931,3.567,9.273,3.729,9.896
			h0.02c-0.106-1.652-0.118-3.611-0.118-5.77v-4.126h1.856v13.212h-2.279c-3.153-8.407-3.643-9.745-3.807-10.323h-0.019
			c0.098,1.637,0.103,3.656,0.103,6.028v4.295H481.893z M493.403,311.099c0.112,1.185,0.624,2.192,1.915,2.192
			c1.24,0,1.762-0.74,1.762-1.907c0-1.189-0.544-1.857-2.258-2.678c-2.196-1.045-3.091-1.984-3.091-3.93
			c0-2.015,1.293-3.464,3.602-3.464c2.829,0,3.546,1.949,3.586,3.61h-2.015c-0.072-0.715-0.267-1.968-1.616-1.968
			c-1.05,0-1.51,0.697-1.51,1.649c0,1.058,0.472,1.555,2.057,2.297c2.35,1.099,3.339,2.175,3.339,4.303
			c0,2.079-1.248,3.729-3.917,3.729c-2.904,0-3.811-1.873-3.901-3.833H493.403z M508.794,308.009c0,4.72-1.231,6.929-4.213,6.929
			c-2.803,0-4.1-2.161-4.1-6.939c0-4.677,1.514-6.692,4.193-6.692C507.504,301.307,508.794,303.459,508.794,308.009
			 M502.588,307.974c0,3.351,0.574,5.227,2.045,5.227c1.538,0,2.053-1.767,2.053-5.216c0-3.335-0.552-4.928-2.058-4.928
			C503.146,303.057,502.588,304.806,502.588,307.974 M512.774,308.934v5.787h-2.042v-13.212h3.841c2.339,0,3.632,1.254,3.632,3.542
			c0,1.932-1.004,2.763-1.731,3.036c1.091,0.464,1.54,1.406,1.54,3.323v0.527c0,1.408,0.06,2.076,0.181,2.784h-1.998
			c-0.19-0.604-0.217-1.694-0.217-2.81v-0.47c0-1.806-0.397-2.507-1.99-2.507H512.774z M512.774,307.251h1.308
			c1.489,0,2.064-0.715,2.064-2.119c0-1.203-0.567-1.941-1.864-1.941h-1.508V307.251z"/>
	</g>
	<g clip-path="url(#SVGID_2_)">
		<text transform="matrix(1 0 0 1 317.3096 253.3076)"><tspan x="0" y="0" fill="#2A77BC" font-family="'OCRAStd'" font-size="24.3763" letter-spacing="-1">3.</tspan><tspan x="32.81" y="0" fill="#2A77BC" font-family="'OCRAStd'" font-size="24.3763">3</tspan></text>
	</g>
	<g clip-path="url(#SVGID_2_)">
		<text transform="matrix(1 0 0 1 366.4521 253.3076)" fill="#2A77BC" font-family="'OCRAStd'" font-size="24.3763"> </text>
	</g>
	<g clip-path="url(#SVGID_2_)">
		<text transform="matrix(1 0 0 1 382.7354 253.3076)" fill="#2A77BC" font-family="'OCRAStd'" font-size="24.3763">V</text>
	</g>
	<g clip-path="url(#SVGID_2_)">
		<text transform="matrix(1 0 0 1 317.3096 284.0215)" fill="#2A77BC" font-family="'OCRAStd'" font-size="24.3763">G</text>
	</g>
	<g clip-path="url(#SVGID_2_)">
		<text transform="matrix(1 0 0 1 333.6904 284.0215)" fill="#2A77BC" font-family="'OCRAStd'" font-size="24.3763">N</text>
	</g>
	<g clip-path="url(#SVGID_2_)">
		<text transform="matrix(1 0 0 1 350.0225 284.0215)" fill="#2A77BC" font-family="'OCRAStd'" font-size="24.3763">D</text>
	</g>
	<g clip-path="url(#SVGID_2_)">
		<text transform="matrix(1 0 0 1 317.3096 345.4502)"><tspan x="0" y="0" fill="#2A77BC" font-family="'OCRAStd'" font-size="24.3763" letter-spacing="-1">4 (</tspan><tspan x="49.215" y="0" fill="#2A77BC" font-family="'OCRAStd'" font-size="24.3763">I</tspan></text>
	</g>
	<g clip-path="url(#SVGID_2_)">
		<text transform="matrix(1 0 0 1 382.833 345.4502)" fill="#2A77BC" font-family="'OCRAStd'" font-size="24.3763">O</text>
	</g>
	<g clip-path="url(#SVGID_2_)">
		<text transform="matrix(1 0 0 1 399.0923 345.4502)" fill="#2A77BC" font-family="'OCRAStd'" font-size="24.3763">)</text>
	</g>
	<g clip-path="url(#SVGID_2_)">
		<text transform="matrix(1 0 0 1 317.3096 376.1641)"><tspan x="0" y="0" fill="#2A77BC" font-family="'OCRAStd'" font-size="24.3763" letter-spacing="-1">5 (</tspan><tspan x="49.215" y="0" fill="#2A77BC" font-family="'OCRAStd'" font-size="24.3763">P</tspan></text>
	</g>
	<g clip-path="url(#SVGID_2_)">
		<text transform="matrix(1 0 0 1 382.833 376.1641)" fill="#2A77BC" font-family="'OCRAStd'" font-size="24.3763">W</text>
	</g>
	<g clip-path="url(#SVGID_2_)">
		<text transform="matrix(1 0 0 1 399.0923 376.1641)" fill="#2A77BC" font-family="'OCRAStd'" font-size="24.3763">)</text>
	</g>
	<g clip-path="url(#SVGID_2_)">
		<text transform="matrix(1 0 0 1 317.3096 406.8784)"><tspan x="0" y="0" fill="#2A77BC" font-family="'OCRAStd'" font-size="24.3763" letter-spacing="-1">10 (</tspan><tspan x="65.62" y="0" fill="#2A77BC" font-family="'OCRAStd'" font-size="24.3763">P</tspan></text>
	</g>
	<g clip-path="url(#SVGID_2_)">
		<text transform="matrix(1 0 0 1 399.2144 406.8784)" fill="#2A77BC" font-family="'OCRAStd'" font-size="24.3763">W</text>
	</g>
	<g clip-path="url(#SVGID_2_)">
		<text transform="matrix(1 0 0 1 415.4487 406.8784)" fill="#2A77BC" font-family="'OCRAStd'" font-size="24.3763">)</text>
	</g>
	<g clip-path="url(#SVGID_2_)">
		<text transform="matrix(1 0 0 1 317.3096 437.5923)"><tspan x="0" y="0" fill="#2A77BC" font-family="'OCRAStd'" font-size="24.3763" letter-spacing="-1">16 (</tspan><tspan x="65.62" y="0" fill="#2A77BC" font-family="'OCRAStd'" font-size="24.3763">P</tspan></text>
	</g>
	<g clip-path="url(#SVGID_2_)">
		<text transform="matrix(1 0 0 1 399.2144 437.5923)" fill="#2A77BC" font-family="'OCRAStd'" font-size="24.3763">W</text>
	</g>
	<g clip-path="url(#SVGID_2_)">
		<text transform="matrix(1 0 0 1 415.4487 437.5923)" fill="#2A77BC" font-family="'OCRAStd'" font-size="24.3763">)</text>
	</g>
	<g clip-path="url(#SVGID_2_)">
		<text transform="matrix(1 0 0 1 317.3096 468.3066)"><tspan x="0" y="0" fill="#2A77BC" font-family="'OCRAStd'" font-size="24.3763" letter-spacing="-1">14 </tspan><tspan x="49.215" y="0" fill="#2A77BC" font-family="'OCRAStd'" font-size="24.3763">(</tspan></text>
	</g>
	<g clip-path="url(#SVGID_2_)">
		<text transform="matrix(1 0 0 1 382.833 468.3066)" fill="#2A77BC" font-family="'OCRAStd'" font-size="24.3763">L</text>
	</g>
	<g clip-path="url(#SVGID_2_)">
		<text transform="matrix(1 0 0 1 399.0923 468.3066)" fill="#2A77BC" font-family="'OCRAStd'" font-size="24.3763">)</text>
	</g>
	<g clip-path="url(#SVGID_2_)">
		<text transform="matrix(1 0 0 1 317.3096 499.0205)"><tspan x="0" y="0" fill="#2A77BC" font-family="'OCRAStd'" font-size="24.3763" letter-spacing="-1">12 </tspan><tspan x="49.215" y="0" fill="#2A77BC" font-family="'OCRAStd'" font-size="24.3763">(</tspan></text>
	</g>
	<g clip-path="url(#SVGID_2_)">
		<text transform="matrix(1 0 0 1 382.833 499.0205)" fill="#2A77BC" font-family="'OCRAStd'" font-size="24.3763">D</text>
	</g>
	<g clip-path="url(#SVGID_2_)">
		<text transform="matrix(1 0 0 1 399.0923 499.0205)" fill="#2A77BC" font-family="'OCRAStd'" font-size="24.3763">)</text>
	</g>
	<g clip-path="url(#SVGID_2_)">
		<text transform="matrix(1 0 0 1 317.3096 529.7349)"><tspan x="0" y="0" fill="#2A77BC" font-family="'OCRAStd'" font-size="24.3763" letter-spacing="-1">13 </tspan><tspan x="49.215" y="0" fill="#2A77BC" font-family="'OCRAStd'" font-size="24.3763">(</tspan></text>
	</g>
	<g clip-path="url(#SVGID_2_)">
		<text transform="matrix(1 0 0 1 382.833 529.7349)" fill="#2A77BC" font-family="'OCRAStd'" font-size="24.3763">C</text>
	</g>
	<g clip-path="url(#SVGID_2_)">
		<text transform="matrix(1 0 0 1 399.0923 529.7349)" fill="#2A77BC" font-family="'OCRAStd'" font-size="24.3763">)</text>
	</g>
	<g clip-path="url(#SVGID_2_)">
		<text transform="matrix(1 0 0 1 814.5859 233.8066)" fill="#2A77BC" font-family="'OCRAStd'" font-size="24.3763">S</text>
	</g>
	<g clip-path="url(#SVGID_2_)">
		<text transform="matrix(1 0 0 1 830.9424 233.8066)" fill="#2A77BC" font-family="'OCRAStd'" font-size="24.3763">1</text>
	</g>
	<g clip-path="url(#SVGID_2_)">
		<text transform="matrix(1 0 0 1 814.5859 426.3789)" fill="#2A77BC" font-family="'OCRAStd'" font-size="24.3763">S</text>
	</g>
	<g clip-path="url(#SVGID_2_)">
		<text transform="matrix(1 0 0 1 830.9424 426.3789)" fill="#2A77BC" font-family="'OCRAStd'" font-size="24.3763">3</text>
	</g>
	<g clip-path="url(#SVGID_2_)">
		<text transform="matrix(1 0 0 1 734.1445 363.001)" fill="#2A77BC" font-family="'OCRAStd'" font-size="24.3763">S</text>
	</g>
	<g clip-path="url(#SVGID_2_)">
		<text transform="matrix(1 0 0 1 750.501 363.001)" fill="#2A77BC" font-family="'OCRAStd'" font-size="24.3763">4</text>
	</g>
	<g clip-path="url(#SVGID_2_)">
		<text transform="matrix(1 0 0 1 895.0283 363.001)" fill="#2A77BC" font-family="'OCRAStd'" font-size="24.3763">S</text>
	</g>
	<g clip-path="url(#SVGID_2_)">
		<text transform="matrix(1 0 0 1 911.3848 363.001)" fill="#2A77BC" font-family="'OCRAStd'" font-size="24.3763">2</text>
	</g>
	<g clip-path="url(#SVGID_2_)">
		<text transform="matrix(1 0 0 1 319.7446 560.4478)"><tspan x="0" y="0" fill="#2A77BC" font-family="'OCRAStd'" font-size="17.0634">0 (12C</tspan><tspan x="68.9" y="0" fill="#2A77BC" font-family="'OCRAStd'" font-size="17.0634">-</tspan></text>
	</g>
	<g clip-path="url(#SVGID_2_)">
		<text transform="matrix(1 0 0 1 400.0107 560.4478)" fill="#2A77BC" font-family="'OCRAStd'" font-size="17.0634">D</text>
	</g>
	<g clip-path="url(#SVGID_2_)">
		<text transform="matrix(1 0 0 1 411.3408 560.4478)" fill="#2A77BC" font-family="'OCRAStd'" font-size="17.0634">)</text>
	</g>
	<g clip-path="url(#SVGID_2_)">
		<text transform="matrix(1 0 0 1 319.7446 591.1621)"><tspan x="0" y="0" fill="#2A77BC" font-family="'OCRAStd'" font-size="17.0634">2 (12C</tspan><tspan x="68.9" y="0" fill="#2A77BC" font-family="'OCRAStd'" font-size="17.0634">-</tspan></text>
	</g>
	<g clip-path="url(#SVGID_2_)">
		<text transform="matrix(1 0 0 1 400.0107 591.1621)" fill="#2A77BC" font-family="'OCRAStd'" font-size="17.0634">D</text>
	</g>
	<g clip-path="url(#SVGID_2_)">
		<text transform="matrix(1 0 0 1 411.3408 591.1621)" fill="#2A77BC" font-family="'OCRAStd'" font-size="17.0634">)</text>
	</g>
	<g clip-path="url(#SVGID_2_)">
		<text transform="matrix(1 0 0 1 253.5215 626.2617)"><tspan x="0" y="0" fill="#2A77BC" font-family="'OCRAStd'" font-size="17.0634">V + </tspan><tspan x="45.934" y="0" fill="#2A77BC" font-family="'OCRAStd'" font-size="17.0634">G</tspan></text>
	</g>
	<g clip-path="url(#SVGID_2_)">
		<text transform="matrix(1 0 0 1 310.8545 626.2617)" fill="#2A77BC" font-family="'OCRAStd'" font-size="17.0634">N</text>
	</g>
	<g clip-path="url(#SVGID_2_)">
		<text transform="matrix(1 0 0 1 322.2188 626.2617)" fill="#2A77BC" font-family="'OCRAStd'" font-size="17.0634">D</text>
	</g>
	<g clip-path="url(#SVGID_2_)">
		<text transform="matrix(1 0 0 1 256.3711 694.5146)" fill="#2A77BC" font-family="'OCRAStd'" font-size="17.0634">C</text>
	</g>
	<g clip-path="url(#SVGID_2_)">
		<text transform="matrix(1 0 0 1 267.8208 694.5146)" fill="#2A77BC" font-family="'OCRAStd'" font-size="17.0634">K</text>
	</g>
	<g clip-path="url(#SVGID_2_)">
		<text transform="matrix(1 0 0 1 353.8716 694.5146)" fill="#2A77BC" font-family="'OCRAStd'" font-size="17.0634">C</text>
	</g>
	<g clip-path="url(#SVGID_2_)">
		<text transform="matrix(1 0 0 1 365.3208 694.5146)" fill="#2A77BC" font-family="'OCRAStd'" font-size="17.0634">O</text>
	</g>
	<g clip-path="url(#SVGID_2_)">
		<text transform="matrix(1 0 0 1 322.1846 694.5146)" fill="#2A77BC" font-family="'OCRAStd'" font-size="17.0634">M</text>
	</g>
	<g clip-path="url(#SVGID_2_)">
		<text transform="matrix(1 0 0 1 333.6343 694.5146)" fill="#2A77BC" font-family="'OCRAStd'" font-size="17.0634">I</text>
	</g>
	<g clip-path="url(#SVGID_2_)">
		<text transform="matrix(1 0 0 1 290.498 694.5146)" fill="#2A77BC" font-family="'OCRAStd'" font-size="17.0634">M</text>
	</g>
	<g clip-path="url(#SVGID_2_)">
		<text transform="matrix(1 0 0 1 301.9478 694.5146)" fill="#2A77BC" font-family="'OCRAStd'" font-size="17.0634">O</text>
	</g>
	
		<rect x="927.622" y="538.533" clip-path="url(#SVGID_2_)" fill="none" stroke="#2C77BC" stroke-width="7.085" stroke-miterlimit="10" width="31.022" height="73.006"/>
	
		<rect x="958.643" y="545.232" clip-path="url(#SVGID_2_)" fill-rule="evenodd" clip-rule="evenodd" fill="#2C77BC" width="13.021" height="13.019"/>
	<g clip-path="url(#SVGID_2_)">
		<text transform="matrix(1 0 0 1 943.1445 641.2549)" fill="#2C77BC" font-family="'Nunito-ExtraBold'" font-size="34.0068">0</text>
	</g>
	<g clip-path="url(#SVGID_2_)">
		<text transform="matrix(1 0 0 1 943.1445 523.3535)" fill="#2C77BC" font-family="'Nunito-ExtraBold'" font-size="34.0068">1</text>
	</g>
	<g clip-path="url(#SVGID_2_)">
		<defs>
			<rect id="SVGID_11_" width="1210" height="1178"/>
		</defs>
		<clipPath id="SVGID_12_">
			<use xlink:href="#SVGID_11_"  overflow="visible"/>
		</clipPath>
		<path clip-path="url(#SVGID_12_)" fill="none" stroke="#2A77BC" stroke-width="3.013" stroke-miterlimit="10" d="M278.057,221.936
			h128.789c19.887,0,36.158,16.271,36.158,36.157v307.955c0,19.887-16.271,36.158-36.158,36.158H278.057"/>
		<rect x="305.278" y="287.752" clip-path="url(#SVGID_12_)" fill="#2A77BC" width="136.507" height="31.689"/>
	</g>
	<g clip-path="url(#SVGID_2_)">
		<text transform="matrix(1 0 0 1 356.3096 314.2495)" fill="#FFFFFF" font-family="'OCRAStd'" font-size="26.0126">A</text>
	</g>
	<g clip-path="url(#SVGID_2_)">
		<text transform="matrix(1 0 0 1 373.7642 314.2495)" fill="#FFFFFF" font-family="'OCRAStd'" font-size="26.0126">O</text>
	</g>
	
		<line clip-path="url(#SVGID_2_)" fill="none" stroke="#2A77BC" stroke-width="2.438" stroke-miterlimit="10" x1="304.059" y1="442.542" x2="443.003" y2="442.542"/>
	
		<line clip-path="url(#SVGID_2_)" fill="none" stroke="#2A77BC" stroke-width="2.438" stroke-miterlimit="10" x1="304.059" y1="533.952" x2="443.003" y2="533.952"/>
	<g clip-path="url(#SVGID_2_)">
		<defs>
			<rect id="SVGID_13_" width="1210" height="1178"/>
		</defs>
		<clipPath id="SVGID_14_">
			<use xlink:href="#SVGID_13_"  overflow="visible"/>
		</clipPath>
		<path clip-path="url(#SVGID_14_)" fill="none" stroke="#2C77BC" stroke-width="7.085" stroke-miterlimit="10" d="M520.908,268.492
			c0-10.261-5.319-19.329-13.327-24.617H475.25c-8.009,5.288-13.327,14.355-13.327,24.617c0,9.232,4.306,17.498,11.001,22.917
			h36.983C516.601,285.99,520.908,277.724,520.908,268.492z"/>
		<polygon clip-path="url(#SVGID_14_)" fill="none" stroke="#2C77BC" stroke-width="7.085" stroke-miterlimit="10" points="
			503.298,466.365 503.298,440.667 800.801,442.771 800.801,466.365 839.028,466.365 839.028,662.101 802.464,662.101 
			802.464,687.032 503.298,687.032 503.298,665.425 465.071,665.425 465.071,466.365 		"/>
		<path clip-path="url(#SVGID_14_)" fill-rule="evenodd" clip-rule="evenodd" fill="#2C77BC" d="M503.818,502.167
			c0,3.172-2.572,5.744-5.744,5.744c-3.173,0-5.744-2.572-5.744-5.744s2.571-5.744,5.744-5.744
			C501.247,496.423,503.818,498.996,503.818,502.167"/>
		<path clip-path="url(#SVGID_14_)" fill-rule="evenodd" clip-rule="evenodd" fill="#2C77BC" d="M534.843,502.167
			c0,3.172-2.572,5.744-5.744,5.744c-3.173,0-5.744-2.572-5.744-5.744s2.571-5.744,5.744-5.744
			C532.271,496.423,534.843,498.996,534.843,502.167"/>
		<path clip-path="url(#SVGID_14_)" fill-rule="evenodd" clip-rule="evenodd" fill="#2C77BC" d="M565.868,502.167
			c0,3.172-2.572,5.744-5.745,5.744c-3.172,0-5.744-2.572-5.744-5.744s2.572-5.744,5.744-5.744
			C563.296,496.423,565.868,498.996,565.868,502.167"/>
		<path clip-path="url(#SVGID_14_)" fill-rule="evenodd" clip-rule="evenodd" fill="#2C77BC" d="M596.892,502.167
			c0,3.172-2.572,5.744-5.744,5.744c-3.173,0-5.744-2.572-5.744-5.744s2.571-5.744,5.744-5.744
			C594.32,496.423,596.892,498.996,596.892,502.167"/>
		<path clip-path="url(#SVGID_14_)" fill-rule="evenodd" clip-rule="evenodd" fill="#2C77BC" d="M627.916,502.167
			c0,3.172-2.571,5.744-5.743,5.744c-3.174,0-5.744-2.572-5.744-5.744s2.57-5.744,5.744-5.744
			C625.345,496.423,627.916,498.996,627.916,502.167"/>
		<path clip-path="url(#SVGID_14_)" fill-rule="evenodd" clip-rule="evenodd" fill="#2C77BC" d="M658.941,502.167
			c0,3.172-2.572,5.744-5.745,5.744c-3.172,0-5.744-2.572-5.744-5.744s2.572-5.744,5.744-5.744
			C656.369,496.423,658.941,498.996,658.941,502.167"/>
		<path clip-path="url(#SVGID_14_)" fill-rule="evenodd" clip-rule="evenodd" fill="#2C77BC" d="M689.966,502.167
			c0,3.172-2.572,5.744-5.744,5.744c-3.173,0-5.744-2.572-5.744-5.744s2.571-5.744,5.744-5.744
			C687.394,496.423,689.966,498.996,689.966,502.167"/>
		<path clip-path="url(#SVGID_14_)" fill-rule="evenodd" clip-rule="evenodd" fill="#2C77BC" d="M720.99,502.167
			c0,3.172-2.572,5.744-5.744,5.744c-3.173,0-5.744-2.572-5.744-5.744s2.571-5.744,5.744-5.744
			C718.418,496.423,720.99,498.996,720.99,502.167"/>
		<path clip-path="url(#SVGID_14_)" fill-rule="evenodd" clip-rule="evenodd" fill="#2C77BC" d="M752.015,502.167
			c0,3.172-2.571,5.744-5.745,5.744c-3.172,0-5.743-2.572-5.743-5.744s2.571-5.744,5.743-5.744
			C749.443,496.423,752.015,498.996,752.015,502.167"/>
		<path clip-path="url(#SVGID_14_)" fill-rule="evenodd" clip-rule="evenodd" fill="#2C77BC" d="M783.04,502.167
			c0,3.172-2.572,5.744-5.744,5.744c-3.173,0-5.744-2.572-5.744-5.744s2.571-5.744,5.744-5.744
			C780.468,496.423,783.04,498.996,783.04,502.167"/>
		<path clip-path="url(#SVGID_14_)" fill-rule="evenodd" clip-rule="evenodd" fill="#2C77BC" d="M814.064,502.167
			c0,3.172-2.572,5.744-5.744,5.744c-3.174,0-5.744-2.572-5.744-5.744s2.57-5.744,5.744-5.744
			C811.492,496.423,814.064,498.996,814.064,502.167"/>
		<path clip-path="url(#SVGID_14_)" fill-rule="evenodd" clip-rule="evenodd" fill="#2C77BC" d="M503.818,533.571
			c0,3.173-2.572,5.744-5.744,5.744c-3.173,0-5.744-2.571-5.744-5.744c0-3.172,2.571-5.744,5.744-5.744
			C501.247,527.827,503.818,530.399,503.818,533.571"/>
		<path clip-path="url(#SVGID_14_)" fill-rule="evenodd" clip-rule="evenodd" fill="#2C77BC" d="M534.843,533.571
			c0,3.173-2.572,5.744-5.744,5.744c-3.173,0-5.744-2.571-5.744-5.744c0-3.172,2.571-5.744,5.744-5.744
			C532.271,527.827,534.843,530.399,534.843,533.571"/>
		<path clip-path="url(#SVGID_14_)" fill-rule="evenodd" clip-rule="evenodd" fill="#2C77BC" d="M565.868,533.571
			c0,3.173-2.572,5.744-5.745,5.744c-3.172,0-5.744-2.571-5.744-5.744c0-3.172,2.572-5.744,5.744-5.744
			C563.296,527.827,565.868,530.399,565.868,533.571"/>
		<path clip-path="url(#SVGID_14_)" fill-rule="evenodd" clip-rule="evenodd" fill="#2C77BC" d="M596.892,533.571
			c0,3.173-2.572,5.744-5.744,5.744c-3.173,0-5.744-2.571-5.744-5.744c0-3.172,2.571-5.744,5.744-5.744
			C594.32,527.827,596.892,530.399,596.892,533.571"/>
		<path clip-path="url(#SVGID_14_)" fill-rule="evenodd" clip-rule="evenodd" fill="#2C77BC" d="M627.916,533.571
			c0,3.173-2.571,5.744-5.743,5.744c-3.174,0-5.744-2.571-5.744-5.744c0-3.172,2.57-5.744,5.744-5.744
			C625.345,527.827,627.916,530.399,627.916,533.571"/>
		<path clip-path="url(#SVGID_14_)" fill-rule="evenodd" clip-rule="evenodd" fill="#2C77BC" d="M658.941,533.571
			c0,3.173-2.572,5.744-5.745,5.744c-3.172,0-5.744-2.571-5.744-5.744c0-3.172,2.572-5.744,5.744-5.744
			C656.369,527.827,658.941,530.399,658.941,533.571"/>
		<path clip-path="url(#SVGID_14_)" fill-rule="evenodd" clip-rule="evenodd" fill="#2C77BC" d="M689.966,533.571
			c0,3.173-2.572,5.744-5.744,5.744c-3.173,0-5.744-2.571-5.744-5.744c0-3.172,2.571-5.744,5.744-5.744
			C687.394,527.827,689.966,530.399,689.966,533.571"/>
		<path clip-path="url(#SVGID_14_)" fill-rule="evenodd" clip-rule="evenodd" fill="#2C77BC" d="M720.99,533.571
			c0,3.173-2.572,5.744-5.744,5.744c-3.173,0-5.744-2.571-5.744-5.744c0-3.172,2.571-5.744,5.744-5.744
			C718.418,527.827,720.99,530.399,720.99,533.571"/>
		<path clip-path="url(#SVGID_14_)" fill-rule="evenodd" clip-rule="evenodd" fill="#2C77BC" d="M752.015,533.571
			c0,3.173-2.571,5.744-5.745,5.744c-3.172,0-5.743-2.571-5.743-5.744c0-3.172,2.571-5.744,5.743-5.744
			C749.443,527.827,752.015,530.399,752.015,533.571"/>
		<path clip-path="url(#SVGID_14_)" fill-rule="evenodd" clip-rule="evenodd" fill="#2C77BC" d="M783.04,533.571
			c0,3.173-2.572,5.744-5.744,5.744c-3.173,0-5.744-2.571-5.744-5.744c0-3.172,2.571-5.744,5.744-5.744
			C780.468,527.827,783.04,530.399,783.04,533.571"/>
		<path clip-path="url(#SVGID_14_)" fill-rule="evenodd" clip-rule="evenodd" fill="#2C77BC" d="M814.064,533.571
			c0,3.173-2.572,5.744-5.744,5.744c-3.174,0-5.744-2.571-5.744-5.744c0-3.172,2.57-5.744,5.744-5.744
			C811.492,527.827,814.064,530.399,814.064,533.571"/>
		<path clip-path="url(#SVGID_14_)" fill-rule="evenodd" clip-rule="evenodd" fill="#2C77BC" d="M503.818,564.975
			c0,3.172-2.572,5.744-5.744,5.744c-3.173,0-5.744-2.572-5.744-5.744c0-3.173,2.571-5.744,5.744-5.744
			C501.247,559.23,503.818,561.802,503.818,564.975"/>
		<path clip-path="url(#SVGID_14_)" fill-rule="evenodd" clip-rule="evenodd" fill="#2C77BC" d="M534.843,564.975
			c0,3.172-2.572,5.744-5.744,5.744c-3.173,0-5.744-2.572-5.744-5.744c0-3.173,2.571-5.744,5.744-5.744
			C532.271,559.23,534.843,561.802,534.843,564.975"/>
		<path clip-path="url(#SVGID_14_)" fill-rule="evenodd" clip-rule="evenodd" fill="#2C77BC" d="M565.868,564.975
			c0,3.172-2.572,5.744-5.745,5.744c-3.172,0-5.744-2.572-5.744-5.744c0-3.173,2.572-5.744,5.744-5.744
			C563.296,559.23,565.868,561.802,565.868,564.975"/>
		<path clip-path="url(#SVGID_14_)" fill-rule="evenodd" clip-rule="evenodd" fill="#2C77BC" d="M596.892,564.975
			c0,3.172-2.572,5.744-5.744,5.744c-3.173,0-5.744-2.572-5.744-5.744c0-3.173,2.571-5.744,5.744-5.744
			C594.32,559.23,596.892,561.802,596.892,564.975"/>
		<path clip-path="url(#SVGID_14_)" fill-rule="evenodd" clip-rule="evenodd" fill="#2C77BC" d="M627.916,564.975
			c0,3.172-2.571,5.744-5.743,5.744c-3.174,0-5.744-2.572-5.744-5.744c0-3.173,2.57-5.744,5.744-5.744
			C625.345,559.23,627.916,561.802,627.916,564.975"/>
		<path clip-path="url(#SVGID_14_)" fill-rule="evenodd" clip-rule="evenodd" fill="#2C77BC" d="M658.941,564.975
			c0,3.172-2.572,5.744-5.745,5.744c-3.172,0-5.744-2.572-5.744-5.744c0-3.173,2.572-5.744,5.744-5.744
			C656.369,559.23,658.941,561.802,658.941,564.975"/>
		<path clip-path="url(#SVGID_14_)" fill-rule="evenodd" clip-rule="evenodd" fill="#2C77BC" d="M689.966,564.975
			c0,3.172-2.572,5.744-5.744,5.744c-3.173,0-5.744-2.572-5.744-5.744c0-3.173,2.571-5.744,5.744-5.744
			C687.394,559.23,689.966,561.802,689.966,564.975"/>
		<path clip-path="url(#SVGID_14_)" fill-rule="evenodd" clip-rule="evenodd" fill="#2C77BC" d="M720.99,564.975
			c0,3.172-2.572,5.744-5.744,5.744c-3.173,0-5.744-2.572-5.744-5.744c0-3.173,2.571-5.744,5.744-5.744
			C718.418,559.23,720.99,561.802,720.99,564.975"/>
		<path clip-path="url(#SVGID_14_)" fill-rule="evenodd" clip-rule="evenodd" fill="#2C77BC" d="M752.015,564.975
			c0,3.172-2.571,5.744-5.745,5.744c-3.172,0-5.743-2.572-5.743-5.744c0-3.173,2.571-5.744,5.743-5.744
			C749.443,559.23,752.015,561.802,752.015,564.975"/>
		<path clip-path="url(#SVGID_14_)" fill-rule="evenodd" clip-rule="evenodd" fill="#2C77BC" d="M783.04,564.975
			c0,3.172-2.572,5.744-5.744,5.744c-3.173,0-5.744-2.572-5.744-5.744c0-3.173,2.571-5.744,5.744-5.744
			C780.468,559.23,783.04,561.802,783.04,564.975"/>
		<path clip-path="url(#SVGID_14_)" fill-rule="evenodd" clip-rule="evenodd" fill="#2C77BC" d="M814.064,564.975
			c0,3.172-2.572,5.744-5.744,5.744c-3.174,0-5.744-2.572-5.744-5.744c0-3.173,2.57-5.744,5.744-5.744
			C811.492,559.23,814.064,561.802,814.064,564.975"/>
		<path clip-path="url(#SVGID_14_)" fill-rule="evenodd" clip-rule="evenodd" fill="#2C77BC" d="M503.818,596.378
			c0,3.172-2.572,5.744-5.744,5.744c-3.173,0-5.744-2.572-5.744-5.744s2.571-5.744,5.744-5.744
			C501.247,590.634,503.818,593.206,503.818,596.378"/>
		<path clip-path="url(#SVGID_14_)" fill-rule="evenodd" clip-rule="evenodd" fill="#2C77BC" d="M534.843,596.378
			c0,3.172-2.572,5.744-5.744,5.744c-3.173,0-5.744-2.572-5.744-5.744s2.571-5.744,5.744-5.744
			C532.271,590.634,534.843,593.206,534.843,596.378"/>
		<path clip-path="url(#SVGID_14_)" fill-rule="evenodd" clip-rule="evenodd" fill="#2C77BC" d="M565.868,596.378
			c0,3.172-2.572,5.744-5.745,5.744c-3.172,0-5.744-2.572-5.744-5.744s2.572-5.744,5.744-5.744
			C563.296,590.634,565.868,593.206,565.868,596.378"/>
		<path clip-path="url(#SVGID_14_)" fill-rule="evenodd" clip-rule="evenodd" fill="#2C77BC" d="M596.892,596.378
			c0,3.172-2.572,5.744-5.744,5.744c-3.173,0-5.744-2.572-5.744-5.744s2.571-5.744,5.744-5.744
			C594.32,590.634,596.892,593.206,596.892,596.378"/>
		<path clip-path="url(#SVGID_14_)" fill-rule="evenodd" clip-rule="evenodd" fill="#2C77BC" d="M627.916,596.378
			c0,3.172-2.571,5.744-5.743,5.744c-3.174,0-5.744-2.572-5.744-5.744s2.57-5.744,5.744-5.744
			C625.345,590.634,627.916,593.206,627.916,596.378"/>
		<path clip-path="url(#SVGID_14_)" fill-rule="evenodd" clip-rule="evenodd" fill="#2C77BC" d="M658.941,596.378
			c0,3.172-2.572,5.744-5.745,5.744c-3.172,0-5.744-2.572-5.744-5.744s2.572-5.744,5.744-5.744
			C656.369,590.634,658.941,593.206,658.941,596.378"/>
		<path clip-path="url(#SVGID_14_)" fill-rule="evenodd" clip-rule="evenodd" fill="#2C77BC" d="M689.966,596.378
			c0,3.172-2.572,5.744-5.744,5.744c-3.173,0-5.744-2.572-5.744-5.744s2.571-5.744,5.744-5.744
			C687.394,590.634,689.966,593.206,689.966,596.378"/>
		<path clip-path="url(#SVGID_14_)" fill-rule="evenodd" clip-rule="evenodd" fill="#2C77BC" d="M720.99,596.378
			c0,3.172-2.572,5.744-5.744,5.744c-3.173,0-5.744-2.572-5.744-5.744s2.571-5.744,5.744-5.744
			C718.418,590.634,720.99,593.206,720.99,596.378"/>
		<path clip-path="url(#SVGID_14_)" fill-rule="evenodd" clip-rule="evenodd" fill="#2C77BC" d="M752.015,596.378
			c0,3.172-2.571,5.744-5.745,5.744c-3.172,0-5.743-2.572-5.743-5.744s2.571-5.744,5.743-5.744
			C749.443,590.634,752.015,593.206,752.015,596.378"/>
		<path clip-path="url(#SVGID_14_)" fill-rule="evenodd" clip-rule="evenodd" fill="#2C77BC" d="M783.04,596.378
			c0,3.172-2.572,5.744-5.744,5.744c-3.173,0-5.744-2.572-5.744-5.744s2.571-5.744,5.744-5.744
			C780.468,590.634,783.04,593.206,783.04,596.378"/>
		<path clip-path="url(#SVGID_14_)" fill-rule="evenodd" clip-rule="evenodd" fill="#2C77BC" d="M814.064,596.378
			c0,3.172-2.572,5.744-5.744,5.744c-3.174,0-5.744-2.572-5.744-5.744s2.57-5.744,5.744-5.744
			C811.492,590.634,814.064,593.206,814.064,596.378"/>
		<path clip-path="url(#SVGID_14_)" fill-rule="evenodd" clip-rule="evenodd" fill="#2C77BC" d="M503.818,627.781
			c0,3.172-2.572,5.744-5.744,5.744c-3.173,0-5.744-2.572-5.744-5.744s2.571-5.744,5.744-5.744
			C501.247,622.037,503.818,624.609,503.818,627.781"/>
		<path clip-path="url(#SVGID_14_)" fill-rule="evenodd" clip-rule="evenodd" fill="#2C77BC" d="M534.843,627.781
			c0,3.172-2.572,5.744-5.744,5.744c-3.173,0-5.744-2.572-5.744-5.744s2.571-5.744,5.744-5.744
			C532.271,622.037,534.843,624.609,534.843,627.781"/>
		<path clip-path="url(#SVGID_14_)" fill-rule="evenodd" clip-rule="evenodd" fill="#2C77BC" d="M565.868,627.781
			c0,3.172-2.572,5.744-5.745,5.744c-3.172,0-5.744-2.572-5.744-5.744s2.572-5.744,5.744-5.744
			C563.296,622.037,565.868,624.609,565.868,627.781"/>
		<path clip-path="url(#SVGID_14_)" fill-rule="evenodd" clip-rule="evenodd" fill="#2C77BC" d="M596.892,627.781
			c0,3.172-2.572,5.744-5.744,5.744c-3.173,0-5.744-2.572-5.744-5.744s2.571-5.744,5.744-5.744
			C594.32,622.037,596.892,624.609,596.892,627.781"/>
		<path clip-path="url(#SVGID_14_)" fill-rule="evenodd" clip-rule="evenodd" fill="#2C77BC" d="M627.916,627.781
			c0,3.172-2.571,5.744-5.743,5.744c-3.174,0-5.744-2.572-5.744-5.744s2.57-5.744,5.744-5.744
			C625.345,622.037,627.916,624.609,627.916,627.781"/>
		<path clip-path="url(#SVGID_14_)" fill-rule="evenodd" clip-rule="evenodd" fill="#2C77BC" d="M658.941,627.781
			c0,3.172-2.572,5.744-5.745,5.744c-3.172,0-5.744-2.572-5.744-5.744s2.572-5.744,5.744-5.744
			C656.369,622.037,658.941,624.609,658.941,627.781"/>
		<path clip-path="url(#SVGID_14_)" fill-rule="evenodd" clip-rule="evenodd" fill="#2C77BC" d="M689.966,627.781
			c0,3.172-2.572,5.744-5.744,5.744c-3.173,0-5.744-2.572-5.744-5.744s2.571-5.744,5.744-5.744
			C687.394,622.037,689.966,624.609,689.966,627.781"/>
		<path clip-path="url(#SVGID_14_)" fill-rule="evenodd" clip-rule="evenodd" fill="#2C77BC" d="M720.99,627.781
			c0,3.172-2.572,5.744-5.744,5.744c-3.173,0-5.744-2.572-5.744-5.744s2.571-5.744,5.744-5.744
			C718.418,622.037,720.99,624.609,720.99,627.781"/>
		<path clip-path="url(#SVGID_14_)" fill-rule="evenodd" clip-rule="evenodd" fill="#2C77BC" d="M752.015,627.781
			c0,3.172-2.571,5.744-5.745,5.744c-3.172,0-5.743-2.572-5.743-5.744s2.571-5.744,5.743-5.744
			C749.443,622.037,752.015,624.609,752.015,627.781"/>
		<path clip-path="url(#SVGID_14_)" fill-rule="evenodd" clip-rule="evenodd" fill="#2C77BC" d="M783.04,627.781
			c0,3.172-2.572,5.744-5.744,5.744c-3.173,0-5.744-2.572-5.744-5.744s2.571-5.744,5.744-5.744
			C780.468,622.037,783.04,624.609,783.04,627.781"/>
		<path clip-path="url(#SVGID_14_)" fill-rule="evenodd" clip-rule="evenodd" fill="#2C77BC" d="M814.064,627.781
			c0,3.172-2.572,5.744-5.744,5.744c-3.174,0-5.744-2.572-5.744-5.744s2.57-5.744,5.744-5.744
			C811.492,622.037,814.064,624.609,814.064,627.781"/>
		<g opacity="0.5" clip-path="url(#SVGID_14_)">
			<g>
				<defs>
					<rect id="SVGID_15_" x="492.712" y="484.699" width="321.353" height="157.955"/>
				</defs>
				<clipPath id="SVGID_16_">
					<use xlink:href="#SVGID_15_"  overflow="visible"/>
				</clipPath>
				<g clip-path="url(#SVGID_16_)">
					<g>
						<defs>
							<rect id="SVGID_17_" x="803.341" y="484.699" width="10.724" height="157.955"/>
						</defs>
						<clipPath id="SVGID_18_">
							<use xlink:href="#SVGID_17_"  overflow="visible"/>
						</clipPath>
						<rect x="803.341" y="484.699" clip-path="url(#SVGID_18_)" fill="#FF9F29" width="10.725" height="157.955"/>
						<g clip-path="url(#SVGID_18_)">
							<defs>
								<rect id="SVGID_19_" x="803.341" y="484.699" width="10.725" height="157.955"/>
							</defs>
							<clipPath id="SVGID_20_">
								<use xlink:href="#SVGID_19_"  overflow="visible"/>
							</clipPath>
							<rect x="803.341" y="484.699" clip-path="url(#SVGID_20_)" fill="#FF9F29" width="10.725" height="157.955"/>
						</g>
						<g clip-path="url(#SVGID_18_)">
							<defs>
								<rect id="SVGID_21_" x="803.341" y="484.699" width="10.725" height="157.955"/>
							</defs>
							<clipPath id="SVGID_22_">
								<use xlink:href="#SVGID_21_"  overflow="visible"/>
							</clipPath>
							<line clip-path="url(#SVGID_22_)" fill="#FF9F29" x1="808.702" y1="642.654" x2="808.702" y2="484.699"/>
						</g>
					</g>
				</g>
				<g clip-path="url(#SVGID_16_)">
					<g>
						<defs>
							<rect id="SVGID_23_" x="771.808" y="484.699" width="11.232" height="157.955"/>
						</defs>
						<clipPath id="SVGID_24_">
							<use xlink:href="#SVGID_23_"  overflow="visible"/>
						</clipPath>
						<rect x="771.808" y="484.699" clip-path="url(#SVGID_24_)" fill="#FF9F29" width="11.232" height="157.955"/>
						<g clip-path="url(#SVGID_24_)">
							<defs>
								<rect id="SVGID_25_" x="771.808" y="484.699" width="11.232" height="157.955"/>
							</defs>
							<clipPath id="SVGID_26_">
								<use xlink:href="#SVGID_25_"  overflow="visible"/>
							</clipPath>
							<rect x="771.808" y="484.699" clip-path="url(#SVGID_26_)" fill="#FF9F29" width="11.232" height="157.955"/>
						</g>
						<g clip-path="url(#SVGID_24_)">
							<defs>
								<rect id="SVGID_27_" x="771.808" y="484.699" width="11.232" height="157.955"/>
							</defs>
							<clipPath id="SVGID_28_">
								<use xlink:href="#SVGID_27_"  overflow="visible"/>
							</clipPath>
							<line clip-path="url(#SVGID_28_)" fill="#FF9F29" x1="777.424" y1="642.654" x2="777.424" y2="484.699"/>
						</g>
					</g>
				</g>
				<g clip-path="url(#SVGID_16_)">
					<g>
						<defs>
							<rect id="SVGID_29_" x="740.277" y="484.699" width="11.737" height="157.955"/>
						</defs>
						<clipPath id="SVGID_30_">
							<use xlink:href="#SVGID_29_"  overflow="visible"/>
						</clipPath>
						<rect x="740.277" y="484.699" clip-path="url(#SVGID_30_)" fill="#FF9F29" width="11.736" height="157.955"/>
						<g clip-path="url(#SVGID_30_)">
							<defs>
								<rect id="SVGID_31_" x="740.277" y="484.699" width="11.736" height="157.955"/>
							</defs>
							<clipPath id="SVGID_32_">
								<use xlink:href="#SVGID_31_"  overflow="visible"/>
							</clipPath>
							<rect x="740.277" y="484.699" clip-path="url(#SVGID_32_)" fill="#FF9F29" width="11.735" height="157.955"/>
						</g>
						<g clip-path="url(#SVGID_30_)">
							<defs>
								<rect id="SVGID_33_" x="740.277" y="484.699" width="11.736" height="157.955"/>
							</defs>
							<clipPath id="SVGID_34_">
								<use xlink:href="#SVGID_33_"  overflow="visible"/>
							</clipPath>
							<line clip-path="url(#SVGID_34_)" fill="#FF9F29" x1="746.146" y1="642.654" x2="746.146" y2="484.699"/>
						</g>
					</g>
				</g>
				<g clip-path="url(#SVGID_16_)">
					<g>
						<defs>
							<rect id="SVGID_35_" x="708.745" y="484.699" width="12.245" height="157.955"/>
						</defs>
						<clipPath id="SVGID_36_">
							<use xlink:href="#SVGID_35_"  overflow="visible"/>
						</clipPath>
						<rect x="708.745" y="484.699" clip-path="url(#SVGID_36_)" fill="#FF9F29" width="12.245" height="157.955"/>
						<g clip-path="url(#SVGID_36_)">
							<defs>
								<rect id="SVGID_37_" x="708.745" y="484.699" width="12.245" height="157.955"/>
							</defs>
							<clipPath id="SVGID_38_">
								<use xlink:href="#SVGID_37_"  overflow="visible"/>
							</clipPath>
							<rect x="708.745" y="484.699" clip-path="url(#SVGID_38_)" fill="#FF9F29" width="12.245" height="157.955"/>
						</g>
						<g clip-path="url(#SVGID_36_)">
							<defs>
								<rect id="SVGID_39_" x="708.745" y="484.699" width="12.245" height="157.955"/>
							</defs>
							<clipPath id="SVGID_40_">
								<use xlink:href="#SVGID_39_"  overflow="visible"/>
							</clipPath>
							<line clip-path="url(#SVGID_40_)" fill="#FF9F29" x1="714.867" y1="642.654" x2="714.867" y2="484.699"/>
						</g>
					</g>
				</g>
				<g clip-path="url(#SVGID_16_)">
					<g>
						<defs>
							<rect id="SVGID_41_" x="678.777" y="484.699" width="11.188" height="157.955"/>
						</defs>
						<clipPath id="SVGID_42_">
							<use xlink:href="#SVGID_41_"  overflow="visible"/>
						</clipPath>
						<rect x="678.777" y="484.699" clip-path="url(#SVGID_42_)" fill="#FF9F29" width="11.188" height="157.955"/>
						<g clip-path="url(#SVGID_42_)">
							<defs>
								<rect id="SVGID_43_" x="678.777" y="484.699" width="11.188" height="157.955"/>
							</defs>
							<clipPath id="SVGID_44_">
								<use xlink:href="#SVGID_43_"  overflow="visible"/>
							</clipPath>
							<rect x="678.777" y="484.699" clip-path="url(#SVGID_44_)" fill="#FF9F29" width="11.188" height="157.955"/>
						</g>
						<g clip-path="url(#SVGID_42_)">
							<defs>
								<rect id="SVGID_45_" x="678.777" y="484.699" width="11.188" height="157.955"/>
							</defs>
							<clipPath id="SVGID_46_">
								<use xlink:href="#SVGID_45_"  overflow="visible"/>
							</clipPath>
							<line clip-path="url(#SVGID_46_)" fill="#FF9F29" x1="684.371" y1="642.654" x2="684.371" y2="484.699"/>
						</g>
					</g>
				</g>
				<g clip-path="url(#SVGID_16_)">
					<g>
						<defs>
							<rect id="SVGID_47_" x="647.245" y="484.699" width="11.696" height="157.955"/>
						</defs>
						<clipPath id="SVGID_48_">
							<use xlink:href="#SVGID_47_"  overflow="visible"/>
						</clipPath>
						<rect x="647.245" y="484.699" clip-path="url(#SVGID_48_)" fill="#FF9F29" width="11.696" height="157.955"/>
						<g clip-path="url(#SVGID_48_)">
							<defs>
								<rect id="SVGID_49_" x="647.245" y="484.699" width="11.696" height="157.955"/>
							</defs>
							<clipPath id="SVGID_50_">
								<use xlink:href="#SVGID_49_"  overflow="visible"/>
							</clipPath>
							<rect x="647.245" y="484.699" clip-path="url(#SVGID_50_)" fill="#FF9F29" width="11.696" height="157.955"/>
						</g>
						<g clip-path="url(#SVGID_48_)">
							<defs>
								<rect id="SVGID_51_" x="647.245" y="484.699" width="11.696" height="157.955"/>
							</defs>
							<clipPath id="SVGID_52_">
								<use xlink:href="#SVGID_51_"  overflow="visible"/>
							</clipPath>
							<line clip-path="url(#SVGID_52_)" fill="#FF9F29" x1="653.093" y1="642.654" x2="653.093" y2="484.699"/>
						</g>
					</g>
				</g>
				<g clip-path="url(#SVGID_16_)">
					<g>
						<defs>
							<rect id="SVGID_53_" x="615.713" y="484.699" width="12.203" height="157.955"/>
						</defs>
						<clipPath id="SVGID_54_">
							<use xlink:href="#SVGID_53_"  overflow="visible"/>
						</clipPath>
						<rect x="615.713" y="484.699" clip-path="url(#SVGID_54_)" fill="#FF9F29" width="12.203" height="157.955"/>
						<g clip-path="url(#SVGID_54_)">
							<defs>
								<rect id="SVGID_55_" x="615.713" y="484.699" width="12.203" height="157.955"/>
							</defs>
							<clipPath id="SVGID_56_">
								<use xlink:href="#SVGID_55_"  overflow="visible"/>
							</clipPath>
							<rect x="615.713" y="484.699" clip-path="url(#SVGID_56_)" fill="#FF9F29" width="12.203" height="157.955"/>
						</g>
						<g clip-path="url(#SVGID_54_)">
							<defs>
								<rect id="SVGID_57_" x="615.712" y="484.699" width="12.203" height="157.955"/>
							</defs>
							<clipPath id="SVGID_58_">
								<use xlink:href="#SVGID_57_"  overflow="visible"/>
							</clipPath>
							<line clip-path="url(#SVGID_58_)" fill="#FF9F29" x1="621.814" y1="642.654" x2="621.814" y2="484.699"/>
						</g>
					</g>
				</g>
				<g clip-path="url(#SVGID_16_)">
					<g>
						<defs>
							<rect id="SVGID_59_" x="584.821" y="484.699" width="12.995" height="157.955"/>
						</defs>
						<clipPath id="SVGID_60_">
							<use xlink:href="#SVGID_59_"  overflow="visible"/>
						</clipPath>
						<rect x="584.821" y="484.699" clip-path="url(#SVGID_60_)" fill="#FF9F29" width="12.995" height="157.955"/>
						<g clip-path="url(#SVGID_60_)">
							<defs>
								<rect id="SVGID_61_" x="584.821" y="484.699" width="12.995" height="157.955"/>
							</defs>
							<clipPath id="SVGID_62_">
								<use xlink:href="#SVGID_61_"  overflow="visible"/>
							</clipPath>
							<rect x="584.821" y="484.699" clip-path="url(#SVGID_62_)" fill="#FF9F29" width="12.995" height="157.955"/>
						</g>
						<g clip-path="url(#SVGID_60_)">
							<defs>
								<rect id="SVGID_63_" x="584.821" y="484.699" width="12.995" height="157.955"/>
							</defs>
							<clipPath id="SVGID_64_">
								<use xlink:href="#SVGID_63_"  overflow="visible"/>
							</clipPath>
							<line clip-path="url(#SVGID_64_)" fill="#FF9F29" x1="591.318" y1="642.654" x2="591.318" y2="484.699"/>
						</g>
					</g>
				</g>
				<g clip-path="url(#SVGID_16_)">
					<g>
						<defs>
							<rect id="SVGID_65_" x="554.212" y="484.699" width="11.656" height="157.955"/>
						</defs>
						<clipPath id="SVGID_66_">
							<use xlink:href="#SVGID_65_"  overflow="visible"/>
						</clipPath>
						<rect x="554.212" y="484.699" clip-path="url(#SVGID_66_)" fill="#FF9F29" width="11.656" height="157.955"/>
						<g clip-path="url(#SVGID_66_)">
							<defs>
								<rect id="SVGID_67_" x="554.212" y="484.699" width="11.656" height="157.955"/>
							</defs>
							<clipPath id="SVGID_68_">
								<use xlink:href="#SVGID_67_"  overflow="visible"/>
							</clipPath>
							<rect x="554.212" y="484.699" clip-path="url(#SVGID_68_)" fill="#FF9F29" width="11.656" height="157.955"/>
						</g>
						<g clip-path="url(#SVGID_66_)">
							<defs>
								<rect id="SVGID_69_" x="554.212" y="484.699" width="11.656" height="157.955"/>
							</defs>
							<clipPath id="SVGID_70_">
								<use xlink:href="#SVGID_69_"  overflow="visible"/>
							</clipPath>
							<line clip-path="url(#SVGID_70_)" fill="#FF9F29" x1="560.04" y1="642.654" x2="560.04" y2="484.699"/>
						</g>
					</g>
				</g>
				<g clip-path="url(#SVGID_16_)">
					<g>
						<defs>
							<rect id="SVGID_71_" x="522.68" y="484.699" width="12.163" height="157.955"/>
						</defs>
						<clipPath id="SVGID_72_">
							<use xlink:href="#SVGID_71_"  overflow="visible"/>
						</clipPath>
						<rect x="522.68" y="484.699" clip-path="url(#SVGID_72_)" fill="#FF9F29" width="12.163" height="157.955"/>
						<g clip-path="url(#SVGID_72_)">
							<defs>
								<rect id="SVGID_73_" x="522.68" y="484.699" width="12.163" height="157.955"/>
							</defs>
							<clipPath id="SVGID_74_">
								<use xlink:href="#SVGID_73_"  overflow="visible"/>
							</clipPath>
							<rect x="522.68" y="484.699" clip-path="url(#SVGID_74_)" fill="#FF9F29" width="12.163" height="157.955"/>
						</g>
						<g clip-path="url(#SVGID_72_)">
							<defs>
								<rect id="SVGID_75_" x="522.68" y="484.699" width="12.163" height="157.955"/>
							</defs>
							<clipPath id="SVGID_76_">
								<use xlink:href="#SVGID_75_"  overflow="visible"/>
							</clipPath>
							<line clip-path="url(#SVGID_76_)" fill="#FF9F29" x1="528.762" y1="642.654" x2="528.762" y2="484.699"/>
						</g>
					</g>
				</g>
				<g clip-path="url(#SVGID_16_)">
					<g>
						<defs>
							<rect id="SVGID_77_" x="492.712" y="484.699" width="11.106" height="157.955"/>
						</defs>
						<clipPath id="SVGID_78_">
							<use xlink:href="#SVGID_77_"  overflow="visible"/>
						</clipPath>
						<rect x="492.712" y="484.699" clip-path="url(#SVGID_78_)" fill="#FF9F29" width="11.106" height="157.955"/>
						<g clip-path="url(#SVGID_78_)">
							<defs>
								<rect id="SVGID_79_" x="492.712" y="484.699" width="11.106" height="157.955"/>
							</defs>
							<clipPath id="SVGID_80_">
								<use xlink:href="#SVGID_79_"  overflow="visible"/>
							</clipPath>
							<rect x="492.712" y="484.699" clip-path="url(#SVGID_80_)" fill="#FF9F29" width="11.106" height="157.955"/>
						</g>
						<g clip-path="url(#SVGID_78_)">
							<defs>
								<rect id="SVGID_81_" x="492.712" y="484.699" width="11.106" height="157.955"/>
							</defs>
							<clipPath id="SVGID_82_">
								<use xlink:href="#SVGID_81_"  overflow="visible"/>
							</clipPath>
							<line clip-path="url(#SVGID_82_)" fill="#FF9F29" x1="498.266" y1="642.654" x2="498.266" y2="484.699"/>
						</g>
					</g>
				</g>
			</g>
		</g>
		
			<rect x="738.967" y="906.964" clip-path="url(#SVGID_14_)" fill-rule="evenodd" clip-rule="evenodd" fill="#FFEAB6" width="318.033" height="142.54"/>
		
			<rect x="738.967" y="906.964" clip-path="url(#SVGID_14_)" fill="none" stroke="#FF9425" stroke-width="4" stroke-miterlimit="10" width="318.033" height="142.54"/>
		<path clip-path="url(#SVGID_14_)" fill-rule="evenodd" clip-rule="evenodd" fill="#2C77BC" d="M660.69,916.42
			c0,3.109-2.521,5.63-5.629,5.63c-3.11,0-5.63-2.521-5.63-5.63c0-3.108,2.52-5.629,5.63-5.629
			C658.169,910.791,660.69,913.312,660.69,916.42"/>
		<path clip-path="url(#SVGID_14_)" fill-rule="evenodd" clip-rule="evenodd" fill="#2C77BC" d="M660.69,947.196
			c0,3.109-2.521,5.63-5.629,5.63c-3.11,0-5.63-2.521-5.63-5.63c0-3.108,2.52-5.629,5.63-5.629
			C658.169,941.567,660.69,944.088,660.69,947.196"/>
		<path clip-path="url(#SVGID_14_)" fill-rule="evenodd" clip-rule="evenodd" fill="#2C77BC" d="M660.69,977.973
			c0,3.109-2.521,5.63-5.629,5.63c-3.11,0-5.63-2.521-5.63-5.63c0-3.108,2.52-5.629,5.63-5.629
			C658.169,972.344,660.69,974.864,660.69,977.973"/>
		<path clip-path="url(#SVGID_14_)" fill-rule="evenodd" clip-rule="evenodd" fill="#2C77BC" d="M660.69,1008.749
			c0,3.109-2.521,5.63-5.629,5.63c-3.11,0-5.63-2.521-5.63-5.63c0-3.108,2.52-5.629,5.63-5.629
			C658.169,1003.12,660.69,1005.641,660.69,1008.749"/>
		<path clip-path="url(#SVGID_14_)" fill-rule="evenodd" clip-rule="evenodd" fill="#2C77BC" d="M660.69,1039.525
			c0,3.109-2.521,5.63-5.629,5.63c-3.11,0-5.63-2.521-5.63-5.63c0-3.108,2.52-5.629,5.63-5.629
			C658.169,1033.896,660.69,1036.417,660.69,1039.525"/>
	</g>
	<g clip-path="url(#SVGID_2_)">
		<text transform="matrix(1 0 0 1 771.0342 968.7861)" fill="#00426B" font-family="'NunitoSans-BoldItalic'" font-size="45.9807">Each </text>
	</g>
	<g clip-path="url(#SVGID_2_)">
		<text transform="matrix(1 0 0 1 871.6855 968.7861)" fill="#00426B" font-family="'NunitoSans-BoldItalic'" font-size="45.9807">c</text>
	</g>
	<g clip-path="url(#SVGID_2_)">
		<text transform="matrix(1 0 0 1 891.8711 968.7861)"><tspan x="0" y="0" fill="#00426B" font-family="'NunitoSans-BoldItalic'" font-size="45.9807">o</tspan><tspan x="24.783" y="0" fill="#00426B" font-family="'NunitoSans-BoldItalic'" font-size="45.9807">l</tspan></text>
	</g>
	<g clip-path="url(#SVGID_2_)">
		<text transform="matrix(1 0 0 1 927.0459 968.7861)" fill="#00426B" font-family="'NunitoSans-BoldItalic'" font-size="45.9807">u</text>
	</g>
	<g clip-path="url(#SVGID_2_)">
		<text transform="matrix(1 0 0 1 951.9688 968.7861)" fill="#00426B" font-family="'NunitoSans-BoldItalic'" font-size="45.9807">m</text>
	</g>
	<g clip-path="url(#SVGID_2_)">
		<text transform="matrix(1 0 0 1 989.8564 968.7861)" fill="#00426B" font-family="'NunitoSans-BoldItalic'" font-size="45.9807">n</text>
	</g>
	<g clip-path="url(#SVGID_2_)">
		<text transform="matrix(1 0 0 1 1014.8242 968.7861)" fill="#00426B" font-family="'NunitoSans-BoldItalic'" font-size="45.9807"> =</text>
	</g>
	<g clip-path="url(#SVGID_2_)">
		<text transform="matrix(1 0 0 1 771.0342 1017.8477)" fill="#00426B" font-family="'NunitoSans-BoldItalic'" font-size="45.9807">1 m</text>
	</g>
	<g clip-path="url(#SVGID_2_)">
		<text transform="matrix(1 0 0 1 842.7188 1017.8477)" fill="#00426B" font-family="'NunitoSans-BoldItalic'" font-size="45.9807">e</text>
	</g>
	<g clip-path="url(#SVGID_2_)">
		<text transform="matrix(1 0 0 1 865.4785 1017.8477)" fill="#00426B" font-family="'NunitoSans-BoldItalic'" font-size="45.9807">tal clip</text>
	</g>
	<g clip-path="url(#SVGID_2_)">
		<defs>
			<rect id="SVGID_83_" width="1210" height="1178"/>
		</defs>
		<clipPath id="SVGID_84_">
			<use xlink:href="#SVGID_83_"  overflow="visible"/>
		</clipPath>
		
			<line clip-path="url(#SVGID_84_)" fill="none" stroke="#06EEF4" stroke-width="7.617" stroke-miterlimit="10" x1="618.322" y1="896.333" x2="620.048" y2="1043.553"/>
		<path clip-path="url(#SVGID_84_)" fill="#06EEF4" d="M619.019,1056.525c-2.972-9.793-8.229-22.03-14.019-29.752l14.992,6.65
			l15.477-4.992C629.057,1035.491,622.795,1047.1,619.019,1056.525"/>
	</g>
</g>
</svg>
