<?xml version="1.0" encoding="utf-8"?>
<!-- Generator: Adobe Illustrator 16.0.0, SVG Export Plug-In . SVG Version: 6.00 Build 0)  -->
<!DOCTYPE svg PUBLIC "-//W3C//DTD SVG 1.1//EN" "http://www.w3.org/Graphics/SVG/1.1/DTD/svg11.dtd">
<svg version="1.1" xmlns="http://www.w3.org/2000/svg" xmlns:xlink="http://www.w3.org/1999/xlink" x="0px" y="0px"
	 width="1209.969px" height="1177.966px" viewBox="0 0 1209.969 1177.966" enable-background="new 0 0 1209.969 1177.966"
	 xml:space="preserve">
<g id="Page_1_1_">
</g>
<g id="Page_2_1_">
</g>
<g id="Page_3_1_">
</g>
<g id="Page_4_1_">
</g>
<g id="Page_5_1_">
</g>
<g id="Page_6_1_">
</g>
<g id="Page_7_1_">
</g>
<g id="Page_8_1_">
</g>
<g id="Page_9_1_">
</g>
<g id="Page_10_1_">
</g>
<g id="Page_11_1_">
</g>
<g id="Page_12_1_">
</g>
<g id="Page_13_1_">
</g>
<g id="Page_14_1_">
</g>
<g id="Page_15_1_">
</g>
<g id="Page_16_1_">
</g>
<g id="Page_17_1_">
</g>
<g id="Page_18_1_">
</g>
<g id="Page_19_1_">
</g>
<g id="Page_20_1_">
</g>
<g id="Page_21_1_">
</g>
<g id="Page_22_1_">
</g>
<g id="Page_23_1_">
</g>
<g id="Page_24_1_">
</g>
<g id="Page_25_1_">
</g>
<g id="Page_26_1_">
</g>
<g id="Page_27_1_">
</g>
<g id="Page_28_1_">
</g>
<g id="Page_29_1_">
</g>
<g id="Page_30_1_">
</g>
<g id="Page_31_1_">
</g>
<g id="Page_32_1_">
</g>
<g id="Page_33_1_">
</g>
<g id="Page_34_1_">
</g>
<g id="Page_35_1_">
</g>
<g id="Page_36_1_">
</g>
<g id="Page_37_1_">
	<g id="Page_37">
		<g enable-background="new    ">
			<g>
				<defs>
					<rect id="SVGID_81_" y="-0.035" width="1210" height="1178"/>
				</defs>
				<clipPath id="SVGID_2_">
					<use xlink:href="#SVGID_81_"  overflow="visible"/>
				</clipPath>
				
					<rect y="0.065" clip-path="url(#SVGID_2_)" fill-rule="evenodd" clip-rule="evenodd" fill="#FFFFFF" width="1210" height="1177.999"/>
				<path clip-path="url(#SVGID_2_)" fill="none" stroke="#2A77BC" stroke-width="1.8112" stroke-miterlimit="7.6613" d="
					M607.2,748.965l8.7,4.4c0,0-4.301,4.6,3.899,9.4c8.2,4.699,16.8,9.9,22,12.5s9.9,0,9.9,0l53.1,27.6c0,0-2.6,5.6,6,10.801
					c8.7,5.199,17.8,9.5,23.4,12.1c5.6,2.6,4.3-5.201,9.899-3.5l8.4,5.6c-3,6.699-78.8,153.801-80.9,157.6
					c-2.199,3.9-7.399,1.801-10,0c-2.5-1.699,4.801-6.1-3.8-11c-8.7-5-19-9.699-23.8-12.699c-4.7-3.1-7.3-4.301-10.3,0l-55.3-30.701
					c0,0,3.5-5.299,0-7.398c-3.5-2.102-27.2-13.301-29.801-15c-2.6-1.701-7.399,1.699-7.399,1.699l-7.3-2.6L607.2,748.965z"/>
				<polygon clip-path="url(#SVGID_2_)" fill="none" stroke="#1A77BC" stroke-width="3.2828" stroke-miterlimit="7.6613" points="
					603.8,742.465 759.2,826.166 671.6,995.166 515.7,906.965 				"/>
				
					<line clip-path="url(#SVGID_2_)" fill="none" stroke="#2A77BC" stroke-width="1.8112" stroke-miterlimit="7.6613" x1="587.3" y1="787.865" x2="733.1" y2="867.666"/>
				
					<line clip-path="url(#SVGID_2_)" fill="none" stroke="#2A77BC" stroke-width="1.8112" stroke-miterlimit="7.6613" x1="568.4" y1="827.766" x2="707" y2="904.365"/>
				
					<line clip-path="url(#SVGID_2_)" fill="none" stroke="#2A77BC" stroke-width="1.8112" stroke-miterlimit="7.6613" x1="548.5" y1="867.666" x2="685.4" y2="944.465"/>
				<path clip-path="url(#SVGID_2_)" fill="none" stroke="#2A77BC" stroke-width="1.8112" stroke-miterlimit="7.6613" d="
					M737.6,831.166c0,0-17.6,22-9.399,24.699c10.2,3.5,21.7-32.4,4-24.699c-10.2,4.6-12.9,15.398-10.8,18.5
					c1.3,1.799,5.6-1.4,7.5-7.5c3.899-12.9-2.101-16.301-7.5-12.4c-5.4,3.9-9.9,13.699-8.301,14.6
					c1.601,0.801,9.301-9.4,4.301-18.199c-4.9-8.701-13.801,10.299-12.4,12.398c1.4,2.201,11.1-9.799,6.7-13.5
					c-4-3.299-8.8,12.301-8.8,12.301"/>
				<path clip-path="url(#SVGID_2_)" fill="none" stroke="#2A77BC" stroke-width="1.8112" stroke-miterlimit="7.6613" d="
					M697.2,909.465c0,0-17.7,22-9.5,24.701c10.2,3.5,21.7-32.5,4-24.701c-10.2,4.5-12.9,15.4-10.7,18.5c1.2,1.801,5.5-1.4,7.4-7.5
					c4-12.9-2-16.299-7.4-12.4c-5.4,3.801-10,13.701-8.4,14.602c1.7,0.799,9.301-9.4,4.4-18.201c-5-8.699-13.9,10.301-12.5,12.4
					c1.4,2.199,11.2-9.801,6.7-13.5c-4-3.4-8.8,12.199-8.8,12.199"/>
				<path clip-path="url(#SVGID_2_)" fill="none" stroke="#2A77BC" stroke-width="1.8112" stroke-miterlimit="7.6613" d="
					M717.7,876.166c1.6,0.799,1.2,4.699-0.9,8.6c-2.1,3.799-5.1,6.299-6.7,5.4c-1.6-0.801-1.199-4.602,0.9-8.602
					C713.1,877.766,716.1,875.266,717.7,876.166z"/>
				<path clip-path="url(#SVGID_2_)" fill="none" stroke="#2A77BC" stroke-width="1.8112" stroke-miterlimit="7.6613" d="
					M716.2,878.965c0.899,0.5,0.7,2.801-0.601,5.201c-1.199,2.299-3,3.699-4,3.199c-0.899-0.5-0.6-2.699,0.601-5.1
					C713.4,879.965,715.2,878.465,716.2,878.965z"/>
				<path clip-path="url(#SVGID_2_)" fill="none" stroke="#2A77BC" stroke-width="1.8112" stroke-miterlimit="7.6613" d="
					M677.1,955.365c1.5,0.9,1.101,4.699-1,8.6c-2.1,3.9-5.1,6.301-6.6,5.5c-1.6-0.9-1.2-4.699,0.9-8.6
					C672.5,956.965,675.5,954.564,677.1,955.365z"/>
				<path clip-path="url(#SVGID_2_)" fill="none" stroke="#2A77BC" stroke-width="1.8112" stroke-miterlimit="7.6613" d="
					M675.5,958.266c1,0.5,0.7,2.799-0.5,5.1c-1.3,2.301-3,3.801-4,3.301c-0.9-0.602-0.7-2.801,0.6-5.102
					C672.8,959.166,674.6,957.766,675.5,958.266z"/>
				<path clip-path="url(#SVGID_2_)" fill="none" stroke="#2A77BC" stroke-width="1.8112" stroke-miterlimit="7.6613" d="
					M585.1,799.865c0,0-5.6,11.6-6.699,15.5c-1,3.9,0.8,5.699,4.899,0.9c4.2-4.801,12.4-17.701,10.3-11.801
					c-2.199,5.9-9,23.9-4.5,18.9c4.5-5.1,12.801-16.6,11.4-11.301c-1.5,5.201-4.6,15.301-3,13.602c1.5-1.801,5.9-11,5.9-11"/>
				<path clip-path="url(#SVGID_2_)" fill="none" stroke="#2A77BC" stroke-width="1.8112" stroke-miterlimit="7.6613" d="
					M542.9,882.365c0,0-5.601,11.6-6.7,15.5c-1,3.9,0.8,5.699,4.899,0.9c4.2-4.801,12.4-17.701,10.301-11.801
					c-2.2,5.9-8.9,23.9-4.5,18.9c4.5-5.1,12.8-16.6,11.399-11.4c-1.5,5.301-4.6,15.4-3,13.701c1.5-1.801,5.9-11,5.9-11"/>
				<path clip-path="url(#SVGID_2_)" fill="none" stroke="#2C77BC" stroke-width="3.3111" stroke-miterlimit="7.6613" d="
					M579.6,787.865c0,0-61.1-24.699-35.6-92.9c25.5-68.199-187.4-96.5-77.9,54.4"/>
				<path clip-path="url(#SVGID_2_)" fill="none" stroke="#2C77BC" stroke-width="3.3111" stroke-miterlimit="7.6613" d="
					M583.3,780.865c0,0-57.2-24.6-40.8-67.699c16.4-43.201-15-103-73.9-73.9c-71.5,35.299-6.6,113.799-6.6,113.799"/>
				<polygon clip-path="url(#SVGID_2_)" fill="none" stroke="#2A77BC" stroke-width="1.8112" stroke-miterlimit="7.6613" points="
					455.8,759.365 472.2,742.766 474.5,745.365 473.6,747.666 486.9,761.564 473.7,774.564 461.1,760.564 458.7,762.465 				"/>
				<polygon clip-path="url(#SVGID_2_)" fill="none" stroke="#2A77BC" stroke-width="1.8112" stroke-miterlimit="7.6613" points="
					460.4,754.666 470.6,765.064 474.7,766.266 462,753.064 				"/>
				<polygon clip-path="url(#SVGID_2_)" fill="none" stroke="#2A77BC" stroke-width="1.8112" stroke-miterlimit="7.6613" points="
					467.7,747.766 477.6,758.365 478.7,762.365 466,749.266 				"/>
				<path clip-path="url(#SVGID_2_)" fill="none" stroke="#1A77BC" stroke-width="4.3016" stroke-miterlimit="7.6613" d="
					M249.8,287.565H99.2c-18.7,0-33.9-15.2-33.9-33.899V122.965c0-18.6,15.2-33.899,33.9-33.899h150.6c18.7,0,33.9,15.3,33.9,33.899
					v130.701C283.7,272.365,268.5,287.565,249.8,287.565z"/>
				<polygon clip-path="url(#SVGID_2_)" fill="none" stroke="#2C77BC" stroke-width="2.1791" stroke-miterlimit="7.6613" points="
					144.2,190.166 144.2,182.865 229.1,183.465 229.1,190.166 240,190.166 240,246.065 229.6,246.065 229.6,253.166 144.2,253.166 
					144.2,247.065 133.3,247.065 133.3,190.166 				"/>
				<path clip-path="url(#SVGID_2_)" fill-rule="evenodd" clip-rule="evenodd" fill="#2C77BC" d="M144.4,200.365
					c0,1-0.8,1.7-1.7,1.7c-0.9,0-1.6-0.7-1.6-1.7c0-0.9,0.7-1.6,1.6-1.6C143.6,198.766,144.4,199.465,144.4,200.365z"/>
				<path clip-path="url(#SVGID_2_)" fill-rule="evenodd" clip-rule="evenodd" fill="#2C77BC" d="M153.2,200.365
					c0,1-0.7,1.7-1.6,1.7s-1.7-0.7-1.7-1.7c0-0.9,0.8-1.6,1.7-1.6S153.2,199.465,153.2,200.365z"/>
				<path clip-path="url(#SVGID_2_)" fill-rule="evenodd" clip-rule="evenodd" fill="#2C77BC" d="M162.1,200.365
					c0,1-0.8,1.7-1.7,1.7s-1.6-0.7-1.6-1.7c0-0.9,0.7-1.6,1.6-1.6S162.1,199.465,162.1,200.365z"/>
				<path clip-path="url(#SVGID_2_)" fill-rule="evenodd" clip-rule="evenodd" fill="#2C77BC" d="M170.9,200.365
					c0,1-0.7,1.7-1.6,1.7c-0.9,0-1.7-0.7-1.7-1.7c0-0.9,0.8-1.6,1.7-1.6C170.2,198.766,170.9,199.465,170.9,200.365z"/>
				<path clip-path="url(#SVGID_2_)" fill-rule="evenodd" clip-rule="evenodd" fill="#2C77BC" d="M179.8,200.365
					c0,1-0.7,1.7-1.6,1.7c-1,0-1.7-0.7-1.7-1.7c0-0.9,0.7-1.6,1.7-1.6C179.1,198.766,179.8,199.465,179.8,200.365z"/>
				<path clip-path="url(#SVGID_2_)" fill-rule="evenodd" clip-rule="evenodd" fill="#2C77BC" d="M188.6,200.365
					c0,1-0.7,1.7-1.6,1.7s-1.7-0.7-1.7-1.7c0-0.9,0.8-1.6,1.7-1.6S188.6,199.465,188.6,200.365z"/>
				<path clip-path="url(#SVGID_2_)" fill-rule="evenodd" clip-rule="evenodd" fill="#2C77BC" d="M197.5,200.365
					c0,1-0.8,1.7-1.7,1.7c-0.9,0-1.6-0.7-1.6-1.7c0-0.9,0.7-1.6,1.6-1.6C196.7,198.766,197.5,199.465,197.5,200.365z"/>
				<path clip-path="url(#SVGID_2_)" fill-rule="evenodd" clip-rule="evenodd" fill="#2C77BC" d="M206.4,200.365
					c0,1-0.8,1.7-1.7,1.7c-0.9,0-1.7-0.7-1.7-1.7c0-0.9,0.8-1.6,1.7-1.6C205.6,198.766,206.4,199.465,206.4,200.365z"/>
				<path clip-path="url(#SVGID_2_)" fill-rule="evenodd" clip-rule="evenodd" fill="#2C77BC" d="M215.2,200.365
					c0,1-0.7,1.7-1.6,1.7c-1,0-1.7-0.7-1.7-1.7c0-0.9,0.7-1.6,1.7-1.6C214.5,198.766,215.2,199.465,215.2,200.365z"/>
				<path clip-path="url(#SVGID_2_)" fill-rule="evenodd" clip-rule="evenodd" fill="#2C77BC" d="M224.1,200.365
					c0,1-0.8,1.7-1.7,1.7s-1.6-0.7-1.6-1.7c0-0.9,0.7-1.6,1.6-1.6S224.1,199.465,224.1,200.365z"/>
				<path clip-path="url(#SVGID_2_)" fill-rule="evenodd" clip-rule="evenodd" fill="#2C77BC" d="M232.9,200.365
					c0,1-0.7,1.7-1.6,1.7c-0.9,0-1.7-0.7-1.7-1.7c0-0.9,0.8-1.6,1.7-1.6C232.2,198.766,232.9,199.465,232.9,200.365z"/>
				<path clip-path="url(#SVGID_2_)" fill-rule="evenodd" clip-rule="evenodd" fill="#2C77BC" d="M144.4,209.365
					c0,0.9-0.8,1.7-1.7,1.7c-0.9,0-1.6-0.8-1.6-1.7s0.7-1.699,1.6-1.699C143.6,207.666,144.4,208.465,144.4,209.365z"/>
				<path clip-path="url(#SVGID_2_)" fill-rule="evenodd" clip-rule="evenodd" fill="#2C77BC" d="M153.2,209.365
					c0,0.9-0.7,1.7-1.6,1.7s-1.7-0.8-1.7-1.7s0.8-1.699,1.7-1.699S153.2,208.465,153.2,209.365z"/>
				<path clip-path="url(#SVGID_2_)" fill-rule="evenodd" clip-rule="evenodd" fill="#2C77BC" d="M162.1,209.365
					c0,0.9-0.8,1.7-1.7,1.7s-1.6-0.8-1.6-1.7s0.7-1.699,1.6-1.699S162.1,208.465,162.1,209.365z"/>
				<path clip-path="url(#SVGID_2_)" fill-rule="evenodd" clip-rule="evenodd" fill="#2C77BC" d="M170.9,209.365
					c0,0.9-0.7,1.7-1.6,1.7c-0.9,0-1.7-0.8-1.7-1.7s0.8-1.699,1.7-1.699C170.2,207.666,170.9,208.465,170.9,209.365z"/>
				<path clip-path="url(#SVGID_2_)" fill-rule="evenodd" clip-rule="evenodd" fill="#2C77BC" d="M179.8,209.365
					c0,0.9-0.7,1.7-1.6,1.7c-1,0-1.7-0.8-1.7-1.7s0.7-1.699,1.7-1.699C179.1,207.666,179.8,208.465,179.8,209.365z"/>
				<path clip-path="url(#SVGID_2_)" fill-rule="evenodd" clip-rule="evenodd" fill="#2C77BC" d="M188.6,209.365
					c0,0.9-0.7,1.7-1.6,1.7s-1.7-0.8-1.7-1.7s0.8-1.699,1.7-1.699S188.6,208.465,188.6,209.365z"/>
				<path clip-path="url(#SVGID_2_)" fill-rule="evenodd" clip-rule="evenodd" fill="#2C77BC" d="M197.5,209.365
					c0,0.9-0.8,1.7-1.7,1.7c-0.9,0-1.6-0.8-1.6-1.7s0.7-1.699,1.6-1.699C196.7,207.666,197.5,208.465,197.5,209.365z"/>
				<path clip-path="url(#SVGID_2_)" fill-rule="evenodd" clip-rule="evenodd" fill="#2C77BC" d="M206.4,209.365
					c0,0.9-0.8,1.7-1.7,1.7c-0.9,0-1.7-0.8-1.7-1.7s0.8-1.699,1.7-1.699C205.6,207.666,206.4,208.465,206.4,209.365z"/>
				<path clip-path="url(#SVGID_2_)" fill-rule="evenodd" clip-rule="evenodd" fill="#2C77BC" d="M215.2,209.365
					c0,0.9-0.7,1.7-1.6,1.7c-1,0-1.7-0.8-1.7-1.7s0.7-1.699,1.7-1.699C214.5,207.666,215.2,208.465,215.2,209.365z"/>
				<path clip-path="url(#SVGID_2_)" fill-rule="evenodd" clip-rule="evenodd" fill="#2C77BC" d="M224.1,209.365
					c0,0.9-0.8,1.7-1.7,1.7s-1.6-0.8-1.6-1.7s0.7-1.699,1.6-1.699S224.1,208.465,224.1,209.365z"/>
				<path clip-path="url(#SVGID_2_)" fill-rule="evenodd" clip-rule="evenodd" fill="#2C77BC" d="M232.9,209.365
					c0,0.9-0.7,1.7-1.6,1.7c-0.9,0-1.7-0.8-1.7-1.7s0.8-1.699,1.7-1.699C232.2,207.666,232.9,208.465,232.9,209.365z"/>
				<path clip-path="url(#SVGID_2_)" fill-rule="evenodd" clip-rule="evenodd" fill="#2C77BC" d="M144.4,218.365
					c0,0.9-0.8,1.6-1.7,1.6c-0.9,0-1.6-0.699-1.6-1.6s0.7-1.699,1.6-1.699C143.6,216.666,144.4,217.465,144.4,218.365z"/>
				<path clip-path="url(#SVGID_2_)" fill-rule="evenodd" clip-rule="evenodd" fill="#2C77BC" d="M153.2,218.365
					c0,0.9-0.7,1.6-1.6,1.6s-1.7-0.699-1.7-1.6s0.8-1.699,1.7-1.699S153.2,217.465,153.2,218.365z"/>
				<path clip-path="url(#SVGID_2_)" fill-rule="evenodd" clip-rule="evenodd" fill="#2C77BC" d="M162.1,218.365
					c0,0.9-0.8,1.6-1.7,1.6s-1.6-0.699-1.6-1.6s0.7-1.699,1.6-1.699S162.1,217.465,162.1,218.365z"/>
				<path clip-path="url(#SVGID_2_)" fill-rule="evenodd" clip-rule="evenodd" fill="#2C77BC" d="M170.9,218.365
					c0,0.9-0.7,1.6-1.6,1.6c-0.9,0-1.7-0.699-1.7-1.6s0.8-1.699,1.7-1.699C170.2,216.666,170.9,217.465,170.9,218.365z"/>
				<path clip-path="url(#SVGID_2_)" fill-rule="evenodd" clip-rule="evenodd" fill="#2C77BC" d="M179.8,218.365
					c0,0.9-0.7,1.6-1.6,1.6c-1,0-1.7-0.699-1.7-1.6s0.7-1.699,1.7-1.699C179.1,216.666,179.8,217.465,179.8,218.365z"/>
				<path clip-path="url(#SVGID_2_)" fill-rule="evenodd" clip-rule="evenodd" fill="#2C77BC" d="M188.6,218.365
					c0,0.9-0.7,1.6-1.6,1.6s-1.7-0.699-1.7-1.6s0.8-1.699,1.7-1.699S188.6,217.465,188.6,218.365z"/>
				<path clip-path="url(#SVGID_2_)" fill-rule="evenodd" clip-rule="evenodd" fill="#2C77BC" d="M197.5,218.365
					c0,0.9-0.8,1.6-1.7,1.6c-0.9,0-1.6-0.699-1.6-1.6s0.7-1.699,1.6-1.699C196.7,216.666,197.5,217.465,197.5,218.365z"/>
				<path clip-path="url(#SVGID_2_)" fill-rule="evenodd" clip-rule="evenodd" fill="#2C77BC" d="M206.4,218.365
					c0,0.9-0.8,1.6-1.7,1.6c-0.9,0-1.7-0.699-1.7-1.6s0.8-1.699,1.7-1.699C205.6,216.666,206.4,217.465,206.4,218.365z"/>
				<path clip-path="url(#SVGID_2_)" fill-rule="evenodd" clip-rule="evenodd" fill="#2C77BC" d="M215.2,218.365
					c0,0.9-0.7,1.6-1.6,1.6c-1,0-1.7-0.699-1.7-1.6s0.7-1.699,1.7-1.699C214.5,216.666,215.2,217.465,215.2,218.365z"/>
				<path clip-path="url(#SVGID_2_)" fill-rule="evenodd" clip-rule="evenodd" fill="#2C77BC" d="M224.1,218.365
					c0,0.9-0.8,1.6-1.7,1.6s-1.6-0.699-1.6-1.6s0.7-1.699,1.6-1.699S224.1,217.465,224.1,218.365z"/>
				<path clip-path="url(#SVGID_2_)" fill-rule="evenodd" clip-rule="evenodd" fill="#2C77BC" d="M232.9,218.365
					c0,0.9-0.7,1.6-1.6,1.6c-0.9,0-1.7-0.699-1.7-1.6s0.8-1.699,1.7-1.699C232.2,216.666,232.9,217.465,232.9,218.365z"/>
				<path clip-path="url(#SVGID_2_)" fill-rule="evenodd" clip-rule="evenodd" fill="#2C77BC" d="M144.4,227.266
					c0,0.9-0.8,1.699-1.7,1.699c-0.9,0-1.6-0.799-1.6-1.699s0.7-1.6,1.6-1.6C143.6,225.666,144.4,226.365,144.4,227.266z"/>
				<path clip-path="url(#SVGID_2_)" fill-rule="evenodd" clip-rule="evenodd" fill="#2C77BC" d="M153.2,227.266
					c0,0.9-0.7,1.699-1.6,1.699s-1.7-0.799-1.7-1.699s0.8-1.6,1.7-1.6S153.2,226.365,153.2,227.266z"/>
				<path clip-path="url(#SVGID_2_)" fill-rule="evenodd" clip-rule="evenodd" fill="#2C77BC" d="M162.1,227.266
					c0,0.9-0.8,1.699-1.7,1.699s-1.6-0.799-1.6-1.699s0.7-1.6,1.6-1.6S162.1,226.365,162.1,227.266z"/>
				<path clip-path="url(#SVGID_2_)" fill-rule="evenodd" clip-rule="evenodd" fill="#2C77BC" d="M170.9,227.266
					c0,0.9-0.7,1.699-1.6,1.699c-0.9,0-1.7-0.799-1.7-1.699s0.8-1.6,1.7-1.6C170.2,225.666,170.9,226.365,170.9,227.266z"/>
				<path clip-path="url(#SVGID_2_)" fill-rule="evenodd" clip-rule="evenodd" fill="#2C77BC" d="M179.8,227.266
					c0,0.9-0.7,1.699-1.6,1.699c-1,0-1.7-0.799-1.7-1.699s0.7-1.6,1.7-1.6C179.1,225.666,179.8,226.365,179.8,227.266z"/>
				<path clip-path="url(#SVGID_2_)" fill-rule="evenodd" clip-rule="evenodd" fill="#2C77BC" d="M188.6,227.266
					c0,0.9-0.7,1.699-1.6,1.699s-1.7-0.799-1.7-1.699s0.8-1.6,1.7-1.6S188.6,226.365,188.6,227.266z"/>
				<path clip-path="url(#SVGID_2_)" fill-rule="evenodd" clip-rule="evenodd" fill="#2C77BC" d="M197.5,227.266
					c0,0.9-0.8,1.699-1.7,1.699c-0.9,0-1.6-0.799-1.6-1.699s0.7-1.6,1.6-1.6C196.7,225.666,197.5,226.365,197.5,227.266z"/>
				<path clip-path="url(#SVGID_2_)" fill-rule="evenodd" clip-rule="evenodd" fill="#2C77BC" d="M206.4,227.266
					c0,0.9-0.8,1.699-1.7,1.699c-0.9,0-1.7-0.799-1.7-1.699s0.8-1.6,1.7-1.6C205.6,225.666,206.4,226.365,206.4,227.266z"/>
				<path clip-path="url(#SVGID_2_)" fill-rule="evenodd" clip-rule="evenodd" fill="#2C77BC" d="M215.2,227.266
					c0,0.9-0.7,1.699-1.6,1.699c-1,0-1.7-0.799-1.7-1.699s0.7-1.6,1.7-1.6C214.5,225.666,215.2,226.365,215.2,227.266z"/>
				<path clip-path="url(#SVGID_2_)" fill-rule="evenodd" clip-rule="evenodd" fill="#2C77BC" d="M224.1,227.266
					c0,0.9-0.8,1.699-1.7,1.699s-1.6-0.799-1.6-1.699s0.7-1.6,1.6-1.6S224.1,226.365,224.1,227.266z"/>
				<path clip-path="url(#SVGID_2_)" fill-rule="evenodd" clip-rule="evenodd" fill="#2C77BC" d="M232.9,227.266
					c0,0.9-0.7,1.699-1.6,1.699c-0.9,0-1.7-0.799-1.7-1.699s0.8-1.6,1.7-1.6C232.2,225.666,232.9,226.365,232.9,227.266z"/>
				<path clip-path="url(#SVGID_2_)" fill-rule="evenodd" clip-rule="evenodd" fill="#2C77BC" d="M144.4,236.266
					c0,0.9-0.8,1.6-1.7,1.6c-0.9,0-1.6-0.699-1.6-1.6s0.7-1.7,1.6-1.7C143.6,234.565,144.4,235.365,144.4,236.266z"/>
				<path clip-path="url(#SVGID_2_)" fill-rule="evenodd" clip-rule="evenodd" fill="#2C77BC" d="M153.2,236.266
					c0,0.9-0.7,1.6-1.6,1.6s-1.7-0.699-1.7-1.6s0.8-1.7,1.7-1.7S153.2,235.365,153.2,236.266z"/>
				<path clip-path="url(#SVGID_2_)" fill-rule="evenodd" clip-rule="evenodd" fill="#2C77BC" d="M162.1,236.266
					c0,0.9-0.8,1.6-1.7,1.6s-1.6-0.699-1.6-1.6s0.7-1.7,1.6-1.7S162.1,235.365,162.1,236.266z"/>
				<path clip-path="url(#SVGID_2_)" fill-rule="evenodd" clip-rule="evenodd" fill="#2C77BC" d="M170.9,236.266
					c0,0.9-0.7,1.6-1.6,1.6c-0.9,0-1.7-0.699-1.7-1.6s0.8-1.7,1.7-1.7C170.2,234.565,170.9,235.365,170.9,236.266z"/>
				<path clip-path="url(#SVGID_2_)" fill-rule="evenodd" clip-rule="evenodd" fill="#2C77BC" d="M179.8,236.266
					c0,0.9-0.7,1.6-1.6,1.6c-1,0-1.7-0.699-1.7-1.6s0.7-1.7,1.7-1.7C179.1,234.565,179.8,235.365,179.8,236.266z"/>
				<path clip-path="url(#SVGID_2_)" fill-rule="evenodd" clip-rule="evenodd" fill="#2C77BC" d="M188.6,236.266
					c0,0.9-0.7,1.6-1.6,1.6s-1.7-0.699-1.7-1.6s0.8-1.7,1.7-1.7S188.6,235.365,188.6,236.266z"/>
				<path clip-path="url(#SVGID_2_)" fill-rule="evenodd" clip-rule="evenodd" fill="#2C77BC" d="M197.5,236.266
					c0,0.9-0.8,1.6-1.7,1.6c-0.9,0-1.6-0.699-1.6-1.6s0.7-1.7,1.6-1.7C196.7,234.565,197.5,235.365,197.5,236.266z"/>
				<path clip-path="url(#SVGID_2_)" fill-rule="evenodd" clip-rule="evenodd" fill="#2C77BC" d="M206.4,236.266
					c0,0.9-0.8,1.6-1.7,1.6c-0.9,0-1.7-0.699-1.7-1.6s0.8-1.7,1.7-1.7C205.6,234.565,206.4,235.365,206.4,236.266z"/>
				<path clip-path="url(#SVGID_2_)" fill-rule="evenodd" clip-rule="evenodd" fill="#2C77BC" d="M215.2,236.266
					c0,0.9-0.7,1.6-1.6,1.6c-1,0-1.7-0.699-1.7-1.6s0.7-1.7,1.7-1.7C214.5,234.565,215.2,235.365,215.2,236.266z"/>
				<path clip-path="url(#SVGID_2_)" fill-rule="evenodd" clip-rule="evenodd" fill="#2C77BC" d="M224.1,236.266
					c0,0.9-0.8,1.6-1.7,1.6s-1.6-0.699-1.6-1.6s0.7-1.7,1.6-1.7S224.1,235.365,224.1,236.266z"/>
				<path clip-path="url(#SVGID_2_)" fill-rule="evenodd" clip-rule="evenodd" fill="#2C77BC" d="M232.9,236.266
					c0,0.9-0.7,1.6-1.6,1.6c-0.9,0-1.7-0.699-1.7-1.6s0.8-1.7,1.7-1.7C232.2,234.565,232.9,235.365,232.9,236.266z"/>
				
					<rect x="81.8" y="121.565" clip-path="url(#SVGID_2_)" fill="none" stroke="#2C77BC" stroke-width="2.1791" stroke-miterlimit="7.6613" width="7.2" height="106.7"/>
				
					<rect x="81.8" y="104.465" clip-path="url(#SVGID_2_)" fill="none" stroke="#2C77BC" stroke-width="2.1791" stroke-miterlimit="7.6613" width="62.8" height="7.201"/>
				
					<rect x="75.1" y="258.065" clip-path="url(#SVGID_2_)" fill="none" stroke="#2C77BC" stroke-width="2.1791" stroke-miterlimit="7.6613" width="35.5" height="7.101"/>
				
					<rect x="160.9" y="104.465" clip-path="url(#SVGID_2_)" fill="none" stroke="#2C77BC" stroke-width="2.1791" stroke-miterlimit="7.6613" width="70.9" height="7.201"/>
				
					<rect x="162.1" y="160.666" clip-path="url(#SVGID_2_)" fill="none" stroke="#2C77BC" stroke-width="2.1791" stroke-miterlimit="7.6613" width="16.1" height="16.1"/>
				
					<rect x="208" y="144.965" clip-path="url(#SVGID_2_)" fill="none" stroke="#2C77BC" stroke-width="2.1791" stroke-miterlimit="7.6613" width="16.1" height="8"/>
				
					<rect x="231.3" y="127.065" clip-path="url(#SVGID_2_)" fill="none" stroke="#2C77BC" stroke-width="2.1791" stroke-miterlimit="7.6613" width="16.1" height="8"/>
				
					<rect x="231.3" y="162.766" clip-path="url(#SVGID_2_)" fill="none" stroke="#2C77BC" stroke-width="2.1791" stroke-miterlimit="7.6613" width="16.1" height="8.1"/>
				
					<rect x="117" y="259.065" clip-path="url(#SVGID_2_)" fill="none" stroke="#2C77BC" stroke-width="2.1791" stroke-miterlimit="7.6613" width="48.5" height="18.601"/>
				
					<rect x="181" y="259.065" clip-path="url(#SVGID_2_)" fill="none" stroke="#2C77BC" stroke-width="2.1791" stroke-miterlimit="7.6613" width="48.5" height="18.601"/>
				
					<rect x="253.5" y="144.965" clip-path="url(#SVGID_2_)" fill="none" stroke="#2C77BC" stroke-width="2.1791" stroke-miterlimit="7.6613" width="16.1" height="8"/>
				
					<rect x="123.7" y="269.365" clip-path="url(#SVGID_2_)" fill-rule="evenodd" clip-rule="evenodd" fill="#2C77BC" width="2.2" height="2.1"/>
				
					<rect x="131.9" y="269.365" clip-path="url(#SVGID_2_)" fill-rule="evenodd" clip-rule="evenodd" fill="#2C77BC" width="2.2" height="2.1"/>
				
					<rect x="140.1" y="269.365" clip-path="url(#SVGID_2_)" fill-rule="evenodd" clip-rule="evenodd" fill="#2C77BC" width="2.1" height="2.1"/>
				
					<rect x="148.3" y="269.365" clip-path="url(#SVGID_2_)" fill-rule="evenodd" clip-rule="evenodd" fill="#2C77BC" width="2.1" height="2.1"/>
				
					<rect x="156.4" y="269.365" clip-path="url(#SVGID_2_)" fill-rule="evenodd" clip-rule="evenodd" fill="#2C77BC" width="2.2" height="2.1"/>
				
					<rect x="187.6" y="269.365" clip-path="url(#SVGID_2_)" fill-rule="evenodd" clip-rule="evenodd" fill="#2C77BC" width="2.2" height="2.1"/>
				
					<rect x="195.8" y="269.365" clip-path="url(#SVGID_2_)" fill-rule="evenodd" clip-rule="evenodd" fill="#2C77BC" width="2.2" height="2.1"/>
				
					<rect x="204" y="269.365" clip-path="url(#SVGID_2_)" fill-rule="evenodd" clip-rule="evenodd" fill="#2C77BC" width="2.1" height="2.1"/>
				
					<rect x="212.2" y="269.365" clip-path="url(#SVGID_2_)" fill-rule="evenodd" clip-rule="evenodd" fill="#2C77BC" width="2.1" height="2.1"/>
				
					<rect x="220.3" y="269.365" clip-path="url(#SVGID_2_)" fill-rule="evenodd" clip-rule="evenodd" fill="#2C77BC" width="2.2" height="2.1"/>
				
					<line clip-path="url(#SVGID_2_)" fill="none" stroke="#2C77BC" stroke-width="2.1791" stroke-miterlimit="7.6613" x1="83.9" y1="258.065" x2="83.9" y2="265.166"/>
				
					<line clip-path="url(#SVGID_2_)" fill="none" stroke="#2C77BC" stroke-width="2.1791" stroke-miterlimit="7.6613" x1="92.8" y1="258.065" x2="92.8" y2="265.166"/>
				
					<line clip-path="url(#SVGID_2_)" fill="none" stroke="#2C77BC" stroke-width="2.1791" stroke-miterlimit="7.6613" x1="101.7" y1="258.065" x2="101.7" y2="265.166"/>
				
					<rect x="77.6" y="239.465" clip-path="url(#SVGID_2_)" fill="none" stroke="#2C77BC" stroke-width="2.1791" stroke-miterlimit="7.6613" width="17.8" height="7.101"/>
				
					<line clip-path="url(#SVGID_2_)" fill="none" stroke="#2C77BC" stroke-width="2.1791" stroke-miterlimit="7.6613" x1="86.5" y1="239.465" x2="86.5" y2="246.565"/>
				
					<line clip-path="url(#SVGID_2_)" fill="none" stroke="#2C77BC" stroke-width="2.1791" stroke-miterlimit="7.6613" x1="89" y1="219.365" x2="81.8" y2="219.365"/>
				
					<line clip-path="url(#SVGID_2_)" fill="none" stroke="#2C77BC" stroke-width="2.1791" stroke-miterlimit="7.6613" x1="89" y1="210.266" x2="81.8" y2="210.266"/>
				
					<line clip-path="url(#SVGID_2_)" fill="none" stroke="#2C77BC" stroke-width="2.1791" stroke-miterlimit="7.6613" x1="89" y1="201.365" x2="81.8" y2="201.365"/>
				
					<line clip-path="url(#SVGID_2_)" fill="none" stroke="#2C77BC" stroke-width="2.1791" stroke-miterlimit="7.6613" x1="89" y1="192.565" x2="81.8" y2="192.565"/>
				
					<line clip-path="url(#SVGID_2_)" fill="none" stroke="#2C77BC" stroke-width="2.1791" stroke-miterlimit="7.6613" x1="89" y1="183.666" x2="81.8" y2="183.666"/>
				
					<line clip-path="url(#SVGID_2_)" fill="none" stroke="#2C77BC" stroke-width="2.1791" stroke-miterlimit="7.6613" x1="89" y1="174.766" x2="81.8" y2="174.766"/>
				
					<line clip-path="url(#SVGID_2_)" fill="none" stroke="#2C77BC" stroke-width="2.1791" stroke-miterlimit="7.6613" x1="89" y1="165.965" x2="81.8" y2="165.965"/>
				
					<line clip-path="url(#SVGID_2_)" fill="none" stroke="#2C77BC" stroke-width="2.1791" stroke-miterlimit="7.6613" x1="89" y1="157.065" x2="81.8" y2="157.065"/>
				
					<line clip-path="url(#SVGID_2_)" fill="none" stroke="#2C77BC" stroke-width="2.1791" stroke-miterlimit="7.6613" x1="89" y1="148.166" x2="81.8" y2="148.166"/>
				
					<line clip-path="url(#SVGID_2_)" fill="none" stroke="#2C77BC" stroke-width="2.1791" stroke-miterlimit="7.6613" x1="89" y1="139.365" x2="81.8" y2="139.365"/>
				
					<line clip-path="url(#SVGID_2_)" fill="none" stroke="#2C77BC" stroke-width="2.1791" stroke-miterlimit="7.6613" x1="89" y1="130.465" x2="81.8" y2="130.465"/>
				
					<line clip-path="url(#SVGID_2_)" fill="none" stroke="#2C77BC" stroke-width="2.1791" stroke-miterlimit="7.6613" x1="169.8" y1="111.565" x2="169.8" y2="104.465"/>
				
					<line clip-path="url(#SVGID_2_)" fill="none" stroke="#2C77BC" stroke-width="2.1791" stroke-miterlimit="7.6613" x1="135.4" y1="111.565" x2="135.4" y2="104.465"/>
				
					<line clip-path="url(#SVGID_2_)" fill="none" stroke="#2C77BC" stroke-width="2.1791" stroke-miterlimit="7.6613" x1="126.1" y1="111.565" x2="126.1" y2="104.465"/>
				
					<line clip-path="url(#SVGID_2_)" fill="none" stroke="#2C77BC" stroke-width="2.1791" stroke-miterlimit="7.6613" x1="117.3" y1="111.565" x2="117.3" y2="104.465"/>
				
					<line clip-path="url(#SVGID_2_)" fill="none" stroke="#2C77BC" stroke-width="2.1791" stroke-miterlimit="7.6613" x1="108.4" y1="111.565" x2="108.4" y2="104.465"/>
				
					<line clip-path="url(#SVGID_2_)" fill="none" stroke="#2C77BC" stroke-width="2.1791" stroke-miterlimit="7.6613" x1="99.6" y1="111.565" x2="99.6" y2="104.465"/>
				
					<line clip-path="url(#SVGID_2_)" fill="none" stroke="#2C77BC" stroke-width="2.1791" stroke-miterlimit="7.6613" x1="90.7" y1="111.565" x2="90.7" y2="104.465"/>
				
					<line clip-path="url(#SVGID_2_)" fill="none" stroke="#2C77BC" stroke-width="2.1791" stroke-miterlimit="7.6613" x1="178.6" y1="111.565" x2="178.6" y2="104.465"/>
				
					<line clip-path="url(#SVGID_2_)" fill="none" stroke="#2C77BC" stroke-width="2.1791" stroke-miterlimit="7.6613" x1="187.5" y1="111.565" x2="187.5" y2="104.465"/>
				
					<line clip-path="url(#SVGID_2_)" fill="none" stroke="#2C77BC" stroke-width="2.1791" stroke-miterlimit="7.6613" x1="196.4" y1="111.565" x2="196.4" y2="104.465"/>
				
					<line clip-path="url(#SVGID_2_)" fill="none" stroke="#2C77BC" stroke-width="2.1791" stroke-miterlimit="7.6613" x1="205.2" y1="111.565" x2="205.2" y2="104.465"/>
				
					<line clip-path="url(#SVGID_2_)" fill="none" stroke="#2C77BC" stroke-width="2.1791" stroke-miterlimit="7.6613" x1="214.1" y1="111.565" x2="214.1" y2="104.465"/>
				
					<line clip-path="url(#SVGID_2_)" fill="none" stroke="#2C77BC" stroke-width="2.1791" stroke-miterlimit="7.6613" x1="223" y1="111.565" x2="223" y2="104.465"/>
				
					<rect x="266.9" y="210.965" clip-path="url(#SVGID_2_)" fill="none" stroke="#2C77BC" stroke-width="2.1791" stroke-miterlimit="7.6613" width="8.9" height="20.9"/>
				
					<rect x="275.7" y="226.266" clip-path="url(#SVGID_2_)" fill-rule="evenodd" clip-rule="evenodd" fill="#2C77BC" width="3.8" height="3.8"/>
				<path clip-path="url(#SVGID_2_)" fill="none" stroke="#2C77BC" stroke-width="2.1791" stroke-miterlimit="7.6613" d="
					M144.9,140.965h-5.1c-2.4,0-4.4-1.899-4.4-4.399v-5.101c0-2.5,2-4.399,4.4-4.399h5.1c2.5,0,4.4,1.899,4.4,4.399v5.101
					C149.3,139.065,147.4,140.965,144.9,140.965z"/>
				<path clip-path="url(#SVGID_2_)" fill="#2C77BC" d="M277.585,236.837c0,1.171-0.252,2.075-0.758,2.712
					c-0.505,0.636-1.222,0.953-2.15,0.953c-0.931,0-1.649-0.317-2.155-0.953c-0.505-0.637-0.758-1.541-0.758-2.712
					c0-1.175,0.252-2.08,0.758-2.716c0.505-0.637,1.224-0.955,2.155-0.955c0.929,0,1.646,0.318,2.15,0.955
					C277.333,234.757,277.585,235.662,277.585,236.837z M275.762,236.822c0-0.884-0.083-1.506-0.249-1.868
					c-0.166-0.361-0.444-0.542-0.836-0.542c-0.391,0-0.671,0.181-0.838,0.542c-0.167,0.362-0.251,0.984-0.251,1.868
					c0,0.895,0.083,1.523,0.251,1.891c0.167,0.365,0.447,0.549,0.838,0.549c0.389,0,0.667-0.184,0.834-0.549
					C275.678,238.346,275.762,237.717,275.762,236.822z"/>
				<polygon clip-path="url(#SVGID_2_)" fill="none" stroke="#1A77BC" stroke-width="3.2828" stroke-miterlimit="7.6613" points="
					980.9,503.465 980.9,499.065 999.9,499.065 999.9,488.965 980.9,488.965 980.9,474.365 884.8,474.365 788.6,474.365 
					788.6,488.965 769.6,488.965 769.6,499.065 788.6,499.065 788.6,503.465 826.5,503.465 826.5,579.266 788.6,579.266 
					788.6,585.065 769.6,585.065 769.6,593.865 788.6,593.865 788.6,606.965 884.8,606.965 980.9,606.965 980.9,593.865 
					999.9,593.865 999.9,585.065 980.9,585.065 980.9,579.266 943.1,579.266 943.1,503.465 				"/>
				<path clip-path="url(#SVGID_2_)" fill="none" stroke="#1A77BC" stroke-width="2.1791" stroke-miterlimit="7.6613" d="
					M902.3,542.065c0,9.3-7.5,16.8-16.8,16.8s-16.8-7.5-16.8-16.8c0-9.2,7.5-16.7,16.8-16.7S902.3,532.865,902.3,542.065z"/>
				<path clip-path="url(#SVGID_2_)" fill="none" stroke="#2C77BC" stroke-width="3.3111" stroke-miterlimit="7.6613" d="
					M443.7,475.465c0,0,42.2-16,58.3-49.6c16-33.5,77.2-4.4,90.3,19c13.2,23.301,7,62-55.399,55.301
					c-40.801-4.301-55.301-4.301-67,4.399"/>
				<path clip-path="url(#SVGID_2_)" fill="none" stroke="#2C77BC" stroke-width="3.3111" stroke-miterlimit="7.6613" d="
					M449.5,484.166c0,0,36.5-21.9,43.8-53.9c7.2-32.1,68.4-32.1,84.5-14.6c16,17.5,16,51-42.3,61.199
					c-58.3,10.2-68.5,20.4-68.5,20.4"/>
				<path clip-path="url(#SVGID_2_)" fill="none" stroke="#2C77BC" stroke-width="3.3111" stroke-miterlimit="7.6613" d="
					M449.5,488.666c0,0,29.2-14.601,35-23.301c5.8-8.8,19-49.6,64.1-40.9c45.2,8.801,52.5,43.801,32.101,58.301
					c-20.4,14.6-107.9-5.801-121,11.699"/>
				
					<polygon clip-path="url(#SVGID_2_)" fill="none" stroke="#2A77BC" stroke-width="1.8112" stroke-linejoin="round" stroke-miterlimit="10" points="
					421.1,479.065 422.6,483.465 444.4,477.565 442.3,472.465 				"/>
				
					<line clip-path="url(#SVGID_2_)" fill="none" stroke="#2A77BC" stroke-width="1.8112" stroke-linejoin="round" stroke-miterlimit="10" x1="421.8" y1="481.766" x2="410.1" y2="484.766"/>
				
					<polygon clip-path="url(#SVGID_2_)" fill="none" stroke="#2A77BC" stroke-width="1.8112" stroke-linejoin="round" stroke-miterlimit="10" points="
					442.6,508.365 446,511.365 462,495.266 457.5,491.965 				"/>
				
					<line clip-path="url(#SVGID_2_)" fill="none" stroke="#2A77BC" stroke-width="1.8112" stroke-linejoin="round" stroke-miterlimit="10" x1="444.6" y1="510.365" x2="436" y2="518.766"/>
				<polygon clip-path="url(#SVGID_2_)" fill-rule="evenodd" clip-rule="evenodd" fill="#FFFFFF" points="429.8,490.365 
					431,494.865 453.2,490.166 451.3,484.965 				"/>
				
					<polygon clip-path="url(#SVGID_2_)" fill="none" stroke="#2A77BC" stroke-width="1.8112" stroke-linejoin="round" stroke-miterlimit="10" points="
					429.8,490.365 431,494.865 453.2,490.166 451.3,484.965 				"/>
				
					<line clip-path="url(#SVGID_2_)" fill="none" stroke="#2A77BC" stroke-width="1.8112" stroke-linejoin="round" stroke-miterlimit="10" x1="430.4" y1="493.166" x2="418.5" y2="495.465"/>
				<polygon clip-path="url(#SVGID_2_)" fill-rule="evenodd" clip-rule="evenodd" fill="#FFFFFF" points="430,490.166 
					432.1,494.266 452.8,485.065 449.8,480.365 				"/>
				
					<polygon clip-path="url(#SVGID_2_)" fill="none" stroke="#2A77BC" stroke-width="1.8112" stroke-linejoin="round" stroke-miterlimit="10" points="
					430,490.166 432.1,494.266 452.8,485.065 449.8,480.365 				"/>
				
					<line clip-path="url(#SVGID_2_)" fill="none" stroke="#2A77BC" stroke-width="1.8112" stroke-linejoin="round" stroke-miterlimit="10" x1="431.1" y1="492.766" x2="420" y2="497.565"/>
				<polygon clip-path="url(#SVGID_2_)" fill-rule="evenodd" clip-rule="evenodd" fill="#FFFFFF" points="449.5,509.266 
					452.7,512.666 470.1,498.065 466,494.465 				"/>
				
					<polygon clip-path="url(#SVGID_2_)" fill="none" stroke="#2A77BC" stroke-width="1.8112" stroke-linejoin="round" stroke-miterlimit="10" points="
					449.5,509.266 452.7,512.666 470.1,498.065 466,494.465 				"/>
				
					<line clip-path="url(#SVGID_2_)" fill="none" stroke="#2A77BC" stroke-width="1.8112" stroke-linejoin="round" stroke-miterlimit="10" x1="451.3" y1="511.465" x2="441.9" y2="519.065"/>
				<polygon clip-path="url(#SVGID_2_)" fill-rule="evenodd" clip-rule="evenodd" fill="#FFFFFF" points="452.5,516.565 
					455.6,519.965 473,505.365 468.9,501.666 				"/>
				
					<polygon clip-path="url(#SVGID_2_)" fill="none" stroke="#2A77BC" stroke-width="1.8112" stroke-linejoin="round" stroke-miterlimit="10" points="
					452.5,516.565 455.6,519.965 473,505.365 468.9,501.666 				"/>
				
					<line clip-path="url(#SVGID_2_)" fill="none" stroke="#2A77BC" stroke-width="1.8112" stroke-linejoin="round" stroke-miterlimit="10" x1="454.2" y1="518.766" x2="444.9" y2="526.365"/>
				<path clip-path="url(#SVGID_2_)" fill="none" stroke="#2C77BC" stroke-width="3.3111" stroke-miterlimit="7.6613" d="
					M168.3,426.865c-4.7,0-5-27.199-15.9-23.699l0,0c-10.8,3.699,5.3,25.699,1.5,28.5c-3.5,2.6,0.1,1.5,3.4,0.299
					c2.1-0.799,4.1-1.6,4.1-1.6h0.1C161.5,430.365,175.4,426.865,168.3,426.865z"/>
				
					<line clip-path="url(#SVGID_2_)" fill="none" stroke="#2A77BC" stroke-width="1.981" stroke-miterlimit="7.6613" x1="176.6" y1="489.865" x2="159" y2="431.965"/>
				
					<line clip-path="url(#SVGID_2_)" fill="none" stroke="#2A77BC" stroke-width="1.981" stroke-miterlimit="7.6613" x1="178.6" y1="474.666" x2="164.9" y2="429.565"/>
				<path clip-path="url(#SVGID_2_)" fill="none" stroke="#2A77BC" stroke-width="1.7263" stroke-miterlimit="7.6613" d="
					M217.2,698.865c7.1,9,6,21.801-2.5,28.5c-8.5,6.6-21.2,4.6-28.2-4.4c-7.2-9.1-6-21.799,2.5-28.5
					C197.4,687.865,210,689.766,217.2,698.865z"/>
				<path clip-path="url(#SVGID_2_)" fill="none" stroke="#2A77BC" stroke-width="1.7263" stroke-miterlimit="7.6613" d="
					M221.2,695.766c8.9,11.4,7.5,27.5-3.2,35.799c-10.6,8.4-26.5,5.9-35.5-5.5c-9-11.398-7.6-27.398,3.1-35.799
					C196.3,681.865,212.2,684.365,221.2,695.766z"/>
				<path clip-path="url(#SVGID_2_)" fill="none" stroke="#2A77BC" stroke-width="2.1225" stroke-miterlimit="7.6613" d="
					M149.4,739.766c10,12.699,8,31-4.5,40.799c-12.5,9.801-30.7,7.4-40.8-5.398c-9.9-12.801-7.9-31,4.6-40.801
					S139.4,726.965,149.4,739.766z"/>
				<path clip-path="url(#SVGID_2_)" fill="none" stroke="#2A77BC" stroke-width="1.7263" stroke-miterlimit="7.6613" d="
					M145.4,742.766c8,10.199,6.2,25-4,33c-10.2,8-25,6.199-32.9-4.1c-8-10.201-6.3-24.9,4-32.9
					C122.7,730.766,137.4,732.564,145.4,742.766z"/>
				<polyline clip-path="url(#SVGID_2_)" fill="none" stroke="#1A77BC" stroke-width="3.2828" stroke-miterlimit="7.6613" points="
					224.1,724.365 229.8,733.064 121,804.766 88.8,752.266 100,745.766 				"/>
				
					<line clip-path="url(#SVGID_2_)" fill="none" stroke="#1A77BC" stroke-width="3.2828" stroke-miterlimit="7.6613" x1="129.8" y1="728.166" x2="178.3" y2="700.266"/>
				<path clip-path="url(#SVGID_2_)" fill="none" stroke="#2A77BC" stroke-width="1.7263" stroke-miterlimit="7.6613" d="
					M177.4,702.865l-4.7,10.301c0,0-5.7,16.1,9.5,26.799c15.1,10.6,29.3-1.4,29.3-1.4l8.9-9.199"/>
				<path clip-path="url(#SVGID_2_)" fill="none" stroke="#2A77BC" stroke-width="1.7263" stroke-miterlimit="7.6613" d="
					M141.6,725.766l22.1-13.4c0,0,2.8,1,3.7,3.301c0.9,2.299,0,3.398,0,3.398s-17.8,10.9-20.1,12.801c-2.4,1.9-4.8-1-5.7-2.199
					C140.6,728.365,141.6,725.766,141.6,725.766z"/>
				
					<line clip-path="url(#SVGID_2_)" fill="none" stroke="#2A77BC" stroke-width="1.7263" stroke-miterlimit="7.6613" x1="167.5" y1="774.064" x2="178.3" y2="789.666"/>
				
					<line clip-path="url(#SVGID_2_)" fill="none" stroke="#2A77BC" stroke-width="1.7263" stroke-miterlimit="7.6613" x1="175" y1="769.965" x2="185.8" y2="785.666"/>
				
					<line clip-path="url(#SVGID_2_)" fill="none" stroke="#2A77BC" stroke-width="1.7263" stroke-miterlimit="7.6613" x1="181.7" y1="765.465" x2="192.4" y2="781.064"/>
				
					<line clip-path="url(#SVGID_2_)" fill="none" stroke="#2A77BC" stroke-width="1.7263" stroke-miterlimit="7.6613" x1="187.8" y1="761.166" x2="198.5" y2="776.766"/>
				<polygon clip-path="url(#SVGID_2_)" fill="none" stroke="#2A77BC" stroke-width="1.7263" stroke-miterlimit="7.6613" points="
					167.5,770.564 164,772.965 161.7,769.465 165.2,767.166 				"/>
				
					<rect x="169.406" y="763.371" transform="matrix(0.8356 -0.5493 0.5493 0.8356 -392.2849 220.0336)" clip-path="url(#SVGID_2_)" fill="none" stroke="#2A77BC" stroke-width="1.7263" stroke-miterlimit="7.6613" width="4.189" height="4.188"/>
				
					<rect x="176.206" y="758.871" transform="matrix(0.8356 -0.5493 0.5493 0.8356 -388.6952 223.0292)" clip-path="url(#SVGID_2_)" fill="none" stroke="#2A77BC" stroke-width="1.7263" stroke-miterlimit="7.6613" width="4.189" height="4.188"/>
				<polygon clip-path="url(#SVGID_2_)" fill="none" stroke="#2A77BC" stroke-width="1.7263" stroke-miterlimit="7.6613" points="
					187.9,757.166 184.4,759.465 182,755.965 185.6,753.666 				"/>
				<path clip-path="url(#SVGID_2_)" fill="none" stroke="#2A77BC" stroke-width="2.2357" stroke-miterlimit="7.6613" d="
					M346.2,871.365c0-2.301-3-4.199-7.2-4.699v9.5C343.2,875.666,346.2,873.666,346.2,871.365z"/>
				<path clip-path="url(#SVGID_2_)" fill="none" stroke="#2A77BC" stroke-width="2.2357" stroke-miterlimit="7.6613" d="
					M327.3,871.365c0,2.4,3.2,4.4,7.4,4.9v-9.701C330.5,867.064,327.3,869.064,327.3,871.365z"/>
				<polyline clip-path="url(#SVGID_2_)" fill="none" stroke="#2A77BC" stroke-width="2.2357" stroke-miterlimit="7.6613" points="
					334.7,877.064 334.7,885.365 339.1,885.365 339.1,873.766 				"/>
				<path clip-path="url(#SVGID_2_)" fill="none" stroke="#2A77BC" stroke-width="2.2357" stroke-miterlimit="7.6613" d="
					M346.2,871.965v21.4c0,0-2.4,6.301-9.9,6.301c-7.7,0-9-6.602-9-6.602v-21.699"/>
				<path clip-path="url(#SVGID_2_)" fill="none" stroke="#1A77BC" stroke-width="3.2828" stroke-miterlimit="7.6613" d="
					M327.8,886.865c0,0-10.2,2.199-14.3,10.6c-5,10.201,0.3,21.801,9.9,26.301c9.6,4.5,20.399,1.4,20.399,1.4l11.4,5.6l23.7-26.6
					l-16.101-7.201c0,0-6.1-9.5-16.1-11.1"/>
				
					<polyline clip-path="url(#SVGID_2_)" fill="none" stroke="#2A77BC" stroke-width="2.2357" stroke-linejoin="round" stroke-miterlimit="10" points="
					325.9,888.166 319.2,896.465 329.3,907.166 344.7,907.166 355.5,896.465 346.2,888.564 				"/>
				<path clip-path="url(#SVGID_2_)" fill="none" stroke="#2A77BC" stroke-width="2.2357" stroke-miterlimit="7.6613" d="
					M353,919.965c0,1.301-1.9,2.301-4.2,2.301s-4.2-1-4.2-2.301c0-1.199,1.9-2.199,4.2-2.199S353,918.766,353,919.965z"/>
				<path clip-path="url(#SVGID_2_)" fill="none" stroke="#2A77BC" stroke-width="2.2357" stroke-miterlimit="7.6613" d="
					M362,911.766c0,1.199-1.9,2.199-4.2,2.199s-4.1-1-4.1-2.199c0-1.301,1.8-2.301,4.1-2.301S362,910.465,362,911.766z"/>
				<path clip-path="url(#SVGID_2_)" fill="none" stroke="#2A77BC" stroke-width="2.2357" stroke-miterlimit="7.6613" d="
					M368.7,903.564c0,1.301-1.9,2.301-4.2,2.301s-4.2-1-4.2-2.301c0-1.199,1.9-2.199,4.2-2.199S368.7,902.365,368.7,903.564z"/>
				
					<line clip-path="url(#SVGID_2_)" fill="none" stroke="#2A77BC" stroke-width="2.2357" stroke-miterlimit="7.6613" x1="360.2" y1="925.166" x2="371.1" y2="930.766"/>
				
					<line clip-path="url(#SVGID_2_)" fill="none" stroke="#2A77BC" stroke-width="2.2357" stroke-miterlimit="7.6613" x1="368" y1="916.766" x2="378.9" y2="922.365"/>
				
					<line clip-path="url(#SVGID_2_)" fill="none" stroke="#2A77BC" stroke-width="2.2357" stroke-miterlimit="7.6613" x1="375.1" y1="908.465" x2="386" y2="914.064"/>
				<polyline clip-path="url(#SVGID_2_)" fill="none" stroke="#2A77BC" stroke-width="2.2357" stroke-miterlimit="7.6613" points="
					319.2,896.465 319.2,901.365 327.9,910.766 345.7,910.766 355.5,900.965 355.5,896.965 				"/>
				<path clip-path="url(#SVGID_2_)" fill="none" stroke="#1A77BC" stroke-width="3.2828" stroke-miterlimit="7.6613" d="
					M116.1,1067.666c0,0-7.1-35.102-13.7-44.801s-17.6-13.801-25.6-17.9c-8.1-4.1,3.3-17.6,9.9-19.9c6.7-2.199,19,1,19,5.102
					c0,4.1-4.6,18.398,3.2,27.6c7.7,9.199,31.4,40,31.4,40s1,2.799,4.9,1.199"/>
				
					<path clip-path="url(#SVGID_2_)" fill="none" stroke="#2A77BC" stroke-width="1.7263" stroke-linejoin="round" stroke-miterlimit="10" d="
					M103.9,1076.666c0,0,2-3.801,5,0c3,3.799-0.1,6.699-1.7,5.699c-0.4-0.199-15.2-26.699-17.1-30c-2.6-4.4-4.8-4.801-5.4,0
					c-0.7,4.699,1.2,5.699-3.2,8.801c-4.4,3.199,2.9,6.699,6.7,9.199c3.8,2.5,12.9,8.199,12.9,8.199s5.8,2.5,6.1,6.4
					c0.3,3.9-2.3,3-3.4,2c-1.1-0.9-5.1-4.199-1-6.6"/>
				
					<path clip-path="url(#SVGID_2_)" fill="none" stroke="#2A77BC" stroke-width="1.7263" stroke-linejoin="round" stroke-miterlimit="10" d="
					M86.1,1048.965c0,0,45.3-23.9,47.5-24.9c2.1-0.898,2.9,1.301,4.3,3.4c1.5,2.201,11.3,21.5,11.3,21.5"/>
				
					<path clip-path="url(#SVGID_2_)" fill="none" stroke="#2A77BC" stroke-width="1.7263" stroke-linejoin="round" stroke-miterlimit="10" d="
					M104.8,1075.666c0,0,10.4-6.701,12.4-8c2-1.301,7.2,1.799,4.2,7l-12.5,7.6"/>
				
					<path clip-path="url(#SVGID_2_)" fill="none" stroke="#2A77BC" stroke-width="1.7263" stroke-linejoin="round" stroke-miterlimit="10" d="
					M140.3,1054.666c0,0,9-5.9,10.8-6.5c1.8-0.602,5.7,0.398,5.2,6.5l-11.5,6.898C144.8,1061.564,145.2,1054.965,140.3,1054.666z"/>
				
					<path clip-path="url(#SVGID_2_)" fill="none" stroke="#2A77BC" stroke-width="1.7263" stroke-linejoin="round" stroke-miterlimit="10" d="
					M123,1071.965c0,0,4.9,0.6,5.6-0.799c0.7-1.5,1.5-6.602,1.5-6.602l6.4-3.1c0,0,2.4,1.301,1.2,4.201l-9.1,5.5"/>
				
					<polyline clip-path="url(#SVGID_2_)" fill="none" stroke="#2A77BC" stroke-width="1.7263" stroke-linejoin="round" stroke-miterlimit="10" points="
					106.4,1087.666 119.2,1080.365 117.1,1077.266 				"/>
				
					<polyline clip-path="url(#SVGID_2_)" fill="none" stroke="#2A77BC" stroke-width="1.7263" stroke-linejoin="round" stroke-miterlimit="10" points="
					153.2,1056.465 153.2,1060.064 140.3,1067.666 136.2,1066.766 136.2,1069.965 126.4,1074.865 123.6,1072.965 				"/>
				<path clip-path="url(#SVGID_2_)" fill="none" stroke="#1A77BC" stroke-width="3.2828" stroke-miterlimit="7.6613" d="
					M95.6,1043.965c0,0-6.6-0.799-5.7-6.199c0.8-5.301-3.1-10.4-15.2-4c-12.1,6.4-13.1,11-7.3,12.5c5.8,1.5,15.7-1.6,18.8,2.699"/>
				<path clip-path="url(#SVGID_2_)" fill-rule="evenodd" clip-rule="evenodd" fill="#B9F9F7" d="M328.8,82.465
					c0,18.301-14.8,33.101-33.1,33.101c-18.2,0-33-14.8-33-33.101c0-18.299,14.8-33.1,33-33.1C314,49.365,328.8,64.166,328.8,82.465
					z"/>
				<polygon clip-path="url(#SVGID_2_)" fill="#2C77BC" points="272.437,205.405 274.047,205.405 274.047,200.835 272.394,201.176 
					272.394,199.936 274.038,199.594 275.771,199.594 275.771,205.405 277.381,205.405 277.381,206.666 272.437,206.666 				"/>
				<path clip-path="url(#SVGID_2_)" fill="none" stroke="#1A77BC" stroke-width="3.2828" stroke-miterlimit="7.6613" d="
					M547.5,119.865c-3.2,0-5.9-2.6-5.9-5.8c0-3.3,2.7-5.899,5.9-5.899s5.8,2.6,5.8,5.899C553.3,117.266,550.7,119.865,547.5,119.865
					z"/>
				<path clip-path="url(#SVGID_2_)" fill="none" stroke="#1A77BC" stroke-width="2.1791" stroke-miterlimit="7.6613" d="
					M506.6,129.565c-2.6,0-4.6-2-4.6-4.5s2-4.601,4.6-4.601c2.5,0,4.5,2.101,4.5,4.601S509.1,129.565,506.6,129.565z"/>
				<path clip-path="url(#SVGID_2_)" fill="none" stroke="#1A77BC" stroke-width="2.1791" stroke-miterlimit="7.6613" d="
					M589.3,129.565c-2.6,0-4.6-2-4.6-4.5s2-4.601,4.6-4.601c2.5,0,4.5,2.101,4.5,4.601S591.8,129.565,589.3,129.565z"/>
				<path clip-path="url(#SVGID_2_)" fill="none" stroke="#1A77BC" stroke-width="3.2828" stroke-miterlimit="7.6613" d="
					M590.5,116.266h-8.4l-0.5-0.6l-0.399-1.4l-0.5-1.7l-0.601-1.601l-0.699-1.6l-0.801-1.5l-0.8-1.5l-0.899-1.4l-1-1.399
					l-1.101-1.399l-1.1-1.301l-1.2-1.199l-1.3-1.201l-1.3-1.1l-1.301-1.1l-1.399-1l-1.5-0.9l-1.5-0.8l-1.5-0.8l-1.601-0.7
					l-1.6-0.601l-1.6-0.6l-1.7-0.4l-1.601-0.399l-1.699-0.3l-1.7-0.2l-1.7-0.101l-1.8-0.1l-1.7,0.1l-1.7,0.101l-1.7,0.2l-1.699,0.3
					l-1.7,0.399l-1.601,0.4l-1.6,0.6l-1.6,0.601l-1.601,0.7l-1.5,0.8l-1.5,0.8l-1.5,0.9l-1.399,1l-1.301,1.1l-1.3,1.1l-1.3,1.201
					l-1.2,1.199l-1.1,1.301l-1.101,1.399l-0.899,1.399l-1,1.4l-0.8,1.5l-0.801,1.5l-0.6,1.6l-0.7,1.601l-0.5,1.7l-0.6,2h-0.9H504.4
					c-6.601,0-8.801,4.199-8.801,8.6s2.2,8.6,8.801,8.6c2.3,0,4.699,0.101,9.699,0.201v0.199l0.7,2.301l0.7,1.6l0.6,1.6l0.801,1.5
					l1.1,1.9l0.9,1.4l1.1,1.399l1.6,2l10.301,20.5v9h31.6l0.2-9l10.2-20.5l0.899-1l1.101-1.399l1-1.4l0.899-1.4l0.8-1.5l0.801-1.5
					l0.699-1.6l0.601-1.6l0.5-1.601l0.3-0.899c4.7-0.101,6.8-0.201,9-0.201c6.6,0,8.9-4.199,8.9-8.6S597.1,116.266,590.5,116.266z"
					/>
				<path clip-path="url(#SVGID_2_)" fill="none" stroke="#1A77BC" stroke-width="3.2828" stroke-miterlimit="7.6613" d="
					M541.6,177.065v91.601c0,27.5,27.7,47.1,54.9,33.199c27.1-13.9,24-56.699,24-56.699"/>
				<path clip-path="url(#SVGID_2_)" fill="none" stroke="#1A77BC" stroke-width="3.2828" stroke-miterlimit="7.6613" d="
					M546.7,177.065v91.601c0,27.5,27.6,47.1,54.8,33.199s24-56.699,24-56.699"/>
				<path clip-path="url(#SVGID_2_)" fill="none" stroke="#1A77BC" stroke-width="3.2828" stroke-miterlimit="7.6613" d="
					M552.5,177.065v91.601c0,27.5,27.6,47.1,54.9,33.199c27.1-13.9,23.899-56.699,23.899-56.699"/>
				
					<rect x="613.2" y="230.766" clip-path="url(#SVGID_2_)" fill="none" stroke="#2A77BC" stroke-width="1.981" stroke-miterlimit="7.6613" width="26" height="14.4"/>
				<path clip-path="url(#SVGID_2_)" fill="none" stroke="#1A77BC" stroke-width="3.2828" stroke-miterlimit="7.6613" d="
					M666.3,152.666c3.2,0,5.8-2.601,5.8-5.801c0-3.199-2.6-5.8-5.8-5.8s-5.899,2.601-5.899,5.8
					C660.4,150.065,663.1,152.666,666.3,152.666z"/>
				<path clip-path="url(#SVGID_2_)" fill="none" stroke="#1A77BC" stroke-width="2.1791" stroke-miterlimit="7.6613" d="
					M707.2,162.465c2.5,0,4.5-2,4.5-4.6c0-2.5-2-4.5-4.5-4.5c-2.601,0-4.601,2-4.601,4.5C702.6,160.465,704.6,162.465,707.2,162.465
					z"/>
				<path clip-path="url(#SVGID_2_)" fill="none" stroke="#1A77BC" stroke-width="2.1791" stroke-miterlimit="7.6613" d="
					M624.5,162.465c2.5,0,4.5-2,4.5-4.6c0-2.5-2-4.5-4.5-4.5c-2.6,0-4.6,2-4.6,4.5C619.9,160.465,621.9,162.465,624.5,162.465z"/>
				<path clip-path="url(#SVGID_2_)" fill="none" stroke="#1A77BC" stroke-width="3.2828" stroke-miterlimit="7.6613" d="
					M623.2,149.166h8.5l0.399-0.601l0.4-1.5l0.5-1.601l0.7-1.6l0.7-1.6l0.699-1.5l0.9-1.5l0.9-1.5l1-1.4l1-1.3l1.199-1.3
					l1.101-1.301l1.3-1.199l1.3-1.1l1.3-1l1.4-1l1.5-1l1.5-0.801l1.5-0.8l1.6-0.7l1.601-0.6l1.6-0.5l1.7-0.5l1.6-0.301l1.7-0.399
					l1.7-0.2l1.7-0.1h1.8h1.7l1.7,0.1l1.699,0.2l1.7,0.399l1.7,0.301l1.6,0.5l1.7,0.5l1.601,0.6l1.5,0.7l1.6,0.8l1.5,0.801l1.4,1
					l1.399,1l1.4,1l1.3,1.1l1.2,1.199l1.2,1.301l1.1,1.3l1.1,1.3l1,1.4l0.9,1.5l0.8,1.5l0.8,1.5l0.7,1.6l0.601,1.6l0.5,1.601
					l0.6,2.101h0.9h8.399c6.601,0,8.9,4.199,8.9,8.6s-2.3,8.5-8.9,8.5c-2.3,0-4.7,0.1-9.6,0.199l-0.101,0.201l-0.699,2.299
					l-0.601,1.601l-0.7,1.601l-0.8,1.6l-1.1,1.8l-0.9,1.5l-1,1.399l-1.6,1.9l-10.4,20.5v9.1h-31.6l-0.2-9.1l-10.2-20.5l-0.899-1
					l-1-1.3l-1-1.399l-0.9-1.4l-0.9-1.5l-0.699-1.6l-0.7-1.601l-0.7-1.601l-0.5-1.6l-0.3-0.9c-4.7-0.1-6.8-0.199-9-0.199
					c-6.601,0-8.8-4.1-8.8-8.5S616.6,149.166,623.2,149.166z"/>
				<path clip-path="url(#SVGID_2_)" fill="none" stroke="#1A77BC" stroke-width="3.2828" stroke-miterlimit="7.6613" d="
					M672.1,209.865v91.6c0,27.5-27.6,47.101-54.8,33.201c-27.2-13.9-24-56.601-24-56.601"/>
				<path clip-path="url(#SVGID_2_)" fill="none" stroke="#1A77BC" stroke-width="3.2828" stroke-miterlimit="7.6613" d="
					M667,209.865v91.6c0,27.5-27.6,47.101-54.7,33.201c-27.2-13.9-24.1-56.601-24.1-56.601"/>
				<path clip-path="url(#SVGID_2_)" fill="none" stroke="#1A77BC" stroke-width="3.2828" stroke-miterlimit="7.6613" d="
					M661.2,209.865v91.6c0,27.5-27.601,47.101-54.8,33.201c-27.101-13.9-24-56.601-24-56.601"/>
				
					<rect x="574.5" y="263.565" clip-path="url(#SVGID_2_)" fill="none" stroke="#2A77BC" stroke-width="1.981" stroke-miterlimit="7.6613" width="26" height="14.5"/>
				<path clip-path="url(#SVGID_2_)" fill-rule="evenodd" clip-rule="evenodd" fill="#B9F9F7" d="M740.2,104.965
					c0,18.201-14.8,33-33,33c-18.3,0-33.101-14.799-33.101-33c0-18.299,14.801-33.1,33.101-33.1
					C725.4,71.865,740.2,86.666,740.2,104.965z"/>
				<polygon clip-path="url(#SVGID_2_)" fill="#1A303A" points="289.63,88.777 295.624,88.777 295.624,71.767 289.472,73.035 
					289.472,68.418 295.588,67.148 302.04,67.148 302.04,88.777 308.033,88.777 308.033,93.465 289.63,93.465 				"/>
				<polygon clip-path="url(#SVGID_2_)" fill="none" stroke="#1A77BC" stroke-width="2.1791" stroke-miterlimit="7.6613" points="
					1088.4,181.365 1089.5,182.766 1090.4,184.166 1091.4,185.565 1092.2,187.065 1093,188.666 1093.7,190.166 1094.3,191.766 
					1094.8,193.465 1095.2,194.865 1095.6,196.365 1095.9,198.065 1096.1,199.766 1096.3,201.465 1096.3,203.565 1096.3,205.266 
					1096.2,206.965 1096,208.666 1095.7,210.365 1095.2,212.266 1094.8,213.666 1094.3,215.365 1093.7,216.965 1093,218.565 
					1092.2,220.065 1091.4,221.565 1090.4,222.965 1089.5,224.465 1088.4,225.766 1087.5,226.766 1089.8,226.766 1077.3,247.266 
					1077.1,256.266 1045.5,256.266 1045.5,247.266 1032.7,227.865 1035.2,226.766 1033.5,224.766 1032.5,223.365 1031.6,221.965 
					1030.5,220.065 1029.7,218.565 1029,216.965 1028.4,215.365 1027.7,213.065 1027.3,211.666 1027,210.365 1026.8,208.666 
					1026.5,206.965 1026.4,205.266 1026.4,203.565 1026.4,201.865 1026.5,200.565 1026.7,198.865 1027,197.166 1027.3,195.465 
					1027.9,193.465 1028.4,191.766 1029,190.166 1029.7,188.666 1030.5,187.065 1031.4,185.565 1032.3,184.166 1033.3,182.766 
					1034.3,181.365 1035.4,180.065 1036.6,178.865 1037.8,177.666 1039.2,176.565 1040.5,175.465 1041.9,174.465 1043.4,173.565 
					1044.9,172.766 1046.4,171.965 1048,171.266 1049.6,170.666 1051.2,170.166 1052.8,169.666 1054.5,169.266 1056.2,168.965 
					1057.9,168.766 1059.6,168.666 1061.3,168.565 1063,168.666 1064.8,168.766 1066.5,168.965 1068.2,169.266 1069.9,169.666 
					1071.5,170.166 1073.1,170.666 1074.7,171.266 1076.3,171.965 1077.8,172.766 1079.3,173.565 1080.8,174.465 1082.2,175.465 
					1083.5,176.565 1084.8,177.666 1086.1,178.865 1087.3,180.065 				"/>
				
					<rect x="1013.5" y="200.365" clip-path="url(#SVGID_2_)" fill="none" stroke="#1A77BC" stroke-width="2.1791" stroke-miterlimit="7.6613" width="7.8" height="7.301"/>
				
					<rect x="1101.2" y="200.166" clip-path="url(#SVGID_2_)" fill="none" stroke="#1A77BC" stroke-width="2.1791" stroke-miterlimit="7.6613" width="7.7" height="7.299"/>
				
					<rect x="1001.3" y="151.865" clip-path="url(#SVGID_2_)" fill="none" stroke="#1A77BC" stroke-width="3.2828" stroke-miterlimit="7.6613" width="119.5" height="122.4"/>
				
					<rect x="916.8" y="111.065" clip-path="url(#SVGID_2_)" fill-rule="evenodd" clip-rule="evenodd" fill="#FFFFFF" width="119.5" height="122.399"/>
				
					<rect x="916.8" y="111.065" clip-path="url(#SVGID_2_)" fill="none" stroke="#1A77BC" stroke-width="3.2828" stroke-miterlimit="7.6613" width="119.5" height="122.399"/>
				<polygon clip-path="url(#SVGID_2_)" fill="none" stroke="#1A77BC" stroke-width="2.1791" stroke-miterlimit="7.6613" points="
					1003.9,140.565 1004.9,141.965 1005.9,143.365 1006.8,144.865 1007.7,146.266 1008.5,147.865 1009.2,149.465 1009.8,150.965 
					1010.3,152.666 1010.7,154.166 1011.1,155.565 1011.4,157.266 1011.6,158.965 1011.7,160.666 1011.8,162.766 1011.8,164.465 
					1011.7,166.266 1011.5,167.965 1011.1,169.666 1010.7,171.465 1010.3,172.965 1009.8,174.565 1009.2,176.166 1008.5,177.766 
					1007.7,179.266 1006.8,180.766 1005.9,182.266 1004.9,183.666 1003.9,184.965 1003,185.965 1005.2,185.965 992.8,206.465 
					992.7,215.465 961,215.465 961,206.465 948.2,187.065 950.7,185.965 949.1,183.965 948,182.666 947.1,181.166 946,179.266 
					945.2,177.766 944.6,176.166 943.9,174.565 943.2,172.266 942.8,170.865 942.5,169.666 942.2,167.965 942,166.266 
					941.9,164.465 941.9,162.766 941.9,161.065 942,159.766 942.2,158.065 942.5,156.365 942.8,154.666 943.4,152.666 
					943.9,150.965 944.6,149.465 945.2,147.865 946,146.266 946.9,144.865 947.8,143.365 948.8,141.965 949.8,140.565 
					950.9,139.365 952.1,138.065 953.4,136.865 954.7,135.766 956,134.666 957.4,133.766 958.9,132.766 960.4,131.965 
					961.9,131.166 963.5,130.465 965.1,129.865 966.7,129.365 968.4,128.865 970,128.465 971.7,128.166 973.4,127.965 
					975.1,127.865 976.8,127.766 978.6,127.865 980.3,127.965 982,128.166 983.7,128.465 985.4,128.865 987,129.365 988.6,129.865 
					990.2,130.465 991.8,131.166 993.3,131.965 994.8,132.766 996.3,133.766 997.7,134.666 999,135.766 1000.3,136.865 
					1001.6,138.065 1002.8,139.365 				"/>
				
					<rect x="929" y="159.565" clip-path="url(#SVGID_2_)" fill="none" stroke="#1A77BC" stroke-width="2.1791" stroke-miterlimit="7.6613" width="7.8" height="7.3"/>
				
					<rect x="1016.7" y="159.365" clip-path="url(#SVGID_2_)" fill="none" stroke="#1A77BC" stroke-width="2.1791" stroke-miterlimit="7.6613" width="7.7" height="7.301"/>
				<path clip-path="url(#SVGID_2_)" fill-rule="evenodd" clip-rule="evenodd" fill="#B9F9F7" d="M1181.5,262.965
					c0,18.301-14.8,33.101-33.1,33.101c-18.301,0-33.101-14.8-33.101-33.101c0-18.199,14.8-33.1,33.101-33.1
					C1166.7,229.865,1181.5,244.766,1181.5,262.965z"/>
				<path clip-path="url(#SVGID_2_)" fill="#1A303A" d="M707.2,110.977h11.581v4.988h-19.126v-4.988l9.607-8.479
					c0.857-0.775,1.492-1.533,1.903-2.273s0.617-1.51,0.617-2.309c0-1.234-0.414-2.228-1.243-2.979
					c-0.828-0.752-1.93-1.128-3.305-1.128c-1.058,0-2.216,0.227-3.473,0.678c-1.258,0.453-2.604,1.126-4.036,2.02v-5.782
					c1.527-0.505,3.037-0.89,4.529-1.155c1.492-0.264,2.956-0.396,4.39-0.396c3.149,0,5.597,0.693,7.342,2.08s2.617,3.32,2.617,5.8
					c0,1.434-0.37,2.771-1.11,4.011c-0.74,1.239-2.298,2.898-4.671,4.979L707.2,110.977z"/>
				
					<line clip-path="url(#SVGID_2_)" fill="none" stroke="#1A77BC" stroke-width="2.1791" stroke-linecap="round" stroke-linejoin="round" stroke-miterlimit="10" x1="1188.7" y1="640.965" x2="1345.5" y2="640.965"/>
				
					<line clip-path="url(#SVGID_2_)" fill="none" stroke="#1A77BC" stroke-width="2.1791" stroke-linecap="round" stroke-linejoin="round" stroke-miterlimit="10" x1="1345.5" y1="445.766" x2="1188.7" y2="445.766"/>
				
					<line clip-path="url(#SVGID_2_)" fill="none" stroke="#1A77BC" stroke-width="3.2828" stroke-miterlimit="7.6613" x1="1186.7" y1="640.965" x2="1186.7" y2="445.766"/>
				<path clip-path="url(#SVGID_2_)" fill="none" stroke="#1A77BC" stroke-width="3.2828" stroke-miterlimit="7.6613" d="
					M1701.9,549.166V374.465c0-3.399-2.7-6.199-6.101-6.199H1594c-19.6,0-36.4,3.5-40.3,22.699l-10.9,54.801v-159.6l-3.899-3.9
					v-161.6l-41.301,0.1v-2.1c0-2.301-1.899-8.201-4.1-8.201l-24.6-0.1c-2.301,0-4.2,5.9-4.2,8.1v2.201h-39v-2.101
					c0-2.3-1.9-8.2-4.101-8.2l-24.699,0.1c-2.2,0-4.101,5.9-4.101,8.201v1.799l-41.2,0.201v161.6l-4,3.9v159.6l-10.199-32
					c-0.4-1.9-3.801-7.4-5.801-7.4c0,0-62.5-5.1-62.899-4.8c0,0-13.101,0.101-14.2,0.101h-55.8c-2.3,0-4.2,1.899-4.2,4.199
					l-7.8,39.9"/>
				<path clip-path="url(#SVGID_2_)" fill="none" stroke="#1A77BC" stroke-width="3.2828" stroke-miterlimit="7.6613" d="
					M1701.9,549.166v164c0,3.398-2.7,6.199-6.101,6.199H1594c-19.6,0-36.4-3.5-40.3-22.699l-10.9-54.9v163.199l-3.899,3.9v161.4
					l-41.301-0.1v2.1c0,2.299-1.899,8.199-4.1,8.199l-24.6,0.1c-2.301,0-4.2-5.898-4.2-8.1v-0.1v-2.1h-39v2.1
					c0,2.301-1.9,8.199-4.101,8.199l-24.699-0.1c-2.2,0-4.101-5.9-4.101-8.199v-1.801l-41.2-0.199v-161.4l-4-3.9V641.766
					l-10.199,32.1c-0.4,1.9-3.801,7.5-5.801,7.5c0,0-62.5,5.1-62.899,4.699c0,0-13.101-0.1-14.2-0.1h-55.8c-2.3,0-4.2-1.9-4.2-4.1
					l-7.8-40.1"/>
				<path clip-path="url(#SVGID_2_)" fill="#1A303A" d="M1154.916,259.775c1.774,0.459,3.123,1.255,4.045,2.389
					c0.923,1.135,1.385,2.576,1.385,4.328c0,2.607-1,4.592-2.997,5.948c-1.998,1.357-4.912,2.036-8.743,2.036
					c-1.352,0-2.705-0.109-4.063-0.326s-2.7-0.543-4.028-0.979v-5.234c1.27,0.634,2.529,1.113,3.781,1.436
					c1.251,0.324,2.482,0.485,3.692,0.485c1.799,0,3.176-0.312,4.134-0.935s1.437-1.516,1.437-2.68c0-1.198-0.49-2.105-1.472-2.723
					s-2.43-0.926-4.345-0.926h-2.715v-4.371h2.855c1.704,0,2.973-0.268,3.808-0.803c0.834-0.534,1.251-1.348,1.251-2.441
					c0-1.01-0.405-1.791-1.216-2.344s-1.956-0.828-3.438-0.828c-1.093,0-2.197,0.123-3.313,0.369
					c-1.117,0.248-2.228,0.611-3.332,1.094v-4.971c1.34-0.377,2.668-0.658,3.984-0.846c1.315-0.188,2.608-0.283,3.878-0.283
					c3.419,0,5.978,0.563,7.677,1.684c1.697,1.123,2.547,2.813,2.547,5.068c0,1.539-0.405,2.799-1.217,3.781
					C1157.701,258.686,1156.503,259.377,1154.916,259.775z"/>
				<path clip-path="url(#SVGID_2_)" fill-rule="evenodd" clip-rule="evenodd" fill="#B9F9F7" d="M1056.3,477.666
					c0,18.199-14.8,33-33,33c-18.3,0-33.1-14.801-33.1-33c0-18.301,14.8-33.101,33.1-33.101
					C1041.5,444.565,1056.3,459.365,1056.3,477.666z"/>
				
					<circle clip-path="url(#SVGID_2_)" fill="none" stroke="#1A77BC" stroke-width="3.2828" stroke-miterlimit="7.6613" cx="979.2" cy="947.865" r="125.3"/>
				<polygon clip-path="url(#SVGID_2_)" fill="none" stroke="#1A77BC" stroke-width="2.1791" stroke-miterlimit="7.6613" points="
					996.5,918.666 960.3,918.666 942.3,949.965 960.3,981.365 996.5,981.365 1014.6,949.965 				"/>
				
					<circle clip-path="url(#SVGID_2_)" fill-rule="evenodd" clip-rule="evenodd" fill="#FFFFFF" cx="1100.1" cy="1011.965" r="125.3"/>
				
					<circle clip-path="url(#SVGID_2_)" fill="none" stroke="#1A77BC" stroke-width="3.2828" stroke-miterlimit="7.6613" cx="1100.1" cy="1011.965" r="125.3"/>
				<polygon clip-path="url(#SVGID_2_)" fill="none" stroke="#1A77BC" stroke-width="2.1791" stroke-miterlimit="7.6613" points="
					1117.4,982.766 1081.3,982.766 1063.2,1014.166 1081.3,1045.465 1117.4,1045.465 1135.6,1014.166 				"/>
				<path clip-path="url(#SVGID_2_)" fill="#1A303A" d="M1016.725,462.348h16.869v4.989h-11.457v4.071
					c0.517-0.141,1.037-0.249,1.56-0.326c0.522-0.076,1.066-0.114,1.631-0.114c3.208,0,5.705,0.802,7.491,2.406
					s2.68,3.84,2.68,6.707c0,2.844-0.973,5.071-2.918,6.681c-1.944,1.609-4.645,2.414-8.1,2.414c-1.492,0-2.97-0.143-4.433-0.432
					c-1.463-0.287-2.917-0.725-4.362-1.313v-5.342c1.434,0.823,2.793,1.44,4.08,1.852c1.287,0.412,2.5,0.617,3.64,0.617
					c1.646,0,2.941-0.402,3.888-1.207c0.945-0.806,1.418-1.896,1.418-3.271c0-1.387-0.473-2.479-1.418-3.278
					c-0.946-0.799-2.242-1.199-3.888-1.199c-0.976,0-2.015,0.127-3.119,0.379c-1.105,0.254-2.292,0.644-3.562,1.172V462.348z"/>
				<path clip-path="url(#SVGID_2_)" fill-rule="evenodd" clip-rule="evenodd" fill="#B9F9F7" d="M632.3,505.465
					c0,18.301-14.8,33.101-33.1,33.101c-18.2,0-33-14.8-33-33.101c0-18.299,14.8-33.1,33-33.1
					C617.5,472.365,632.3,487.166,632.3,505.465z"/>
				<path clip-path="url(#SVGID_2_)" fill-rule="evenodd" clip-rule="evenodd" fill="#B9F9F7" d="M812.3,845.666
					c0,18.199-14.8,33-33,33c-18.3,0-33.1-14.801-33.1-33c0-18.301,14.8-33.102,33.1-33.102
					C797.5,812.564,812.3,827.365,812.3,845.666z"/>
				<polygon clip-path="url(#SVGID_2_)" fill="#1A303A" points="591.314,490.148 611.146,490.148 611.146,493.973 600.887,516.465 
					594.276,516.465 603.988,495.137 591.314,495.137 				"/>
				<path clip-path="url(#SVGID_2_)" fill-rule="evenodd" clip-rule="evenodd" fill="#B9F9F7" d="M375.7,955.666
					c0,18.299-14.8,33.1-33.101,33.1c-18.3,0-33.1-14.801-33.1-33.1c0-18.301,14.8-33.102,33.1-33.102
					C360.9,922.564,375.7,937.365,375.7,955.666z"/>
				<path clip-path="url(#SVGID_2_)" fill="#1A303A" d="M776.515,842.553c-1.598-0.482-2.803-1.223-3.613-2.223
					c-0.811-0.998-1.216-2.244-1.216-3.736c0-2.221,0.828-3.912,2.485-5.076c1.656-1.164,4.089-1.746,7.297-1.746
					c3.185,0,5.605,0.58,7.263,1.736c1.657,1.158,2.485,2.854,2.485,5.086c0,1.492-0.408,2.738-1.226,3.736
					c-0.816,1-2.023,1.74-3.622,2.223c1.786,0.492,3.135,1.295,4.046,2.404c0.91,1.111,1.365,2.514,1.365,4.205
					c0,2.609-0.866,4.58-2.6,5.914s-4.304,2-7.712,2c-3.419,0-6.002-0.666-7.747-2s-2.617-3.305-2.617-5.914
					c0-1.691,0.455-3.094,1.366-4.205C773.38,843.848,774.729,843.045,776.515,842.553z M781.468,844.791
					c-1.269,0-2.244,0.346-2.926,1.039s-1.022,1.688-1.022,2.979c0,1.293,0.341,2.283,1.022,2.971s1.657,1.031,2.926,1.031
					c1.258,0,2.222-0.344,2.892-1.031c0.669-0.688,1.004-1.678,1.004-2.971c0-1.303-0.335-2.299-1.004-2.986
					C783.689,845.135,782.726,844.791,781.468,844.791z M778.102,837.281c0,1.047,0.291,1.852,0.872,2.416
					c0.582,0.563,1.413,0.846,2.494,0.846c1.058,0,1.874-0.283,2.45-0.846c0.576-0.564,0.864-1.369,0.864-2.416
					c0-1.045-0.288-1.848-0.864-2.406s-1.393-0.838-2.45-0.838c-1.081,0-1.912,0.283-2.494,0.848
					C778.393,835.447,778.102,836.248,778.102,837.281z"/>
				<path clip-path="url(#SVGID_2_)" fill-rule="evenodd" clip-rule="evenodd" fill="#B9F9F7" d="M209.3,1068.365
					c0,18.199-14.8,33.1-33,33.1c-18.3,0-33.1-14.9-33.1-33.1c0-18.301,14.8-33.1,33.1-33.1
					C194.5,1035.266,209.3,1050.064,209.3,1068.365z"/>
				<path clip-path="url(#SVGID_2_)" fill="#1A303A" d="M335.813,966.084v-4.865c1.081,0.506,2.115,0.885,3.103,1.137
					c0.986,0.252,1.963,0.379,2.926,0.379c2.021,0,3.596-0.561,4.725-1.684c1.128-1.121,1.791-2.787,1.991-4.996
					c-0.799,0.588-1.651,1.027-2.556,1.32c-0.905,0.295-1.887,0.441-2.943,0.441c-2.691,0-4.863-0.785-6.514-2.354
					s-2.477-3.633-2.477-6.195c0-2.832,0.92-5.1,2.759-6.805c1.839-1.703,4.304-2.555,7.395-2.555c3.431,0,6.087,1.156,7.968,3.473
					c1.879,2.314,2.82,5.588,2.82,9.818c0,4.348-1.1,7.764-3.297,10.25c-2.197,2.484-5.211,3.727-9.043,3.727
					c-1.233,0-2.414-0.09-3.543-0.273C337.999,966.721,336.895,966.447,335.813,966.084z M344.187,953.41
					c1.187,0,2.079-0.385,2.679-1.154s0.899-1.924,0.899-3.465c0-1.527-0.3-2.68-0.899-3.455s-1.492-1.162-2.679-1.162
					c-1.188,0-2.08,0.387-2.68,1.162c-0.599,0.775-0.899,1.928-0.899,3.455c0,1.541,0.301,2.695,0.899,3.465
					C342.106,953.025,342.999,953.41,344.187,953.41z"/>
				<path clip-path="url(#SVGID_2_)" fill-rule="evenodd" clip-rule="evenodd" fill="#B9F9F7" d="M288.5,742.766
					c0,18.299-14.8,33.1-33.1,33.1c-18.3,0-33.1-14.801-33.1-33.1c0-18.201,14.8-33,33.1-33
					C273.7,709.766,288.5,724.564,288.5,742.766z"/>
				<path clip-path="url(#SVGID_2_)" fill="#1A303A" d="M159.73,1074.676h5.993v-17.01l-6.152,1.27v-4.617l6.117-1.27h6.451v21.627
					h5.993v4.689H159.73V1074.676z M203.981,1066.232c0,4.361-0.94,7.725-2.82,10.092c-1.88,2.369-4.548,3.553-8.003,3.553
					c-3.467,0-6.14-1.184-8.02-3.553c-1.88-2.367-2.82-5.73-2.82-10.092c0-4.371,0.94-7.74,2.82-10.107
					c1.88-2.369,4.553-3.553,8.02-3.553c3.455,0,6.123,1.184,8.003,3.553C203.041,1058.492,203.981,1061.861,203.981,1066.232z
					 M197.194,1066.18c0-3.289-0.309-5.607-0.925-6.953c-0.617-1.346-1.654-2.018-3.111-2.018s-2.497,0.672-3.12,2.018
					c-0.623,1.346-0.934,3.664-0.934,6.953c0,3.326,0.312,5.67,0.934,7.033c0.623,1.363,1.663,2.045,3.12,2.045
					c1.445,0,2.479-0.682,3.103-2.045C196.883,1071.85,197.194,1069.506,197.194,1066.18z"/>
				<path clip-path="url(#SVGID_2_)" fill-rule="evenodd" clip-rule="evenodd" fill="#B9F9F7" d="M241.6,476.965
					c0,18.201-14.8,33.101-33.1,33.101c-18.2,0-33-14.899-33-33.101c0-18.299,14.8-33.1,33-33.1
					C226.8,443.865,241.6,458.666,241.6,476.965z"/>
				<path clip-path="url(#SVGID_2_)" fill="#1A303A" d="M238.931,749.076h5.993v-17.01l-6.152,1.27v-4.619l6.116-1.268h6.452v21.627
					h5.993v4.689h-18.402V749.076z M263.948,749.076h5.993v-17.01l-6.152,1.27v-4.619l6.116-1.268h6.452v21.627h5.993v4.689h-18.402
					V749.076z"/>
				<path clip-path="url(#SVGID_2_)" fill="#1A303A" d="M192.03,483.276h5.993v-17.01l-6.151,1.269v-4.617l6.116-1.27h6.452v21.628
					h5.993v4.688H192.03V483.276z M223.29,482.977h11.581v4.988h-19.125v-4.988l9.607-8.479c0.857-0.775,1.492-1.533,1.904-2.273
					c0.411-0.74,0.617-1.51,0.617-2.309c0-1.234-0.414-2.228-1.243-2.979c-0.828-0.752-1.93-1.128-3.305-1.128
					c-1.058,0-2.215,0.227-3.472,0.678c-1.258,0.453-2.603,1.126-4.037,2.02v-5.782c1.527-0.505,3.038-0.89,4.53-1.155
					c1.492-0.264,2.955-0.396,4.389-0.396c3.149,0,5.597,0.693,7.342,2.08s2.618,3.32,2.618,5.8c0,1.434-0.37,2.771-1.11,4.011
					c-0.741,1.239-2.298,2.898-4.671,4.979L223.29,482.977z"/>
			</g>
		</g>
	</g>
</g>
<g id="Page_38_1_">
</g>
</svg>
