<?xml version="1.0" encoding="utf-8"?>
<!-- Generator: Adobe Illustrator 16.0.0, SVG Export Plug-In . SVG Version: 6.00 Build 0)  -->
<!DOCTYPE svg PUBLIC "-//W3C//DTD SVG 1.1//EN" "http://www.w3.org/Graphics/SVG/1.1/DTD/svg11.dtd">
<svg version="1.1" xmlns="http://www.w3.org/2000/svg" xmlns:xlink="http://www.w3.org/1999/xlink" x="0px" y="0px"
	 width="1209.969px" height="1177.965px" viewBox="0 0 1209.969 1177.965" enable-background="new 0 0 1209.969 1177.965"
	 xml:space="preserve">
<g id="Page_1_1_">
</g>
<g id="Page_2_1_">
</g>
<g id="Page_3_1_">
</g>
<g id="Page_4_1_">
</g>
<g id="Page_5_1_">
</g>
<g id="Page_6_1_">
</g>
<g id="Page_7_1_">
</g>
<g id="Page_8_1_">
</g>
<g id="Page_9_1_">
</g>
<g id="Page_10_1_">
</g>
<g id="Page_11_1_">
</g>
<g id="Page_12_1_">
</g>
<g id="Page_13_1_">
</g>
<g id="Page_14_1_">
</g>
<g id="Page_15_1_">
</g>
<g id="Page_16_1_">
</g>
<g id="Page_17_1_">
</g>
<g id="Page_18_1_">
</g>
<g id="Page_19_1_">
</g>
<g id="Page_20_1_">
</g>
<g id="Page_21_1_">
</g>
<g id="Page_22_1_">
</g>
<g id="Page_23_1_">
</g>
<g id="Page_24_1_">
</g>
<g id="Page_25_1_">
</g>
<g id="Page_26_1_">
</g>
<g id="Page_27_1_">
	<g id="Page_27">
		<g enable-background="new    ">
			<g>
				<defs>
					<rect id="SVGID_57_" y="-0.035" width="1210" height="1178"/>
				</defs>
				<clipPath id="SVGID_2_">
					<use xlink:href="#SVGID_57_"  overflow="visible"/>
				</clipPath>
				
					<rect y="0.065" clip-path="url(#SVGID_2_)" fill-rule="evenodd" clip-rule="evenodd" fill="#FFFFFF" width="1210" height="1177.999"/>
				<path clip-path="url(#SVGID_2_)" fill-rule="evenodd" clip-rule="evenodd" fill="#FFFFFF" d="M460.5,425.565
					c-0.7,0.8-1.3,1.7-2.2,2.2c-5.7,3.5-11.6,6.3-18.399,7.199c-6.5,0.801-12.9,1.9-19.4,2.601c-3.7,0.399-7.5,0.101-11.3-0.101
					c-0.7-0.1-1.4-1.1-2.101-1.6c0.7-0.6,1.301-1.3,2.101-1.699c0.7-0.301,1.5-0.201,2.3-0.201c9.4-0.799,18.8-1.199,28.1-2.399
					c4.601-0.7,9-2.8,13.4-4.3c2.4-0.801,4.6-1.801,6.9-2.7C460.1,424.965,460.3,425.266,460.5,425.565z"/>
				<path clip-path="url(#SVGID_2_)" fill-rule="evenodd" clip-rule="evenodd" fill="#FFFFFF" d="M1031.9,883.266
					c26.399,46.5,25.399,107.199-2.5,132.299c-28,23.5-72.2,2.602-98.5-43.398c-26.301-44.102-24.7-96.701,3.199-120.602
					C962,825.865,1005.7,838.564,1031.9,883.266z"/>
				<path clip-path="url(#SVGID_2_)" fill="none" stroke="#1A77BC" stroke-width="2.0659" stroke-miterlimit="7.6613" d="
					M1031.9,882.766c26.399,46.5,25.399,107.199-2.5,132.4c-28,23.398-72.2,2.5-98.5-43.5c-26.301-44.102-24.7-96.701,3.199-120.602
					C962,825.365,1005.7,838.064,1031.9,882.766z"/>
				<polygon clip-path="url(#SVGID_2_)" fill-rule="evenodd" clip-rule="evenodd" fill="#FFFFFF" points="871.1,1108.365 
					1021.2,1029.965 1021.2,872.865 871.1,946.965 				"/>
				<polyline clip-path="url(#SVGID_2_)" fill="none" stroke="#1A77BC" stroke-width="2.0659" stroke-miterlimit="7.6613" points="
					871.1,1108.365 1021.2,1029.965 1021.2,872.865 871.1,946.965 				"/>
				<polygon clip-path="url(#SVGID_2_)" fill-rule="evenodd" clip-rule="evenodd" fill="#FFFFFF" points="719.8,876.965 
					871.1,816.266 1021.2,872.965 				"/>
				<polyline clip-path="url(#SVGID_2_)" fill="none" stroke="#1A77BC" stroke-width="2.0659" stroke-miterlimit="7.6613" points="
					719.8,876.965 871.1,816.266 1021.2,872.965 				"/>
				<polygon clip-path="url(#SVGID_2_)" fill-rule="evenodd" clip-rule="evenodd" fill="#FFFFFF" points="788.3,908.666 
					892.2,865.166 903.6,870.064 877.5,882.166 934.7,905.266 959,893.666 970.9,897.865 871.1,946.965 				"/>
				<polyline clip-path="url(#SVGID_2_)" fill="none" stroke="#1A77BC" stroke-width="2.0659" stroke-miterlimit="7.6613" points="
					788.3,908.666 892.2,865.166 903.6,870.064 877.5,882.166 934.7,905.266 959,893.666 970.9,897.865 871.1,946.965 				"/>
				
					<line clip-path="url(#SVGID_2_)" fill="none" stroke="#1A77BC" stroke-width="2.0659" stroke-miterlimit="7.6613" x1="871.1" y1="816.266" x2="871.1" y2="873.965"/>
				<path clip-path="url(#SVGID_2_)" fill="none" stroke="#1A77BC" stroke-width="2.0659" stroke-miterlimit="7.6613" d="
					M888.7,920.266c0,6.299-8,11.5-17.9,11.5c-9.899,0-17.899-5.201-17.899-11.5c0-6.4,8-11.6,17.899-11.6
					C880.7,908.666,888.7,913.865,888.7,920.266z"/>
				<polygon clip-path="url(#SVGID_2_)" fill="none" stroke="#1A77BC" stroke-width="2.0659" stroke-miterlimit="7.6613" points="
					871.1,946.965 719.8,876.965 719.8,1030.865 871.1,1108.365 				"/>
				<path clip-path="url(#SVGID_2_)" fill-rule="evenodd" clip-rule="evenodd" fill="#FFFFFF" d="M832.2,977.064
					c26.399,46.4,25.3,107.201-2.601,132.4c-27.899,23.4-72.1,2.5-98.5-43.5c-26.199-44.1-24.6-96.699,3.301-120.699
					C762.2,919.666,805.9,932.365,832.2,977.064z"/>
				<path clip-path="url(#SVGID_2_)" fill="none" stroke="#1A77BC" stroke-width="2.0659" stroke-miterlimit="7.6613" d="
					M832.2,977.064c26.399,46.4,25.3,107.201-2.601,132.4c-27.899,23.4-72.1,2.5-98.5-43.5c-26.199-44.1-24.6-96.699,3.301-120.699
					C762.2,919.666,805.9,932.365,832.2,977.064z"/>
				<polygon clip-path="url(#SVGID_2_)" fill-rule="evenodd" clip-rule="evenodd" fill="#FFFFFF" points="792.6,1000.865 
					772.6,996.865 762.4,1015.965 772.3,1040.465 792.5,1047.365 802.6,1026.865 				"/>
				<polygon clip-path="url(#SVGID_2_)" fill="none" stroke="#1A77BC" stroke-width="2.0659" stroke-miterlimit="7.6613" points="
					792.6,1000.865 772.6,996.865 762.4,1015.965 772.3,1040.465 792.5,1047.365 802.6,1026.865 				"/>
				<polygon clip-path="url(#SVGID_2_)" fill="none" stroke="#1A77BC" stroke-width="2.2923" stroke-miterlimit="7.6613" points="
					996.3,1016.166 926.4,1054.766 924.9,1051.965 994.7,1013.266 				"/>
				<polygon clip-path="url(#SVGID_2_)" fill-rule="evenodd" clip-rule="evenodd" fill="#FFFFFF" points="994.1,1012.365 
					924.3,1050.865 902.2,1011.064 972.1,972.465 				"/>
				
					<rect x="917.4" y="983.365" clip-path="url(#SVGID_2_)" fill="none" stroke="#FF1762" stroke-width="8.6598" stroke-miterlimit="7.6613" width="150.1" height="109.9"/>
				<path clip-path="url(#SVGID_2_)" fill-rule="evenodd" clip-rule="evenodd" fill="#FFFFFF" d="M837.6,616.865
					c-3.3-7.801-6.6-15.699-9.899-23.5c-6.4-14.6-12.8-29.199-19.3-44c1.5-1.199,3-2.5,4.5-3.699
					c24.699-20.101,49.399-40.101,74.199-60.101c11.5-9.399,23.4-18.3,34.5-28.2c5-4.5,9-10.6,7.2-18.3c-1.1-4.7-1-9.2,1.8-13.3
					c1.301-1.9,1.2-3.9,0.601-6.2c-25.8-87.3-51.4-174.7-77.101-262.101c-0.199-0.699-0.399-1.5,0-2.399c0.4,1,0.9,2,1.301,2.899
					c6.3,16.101,12.6,32.301,19.1,48.301c1.5,3.8,3.4,7.4,5.7,10.699c4.399,6.701,9.1,13.101,13.8,19.701l-0.1-0.101
					c2,3.101,4.199,6.2,6.1,9.399c4.5,7.4,8.8,14.9,13.3,22.201c1.4,2.299,3.3,4.5,5.4,6.199c12.5,10.4,25.1,20.6,37.7,31
					c1,0.801,2.199,1.801,2.699,3c1.2,3,3.9,4.4,6.5,4.4c9.101-0.2,16.601,4.199,24,8.4c5.601,3.299,11.4,2.799,17.301,2.799
					c0.6-0.1,1.6-0.799,1.8-1.5c3.1-6.799,6-13.699,9.3-21.199c-2.7,1.199-3.8,2.699-4.4,4.9c-0.399,1.6-0.899,3.399-1.899,4.6
					c-1.8,2-3.3,4-3.5,6.9c-0.2,2.299-2.9,3.5-5.4,2.899c-5.5-1.2-10.8-2.899-15.7-6c-5.3-3.5-11.1-6.101-17.8-5.5
					c-1.5,0.101-3-0.601-2.399-2.5c1.699-5.399,3.399-10.8,5.3-16.2c0.3-0.9,1-2,1.8-2.199c2.9-1,3.8-3.4,4.5-5.9
					c0.8-2.6,2.5-3.4,5-2.9c2.7,0.6,5.5,0.9,8.2,1.5c2,0.5,3.899,1.301,4,4c0,0.6,0.5,1.1,1.399,1.7c0.5-1.7,1.2-3.399,1.5-5.2
					c0.101-0.4-0.8-1.4-1.5-1.6c-5.399-1.801-11-3.301-16.399-5.1c-2.2-0.701-3,0.699-3.9,1.799c-1.8,2.201-3.5,2.201-6.1,1.5
					c-8.3-2.299-14.9-6.699-20.3-13.5c-5.9-7.199-12.601-13.699-18.9-20.6c-1.2-1.3-2.2-3.1-2.8-4.8
					c-2.601-7.7-4.9-15.601-7.5-23.399c-0.5-1.601-1.601-2.9-2.5-4.301c-2-3.3-4-6.5-6.2-9.699c-5.1-7.4-10-15-15.5-22.101
					c-5.1-6.8-7.6-14.3-9.1-22.601c-1.5-8.399-3.4-16.899-9.5-23.6c-0.9-1-1.9-2-3.101-2.699c-8.3-5-17.3-8.701-26.7-10.9
					c-2.199-0.6-3.399-1.6-4.199-3.6c-3.4-8.601-7-17.101-10.4-25.601c-0.9-2.101-1.9-2.8-4.2-2.8c-33.7-0.1-67.399-0.2-101.1-0.4
					c-53.9-0.3-107.8-0.6-161.7-0.9c-35.2-0.1-70.4-0.299-105.6-0.5c-2.601,0-3.101,1.4-3.801,3.201
					c-25.6,68.199-51.3,136.299-76.899,204.5c-15.101,40.399-30.3,80.799-45.601,121.199c-1,2.6-0.699,4,1.601,5.9
					c45.399,37,90.7,74.199,136,111.3c0.8,0.7,1.6,1.399,2.399,2.101c-5.8,8.299-11.5,16.5-17.1,24.699
					c-12.8,18.5-25.6,37-38.4,55.5c-0.6,0.801-1,1.699-1.399,2.5h-84.5c0-177,0-354.1,0-531.199H1020.1v531.199H837.6z"/>
				<path clip-path="url(#SVGID_2_)" fill-rule="evenodd" clip-rule="evenodd" fill="#FFFFFF" d="M469.6,90.965
					c0.2,0.701,0.5,1.301,0.601,2c0.7,3.201,1.899,4.101,5.2,4c9.899-0.5,19.899-0.899,29.899-1.1c13.4-0.3,26.8-0.5,40.101-0.5
					c17.5-0.1,34.899,0.1,52.3,0.1c29.1,0,58.1,0.201,87.1,0.101c15.601-0.101,31.101-0.899,46.7-0.8c20.1,0.1,40.1,0.8,60.3,1.1
					c8.8,0.1,17.601-0.3,26.4,0c2.7,0,5.3,0.301,8-0.199c2.8-0.4,4.399,1.199,5.2,3.799c2,6.5,4.1,12.9,6.1,19.301
					c0.8,2.9,2.1,4,5.6,4.1c14.9,0.7,27,6.801,33.801,20.801c3.1,6.5,5.199,13.399,7.8,20.199c1,2.5-0.7,2.801-3,2.801
					c-1.2-3.9-2.5-7.9-3.7-12c-3.7-12.201-10.8-21.4-23.2-25.601c-5.899-2-12.2-3.101-18.399-4.3c-3.801-0.7-5-1.4-6.2-5.2
					c-1-3.399-2.101-6.8-3.4-10.101c-0.7-1.699-1.899-3.199-2.8-4.699c-0.3,0.1-0.6,0.199-0.9,0.4c0.4,1.5,0.9,3.1,1.4,4.699
					c0.9,3.1,1.9,6.301,3,9.301c0.9,2.5,0,3.699-2.5,3.699c-2.4-0.1-4.9-0.5-7.3-0.8c-0.7-0.101-1.4-0.3-2.101-0.5
					c-0.199,0.3-0.399,0.601-0.6,0.899c1.2,0.701,2.3,1.801,3.6,2.101c2.801,0.7,5.601,1.101,8.5,1.5c12.4,1.601,24.4,4.399,34,13.2
					c3.2,2.9,5.801,6.6,8.601,10c-0.3,0.3-0.7,0.6-1,1c-1.5-1.301-3-2.6-4.4-3.9c-2.1-1.9-4-4.1-6.3-5.699c-3.5-2.5-7-5.4-11-6.701
					c-5.9-2.1-12.1-3.6-18.2-4.299c-17.7-1.9-34.3,3-50.399,10c-23,10-45.101,21.799-66.4,35.1c-1.7,1-3.3,2.1-5,3.199
					c-3.4,2.301-6.5,4.9-10.7,4.601c2.4-2.3,4.9-4.8,7.3-7.399c0.601-0.5,0.601-1.601,0.801-2.5c-0.9,0.1-2.101-0.101-2.601,0.399
					c-8.399,7.399-18.5,5.7-28.3,5.7c-3-0.1-5.9-0.2-8.9-0.301c-2,0-4,0-6.1,0c0-0.399-0.1-0.799-0.1-1.199
					c3.1-0.801,6.199-2,9.3-2.2c8.7-0.5,16.6-3.601,24.7-6.3c19-6.4,38-13.1,57-19.7c11.3-3.8,22-8.8,31.8-15.8
					c3.8-2.7,9-3.6,13.6-5c4.9-1.4,9.8-2.4,14.8-3.5c2.801-0.6,4.2-2.2,4.7-5.2c1-4.8,2.5-9.5,3.8-14.3
					c0.301-0.9,0.601-1.801,1.101-3.301c-5-0.899-9.7-2.5-14.4-2.6c-20.8-0.4-41.6-0.3-62.399-0.4c-5,0-9.9,0.4-14.9,0.301
					c-9.2-0.2-18.4-0.801-27.6-0.9c-8.601,0-17.101,0.6-25.7,0.9c-19.9,0.6-39.601-0.2-59.4-0.9c-12.2-0.4-24.5,0.2-36.8,0.2
					c-8,0-16-0.399-24-0.399c-13.1,0-26.2,0.199-39.3,0.299c-9.101,0-18.2-0.299-27.3,0c-4.301,0.101-8.7,1.101-13.101,1.801
					c-2,0.4-2.399,1.699-1.8,3.8c3.1,10.3,4.3,21,5.3,31.601c0.4,3.699-2.6,4.899-4.1,7.199c-0.601,0.9-1.2,1.9-1.4,2.801
					c-1.3,5.899-2.5,11.6-3.6,17.5c-1.8,9.399-4.2,18.799-4.4,28.699c-0.1,10.301,2.3,20,4,29.9c1.3,7.1,2.4,14.4,3.601,21.6
					c0,0.1,0,0.2,0,0.301c-0.301,1.5-0.601,3-0.9,4.5c-1.5-0.4-2.9-0.801-4.4-1.301c-0.6-0.199-1.1-0.6-1.6-0.9
					c0.4,7.601,3.9,13.5,9.8,18c0.601,0.5,1.3,1,2,1.201c2.2,0.6,2.7,2,2.3,4.399c-3.699,0-7.399,0.2-11-0.101
					c-0.8-0.1-1.899-1.799-2.1-2.899c-0.8-3.399-3.1-5-6.1-5.899c-1.101-0.4-2.101-0.701-3.101-1.101
					c-8.6-3.101-9.899-2.3-17.1-13.601c-1,2-2,3.601-2.601,5.4c-2.6,8.1-4.8,16.301-7.6,24.4c-2.6,7.5-5.6,14.8-8.6,22.1
					c-0.7,1.9-0.9,3.4,0.3,5c0.5,0.6,0.8,1.4,1.399,1.9c8,7.9,9.9,18.199,11.5,28.699c0.7,4.5,1.5,9,2.5,13.4c1,4.7,2.9,8.9,5.5,13
					c2.2,3.301,2.9,7.7,3.7,11.7c1.2,5.899,2.5,11.601,5.601,16.8c2.199,3.7,2,7.301-0.7,10.801c-4.101,5.299-6,11.6-7.5,18
					c-0.101,0.5,0,1.6,0.1,1.699c2.2,0.4,4.5,1,6.7,1c1.1,0,2.7-1.199,3-2.199c0.6-1.801-0.4-2.701-2.5-2.4
					c-2.9,0.5-3.7-0.301-2.4-2.801c1.601-3.199,3.9-5.899,5.801-8.899c1.6-2.5,3.5-5,4.5-7.8c0.899-2.4,1.899-3.9,4.5-3.5
					c3,0.4,4.3-1.2,5.399-3.6c11.101-23.201,13.101-47.5,8.5-72.5c-0.7-3.701-1.399-7.4-2.1-11c0.3-0.101,0.6-0.201,1-0.301
					c1.8,6.4,4.1,12.6,5.2,19.1c2.899,16.5,2,33-2.301,49.201c-1.5,5.5-4.399,10.6-6.6,15.899c-0.5,1.101-2,2.5,0,3.5
					c1.8,0.8,3.3,0.2,4.1-1.7c1.9-4.6,4.101-9.1,5.5-13.8c4.9-17,7.301-34.3,6.801-52c0-3-0.4-6.101-0.601-9.2
					c0.3-0.1,0.601-0.199,0.9-0.3c0.6,1.399,1.6,2.7,1.8,4.101c1.5,19.5,0.2,38.799-5.5,57.699c-1.3,4.2-3.4,8.2-5.1,12.301
					c-0.4,0.899-0.801,1.799-1.5,3.5c3.6,0,6.5,0,9.399,0c4.2-0.101,8.5-0.301,12.7-0.201c9.2,0.201,18.4,0.5,27.7,0.801
					c2.399,0.1,2.899-1.6,3.2-3.4c1.5-9.6,3-19.199,4.6-28.8c4.2-25,8.5-50,12.7-75.101c0.1-0.799,0.6-1.899,0.3-2.5
					c-0.4-0.899-1.4-1.899-2.2-1.899c-3.3-0.2-6.7-0.2-10-0.101c-4.6,0.101-9.2,0.301-13.899,0.4c-2.5,0.1-5.101-0.199-7.7-0.3
					c-7.9,0-15.8,0-23.8,0c-0.601,0-1.101,0.2-1.7,0.2c-1.101,0-2.9,0.3-3.101-0.1c-0.5-1-0.6-2.601-0.1-3.601
					c0.9-1.8,1-2.899-0.8-4.5c-2.5-2.3-1.2-6.2,1.8-7.5c1.5-0.601,3.1-2.3,3.6-3.8c1.2-3.5,1.801-7.301,2.7-10.9
					c0.4-1.699,0.8-3.5,3.101-3.3c1.699,0.101,2.8,0.601,2.399,2.7c-1.2,6.6-2.2,13.1-3.5,19.6c-0.8,4,2.8,7.6,6.9,7.301
					c5.5-0.301,11.1,0,16.6,0c1.7,0,3.5,0.1,5.3,0.1c3,0.1,6.101,0.199,9.101,0.199c1.2,0,2.6,0.101,3.6-0.299
					c5.2-2.701,10.2-0.201,15.3,0.199c0.9,0.1,2,0.7,2.601,0.301c4.2-2.301,8.2-0.601,12.399,0.399c1.801,0.5,3.7,0.5,5.5,0.601
					c4.4,0.299,8.7,0.699,13,0.899c2.2,0.101,4.301-0.2,6.5-0.399c1-0.201,2.101-0.5,3.2-0.5c8.4,0.1,16.8,0.399,25.2,0.399
					c5.3,0,10.6-0.601,16-0.5c3.2,0,6.5,0.601,9.7,0.899c1,0.101,2.3,0.301,3.1-0.1c3.7-1.8,7.4-1,11.101-0.5
					c4.5,0.5,9.1,0.5,13.6,0.801c2.4,0.199,4.9,0.399,7.3,0.5c6.101,0.1,12.3,1,18-0.201c3.9-0.799,7-2.899,11.2-0.6
					c1.6,0.801,4.4-0.8,6.6-1.3c2.2-0.5,4-1.5,4.5-4c0.2-0.7,1-1.399,1.601-1.7c4.899-1.5,7.1-5.3,8.399-9.9
					c0.801-2.699,3.301-4.299,5.601-3.799c-2.5,6.5-2.8,14.199-10.3,18.1c2.5,0.3,5.199,1.4,7.399,0.8c2-0.601,3.601-2.899,4.9-4.8
					c1.1-1.7,3.2-3.7,0.5-6c-0.4-0.2-0.4-1.1-0.2-1.6c1.6-4.701,3.2-9.301,4.9-13.9c0.3-0.7,1.5-1.4,2.399-1.5
					c2.5-0.5,5.101-1.1,7.7-1.1c9.9,0.199,19.9,0.6,29.9,0.799c3.8,0.101,7.699-0.1,11.6,0c4.1,0.101,4.5,0.701,5.4,4.701
					c1.699,7.199,3.399,14.399,5.399,21.6c0.3,1.199,2,2,3.4,3.3c-0.601,2.399-2.9,4.8-5.9,5c-3.6,0.2-7.2,0-10.7,0
					c-4.899,0.101-9.8,0.7-14.6,0.2c-9.2-1-18.5,0.1-27.7,0c-1.399-0.1-2.7-0.6-4.1-0.7c-1.9,0-3.5,0.5-3.2,2.8
					c1.6,13.6,3.4,27.2,4.9,40.801c2.5,21.6,4.8,43.1,7.199,64.699c0.4,4,0.9,4.2,4.801,4.2c11.899,0.2,23.699,0.5,35.6,0.8
					c3.4,0,6.7,0,10.5,0c-4.2-14.3-6-28.4-5-42.8c0.2,0.899,0.3,1.8,0.4,2.7c0.199,1,0.3,2,0.5,3c1.899,11.5,3.8,23.1,5.699,34.6
					c0.2,1.7,1,2.9,3.301,2.7c0-0.601,0.1-1.2-0.101-1.8c-4.3-15.301-5.2-31-6.1-46.7c-0.8-13.601-1.4-27.101,1.5-40.601
					c1.899-8.5,3-17.399,8.1-24.699c2.2-3.1,5.7-5.4,8.601-7.9c1.6-1.3,3.199-2.5,4.899-3.6s3.5-1.9,5.2-2.801
					c0.6,2.101,1.5,4.301,1.7,6.4c0,0.6-1.9,1.6-3.101,1.9c-3.399,1-7,1.3-10.199,2.699c-1.801,0.701-3.5,2.601-4.301,4.5
					c-6.5,16-9.3,32.5-8.8,49.9c0.5,18.5,1.5,37,4.9,55.301c0.2,1.1,0.5,2.1,0.7,3.199c0.8,3,2.699,4.4,5.899,4.2
					c2.601-0.3,5.101-0.399,7.7-0.601c2.6-0.1,4-1.299,4.4-3.899c0.8-5.601,1.699-11.101,2.6-16.7c0.8-4.9,2.3-9.3,5.6-13.199
					c1.601-1.801,2.101-4.9,2.4-7.5c0.9-7.9,1.7-15.9,2.2-24c0.5-6.5,3.3-11.9,6.899-17.101c1-1.5,1.801-3.101,2.7-4.601
					c1.7-2.6,1.9-5.299,0.9-8.299c-2.8-9.201-5.8-18.5-8.3-27.801c-1.601-6.1-2.601-12.4-3.5-18.699
					c-0.801-5,0.399-9.701,3.8-13.601c1.8-2.101,3.1-1.899,4.1,0.5c2.4,5.8,4.8,11.5,7.101,17.3c0.1,0.2,0.3,0.4,0.199,0.6
					c-2.1,3.201,0.2,6.5-0.699,10.101c-1.101-2.101-2.301-4.101-3.4-6.101c-0.3,0.101-0.6,0.201-0.8,0.201
					c1.899,9.299,5,18.199,7.6,27.299c2.7,9.201,7.2,17.4,11.9,25.601c-2.9,1.3-6.7-2.7-8.9,3c-0.5-1.2-1-2.3-1.5-3.5
					c-0.399,0.3-0.899,0.601-1.3,0.899c1.2,3.5,2,7.101,3.7,10.301c1.2,2.3,1.1,4.1-0.3,5.699c-2.101,2.4-1.801,4.5-0.101,6.9
					c0.601,0.801,1.4,2.1,1.101,2.801c-0.301,0.6-1.7,1-2.7,1.299c-0.8,0.201-1.7-0.1-2.601,0c-1,0.101-2,0.301-3.1,0.5
					c0.3,1.101,0.6,2.101,0.9,3.201c0.1,0.299,0.3,0.699,0.6,1.199c-0.8,0.7-1.6,1.301-2.4,2c0.101,0.2,0.2,0.4,0.2,0.6
					c1.2-0.299,2.4-0.6,3.5-1c0.9,1.101,1.7,2.301,2.9,3.801c-0.9,0.199-1.9,0.699-2.3,0.4c-2.7-2.201-5.101,0.399-7.7,0.399
					c-0.3,0-1.2,2.101-0.9,2.399c2.101,2.201,1.4,6.201,5.3,7.5c1,0.301,1.801,3.5,1.601,5.301c-0.2,1.6-2.2,1.9-3.601,0.699
					c-2.6-2.299-4.199-5.1-4.199-8.699c0-0.801-0.2-1.7-0.301-3.4c-2.699,2.9-5,5.1-7,7.5c-0.3,0.4,0.2,1.5,0.2,2.2
					c0.101,3,0.101,6,0,9c-0.1,1.8-0.5,3.5-0.7,4.8c2.101,1.301,3.601,2.301,5.101,3.2c0.2-0.2,0.399-0.399,0.7-0.601
					c-0.801-1.799-1.5-3.699-2.2-5.6c-0.3-0.699-0.5-1.6-0.4-2.3c0.101-0.8,0.601-1.5,1-2.3c0.601,0.3,1.5,0.5,1.9,1
					c1.8,1.8,3.8,3.199,4.5,6c0.399,1.5,2.399,3.1,4,3.6c0.899,0.301,2.899-1.4,3.7-2.6c2.5-3.7,2.399-3.801-0.301-9.5
					c3.801,0.5,7.101,0.9,10.5,1.199c0.101,0.201,0-0.1-0.1-0.5c-0.1-0.399-0.3-0.899-0.4-1.399c4.7,0.101,9,1,10.601,6.601
					c0.8,2.6,2.3,5.1,5,6.899c1.7,1,3.1,3.5,2.1,5.101c1.8,4.6,4.8,8.5,4.601,12.299c-0.301,4.9,2.1,8.301,3.699,12
					c0.9,2.101,3.2,3.801,5.2,5c2,1.201,2.5,2.701,2.2,4.4c-0.3,1.1-1.5,2-2.4,2.801c-2.399,1.799-5.199,3.199-7.399,5.299
					c-1.7,1.601-3,3.601-5.9,1.701c3,2,5.601,4.1,9.3,3.1c1.9-0.4,4-0.2,5.9-0.5c1.4-0.301,3.7-0.6,4.1-1.5
					c1-2.1,3.301-4.2,1.601-7.1c-0.8-1.4-1.5-3.201-1.4-4.701c0.5-10.199-1.5-20-3.8-29.699c-6.2-27.301-12.5-54.5-19.6-81.5
					c-8.601-33.1-18-66-27.5-98.801c-6.5-22.699-13.801-45.1-20.7-67.699c-0.5-1.7-1.2-3.5-0.9-5.2c0.2-1.5,1.601-2.8,2.5-4.2
					c1.2,0.801,3,1.4,3.5,2.5c1.601,3.4,2.9,7,4,10.6c11.3,36.801,22.8,73.5,33.7,110.4c8.2,27.9,15.8,56.1,22.9,84.301
					c6.6,25.899,12.199,51.899,18.199,77.899c0.5,2.2,0.4,4.5,0.2,6.7c-0.3,3.5-0.899,6.9-1.2,10.3c-0.5,4.2-3.5,6.601-7.5,6.101
					c-9.699-1-19.3-1.9-29-2.801c-12.1-1-24.1-2-36.199-2.699c-10-0.601-20.101-0.701-30.2-1.201c-9.2-0.399-18.4-1.199-27.601-1.6
					c-12.699-0.699-25.5-1.3-38.199-1.8c-18-0.601-36.101-1.101-54.101-1.8c-16.5-0.6-33.1-1.4-49.6-2.2
					c-8-0.399-15.9-1.3-23.9-1.601c-7.7-0.299-15.3-0.1-22.899-0.399c-12.301-0.5-24.5-1.399-36.7-1.899
					c-10.9-0.4-21.8-0.301-32.7-0.601c-7.2-0.2-14.4-0.7-21.7-1c-11.6-0.601-23.3-1.101-35-1.5c-2.1,0-4.3,0.5-6.5,0.7
					c-2,0.199-4.3,0.8-6.1,0.1c-7-2.4-14.101-1.4-21.2-1.5c-14.7-0.3-29.4-0.199-44.2-0.3c-6.3,0-12.6-0.399-19-0.399
					c-6.2,0-12.5,0.299-18.7,0c-5.5-0.201-11-1-16.399-2c-4.2-0.701-5.101-2.5-3.8-6.601c3.5-10.7,7-21.5,10.699-32.2
					c17.7-51.699,37.7-102.5,58-153.199c10.301-25.9,20.2-51.9,30.7-77.701c7.2-18,14.9-35.699,22.7-53.399
					c1.4-3.101,4.1-5.601,6.2-8.3C469,90.865,469.3,90.965,469.6,90.965z M670.5,335.465c-0.8-6.299-3.7-12.5-10.3-16
					c-4-2.199-8.5-3.199-12.7-5c-2.3-1.1-4-0.299-6,0.9c-2.8,1.7-5.8,3.301-9,4.301c-7.6,2.399-12.3,7.399-13.3,15.1
					c-0.9,6.8,2.2,12.4,7.6,16.5c9.9,7.6,20.4,9.1,31.601,3.1C665.6,350.565,669.9,344.766,670.5,335.465z M470,106.065
					c-0.4-0.2-0.8-0.3-1.2-0.5c-0.6,1.101-1.5,2-2,3.101c-2.2,5-4.3,10-6.399,15c-6.9,16.5-14.101,33-20.7,49.6
					c-8.8,22.199-17,44.5-25.601,66.699c-8.3,21.801-17.1,43.5-25.3,65.4c-7.5,20-14.8,40.1-21.7,60.4
					c-4.6,13.5-8.5,27.199-12.6,40.9c-0.5,1.6-0.4,3.5-0.6,5.299c0.3,0.101,0.6,0.101,0.899,0.201c0.5-0.9,1-1.801,1.4-2.801
					c4.399-12.4,8.7-24.8,13.1-37.199c6-16.601,11.9-33.201,18.101-49.801c8.399-22.6,17-45.199,25.6-67.8
					c5.7-14.8,11.7-29.5,17.5-44.2c7.7-19.699,15.4-39.3,23.1-59c4.7-11.9,9.5-23.699,14.101-35.6
					C468.8,112.666,469.2,109.266,470,106.065z M424.7,331.865c-0.4,0.1-0.7,0.2-1.101,0.301c0.301,1.1,0.5,2.299,0.7,3.5
					c0.601,2.899,1.101,5.699,1.601,8.6c0.3,1.4,0.5,2.699,0.899,4.1c2,8.4,5.9,16.1,9.9,23.7c1.2,2.2,2.399,4.399,1.1,7
					c-0.3,0.601,0.101,1.601,0.4,2.3c2,3.7,4,7.5,6.1,11.2c0.3,0.5,0.8,0.8,1.2,1.101c0.1-1.201-0.3-2.101-0.6-3
					c-1.601-4.201-3.101-8.5-4.601-12.801c-1.2-3.8-2.1-7.8-3.5-11.5c-1.3-3.199-3.2-6.199-4.6-9.3c-2.5-5.7-5.2-11.3-5.5-17.8
					C426.6,336.766,425.4,334.365,424.7,331.865z M833.5,398.266c-0.4,0-0.9,0-1.4,0c0,2.8-0.5,5.6-0.1,8.3
					c0.9,6.5,2.2,12.899,3.5,19.2c0.4,2.1,1,4.1,1.8,6c0.9,2.5,3.101,3.3,5.9,3.3C838,423.166,836.4,410.565,833.5,398.266z
					 M412.8,305.065c4.101,7.601,8.101,15,12,22.2C425.8,322.865,418.4,308.766,412.8,305.065z"/>
				<path clip-path="url(#SVGID_2_)" fill-rule="evenodd" clip-rule="evenodd" fill="#FFFFFF" d="M561.1,173.766
					c2.2-2.7,4.4-5.301,6.7-8.1c-2.5-3.301-4.3-3-8.8-2.4c-5.7,0.9-8,3.5-7.9,9c0,0.9-0.5,2-1,2.8c-0.6,0.8-1.5,2.101-2.399,2.101
					c-1,0.1-2.601-0.601-3.2-1.5c-0.5-0.801-0.2-2.4,0.3-3.5c0.601-1.701,1.7-3.201,2.4-5c0.6-1.701-0.3-2.5-2.101-2.601
					c-2.6-0.2-5.1-0.5-7.699-0.8c-2.5-0.301-3.7,0.9-4,3.199c-0.4,2.701-0.7,5.4-1.101,8c-0.2,1.601-0.899,2-2.6,1.9
					c-10-0.4-19.9-0.699-29.9-0.9c-7.3-0.1-14.5,0.101-21.7,0.201c-2.1,0-2.6-1.301-2.1-2.9c0.7-3,1.6-6,2.6-8.9
					c2.601-7,4.801-14,4.9-21.6c0-3.5,1.9-6.4,4.9-8.4c4.899-3.4,10.3-4.8,16.3-4.8c17.2-0.101,34.399-0.399,51.6-0.5
					c15.2-0.101,30.4-0.101,45.7-0.101c5.5,0,10.7,2.4,16.5,0.801c3.6-0.9,7.8,0.699,11.7,0.9c2.399,0.1,4.7-0.301,7.1-0.301
					c2.8,0,5.7,0.2,8.5,0.1c7.8,0,15.7-0.299,23.5-0.1c3.3,0.1,6.601,1.2,9.9,1.5c4,0.4,8,0.6,12.1,0.5c3.4,0,6.8-0.4,10.3-0.6
					c2.4-0.1,3.9,1.199,4.801,3.3c1.899,4.8,3.8,9.601,5.699,14.399c0.2,0.601,0.5,1.201,1,2.5c3.7-2,7.2-3.799,10.801-5.699
					c3.899-2.1,7.8-4.301,11.699-6.4c0.301-0.199,0.9-0.3,1-0.5c0.4-0.9,0.7-1.8,1-2.6c-1-0.301-2.3-1-2.899-0.6
					c-2.3,1.6-4.5,1.799-7.3,1.199c-2.301-0.6-4.9-0.199-7.4,0.2c3.3,0.5,6.6,1,10,1.5c0.1,0.3,0.3,0.601,0.5,0.899
					c-0.9,0.9-1.6,2.101-2.6,2.701c-2.9,1.699-5.9,3.199-8.9,4.6c-0.5,0.199-1.9-0.301-2.2-0.9c-2.1-4-4-8.1-6-12.3
					c-1-2.2,0.2-2.5,2.101-2.399c9,0.6,18,0.6,27-0.101c5.699-0.399,10.8,0.8,15,4.5c3,2.601,5.699,3.2,9.1,1.3
					c1-0.6,2.2-0.8,3.3-1.199c0.101,0.299,0.2,0.6,0.4,0.799c-3.5,1.5-6.9,3.301-10.5,4.5c-10.601,3.701-21.3,7-31.9,10.601
					c-14.7,5-29.2,10.5-44,15.101c-17.6,5.6-35.899,6.699-54.2,6.1c-8.199-0.301-16.5-0.1-24.699-0.2
					c-6.601-0.101-13.2-0.5-19.9-0.3c-6.2,0.199-12.3,0.9-18.5,1.4c-0.8,0.1-1.5,0.199-2.3,0.299
					C561.5,174.266,561.3,173.965,561.1,173.766z M646.5,149.965c-0.3,0-0.6,0.101-0.9,0.201c0,0.6-0.199,1.5,0,2
					c1,1.699,2.101,3.399,3.301,4.899c1.3,1.8,3.5,3.2,4.199,5.2c0.9,2.6,2.301,2.9,4.4,2.199c1.9-0.5,3.7-1.399,5.6-1.899
					c1.101-0.399,2.4-0.8,3.5-0.601c4.2,0.5,11.101-3.1,12.801-6.899c0.1-0.3-0.101-0.7-0.2-1c-5.2-0.2-7,6.3-12.5,5.8
					c1.1-2.3,2.399-4.199,3.8-6.1c4.1-5.301,3.1-11.9-2.9-15.1c-9.1-4.9-18.1-4.9-26.8,1.199c-8.3,5.801-7.6,16.1,1.5,20.5
					c-0.7-1.199-1.1-2-1.6-2.8c-3.4-5.8-1.9-10.7,4.1-13.399c2.5-1.101,5-2,7.601-2.701c6.199-1.6,11.199,0.9,15.699,4.9
					c1.7,1.5,2,3.4-0.3,4.6c-1.399,0.801-3.2,0.9-4.899,1.4c-2.601,0.801-5.2,1.7-7.801,2.6c-2.3,0.9-4,0.701-5.399-1.699
					C648.9,151.965,647.5,151.065,646.5,149.965z M509.2,148.865c-0.8,3.301,0.5,5.7,3.899,8.801c2,1.799,3.9,1.399,6,0.299
					c2-0.899,4.2-1.899,6.301-2.6c1.399-0.4,3.3-0.1,4.199-0.9c2.301-2.299,4.5-4.899,6.301-7.699c0.699-1.2,0.6-3.6-0.2-4.7
					c-1.601-2.399-3.601-4.7-6-6.3c-6.5-4.4-13.101-2.4-19.5,0.4c-4.3,1.799-8,4.5-9.5,9.1c-0.601,1.5,0,3.6,0.6,5.199
					c0.7,1.4,2,1.4,2.8-0.299c0.801-1.601,1.601-3.4,2.801-4.5c4.1-3.601,9-5.301,14.399-5.9c0.8-0.1,2.2,0.5,2.7,1.199
					c3.9,6,2.8,9.101-3.8,11.801c-0.2,0.1-0.4,0.1-0.601,0.199c-2.5,1.4-4.8,1.4-6.899-1C511.8,150.865,510.5,150.065,509.2,148.865
					z M529.8,158.965c-2.899,3.301-6.5,3.201-10.399,3.601c-4.2,0.399-7.801,0.101-12-1.601c-10-4-15.301-16.1-6.101-24.899
					c0.9-0.7,1.601-1.601,2.3-2.399c-0.199-0.201-0.399-0.4-0.6-0.601c-5.2,3.399-9.8,7.5-12.5,13.2c-1.1,2.199-0.4,4.699,1.5,6.5
					c2.4,2.4,4.7,4.8,7.1,7.199c1,1.101,1.9,2.4,2.9,3.601c-1.1,1.101-1.8,2.2-2.7,2.399c-1.3,0.5-3.1,0.9-4.2,0.301
					c-2.899-1.5-5.5-3.5-8.5-5.6c0.101,0.899,0.101,1.699,0.4,2.399c1.6,2.8,3.2,5.601,4.9,8.399c0.3,0.5,1.1,0.9,1.699,1
					c5.4,0.701,10.5,0.5,15.301-2.799c4.1-2.801,8.399-5.4,13.8-3c1.399,0.6,4,0.899,4.7,0.199
					C529.2,164.766,530.8,162.365,529.8,158.965z M567.8,155.766c1.5-3.4,2.3-6.9,4.3-9.5c4.5-6.1,11.2-7.7,18.5-7.2
					c5.101,0.3,9.2,2.601,11.9,7.2c1.3,2,1.6,3.9,0.1,6c-0.8,1.199-1.3,2.699-2.1,4.3c3.8-0.399,7.6-4.3,6.9-6.7
					c-1.601-5.3-3.9-10.1-9.101-13.1c-7-4-14-3.301-21.3-0.5c-4.7,1.8-7.7,5.199-9.7,9.8c-1.5,3.3-1.899,3.3-5,1.601
					c-1.399-0.801-3.1-1.101-4.6-1.601C561.6,149.166,562.9,154.965,567.8,155.766z M694.6,152.666c0-0.301,0-0.601,0-0.9
					c0.101-6.6,0.101-6.6-6.399-6.7c-4.3,0-5.2,0.899-4.9,5.3c0.3,4.6,0.8,5,5.3,4.6c0.4-0.1,0.9-0.199,1.2-0.199
					c0.8,0.3,1.601,0.699,2.4,1c-0.7,0.699-1.3,1.699-2.101,1.9c-1.5,0.399-3.1,0.299-4.699,0.6c-2.101,0.3-2.101,1.8-1.801,3.4
					c0.301,1.399,0.7,2.6,2.801,2.1c6.8-1.6,8.3-3.301,8.199-10.2C694.6,153.266,694.6,152.965,694.6,152.666z M594.9,149.465
					c-0.5,0.301-0.7,0.5-0.9,0.701c-4.5,4.6-9.6,4.899-14.4,0.799c-0.399-0.299-0.899-0.799-1.199-0.799
					c-1,0.1-2.101,0.199-2.9,0.799c-0.4,0.201-0.5,1.5-0.3,2.101c0.7,1.8,6.3,5.2,8.1,4.601c4-1.201,8.101-2.5,11.9-4.201
					C597.7,152.365,597.5,151.266,594.9,149.465z M703.3,145.065c0.4-0.2,2-0.899,2.2-1.899c0.4-2.301-2-5.801-3.6-6.101
					c-1.5-0.3-3.101-0.899-4.601-1.3c-1.2-0.4-2.7-1.2-3,0.9C693.9,139.565,699.3,145.065,703.3,145.065z M542.4,152.166
					c5.1-2,7.399-6.301,6.399-10.301c-1.1-4.1-2.899-6-5.8-5.5C546.3,141.465,543.5,146.565,542.4,152.166z M584.7,152.266
					c2.5-1.9,4.399-3.301,6.2-4.7c-1.2-1.101-2.301-2.7-3.801-3.2c-1.699-0.699-5.1,2.1-4.899,3.801
					C582.4,149.365,583.5,150.365,584.7,152.266z M516.1,150.666c3.7-0.101,6.801-2,6.2-3.5c-0.399-1.101-1.8-2.4-2.899-2.5
					c-2.5-0.201-5.7,2.5-5.2,4.1C514.5,149.666,515.7,150.365,516.1,150.666z M655.1,152.766c1.7-1.301,3.601-2,3.801-3.1
					c0.3-2-1.4-3.5-3.4-3c-1.5,0.399-2.8,1.899-4.2,2.899C652.4,150.465,653.5,151.465,655.1,152.766z M678.7,142.065
					c4.8-1.101,9.5-2.101,14.3-3.101c-0.1-0.399-0.2-0.699-0.2-1.1C687.7,137.465,683.1,138.965,678.7,142.065z"/>
				<path clip-path="url(#SVGID_2_)" fill-rule="evenodd" clip-rule="evenodd" fill="#FFFFFF" d="M717.8,178.365
					c1.2-0.9,2.3-1.8,3.5-2.5c9.5-5.699,18.9-11.199,28.4-16.9c3.1-1.799,6.1-3.6,9.2-5.399c1.5-0.899,2.699-0.601,2.899,1.399
					c0.5,6.9,1,13.801,1.4,20.701c0.1,2.799-1.3,4.199-4.2,4c-3.2-0.201-6.4,0.1-9.5-0.5c-9-1.5-18-0.201-27-0.101
					c-1.5,0-2.9,0-4.4,0C718,178.865,717.9,178.565,717.8,178.365z M756.5,166.865c-1-2.4-1.5-4.3-2.4-6.1
					c-0.3-0.6-1.899-1.2-2.1-1.1c-0.8,0.799-1.8,2.199-1.6,2.699C751.4,164.465,753,166.266,756.5,166.865z"/>
				<path clip-path="url(#SVGID_2_)" fill-rule="evenodd" clip-rule="evenodd" fill="#FFFFFF" d="M575.5,189.666
					c1.4-0.101,2.8-0.5,4.2-0.4c10.5,0.8,21,1.8,31.6,2.5c11.5,0.6,23,1,34.4,1.5c0.899,0.1,1.8-0.1,2.7,0.1c0.6,0.1,1.1,0.7,1.6,1
					c-0.5,0.6-0.9,1.4-1.5,1.6c-1.4,0.4-2.8,0.801-4.3,0.9c-13.101,0.301-26.101,0-39.101-1.9c-7-1.1-14.1-1.899-21.199-2.899
					c-2.801-0.3-5.5-1-8.301-1.5C575.5,190.266,575.5,189.965,575.5,189.666z"/>
				<path clip-path="url(#SVGID_2_)" fill-rule="evenodd" clip-rule="evenodd" fill="#FFFFFF" d="M923.8,248.865
					c1.7,1.4,3.3,2.801,4.8,4.301c7.9,7.799,15.7,15.799,23.601,23.5c1.899,1.799,4.1,3.6,6.5,4.5c3.399,1.299,3.5,3.299,2.8,6
					C953.5,285.065,924.7,256.565,923.8,248.865z"/>
				<path clip-path="url(#SVGID_2_)" fill-rule="evenodd" clip-rule="evenodd" fill="#FFFFFF" d="M894,236.666c-0.5-1-0.9-2-1.4-2.9
					c-6.199-11-12.5-22-18.699-33.1c-0.301-0.4-0.4-0.9-0.601-1.5c1.101-0.801,2.2-1.601,3.601-2.601c2.199,4.7,4,9.399,6.3,13.8
					c2.7,5.301,5.899,10.301,8.6,15.6c1.601,3.101,2.601,6.601,3.9,9.9c0.6,1.4,1.5,2.7,2.2,4.1c-1.4-1.1-2.7-2.299-4-3.399
					L894,236.666z"/>
				<path clip-path="url(#SVGID_2_)" fill-rule="evenodd" clip-rule="evenodd" fill="#FFFFFF" d="M816.8,267.766
					c0.9-4.2,4.3-5.801,7.3-7.9c2.2-1.6,4.601-3,7-4.3c0.9-0.601,2.9-1,3-0.8c0.7,1.1,0.801,2.5,1,3.699
					c0.2,0.601,0.2,1.201,0.2,2.4c-2.2,1-5.1,2.301-8,3.4c-0.6,0.199-1.7-0.1-2.2-0.5c-1.6-1.7-2.8-1.4-4.199,0.3
					C819.7,265.465,818.2,266.565,816.8,267.766z"/>
				<path clip-path="url(#SVGID_2_)" fill-rule="evenodd" clip-rule="evenodd" fill="#FFFFFF" d="M826.3,144.965
					c-1-2.899-2.2-5.799-3.1-8.699c-0.101-0.6,0.5-2,0.8-2c2,0,4.2-0.1,6.1,0.5c0.601,0.199,0.9,2.6,0.601,3.699
					c-0.7,2.301-1.9,4.4-2.9,6.601C827.3,144.965,826.8,144.965,826.3,144.965z"/>
				<path clip-path="url(#SVGID_2_)" fill-rule="evenodd" clip-rule="evenodd" fill="#FFFFFF" d="M556.2,187.465
					c-2-0.199-3.9-0.5-5.8-0.699c-5.4-0.4-8.301-4.4-11.801-7.7c-1-1-2.399-1.5-4-2.5c0.601-0.2,1.5-0.7,2.101-0.5
					c1.2,0.399,2.5,1,3.399,1.899c3.4,3.601,7.601,5.4,12.4,6.601C554.1,184.965,556.1,185.166,556.2,187.465z"/>
				<path clip-path="url(#SVGID_2_)" fill-rule="evenodd" clip-rule="evenodd" fill="#FFFFFF" d="M889.9,209.666
					c5.3,5.199,8.8,11.5,11.399,18.399C896.2,222.865,892.1,216.965,889.9,209.666z"/>
				<path clip-path="url(#SVGID_2_)" fill-rule="evenodd" clip-rule="evenodd" fill="#FFFFFF" d="M690.9,185.666
					c-5.101,2-9.601,5.899-15.5,4.899c-0.2-0.399-0.301-0.7-0.4-1.101c5.2-1.699,10.3-3.399,15.5-5.1
					C690.6,184.766,690.7,185.166,690.9,185.666z"/>
				<path clip-path="url(#SVGID_2_)" fill-rule="evenodd" clip-rule="evenodd" fill="#FFFFFF" d="M864.1,362.166
					c-1.1,0.799-2.199,1.6-3.3,2.399c-0.3-0.399-0.5-0.8-0.8-1.2c1-0.8,2.1-1.6,3.2-2.4C863.5,361.365,863.8,361.766,864.1,362.166z
					"/>
				<path clip-path="url(#SVGID_2_)" fill-rule="evenodd" clip-rule="evenodd" fill="#1A77BC" d="M670.5,335.465
					c-0.6,9.301-4.9,15.101-12.1,18.9c-11.2,6-21.7,4.5-31.601-3.1c-5.5-4.1-8.5-9.7-7.6-16.5c1-7.7,5.7-12.801,13.3-15.2
					c3.1-0.899,6.1-2.601,9-4.3c2-1.1,3.7-1.9,6-0.9c4.2,1.801,8.7,2.9,12.7,5C666.8,322.965,669.7,329.065,670.5,335.465z"/>
				<path clip-path="url(#SVGID_2_)" fill-rule="evenodd" clip-rule="evenodd" fill="#1A77BC" d="M470,106.065
					c-0.7,3.2-1.1,6.601-2.3,9.7c-4.601,11.9-9.4,23.699-14,35.6c-7.8,19.7-15.4,39.301-23.2,59c-5.8,14.7-11.8,29.4-17.4,44.2
					c-8.699,22.601-17.3,45.2-25.699,67.8c-6.2,16.6-12.101,33.2-18.101,49.801c-4.399,12.399-8.7,24.799-13.1,37.199
					c-0.4,1-0.9,1.9-1.4,2.801c-0.3-0.101-0.6-0.101-0.899-0.201c0.199-1.799,0.1-3.699,0.6-5.299c4.1-13.701,8-27.4,12.6-40.9
					c6.9-20.301,14.2-40.4,21.7-60.4c8.2-21.9,17-43.6,25.4-65.4c8.5-22.199,16.7-44.5,25.5-66.6
					c6.6-16.699,13.8-33.199,20.7-49.699c2.199-5,4.3-10,6.5-15c0.399-1.101,1.3-2,2-3.101C469.2,105.766,469.6,105.865,470,106.065
					z"/>
				<path clip-path="url(#SVGID_2_)" fill-rule="evenodd" clip-rule="evenodd" fill="#1A77BC" d="M424.7,331.865
					c0.7,2.4,1.899,4.9,2,7.4c0.3,6.5,3,12.1,5.5,17.8c1.399,3.101,3.3,6.101,4.6,9.3c1.4,3.7,2.3,7.7,3.5,11.5
					c1.5,4.301,3.101,8.6,4.601,12.801c0.3,0.899,0.699,1.799,0.699,3c-0.399-0.301-1-0.601-1.3-1.101c-2-3.7-4.1-7.5-6.1-11.2
					c-0.3-0.699-0.7-1.699-0.4-2.3c1.4-2.601,0.101-4.8-1-7c-4.1-7.601-8-15.3-10-23.7c-0.399-1.4-0.6-2.699-0.899-4.1
					c-0.5-2.9-1-5.801-1.601-8.7c-0.2-1.101-0.399-2.3-0.7-3.5C424,331.965,424.3,331.965,424.7,331.865z"/>
				<path clip-path="url(#SVGID_2_)" fill-rule="evenodd" clip-rule="evenodd" fill="#1A77BC" d="M833.5,398.166
					c2.9,12.299,4.5,24.899,9.7,36.899c-2.8,0-5-0.8-5.9-3.3c-0.8-1.9-1.399-3.9-1.8-6c-1.3-6.4-2.6-12.801-3.5-19.2
					c-0.4-2.7,0.1-5.5,0.1-8.3C832.6,398.266,833.1,398.266,833.5,398.166z"/>
				<path clip-path="url(#SVGID_2_)" fill-rule="evenodd" clip-rule="evenodd" fill="#1A77BC" d="M412.8,305.065
					c5.601,3.7,13,17.8,12,22.2C420.9,319.965,416.9,312.666,412.8,305.065z"/>
				<path clip-path="url(#SVGID_2_)" fill-rule="evenodd" clip-rule="evenodd" fill="#FFFFFF" d="M659.5,158.465
					c-1.6,0.801-3.3,1.5-4.9,2.301c-0.1-0.4-0.399-0.9-0.5-1.301c1.7-0.6,3.4-1.199,5.101-1.799
					C659.3,157.965,659.4,158.166,659.5,158.465z"/>
				<path clip-path="url(#SVGID_2_)" fill-rule="evenodd" clip-rule="evenodd" fill="#1A77BC" d="M837.6,616.865H418.2
					c0.399-0.801,0.8-1.699,1.399-2.5c12.801-18.5,25.601-37,38.4-55.5c5.6-8.199,11.3-16.4,17.1-24.699
					c-0.8-0.701-1.6-1.4-2.399-2.101c-45.3-37.101-90.601-74.3-136-111.3c-2.3-1.9-2.601-3.301-1.601-5.9
					c15.301-40.4,30.5-80.8,45.601-121.199c25.6-68.201,51.3-136.301,76.899-204.5c0.7-1.801,1.2-3.201,3.801-3.201
					c35.199,0.201,70.399,0.4,105.6,0.5c53.9,0.301,107.8,0.601,161.7,0.9c33.7,0.2,67.399,0.301,101.1,0.4c2.3,0,3.3,0.699,4.2,2.8
					c3.4,8.5,7,17,10.4,25.601c0.8,2,2,3,4.199,3.6c9.4,2.199,18.4,5.9,26.7,10.9c1.2,0.699,2.2,1.699,3.101,2.699
					c6.1,6.7,8,15.2,9.5,23.6c1.5,8.301,4,15.801,9.1,22.601c5.5,7.101,10.4,14.7,15.5,22.101c2.2,3.199,4.2,6.399,6.2,9.699
					c0.899,1.4,2,2.7,2.5,4.301c2.6,7.799,4.899,15.699,7.5,23.399c0.6,1.7,1.6,3.5,2.8,4.8c6.3,6.9,13,13.4,18.9,20.6
					c5.399,6.801,12,11.201,20.3,13.5c2.6,0.701,4.3,0.701,6.1-1.5c0.9-1.1,1.7-2.5,3.9-1.799c5.399,1.799,11,3.299,16.399,5.1
					c0.7,0.199,1.601,1.199,1.5,1.6c-0.3,1.801-1,3.5-1.5,5.2c-0.899-0.601-1.399-1.101-1.399-1.7c-0.101-2.699-2-3.5-4-4
					c-2.7-0.6-5.5-0.9-8.2-1.5c-2.5-0.5-4.2,0.301-5,2.9c-0.7,2.5-1.6,4.9-4.5,5.9c-0.8,0.199-1.5,1.299-1.8,2.199
					c-1.9,5.4-3.601,10.801-5.3,16.2c-0.601,1.899,0.899,2.601,2.399,2.5c6.7-0.601,12.5,2,17.8,5.5c4.9,3.101,10.2,4.8,15.7,6
					c2.5,0.601,5.2-0.601,5.4-2.899c0.2-2.9,1.7-4.9,3.5-6.9c1-1.2,1.5-3,1.899-4.6c0.601-2.201,1.7-3.701,4.4-4.9
					c-3.3,7.5-6.2,14.4-9.3,21.199c-0.2,0.701-1.2,1.4-1.8,1.5c-5.9,0-11.7,0.5-17.301-2.799c-7.399-4.201-14.899-8.601-24-8.4
					c-2.6,0-5.3-1.4-6.5-4.4c-0.5-1.199-1.699-2.199-2.699-3c-12.601-10.4-25.2-20.6-37.7-31c-2.101-1.699-4-3.9-5.4-6.199
					c-4.5-7.301-8.8-14.801-13.3-22.201c-1.9-3.199-4.1-6.299-6.1-9.399c1.3,1.101,2.699,2.3,4,3.399
					c-0.7-1.399-1.601-2.699-2.2-4.1c-1.3-3.3-2.3-6.8-3.9-9.9c-2.7-5.299-5.899-10.299-8.6-15.6c-2.2-4.4-4.101-9.1-6.3-13.8
					c-1.4,1-2.5,1.8-3.601,2.601c0.3,0.6,0.3,1.1,0.601,1.5c6.199,11.1,12.5,22.1,18.699,33.1c0.5,0.9,0.9,1.9,1.4,2.9
					c-4.7-6.601-9.4-13-13.8-19.701c-2.3-3.299-4.2-6.899-5.7-10.699c-6.5-16-12.8-32.2-19.1-48.301
					c-0.4-0.899-0.9-1.899-1.301-2.899c-0.399,0.899-0.199,1.7,0,2.399c25.7,87.4,51.301,174.801,77.101,262.101
					c0.6,2.3,0.7,4.3-0.601,6.2c-2.8,4.1-2.899,8.6-1.8,13.3c1.8,7.7-2.2,13.8-7.2,18.3c-11.1,9.9-23,18.801-34.5,28.2
					c-24.8,20-49.5,40-74.199,60.101c-1.5,1.199-3,2.5-4.5,3.699c6.5,14.801,12.899,29.4,19.3,44
					C831,601.166,834.2,609.064,837.6,616.865z M469.6,90.965c-0.3,0-0.6-0.1-0.899-0.199c-2.101,2.699-4.8,5.199-6.2,8.3
					c-7.7,17.7-15.4,35.399-22.7,53.399c-10.399,25.801-20.399,51.801-30.7,77.701c-20.3,50.699-40.3,101.5-58,153.199
					c-3.699,10.7-7.1,21.5-10.699,32.2c-1.301,4.101-0.4,5.899,3.8,6.601c5.5,1,11,1.799,16.5,2c6.2,0.299,12.399,0,18.6,0
					c6.4,0.1,12.7,0.399,19.101,0.399c14.699,0.101,29.399,0,44.1,0.3c7.1,0.1,14.3-0.9,21.2,1.5c1.8,0.7,4.1,0.1,6.1-0.1
					c2.2-0.2,4.4-0.7,6.5-0.7c11.7,0.399,23.4,0.899,35.101,1.5c7.199,0.3,14.399,0.8,21.6,1c10.9,0.3,21.8,0.2,32.7,0.601
					c12.3,0.5,24.5,1.399,36.7,1.899c7.6,0.3,15.3,0.101,22.899,0.399c8,0.301,16,1.201,24,1.601c16.5,0.8,33,1.601,49.5,2.2
					c18.101,0.699,36.101,1.199,54.101,1.8c12.8,0.5,25.5,1.101,38.3,1.8c9.2,0.4,18.3,1.2,27.5,1.6c10.1,0.5,20.2,0.601,30.3,1.201
					c12.1,0.699,24.1,1.699,36.1,2.699c9.7,0.9,19.301,1.801,29,2.801c4,0.5,7-1.9,7.5-6.101c0.301-3.399,0.9-6.8,1.2-10.3
					c0.2-2.2,0.3-4.5-0.2-6.7c-6-26-11.6-52-18.199-77.899c-7.101-28.201-14.7-56.4-22.9-84.4c-10.8-36.9-22.4-73.5-33.7-110.301
					c-1.1-3.6-2.3-7.199-3.899-10.6c-0.601-1.1-2.4-1.699-3.601-2.5c-0.899,1.4-2.3,2.7-2.5,4.2c-0.3,1.7,0.4,3.5,0.9,5.2
					c7,22.6,14.2,45,20.8,67.699c9.4,32.801,18.8,65.701,27.4,98.801c7.1,27,13.399,54.199,19.6,81.5c2.3,9.699,4.3,19.5,3.8,29.699
					c-0.1,1.5,0.601,3.301,1.4,4.701c1.7,2.899-0.601,5-1.601,7.1c-0.399,0.9-2.699,1.199-4.1,1.5c-1.9,0.3-4,0.1-5.9,0.5
					c-3.699,1-6.3-1.1-9.3-3.1c2.9,1.899,4.2-0.101,5.9-1.701c2.2-2.1,5-3.5,7.399-5.299c0.9-0.801,2.101-1.701,2.4-2.801
					c0.3-1.699-0.2-3.199-2.2-4.4c-2-1.199-4.3-2.899-5.2-5c-1.6-3.699-4-7.1-3.699-12c0.199-3.799-2.801-7.699-4.601-12.299
					c1-1.601-0.399-4.101-2.1-5.101c-2.7-1.8-4.2-4.3-5-6.899c-1.601-5.601-5.9-6.5-10.601-6.601c0.101,0.5,0.301,1,0.4,1.399
					c0.1,0.4,0.2,0.701,0.1,0.5c-3.3-0.299-6.699-0.699-10.5-1.199c2.7,5.699,2.801,5.8,0.301,9.5c-0.801,1.199-2.7,2.9-3.601,2.6
					c-1.7-0.5-3.7-2.1-4.1-3.6c-0.7-2.801-2.7-4.2-4.4-6c-0.5-0.5-1.3-0.7-2-1c-0.399,0.8-0.899,1.5-1,2.3
					c-0.1,0.7,0.2,1.601,0.4,2.3c0.7,1.9,1.5,3.801,2.2,5.6c-0.2,0.201-0.4,0.4-0.7,0.601c-1.5-0.899-3-1.899-5-3.2
					c0.2-1.3,0.6-3,0.6-4.8c0.101-3,0.101-6,0.101-9c0-0.7-0.601-1.8-0.301-2.2c2.101-2.4,4.301-4.6,7-7.5
					c0.2,1.7,0.301,2.6,0.301,3.4c0.1,3.6,1.6,6.4,4.3,8.699c1.399,1.201,3.3,0.9,3.5-0.699c0.2-1.801-0.5-5-1.601-5.301
					c-3.899-1.299-3.199-5.299-5.3-7.5c-0.2-0.299,0.601-2.399,1-2.399c2.5,0,4.9-2.601,7.601-0.399
					c0.399,0.299,1.399-0.201,2.3-0.4c-1.2-1.5-2-2.7-2.8-3.801c-1.2,0.4-2.4,0.701-3.5,1c-0.101-0.199-0.2-0.399-0.2-0.6
					c0.7-0.699,1.5-1.3,2.3-2c-0.3-0.5-0.5-0.9-0.6-1.199c-0.301-1.101-0.5-2.101-0.801-3.201c1-0.199,2-0.399,3-0.5
					c0.9-0.1,1.801,0.201,2.601,0c1-0.299,2.5-0.699,2.7-1.299c0.3-0.701-0.5-2-1-2.801c-1.7-2.4-2.101-4.5,0-6.9
					c1.5-1.6,1.6-3.399,0.3-5.699c-1.7-3.2-2.5-6.801-3.7-10.301c0.5-0.299,0.9-0.6,1.4-0.899c0.5,1.2,0.899,2.3,1.399,3.5
					c2.2-5.7,6-1.7,8.9-3c-4.7-8.2-9.101-16.399-11.8-25.601c-2.7-9.1-5.801-18-7.7-27.299c0.3-0.101,0.5-0.201,0.8-0.301
					c1.2,2.1,2.3,4.1,3.5,6.2c0.8-3.601-1.5-6.899,0.7-10.2c0-0.1-0.101-0.3-0.2-0.5c-2.4-5.8-4.7-11.6-7.1-17.3
					c-1.101-2.5-2.4-2.7-4.2-0.601c-3.3,4-4.5,8.701-3.8,13.701c1,6.199,1.899,12.6,3.5,18.699c2.5,9.301,5.5,18.6,8.399,27.801
					c0.9,3,0.7,5.699-1,8.299c-0.899,1.5-1.7,3.101-2.7,4.601c-3.6,5.2-6.399,10.601-6.8,17.101c-0.6,8.1-1.3,16.1-2.3,24
					c-0.3,2.6-0.7,5.699-2.3,7.5c-3.4,3.899-4.9,8.299-5.7,13.199c-0.9,5.6-1.7,11.1-2.6,16.7c-0.301,2.601-1.801,3.8-4.4,3.899
					c-2.5,0.201-5.1,0.301-7.7,0.601c-3.2,0.2-5-1.2-5.8-4.2c-0.3-1.1-0.6-2.1-0.8-3.199c-3.4-18.301-4.4-36.801-4.9-55.301
					c-0.5-17.4,2.4-33.9,8.9-49.9c0.7-1.899,2.5-3.799,4.2-4.5c3.199-1.399,6.899-1.699,10.199-2.699c1.2-0.301,3.2-1.301,3.101-1.9
					c-0.2-2.1-1-4.3-1.601-6.4c-1.8,0.9-3.6,1.701-5.3,2.801s-3.3,2.3-4.8,3.6c-3,2.5-6.4,4.801-8.7,7.9
					c-5.1,7.3-6.2,16.199-8,24.699c-3,13.4-2.3,27-1.5,40.601c0.8,15.7,1.8,31.399,6.101,46.7c0.1,0.6,0,1.199,0,1.8
					c-2.301,0.2-3-1-3.301-2.7c-1.899-11.5-3.8-23.1-5.699-34.6c-0.2-1-0.301-2-0.4-3c-0.1-0.9-0.3-1.801-0.5-2.7
					c-1,14.399,0.8,28.5,5,42.8c-3.8,0-7.1,0-10.5,0c-11.8-0.3-23.7-0.6-35.6-0.8c-3.9,0-4.4-0.2-4.801-4.2
					c-2.399-21.6-4.699-43.1-7.199-64.699c-1.5-13.601-3.2-27.201-4.9-40.801c-0.2-2.3,1.4-2.8,3.2-2.8
					c1.399,0.101,2.7,0.601,4.1,0.7c9.2,0.1,18.5-1,27.8,0c4.7,0.5,9.7-0.1,14.5-0.2c3.601,0,7.101,0.2,10.7,0
					c3.101-0.2,5.3-2.601,5.9-5c-1.4-1.3-3.101-2.101-3.4-3.3c-1.899-7.2-3.6-14.4-5.3-21.7c-0.9-3.899-1.4-4.5-5.5-4.601
					c-3.8-0.199-7.7,0-11.6,0c-10-0.199-19.9-0.6-29.9-0.799c-2.6,0-5.2,0.5-7.7,1c-0.899,0.199-2,0.799-2.3,1.5
					c-1.8,4.6-3.4,9.299-5,14c-0.1,0.5-0.1,1.399,0.2,1.6c2.7,2.3,0.6,4.3-0.5,6c-1.3,1.9-2.9,4.199-4.9,4.8
					c-2.2,0.601-4.899-0.5-7.3-0.8c7.4-3.9,7.8-11.6,10.2-18.2c-2.3-0.399-4.8,1.2-5.601,3.8c-1.199,4.7-3.399,8.5-8.3,10
					c-0.7,0.301-1.5,1-1.6,1.7c-0.601,2.5-2.4,3.5-4.601,4c-2.199,0.5-5,2.101-6.5,1.3c-4.199-2.3-7.399-0.199-11.3,0.6
					c-5.7,1.201-11.899,0.301-17.899,0.201c-2.5-0.101-4.9-0.301-7.4-0.5c-4.5-0.301-9.1-0.301-13.5-0.801
					c-3.8-0.5-7.5-1.3-11.1,0.5c-0.9,0.4-2.101,0.2-3.2,0.1c-3.2-0.299-6.4-0.899-9.7-0.899c-5.3-0.101-10.7,0.5-16,0.5
					c-8.4,0-16.8-0.3-25.2-0.399c-1.1,0-2.1,0.299-3.2,0.5c-2.1,0.199-4.3,0.5-6.399,0.399c-4.4-0.2-8.7-0.601-13-0.899
					c-1.9-0.101-3.8-0.101-5.601-0.601c-4.1-1-8.1-2.7-12.399-0.399c-0.601,0.399-1.7-0.201-2.5-0.301
					c-5.101-0.4-10.2-2.9-15.4-0.199c-1,0.399-2.3,0.299-3.5,0.299c-3.1,0-6.1-0.1-9.2-0.199c-1.8,0-3.5-0.1-5.3-0.1
					c-5.5,0-11.1-0.301-16.5,0c-4.2,0.299-7.8-3.301-7-7.301c1.3-6.5,2.3-13.1,3.601-19.6c0.399-2.2-0.801-2.6-2.5-2.7
					c-2.301-0.2-2.7,1.601-3,3.2c-0.9,3.699-1.601,7.4-2.801,11c-0.5,1.5-2,3.199-3.5,3.8c-3.1,1.3-4.399,5.2-1.8,7.5
					c1.7,1.601,1.601,2.7,0.7,4.5c-0.5,1-0.4,2.601,0.1,3.601c0.2,0.399,2,0.1,3.101,0.1c0.6,0,1.2-0.2,1.7-0.2c8,0,15.899,0,23.8,0
					c2.6,0.101,5.2,0.399,7.7,0.3c4.699-0.1,9.3-0.3,14-0.4c3.3-0.1,6.6-0.1,9.899,0.101c0.8,0,1.8,1,2.2,1.899
					c0.4,0.601-0.1,1.701-0.3,2.5c-4.2,25.101-8.5,50.101-12.7,75.101c-1.6,9.601-3.1,19.2-4.6,28.8c-0.301,1.801-0.801,3.5-3.2,3.4
					c-9.2-0.301-18.4-0.6-27.601-0.801c-4.3-0.1-8.5,0.101-12.8,0.201c-2.899,0-5.8,0-9.3,0c0.7-1.701,1-2.601,1.4-3.5
					c1.699-4.101,3.8-8.101,5.1-12.301c5.7-18.9,7-38.199,5.5-57.699c-0.1-1.4-1.2-2.701-1.8-4.101c-0.3,0.101-0.601,0.2-0.8,0.3
					c0.199,3.1,0.5,6.2,0.6,9.2c0.4,17.7-2,35-6.9,52c-1.399,4.7-3.6,9.2-5.5,13.8c-0.699,1.9-2.3,2.5-4.1,1.7
					c-2-1-0.4-2.399,0.1-3.5c2.2-5.3,5-10.399,6.5-15.899c4.301-16.201,5.2-32.701,2.301-49.201c-1.101-6.5-3.4-12.699-5.2-19.1
					c-0.3,0.1-0.7,0.2-1,0.301c0.7,3.6,1.5,7.299,2.1,11c4.7,25,2.601,49.299-8.5,72.5c-1.1,2.399-2.3,4-5.3,3.6
					c-2.6-0.4-3.7,1.1-4.6,3.5c-1,2.8-2.9,5.3-4.5,7.8c-1.9,3-4.2,5.7-5.801,8.899c-1.3,2.5-0.5,3.301,2.4,2.801
					c2.1-0.301,3.1,0.6,2.6,2.4c-0.399,1-2,2.199-3.1,2.199c-2.2,0-4.4-0.6-6.6-1c-0.2-0.1-0.301-1.199-0.101-1.699
					c1.4-6.4,3.3-12.701,7.4-18c2.7-3.5,2.899-7.101,0.7-10.801c-3-5.199-4.4-10.9-5.601-16.8c-0.8-4-1.5-8.399-3.6-11.7
					c-2.601-4.1-4.601-8.3-5.601-13c-1-4.4-1.699-8.9-2.399-13.4c-1.7-10.5-3.601-20.799-11.601-28.699
					c-0.5-0.5-0.899-1.301-1.399-1.9c-1.2-1.6-1-3.1-0.2-5c3-7.3,5.9-14.6,8.5-22.1c2.8-8.1,5.1-16.301,7.6-24.5
					c0.601-1.7,1.601-3.301,2.601-5.301c7.2,11.301,8.6,10.4,17.1,13.601c1,0.399,2.101,0.7,3.101,1c3,1,5.3,2.601,6.1,6
					c0.3,1.101,1.3,2.8,2.1,2.899c3.7,0.301,7.4,0.101,11,0.101c0.4-2.399-0.1-3.8-2.199-4.5c-0.801-0.2-1.4-0.601-2-1.101
					c-5.9-4.6-9.5-10.399-9.801-18c0.4,0.301,0.9,0.701,1.5,0.9c1.5,0.5,3,0.801,4.4,1.301c0.3-1.601,0.6-3.101,0.9-4.601
					c0.1-0.101,0.1-0.2,0-0.3c-1.2-7.2-2.301-14.4-3.601-21.6c-1.7-9.9-4.1-19.5-3.899-29.9c0.1-9.9,2.5-19.2,4.3-28.6
					c1.1-5.9,2.399-11.601,3.6-17.5c0.2-0.9,0.8-1.9,1.4-2.801c1.6-2.3,4.5-3.4,4.2-7.199c-1.101-10.601-2.301-21.301-5.301-31.601
					c-0.699-2.101-0.3-3.399,1.801-3.8c4.3-0.7,8.699-1.7,13.1-1.801c9.1-0.299,18.2,0,27.3,0c13.101-0.1,26.101-0.299,39.2-0.299
					c8,0,16,0.399,24.1,0.399c12.2,0,24.5-0.601,36.7-0.2c19.8,0.7,39.601,1.5,59.4,0.9c8.6-0.301,17.2-0.9,25.8-0.9
					c9.1,0.1,18.4,0.7,27.5,0.9c5,0.1,10-0.301,14.9-0.301c20.8,0.101,41.6,0,62.399,0.4c4.7,0.1,9.4,1.7,14.4,2.6
					c-0.5,1.5-0.8,2.4-1.101,3.301c-1.3,4.8-2.8,9.5-3.699,14.3c-0.601,3-2,4.601-4.801,5.2c-4.899,1.1-9.899,2.1-14.8,3.5
					c-4.6,1.4-9.7,2.3-13.6,5c-9.8,7-20.4,12-31.7,15.8c-19.1,6.601-38,13.3-57.1,19.7c-8,2.699-16,5.8-24.601,6.3
					c-3.2,0.2-6.3,1.399-9.399,2.2c0.1,0.4,0.1,0.8,0.1,1.199c2.1,0,4.1-0.1,6.1,0c3,0,6,0.201,8.9,0.201
					c9.8,0.1,20,1.799,28.3-5.601c0.601-0.5,1.8-0.3,2.601-0.399c-0.2,0.899-0.2,2-0.7,2.5c-2.4,2.6-5,5-7.4,7.399
					c4.2,0.3,7.4-2.399,10.7-4.601c1.7-1.1,3.3-2.199,5-3.199c21.3-13.301,43.4-25.1,66.4-35.1c16.1-7,32.699-11.9,50.5-10
					c6.1,0.699,12.3,2.199,18.1,4.299c4,1.301,7.5,4.201,11.1,6.701c2.301,1.6,4.101,3.799,6.2,5.699c1.5,1.301,3,2.6,4.4,3.9
					c0.399-0.4,0.7-0.7,1.1-1c-2.899-3.4-5.399-7.1-8.7-10c-9.5-8.801-21.6-11.6-34-13.2c-2.8-0.399-5.699-0.8-8.5-1.5
					c-1.3-0.3-2.399-1.399-3.6-2.101c0.2-0.299,0.4-0.6,0.6-0.899c0.7,0.2,1.4,0.399,2.101,0.5c2.5,0.3,4.899,0.7,7.399,0.8
					c2.4,0,3.301-1.199,2.4-3.699c-1.1-3-2.1-6.201-3-9.301c-0.5-1.6-0.9-3.199-1.4-4.699c0.301-0.201,0.601-0.301,0.9-0.4
					c1,1.5,2.1,3,2.8,4.699c1.3,3.301,2.4,6.701,3.5,10.101c1.2,3.8,2.3,4.5,6.101,5.2c6.199,1.199,12.5,2.3,18.399,4.3
					c12.4,4.2,19.5,13.399,23.2,25.601c1.2,4.1,2.5,8.1,3.7,12c2.3,0,4-0.301,3-2.801c-2.601-6.8-4.7-13.699-7.8-20.199
					c-6.7-14-18.9-20.101-33.801-20.801c-3.399-0.1-4.699-1.199-5.6-4.1c-1.9-6.4-4.1-12.801-6.1-19.301
					c-0.801-2.6-2.301-4.199-5.101-3.799c-2.8,0.5-5.399,0.199-8.1,0.199c-8.8-0.3-17.601,0.1-26.4,0c-20.1-0.3-40.2-1-60.3-1.1
					c-15.6-0.1-31.1,0.699-46.6,0.8C655.8,95.666,626.8,95.465,597.8,95.465c-17.5,0-34.899-0.199-52.3-0.1
					c-13.4,0-26.8,0.2-40.2,0.5c-9.899,0.2-19.899,0.6-29.899,1.1c-3.301,0.101-4.5-0.799-5.2-4
					C470.1,92.266,469.8,91.666,469.6,90.965z M561.1,173.666c0.2,0.299,0.4,0.5,0.601,0.699c0.8-0.1,1.6-0.199,2.3-0.199
					c6.2-0.5,12.4-1.301,18.6-1.5c6.601-0.101,13.2,0.299,19.801,0.399c8.199,0.101,16.5-0.101,24.699,0.101
					c18.4,0.6,36.601-0.4,54.2-6c14.8-4.601,29.4-10.101,44.101-15.101c10.5-3.601,21.199-7,31.8-10.601c3.6-1.199,7-3,10.5-4.5
					c-0.2-0.299-0.3-0.6-0.4-0.799c-1.1,0.399-2.3,0.6-3.3,1.199c-3.4,1.801-6.1,1.2-9.1-1.4c-4.2-3.6-9.301-4.799-15-4.399
					c-9,0.7-18,0.7-27,0.101c-1.9-0.101-3.101,0.1-2,2.399c1.899,4.101,3.8,8.3,5.899,12.3c0.3,0.6,1.7,1.1,2.2,0.9
					c3.1-1.4,6-3,8.9-4.7c1.1-0.5,1.699-1.7,2.6-2.601c-0.2-0.299-0.4-0.6-0.5-0.899c-3.3-0.5-6.7-1-10-1.5
					c2.5-0.399,5.1-0.8,7.4-0.3c2.8,0.699,5,0.5,7.3-1.1c0.6-0.4,1.899,0.299,2.899,0.5c-0.3,0.899-0.6,1.799-1,2.6
					c-0.1,0.3-0.699,0.4-1,0.6c-3.899,2.1-7.8,4.2-11.699,6.4c-3.5,1.8-7.101,3.699-10.801,5.699c-0.5-1.299-0.8-1.899-1-2.6
					c-1.899-4.8-3.699-9.6-5.699-14.3c-0.801-2.101-2.4-3.399-4.801-3.3c-3.399,0.199-6.899,0.6-10.3,0.6c-4,0-8.1-0.1-12.1-0.5
					c-3.3-0.3-6.601-1.5-9.9-1.5c-7.8-0.199-15.6,0.1-23.5,0.1c-2.8,0-5.7-0.1-8.5-0.1c-2.3,0-4.7,0.4-7,0.301
					c-4-0.301-8.2-1.9-11.8-0.9c-5.8,1.6-11-0.801-16.5-0.801c-15.2-0.1-30.5,0-45.7,0.101c-17.2,0.101-34.399,0.3-51.6,0.399
					c-5.9,0.101-11.4,1.5-16.3,4.801c-3,2.1-4.801,4.9-4.9,8.5c0,7.6-2.3,14.6-4.8,21.6c-1.101,2.9-1.9,5.801-2.7,8.801
					c-0.5,1.699,0,3,2.1,2.899c7.301-0.101,14.5-0.2,21.7-0.101c10,0.101,20,0.4,29.9,0.9c1.7,0.1,2.399-0.4,2.7-2
					c0.3-2.6,0.6-5.3,1-7.9c0.3-2.299,1.5-3.6,4-3.199c2.6,0.3,5.199,0.6,7.699,0.8c1.801,0.101,2.7,0.899,2.101,2.601
					c-0.601,1.699-1.8,3.199-2.4,4.899c-0.399,1.101-0.7,2.7-0.3,3.5c0.6,0.899,2.2,1.601,3.3,1.601c0.8-0.101,1.7-1.301,2.3-2.201
					c0.5-0.799,1-1.799,1-2.799c0-5.4,2.2-8,8-8.9c4.4-0.7,6.2-1,8.801,2.4C565.6,168.365,563.4,171.065,561.1,173.666z
					 M717.8,178.365c0.101,0.2,0.2,0.4,0.3,0.6c1.5,0,3,0.101,4.4,0c9-0.1,18-1.299,27,0.201c3.1,0.5,6.3,0.199,9.5,0.5
					c2.9,0.1,4.3-1.201,4.2-4c-0.4-6.9-0.9-13.801-1.4-20.701c-0.2-2-1.399-2.299-2.899-1.399c-3.101,1.8-6.101,3.601-9.2,5.399
					c-9.4,5.701-18.9,11.201-28.3,16.801C720.1,176.565,719,177.465,717.8,178.365z M748.3,461.065c0-0.101,0-0.3,0-0.5
					c-8.8,0.601-17.6,1.101-26.3,1.899c-1.5,0.201-2.9,1.601-4.3,2.5c1,1.4,1.6,3.4,3,4.301c1.3,0.9,3.399,1.1,5,0.9
					c9.2-1,18.2-2.201,27.399-3.301c4.101-0.5,8.2-0.8,12.301-1c1.8-0.1,3.6-0.3,5.3,0.2c10.3,2.7,20.7,5.3,30.899,8.5
					c4.301,1.3,7.9,0.7,11.601-1.3c1.6-0.9,4.1-1.9,2.899-4.301c-1.199-2.299-3.399-1-5.1-0.299c-3.8,1.6-7.4,1.699-11.4,0.1
					c-5.8-2.2-11.699-4.301-17.699-5.801c-5.5-1.399-11.101-2.399-16.7-2.699C759.6,459.965,754,460.766,748.3,461.065z
					 M531.7,463.766c1.2-0.7,3.3-1.5,5.1-2.9c0.7-0.5,1.3-2.3,1-3c-0.399-0.8-1.899-1.3-3-1.4c-11.8-1.6-23.5-3.1-35.3-4.6
					c-1.9-0.199-3.9,0-5.8,0.4c-2.5,0.4-5,1.199-7.4,1.5c-7.1,0.9-14.3,1.1-21.2,2.6c-4.8,1.1-8.8,1-13.1-1.3
					c-1.4-0.7-3.4-0.8-4.9-0.399c-1.699,0.5-1.899,2.399-0.3,3.199c4.7,2.301,9.101,5.4,15,4c16-4,32.2-3.699,48.4-1.3
					C517,461.565,523.7,462.565,531.7,463.766z M728,501.166c-1.3-0.5-2.5-1.201-3.7-1.601c-5.3-1.5-10.7-2.8-15.899-4.601
					c-4.5-1.6-8.4-4.199-9.601-9.399c-1.3-5.2-2.399-6.101-7.8-5.8c-1.6,0.1-3.3,0.3-5,0.699c-3.2,0.701-4,2.5-2.4,5.4
					c3,5.6,7.4,9.801,13.4,12c6.9,2.5,13.8,4.9,20.8,7.2C721.2,506.166,725.4,504.666,728,501.166z M539.9,495.865
					c0,0.301,0,0.6,0,1c3.6,2.4,7.699,3.7,11.899,2.5c7.601-2.1,15.2-4.4,22.5-7.3c2.5-1,4.601-3.7,6-6.101c2.3-4,0.5-7.6-3.8-8.699
					c-1.7-0.4-3.4-0.7-5-0.801c-5.1-0.5-6.3,0.601-6.1,5.701c0.1,2.899-0.7,5.299-3.301,6.5c-4,1.799-8.1,3.399-12.3,4.799
					C546.6,494.565,543.2,495.065,539.9,495.865z M498.7,495.166c-1.9-0.5-3.2-1.101-4.601-1.4c-2-0.4-4.1-0.4-6.1-1
					c-7.2-1.801-14.3-4-21.6-5.6c-7.5-1.601-14.101-4.301-19-10.601c-1.9-2.5-5.9-3-8.4-1.8c-1.7,0.8-2.5,1.8-0.7,3.3
					c6,4.899,12.2,9.8,19.7,11.899c11.1,3.201,22.5,5.4,33.8,8.101C494.4,498.666,496.4,497.865,498.7,495.166z M575.5,189.666
					c0,0.299,0.1,0.6,0.1,0.899c2.801,0.5,5.601,1.2,8.4,1.5c7,1,14.1,1.8,21.1,2.899c13,1.9,26,2.201,39.101,1.801
					c1.5,0,2.899-0.4,4.3-0.9c0.6-0.199,1-0.9,1.5-1.5c-0.5-0.3-1-0.9-1.6-1c-0.9-0.199-1.801,0-2.7-0.1
					c-11.4-0.5-22.9-0.9-34.4-1.5c-10.5-0.7-21.1-1.7-31.6-2.5C578.3,189.166,576.9,189.565,575.5,189.666z M830.5,491.465
					c-0.2-0.299-0.5-0.699-0.7-1.1c-2.6,1.1-5.1,2.2-7.8,3c-5,1.801-10,4.2-15.2,4.9c-10.5,1.4-21.2,1.9-31.8,2.699
					c-0.9,0.101-1.9,0-2.7,0.301c-0.899,0.4-1.6,1.199-2.3,1.9c0.8,0.6,1.5,1.699,2.4,1.799c4.199,0.201,8.5,0.5,12.699,0.101
					c7.4-0.7,14.7-2,22-3c7.7-0.899,14.4-4.101,20.9-8C829,493.465,829.7,492.365,830.5,491.465z M923.9,248.865
					c0.899,7.6,29.6,36.2,37.6,38.301c0.7-2.701,0.6-4.701-2.8-6c-2.4-0.9-4.601-2.701-6.5-4.5c-7.9-7.701-15.7-15.701-23.5-23.601
					C927.2,251.565,925.5,250.266,923.9,248.865z M816.8,267.766c1.4-1.2,2.9-2.301,4.101-3.7c1.399-1.7,2.6-2,4.199-0.3
					c0.5,0.4,1.601,0.699,2.2,0.5c2.9-1.1,5.8-2.4,8-3.4c0-1.199,0-1.8-0.2-2.4c-0.199-1.199-0.3-2.6-1-3.699
					c-0.1-0.2-2.1,0.199-3,0.8c-2.399,1.3-4.8,2.7-7,4.3C821.2,261.965,817.7,263.565,816.8,267.766z M826.3,144.965
					c0.5,0,1,0,1.5,0c1-2.1,2.2-4.199,2.9-6.5c0.3-1.1,0-3.5-0.601-3.699c-1.899-0.6-4.1-0.5-6.1-0.5c-0.3,0-0.9,1.4-0.7,1.9
					C824.2,139.166,825.3,142.065,826.3,144.965z M556.2,187.465c-0.101-2.399-2.101-2.6-3.7-3c-4.7-1.1-9-2.899-12.4-6.6
					c-0.8-0.9-2.1-1.5-3.3-1.8c-0.7-0.2-1.6,0.3-2.2,0.5c1.7,0.899,3,1.5,4,2.399c3.5,3.4,6.5,7.301,11.801,7.801
					C552.3,186.965,554.2,187.166,556.2,187.465z M889.9,209.666c2.199,7.199,6.3,13.1,11.399,18.399
					C898.7,221.166,895.2,214.865,889.9,209.666z M690.9,185.666c-0.2-0.5-0.301-0.9-0.4-1.301c-5.1,1.7-10.3,3.4-15.5,5
					c0.2,0.4,0.3,0.801,0.4,1.2C681.4,191.565,685.8,187.666,690.9,185.666z M864.1,362.266c-0.3-0.5-0.6-0.9-0.899-1.301
					c-1.101,0.801-2.101,1.601-3.2,2.4c0.3,0.4,0.5,0.801,0.8,1.2C861.9,363.766,863,362.965,864.1,362.266z"/>
				<polygon clip-path="url(#SVGID_2_)" fill-rule="evenodd" clip-rule="evenodd" points="482.2,245.065 476.2,176.365 
					487.8,130.266 497.7,126.565 757.2,126.565 770.7,141.565 770.7,177.565 761.2,249.766 485.7,249.766 				"/>
				<path clip-path="url(#SVGID_2_)" fill-rule="evenodd" clip-rule="evenodd" fill="#1A77BC" d="M646.5,149.865
					c1.1,1.1,2.5,2.1,3.2,3.4c1.399,2.4,3.2,2.5,5.5,1.699c2.6-0.899,5.2-1.799,7.8-2.6c1.6-0.5,3.4-0.6,4.9-1.4
					c2.199-1.299,1.899-3.1,0.199-4.699c-4.5-4-9.5-6.5-15.699-4.801c-2.601,0.701-5.101,1.5-7.5,2.601
					c-6.101,2.7-7.601,7.7-4.2,13.399c0.5,0.9,0.899,1.701,1.6,2.801c-9.1-4.4-9.8-14.6-1.5-20.4c8.7-6.1,17.7-6.199,26.9-1.199
					c5.899,3.199,6.899,9.699,2.899,15.1c-1.5,1.9-2.8,3.8-3.8,6.1c5.4,0.5,7.2-6,12.4-5.9c0.1,0.4,0.3,0.801,0.2,1.101
					c-1.601,3.7-8.601,7.3-12.801,6.899c-1.1-0.199-2.399,0.201-3.5,0.5c-1.8,0.601-3.6,1.5-5.5,2c-2.199,0.701-3.6,0.4-4.5-2.299
					c-0.699-1.9-2.899-3.301-4.199-5.101c-1.2-1.5-2.301-3.2-3.2-4.899c-0.3-0.5-0.101-1.4-0.101-2.101
					C645.9,150.065,646.2,149.965,646.5,149.865z M659.5,158.465c-0.1-0.299-0.2-0.5-0.3-0.799c-1.7,0.6-3.4,1.199-5.101,1.799
					c0.2,0.4,0.4,0.801,0.5,1.301C656.2,159.965,657.9,159.166,659.5,158.465z"/>
				<path clip-path="url(#SVGID_2_)" fill-rule="evenodd" clip-rule="evenodd" fill="#1A77BC" d="M509.2,148.865
					c1.3,1.2,2.6,2,3.5,3.1c2.1,2.4,4.399,2.4,6.899,1c0.2-0.1,0.4-0.1,0.601-0.199c6.7-2.7,7.7-5.801,3.8-11.801
					c-0.4-0.699-1.8-1.299-2.7-1.199c-5.399,0.6-10.3,2.3-14.399,5.9c-1.2,1.1-2,2.899-2.801,4.5c-0.8,1.699-2.1,1.699-2.8,0.299
					c-0.6-1.6-1.2-3.699-0.6-5.199c1.5-4.6,5.2-7.301,9.5-9.2c6.399-2.7,13-4.7,19.5-0.399c2.399,1.6,4.399,3.899,6.1,6.399
					c0.7,1.101,0.8,3.5,0.101,4.7c-1.7,2.8-3.9,5.4-6.301,7.699c-0.899,0.801-2.8,0.5-4.199,0.9c-2.101,0.7-4.2,1.7-6.301,2.6
					c-2.1,1.101-4,1.5-6-0.299C509.7,154.565,508.4,152.166,509.2,148.865z"/>
				<path clip-path="url(#SVGID_2_)" fill-rule="evenodd" clip-rule="evenodd" fill="#1A77BC" d="M529.8,158.965
					c1,3.4-0.6,5.801-2.399,7.9c-0.601,0.7-3.301,0.4-4.7-0.199c-5.4-2.4-9.7,0.199-13.8,3c-4.7,3.299-9.9,3.5-15.301,2.699
					c-0.6,0-1.399-0.5-1.699-1c-1.7-2.699-3.301-5.5-4.9-8.3c-0.3-0.7-0.3-1.5-0.4-2.399c3,2.1,5.601,4.1,8.5,5.6
					c1.101,0.6,2.9,0.199,4.2-0.301c1-0.199,1.601-1.299,2.7-2.399c-0.9-1.2-1.8-2.5-2.9-3.601c-2.399-2.399-4.699-4.799-7.1-7.199
					c-1.9-1.801-2.6-4.301-1.5-6.5c2.7-5.7,7.3-9.801,12.5-13.2c0.2,0.2,0.4,0.399,0.7,0.5c-0.8,0.899-1.5,1.7-2.3,2.5
					c-9.301,8.8-4,20.899,6.1,24.899c4.2,1.701,7.7,2,12,1.601C523.3,162.166,526.9,162.266,529.8,158.965z"/>
				<path clip-path="url(#SVGID_2_)" fill-rule="evenodd" clip-rule="evenodd" fill="#1A77BC" d="M567.8,155.865
					c-4.899-0.8-6.2-6.699-10.1-9.8c1.5,0.5,3.2,0.899,4.6,1.601c3.101,1.699,3.5,1.699,5-1.601c2-4.601,5-8,9.8-9.8
					c7.2-2.801,14.2-3.5,21.301,0.5c5.199,3,7.399,7.8,9,13.1c0.699,2.4-3.101,6.301-6.9,6.7c0.9-1.601,1.4-3,2.2-4.3
					c1.399-2.1,1.1-3.9-0.101-6c-2.8-4.6-6.899-6.9-12-7.2c-7.199-0.5-13.899,1.101-18.5,7.2
					C570.1,148.865,569.3,152.365,567.8,155.865z"/>
				<path clip-path="url(#SVGID_2_)" fill-rule="evenodd" clip-rule="evenodd" fill="#1A77BC" d="M694.7,152.666
					c0,0.299-0.101,0.6,0,0.899c0.1,6.899-1.5,8.601-8.3,10.2c-2.101,0.5-2.5-0.7-2.801-2.1c-0.3-1.601-0.3-3.101,1.801-3.5
					c1.6-0.201,3.199-0.101,4.699-0.601c0.801-0.2,1.4-1.2,2.101-1.8c-0.8-0.301-1.5-0.7-2.3-1c-0.4-0.1-0.801,0.1-1.2,0.1
					c-4.601,0.5-5.101,0-5.4-4.6c-0.3-4.4,0.601-5.301,5-5.2c6.4,0.101,6.4,0.101,6.4,6.7
					C694.7,152.065,694.7,152.365,694.7,152.666z"/>
				<path clip-path="url(#SVGID_2_)" fill-rule="evenodd" clip-rule="evenodd" fill="#1A77BC" d="M594.9,149.465
					c2.6,1.801,2.8,2.9,0.399,4c-3.899,1.701-7.899,3-12,4.201c-1.8,0.6-7.399-2.801-8.1-4.601c-0.2-0.7-0.101-1.899,0.3-2.101
					c0.8-0.6,1.9-0.699,2.9-0.799c0.3-0.101,0.8,0.5,1.199,0.799c4.801,4.101,9.9,3.801,14.4-0.899
					C594.2,149.865,594.5,149.766,594.9,149.465z"/>
				<path clip-path="url(#SVGID_2_)" fill-rule="evenodd" clip-rule="evenodd" fill="#1A77BC" d="M703.4,145.065
					c-4.101,0-9.5-5.601-9.101-8.399c0.3-2.101,1.8-1.4,3-1c1.5,0.5,3.101,1,4.601,1.399c1.6,0.3,4.1,3.7,3.6,6.101
					C705.4,144.166,703.7,144.865,703.4,145.065z"/>
				<path clip-path="url(#SVGID_2_)" fill-rule="evenodd" clip-rule="evenodd" fill="#1A77BC" d="M542.4,152.166
					c1.1-5.601,3.899-10.701,0.6-15.801c2.9-0.5,4.7,1.4,5.8,5.5C549.9,145.865,547.5,150.166,542.4,152.166z"/>
				<path clip-path="url(#SVGID_2_)" fill-rule="evenodd" clip-rule="evenodd" fill="#1A77BC" d="M584.7,152.266
					c-1.2-1.9-2.3-2.9-2.5-4.1c-0.2-1.701,3.2-4.5,4.899-3.9c1.5,0.6,2.601,2.199,3.801,3.3
					C589.1,148.965,587.3,150.365,584.7,152.266z"/>
				<path clip-path="url(#SVGID_2_)" fill-rule="evenodd" clip-rule="evenodd" fill="#1A77BC" d="M516.1,150.666
					c-0.3-0.301-1.6-1-1.899-1.9c-0.5-1.6,2.8-4.301,5.2-4.1c1.1,0.1,2.6,1.399,3,2.5C522.9,148.666,519.9,150.565,516.1,150.666z"
					/>
				<path clip-path="url(#SVGID_2_)" fill-rule="evenodd" clip-rule="evenodd" fill="#1A77BC" d="M655.1,152.766
					c-1.6-1.4-2.699-2.301-3.8-3.2c1.4-1,2.7-2.601,4.2-2.899c2-0.601,3.8,1,3.4,3C658.7,150.666,656.8,151.465,655.1,152.766z"/>
				<path clip-path="url(#SVGID_2_)" fill-rule="evenodd" clip-rule="evenodd" fill="#1A77BC" d="M678.7,142.065
					c4.399-3.101,9-4.601,14.1-4.2c0,0.4,0.2,0.7,0.2,1C688.2,139.965,683.5,140.965,678.7,142.065z"/>
				<path clip-path="url(#SVGID_2_)" fill-rule="evenodd" clip-rule="evenodd" fill="#1A77BC" d="M756.5,166.865
					c-3.5-0.6-5.1-2.4-6.1-4.4c-0.301-0.6,0.8-2,1.6-2.799c0.2-0.101,1.8,0.5,2.1,1.199C755,162.565,755.5,164.465,756.5,166.865z"
					/>
				<polyline clip-path="url(#SVGID_2_)" fill="none" stroke="#FFFFFF" stroke-width="5.8581" stroke-miterlimit="7.6613" points="
					761,249.865 769.9,181.666 769.9,152.166 769.9,149.965 				"/>
				<polyline clip-path="url(#SVGID_2_)" fill="none" stroke="#FFFFFF" stroke-width="5.8581" stroke-miterlimit="7.6613" points="
					763.2,131.465 756.5,123.766 493,123.766 482.7,127.666 475.8,137.865 				"/>
				
					<line clip-path="url(#SVGID_2_)" fill="none" stroke="#06EEF4" stroke-width="8.8013" stroke-miterlimit="7.6613" x1="622.4" y1="67.065" x2="622.4" y2="-33.635"/>
				<path clip-path="url(#SVGID_2_)" fill-rule="evenodd" clip-rule="evenodd" fill="#06EEF4" d="M622.5,51.166l-31.9-19.4
					l-0.699,1.1l20.6,52c4,18,8,36.1,12,54.2c4-18.101,7.9-36.2,11.9-54.2l20.6-52l-0.5-1.1L622.5,51.166z"/>
				<polyline clip-path="url(#SVGID_2_)" fill="none" stroke="#FFFFFF" stroke-width="5.8581" stroke-miterlimit="7.6613" points="
					810.4,136.266 781.7,223.965 784.9,250.465 				"/>
				
					<line clip-path="url(#SVGID_2_)" fill="none" stroke="#FFFFFF" stroke-width="5.8581" stroke-miterlimit="7.6613" x1="764.8" y1="224.465" x2="781.7" y2="223.865"/>
				<polygon clip-path="url(#SVGID_2_)" fill-rule="evenodd" clip-rule="evenodd" fill="#FFFFFF" points="789.3,253.365 
					497.3,251.565 491.3,279.365 740.5,285.065 				"/>
				<polygon clip-path="url(#SVGID_2_)" fill="none" stroke="#FFFFFF" stroke-width="3.9903" stroke-miterlimit="7.6613" points="
					789.3,253.365 497.3,251.565 491.3,279.365 740.5,285.065 				"/>
				<path clip-path="url(#SVGID_2_)" fill-rule="evenodd" clip-rule="evenodd" fill="#FFFFFF" d="M526.2,673.365
					c35.899,63.301,34.5,146-3.5,180.301c-38.101,32-98.3,3.5-134.2-59.102c-35.7-60.199-33.7-131.799,4.4-164.398
					C430.8,595.064,490.4,612.465,526.2,673.365z"/>
				<path clip-path="url(#SVGID_2_)" fill="none" stroke="#1A77BC" stroke-width="2.83" stroke-miterlimit="7.6613" d="
					M544.6,690.166c35.9,63.299,34.5,146.1-3.5,180.398c-38.1,31.9-98.3,3.4-134.199-59.199c-35.7-60.1-33.601-131.801,4.399-164.4
					C449.2,611.965,508.8,629.365,544.6,690.166z"/>
				<polygon clip-path="url(#SVGID_2_)" fill-rule="evenodd" clip-rule="evenodd" fill="#FFFFFF" points="325.4,997.666 
					529.9,890.766 529.9,676.865 325.4,777.766 				"/>
				<polyline clip-path="url(#SVGID_2_)" fill="none" stroke="#1A77BC" stroke-width="2.83" stroke-miterlimit="7.6613" points="
					325.4,997.666 529.9,890.766 529.9,676.865 325.4,777.766 				"/>
				<polygon clip-path="url(#SVGID_2_)" fill-rule="evenodd" clip-rule="evenodd" fill="#FFFFFF" points="119.4,682.465 
					325.5,599.564 529.9,676.865 				"/>
				<polyline clip-path="url(#SVGID_2_)" fill="none" stroke="#1A77BC" stroke-width="2.83" stroke-miterlimit="7.6613" points="
					119.4,682.465 325.5,599.564 529.9,676.865 				"/>
				<polygon clip-path="url(#SVGID_2_)" fill-rule="evenodd" clip-rule="evenodd" fill="#FFFFFF" points="212.7,725.564 
					354.2,666.266 369.7,672.965 334.2,689.564 412.1,720.865 445.2,705.166 461.4,710.766 325.4,777.766 				"/>
				<polyline clip-path="url(#SVGID_2_)" fill="none" stroke="#1A77BC" stroke-width="2.83" stroke-miterlimit="7.6613" points="
					212.7,725.564 354.2,666.266 369.7,672.965 334.2,689.564 412.1,720.865 445.2,705.166 461.4,710.766 325.4,777.766 				"/>
				
					<line clip-path="url(#SVGID_2_)" fill="none" stroke="#1A77BC" stroke-width="2.83" stroke-miterlimit="7.6613" x1="325.4" y1="599.564" x2="325.4" y2="678.266"/>
				<path clip-path="url(#SVGID_2_)" fill="none" stroke="#1A77BC" stroke-width="2.83" stroke-miterlimit="7.6613" d="
					M349.4,741.266c0,8.699-10.9,15.799-24.4,15.799c-13.4,0-24.4-7.1-24.4-15.799c0-8.701,11-15.701,24.4-15.701
					C338.5,725.564,349.4,732.564,349.4,741.266z"/>
				<polygon clip-path="url(#SVGID_2_)" fill="none" stroke="#1A77BC" stroke-width="2.83" stroke-miterlimit="7.6613" points="
					325.5,777.766 119.4,682.365 119.4,892.166 325.5,997.666 				"/>
				<path clip-path="url(#SVGID_2_)" fill-rule="evenodd" clip-rule="evenodd" fill="#FFFFFF" d="M272.4,818.666
					c36,63.398,34.5,146.1-3.4,180.398c-38.1,32-98.3,3.5-134.2-59.1c-35.7-60.199-33.7-131.799,4.4-164.5
					C177.1,740.465,236.7,757.865,272.4,818.666z"/>
				<path clip-path="url(#SVGID_2_)" fill="none" stroke="#1A77BC" stroke-width="2.83" stroke-miterlimit="7.6613" d="
					M272.4,818.666c36,63.398,34.5,146.1-3.4,180.398c-38.1,32-98.3,3.5-134.2-59.1c-35.7-60.199-33.7-131.799,4.4-164.5
					C177.1,740.465,236.7,757.865,272.4,818.666z"/>
				<polygon clip-path="url(#SVGID_2_)" fill-rule="evenodd" clip-rule="evenodd" fill="#FFFFFF" points="218.5,851.166 
					191.3,845.766 177.4,871.766 190.9,905.166 218.4,914.564 232.1,886.564 				"/>
				<polygon clip-path="url(#SVGID_2_)" fill="none" stroke="#1A77BC" stroke-width="2.83" stroke-miterlimit="7.6613" points="
					218.5,851.166 191.3,845.766 177.4,871.766 190.9,905.166 218.4,914.564 232.1,886.564 				"/>
				<path clip-path="url(#SVGID_2_)" fill-rule="evenodd" clip-rule="evenodd" fill="#1A77BC" d="M252.9,1075.965
					c-13.101,0-23.601-10.6-23.601-23.699c0-13,10.5-23.6,23.601-23.6c0.8,0,1.699,0.1,2.6,0.1v-3.701c0-0.6,0.3-1,0.7-1.199
					c0.5-0.199,1-0.1,1.399,0.301l8.301,8.398c0.5,0.4,0.5,1.201,0,1.701l-8.301,8.4c-0.399,0.398-0.899,0.398-1.399,0.299
					c-0.4-0.199-0.7-0.699-0.7-1.199v-4.201c-0.9-0.199-1.8-0.199-2.6-0.199c-8.301,0-15,6.699-15,14.9c0,8.299,6.699,15,15,15
					c8.3,0,14.899-6.701,14.899-15c0-0.6,0.601-1.201,1.3-1.201h6.2c0.7,0,1.2,0.602,1.2,1.201
					C276.5,1065.365,265.9,1075.965,252.9,1075.965z"/>
				<path clip-path="url(#SVGID_2_)" fill-rule="evenodd" clip-rule="evenodd" fill="#1A77BC" d="M498.1,946.266
					c-1.199-1.701-2.399-3.4-3.5-5.201c-2.1-3.6-4.1-7.1-6.1-10.699c-2.9-4.9-5.8-9.801-8.7-14.699c-0.5-0.9-1-1.701-1.5-2.602
					c-0.2,0.102-0.3,0.201-0.399,0.201c0.3,0.9,0.6,1.699,1,2.5c1.5,2.699,3.1,5.199,4.699,7.9c3.301,5.799,6.601,11.6,9.9,17.398
					c1.5,2.701,2.8,5.602,4.3,8.301c0.601,1,1.601,1.9,2.5,2.699L498.1,946.266z M497.3,940.564c0,0,7.7,12.801,10.4,17
					c1.7,2.602,4.899,7.4,4.3,11.301c-2.2,13.6-23.4-0.301-23.6-0.801c-3.9-6.299-1.801-13.299-1.801-13.299l-4.3-9.1l-17,2.199
					c0,0-0.8,16.4-0.8,16.6c-0.3,4.6-0.3,13.301,2.8,18c3.2,5,10.8,17.801,2.5,21.5c-9.5,4.4-18.899,2.301-23.8-0.4
					c-3.5-1.898-8.6-8.799-6.6-13c1.3-2.799,2.199-4.299,3-5.898c1.6-3.301,4.399-10,4.899-13.602c0.5-3.398-0.5-13.6-0.5-13.6
					s-0.3-9.5-1.8-9.5c-8.7,0.201-29.4,0.1-28.6-2.4c0.699-1.799,5.6-15.299,6.399-17.6c0.4-1.4,1-2.799,1.5-4.299
					c4.9-14.4,11.2-32.701,11.9-33.5c0.8-0.9,2.899-1.201,4.3-0.701c4.1,1.301,8.1,2.4,12.2,3.5c1.5,0.5,2.399,1.301,2.399,3.1
					c4.2-1.898,7.7,0.5,11.5,1.4c0.4,0,0.7,0.5,1.101,0.9c-1.9,1.6-1.2,3.4-0.7,5.6c0.3-0.9,0.5-1.4,1.4-1.5
					c1.699-0.299,3.399-0.699,4.699-2.1c0.5-0.699,1.2-0.9,2.101-0.6c3.5,1,7,2.1,10.399,3.1c2.801,0.9,3.7,2,3.601,4.6
					c0,2.5-1.3,4.301-3.7,5.1c-0.3,0.102-0.6,0.102-0.9,0.201c0.801,1.299,1.601,2.5,2.5,3.699c3.5,4.301,7,8.5,10.5,12.801
					c1.101,1.199,2.101,2.5,2.101,4.4c0.1,2.5-3.7,5.6-3.7,5.6L497.3,940.564z M470.7,994.865c0.5-1.9-0.8-3.1-1.8-4.4
					c0.699,1.4,1.3,2.9,1.899,4.4c0.5,2.199-0.2,4.199-1,6.301c1.3-1.5,1.7-3.301,1.5-5.301
					C471.3,995.564,470.9,995.266,470.7,994.865z M491.4,950.465c0.699,0.1,1.399,0.5,2,0.301c1.8-0.6,2.899,0.6,3.899,1.699
					c0.5,0.5,0.9,1.1,1.4,1.6c0.1-0.1,0.1-0.1,0.2-0.199c-2.4-3.801-4.801-7.5-7.301-11.5c-1.3,0.801-2.5,1.5-3.899,2.301
					c-0.3-0.602-0.5-1.102-0.8-1.5c-3.101-4.602-6.2-9.201-9.4-13.801c-4.7-6.6-9.3-13.301-14.1-19.801
					c-2.4-3.398-5.101-6.6-7.7-9.799c-0.4-0.5-0.8-1.1-1.8-1.1c0.199,0.398,0.3,0.6,0.399,0.699c3,2.801,5.3,6.199,7.601,9.5
					c6.8,9.6,13.5,19.301,20.199,29c0.301,0.5,0.5,1.1,0.7,1.699c-0.8-1.1-1.6-2.199-2.399-3.299c-5.2-7.5-10.4-15-15.601-22.5
					c-2.5-3.5-5-6.801-7.5-10.201c-0.899-1.1-1.8-2-3.6-2.299c0.6,1.199,0.899,2.299,1.5,3.199c1.899,2.9,3.899,5.801,5.899,8.6
					c2.4,3.4,4.601,6.9,7.2,10c2.7,3.301,4.9,6.801,7.2,10.301c3.6,5.199,7.3,10.4,11,15.6c0.2,0.301,0.6,0.5,1.1,0.9
					c-0.199-2.199-1-4-2.1-5.699c-0.9-1.5-1.8-3.102-2.7-4.701c0.2,0.201,0.5,0.301,0.601,0.6c2,3.201,4,6.4,5.899,9.602
					c0.9,1.6,1.101,3.299,0.8,5.199c-0.399,1.801-0.199,3.5,0.601,5.199c0.8,1.801,1.899,3.5,2.399,5.5
					c0.2,1.102,1.301,1.701,2.7,1.5c0-0.398,0.101-0.699,0-0.898c-0.3-0.602-0.6-1.102-1-1.5c-1.7-1.9-2.6-4-2.399-6.602
					c0.199-2.6,0.399-5.199-0.9-7.699L491.4,950.465z M447.3,985.766c0.101-0.201,0.3-0.301,0.4-0.5c2.1-4,2.8-8.301,2.7-12.701
					c-0.2-6.398-0.5-12.699-1-19.1c-0.2-2.5-0.7-5.1-1.2-7.6c-0.101-0.9-0.3-1.699-1.601-2.199c0.101,1.898,0.2,3.6,0.301,5.299
					c0.399,6.701,0.8,13.301,1.399,20c0.2,2.301-0.5,4.301-1.5,6.201c-0.899,1.6-0.899,3.199-0.5,5c0.4-0.201,0.8-0.301,1.3-0.602
					c-0.8,4.5-3.3,7.801-5.1,11.102c-0.8-0.102-1.3-0.201-1.6,0c-1,0.6-1.101,1.398-0.4,2.299c0.6,0.701,1.3,1.4,2.1,2.301
					c0.2-0.801,0.4-1.5,0.4-2.1c0.1-2,0.8-3.801,1.8-5.5c0.601-0.9,1.2-1.9,1.7-2.9c1.6-3,2.8-6.201,3.1-9.701
					c0-0.898,0-1.898,0-2.799c0.101,0,0.2,0,0.4,0C449.7,976.865,449.1,981.465,447.3,985.766z M465,983.564
					c-0.5-2.799-1.2-5.1-1.4-7.5c-0.3-3.6-0.3-7.199-0.199-10.898c0-4.701,0.199-9.4,0.399-14.102c0-0.799-0.1-1.6-0.1-2.398
					c-0.2-0.9-0.601-1.5-1.9-1.701c-0.1,1-0.5,1.9-0.5,2.9c-0.1,5.9-0.2,11.801-0.2,17.801c0,2.5,0,5,0.801,7.5
					c0.199-0.4,0.3-0.801,0.699-1.5C463,977.266,463.7,980.266,465,983.564z M448,1001.365c4.3,4.6,11.8,5.199,16.4,3
					c2-0.9,3.6-2.1,4.8-4c0.1-0.199,0.2-0.699,0.3-1.4C462.7,1005.564,455.7,1006.365,448,1001.365z M450.1,909.465
					c-0.1,0.1-0.199,0.201-0.399,0.4c1.7,2.4,4,4.301,6,6.5c2.3,2.6,4.899,4.9,8.3,6.199c0-0.299-0.2-0.398-0.4-0.5
					c-4.399-3-8-6.799-11.5-10.799C451.5,910.564,450.8,910.064,450.1,909.465z M488.9,960.666c-0.4,2.398,0.3,3.199,2.699,3.5
					C491.8,962.166,490.4,961.564,488.9,960.666z M494,954.465c0.4-0.299,0.8-0.5,0.8-0.6c0-0.301-0.2-0.6-0.5-0.801
					c-0.1,0-0.7,0.201-0.7,0.301C493.6,953.766,493.8,953.965,494,954.465z M445.6,999.465c-0.1,0-0.199,0.1-0.3,0.1
					c-0.1-0.6-0.2-1.299-0.399-2c-0.101,0.102-0.2,0.201-0.301,0.301C444.9,998.365,445.3,998.965,445.6,999.465z M443.7,994.865
					c0.1,0,0.2,0,0.3,0l-0.1-2.199c-0.101,0-0.101,0-0.2,0C443.7,993.365,443.7,994.166,443.7,994.865z M467.6,988.666
					c0.101-0.102,0.2-0.201,0.301-0.201c-0.301-0.5-0.601-1-0.9-1.4c-0.1,0-0.1,0.102-0.2,0.102
					C467.1,987.666,467.3,988.166,467.6,988.666z M468.9,996.965c-1,0.1-1,0.5-0.4,1.301C468.7,997.766,468.8,997.365,468.9,996.965
					z M467.1,1003.564c0,0.102,0.101,0.201,0.2,0.201c0.2-0.201,0.601-0.4,0.8-0.701c0,0,0-0.1-0.1-0.199
					C467.7,1003.166,467.4,1003.365,467.1,1003.564z M486.6,958.766c0.101-0.1,0.2-0.301,0.2-0.4s-0.1-0.199-0.2-0.199
					c-0.1,0.1-0.199,0.199-0.3,0.398C486.3,958.564,486.5,958.666,486.6,958.766z"/>
				<path clip-path="url(#SVGID_2_)" fill-rule="evenodd" clip-rule="evenodd" fill="#FFFFFF" d="M464.2,991.865
					c8.899,2.6,15.399-0.199,20.1-8.5c0,0.801,0.101,1.199,0,1.5c-0.5,2.1-1.8,3.801-3.399,5.199
					C477.1,993.465,469.7,994.965,464.2,991.865z"/>
				<path clip-path="url(#SVGID_2_)" fill-rule="evenodd" clip-rule="evenodd" fill="#FFFFFF" d="M461.5,990.766
					c-0.5-0.4-1-0.9-1.5-1.301c0.1-0.1,0.1-0.199,0.3-0.299c0.3,0.6,0.601,1.199,0.9,1.799
					C461.3,990.865,461.4,990.766,461.5,990.766z"/>
				<path clip-path="url(#SVGID_2_)" fill-rule="evenodd" clip-rule="evenodd" fill="#FFFFFF" d="M458.3,986.865
					c-0.2-0.699-0.399-1.4-0.6-2c0-0.1,0.1-0.1,0.2-0.1c0.199,0.699,0.399,1.4,0.699,2C458.5,986.865,458.4,986.865,458.3,986.865z"
					/>
				<path clip-path="url(#SVGID_2_)" fill-rule="evenodd" clip-rule="evenodd" fill="#FFFFFF" d="M483.2,988.564
					c0.2-0.299,0.5-0.699,0.7-1c0.1,0.102,0.1,0.102,0.199,0.102c-0.199,0.398-0.5,0.699-0.699,1L483.2,988.564z"/>
				<polygon clip-path="url(#SVGID_2_)" fill="#FF1762" points="1088.64,1008.379 1097.286,1008.379 1112.068,1030.492 
					1126.93,1008.379 1135.576,1008.379 1116.451,1036.947 1136.851,1067.865 1128.205,1067.865 1111.471,1042.564 
					1094.616,1067.865 1085.931,1067.865 1107.167,1036.109 				"/>
				<path clip-path="url(#SVGID_2_)" fill="#1A77BC" d="M299.886,1056.641c0.8,0.232,1.418,0.66,1.856,1.285
					c0.438,0.625,0.657,1.393,0.657,2.301c0,1.393-0.471,2.432-1.411,3.113c-0.941,0.684-2.372,1.025-4.293,1.025h-6.178v-14.434
					h5.588c2.005,0,3.457,0.303,4.355,0.908c0.899,0.605,1.349,1.576,1.349,2.91c0,0.703-0.164,1.301-0.493,1.793
					C300.988,1056.037,300.511,1056.402,299.886,1056.641z M296.299,1055.52c0.586,0,1.031-0.129,1.334-0.387
					s0.455-0.639,0.455-1.141c0-0.496-0.152-0.875-0.455-1.137s-0.748-0.391-1.334-0.391h-2.059v3.055H296.299z M296.425,1061.832
					c0.747,0,1.31-0.158,1.687-0.473c0.377-0.316,0.566-0.793,0.566-1.432c0-0.625-0.188-1.094-0.561-1.406
					c-0.375-0.313-0.938-0.469-1.692-0.469h-2.185v3.779H296.425z M315.592,1058.188v6.178h-3.49v-1.605
					c-0.464,0.658-0.986,1.137-1.566,1.436c-0.58,0.301-1.285,0.451-2.117,0.451c-1.121,0-2.031-0.328-2.73-0.982
					s-1.049-1.504-1.049-2.547c0-1.27,0.436-2.201,1.31-2.795c0.874-0.592,2.245-0.889,4.114-0.889h2.039v-0.271
					c0-0.547-0.216-0.949-0.647-1.203s-1.105-0.383-2.021-0.383c-0.741,0-1.431,0.074-2.068,0.223
					c-0.639,0.148-1.232,0.371-1.779,0.668v-2.639c0.74-0.182,1.485-0.318,2.232-0.412c0.748-0.094,1.496-0.141,2.244-0.141
					c1.953,0,3.362,0.387,4.229,1.156C315.158,1055.201,315.592,1056.453,315.592,1058.188z M310.304,1059.492
					c-0.722,0-1.265,0.123-1.629,0.367c-0.364,0.246-0.546,0.607-0.546,1.084c0,0.438,0.146,0.781,0.439,1.029
					s0.701,0.371,1.223,0.371c0.651,0,1.199-0.232,1.645-0.699c0.443-0.469,0.666-1.053,0.666-1.756v-0.396H310.304z
					 M327.506,1053.875v2.824c-0.471-0.322-0.943-0.561-1.417-0.717c-0.474-0.154-0.966-0.23-1.474-0.23
					c-0.967,0-1.72,0.281-2.258,0.846c-0.539,0.564-0.808,1.352-0.808,2.363s0.269,1.801,0.808,2.363
					c0.538,0.564,1.291,0.846,2.258,0.846c0.541,0,1.055-0.08,1.541-0.24c0.486-0.162,0.937-0.4,1.35-0.717v2.834
					c-0.542,0.199-1.092,0.35-1.648,0.449c-0.559,0.1-1.117,0.15-1.678,0.15c-1.953,0-3.48-0.502-4.582-1.504
					c-1.104-1.002-1.654-2.396-1.654-4.182s0.551-3.18,1.654-4.182c1.102-1.002,2.629-1.504,4.582-1.504
					c0.566,0,1.127,0.051,1.678,0.15S326.957,1053.676,327.506,1053.875z M330.537,1049.322h3.461v8.188l3.982-3.973h4.022
					l-5.288,4.969l5.704,5.859h-4.196l-4.225-4.516v4.516h-3.461V1049.322z"/>
				
					<line clip-path="url(#SVGID_2_)" fill="none" stroke="#06EEF4" stroke-width="3.9903" stroke-miterlimit="7.6613" x1="405.4" y1="957.365" x2="405.4" y2="1042.064"/>
				<path clip-path="url(#SVGID_2_)" fill-rule="evenodd" clip-rule="evenodd" fill="#06EEF4" d="M405.4,964.564l14.399,8.801
					l0.3-0.5l-9.3-23.5l-5.399-24.6c-1.801,8.199-3.601,16.4-5.4,24.6l-9.4,23.5l0.301,0.5L405.4,964.564z"/>
				<path clip-path="url(#SVGID_2_)" fill-rule="evenodd" clip-rule="evenodd" fill="#1A77BC" d="M1006.4,1011.266
					c-1.9,0.699-3.9,1.5-5.9,2.1c-3.9,1.199-7.9,2.301-11.8,3.4c-5.4,1.6-10.9,3.299-16.4,4.9c-0.899,0.299-1.899,0.6-2.8,0.898
					c0,0.102,0,0.201,0.1,0.4c0.801-0.199,1.7-0.199,2.601-0.4c2.899-0.799,5.899-1.799,8.8-2.6c6.4-1.799,12.9-3.699,19.3-5.5
					c3-0.799,6.101-1.4,9.101-2.199c1.1-0.301,2.199-1,3.199-1.701L1006.4,1011.266z M1000.7,1010.666c0,0,14.3-4.4,19.1-6.102
					c2.8-0.898,8.3-2.898,12-1.398c12.601,5.398-6,22.6-6.6,22.799c-6.9,2.201-13.3-1.5-13.3-1.5l-9.801,2l-2,17.1
					c0,0,15.7,4.602,16,4.701c4.301,1.4,12.801,3.5,18.101,1.6c5.7-1.9,19.8-6.199,21.5,2.699c1.899,10.4-2.3,18.9-6.101,23.102
					c-2.8,3-10.6,6.199-14.3,3.299c-2.399-2-3.6-3.199-5-4.4c-2.8-2.299-8.7-6.699-12-8c-3.2-1.299-13.3-2.799-13.3-2.799
					s-9.3-2-9.7-0.5c-2,8.5-6.899,28.5-9.2,27.1c-1.6-1.1-13.5-9.1-15.6-10.4c-1.2-0.799-2.5-1.6-3.8-2.5
					c-12.8-8.299-29-18.699-29.601-19.6c-0.699-1-0.399-3.1,0.301-4.4c2.3-3.6,4.399-7.299,6.399-11c0.8-1.299,1.8-2,3.5-1.5
					c-0.8-4.6,2.4-7.4,4.101-10.799c0.199-0.4,0.8-0.602,1.199-0.9c1.2,2.199,3.101,2,5.301,2.1c-0.801-0.6-1.2-1-1.101-1.801
					c0.101-1.699,0.101-3.5-1-5.1c-0.5-0.699-0.5-1.4,0-2.199c1.8-3.1,3.601-6.201,5.5-9.301c1.5-2.5,2.9-3.1,5.3-2.4
					c2.5,0.602,3.9,2.301,4.101,4.801c0,0.301,0,0.6,0,1c1.399-0.6,2.8-1,4.1-1.6c5-2.4,10-4.801,15-7.201
					c1.5-0.699,3-1.299,4.8-0.898c2.4,0.5,4.5,4.898,4.5,4.898L1000.7,1010.666z M1047,1049.465c-1.7-0.799-3.2,0.201-4.7,0.801
					C1043.9,1049.965,1045.4,1049.766,1047,1049.465c2.3,0,4.1,1.201,5.8,2.5c-1.1-1.699-2.7-2.5-4.6-2.799
					C1047.9,1049.166,1047.4,1049.465,1047,1049.465z M1008.9,1018.766c0.3-0.6,0.8-1.201,0.8-1.801c-0.101-2,1.2-2.699,2.5-3.5
					c0.6-0.299,1.3-0.6,2-0.9c-0.101-0.1-0.101-0.199-0.2-0.299c-4.2,1.4-8.5,2.9-12.9,4.4c0.5,1.5,0.801,2.799,1.301,4.299
					c-0.7,0.201-1.2,0.301-1.7,0.4c-5.2,2-10.4,3.801-15.601,5.801c-7.6,3-15.1,5.898-22.6,8.898c-3.9,1.602-7.6,3.4-11.4,5.201
					c-0.6,0.199-1.3,0.5-1.5,1.4c0.4-0.102,0.7-0.102,0.801-0.201c3.399-2.299,7.3-3.6,11-5.1c11-4.199,22-8.4,33-12.5
					c0.6-0.199,1.199-0.301,1.8-0.4c-1.2,0.5-2.5,1.1-3.7,1.5c-8.6,3.301-17.1,6.5-25.6,9.9c-4,1.5-7.9,3.199-11.801,4.801
					c-1.199,0.5-2.3,1.199-3,2.898c1.301-0.299,2.4-0.398,3.4-0.699c3.3-1.199,6.6-2.5,9.8-3.699c3.9-1.5,7.8-2.801,11.5-4.602
					c3.8-1.799,7.7-3.1,11.601-4.5c6-2.199,11.899-4.6,17.899-6.898c0.3-0.102,0.601-0.4,1.101-0.801c-2.2-0.4-4.101,0-6,0.6
					c-1.7,0.5-3.5,1-5.301,1.5c0.301-0.1,0.5-0.4,0.801-0.5c3.6-1.1,7.1-2.199,10.699-3.299c1.801-0.5,3.5-0.301,5.2,0.5
					c1.7,0.699,3.4,1,5.2,0.6c2-0.301,3.9-1,6-1c1.1,0,1.9-0.9,2.1-2.201c-0.399-0.1-0.699-0.299-0.899-0.299
					c-0.601,0.199-1.2,0.4-1.7,0.699c-2.2,1.1-4.5,1.5-6.9,0.701c-2.5-0.9-5.1-1.701-7.699-1V1018.766z M1032.6,1070.064
					c-0.1-0.199-0.3-0.299-0.5-0.5c-3.3-3-7.3-4.699-11.6-5.6c-6.3-1.4-12.5-2.6-18.8-3.699c-2.5-0.5-5.101-0.5-7.601-0.701
					c-1-0.1-1.8-0.1-2.6,1.102c1.9,0.299,3.5,0.699,5.2,0.898c6.6,1.201,13.1,2.5,19.8,3.5c2.3,0.301,4.1,1.5,5.6,2.9
					c1.4,1.301,2.9,1.701,4.801,1.701c-0.101-0.4-0.101-0.801-0.2-1.4c4.1,1.9,6.7,5.1,9.399,7.699
					c-0.199,0.701-0.399,1.201-0.3,1.5c0.3,1.1,1.101,1.4,2.101,0.9c0.899-0.4,1.699-0.9,2.8-1.4c-0.8-0.4-1.3-0.799-1.9-1
					c-2-0.5-3.6-1.6-5-3c-0.8-0.799-1.5-1.6-2.399-2.299c-2.5-2.301-5.301-4.301-8.7-5.4c-0.9-0.301-1.8-0.5-2.7-0.701
					c0-0.1,0.1-0.199,0.1-0.299C1024.6,1065.564,1028.8,1067.266,1032.6,1070.064z M1034.7,1052.365c-2.8-0.199-5.3-0.1-7.601-0.4
					c-3.6-0.6-7.1-1.5-10.6-2.4c-4.6-1.199-9.1-2.6-13.7-3.799c-0.7-0.201-1.5-0.4-2.3-0.5c-0.9-0.1-1.7,0.199-2.1,1.4
					c0.899,0.398,1.699,0.898,2.699,1.1c5.7,1.6,11.4,3.199,17.2,4.6c2.4,0.6,4.9,1.199,7.5,1c-0.399-0.301-0.7-0.5-1.3-1.1
					C1028,1052.865,1031.2,1052.865,1034.7,1052.365z M1047.8,1073.166c5.5-3.102,8-10.201,6.9-15.201c-0.4-2.1-1.101-4-2.7-5.6
					c-0.2-0.199-0.6-0.301-1.3-0.699C1055.5,1059.865,1054.5,1066.865,1047.8,1073.166z M959.2,1048.965c0,0.201,0.1,0.301,0.2,0.5
					c2.8-1.1,5.199-2.9,7.8-4.199c3.1-1.6,6-3.6,8.1-6.6c-0.3-0.102-0.5,0.1-0.7,0.299c-3.899,3.5-8.5,6.1-13.199,8.5
					C960.6,1047.865,959.9,1048.465,959.2,1048.965z M1018.3,1023.666c2.2,0.898,3.101,0.5,4-1.801
					C1020.4,1021.166,1019.4,1022.365,1018.3,1023.666z M1013.4,1017.166c-0.2-0.4-0.2-0.9-0.4-0.9c-0.3,0-0.7,0.1-0.9,0.299
					c0,0.102,0.101,0.801,0.2,0.801C1012.6,1017.365,1012.9,1017.266,1013.4,1017.166z M1045.4,1075.064
					c0,0.102,0.1,0.201,0.1,0.301c-0.7-0.1-1.4-0.1-2-0.1c0,0.1,0.1,0.199,0.2,0.4C1044.3,1075.465,1044.9,1075.266,1045.4,1075.064
					z M1040.5,1075.766c0-0.1,0-0.201,0.1-0.301l-2.1-0.4c0,0,0,0.102-0.1,0.201C1039.1,1075.465,1039.8,1075.564,1040.5,1075.766z
					 M1040.2,1051.064c0-0.1,0-0.299-0.101-0.398c-0.5,0.199-1,0.398-1.6,0.6c0.1,0.1,0.1,0.199,0.1,0.299
					C1039.2,1051.365,1039.7,1051.166,1040.2,1051.064z M1048.6,1051.766c-0.1,1.1,0.301,1.1,1.2,0.799
					C1049.3,1052.266,1049,1051.965,1048.6,1051.766z M1054.6,1055.166c0.101-0.102,0.2-0.102,0.301-0.102
					c-0.2-0.398-0.4-0.699-0.5-1.1c-0.101,0.1-0.2,0.1-0.2,0.1C1054.3,1054.465,1054.5,1054.766,1054.6,1055.166z M1015.9,1025.465
					c-0.2-0.1-0.301-0.299-0.4-0.299s-0.2,0.1-0.3,0.199c0.1,0.1,0.2,0.199,0.3,0.301
					C1015.6,1025.666,1015.7,1025.564,1015.9,1025.465z"/>
				
					<line clip-path="url(#SVGID_2_)" fill="none" stroke="#FFFFFF" stroke-width="5.8581" stroke-miterlimit="7.6613" x1="476.2" y1="176.365" x2="769.9" y2="179.065"/>
				<g clip-path="url(#SVGID_2_)">
					<text transform="matrix(1 0 0 1 328.9004 1064.3652)"><tspan x="0" y="0" fill="#1A77BC" font-family="'DejaVuSans-Bold'" font-size="19.8">*</tspan><tspan x="8.295" y="0" fill="#1A77BC" font-family="'DejaVuSans-Bold'" font-size="19.8">#</tspan><tspan x="18.137" y="0" fill="#1A77BC" font-family="'DejaVuSans-Bold'" font-size="19.8">%</tspan><tspan x="33.857" y="0" fill="#1A77BC" font-family="'DejaVuSans-Bold'" font-size="19.8">+</tspan></text>
				</g>
			</g>
		</g>
	</g>
</g>
<g id="Page_28_1_">
	<g id="Page_28">
		<g enable-background="new    ">
			<g>
				<defs>
					<rect id="SVGID_59_" x="1219.969" y="-0.035" width="1210" height="1178"/>
				</defs>
				<clipPath id="SVGID_4_">
					<use xlink:href="#SVGID_59_"  overflow="visible"/>
				</clipPath>
				<g clip-path="url(#SVGID_4_)">
					<defs>
						<rect id="SVGID_61_" x="1056.869" y="64.065" width="1023.1" height="679.3"/>
					</defs>
					<clipPath id="SVGID_6_">
						<use xlink:href="#SVGID_61_"  overflow="visible"/>
					</clipPath>
					<g transform="matrix(1 0 0 1 1.220703e-004 0)" clip-path="url(#SVGID_6_)">
						
							<image overflow="visible" width="1000" height="664" xlink:href="6B3068EE.jpg"  transform="matrix(1.0231 0 0 1.023 1056.8691 64.0654)">
						</image>
					</g>
				</g>
			</g>
		</g>
	</g>
</g>
<g id="Page_29_1_">
</g>
<g id="Page_30_1_">
</g>
<g id="Page_31_1_">
</g>
<g id="Page_32_1_">
</g>
<g id="Page_33_1_">
</g>
<g id="Page_34_1_">
</g>
<g id="Page_35_1_">
</g>
<g id="Page_36_1_">
</g>
<g id="Page_37_1_">
</g>
<g id="Page_38_1_">
</g>
</svg>
