<?xml version="1.0" encoding="utf-8"?>
<!-- Generator: Adobe Illustrator 16.0.0, SVG Export Plug-In . SVG Version: 6.00 Build 0)  -->
<!DOCTYPE svg PUBLIC "-//W3C//DTD SVG 1.1//EN" "http://www.w3.org/Graphics/SVG/1.1/DTD/svg11.dtd">
<svg version="1.1" id="Layer_1" xmlns="http://www.w3.org/2000/svg" xmlns:xlink="http://www.w3.org/1999/xlink" x="0px" y="0px"
	 width="1210px" height="1178px" viewBox="0 0 1210 1178" enable-background="new 0 0 1210 1178" xml:space="preserve">
<g>
	<defs>
		<rect id="SVGID_1_" width="1210" height="1178"/>
	</defs>
	<clipPath id="SVGID_2_">
		<use xlink:href="#SVGID_1_"  overflow="visible"/>
	</clipPath>
	<g clip-path="url(#SVGID_2_)">
		<defs>
			<rect id="SVGID_3_" width="1210" height="1178"/>
		</defs>
		<clipPath id="SVGID_4_">
			<use xlink:href="#SVGID_3_"  overflow="visible"/>
		</clipPath>
		<path clip-path="url(#SVGID_4_)" fill="none" stroke="#2C77BC" stroke-width="7.134" stroke-miterlimit="10" d="M911.352,1035.475
			H379.938c-65.807,0-119.648-53.842-119.648-119.649v-461.12c0-65.807,53.841-119.649,119.648-119.649h531.414
			c65.807,0,119.648,53.842,119.648,119.649v461.12C1031,981.633,977.158,1035.475,911.352,1035.475z"/>
		<polygon clip-path="url(#SVGID_4_)" fill="none" stroke="#2C77BC" stroke-width="7.134" stroke-miterlimit="10" points="
			538.792,691.809 538.792,665.932 838.372,668.05 838.372,691.809 876.866,691.809 876.866,888.912 840.047,888.912 
			840.047,914.017 538.792,914.017 538.792,892.26 500.297,892.26 500.297,691.809 		"/>
		<path clip-path="url(#SVGID_4_)" fill-rule="evenodd" clip-rule="evenodd" fill="#2C77BC" d="M539.315,727.861
			c0,3.195-2.59,5.784-5.784,5.784c-3.195,0-5.785-2.589-5.785-5.784c0-3.194,2.59-5.784,5.785-5.784
			C536.725,722.077,539.315,724.667,539.315,727.861"/>
		<path clip-path="url(#SVGID_4_)" fill-rule="evenodd" clip-rule="evenodd" fill="#2C77BC" d="M570.556,727.861
			c0,3.195-2.59,5.784-5.784,5.784c-3.195,0-5.784-2.589-5.784-5.784c0-3.194,2.589-5.784,5.784-5.784
			C567.966,722.077,570.556,724.667,570.556,727.861"/>
		<path clip-path="url(#SVGID_4_)" fill-rule="evenodd" clip-rule="evenodd" fill="#2C77BC" d="M601.797,727.861
			c0,3.195-2.589,5.784-5.784,5.784c-3.195,0-5.784-2.589-5.784-5.784c0-3.194,2.589-5.784,5.784-5.784
			C599.208,722.077,601.797,724.667,601.797,727.861"/>
		<path clip-path="url(#SVGID_4_)" fill-rule="evenodd" clip-rule="evenodd" fill="#2C77BC" d="M633.039,727.861
			c0,3.195-2.59,5.784-5.784,5.784s-5.784-2.589-5.784-5.784c0-3.194,2.59-5.784,5.784-5.784S633.039,724.667,633.039,727.861"/>
		<path clip-path="url(#SVGID_4_)" fill-rule="evenodd" clip-rule="evenodd" fill="#2C77BC" d="M664.279,727.861
			c0,3.195-2.589,5.784-5.783,5.784c-3.195,0-5.784-2.589-5.784-5.784c0-3.194,2.589-5.784,5.784-5.784
			C661.69,722.077,664.279,724.667,664.279,727.861"/>
		<path clip-path="url(#SVGID_4_)" fill-rule="evenodd" clip-rule="evenodd" fill="#2C77BC" d="M695.521,727.861
			c0,3.195-2.59,5.784-5.785,5.784c-3.193,0-5.784-2.589-5.784-5.784c0-3.194,2.591-5.784,5.784-5.784
			C692.932,722.077,695.521,724.667,695.521,727.861"/>
		<path clip-path="url(#SVGID_4_)" fill-rule="evenodd" clip-rule="evenodd" fill="#2C77BC" d="M726.763,727.861
			c0,3.195-2.59,5.784-5.785,5.784c-3.194,0-5.784-2.589-5.784-5.784c0-3.194,2.59-5.784,5.784-5.784
			C724.173,722.077,726.763,724.667,726.763,727.861"/>
		<path clip-path="url(#SVGID_4_)" fill-rule="evenodd" clip-rule="evenodd" fill="#2C77BC" d="M758.004,727.861
			c0,3.195-2.59,5.784-5.784,5.784s-5.785-2.589-5.785-5.784c0-3.194,2.591-5.784,5.785-5.784S758.004,724.667,758.004,727.861"/>
		<path clip-path="url(#SVGID_4_)" fill-rule="evenodd" clip-rule="evenodd" fill="#2C77BC" d="M789.245,727.861
			c0,3.195-2.59,5.784-5.784,5.784c-3.195,0-5.785-2.589-5.785-5.784c0-3.194,2.59-5.784,5.785-5.784
			C786.655,722.077,789.245,724.667,789.245,727.861"/>
		<path clip-path="url(#SVGID_4_)" fill-rule="evenodd" clip-rule="evenodd" fill="#2C77BC" d="M820.486,727.861
			c0,3.195-2.59,5.784-5.784,5.784s-5.785-2.589-5.785-5.784c0-3.194,2.591-5.784,5.785-5.784S820.486,724.667,820.486,727.861"/>
		<path clip-path="url(#SVGID_4_)" fill-rule="evenodd" clip-rule="evenodd" fill="#2C77BC" d="M851.728,727.861
			c0,3.195-2.59,5.784-5.784,5.784c-3.195,0-5.784-2.589-5.784-5.784c0-3.194,2.589-5.784,5.784-5.784
			C849.138,722.077,851.728,724.667,851.728,727.861"/>
		<path clip-path="url(#SVGID_4_)" fill-rule="evenodd" clip-rule="evenodd" fill="#2C77BC" d="M539.315,759.484
			c0,3.194-2.59,5.784-5.784,5.784c-3.195,0-5.785-2.59-5.785-5.784c0-3.195,2.59-5.784,5.785-5.784
			C536.725,753.7,539.315,756.289,539.315,759.484"/>
		<path clip-path="url(#SVGID_4_)" fill-rule="evenodd" clip-rule="evenodd" fill="#2C77BC" d="M570.556,759.484
			c0,3.194-2.59,5.784-5.784,5.784c-3.195,0-5.784-2.59-5.784-5.784c0-3.195,2.589-5.784,5.784-5.784
			C567.966,753.7,570.556,756.289,570.556,759.484"/>
		<path clip-path="url(#SVGID_4_)" fill-rule="evenodd" clip-rule="evenodd" fill="#2C77BC" d="M601.797,759.484
			c0,3.194-2.589,5.784-5.784,5.784c-3.195,0-5.784-2.59-5.784-5.784c0-3.195,2.589-5.784,5.784-5.784
			C599.208,753.7,601.797,756.289,601.797,759.484"/>
		<path clip-path="url(#SVGID_4_)" fill-rule="evenodd" clip-rule="evenodd" fill="#2C77BC" d="M633.039,759.484
			c0,3.194-2.59,5.784-5.784,5.784s-5.784-2.59-5.784-5.784c0-3.195,2.59-5.784,5.784-5.784S633.039,756.289,633.039,759.484"/>
		<path clip-path="url(#SVGID_4_)" fill-rule="evenodd" clip-rule="evenodd" fill="#2C77BC" d="M664.279,759.484
			c0,3.194-2.589,5.784-5.783,5.784c-3.195,0-5.784-2.59-5.784-5.784c0-3.195,2.589-5.784,5.784-5.784
			C661.69,753.7,664.279,756.289,664.279,759.484"/>
		<path clip-path="url(#SVGID_4_)" fill-rule="evenodd" clip-rule="evenodd" fill="#2C77BC" d="M695.521,759.484
			c0,3.194-2.59,5.784-5.785,5.784c-3.193,0-5.784-2.59-5.784-5.784c0-3.195,2.591-5.784,5.784-5.784
			C692.932,753.7,695.521,756.289,695.521,759.484"/>
		<path clip-path="url(#SVGID_4_)" fill-rule="evenodd" clip-rule="evenodd" fill="#2C77BC" d="M726.763,759.484
			c0,3.194-2.59,5.784-5.785,5.784c-3.194,0-5.784-2.59-5.784-5.784c0-3.195,2.59-5.784,5.784-5.784
			C724.173,753.7,726.763,756.289,726.763,759.484"/>
		<path clip-path="url(#SVGID_4_)" fill-rule="evenodd" clip-rule="evenodd" fill="#2C77BC" d="M758.004,759.484
			c0,3.194-2.59,5.784-5.784,5.784s-5.785-2.59-5.785-5.784c0-3.195,2.591-5.784,5.785-5.784S758.004,756.289,758.004,759.484"/>
		<path clip-path="url(#SVGID_4_)" fill-rule="evenodd" clip-rule="evenodd" fill="#2C77BC" d="M789.245,759.484
			c0,3.194-2.59,5.784-5.784,5.784c-3.195,0-5.785-2.59-5.785-5.784c0-3.195,2.59-5.784,5.785-5.784
			C786.655,753.7,789.245,756.289,789.245,759.484"/>
		<path clip-path="url(#SVGID_4_)" fill-rule="evenodd" clip-rule="evenodd" fill="#2C77BC" d="M820.486,759.484
			c0,3.194-2.59,5.784-5.784,5.784s-5.785-2.59-5.785-5.784c0-3.195,2.591-5.784,5.785-5.784S820.486,756.289,820.486,759.484"/>
		<path clip-path="url(#SVGID_4_)" fill-rule="evenodd" clip-rule="evenodd" fill="#2C77BC" d="M851.728,759.484
			c0,3.194-2.59,5.784-5.784,5.784c-3.195,0-5.784-2.59-5.784-5.784c0-3.195,2.589-5.784,5.784-5.784
			C849.138,753.7,851.728,756.289,851.728,759.484"/>
		<path clip-path="url(#SVGID_4_)" fill-rule="evenodd" clip-rule="evenodd" fill="#2C77BC" d="M539.315,791.106
			c0,3.195-2.59,5.784-5.784,5.784c-3.195,0-5.785-2.589-5.785-5.784c0-3.194,2.59-5.783,5.785-5.783
			C536.725,785.323,539.315,787.912,539.315,791.106"/>
		<path clip-path="url(#SVGID_4_)" fill-rule="evenodd" clip-rule="evenodd" fill="#2C77BC" d="M570.556,791.106
			c0,3.195-2.59,5.784-5.784,5.784c-3.195,0-5.784-2.589-5.784-5.784c0-3.194,2.589-5.783,5.784-5.783
			C567.966,785.323,570.556,787.912,570.556,791.106"/>
		<path clip-path="url(#SVGID_4_)" fill-rule="evenodd" clip-rule="evenodd" fill="#2C77BC" d="M601.797,791.106
			c0,3.195-2.589,5.784-5.784,5.784c-3.195,0-5.784-2.589-5.784-5.784c0-3.194,2.589-5.783,5.784-5.783
			C599.208,785.323,601.797,787.912,601.797,791.106"/>
		<path clip-path="url(#SVGID_4_)" fill-rule="evenodd" clip-rule="evenodd" fill="#2C77BC" d="M633.039,791.106
			c0,3.195-2.59,5.784-5.784,5.784s-5.784-2.589-5.784-5.784c0-3.194,2.59-5.783,5.784-5.783S633.039,787.912,633.039,791.106"/>
		<path clip-path="url(#SVGID_4_)" fill-rule="evenodd" clip-rule="evenodd" fill="#2C77BC" d="M664.279,791.106
			c0,3.195-2.589,5.784-5.783,5.784c-3.195,0-5.784-2.589-5.784-5.784c0-3.194,2.589-5.783,5.784-5.783
			C661.69,785.323,664.279,787.912,664.279,791.106"/>
		<path clip-path="url(#SVGID_4_)" fill-rule="evenodd" clip-rule="evenodd" fill="#2C77BC" d="M695.521,791.106
			c0,3.195-2.59,5.784-5.785,5.784c-3.193,0-5.784-2.589-5.784-5.784c0-3.194,2.591-5.783,5.784-5.783
			C692.932,785.323,695.521,787.912,695.521,791.106"/>
		<path clip-path="url(#SVGID_4_)" fill-rule="evenodd" clip-rule="evenodd" fill="#2C77BC" d="M726.763,791.106
			c0,3.195-2.59,5.784-5.785,5.784c-3.194,0-5.784-2.589-5.784-5.784c0-3.194,2.59-5.783,5.784-5.783
			C724.173,785.323,726.763,787.912,726.763,791.106"/>
		<path clip-path="url(#SVGID_4_)" fill-rule="evenodd" clip-rule="evenodd" fill="#2C77BC" d="M758.004,791.106
			c0,3.195-2.59,5.784-5.784,5.784s-5.785-2.589-5.785-5.784c0-3.194,2.591-5.783,5.785-5.783S758.004,787.912,758.004,791.106"/>
		<path clip-path="url(#SVGID_4_)" fill-rule="evenodd" clip-rule="evenodd" fill="#2C77BC" d="M789.245,791.106
			c0,3.195-2.59,5.784-5.784,5.784c-3.195,0-5.785-2.589-5.785-5.784c0-3.194,2.59-5.783,5.785-5.783
			C786.655,785.323,789.245,787.912,789.245,791.106"/>
		<path clip-path="url(#SVGID_4_)" fill-rule="evenodd" clip-rule="evenodd" fill="#2C77BC" d="M820.486,791.106
			c0,3.195-2.59,5.784-5.784,5.784s-5.785-2.589-5.785-5.784c0-3.194,2.591-5.783,5.785-5.783S820.486,787.912,820.486,791.106"/>
		<path clip-path="url(#SVGID_4_)" fill-rule="evenodd" clip-rule="evenodd" fill="#2C77BC" d="M851.728,791.106
			c0,3.195-2.59,5.784-5.784,5.784c-3.195,0-5.784-2.589-5.784-5.784c0-3.194,2.589-5.783,5.784-5.783
			C849.138,785.323,851.728,787.912,851.728,791.106"/>
		<path clip-path="url(#SVGID_4_)" fill-rule="evenodd" clip-rule="evenodd" fill="#2C77BC" d="M539.315,822.729
			c0,3.195-2.59,5.784-5.784,5.784c-3.195,0-5.785-2.589-5.785-5.784s2.59-5.784,5.785-5.784
			C536.725,816.945,539.315,819.534,539.315,822.729"/>
		<path clip-path="url(#SVGID_4_)" fill-rule="evenodd" clip-rule="evenodd" fill="#2C77BC" d="M570.556,822.729
			c0,3.195-2.59,5.784-5.784,5.784c-3.195,0-5.784-2.589-5.784-5.784s2.589-5.784,5.784-5.784
			C567.966,816.945,570.556,819.534,570.556,822.729"/>
		<path clip-path="url(#SVGID_4_)" fill-rule="evenodd" clip-rule="evenodd" fill="#2C77BC" d="M601.797,822.729
			c0,3.195-2.589,5.784-5.784,5.784c-3.195,0-5.784-2.589-5.784-5.784s2.589-5.784,5.784-5.784
			C599.208,816.945,601.797,819.534,601.797,822.729"/>
		<path clip-path="url(#SVGID_4_)" fill-rule="evenodd" clip-rule="evenodd" fill="#2C77BC" d="M633.039,822.729
			c0,3.195-2.59,5.784-5.784,5.784s-5.784-2.589-5.784-5.784s2.59-5.784,5.784-5.784S633.039,819.534,633.039,822.729"/>
		<path clip-path="url(#SVGID_4_)" fill-rule="evenodd" clip-rule="evenodd" fill="#2C77BC" d="M664.279,822.729
			c0,3.195-2.589,5.784-5.783,5.784c-3.195,0-5.784-2.589-5.784-5.784s2.589-5.784,5.784-5.784
			C661.69,816.945,664.279,819.534,664.279,822.729"/>
		<path clip-path="url(#SVGID_4_)" fill-rule="evenodd" clip-rule="evenodd" fill="#2C77BC" d="M695.521,822.729
			c0,3.195-2.59,5.784-5.785,5.784c-3.193,0-5.784-2.589-5.784-5.784s2.591-5.784,5.784-5.784
			C692.932,816.945,695.521,819.534,695.521,822.729"/>
		<path clip-path="url(#SVGID_4_)" fill-rule="evenodd" clip-rule="evenodd" fill="#2C77BC" d="M726.763,822.729
			c0,3.195-2.59,5.784-5.785,5.784c-3.194,0-5.784-2.589-5.784-5.784s2.59-5.784,5.784-5.784
			C724.173,816.945,726.763,819.534,726.763,822.729"/>
		<path clip-path="url(#SVGID_4_)" fill-rule="evenodd" clip-rule="evenodd" fill="#2C77BC" d="M758.004,822.729
			c0,3.195-2.59,5.784-5.784,5.784s-5.785-2.589-5.785-5.784s2.591-5.784,5.785-5.784S758.004,819.534,758.004,822.729"/>
		<path clip-path="url(#SVGID_4_)" fill-rule="evenodd" clip-rule="evenodd" fill="#2C77BC" d="M789.245,822.729
			c0,3.195-2.59,5.784-5.784,5.784c-3.195,0-5.785-2.589-5.785-5.784s2.59-5.784,5.785-5.784
			C786.655,816.945,789.245,819.534,789.245,822.729"/>
		<path clip-path="url(#SVGID_4_)" fill-rule="evenodd" clip-rule="evenodd" fill="#2C77BC" d="M820.486,822.729
			c0,3.195-2.59,5.784-5.784,5.784s-5.785-2.589-5.785-5.784s2.591-5.784,5.785-5.784S820.486,819.534,820.486,822.729"/>
		<path clip-path="url(#SVGID_4_)" fill-rule="evenodd" clip-rule="evenodd" fill="#2C77BC" d="M851.728,822.729
			c0,3.195-2.59,5.784-5.784,5.784c-3.195,0-5.784-2.589-5.784-5.784s2.589-5.784,5.784-5.784
			C849.138,816.945,851.728,819.534,851.728,822.729"/>
		<path clip-path="url(#SVGID_4_)" fill-rule="evenodd" clip-rule="evenodd" fill="#2C77BC" d="M539.315,854.353
			c0,3.194-2.59,5.784-5.784,5.784c-3.195,0-5.785-2.59-5.785-5.784c0-3.195,2.59-5.784,5.785-5.784
			C536.725,848.568,539.315,851.157,539.315,854.353"/>
		<path clip-path="url(#SVGID_4_)" fill-rule="evenodd" clip-rule="evenodd" fill="#2C77BC" d="M570.556,854.353
			c0,3.194-2.59,5.784-5.784,5.784c-3.195,0-5.784-2.59-5.784-5.784c0-3.195,2.589-5.784,5.784-5.784
			C567.966,848.568,570.556,851.157,570.556,854.353"/>
		<path clip-path="url(#SVGID_4_)" fill-rule="evenodd" clip-rule="evenodd" fill="#2C77BC" d="M601.797,854.353
			c0,3.194-2.589,5.784-5.784,5.784c-3.195,0-5.784-2.59-5.784-5.784c0-3.195,2.589-5.784,5.784-5.784
			C599.208,848.568,601.797,851.157,601.797,854.353"/>
		<path clip-path="url(#SVGID_4_)" fill-rule="evenodd" clip-rule="evenodd" fill="#2C77BC" d="M633.039,854.353
			c0,3.194-2.59,5.784-5.784,5.784s-5.784-2.59-5.784-5.784c0-3.195,2.59-5.784,5.784-5.784S633.039,851.157,633.039,854.353"/>
		<path clip-path="url(#SVGID_4_)" fill-rule="evenodd" clip-rule="evenodd" fill="#2C77BC" d="M664.279,854.353
			c0,3.194-2.589,5.784-5.783,5.784c-3.195,0-5.784-2.59-5.784-5.784c0-3.195,2.589-5.784,5.784-5.784
			C661.69,848.568,664.279,851.157,664.279,854.353"/>
		<path clip-path="url(#SVGID_4_)" fill-rule="evenodd" clip-rule="evenodd" fill="#2C77BC" d="M695.521,854.353
			c0,3.194-2.59,5.784-5.785,5.784c-3.193,0-5.784-2.59-5.784-5.784c0-3.195,2.591-5.784,5.784-5.784
			C692.932,848.568,695.521,851.157,695.521,854.353"/>
		<path clip-path="url(#SVGID_4_)" fill-rule="evenodd" clip-rule="evenodd" fill="#2C77BC" d="M726.763,854.353
			c0,3.194-2.59,5.784-5.785,5.784c-3.194,0-5.784-2.59-5.784-5.784c0-3.195,2.59-5.784,5.784-5.784
			C724.173,848.568,726.763,851.157,726.763,854.353"/>
		<path clip-path="url(#SVGID_4_)" fill-rule="evenodd" clip-rule="evenodd" fill="#2C77BC" d="M758.004,854.353
			c0,3.194-2.59,5.784-5.784,5.784s-5.785-2.59-5.785-5.784c0-3.195,2.591-5.784,5.785-5.784S758.004,851.157,758.004,854.353"/>
		<path clip-path="url(#SVGID_4_)" fill-rule="evenodd" clip-rule="evenodd" fill="#2C77BC" d="M789.245,854.353
			c0,3.194-2.59,5.784-5.784,5.784c-3.195,0-5.785-2.59-5.785-5.784c0-3.195,2.59-5.784,5.785-5.784
			C786.655,848.568,789.245,851.157,789.245,854.353"/>
		<path clip-path="url(#SVGID_4_)" fill-rule="evenodd" clip-rule="evenodd" fill="#2C77BC" d="M820.486,854.353
			c0,3.194-2.59,5.784-5.784,5.784s-5.785-2.59-5.785-5.784c0-3.195,2.591-5.784,5.785-5.784S820.486,851.157,820.486,854.353"/>
		<path clip-path="url(#SVGID_4_)" fill-rule="evenodd" clip-rule="evenodd" fill="#2C77BC" d="M851.728,854.353
			c0,3.194-2.59,5.784-5.784,5.784c-3.195,0-5.784-2.59-5.784-5.784c0-3.195,2.589-5.784,5.784-5.784
			C849.138,848.568,851.728,851.157,851.728,854.353"/>
		
			<rect x="318.708" y="449.946" clip-path="url(#SVGID_4_)" fill="none" stroke="#2C77BC" stroke-width="7.134" stroke-miterlimit="10" width="25.104" height="376.007"/>
		
			<rect x="318.708" y="389.544" clip-path="url(#SVGID_4_)" fill="none" stroke="#2C77BC" stroke-width="6.576" stroke-miterlimit="10" width="188.199" height="25.105"/>
		
			<rect x="294.858" y="931.291" clip-path="url(#SVGID_4_)" fill="none" stroke="#2C77BC" stroke-width="7.134" stroke-miterlimit="10" width="125.104" height="25.105"/>
		
			<rect x="585.514" y="389.544" clip-path="url(#SVGID_4_)" fill="none" stroke="#2C77BC" stroke-width="7.134" stroke-miterlimit="10" width="250.208" height="25.105"/>
		
			<rect x="601.797" y="587.752" clip-path="url(#SVGID_4_)" fill="none" stroke="#2C77BC" stroke-width="7.134" stroke-miterlimit="10" width="56.698" height="56.698"/>
		
			<rect x="763.788" y="532.135" clip-path="url(#SVGID_4_)" fill="none" stroke="#2C77BC" stroke-width="7.134" stroke-miterlimit="10" width="56.698" height="28.349"/>
		
			<rect x="845.943" y="469.114" clip-path="url(#SVGID_4_)" fill="none" stroke="#2C77BC" stroke-width="7.134" stroke-miterlimit="10" width="56.696" height="28.349"/>
		
			<rect x="845.943" y="595.169" clip-path="url(#SVGID_4_)" fill="none" stroke="#2C77BC" stroke-width="7.134" stroke-miterlimit="10" width="56.696" height="28.349"/>
		
			<rect x="442.976" y="934.804" clip-path="url(#SVGID_4_)" fill="none" stroke="#2C77BC" stroke-width="7.134" stroke-miterlimit="10" width="170.711" height="65.626"/>
		
			<rect x="668.801" y="934.804" clip-path="url(#SVGID_4_)" fill="none" stroke="#2C77BC" stroke-width="7.134" stroke-miterlimit="10" width="170.711" height="65.626"/>
		
			<rect x="924.458" y="532.135" clip-path="url(#SVGID_4_)" fill="none" stroke="#2C77BC" stroke-width="7.134" stroke-miterlimit="10" width="56.698" height="28.349"/>
		
			<rect x="466.47" y="971.142" clip-path="url(#SVGID_4_)" fill-rule="evenodd" clip-rule="evenodd" fill="#2C77BC" width="7.531" height="7.531"/>
		
			<rect x="495.34" y="971.142" clip-path="url(#SVGID_4_)" fill-rule="evenodd" clip-rule="evenodd" fill="#2C77BC" width="7.531" height="7.531"/>
		
			<rect x="524.21" y="971.142" clip-path="url(#SVGID_4_)" fill-rule="evenodd" clip-rule="evenodd" fill="#2C77BC" width="7.532" height="7.531"/>
		
			<rect x="553.081" y="971.142" clip-path="url(#SVGID_4_)" fill-rule="evenodd" clip-rule="evenodd" fill="#2C77BC" width="7.531" height="7.531"/>
		
			<rect x="581.951" y="971.142" clip-path="url(#SVGID_4_)" fill-rule="evenodd" clip-rule="evenodd" fill="#2C77BC" width="7.531" height="7.531"/>
		
			<rect x="692" y="971.142" clip-path="url(#SVGID_4_)" fill-rule="evenodd" clip-rule="evenodd" fill="#2C77BC" width="7.531" height="7.531"/>
		
			<rect x="720.87" y="971.142" clip-path="url(#SVGID_4_)" fill-rule="evenodd" clip-rule="evenodd" fill="#2C77BC" width="7.532" height="7.531"/>
		
			<rect x="749.741" y="971.142" clip-path="url(#SVGID_4_)" fill-rule="evenodd" clip-rule="evenodd" fill="#2C77BC" width="7.53" height="7.531"/>
		
			<rect x="778.612" y="971.142" clip-path="url(#SVGID_4_)" fill-rule="evenodd" clip-rule="evenodd" fill="#2C77BC" width="7.529" height="7.531"/>
		
			<rect x="807.482" y="971.142" clip-path="url(#SVGID_4_)" fill-rule="evenodd" clip-rule="evenodd" fill="#2C77BC" width="7.53" height="7.531"/>
		
			<rect x="872.473" y="939.232" clip-path="url(#SVGID_4_)" fill-rule="evenodd" clip-rule="evenodd" fill="#2C77BC" width="7.531" height="7.529"/>
		
			<rect x="906.253" y="939.232" clip-path="url(#SVGID_4_)" fill-rule="evenodd" clip-rule="evenodd" fill="#2C77BC" width="7.531" height="7.529"/>
		
			<rect x="305.031" y="875.411" clip-path="url(#SVGID_4_)" fill-rule="evenodd" clip-rule="evenodd" fill="#2C77BC" width="7.531" height="7.531"/>
		
			<rect x="338.81" y="875.411" clip-path="url(#SVGID_4_)" fill-rule="evenodd" clip-rule="evenodd" fill="#2C77BC" width="7.532" height="7.531"/>
		
			<rect x="937.578" y="939.232" clip-path="url(#SVGID_4_)" fill-rule="evenodd" clip-rule="evenodd" fill="#2C77BC" width="7.531" height="7.529"/>
		
			<line clip-path="url(#SVGID_4_)" fill="none" stroke="#2C77BC" stroke-width="7.134" stroke-miterlimit="10" x1="326.135" y1="931.29" x2="326.135" y2="956.395"/>
		
			<line clip-path="url(#SVGID_4_)" fill="none" stroke="#2C77BC" stroke-width="7.134" stroke-miterlimit="10" x1="357.411" y1="931.29" x2="357.411" y2="956.395"/>
		
			<line clip-path="url(#SVGID_4_)" fill="none" stroke="#2C77BC" stroke-width="7.134" stroke-miterlimit="10" x1="388.687" y1="931.29" x2="388.687" y2="956.395"/>
		
			<rect x="861.883" y="931.291" clip-path="url(#SVGID_4_)" fill="none" stroke="#2C77BC" stroke-width="6.191" stroke-miterlimit="10" width="94.227" height="25.105"/>
		
			<line clip-path="url(#SVGID_4_)" fill="none" stroke="#2C77BC" stroke-width="7.134" stroke-miterlimit="10" x1="893.159" y1="931.29" x2="893.159" y2="956.395"/>
		
			<line clip-path="url(#SVGID_4_)" fill="none" stroke="#2C77BC" stroke-width="7.134" stroke-miterlimit="10" x1="924.436" y1="931.29" x2="924.436" y2="956.395"/>
		
			<rect x="293.653" y="865.67" clip-path="url(#SVGID_4_)" fill="none" stroke="#2C77BC" stroke-width="7.134" stroke-miterlimit="10" width="62.552" height="25.105"/>
		
			<line clip-path="url(#SVGID_4_)" fill="none" stroke="#2C77BC" stroke-width="7.134" stroke-miterlimit="10" x1="324.929" y1="865.67" x2="324.929" y2="890.775"/>
		
			<line clip-path="url(#SVGID_4_)" fill="none" stroke="#2C77BC" stroke-width="7.134" stroke-miterlimit="10" x1="343.813" y1="794.782" x2="318.708" y2="794.782"/>
		
			<line clip-path="url(#SVGID_4_)" fill="none" stroke="#2C77BC" stroke-width="7.134" stroke-miterlimit="10" x1="343.813" y1="762.707" x2="318.708" y2="762.707"/>
		
			<line clip-path="url(#SVGID_4_)" fill="none" stroke="#2C77BC" stroke-width="7.134" stroke-miterlimit="10" x1="343.813" y1="731.432" x2="318.708" y2="731.432"/>
		
			<line clip-path="url(#SVGID_4_)" fill="none" stroke="#2C77BC" stroke-width="7.134" stroke-miterlimit="10" x1="343.813" y1="700.155" x2="318.708" y2="700.155"/>
		
			<line clip-path="url(#SVGID_4_)" fill="none" stroke="#2C77BC" stroke-width="7.134" stroke-miterlimit="10" x1="343.813" y1="668.879" x2="318.708" y2="668.879"/>
		
			<line clip-path="url(#SVGID_4_)" fill="none" stroke="#2C77BC" stroke-width="7.134" stroke-miterlimit="10" x1="343.813" y1="637.604" x2="318.708" y2="637.604"/>
		
			<line clip-path="url(#SVGID_4_)" fill="none" stroke="#2C77BC" stroke-width="7.134" stroke-miterlimit="10" x1="343.813" y1="606.327" x2="318.708" y2="606.327"/>
		
			<line clip-path="url(#SVGID_4_)" fill="none" stroke="#2C77BC" stroke-width="7.134" stroke-miterlimit="10" x1="343.813" y1="575.051" x2="318.708" y2="575.051"/>
		
			<line clip-path="url(#SVGID_4_)" fill="none" stroke="#2C77BC" stroke-width="7.134" stroke-miterlimit="10" x1="343.813" y1="543.775" x2="318.708" y2="543.775"/>
		
			<line clip-path="url(#SVGID_4_)" fill="none" stroke="#2C77BC" stroke-width="7.134" stroke-miterlimit="10" x1="343.813" y1="512.499" x2="318.708" y2="512.499"/>
		
			<line clip-path="url(#SVGID_4_)" fill="none" stroke="#2C77BC" stroke-width="7.134" stroke-miterlimit="10" x1="343.813" y1="481.223" x2="318.708" y2="481.223"/>
		
			<line clip-path="url(#SVGID_4_)" fill="none" stroke="#2C77BC" stroke-width="7.134" stroke-miterlimit="10" x1="616.79" y1="414.648" x2="616.79" y2="389.544"/>
		
			<line clip-path="url(#SVGID_4_)" fill="none" stroke="#2C77BC" stroke-width="7.134" stroke-miterlimit="10" x1="475.088" y1="414.648" x2="475.088" y2="389.544"/>
		
			<line clip-path="url(#SVGID_4_)" fill="none" stroke="#2C77BC" stroke-width="7.134" stroke-miterlimit="10" x1="443.813" y1="414.648" x2="443.813" y2="389.544"/>
		
			<line clip-path="url(#SVGID_4_)" fill="none" stroke="#2C77BC" stroke-width="7.134" stroke-miterlimit="10" x1="412.536" y1="414.648" x2="412.536" y2="389.544"/>
		
			<line clip-path="url(#SVGID_4_)" fill="none" stroke="#2C77BC" stroke-width="7.134" stroke-miterlimit="10" x1="381.26" y1="414.648" x2="381.26" y2="389.544"/>
		
			<line clip-path="url(#SVGID_4_)" fill="none" stroke="#2C77BC" stroke-width="7.134" stroke-miterlimit="10" x1="349.984" y1="414.648" x2="349.984" y2="389.544"/>
		
			<line clip-path="url(#SVGID_4_)" fill="none" stroke="#2C77BC" stroke-width="7.134" stroke-miterlimit="10" x1="648.066" y1="414.648" x2="648.066" y2="389.544"/>
		
			<line clip-path="url(#SVGID_4_)" fill="none" stroke="#2C77BC" stroke-width="7.134" stroke-miterlimit="10" x1="679.342" y1="414.648" x2="679.342" y2="389.544"/>
		
			<line clip-path="url(#SVGID_4_)" fill="none" stroke="#2C77BC" stroke-width="7.134" stroke-miterlimit="10" x1="710.618" y1="414.648" x2="710.618" y2="389.544"/>
		
			<line clip-path="url(#SVGID_4_)" fill="none" stroke="#2C77BC" stroke-width="7.134" stroke-miterlimit="10" x1="741.895" y1="414.648" x2="741.895" y2="389.544"/>
		
			<line clip-path="url(#SVGID_4_)" fill="none" stroke="#2C77BC" stroke-width="7.134" stroke-miterlimit="10" x1="773.17" y1="414.648" x2="773.17" y2="389.544"/>
		
			<line clip-path="url(#SVGID_4_)" fill="none" stroke="#2C77BC" stroke-width="7.134" stroke-miterlimit="10" x1="804.447" y1="414.648" x2="804.447" y2="389.544"/>
	</g>
	<g clip-path="url(#SVGID_2_)">
		<defs>
			<rect id="SVGID_5_" width="1210" height="1178"/>
		</defs>
		<clipPath id="SVGID_6_">
			<use xlink:href="#SVGID_5_"  overflow="visible"/>
		</clipPath>
		<path clip-path="url(#SVGID_6_)" fill="#2A77BC" d="M379.609,365.784v9.649h-3.404v-22.03h6.404c3.9,0,6.057,2.091,6.057,5.905
			c0,3.223-1.675,4.608-2.888,5.063c1.82,0.774,2.569,2.344,2.569,5.541v0.877c0,2.349,0.1,3.463,0.302,4.644h-3.332
			c-0.316-1.008-0.362-2.825-0.362-4.686v-0.783c0-3.011-0.663-4.18-3.319-4.18H379.609z M379.609,362.978h2.18
			c2.484,0,3.443-1.192,3.443-3.533c0-2.005-0.946-3.237-3.107-3.237h-2.516V362.978z M405.1,364.241
			c0,7.87-2.053,11.553-7.026,11.553c-4.673,0-6.836-3.602-6.836-11.57c0-7.798,2.524-11.159,6.993-11.159
			C402.948,353.064,405.1,356.654,405.1,364.241 M394.752,364.182c0,5.587,0.955,8.715,3.409,8.715c2.565,0,3.423-2.945,3.423-8.695
			c0-5.561-0.919-8.218-3.433-8.218C395.682,355.983,394.752,358.899,394.752,364.182 M408.314,353.403h6.382
			c3.643,0,5.718,2.068,5.718,5.509c0,2.838-1.359,4.165-2.601,4.62c1.596,0.621,3.267,2.088,3.267,5.43
			c0,4.111-2.612,6.471-6.497,6.471h-6.269V353.403z M413.79,362.328c2.558,0,3.325-1.043,3.325-3.104
			c0-2.019-1.064-3.071-3.131-3.071h-2.31v6.175H413.79z M411.673,372.728h2.561c2.181,0,3.409-1.198,3.409-3.815
			c0-2.502-1.134-3.881-3.851-3.881h-2.119V372.728z M437.198,364.241c0,7.87-2.053,11.553-7.025,11.553
			c-4.673,0-6.836-3.602-6.836-11.57c0-7.798,2.524-11.159,6.992-11.159C435.048,353.064,437.198,356.654,437.198,364.241
			 M426.852,364.182c0,5.587,0.955,8.715,3.41,8.715c2.565,0,3.422-2.945,3.422-8.695c0-5.561-0.919-8.218-3.432-8.218
			C427.78,355.983,426.852,358.899,426.852,364.182 M442.882,356.413h-4.776v-3.01h12.98v3.01h-4.777v19.02h-3.427V356.413z
			 M462.758,375.433h-3.427v-22.03h3.427V375.433z M466.844,375.433v-22.03h3.967c5.079,13.224,5.947,15.463,6.217,16.5h0.033
			c-0.176-2.754-0.196-6.021-0.196-9.621v-6.879h3.096v22.03h-3.801c-5.259-14.019-6.075-16.25-6.348-17.212h-0.033
			c0.163,2.728,0.173,6.096,0.173,10.049v7.163H466.844z M491.696,375.433h-3.427c0.001,0,5.176-22.03,5.177-22.03h4.442
			l5.267,22.03h-3.603l-1.277-6.039h-5.312L491.696,375.433z M497.646,366.407c-0.978-4.625-1.693-7.83-2.022-9.815h-0.088
			c-0.28,1.99-1.047,5.524-1.95,9.815H497.646z M523.82,369.126c-0.098,1.171-0.566,6.667-6.414,6.667
			c-6.127,0-6.752-5.741-6.752-11.449c0-6.885,1.955-11.28,6.999-11.28c5.659,0,6.059,4.997,6.138,6.618h-3.401
			c-0.056-0.748-0.137-3.68-2.792-3.68c-2.818,0-3.396,3.616-3.396,8.401c0,4.323,0.448,8.497,3.269,8.497
			c2.552,0,2.827-2.838,2.925-3.774H523.82z M528.609,375.433h-3.427l5.176-22.03h4.443l5.267,22.03h-3.603l-1.277-6.039h-5.311
			L528.609,375.433z M534.558,366.407c-0.979-4.625-1.693-7.83-2.021-9.815h-0.088c-0.28,1.99-1.047,5.524-1.95,9.815H534.558z
			 M542.129,375.433v-22.03h3.967c5.079,13.224,5.948,15.463,6.217,16.5h0.033c-0.176-2.754-0.195-6.021-0.195-9.621v-6.879h3.095
			v22.03h-3.801c-5.258-14.019-6.075-16.25-6.348-17.212h-0.032c0.162,2.728,0.172,6.096,0.172,10.049v7.163H542.129z"/>
		<path clip-path="url(#SVGID_6_)" fill="#2A77BC" d="M490.398,610.609v-2.63c0.654-0.088,1.206-0.153,2.048-0.176
			c-1.672-0.895-2.409-2.277-2.409-4.387c0-4.659,4.379-6.182,11.277-6.182c7.886,0,11.453,2.583,11.453,7.227
			c0,5.733-4.97,6.069-6.28,6.134v-3.391c0.852-0.065,3.36-0.251,3.36-2.845c0-2.736-3.482-3.577-8.514-3.577
			c-5.263,0-8.399,0.679-8.399,3.393c0,2.392,1.903,3.039,5.617,3.039h1.181v-3.26h2.942v6.654H490.398z M501.59,649.961
			c-7.869,0-11.553-2.053-11.553-7.025c0-4.673,3.603-6.837,11.57-6.837c7.798,0,11.16,2.524,11.16,6.993
			C512.767,647.811,509.177,649.961,501.59,649.961 M512.428,620.509c0,3.577-2.178,6.188-6.409,6.188
			c-4.141,0-6.468-2.361-6.468-6.511v-2.555h-9.153v-3.427h22.03V620.509z M512.428,632.82h-22.03v-3.428h22.03V632.82z
			 M501.649,639.614c-5.587,0-8.715,0.954-8.715,3.409c0,2.564,2.945,3.422,8.696,3.422c5.56,0,8.217-0.919,8.217-3.432
			C509.847,640.543,506.931,639.614,501.649,639.614 M502.333,617.632v2.174c0,2.344,1.193,3.445,3.731,3.445
			c2.282,0,3.559-1.184,3.559-3.211v-2.408H502.333z"/>
		<path clip-path="url(#SVGID_6_)" fill="#2A77BC" d="M512.871,445.586h2.07v11.528h4.62l-0.224,1.777h-6.466V445.586z
			 M522.874,458.891h-2.07v-13.305h2.07V458.891z M532.93,458.891h-1.588c-0.053-0.395-0.092-0.729-0.106-1.237
			c-0.54,1.01-1.376,1.455-2.649,1.455c-2.814,0-3.733-2.644-3.733-6.811c0-4.763,1.559-6.916,4.364-6.916
			c3.463,0,3.665,3.001,3.704,3.792h-2.047c-0.04-0.515-0.152-2.029-1.718-2.029c-1.653,0-2.161,2.102-2.161,5.141
			c0,3.18,0.41,5.074,2.049,5.074c1.444,0,1.835-1.15,1.835-3.394v-0.712h-1.968v-1.777h4.018V458.891z M535.1,445.586h2.07v5.382
			h3.585v-5.382h2.07v13.305h-2.07v-6.119h-3.585v6.119h-2.07V445.586z M547.024,447.404h-2.884v-1.818h7.839v1.818h-2.885v11.487
			h-2.07V447.404z"/>
		<path clip-path="url(#SVGID_6_)" fill="#2A77BC" d="M605.748,570.886v5.828h-2.056v-13.305h3.868c2.355,0,3.657,1.263,3.657,3.567
			c0,1.946-1.011,2.782-1.743,3.057c1.099,0.468,1.551,1.416,1.551,3.346v0.53c0,1.419,0.061,2.092,0.183,2.805h-2.013
			c-0.191-0.609-0.218-1.707-0.218-2.83v-0.473c0-1.819-0.401-2.525-2.005-2.525H605.748z M605.748,569.192h1.317
			c1.5,0,2.079-0.72,2.079-2.134c0-1.211-0.571-1.955-1.877-1.955h-1.52V569.192z M620.846,576.714h-1.588
			c-0.053-0.395-0.092-0.729-0.105-1.237c-0.541,1.01-1.376,1.455-2.649,1.455c-2.814,0-3.733-2.645-3.733-6.811
			c0-4.762,1.56-6.916,4.364-6.916c3.463,0,3.665,3.001,3.704,3.792h-2.048c-0.039-0.514-0.151-2.029-1.718-2.029
			c-1.652,0-2.161,2.102-2.161,5.142c0,3.179,0.411,5.073,2.05,5.073c1.444,0,1.835-1.15,1.835-3.393v-0.713h-1.969V569.3h4.019
			V576.714z M623.002,563.409h3.854c2.2,0,3.453,1.249,3.453,3.327c0,1.714-0.821,2.516-1.571,2.791
			c0.964,0.375,1.974,1.26,1.974,3.279c0,2.482-1.577,3.908-3.925,3.908h-3.785V563.409z M626.308,568.799
			c1.546,0,2.009-0.63,2.009-1.875c0-1.219-0.643-1.854-1.891-1.854h-1.396v3.729H626.308z M625.03,575.08h1.547
			c1.317,0,2.059-0.723,2.059-2.304c0-1.511-0.685-2.344-2.325-2.344h-1.28V575.08z M636.29,563.409h2.07v11.528h4.62l-0.225,1.777
			h-6.466V563.409z M650.594,570.639h-4.328v4.284h4.841l-0.261,1.791h-6.622v-13.305h6.578v1.818h-4.536v3.607h4.328V570.639z
			 M652.608,563.409h3.293c3.302,0,4.646,2.176,4.646,6.353c0,4.501-1.264,6.952-4.84,6.952h-3.099V563.409z M654.692,575.006h0.978
			c2.057,0,2.742-1.582,2.742-5.221c0-3.221-0.686-4.64-2.723-4.64h-0.997V575.006z"/>
		<path clip-path="url(#SVGID_6_)" fill="#2A77BC" d="M728.866,644.412h3.853c2.201,0,3.454,1.249,3.454,3.327
			c0,1.714-0.82,2.516-1.57,2.791c0.964,0.375,1.974,1.26,1.974,3.278c0,2.483-1.578,3.908-3.925,3.908h-3.785V644.412z
			 M732.172,649.803c1.545,0,2.008-0.63,2.008-1.875c0-1.219-0.642-1.854-1.89-1.854h-1.396v3.729H732.172z M730.895,656.084h1.547
			c1.316,0,2.059-0.725,2.059-2.304c0-1.512-0.685-2.345-2.326-2.345h-1.279V656.084z M740.342,651.89v5.827h-2.056v-13.305h3.868
			c2.354,0,3.657,1.263,3.657,3.566c0,1.946-1.012,2.783-1.744,3.058c1.1,0.468,1.552,1.416,1.552,3.347v0.53
			c0,1.418,0.061,2.091,0.183,2.804h-2.013c-0.19-0.608-0.219-1.706-0.219-2.829v-0.474c0-1.818-0.4-2.524-2.004-2.524H740.342z
			 M740.342,650.195h1.316c1.5,0,2.079-0.72,2.079-2.134c0-1.211-0.571-1.955-1.876-1.955h-1.52V650.195z M754.102,651.642h-4.328
			v4.285h4.841l-0.262,1.79h-6.621v-13.305h6.578v1.818h-4.536v3.607h4.328V651.642z M757.635,657.717h-2.07l3.127-13.305h2.683
			l3.181,13.305h-2.176l-0.771-3.646h-3.209L757.635,657.717z M761.227,652.266c-0.591-2.793-1.022-4.729-1.221-5.927h-0.053
			c-0.169,1.202-0.633,3.336-1.178,5.927H761.227z M765.796,644.412h3.292c3.302,0,4.647,2.176,4.647,6.354
			c0,4.501-1.265,6.951-4.842,6.951h-3.098V644.412z M767.879,656.009h0.978c2.057,0,2.742-1.581,2.742-5.22
			c0-3.222-0.685-4.642-2.723-4.642h-0.997V656.009z M775.659,644.412h3.854c2.2,0,3.453,1.249,3.453,3.327
			c0,1.714-0.82,2.516-1.57,2.791c0.964,0.375,1.973,1.26,1.973,3.278c0,2.483-1.577,3.908-3.924,3.908h-3.786V644.412z
			 M778.966,649.803c1.545,0,2.008-0.63,2.008-1.875c0-1.219-0.642-1.854-1.891-1.854h-1.396v3.729H778.966z M777.688,656.084h1.547
			c1.317,0,2.06-0.725,2.06-2.304c0-1.512-0.685-2.345-2.326-2.345h-1.28V656.084z M793.104,650.958
			c0,4.753-1.239,6.978-4.243,6.978c-2.822,0-4.128-2.176-4.128-6.988c0-4.709,1.524-6.739,4.223-6.739
			C791.805,644.208,793.104,646.376,793.104,650.958 M786.854,650.922c0,3.375,0.577,5.264,2.06,5.264
			c1.549,0,2.066-1.778,2.066-5.252c0-3.358-0.555-4.963-2.072-4.963C787.416,645.971,786.854,647.732,786.854,650.922
			 M795.965,657.717h-2.07l3.126-13.305h2.684l3.181,13.305h-2.176l-0.771-3.646h-3.208L795.965,657.717z M799.557,652.266
			c-0.591-2.793-1.022-4.729-1.221-5.927h-0.053c-0.169,1.202-0.633,3.336-1.178,5.927H799.557z M806.184,651.89v5.827h-2.056
			v-13.305h3.868c2.354,0,3.657,1.263,3.657,3.566c0,1.946-1.012,2.783-1.744,3.058c1.1,0.468,1.552,1.416,1.552,3.347v0.53
			c0,1.418,0.061,2.091,0.183,2.804h-2.013c-0.19-0.608-0.219-1.706-0.219-2.829v-0.474c0-1.818-0.401-2.524-2.004-2.524H806.184z
			 M806.184,650.195h1.316c1.5,0,2.08-0.72,2.08-2.134c0-1.211-0.572-1.955-1.877-1.955h-1.52V650.195z M813.573,644.412h3.292
			c3.303,0,4.646,2.176,4.646,6.354c0,4.501-1.264,6.951-4.84,6.951h-3.099V644.412z M815.657,656.009h0.977
			c2.058,0,2.742-1.581,2.742-5.22c0-3.222-0.685-4.642-2.723-4.642h-0.996V656.009z"/>
		<path clip-path="url(#SVGID_6_)" fill="#2A77BC" d="M506.809,536.247c0.112,1.193,0.628,2.206,1.928,2.206
			c1.248,0,1.774-0.744,1.774-1.919c0-1.198-0.548-1.871-2.274-2.698c-2.212-1.052-3.113-1.997-3.113-3.957
			c0-2.029,1.303-3.488,3.628-3.488c2.848,0,3.571,1.962,3.611,3.635h-2.029c-0.072-0.72-0.269-1.983-1.627-1.983
			c-1.058,0-1.521,0.703-1.521,1.661c0,1.066,0.475,1.566,2.071,2.314c2.367,1.106,3.363,2.19,3.363,4.333
			c0,2.093-1.257,3.755-3.944,3.755c-2.925,0-3.839-1.886-3.929-3.859H506.809z M520.734,533.819h-4.328v4.284h4.84l-0.261,1.791
			h-6.621v-13.305h6.578v1.818h-4.536v3.608h4.328V533.819z M522.748,539.894v-13.305h2.396c3.068,7.987,3.592,9.339,3.755,9.965
			h0.021c-0.106-1.663-0.118-3.637-0.118-5.81v-4.155h1.869v13.305h-2.296c-3.175-8.466-3.668-9.814-3.833-10.396h-0.02
			c0.098,1.648,0.104,3.682,0.104,6.07v4.326H522.748z M534.34,536.247c0.112,1.193,0.628,2.206,1.928,2.206
			c1.248,0,1.774-0.744,1.774-1.919c0-1.198-0.548-1.871-2.274-2.698c-2.212-1.052-3.113-1.997-3.113-3.957
			c0-2.029,1.302-3.488,3.629-3.488c2.848,0,3.57,1.962,3.61,3.635h-2.029c-0.073-0.72-0.269-1.983-1.627-1.983
			c-1.058,0-1.521,0.703-1.521,1.661c0,1.066,0.475,1.566,2.071,2.314c2.367,1.106,3.363,2.19,3.363,4.333
			c0,2.093-1.257,3.755-3.944,3.755c-2.925,0-3.838-1.886-3.929-3.859H534.34z M549.838,533.135c0,4.753-1.24,6.977-4.243,6.977
			c-2.822,0-4.128-2.176-4.128-6.988c0-4.709,1.524-6.739,4.223-6.739C548.539,526.385,549.838,528.553,549.838,533.135
			 M543.589,533.099c0,3.375,0.577,5.264,2.059,5.264c1.55,0,2.067-1.78,2.067-5.252c0-3.359-0.555-4.963-2.073-4.963
			C544.149,528.148,543.589,529.909,543.589,533.099 M553.848,534.066v5.828h-2.056v-13.305h3.868c2.355,0,3.657,1.263,3.657,3.567
			c0,1.945-1.011,2.782-1.743,3.057c1.099,0.468,1.551,1.416,1.551,3.346v0.531c0,1.418,0.06,2.091,0.182,2.804h-2.012
			c-0.191-0.609-0.218-1.707-0.218-2.83v-0.473c0-1.819-0.401-2.525-2.005-2.525H553.848z M553.848,532.372h1.316
			c1.5,0,2.08-0.72,2.08-2.134c0-1.211-0.572-1.955-1.877-1.955h-1.519V532.372z"/>
	</g>
	<g clip-path="url(#SVGID_2_)">
		<text transform="matrix(1 0 0 1 357.0156 478.0518)"><tspan x="0" y="0" fill="#2A77BC" font-family="'OCRAStd'" font-size="24.5465" letter-spacing="-1">3.3</tspan><tspan x="49.485" y="0" fill="#2A77BC" font-family="'OCRAStd'" font-size="24.5465"> </tspan></text>
	</g>
	<g clip-path="url(#SVGID_2_)">
		<text transform="matrix(1 0 0 1 422.8984 478.0518)" fill="#2A77BC" font-family="'OCRAStd'" font-size="24.5465">V</text>
	</g>
	<g clip-path="url(#SVGID_2_)">
		<text transform="matrix(1 0 0 1 357.0156 508.9805)"><tspan x="0" y="0" fill="#2A77BC" font-family="'OCRAStd'" font-size="24.5465" letter-spacing="-1">G</tspan><tspan x="16.495" y="0" fill="#2A77BC" font-family="'OCRAStd'" font-size="24.5465">N</tspan></text>
	</g>
	<g clip-path="url(#SVGID_2_)">
		<text transform="matrix(1 0 0 1 389.957 508.9805)" fill="#2A77BC" font-family="'OCRAStd'" font-size="24.5465">D</text>
	</g>
	<g clip-path="url(#SVGID_2_)">
		<text transform="matrix(1 0 0 1 357.0156 570.8374)"><tspan x="0" y="0" fill="#2A77BC" font-family="'OCRAStd'" font-size="24.5465" letter-spacing="-1">4 (I</tspan><tspan x="65.979" y="0" fill="#2A77BC" font-family="'OCRAStd'" font-size="24.5465">O</tspan></text>
	</g>
	<g clip-path="url(#SVGID_2_)">
		<text transform="matrix(1 0 0 1 439.3691 570.8374)" fill="#2A77BC" font-family="'OCRAStd'" font-size="24.5465">)</text>
	</g>
	<g clip-path="url(#SVGID_2_)">
		<text transform="matrix(1 0 0 1 357.0156 601.7666)"><tspan x="0" y="0" fill="#2A77BC" font-family="'OCRAStd'" font-size="24.5465" letter-spacing="-1">5 (P</tspan><tspan x="65.979" y="0" fill="#2A77BC" font-family="'OCRAStd'" font-size="24.5465">W</tspan></text>
	</g>
	<g clip-path="url(#SVGID_2_)">
		<text transform="matrix(1 0 0 1 439.3691 601.7666)" fill="#2A77BC" font-family="'OCRAStd'" font-size="24.5465">)</text>
	</g>
	<g clip-path="url(#SVGID_2_)">
		<text transform="matrix(1 0 0 1 357.0156 632.6943)"><tspan x="0" y="0" fill="#2A77BC" font-family="'OCRAStd'" font-size="24.5465" letter-spacing="-1">10 (P</tspan><tspan x="82.475" y="0" fill="#2A77BC" font-family="'OCRAStd'" font-size="24.5465">W</tspan></text>
	</g>
	<g clip-path="url(#SVGID_2_)">
		<text transform="matrix(1 0 0 1 455.8398 632.6943)" fill="#2A77BC" font-family="'OCRAStd'" font-size="24.5465">)</text>
	</g>
	<g clip-path="url(#SVGID_2_)">
		<text transform="matrix(1 0 0 1 357.0156 663.623)"><tspan x="0" y="0" fill="#2A77BC" font-family="'OCRAStd'" font-size="24.5465" letter-spacing="-1">16 (P</tspan><tspan x="82.475" y="0" fill="#2A77BC" font-family="'OCRAStd'" font-size="24.5465">W</tspan></text>
	</g>
	<g clip-path="url(#SVGID_2_)">
		<text transform="matrix(1 0 0 1 455.8398 663.623)" fill="#2A77BC" font-family="'OCRAStd'" font-size="24.5465">)</text>
	</g>
	<g clip-path="url(#SVGID_2_)">
		<text transform="matrix(1 0 0 1 357.0156 694.5518)"><tspan x="0" y="0" fill="#2A77BC" font-family="'OCRAStd'" font-size="24.5465" letter-spacing="-1">14 (</tspan><tspan x="65.979" y="0" fill="#2A77BC" font-family="'OCRAStd'" font-size="24.5465">L</tspan></text>
	</g>
	<g clip-path="url(#SVGID_2_)">
		<text transform="matrix(1 0 0 1 439.3691 694.5518)" fill="#2A77BC" font-family="'OCRAStd'" font-size="24.5465">)</text>
	</g>
	<g clip-path="url(#SVGID_2_)">
		<text transform="matrix(1 0 0 1 357.0156 725.4805)"><tspan x="0" y="0" fill="#2A77BC" font-family="'OCRAStd'" font-size="24.5465" letter-spacing="-1">12 (</tspan><tspan x="65.979" y="0" fill="#2A77BC" font-family="'OCRAStd'" font-size="24.5465">D</tspan></text>
	</g>
	<g clip-path="url(#SVGID_2_)">
		<text transform="matrix(1 0 0 1 439.3691 725.4805)" fill="#2A77BC" font-family="'OCRAStd'" font-size="24.5465">)</text>
	</g>
	<g clip-path="url(#SVGID_2_)">
		<text transform="matrix(1 0 0 1 357.0156 756.4092)"><tspan x="0" y="0" fill="#2A77BC" font-family="'OCRAStd'" font-size="24.5465" letter-spacing="-1">13 (</tspan><tspan x="65.979" y="0" fill="#2A77BC" font-family="'OCRAStd'" font-size="24.5465">C</tspan></text>
	</g>
	<g clip-path="url(#SVGID_2_)">
		<text transform="matrix(1 0 0 1 439.3691 756.4092)" fill="#2A77BC" font-family="'OCRAStd'" font-size="24.5465">)</text>
	</g>
	<g clip-path="url(#SVGID_2_)">
		<text transform="matrix(1 0 0 1 857.7637 458.4146)" fill="#2A77BC" font-family="'OCRAStd'" font-size="24.5465">S</text>
	</g>
	<g clip-path="url(#SVGID_2_)">
		<text transform="matrix(1 0 0 1 874.2344 458.4146)" fill="#2A77BC" font-family="'OCRAStd'" font-size="24.5465">1</text>
	</g>
	<g clip-path="url(#SVGID_2_)">
		<text transform="matrix(1 0 0 1 857.7637 652.332)" fill="#2A77BC" font-family="'OCRAStd'" font-size="24.5465">S</text>
	</g>
	<g clip-path="url(#SVGID_2_)">
		<text transform="matrix(1 0 0 1 874.2344 652.332)" fill="#2A77BC" font-family="'OCRAStd'" font-size="24.5465">3</text>
	</g>
	<g clip-path="url(#SVGID_2_)">
		<text transform="matrix(1 0 0 1 776.7607 588.5112)" fill="#2A77BC" font-family="'OCRAStd'" font-size="24.5465">S</text>
	</g>
	<g clip-path="url(#SVGID_2_)">
		<text transform="matrix(1 0 0 1 793.2314 588.5112)" fill="#2A77BC" font-family="'OCRAStd'" font-size="24.5465">4</text>
	</g>
	<g clip-path="url(#SVGID_2_)">
		<text transform="matrix(1 0 0 1 938.7676 588.5112)" fill="#2A77BC" font-family="'OCRAStd'" font-size="24.5465">S</text>
	</g>
	<g clip-path="url(#SVGID_2_)">
		<text transform="matrix(1 0 0 1 955.2383 588.5112)" fill="#2A77BC" font-family="'OCRAStd'" font-size="24.5465">2</text>
	</g>
	<g clip-path="url(#SVGID_2_)">
		<text transform="matrix(1 0 0 1 359.4683 787.3369)"><tspan x="0" y="0" fill="#2A77BC" font-family="'OCRAStd'" font-size="17.1826">0 (12C-</tspan><tspan x="80.825" y="0" fill="#2A77BC" font-family="'OCRAStd'" font-size="17.1826">D</tspan></text>
	</g>
	<g clip-path="url(#SVGID_2_)">
		<text transform="matrix(1 0 0 1 451.7046 787.3369)" fill="#2A77BC" font-family="'OCRAStd'" font-size="17.1826">)</text>
	</g>
	<g clip-path="url(#SVGID_2_)">
		<text transform="matrix(1 0 0 1 359.4683 818.2656)"><tspan x="0" y="0" fill="#2A77BC" font-family="'OCRAStd'" font-size="17.1826">2 (12C-</tspan><tspan x="80.825" y="0" fill="#2A77BC" font-family="'OCRAStd'" font-size="17.1826">D</tspan></text>
	</g>
	<g clip-path="url(#SVGID_2_)">
		<text transform="matrix(1 0 0 1 451.7046 818.2656)" fill="#2A77BC" font-family="'OCRAStd'" font-size="17.1826">)</text>
	</g>
	<g clip-path="url(#SVGID_2_)">
		<text transform="matrix(1 0 0 1 292.7827 853.6104)"><tspan x="0" y="0" fill="#2A77BC" font-family="'OCRAStd'" font-size="17.1826">V + G</tspan><tspan x="57.732" y="0" fill="#2A77BC" font-family="'OCRAStd'" font-size="17.1826">N</tspan></text>
	</g>
	<g clip-path="url(#SVGID_2_)">
		<text transform="matrix(1 0 0 1 361.96 853.6104)" fill="#2A77BC" font-family="'OCRAStd'" font-size="17.1826">D</text>
	</g>
	<g clip-path="url(#SVGID_2_)">
		<text transform="matrix(1 0 0 1 295.6523 922.3408)" fill="#2A77BC" font-family="'OCRAStd'" font-size="17.1826">C</text>
	</g>
	<g clip-path="url(#SVGID_2_)">
		<text transform="matrix(1 0 0 1 307.1816 922.3408)" fill="#2A77BC" font-family="'OCRAStd'" font-size="17.1826">K</text>
	</g>
	<g clip-path="url(#SVGID_2_)">
		<text transform="matrix(1 0 0 1 393.8335 922.3408)" fill="#2A77BC" font-family="'OCRAStd'" font-size="17.1826">C</text>
	</g>
	<g clip-path="url(#SVGID_2_)">
		<text transform="matrix(1 0 0 1 405.3628 922.3408)" fill="#2A77BC" font-family="'OCRAStd'" font-size="17.1826">O</text>
	</g>
	<g clip-path="url(#SVGID_2_)">
		<text transform="matrix(1 0 0 1 361.9253 922.3408)" fill="#2A77BC" font-family="'OCRAStd'" font-size="17.1826">M</text>
	</g>
	<g clip-path="url(#SVGID_2_)">
		<text transform="matrix(1 0 0 1 373.4551 922.3408)" fill="#2A77BC" font-family="'OCRAStd'" font-size="17.1826">I</text>
	</g>
	<g clip-path="url(#SVGID_2_)">
		<text transform="matrix(1 0 0 1 330.0171 922.3408)" fill="#2A77BC" font-family="'OCRAStd'" font-size="17.1826">M</text>
	</g>
	<g clip-path="url(#SVGID_2_)">
		<text transform="matrix(1 0 0 1 341.5469 922.3408)" fill="#2A77BC" font-family="'OCRAStd'" font-size="17.1826">O</text>
	</g>
	<g clip-path="url(#SVGID_2_)">
		<defs>
			<rect id="SVGID_7_" width="1210" height="1178"/>
		</defs>
		<clipPath id="SVGID_8_">
			<use xlink:href="#SVGID_7_"  overflow="visible"/>
		</clipPath>
		
			<rect x="971.589" y="765.268" clip-path="url(#SVGID_8_)" fill="none" stroke="#2C77BC" stroke-width="7.134" stroke-miterlimit="10" width="31.241" height="73.518"/>
		
			<rect x="1002.83" y="772.014" clip-path="url(#SVGID_8_)" fill-rule="evenodd" clip-rule="evenodd" fill="#2C77BC" width="13.11" height="13.11"/>
	</g>
	<g clip-path="url(#SVGID_2_)">
		<text transform="matrix(1 0 0 1 987.2207 868.708)" fill="#2C77BC" font-family="'Nunito-ExtraBold'" font-size="34.2443">0</text>
	</g>
	<g clip-path="url(#SVGID_2_)">
		<text transform="matrix(1 0 0 1 987.2207 749.9834)" fill="#2C77BC" font-family="'Nunito-ExtraBold'" font-size="34.2443">1</text>
	</g>
	<g clip-path="url(#SVGID_2_)">
		<defs>
			<rect id="SVGID_9_" width="1210" height="1178"/>
		</defs>
		<clipPath id="SVGID_10_">
			<use xlink:href="#SVGID_9_"  overflow="visible"/>
		</clipPath>
		<path clip-path="url(#SVGID_10_)" fill="none" stroke="#2A77BC" stroke-width="3.034" stroke-miterlimit="10" d="M317.489,446.46
			h129.688c20.026,0,36.411,16.385,36.411,36.41v310.106c0,20.024-16.385,36.409-36.411,36.409H317.489"/>
		<rect x="344.9" y="512.736" clip-path="url(#SVGID_10_)" fill="#2A77BC" width="137.46" height="31.91"/>
	</g>
	<g clip-path="url(#SVGID_2_)">
		<text transform="matrix(1 0 0 1 396.2881 539.4189)" fill="#FFFFFF" font-family="'OCRAStd'" font-size="26.1943">A</text>
	</g>
	<g clip-path="url(#SVGID_2_)">
		<text transform="matrix(1 0 0 1 413.8643 539.4189)" fill="#FFFFFF" font-family="'OCRAStd'" font-size="26.1943">O</text>
	</g>
	<g clip-path="url(#SVGID_2_)">
		<defs>
			<rect id="SVGID_11_" width="1210" height="1178"/>
		</defs>
		<clipPath id="SVGID_12_">
			<use xlink:href="#SVGID_11_"  overflow="visible"/>
		</clipPath>
		
			<line clip-path="url(#SVGID_12_)" fill="none" stroke="#2A77BC" stroke-width="2.455" stroke-miterlimit="10" x1="343.672" y1="668.606" x2="483.588" y2="668.606"/>
		
			<line clip-path="url(#SVGID_12_)" fill="none" stroke="#2A77BC" stroke-width="2.455" stroke-miterlimit="10" x1="343.672" y1="760.656" x2="483.588" y2="760.656"/>
		<path clip-path="url(#SVGID_12_)" fill="none" stroke="#2C77BC" stroke-width="7.134" stroke-miterlimit="10" d="M562.036,493.341
			c0-10.333-5.356-19.464-13.42-24.789h-32.557c-8.065,5.325-13.42,14.456-13.42,24.789c0,9.296,4.336,17.62,11.078,23.076h37.241
			C557.699,510.961,562.036,502.637,562.036,493.341z"/>
		
			<rect x="616.402" y="338.61" clip-path="url(#SVGID_12_)" fill-rule="evenodd" clip-rule="evenodd" fill="#FF0000" width="31.497" height="46.458"/>
		
			<rect x="600.654" y="585.859" clip-path="url(#SVGID_12_)" fill-rule="evenodd" clip-rule="evenodd" fill="#FF0000" width="57.481" height="58.269"/>
		<g opacity="0.29" clip-path="url(#SVGID_12_)">
			<g>
				<defs>
					<rect id="SVGID_13_" x="585.693" y="570.898" width="86.616" height="86.616"/>
				</defs>
				<clipPath id="SVGID_14_">
					<use xlink:href="#SVGID_13_"  overflow="visible"/>
				</clipPath>
				<g clip-path="url(#SVGID_14_)">
					<defs>
						<rect id="SVGID_15_" x="585.693" y="570.898" width="86.616" height="86.616"/>
					</defs>
					<clipPath id="SVGID_16_">
						<use xlink:href="#SVGID_15_"  overflow="visible"/>
					</clipPath>
					
						<rect x="585.693" y="570.898" clip-path="url(#SVGID_16_)" fill-rule="evenodd" clip-rule="evenodd" fill="#FF0000" width="86.616" height="86.616"/>
				</g>
			</g>
		</g>
		<rect x="616.402" y="389.792" clip-path="url(#SVGID_12_)" fill="#15394C" width="31.497" height="25.197"/>
		<rect x="314.034" y="451.998" clip-path="url(#SVGID_12_)" fill="#15394C" width="31.497" height="25.197"/>
		
			<line clip-path="url(#SVGID_12_)" fill="none" stroke="#999999" stroke-width="3.937" stroke-miterlimit="10" x1="393.563" y1="181.126" x2="463.643" y2="209.473"/>
		
			<line clip-path="url(#SVGID_12_)" fill="none" stroke="#999999" stroke-width="3.937" stroke-miterlimit="10" x1="444.257" y1="161.265" x2="411.374" y2="229.334"/>
		<path clip-path="url(#SVGID_12_)" fill="none" stroke="#15394C" stroke-width="15.748" stroke-miterlimit="10" d="
			M329.782,464.597c0,0-119.725,55.27-180.319-74.805C90.407,263.018,235.292,99.235,395.925,181.127"/>
		<path clip-path="url(#SVGID_12_)" fill="none" stroke="#15394C" stroke-width="15.748" stroke-miterlimit="10" d="M632.15,402.391
			c0,0,187.405-66.143,146.459-213.39C737.665,41.754,496.714,33.092,443.958,165.377"/>
		<g clip-path="url(#SVGID_12_)">
			<g>
				<defs>
					<rect id="SVGID_17_" x="326" y="29.76" width="110.871" height="110.87"/>
				</defs>
				<clipPath id="SVGID_18_">
					<use xlink:href="#SVGID_17_"  overflow="visible"/>
				</clipPath>
				<g clip-path="url(#SVGID_18_)">
					<defs>
						<rect id="SVGID_19_" x="326" y="29.76" width="110.871" height="110.87"/>
					</defs>
					<clipPath id="SVGID_20_">
						<use xlink:href="#SVGID_19_"  overflow="visible"/>
					</clipPath>
					<path clip-path="url(#SVGID_20_)" fill="#FFEAB6" d="M436.871,85.194c0,30.616-24.819,55.436-55.436,55.436
						c-30.616,0-55.435-24.82-55.435-55.436c0-30.616,24.819-55.436,55.435-55.436C412.052,29.758,436.871,54.578,436.871,85.194"/>
				</g>
			</g>
		</g>
		<polygon clip-path="url(#SVGID_12_)" fill="#15394C" points="380.718,44.828 356.53,87.232 380.718,87.232 362.84,130.014 
			408.063,77.009 384.399,77.009 404.381,44.828 		"/>
	</g>
	<g clip-path="url(#SVGID_2_)">
		<text transform="matrix(1 0 0 1 623.4229 445.21)" fill="#2C77BC" font-family="'OCRAStd'" font-size="24.5465">R</text>
	</g>
</g>
</svg>
