<?xml version="1.0" encoding="utf-8"?>
<!-- Generator: Adobe Illustrator 16.0.0, SVG Export Plug-In . SVG Version: 6.00 Build 0)  -->
<!DOCTYPE svg PUBLIC "-//W3C//DTD SVG 1.1//EN" "http://www.w3.org/Graphics/SVG/1.1/DTD/svg11.dtd">
<svg version="1.1" id="Layer_1" xmlns="http://www.w3.org/2000/svg" xmlns:xlink="http://www.w3.org/1999/xlink" x="0px" y="0px"
	 width="1210px" height="1178px" viewBox="0 0 1210 1178" enable-background="new 0 0 1210 1178" xml:space="preserve">
<g>
	<defs>
		<rect id="SVGID_1_" width="1210" height="1178"/>
	</defs>
	<clipPath id="SVGID_2_">
		<use xlink:href="#SVGID_1_"  overflow="visible"/>
	</clipPath>
	<g clip-path="url(#SVGID_2_)">
		<defs>
			<rect id="SVGID_3_" y="0.001" width="1210" height="1177.999"/>
		</defs>
		<clipPath id="SVGID_4_">
			<use xlink:href="#SVGID_3_"  overflow="visible"/>
		</clipPath>
	</g>
	<g clip-path="url(#SVGID_2_)">
		<defs>
			<rect id="SVGID_5_" width="1210" height="1178"/>
		</defs>
		<clipPath id="SVGID_6_">
			<use xlink:href="#SVGID_5_"  overflow="visible"/>
		</clipPath>
		<g clip-path="url(#SVGID_6_)">
			<g>
				<defs>
					<rect id="SVGID_7_" x="501" y="203" width="170" height="88.671"/>
				</defs>
				<clipPath id="SVGID_8_">
					<use xlink:href="#SVGID_7_"  overflow="visible"/>
				</clipPath>
				
					<rect x="503" y="205" clip-path="url(#SVGID_8_)" fill-rule="evenodd" clip-rule="evenodd" fill="#FFEAB6" width="166" height="84.671"/>
				
					<rect x="503" y="205" clip-path="url(#SVGID_8_)" fill="none" stroke="#FF9425" stroke-width="4" stroke-miterlimit="10" width="166" height="84.671"/>
			</g>
		</g>
	</g>
	<g clip-path="url(#SVGID_2_)">
		<path fill="#00426B" d="M540.88,231.057h12.471c2.853,0,5.071,0.726,6.656,2.176c1.584,1.451,2.377,3.469,2.377,6.053
			c0,2.56-0.799,4.571-2.396,6.034c-1.597,1.463-3.81,2.194-6.638,2.194h-5.742v9.326h-6.729V231.057z M552.437,242.468
			c1.244,0,2.164-0.256,2.761-0.768c0.597-0.512,0.896-1.304,0.896-2.377c0-1.072-0.299-1.871-0.896-2.396
			c-0.598-0.524-1.518-0.786-2.761-0.786h-4.828v6.327H552.437z"/>
		<path fill="#00426B" d="M578.732,243.711l-3.547,0.366c-1.415,0.146-2.402,0.524-2.962,1.134
			c-0.561,0.609-0.841,1.475-0.841,2.596v9.034h-6.51v-17.994h6.181v3.108c0.415-1.097,1.097-1.932,2.048-2.505
			c0.951-0.573,2.108-0.896,3.474-0.969l1.792-0.146L578.732,243.711z"/>
		<path fill="#00426B" d="M596.47,249.087h-11.118c0.195,1.17,0.622,2.012,1.28,2.523c0.658,0.512,1.596,0.768,2.816,0.768
			c0.878,0,1.768-0.146,2.67-0.439c0.901-0.292,1.706-0.695,2.414-1.207l1.646,4.279c-0.902,0.658-1.988,1.177-3.255,1.554
			c-1.268,0.378-2.536,0.567-3.803,0.567c-2.073,0-3.865-0.377-5.376-1.134c-1.512-0.755-2.676-1.84-3.493-3.255
			c-0.817-1.414-1.225-3.072-1.225-4.974c0-1.804,0.384-3.42,1.152-4.846c0.768-1.426,1.84-2.536,3.218-3.328
			c1.377-0.792,2.932-1.188,4.663-1.188c2.584,0,4.632,0.823,6.144,2.469c1.512,1.646,2.268,3.895,2.268,6.748V249.087z
			 M585.278,246.015h5.742c-0.146-2.145-1.073-3.218-2.78-3.218C586.509,242.797,585.522,243.87,585.278,246.015z"/>
		<path fill="#00426B" d="M601.882,256.585c-1.463-0.366-2.694-0.902-3.694-1.609l1.646-4.425c0.975,0.634,2.084,1.14,3.328,1.518
			c1.243,0.378,2.438,0.567,3.584,0.567c0.707,0,1.256-0.103,1.646-0.311c0.389-0.207,0.584-0.494,0.584-0.859
			c0-0.317-0.141-0.561-0.42-0.731c-0.281-0.17-0.848-0.354-1.701-0.549l-2.889-0.658c-1.829-0.415-3.146-1.024-3.95-1.829
			s-1.207-1.951-1.207-3.438c0-1.146,0.341-2.164,1.024-3.054c0.682-0.89,1.639-1.579,2.871-2.066
			c1.231-0.487,2.627-0.731,4.188-0.731c1.291,0,2.578,0.189,3.857,0.567c1.281,0.378,2.445,0.909,3.494,1.591l-1.684,4.243
			c-0.975-0.609-1.955-1.079-2.943-1.408s-1.92-0.494-2.799-0.494c-0.707,0-1.256,0.109-1.645,0.329
			c-0.391,0.219-0.585,0.537-0.585,0.951c0,0.244,0.122,0.445,0.366,0.604c0.243,0.159,0.671,0.311,1.28,0.457l3.035,0.695
			c1.902,0.415,3.279,1.055,4.133,1.92c0.854,0.866,1.279,2.042,1.279,3.529c0,1.78-0.713,3.182-2.139,4.206
			c-1.426,1.024-3.383,1.536-5.869,1.536C604.941,257.133,603.345,256.951,601.882,256.585z"/>
		<path fill="#00426B" d="M619.803,256.585c-1.463-0.366-2.694-0.902-3.694-1.609l1.646-4.425c0.976,0.634,2.085,1.14,3.328,1.518
			c1.244,0.378,2.438,0.567,3.585,0.567c0.706,0,1.255-0.103,1.646-0.311c0.39-0.207,0.585-0.494,0.585-0.859
			c0-0.317-0.141-0.561-0.421-0.731s-0.847-0.354-1.7-0.549l-2.89-0.658c-1.828-0.415-3.145-1.024-3.949-1.829
			s-1.207-1.951-1.207-3.438c0-1.146,0.341-2.164,1.023-3.054c0.683-0.89,1.64-1.579,2.871-2.066
			c1.231-0.487,2.627-0.731,4.188-0.731c1.292,0,2.579,0.189,3.858,0.567c1.28,0.378,2.444,0.909,3.493,1.591l-1.683,4.243
			c-0.976-0.609-1.956-1.079-2.944-1.408c-0.987-0.329-1.92-0.494-2.798-0.494c-0.707,0-1.256,0.109-1.646,0.329
			c-0.391,0.219-0.585,0.537-0.585,0.951c0,0.244,0.122,0.445,0.365,0.604c0.244,0.159,0.671,0.311,1.28,0.457l3.036,0.695
			c1.901,0.415,3.278,1.055,4.132,1.92c0.854,0.866,1.28,2.042,1.28,3.529c0,1.78-0.713,3.182-2.14,4.206
			c-1.426,1.024-3.383,1.536-5.869,1.536C622.862,257.133,621.266,256.951,619.803,256.585z"/>
	</g>
	
		<line clip-path="url(#SVGID_2_)" fill="none" stroke="#2C77BC" stroke-width="9.321" stroke-miterlimit="10" x1="971.841" y1="511.887" x2="715.675" y2="511.887"/>
	
		<line clip-path="url(#SVGID_2_)" fill="none" stroke="#2C77BC" stroke-width="9.321" stroke-miterlimit="10" x1="972.558" y1="660.669" x2="972.558" y2="512.399"/>
	
		<line clip-path="url(#SVGID_2_)" fill="none" stroke="#2C77BC" stroke-width="9.321" stroke-miterlimit="10" x1="203.208" y1="660.669" x2="203.208" y2="512.399"/>
	
		<line clip-path="url(#SVGID_2_)" fill="none" stroke="#2C77BC" stroke-width="9.321" stroke-miterlimit="10" x1="700.902" y1="427.701" x2="459.024" y2="512.057"/>
	<g clip-path="url(#SVGID_2_)">
		<defs>
			<rect id="SVGID_9_" width="1210" height="1178"/>
		</defs>
		<clipPath id="SVGID_10_">
			<use xlink:href="#SVGID_9_"  overflow="visible"/>
		</clipPath>
		<g opacity="0.44" clip-path="url(#SVGID_10_)">
			<g>
				<defs>
					<rect id="SVGID_11_" x="458.189" y="463.094" width="253.908" height="53.555"/>
				</defs>
				<clipPath id="SVGID_12_">
					<use xlink:href="#SVGID_11_"  overflow="visible"/>
				</clipPath>
				
					<line clip-path="url(#SVGID_12_)" fill="none" stroke="#2C77BC" stroke-width="9.321" stroke-miterlimit="10" x1="711.289" y1="467.685" x2="705.21" y2="468.753"/>
				
					<line clip-path="url(#SVGID_12_)" fill="none" stroke="#2C77BC" stroke-width="9.321" stroke-miterlimit="10" stroke-dasharray="12.833,12.833" x1="692.571" y1="470.977" x2="471.396" y2="509.877"/>
				
					<line clip-path="url(#SVGID_12_)" fill="none" stroke="#2C77BC" stroke-width="9.321" stroke-miterlimit="10" x1="465.076" y1="510.989" x2="458.996" y2="512.059"/>
			</g>
		</g>
		<g opacity="0.44" clip-path="url(#SVGID_10_)">
			<g>
				<defs>
					<rect id="SVGID_13_" x="458.951" y="506.485" width="256.197" height="10.232"/>
				</defs>
				<clipPath id="SVGID_14_">
					<use xlink:href="#SVGID_13_"  overflow="visible"/>
				</clipPath>
				
					<line clip-path="url(#SVGID_14_)" fill="none" stroke="#2C77BC" stroke-width="9.321" stroke-miterlimit="10" x1="715.131" y1="511.146" x2="708.959" y2="511.168"/>
				
					<line clip-path="url(#SVGID_14_)" fill="none" stroke="#2C77BC" stroke-width="9.321" stroke-miterlimit="10" stroke-dasharray="12.833,12.833" x1="696.126" y1="511.213" x2="471.557" y2="512.011"/>
				
					<line clip-path="url(#SVGID_14_)" fill="none" stroke="#2C77BC" stroke-width="9.321" stroke-miterlimit="10" x1="465.141" y1="512.034" x2="458.968" y2="512.056"/>
			</g>
		</g>
	</g>
	
		<line clip-path="url(#SVGID_2_)" fill="none" stroke="#2C77BC" stroke-width="9.321" stroke-miterlimit="10" x1="458.996" y1="511.887" x2="202.83" y2="511.887"/>
	<g clip-path="url(#SVGID_2_)">
		<defs>
			<rect id="SVGID_15_" width="1210" height="1178"/>
		</defs>
		<clipPath id="SVGID_16_">
			<use xlink:href="#SVGID_15_"  overflow="visible"/>
		</clipPath>
		<path clip-path="url(#SVGID_16_)" fill-rule="evenodd" clip-rule="evenodd" fill="#2C77BC" d="M444.85,512.401
			c0-8.097,6.563-14.66,14.66-14.66c8.097,0,14.66,6.563,14.66,14.66c0,8.097-6.563,14.66-14.66,14.66
			C451.413,527.061,444.85,520.498,444.85,512.401"/>
		<path clip-path="url(#SVGID_16_)" fill-rule="evenodd" clip-rule="evenodd" fill="#2C77BC" d="M188.685,512.401
			c0-8.097,6.563-14.66,14.66-14.66c8.097,0,14.66,6.563,14.66,14.66c0,8.097-6.563,14.66-14.66,14.66
			C195.248,527.061,188.685,520.498,188.685,512.401"/>
		<path clip-path="url(#SVGID_16_)" fill-rule="evenodd" clip-rule="evenodd" fill="#2C77BC" d="M701.015,512.401
			c0-8.097,6.563-14.66,14.66-14.66s14.661,6.563,14.661,14.66c0,8.097-6.564,14.66-14.661,14.66S701.015,520.498,701.015,512.401"
			/>
		<path clip-path="url(#SVGID_16_)" fill-rule="evenodd" clip-rule="evenodd" fill="#2C77BC" d="M957.181,512.401
			c0-8.097,6.563-14.66,14.66-14.66s14.66,6.563,14.66,14.66c0,8.097-6.563,14.66-14.66,14.66S957.181,520.498,957.181,512.401"/>
		
			<line clip-path="url(#SVGID_16_)" fill="none" stroke="#2C77BC" stroke-width="9.321" stroke-miterlimit="10" x1="971.7" y1="663.687" x2="202.83" y2="663.687"/>
		<path clip-path="url(#SVGID_16_)" fill-rule="evenodd" clip-rule="evenodd" fill="#2C77BC" d="M188.685,664.201
			c0-8.097,6.563-14.66,14.66-14.66c8.097,0,14.66,6.563,14.66,14.66s-6.563,14.66-14.66,14.66
			C195.248,678.861,188.685,672.298,188.685,664.201"/>
		<path clip-path="url(#SVGID_16_)" fill-rule="evenodd" clip-rule="evenodd" fill="#2C77BC" d="M957.181,664.201
			c0-8.097,6.563-14.66,14.66-14.66s14.66,6.563,14.66,14.66s-6.563,14.66-14.66,14.66S957.181,672.298,957.181,664.201"/>
		<path clip-path="url(#SVGID_16_)" fill="#2A77BC" d="M1019.069,482.223h-13.95c-2.142,0-3.877,1.736-3.877,3.877
			c0,2.141,1.735,3.876,3.877,3.876h13.949c2.142,0,3.877-1.735,3.877-3.876C1022.945,483.958,1021.21,482.223,1019.069,482.223"/>
		<path clip-path="url(#SVGID_16_)" fill="#2A77BC" d="M1157.387,482.223h-13.95c-2.141,0-3.876,1.736-3.876,3.877
			c0,2.141,1.735,3.876,3.876,3.876h13.95c2.142,0,3.877-1.735,3.877-3.876C1161.264,483.958,1159.528,482.223,1157.387,482.223"/>
		<path clip-path="url(#SVGID_16_)" fill="#2A77BC" d="M1035.04,532.312c-1.514-1.514-3.968-1.514-5.482,0l-10.146,10.147
			c-1.514,1.514-1.514,3.968,0,5.482c0.757,0.757,1.749,1.136,2.741,1.136c0.991,0,1.984-0.379,2.741-1.136l10.146-10.147
			C1036.555,536.28,1036.555,533.825,1035.04,532.312"/>
		<path clip-path="url(#SVGID_16_)" fill="#2A77BC" d="M1135.998,431.354c-1.515-1.514-3.968-1.514-5.482,0l-9.869,9.869
			c-1.514,1.514-1.514,3.969,0,5.482c0.758,0.757,1.75,1.135,2.741,1.135c0.993,0,1.984-0.378,2.741-1.135l9.869-9.869
			C1137.512,435.322,1137.512,432.867,1135.998,431.354"/>
		<path clip-path="url(#SVGID_16_)" fill="#2A77BC" d="M1041.854,441.218l-9.864-9.863c-1.514-1.514-3.969-1.514-5.482,0
			c-1.514,1.514-1.514,3.968,0,5.482l9.863,9.864c0.758,0.757,1.75,1.135,2.741,1.135c0.992,0,1.984-0.378,2.741-1.135
			C1043.367,445.187,1043.367,442.731,1041.854,441.218"/>
		<path clip-path="url(#SVGID_16_)" fill="#2A77BC" d="M1143.095,542.459l-10.109-10.11c-1.515-1.514-3.969-1.514-5.482,0
			c-1.515,1.514-1.515,3.969,0,5.482l10.109,10.11c0.757,0.757,1.749,1.135,2.741,1.135s1.983-0.378,2.741-1.135
			C1144.608,546.428,1144.608,543.974,1143.095,542.459"/>
		<path clip-path="url(#SVGID_16_)" fill="#2A77BC" d="M1081.253,440.746c-26.807,0-48.614,22.812-48.614,50.852
			c0,13.036,4.668,27.068,12.811,38.497c6.254,8.778,9.559,18.544,9.559,28.244v24.373c0,4.275,3.478,7.754,7.753,7.754h36.985
			c4.274,0,7.753-3.479,7.753-7.754v-24.373c0-9.7,3.304-19.466,9.558-28.244c8.142-11.429,12.812-25.461,12.812-38.497
			C1129.867,463.558,1108.059,440.746,1081.253,440.746 M1099.745,582.713h-36.985v-5.071h18.493c2.141,0,3.877-1.735,3.877-3.876
			s-1.736-3.877-3.877-3.877h-18.493v-5.07h36.986l0.004,17.893C1099.75,582.713,1099.749,582.713,1099.745,582.713
			 M1075.816,510.387l-5.185-11.076h21.241l-5.184,11.076c-0.204,0.436-0.325,0.906-0.357,1.386l-3.006,45.293h-4.146l-3.006-45.293
			C1076.141,511.293,1076.021,510.823,1075.816,510.387 M1110.741,525.597c-6.924,9.72-10.707,20.573-10.98,31.469h-8.665
			l2.925-44.053l7.458-15.935c0.563-1.201,0.472-2.606-0.24-3.724c-0.711-1.119-1.944-1.796-3.271-1.796h-33.431
			c-1.325,0-2.559,0.677-3.271,1.796c-0.711,1.118-0.801,2.523-0.239,3.723l7.459,15.936l2.924,44.052h-8.665
			c-0.274-10.895-4.056-21.749-10.98-31.468c-7.121-9.998-11.373-22.708-11.373-33.999c0-23.765,18.329-43.099,40.861-43.099
			c22.531,0,40.862,19.334,40.862,43.099C1122.114,502.89,1117.863,515.6,1110.741,525.597"/>
		<path clip-path="url(#SVGID_16_)" fill="#2A77BC" d="M142.12,437.986h-16.25v-9.945H96.035v9.945h-16.25
			c-4.748,0-8.612,3.864-8.612,8.612v122.004c0,4.748,3.864,8.612,8.612,8.612h62.332c4.751,0,8.616-3.864,8.616-8.612V446.598
			C150.733,441.85,146.868,437.986,142.12,437.986 M101.008,433.014h19.89v4.972h-19.89V433.014z M79.785,442.959h16.25h29.835
			h16.25c2.006,0,3.64,1.63,3.64,3.639V507.6H76.146v-61.002C76.146,444.589,77.78,442.959,79.785,442.959 M145.76,532.462v14.917
			v14.918v6.305c0,2.008-1.634,3.64-3.64,3.64h-6.305h-14.917h-14.917H91.063H79.785c-0.753,0-1.454-0.232-2.036-0.624
			c0.531-0.458,0.883-1.109,0.883-1.863c0-1.372-1.114-2.486-2.486-2.486v-9.945c1.372,0,2.486-1.114,2.486-2.486
			s-1.114-2.486-2.486-2.486v-9.945c1.372,0,2.486-1.114,2.486-2.486c0-1.373-1.114-2.487-2.486-2.487v-9.944
			c1.372,0,2.486-1.114,2.486-2.486c0-1.373-1.114-2.487-2.486-2.487v-9.945h69.614v4.973V532.462z"/>
		<path clip-path="url(#SVGID_16_)" fill="#2A77BC" d="M83.604,515.059c1.373,0,2.486,1.113,2.486,2.486s-1.113,2.486-2.486,2.486
			s-2.486-1.113-2.486-2.486S82.231,515.059,83.604,515.059"/>
		<path clip-path="url(#SVGID_16_)" fill="#2A77BC" d="M91.063,522.517c1.373,0,2.486,1.113,2.486,2.486s-1.113,2.486-2.486,2.486
			s-2.485-1.113-2.485-2.486S89.689,522.517,91.063,522.517"/>
		<path clip-path="url(#SVGID_16_)" fill="#2A77BC" d="M98.521,515.059c1.373,0,2.486,1.113,2.486,2.486s-1.113,2.486-2.486,2.486
			s-2.486-1.113-2.486-2.486S97.148,515.059,98.521,515.059"/>
		<path clip-path="url(#SVGID_16_)" fill="#2A77BC" d="M113.438,515.059c1.373,0,2.486,1.113,2.486,2.486s-1.113,2.486-2.486,2.486
			s-2.486-1.113-2.486-2.486S112.065,515.059,113.438,515.059"/>
		<path clip-path="url(#SVGID_16_)" fill="#2A77BC" d="M105.98,522.517c1.373,0,2.486,1.113,2.486,2.486s-1.113,2.486-2.486,2.486
			s-2.486-1.113-2.486-2.486S104.607,522.517,105.98,522.517"/>
		<path clip-path="url(#SVGID_16_)" fill="#2A77BC" d="M120.897,522.517c1.373,0,2.486,1.113,2.486,2.486s-1.113,2.486-2.486,2.486
			s-2.486-1.113-2.486-2.486S119.524,522.517,120.897,522.517"/>
		<path clip-path="url(#SVGID_16_)" fill="#2A77BC" d="M128.356,515.059c1.373,0,2.485,1.113,2.485,2.486s-1.112,2.486-2.485,2.486
			s-2.486-1.113-2.486-2.486S126.983,515.059,128.356,515.059"/>
		<path clip-path="url(#SVGID_16_)" fill="#2A77BC" d="M143.273,515.059c1.373,0,2.486,1.113,2.486,2.486s-1.113,2.486-2.486,2.486
			s-2.486-1.113-2.486-2.486S141.9,515.059,143.273,515.059"/>
		<path clip-path="url(#SVGID_16_)" fill="#2A77BC" d="M135.814,522.517c1.373,0,2.486,1.113,2.486,2.486s-1.113,2.486-2.486,2.486
			s-2.486-1.113-2.486-2.486S134.441,522.517,135.814,522.517"/>
		<path clip-path="url(#SVGID_16_)" fill="#2A77BC" d="M83.604,529.976c1.373,0,2.486,1.113,2.486,2.486s-1.113,2.486-2.486,2.486
			s-2.486-1.113-2.486-2.486S82.231,529.976,83.604,529.976"/>
		<path clip-path="url(#SVGID_16_)" fill="#2A77BC" d="M83.604,544.894c1.373,0,2.486,1.113,2.486,2.486s-1.113,2.486-2.486,2.486
			s-2.486-1.113-2.486-2.486S82.231,544.894,83.604,544.894"/>
		<path clip-path="url(#SVGID_16_)" fill="#2A77BC" d="M91.063,537.435c1.373,0,2.486,1.113,2.486,2.486
			c0,1.373-1.113,2.486-2.486,2.486s-2.485-1.113-2.485-2.486C88.578,538.548,89.689,537.435,91.063,537.435"/>
		<path clip-path="url(#SVGID_16_)" fill="#2A77BC" d="M91.063,552.352c1.373,0,2.486,1.113,2.486,2.486
			c0,1.373-1.113,2.486-2.486,2.486s-2.485-1.113-2.485-2.486C88.578,553.465,89.689,552.352,91.063,552.352"/>
		<path clip-path="url(#SVGID_16_)" fill="#2A77BC" d="M98.521,529.976c1.373,0,2.486,1.113,2.486,2.486s-1.113,2.486-2.486,2.486
			s-2.486-1.113-2.486-2.486S97.148,529.976,98.521,529.976"/>
		<path clip-path="url(#SVGID_16_)" fill="#2A77BC" d="M113.438,529.976c1.373,0,2.486,1.113,2.486,2.486s-1.113,2.486-2.486,2.486
			s-2.486-1.113-2.486-2.486S112.065,529.976,113.438,529.976"/>
		<path clip-path="url(#SVGID_16_)" fill="#2A77BC" d="M98.521,544.894c1.373,0,2.486,1.113,2.486,2.486s-1.113,2.486-2.486,2.486
			s-2.486-1.113-2.486-2.486S97.148,544.894,98.521,544.894"/>
		<path clip-path="url(#SVGID_16_)" fill="#2A77BC" d="M113.438,544.894c1.373,0,2.486,1.113,2.486,2.486s-1.113,2.486-2.486,2.486
			s-2.486-1.113-2.486-2.486S112.065,544.894,113.438,544.894"/>
		<path clip-path="url(#SVGID_16_)" fill="#2A77BC" d="M105.98,537.435c1.373,0,2.486,1.113,2.486,2.486
			c0,1.373-1.113,2.486-2.486,2.486s-2.486-1.113-2.486-2.486C103.495,538.548,104.607,537.435,105.98,537.435"/>
		<path clip-path="url(#SVGID_16_)" fill="#2A77BC" d="M120.897,537.435c1.373,0,2.486,1.113,2.486,2.486
			c0,1.373-1.113,2.486-2.486,2.486s-2.486-1.113-2.486-2.486C118.412,538.548,119.524,537.435,120.897,537.435"/>
		<path clip-path="url(#SVGID_16_)" fill="#2A77BC" d="M105.98,552.352c1.373,0,2.486,1.113,2.486,2.486
			c0,1.373-1.113,2.486-2.486,2.486s-2.486-1.113-2.486-2.486C103.495,553.465,104.607,552.352,105.98,552.352"/>
		<path clip-path="url(#SVGID_16_)" fill="#2A77BC" d="M120.897,552.352c1.373,0,2.486,1.113,2.486,2.486
			c0,1.373-1.113,2.486-2.486,2.486s-2.486-1.113-2.486-2.486C118.412,553.465,119.524,552.352,120.897,552.352"/>
		<path clip-path="url(#SVGID_16_)" fill="#2A77BC" d="M128.356,529.976c1.373,0,2.485,1.113,2.485,2.486s-1.112,2.486-2.485,2.486
			s-2.486-1.113-2.486-2.486S126.983,529.976,128.356,529.976"/>
		<path clip-path="url(#SVGID_16_)" fill="#2A77BC" d="M143.273,529.976c1.373,0,2.486,1.113,2.486,2.486s-1.113,2.486-2.486,2.486
			s-2.486-1.113-2.486-2.486S141.9,529.976,143.273,529.976"/>
		<path clip-path="url(#SVGID_16_)" fill="#2A77BC" d="M128.356,544.894c1.373,0,2.485,1.113,2.485,2.486s-1.112,2.486-2.485,2.486
			s-2.486-1.113-2.486-2.486S126.983,544.894,128.356,544.894"/>
		<path clip-path="url(#SVGID_16_)" fill="#2A77BC" d="M143.273,544.894c1.373,0,2.486,1.113,2.486,2.486s-1.113,2.486-2.486,2.486
			s-2.486-1.113-2.486-2.486S141.9,544.894,143.273,544.894"/>
		<path clip-path="url(#SVGID_16_)" fill="#2A77BC" d="M135.814,537.435c1.373,0,2.486,1.113,2.486,2.486
			c0,1.373-1.113,2.486-2.486,2.486s-2.486-1.113-2.486-2.486C133.329,538.548,134.441,537.435,135.814,537.435"/>
		<path clip-path="url(#SVGID_16_)" fill="#2A77BC" d="M135.814,552.352c1.373,0,2.486,1.113,2.486,2.486
			c0,1.373-1.113,2.486-2.486,2.486s-2.486-1.113-2.486-2.486C133.329,553.465,134.441,552.352,135.814,552.352"/>
		<path clip-path="url(#SVGID_16_)" fill="#2A77BC" d="M83.604,559.811c1.373,0,2.486,1.113,2.486,2.486s-1.113,2.486-2.486,2.486
			s-2.486-1.113-2.486-2.486S82.231,559.811,83.604,559.811"/>
		<path clip-path="url(#SVGID_16_)" fill="#2A77BC" d="M91.063,567.27c1.373,0,2.486,1.113,2.486,2.486s-1.113,2.486-2.486,2.486
			s-2.485-1.113-2.485-2.486S89.689,567.27,91.063,567.27"/>
		<path clip-path="url(#SVGID_16_)" fill="#2A77BC" d="M98.521,559.811c1.373,0,2.486,1.113,2.486,2.486s-1.113,2.486-2.486,2.486
			s-2.486-1.113-2.486-2.486S97.148,559.811,98.521,559.811"/>
		<path clip-path="url(#SVGID_16_)" fill="#2A77BC" d="M113.438,559.811c1.373,0,2.486,1.113,2.486,2.486s-1.113,2.486-2.486,2.486
			s-2.486-1.113-2.486-2.486S112.065,559.811,113.438,559.811"/>
		<path clip-path="url(#SVGID_16_)" fill="#2A77BC" d="M105.98,567.27c1.373,0,2.486,1.113,2.486,2.486s-1.113,2.486-2.486,2.486
			s-2.486-1.113-2.486-2.486S104.607,567.27,105.98,567.27"/>
		<path clip-path="url(#SVGID_16_)" fill="#2A77BC" d="M120.897,567.27c1.373,0,2.486,1.113,2.486,2.486s-1.113,2.486-2.486,2.486
			s-2.486-1.113-2.486-2.486S119.524,567.27,120.897,567.27"/>
		<path clip-path="url(#SVGID_16_)" fill="#2A77BC" d="M128.356,559.811c1.373,0,2.485,1.113,2.485,2.486s-1.112,2.486-2.485,2.486
			s-2.486-1.113-2.486-2.486S126.983,559.811,128.356,559.811"/>
		<path clip-path="url(#SVGID_16_)" fill="#2A77BC" d="M143.273,559.811c1.373,0,2.486,1.113,2.486,2.486s-1.113,2.486-2.486,2.486
			s-2.486-1.113-2.486-2.486S141.9,559.811,143.273,559.811"/>
		<path clip-path="url(#SVGID_16_)" fill="#2A77BC" d="M135.814,567.27c1.373,0,2.486,1.113,2.486,2.486s-1.113,2.486-2.486,2.486
			s-2.486-1.113-2.486-2.486S134.441,567.27,135.814,567.27"/>
		
			<line clip-path="url(#SVGID_16_)" fill="none" stroke="#FF9425" stroke-width="17.585" stroke-miterlimit="10" x1="585.527" y1="290" x2="585.527" y2="378.644"/>
		<path clip-path="url(#SVGID_16_)" fill="#FF9425" d="M585.527,421.352c-8.018-21.61-21.699-48.423-36.19-65.043l36.19,13.09
			l36.184-13.09C607.219,372.929,593.539,399.742,585.527,421.352"/>
	</g>
</g>
</svg>
