<?xml version="1.0" encoding="utf-8"?>
<!-- Generator: Adobe Illustrator 16.0.0, SVG Export Plug-In . SVG Version: 6.00 Build 0)  -->
<!DOCTYPE svg PUBLIC "-//W3C//DTD SVG 1.1//EN" "http://www.w3.org/Graphics/SVG/1.1/DTD/svg11.dtd">
<svg version="1.1" id="Layer_1" xmlns="http://www.w3.org/2000/svg" xmlns:xlink="http://www.w3.org/1999/xlink" x="0px" y="0px"
	 width="1210px" height="1178px" viewBox="0 0 1210 1178" enable-background="new 0 0 1210 1178" xml:space="preserve">
<g>
	<g>
		<defs>
			<rect id="SVGID_1_" x="772.578" y="385.424" width="122.857" height="122.858"/>
		</defs>
		<clipPath id="SVGID_2_">
			<use xlink:href="#SVGID_1_"  overflow="visible"/>
		</clipPath>
		<g clip-path="url(#SVGID_2_)">
			<defs>
				<rect id="SVGID_3_" x="772.578" y="385.424" width="122.856" height="122.858"/>
			</defs>
			<clipPath id="SVGID_4_">
				<use xlink:href="#SVGID_3_"  overflow="visible"/>
			</clipPath>
			<path clip-path="url(#SVGID_4_)" fill-rule="evenodd" clip-rule="evenodd" fill="#FFEAB6" d="M893.566,446.853
				c0,32.894-26.666,59.559-59.561,59.559c-32.893,0-59.558-26.665-59.558-59.559s26.665-59.559,59.558-59.559
				C866.9,387.293,893.566,413.958,893.566,446.853"/>
			
				<circle clip-path="url(#SVGID_4_)" fill="none" stroke="#FF9425" stroke-width="3.739" stroke-miterlimit="10" cx="834.007" cy="446.853" r="59.559"/>
		</g>
	</g>
</g>
<path fill="none" stroke="#2C77BC" stroke-width="7.147" stroke-miterlimit="10" d="M872.723,1001.818H340.334
	c-65.927,0-119.868-53.941-119.868-119.869V419.983c0-65.929,53.941-119.87,119.868-119.87h532.389
	c65.928,0,119.867,53.941,119.867,119.87v461.966C992.59,947.877,938.65,1001.818,872.723,1001.818z"/>
<polygon fill="none" stroke="#2C77BC" stroke-width="7.147" stroke-miterlimit="10" points="499.479,657.521 499.479,631.597 
	799.609,633.72 799.609,657.521 838.175,657.521 838.175,854.986 801.287,854.986 801.287,880.138 499.479,880.138 499.479,858.34 
	460.915,858.34 460.915,657.521 "/>
<path fill-rule="evenodd" clip-rule="evenodd" fill="#2C77BC" d="M500.003,693.64c0,3.2-2.594,5.796-5.795,5.796
	c-3.2,0-5.795-2.596-5.795-5.796s2.595-5.795,5.795-5.795C497.409,687.845,500.003,690.439,500.003,693.64"/>
<path fill-rule="evenodd" clip-rule="evenodd" fill="#2C77BC" d="M531.302,693.64c0,3.2-2.594,5.796-5.795,5.796
	c-3.2,0-5.795-2.596-5.795-5.796s2.595-5.795,5.795-5.795C528.708,687.845,531.302,690.439,531.302,693.64"/>
<path fill-rule="evenodd" clip-rule="evenodd" fill="#2C77BC" d="M562.601,693.64c0,3.2-2.594,5.796-5.795,5.796
	c-3.2,0-5.795-2.596-5.795-5.796s2.595-5.795,5.795-5.795C560.006,687.845,562.601,690.439,562.601,693.64"/>
<path fill-rule="evenodd" clip-rule="evenodd" fill="#2C77BC" d="M593.899,693.64c0,3.2-2.594,5.796-5.795,5.796
	c-3.2,0-5.795-2.596-5.795-5.796s2.595-5.795,5.795-5.795C591.305,687.845,593.899,690.439,593.899,693.64"/>
<path fill-rule="evenodd" clip-rule="evenodd" fill="#2C77BC" d="M625.198,693.64c0,3.2-2.595,5.796-5.796,5.796
	c-3.199,0-5.795-2.596-5.795-5.796s2.596-5.795,5.795-5.795C622.604,687.845,625.198,690.439,625.198,693.64"/>
<path fill-rule="evenodd" clip-rule="evenodd" fill="#2C77BC" d="M656.496,693.64c0,3.2-2.594,5.796-5.795,5.796
	c-3.2,0-5.795-2.596-5.795-5.796s2.595-5.795,5.795-5.795C653.902,687.845,656.496,690.439,656.496,693.64"/>
<path fill-rule="evenodd" clip-rule="evenodd" fill="#2C77BC" d="M687.795,693.64c0,3.2-2.594,5.796-5.795,5.796
	c-3.2,0-5.795-2.596-5.795-5.796s2.595-5.795,5.795-5.795C685.201,687.845,687.795,690.439,687.795,693.64"/>
<path fill-rule="evenodd" clip-rule="evenodd" fill="#2C77BC" d="M719.094,693.64c0,3.2-2.595,5.796-5.795,5.796
	s-5.795-2.596-5.795-5.796s2.595-5.795,5.795-5.795S719.094,690.439,719.094,693.64"/>
<path fill-rule="evenodd" clip-rule="evenodd" fill="#2C77BC" d="M750.393,693.64c0,3.2-2.595,5.796-5.796,5.796
	c-3.199,0-5.795-2.596-5.795-5.796s2.596-5.795,5.795-5.795C747.798,687.845,750.393,690.439,750.393,693.64"/>
<path fill-rule="evenodd" clip-rule="evenodd" fill="#2C77BC" d="M781.69,693.64c0,3.2-2.594,5.796-5.795,5.796
	c-3.2,0-5.795-2.596-5.795-5.796s2.595-5.795,5.795-5.795C779.097,687.845,781.69,690.439,781.69,693.64"/>
<path fill-rule="evenodd" clip-rule="evenodd" fill="#2C77BC" d="M812.989,693.64c0,3.2-2.594,5.796-5.795,5.796
	c-3.2,0-5.795-2.596-5.795-5.796s2.595-5.795,5.795-5.795C810.396,687.845,812.989,690.439,812.989,693.64"/>
<path fill-rule="evenodd" clip-rule="evenodd" fill="#2C77BC" d="M500.003,725.32c0,3.201-2.594,5.796-5.795,5.796
	c-3.2,0-5.795-2.595-5.795-5.796c0-3.199,2.595-5.795,5.795-5.795C497.409,719.525,500.003,722.121,500.003,725.32"/>
<path fill-rule="evenodd" clip-rule="evenodd" fill="#2C77BC" d="M531.302,725.32c0,3.201-2.594,5.796-5.795,5.796
	c-3.2,0-5.795-2.595-5.795-5.796c0-3.199,2.595-5.795,5.795-5.795C528.708,719.525,531.302,722.121,531.302,725.32"/>
<path fill-rule="evenodd" clip-rule="evenodd" fill="#2C77BC" d="M562.601,725.32c0,3.201-2.594,5.796-5.795,5.796
	c-3.2,0-5.795-2.595-5.795-5.796c0-3.199,2.595-5.795,5.795-5.795C560.006,719.525,562.601,722.121,562.601,725.32"/>
<path fill-rule="evenodd" clip-rule="evenodd" fill="#2C77BC" d="M593.899,725.32c0,3.201-2.594,5.796-5.795,5.796
	c-3.2,0-5.795-2.595-5.795-5.796c0-3.199,2.595-5.795,5.795-5.795C591.305,719.525,593.899,722.121,593.899,725.32"/>
<path fill-rule="evenodd" clip-rule="evenodd" fill="#2C77BC" d="M625.198,725.32c0,3.201-2.595,5.796-5.796,5.796
	c-3.199,0-5.795-2.595-5.795-5.796c0-3.199,2.596-5.795,5.795-5.795C622.604,719.525,625.198,722.121,625.198,725.32"/>
<path fill-rule="evenodd" clip-rule="evenodd" fill="#2C77BC" d="M656.496,725.32c0,3.201-2.594,5.796-5.795,5.796
	c-3.2,0-5.795-2.595-5.795-5.796c0-3.199,2.595-5.795,5.795-5.795C653.902,719.525,656.496,722.121,656.496,725.32"/>
<path fill-rule="evenodd" clip-rule="evenodd" fill="#2C77BC" d="M687.795,725.32c0,3.201-2.594,5.796-5.795,5.796
	c-3.2,0-5.795-2.595-5.795-5.796c0-3.199,2.595-5.795,5.795-5.795C685.201,719.525,687.795,722.121,687.795,725.32"/>
<path fill-rule="evenodd" clip-rule="evenodd" fill="#2C77BC" d="M719.094,725.32c0,3.201-2.595,5.796-5.795,5.796
	s-5.795-2.595-5.795-5.796c0-3.199,2.595-5.795,5.795-5.795S719.094,722.121,719.094,725.32"/>
<path fill-rule="evenodd" clip-rule="evenodd" fill="#2C77BC" d="M750.393,725.32c0,3.201-2.595,5.796-5.796,5.796
	c-3.199,0-5.795-2.595-5.795-5.796c0-3.199,2.596-5.795,5.795-5.795C747.798,719.525,750.393,722.121,750.393,725.32"/>
<path fill-rule="evenodd" clip-rule="evenodd" fill="#2C77BC" d="M781.69,725.32c0,3.201-2.594,5.796-5.795,5.796
	c-3.2,0-5.795-2.595-5.795-5.796c0-3.199,2.595-5.795,5.795-5.795C779.097,719.525,781.69,722.121,781.69,725.32"/>
<path fill-rule="evenodd" clip-rule="evenodd" fill="#2C77BC" d="M812.989,725.32c0,3.201-2.594,5.796-5.795,5.796
	c-3.2,0-5.795-2.595-5.795-5.796c0-3.199,2.595-5.795,5.795-5.795C810.396,719.525,812.989,722.121,812.989,725.32"/>
<path fill-rule="evenodd" clip-rule="evenodd" fill="#2C77BC" d="M500.003,757.002c0,3.2-2.594,5.795-5.795,5.795
	c-3.2,0-5.795-2.595-5.795-5.795s2.595-5.796,5.795-5.796C497.409,751.206,500.003,753.802,500.003,757.002"/>
<path fill-rule="evenodd" clip-rule="evenodd" fill="#2C77BC" d="M531.302,757.002c0,3.2-2.594,5.795-5.795,5.795
	c-3.2,0-5.795-2.595-5.795-5.795s2.595-5.796,5.795-5.796C528.708,751.206,531.302,753.802,531.302,757.002"/>
<path fill-rule="evenodd" clip-rule="evenodd" fill="#2C77BC" d="M562.601,757.002c0,3.2-2.594,5.795-5.795,5.795
	c-3.2,0-5.795-2.595-5.795-5.795s2.595-5.796,5.795-5.796C560.006,751.206,562.601,753.802,562.601,757.002"/>
<path fill-rule="evenodd" clip-rule="evenodd" fill="#2C77BC" d="M593.899,757.002c0,3.2-2.594,5.795-5.795,5.795
	c-3.2,0-5.795-2.595-5.795-5.795s2.595-5.796,5.795-5.796C591.305,751.206,593.899,753.802,593.899,757.002"/>
<path fill-rule="evenodd" clip-rule="evenodd" fill="#2C77BC" d="M625.198,757.002c0,3.2-2.595,5.795-5.796,5.795
	c-3.199,0-5.795-2.595-5.795-5.795s2.596-5.796,5.795-5.796C622.604,751.206,625.198,753.802,625.198,757.002"/>
<path fill-rule="evenodd" clip-rule="evenodd" fill="#2C77BC" d="M656.496,757.002c0,3.2-2.594,5.795-5.795,5.795
	c-3.2,0-5.795-2.595-5.795-5.795s2.595-5.796,5.795-5.796C653.902,751.206,656.496,753.802,656.496,757.002"/>
<path fill-rule="evenodd" clip-rule="evenodd" fill="#2C77BC" d="M687.795,757.002c0,3.2-2.594,5.795-5.795,5.795
	c-3.2,0-5.795-2.595-5.795-5.795s2.595-5.796,5.795-5.796C685.201,751.206,687.795,753.802,687.795,757.002"/>
<path fill-rule="evenodd" clip-rule="evenodd" fill="#2C77BC" d="M719.094,757.002c0,3.2-2.595,5.795-5.795,5.795
	s-5.795-2.595-5.795-5.795s2.595-5.796,5.795-5.796S719.094,753.802,719.094,757.002"/>
<path fill-rule="evenodd" clip-rule="evenodd" fill="#2C77BC" d="M750.393,757.002c0,3.2-2.595,5.795-5.796,5.795
	c-3.199,0-5.795-2.595-5.795-5.795s2.596-5.796,5.795-5.796C747.798,751.206,750.393,753.802,750.393,757.002"/>
<path fill-rule="evenodd" clip-rule="evenodd" fill="#2C77BC" d="M781.69,757.002c0,3.2-2.594,5.795-5.795,5.795
	c-3.2,0-5.795-2.595-5.795-5.795s2.595-5.796,5.795-5.796C779.097,751.206,781.69,753.802,781.69,757.002"/>
<path fill-rule="evenodd" clip-rule="evenodd" fill="#2C77BC" d="M812.989,757.002c0,3.2-2.594,5.795-5.795,5.795
	c-3.2,0-5.795-2.595-5.795-5.795s2.595-5.796,5.795-5.796C810.396,751.206,812.989,753.802,812.989,757.002"/>
<path fill-rule="evenodd" clip-rule="evenodd" fill="#2C77BC" d="M500.003,788.682c0,3.201-2.594,5.796-5.795,5.796
	c-3.2,0-5.795-2.595-5.795-5.796c0-3.199,2.595-5.795,5.795-5.795C497.409,782.887,500.003,785.482,500.003,788.682"/>
<path fill-rule="evenodd" clip-rule="evenodd" fill="#2C77BC" d="M531.302,788.682c0,3.201-2.594,5.796-5.795,5.796
	c-3.2,0-5.795-2.595-5.795-5.796c0-3.199,2.595-5.795,5.795-5.795C528.708,782.887,531.302,785.482,531.302,788.682"/>
<path fill-rule="evenodd" clip-rule="evenodd" fill="#2C77BC" d="M562.601,788.682c0,3.201-2.594,5.796-5.795,5.796
	c-3.2,0-5.795-2.595-5.795-5.796c0-3.199,2.595-5.795,5.795-5.795C560.006,782.887,562.601,785.482,562.601,788.682"/>
<path fill-rule="evenodd" clip-rule="evenodd" fill="#2C77BC" d="M593.899,788.682c0,3.201-2.594,5.796-5.795,5.796
	c-3.2,0-5.795-2.595-5.795-5.796c0-3.199,2.595-5.795,5.795-5.795C591.305,782.887,593.899,785.482,593.899,788.682"/>
<path fill-rule="evenodd" clip-rule="evenodd" fill="#2C77BC" d="M625.198,788.682c0,3.201-2.595,5.796-5.796,5.796
	c-3.199,0-5.795-2.595-5.795-5.796c0-3.199,2.596-5.795,5.795-5.795C622.604,782.887,625.198,785.482,625.198,788.682"/>
<path fill-rule="evenodd" clip-rule="evenodd" fill="#2C77BC" d="M656.496,788.682c0,3.201-2.594,5.796-5.795,5.796
	c-3.2,0-5.795-2.595-5.795-5.796c0-3.199,2.595-5.795,5.795-5.795C653.902,782.887,656.496,785.482,656.496,788.682"/>
<path fill-rule="evenodd" clip-rule="evenodd" fill="#2C77BC" d="M687.795,788.682c0,3.201-2.594,5.796-5.795,5.796
	c-3.2,0-5.795-2.595-5.795-5.796c0-3.199,2.595-5.795,5.795-5.795C685.201,782.887,687.795,785.482,687.795,788.682"/>
<path fill-rule="evenodd" clip-rule="evenodd" fill="#2C77BC" d="M719.094,788.682c0,3.201-2.595,5.796-5.795,5.796
	s-5.795-2.595-5.795-5.796c0-3.199,2.595-5.795,5.795-5.795S719.094,785.482,719.094,788.682"/>
<path fill-rule="evenodd" clip-rule="evenodd" fill="#2C77BC" d="M750.393,788.682c0,3.201-2.595,5.796-5.796,5.796
	c-3.199,0-5.795-2.595-5.795-5.796c0-3.199,2.596-5.795,5.795-5.795C747.798,782.887,750.393,785.482,750.393,788.682"/>
<path fill-rule="evenodd" clip-rule="evenodd" fill="#2C77BC" d="M781.69,788.682c0,3.201-2.594,5.796-5.795,5.796
	c-3.2,0-5.795-2.595-5.795-5.796c0-3.199,2.595-5.795,5.795-5.795C779.097,782.887,781.69,785.482,781.69,788.682"/>
<path fill-rule="evenodd" clip-rule="evenodd" fill="#2C77BC" d="M812.989,788.682c0,3.201-2.594,5.796-5.795,5.796
	c-3.2,0-5.795-2.595-5.795-5.796c0-3.199,2.595-5.795,5.795-5.795C810.396,782.887,812.989,785.482,812.989,788.682"/>
<path fill-rule="evenodd" clip-rule="evenodd" fill="#2C77BC" d="M500.003,820.363c0,3.2-2.594,5.795-5.795,5.795
	c-3.2,0-5.795-2.595-5.795-5.795s2.595-5.796,5.795-5.796C497.409,814.567,500.003,817.163,500.003,820.363"/>
<path fill-rule="evenodd" clip-rule="evenodd" fill="#2C77BC" d="M531.302,820.363c0,3.2-2.594,5.795-5.795,5.795
	c-3.2,0-5.795-2.595-5.795-5.795s2.595-5.796,5.795-5.796C528.708,814.567,531.302,817.163,531.302,820.363"/>
<path fill-rule="evenodd" clip-rule="evenodd" fill="#2C77BC" d="M562.601,820.363c0,3.2-2.594,5.795-5.795,5.795
	c-3.2,0-5.795-2.595-5.795-5.795s2.595-5.796,5.795-5.796C560.006,814.567,562.601,817.163,562.601,820.363"/>
<path fill-rule="evenodd" clip-rule="evenodd" fill="#2C77BC" d="M593.899,820.363c0,3.2-2.594,5.795-5.795,5.795
	c-3.2,0-5.795-2.595-5.795-5.795s2.595-5.796,5.795-5.796C591.305,814.567,593.899,817.163,593.899,820.363"/>
<path fill-rule="evenodd" clip-rule="evenodd" fill="#2C77BC" d="M625.198,820.363c0,3.2-2.595,5.795-5.796,5.795
	c-3.199,0-5.795-2.595-5.795-5.795s2.596-5.796,5.795-5.796C622.604,814.567,625.198,817.163,625.198,820.363"/>
<path fill-rule="evenodd" clip-rule="evenodd" fill="#2C77BC" d="M656.496,820.363c0,3.2-2.594,5.795-5.795,5.795
	c-3.2,0-5.795-2.595-5.795-5.795s2.595-5.796,5.795-5.796C653.902,814.567,656.496,817.163,656.496,820.363"/>
<path fill-rule="evenodd" clip-rule="evenodd" fill="#2C77BC" d="M687.795,820.363c0,3.2-2.594,5.795-5.795,5.795
	c-3.2,0-5.795-2.595-5.795-5.795s2.595-5.796,5.795-5.796C685.201,814.567,687.795,817.163,687.795,820.363"/>
<path fill-rule="evenodd" clip-rule="evenodd" fill="#2C77BC" d="M719.094,820.363c0,3.2-2.595,5.795-5.795,5.795
	s-5.795-2.595-5.795-5.795s2.595-5.796,5.795-5.796S719.094,817.163,719.094,820.363"/>
<path fill-rule="evenodd" clip-rule="evenodd" fill="#2C77BC" d="M750.393,820.363c0,3.2-2.595,5.795-5.796,5.795
	c-3.199,0-5.795-2.595-5.795-5.795s2.596-5.796,5.795-5.796C747.798,814.567,750.393,817.163,750.393,820.363"/>
<path fill-rule="evenodd" clip-rule="evenodd" fill="#2C77BC" d="M781.69,820.363c0,3.2-2.594,5.795-5.795,5.795
	c-3.2,0-5.795-2.595-5.795-5.795s2.595-5.796,5.795-5.796C779.097,814.567,781.69,817.163,781.69,820.363"/>
<path fill-rule="evenodd" clip-rule="evenodd" fill="#2C77BC" d="M812.989,820.363c0,3.2-2.594,5.795-5.795,5.795
	c-3.2,0-5.795-2.595-5.795-5.795s2.595-5.796,5.795-5.796C810.396,814.567,812.989,817.163,812.989,820.363"/>
<rect x="278.991" y="415.215" fill="none" stroke="#2C77BC" stroke-width="7.147" stroke-miterlimit="10" width="25.151" height="376.697"/>
<rect x="278.991" y="354.702" fill="none" stroke="#2C77BC" stroke-width="6.589" stroke-miterlimit="10" width="188.544" height="25.151"/>
<rect x="255.098" y="897.442" fill="none" stroke="#2C77BC" stroke-width="7.147" stroke-miterlimit="10" width="125.334" height="25.149"/>
<rect x="546.287" y="354.702" fill="none" stroke="#2C77BC" stroke-width="7.147" stroke-miterlimit="10" width="250.668" height="25.151"/>
<rect x="562.601" y="553.274" fill="none" stroke="#2C77BC" stroke-width="7.147" stroke-miterlimit="10" width="56.802" height="56.802"/>
<rect x="724.888" y="497.555" fill="none" stroke="#2C77BC" stroke-width="7.147" stroke-miterlimit="10" width="56.804" height="28.401"/>
<rect x="807.194" y="560.705" fill="none" stroke="#2C77BC" stroke-width="7.147" stroke-miterlimit="10" width="56.802" height="28.401"/>
<rect x="403.487" y="900.962" fill="none" stroke="#2C77BC" stroke-width="7.147" stroke-miterlimit="10" width="171.025" height="65.747"/>
<rect x="629.727" y="900.962" fill="none" stroke="#2C77BC" stroke-width="7.147" stroke-miterlimit="10" width="171.024" height="65.747"/>
<rect x="885.854" y="497.555" fill="none" stroke="#2C77BC" stroke-width="7.147" stroke-miterlimit="10" width="56.803" height="28.401"/>
<rect x="427.025" y="937.367" fill-rule="evenodd" clip-rule="evenodd" fill="#2C77BC" width="7.545" height="7.545"/>
<rect x="455.948" y="937.367" fill-rule="evenodd" clip-rule="evenodd" fill="#2C77BC" width="7.545" height="7.545"/>
<rect x="484.871" y="937.367" fill-rule="evenodd" clip-rule="evenodd" fill="#2C77BC" width="7.545" height="7.545"/>
<rect x="513.794" y="937.367" fill-rule="evenodd" clip-rule="evenodd" fill="#2C77BC" width="7.545" height="7.545"/>
<rect x="542.718" y="937.367" fill-rule="evenodd" clip-rule="evenodd" fill="#2C77BC" width="7.545" height="7.545"/>
<rect x="652.969" y="937.367" fill-rule="evenodd" clip-rule="evenodd" fill="#2C77BC" width="7.545" height="7.545"/>
<rect x="681.891" y="937.367" fill-rule="evenodd" clip-rule="evenodd" fill="#2C77BC" width="7.547" height="7.545"/>
<rect x="710.815" y="937.367" fill-rule="evenodd" clip-rule="evenodd" fill="#2C77BC" width="7.545" height="7.545"/>
<rect x="739.739" y="937.367" fill-rule="evenodd" clip-rule="evenodd" fill="#2C77BC" width="7.545" height="7.545"/>
<rect x="768.662" y="937.367" fill-rule="evenodd" clip-rule="evenodd" fill="#2C77BC" width="7.545" height="7.545"/>
<rect x="833.773" y="905.398" fill-rule="evenodd" clip-rule="evenodd" fill="#2C77BC" width="7.545" height="7.545"/>
<rect x="867.615" y="905.398" fill-rule="evenodd" clip-rule="evenodd" fill="#2C77BC" width="7.545" height="7.545"/>
<rect x="265.289" y="841.46" fill-rule="evenodd" clip-rule="evenodd" fill="#2C77BC" width="7.545" height="7.545"/>
<rect x="299.131" y="841.46" fill-rule="evenodd" clip-rule="evenodd" fill="#2C77BC" width="7.545" height="7.545"/>
<rect x="898.997" y="905.398" fill-rule="evenodd" clip-rule="evenodd" fill="#2C77BC" width="7.545" height="7.545"/>
<line fill="none" stroke="#2C77BC" stroke-width="7.147" stroke-miterlimit="10" x1="286.432" y1="897.442" x2="286.432" y2="922.594"/>
<line fill="none" stroke="#2C77BC" stroke-width="7.147" stroke-miterlimit="10" x1="317.765" y1="897.442" x2="317.765" y2="922.594"/>
<line fill="none" stroke="#2C77BC" stroke-width="7.147" stroke-miterlimit="10" x1="349.099" y1="897.442" x2="349.099" y2="922.594"/>
<rect x="823.164" y="897.442" fill="none" stroke="#2C77BC" stroke-width="6.203" stroke-miterlimit="10" width="94.398" height="25.149"/>
<line fill="none" stroke="#2C77BC" stroke-width="7.147" stroke-miterlimit="10" x1="854.497" y1="897.442" x2="854.497" y2="922.594"/>
<line fill="none" stroke="#2C77BC" stroke-width="7.147" stroke-miterlimit="10" x1="885.831" y1="897.442" x2="885.831" y2="922.594"/>
<rect x="253.89" y="831.702" fill="none" stroke="#2C77BC" stroke-width="7.147" stroke-miterlimit="10" width="62.667" height="25.148"/>
<line fill="none" stroke="#2C77BC" stroke-width="7.147" stroke-miterlimit="10" x1="285.224" y1="831.702" x2="285.224" y2="856.853"/>
<line fill="none" stroke="#2C77BC" stroke-width="7.147" stroke-miterlimit="10" x1="304.142" y1="760.684" x2="278.991" y2="760.684"/>
<line fill="none" stroke="#2C77BC" stroke-width="7.147" stroke-miterlimit="10" x1="304.142" y1="728.551" x2="278.991" y2="728.551"/>
<line fill="none" stroke="#2C77BC" stroke-width="7.147" stroke-miterlimit="10" x1="304.142" y1="697.217" x2="278.991" y2="697.217"/>
<line fill="none" stroke="#2C77BC" stroke-width="7.147" stroke-miterlimit="10" x1="304.142" y1="665.883" x2="278.991" y2="665.883"/>
<line fill="none" stroke="#2C77BC" stroke-width="7.147" stroke-miterlimit="10" x1="304.142" y1="634.549" x2="278.991" y2="634.549"/>
<line fill="none" stroke="#2C77BC" stroke-width="7.147" stroke-miterlimit="10" x1="304.142" y1="603.216" x2="278.991" y2="603.216"/>
<line fill="none" stroke="#2C77BC" stroke-width="7.147" stroke-miterlimit="10" x1="304.142" y1="571.882" x2="278.991" y2="571.882"/>
<line fill="none" stroke="#2C77BC" stroke-width="7.147" stroke-miterlimit="10" x1="304.142" y1="540.549" x2="278.991" y2="540.549"/>
<line fill="none" stroke="#2C77BC" stroke-width="7.147" stroke-miterlimit="10" x1="304.142" y1="509.215" x2="278.991" y2="509.215"/>
<line fill="none" stroke="#2C77BC" stroke-width="7.147" stroke-miterlimit="10" x1="304.142" y1="477.882" x2="278.991" y2="477.882"/>
<line fill="none" stroke="#2C77BC" stroke-width="7.147" stroke-miterlimit="10" x1="304.142" y1="446.548" x2="278.991" y2="446.548"/>
<line fill="none" stroke="#2C77BC" stroke-width="7.147" stroke-miterlimit="10" x1="577.621" y1="379.853" x2="577.621" y2="354.702"/>
<line fill="none" stroke="#2C77BC" stroke-width="7.147" stroke-miterlimit="10" x1="435.659" y1="379.853" x2="435.659" y2="354.702"/>
<line fill="none" stroke="#2C77BC" stroke-width="7.147" stroke-miterlimit="10" x1="404.325" y1="379.853" x2="404.325" y2="354.702"/>
<line fill="none" stroke="#2C77BC" stroke-width="7.147" stroke-miterlimit="10" x1="372.992" y1="379.853" x2="372.992" y2="354.702"/>
<line fill="none" stroke="#2C77BC" stroke-width="7.147" stroke-miterlimit="10" x1="341.658" y1="379.853" x2="341.658" y2="354.702"/>
<line fill="none" stroke="#2C77BC" stroke-width="7.147" stroke-miterlimit="10" x1="310.325" y1="379.853" x2="310.325" y2="354.702"/>
<line fill="none" stroke="#2C77BC" stroke-width="7.147" stroke-miterlimit="10" x1="608.954" y1="379.853" x2="608.954" y2="354.702"/>
<line fill="none" stroke="#2C77BC" stroke-width="7.147" stroke-miterlimit="10" x1="640.287" y1="379.853" x2="640.287" y2="354.702"/>
<line fill="none" stroke="#2C77BC" stroke-width="7.147" stroke-miterlimit="10" x1="671.621" y1="379.853" x2="671.621" y2="354.702"/>
<line fill="none" stroke="#2C77BC" stroke-width="7.147" stroke-miterlimit="10" x1="702.955" y1="379.853" x2="702.955" y2="354.702"/>
<line fill="none" stroke="#2C77BC" stroke-width="7.147" stroke-miterlimit="10" x1="734.288" y1="379.853" x2="734.288" y2="354.702"/>
<line fill="none" stroke="#2C77BC" stroke-width="7.147" stroke-miterlimit="10" x1="765.622" y1="379.853" x2="765.622" y2="354.702"/>
<path fill="#2A77BC" d="M340.005,330.896v9.667h-3.411v-22.071h6.417c3.907,0,6.067,2.094,6.067,5.917
	c0,3.228-1.678,4.615-2.893,5.071c1.824,0.776,2.574,2.349,2.574,5.551v0.88c0,2.353,0.101,3.469,0.303,4.652h-3.339
	c-0.316-1.01-0.362-2.831-0.362-4.694v-0.785c0-3.017-0.664-4.188-3.325-4.188H340.005z M340.005,328.085h2.184
	c2.488,0,3.449-1.194,3.449-3.54c0-2.009-0.948-3.243-3.113-3.243h-2.52V328.085z M365.542,329.35
	c0,7.884-2.057,11.575-7.039,11.575c-4.682,0-6.849-3.609-6.849-11.591c0-7.813,2.529-11.181,7.006-11.181
	C363.387,318.153,365.542,321.75,365.542,329.35 M355.176,329.291c0,5.598,0.957,8.732,3.415,8.732c2.57,0,3.429-2.951,3.429-8.712
	c0-5.572-0.921-8.233-3.439-8.233C356.106,321.078,355.176,324,355.176,329.291 M368.762,318.492h6.394
	c3.65,0,5.729,2.072,5.729,5.519c0,2.844-1.362,4.173-2.606,4.629c1.599,0.622,3.273,2.091,3.273,5.44
	c0,4.118-2.616,6.483-6.51,6.483h-6.28V318.492z M374.247,327.434c2.563,0,3.331-1.045,3.331-3.11c0-2.023-1.065-3.077-3.136-3.077
	h-2.314v6.187H374.247z M372.128,337.854h2.566c2.184,0,3.415-1.201,3.415-3.823c0-2.507-1.136-3.888-3.859-3.888h-2.122V337.854z
	 M397.7,329.35c0,7.884-2.057,11.575-7.039,11.575c-4.681,0-6.849-3.609-6.849-11.591c0-7.813,2.529-11.181,7.006-11.181
	C395.546,318.153,397.7,321.75,397.7,329.35 M387.334,329.291c0,5.598,0.957,8.732,3.415,8.732c2.57,0,3.429-2.951,3.429-8.712
	c0-5.572-0.92-8.233-3.438-8.233C388.264,321.078,387.334,324,387.334,329.291 M403.394,321.508h-4.785v-3.016h13.004v3.016h-4.786
	v19.055h-3.433V321.508z M423.306,340.563h-3.433v-22.071h3.433V340.563z M427.4,340.563v-22.071h3.974
	c5.089,13.249,5.959,15.491,6.229,16.531h0.032c-0.175-2.759-0.195-6.033-0.195-9.639v-6.892h3.101v22.071h-3.808
	c-5.268-14.044-6.086-16.28-6.36-17.245h-0.032c0.163,2.734,0.172,6.108,0.172,10.069v7.176H427.4z M452.298,340.563h-3.433
	l5.186-22.071h4.45l5.277,22.071h-3.609l-1.28-6.05h-5.322L452.298,340.563z M458.257,331.52c-0.98-4.633-1.696-7.845-2.025-9.833
	h-0.088c-0.28,1.994-1.049,5.534-1.954,9.833H458.257z M484.48,334.246c-0.097,1.172-0.566,6.679-6.425,6.679
	c-6.139,0-6.765-5.752-6.765-11.47c0-6.898,1.959-11.302,7.012-11.302c5.67,0,6.071,5.007,6.149,6.63h-3.407
	c-0.055-0.749-0.137-3.686-2.797-3.686c-2.822,0-3.403,3.623-3.403,8.416c0,4.332,0.45,8.513,3.276,8.513
	c2.556,0,2.832-2.842,2.931-3.78H484.48z M489.278,340.563h-3.433l5.186-22.071h4.451l5.277,22.071h-3.61l-1.279-6.05h-5.322
	L489.278,340.563z M495.238,331.52c-0.98-4.633-1.697-7.845-2.026-9.833h-0.088c-0.28,1.994-1.049,5.534-1.953,9.833H495.238z
	 M502.823,340.563v-22.071h3.974c5.089,13.249,5.959,15.491,6.229,16.531h0.033c-0.176-2.759-0.195-6.033-0.195-9.639v-6.892h3.1
	v22.071h-3.808c-5.268-14.044-6.085-16.28-6.359-17.245h-0.033c0.163,2.734,0.173,6.108,0.173,10.069v7.176H502.823z"/>
<path fill="#2A77BC" d="M450.997,576.172v-2.634c0.655-0.088,1.208-0.153,2.051-0.176c-1.675-0.896-2.413-2.282-2.413-4.396
	c0-4.668,4.387-6.194,11.298-6.194c7.901,0,11.474,2.588,11.474,7.241c0,5.745-4.978,6.08-6.291,6.145v-3.397
	c0.853-0.065,3.366-0.251,3.366-2.849c0-2.742-3.488-3.585-8.529-3.585c-5.274,0-8.416,0.68-8.416,3.4
	c0,2.396,1.907,3.043,5.628,3.043h1.183v-3.265h2.947v6.666H450.997z M462.209,615.597c-7.884,0-11.575-2.057-11.575-7.039
	c0-4.682,3.609-6.849,11.591-6.849c7.813,0,11.181,2.528,11.181,7.006C473.407,613.442,469.81,615.597,462.209,615.597
	 M473.067,586.09c0,3.584-2.183,6.201-6.422,6.201c-4.148,0-6.48-2.366-6.48-6.523v-2.56h-9.169v-3.434h22.071V586.09z
	 M473.067,598.424h-22.071v-3.434h22.071V598.424z M462.269,605.23c-5.598,0-8.732,0.957-8.732,3.414
	c0,2.571,2.951,3.431,8.712,3.431c5.572,0,8.233-0.921,8.233-3.439C470.481,606.161,467.56,605.23,462.269,605.23 M462.954,583.208
	v2.178c0,2.348,1.195,3.451,3.738,3.451c2.286,0,3.566-1.185,3.566-3.216v-2.413H462.954z"/>
<path fill="#2A77BC" d="M473.51,410.849h2.073v11.546h4.628l-0.225,1.779h-6.476V410.849z M483.531,424.174h-2.073v-13.325h2.073
	V424.174z M493.604,424.174h-1.59c-0.053-0.395-0.093-0.729-0.106-1.238c-0.541,1.011-1.378,1.457-2.654,1.457
	c-2.818,0-3.739-2.649-3.739-6.821c0-4.77,1.562-6.927,4.371-6.927c3.468,0,3.671,3.005,3.711,3.798h-2.052
	c-0.039-0.516-0.151-2.033-1.72-2.033c-1.655,0-2.164,2.106-2.164,5.15c0,3.184,0.411,5.081,2.052,5.081
	c1.447,0,1.838-1.152,1.838-3.398v-0.714h-1.971v-1.78h4.024V424.174z M495.78,410.849h2.073v5.39h3.592v-5.39h2.073v13.325h-2.073
	v-6.128h-3.592v6.128h-2.073V410.849z M507.726,412.67h-2.889v-1.821h7.851v1.821h-2.889v11.504h-2.073V412.67z"/>
<path fill="#2A77BC" d="M566.558,536.377v5.836h-2.059v-13.325h3.874c2.359,0,3.663,1.265,3.663,3.573
	c0,1.949-1.013,2.787-1.747,3.062c1.101,0.468,1.554,1.417,1.554,3.351v0.531c0,1.421,0.061,2.095,0.183,2.808h-2.016
	c-0.191-0.609-0.218-1.708-0.218-2.834v-0.474c0-1.82-0.401-2.528-2.008-2.528H566.558z M566.558,534.681h1.319
	c1.502,0,2.082-0.721,2.082-2.136c0-1.214-0.572-1.959-1.88-1.959h-1.521V534.681z M581.682,542.213h-1.591
	c-0.053-0.395-0.092-0.729-0.106-1.238c-0.541,1.011-1.378,1.457-2.653,1.457c-2.819,0-3.74-2.648-3.74-6.821
	c0-4.77,1.562-6.927,4.372-6.927c3.468,0,3.67,3.006,3.71,3.798h-2.052c-0.039-0.515-0.151-2.033-1.72-2.033
	c-1.655,0-2.164,2.107-2.164,5.15c0,3.184,0.411,5.081,2.052,5.081c1.447,0,1.839-1.152,1.839-3.398v-0.714h-1.973v-1.779h4.026
	V542.213z M583.843,528.889h3.861c2.203,0,3.458,1.251,3.458,3.332c0,1.717-0.822,2.52-1.573,2.795
	c0.966,0.376,1.977,1.263,1.977,3.284c0,2.487-1.58,3.914-3.931,3.914h-3.792V528.889z M587.155,534.288
	c1.547,0,2.011-0.631,2.011-1.878c0-1.22-0.643-1.857-1.893-1.857h-1.398v3.735H587.155z M585.875,540.579h1.549
	c1.319,0,2.062-0.725,2.062-2.308c0-1.514-0.685-2.348-2.329-2.348h-1.282V540.579z M597.156,528.889h2.073v11.546h4.628
	l-0.224,1.779h-6.477V528.889z M611.482,536.129h-4.335v4.291h4.849l-0.262,1.793h-6.632v-13.325h6.589v1.821h-4.544v3.613h4.335
	V536.129z M613.503,528.889h3.298c3.307,0,4.654,2.18,4.654,6.363c0,4.508-1.268,6.962-4.85,6.962h-3.103V528.889z M615.59,540.503
	h0.979c2.061,0,2.746-1.584,2.746-5.228c0-3.227-0.686-4.648-2.727-4.648h-0.998V540.503z"/>
<path fill="#2A77BC" d="M689.902,610.041h3.86c2.203,0,3.458,1.251,3.458,3.332c0,1.717-0.822,2.52-1.573,2.795
	c0.966,0.376,1.977,1.263,1.977,3.284c0,2.486-1.58,3.914-3.931,3.914h-3.791V610.041z M693.214,615.439
	c1.547,0,2.011-0.631,2.011-1.877c0-1.221-0.643-1.858-1.895-1.858h-1.396v3.735H693.214z M691.934,621.73h1.55
	c1.318,0,2.062-0.725,2.062-2.307c0-1.515-0.686-2.349-2.329-2.349h-1.282V621.73z M701.398,617.529v5.837h-2.059v-13.325h3.874
	c2.358,0,3.663,1.265,3.663,3.572c0,1.949-1.014,2.787-1.747,3.063c1.102,0.467,1.554,1.417,1.554,3.351v0.53
	c0,1.421,0.063,2.095,0.183,2.809h-2.016c-0.19-0.608-0.218-1.709-0.218-2.834v-0.474c0-1.821-0.401-2.529-2.008-2.529H701.398z
	 M701.398,615.833h1.318c1.503,0,2.083-0.722,2.083-2.137c0-1.214-0.572-1.958-1.88-1.958h-1.521V615.833z M715.183,617.282h-4.335
	v4.291h4.849l-0.262,1.793h-6.632v-13.325h6.588v1.821h-4.543v3.612h4.335V617.282z M718.724,623.366h-2.073l3.131-13.325h2.688
	l3.186,13.325h-2.179l-0.772-3.651h-3.213L718.724,623.366z M722.321,617.906c-0.592-2.797-1.024-4.736-1.223-5.936h-0.054
	c-0.169,1.203-0.633,3.341-1.18,5.936H722.321z M726.899,610.041h3.298c3.307,0,4.654,2.18,4.654,6.363
	c0,4.508-1.267,6.962-4.849,6.962h-3.104V610.041z M728.986,621.656h0.979c2.06,0,2.746-1.585,2.746-5.229
	c0-3.227-0.686-4.648-2.727-4.648h-0.999V621.656z M736.781,610.041h3.86c2.204,0,3.459,1.251,3.459,3.332
	c0,1.717-0.822,2.52-1.573,2.795c0.966,0.376,1.977,1.263,1.977,3.284c0,2.486-1.58,3.914-3.931,3.914h-3.792V610.041z
	 M740.093,615.439c1.548,0,2.012-0.631,2.012-1.877c0-1.221-0.644-1.858-1.894-1.858h-1.397v3.735H740.093z M738.813,621.73h1.549
	c1.319,0,2.063-0.725,2.063-2.307c0-1.515-0.686-2.349-2.33-2.349h-1.281V621.73z M754.254,616.597c0,4.761-1.242,6.988-4.25,6.988
	c-2.826,0-4.135-2.179-4.135-6.998c0-4.717,1.526-6.75,4.229-6.75C752.953,609.837,754.254,612.009,754.254,616.597
	 M747.996,616.562c0,3.379,0.577,5.271,2.062,5.271c1.551,0,2.07-1.781,2.07-5.26c0-3.364-0.557-4.971-2.076-4.971
	C748.557,611.603,747.996,613.366,747.996,616.562 M757.124,623.366h-2.073l3.131-13.325h2.688l3.186,13.325h-2.179l-0.772-3.651
	h-3.213L757.124,623.366z M760.722,617.906c-0.592-2.797-1.024-4.736-1.223-5.936h-0.054c-0.169,1.203-0.633,3.341-1.179,5.936
	H760.722z M767.361,617.529v5.837h-2.059v-13.325h3.874c2.358,0,3.663,1.265,3.663,3.572c0,1.949-1.014,2.787-1.747,3.063
	c1.102,0.467,1.554,1.417,1.554,3.351v0.53c0,1.421,0.062,2.095,0.184,2.809h-2.017c-0.19-0.608-0.218-1.709-0.218-2.834v-0.474
	c0-1.821-0.401-2.529-2.008-2.529H767.361z M767.361,615.833h1.318c1.503,0,2.083-0.722,2.083-2.137c0-1.214-0.572-1.958-1.88-1.958
	h-1.521V615.833z M774.766,610.041h3.297c3.309,0,4.654,2.18,4.654,6.363c0,4.508-1.267,6.962-4.849,6.962h-3.103V610.041z
	 M776.852,621.656h0.979c2.061,0,2.747-1.585,2.747-5.229c0-3.227-0.686-4.648-2.727-4.648h-0.999V621.656z"/>
<path fill="#2A77BC" d="M467.437,501.674c0.112,1.195,0.629,2.21,1.93,2.21c1.251,0,1.778-0.746,1.778-1.923
	c0-1.199-0.549-1.873-2.278-2.701c-2.215-1.054-3.118-2.001-3.118-3.964c0-2.032,1.305-3.493,3.634-3.493
	c2.853,0,3.576,1.965,3.616,3.641h-2.032c-0.072-0.722-0.269-1.986-1.629-1.986c-1.06,0-1.524,0.704-1.524,1.663
	c0,1.068,0.476,1.568,2.075,2.318c2.37,1.107,3.368,2.193,3.368,4.339c0,2.097-1.259,3.761-3.951,3.761
	c-2.929,0-3.844-1.889-3.934-3.865H467.437z M481.385,499.242h-4.334v4.291h4.848l-0.262,1.794h-6.632v-13.326h6.589v1.821h-4.543
	v3.613h4.334V499.242z M483.405,505.327v-13.326h2.399c3.072,8,3.598,9.353,3.761,9.981h0.02c-0.107-1.666-0.118-3.642-0.118-5.82
	v-4.161h1.872v13.326h-2.299c-3.181-8.479-3.675-9.829-3.84-10.412h-0.019c0.098,1.65,0.104,3.688,0.104,6.079v4.333H483.405z
	 M495.019,501.674c0.111,1.195,0.628,2.21,1.93,2.21c1.251,0,1.777-0.746,1.777-1.923c0-1.199-0.549-1.873-2.277-2.701
	c-2.215-1.054-3.118-2.001-3.118-3.964c0-2.032,1.304-3.493,3.634-3.493c2.852,0,3.576,1.965,3.616,3.641h-2.032
	c-0.072-0.722-0.269-1.986-1.63-1.986c-1.059,0-1.523,0.704-1.523,1.663c0,1.068,0.476,1.568,2.075,2.318
	c2.37,1.107,3.367,2.193,3.367,4.339c0,2.097-1.258,3.761-3.95,3.761c-2.93,0-3.844-1.889-3.934-3.865H495.019z M510.542,498.557
	c0,4.76-1.242,6.988-4.249,6.988c-2.827,0-4.135-2.179-4.135-6.998c0-4.717,1.527-6.75,4.229-6.75
	C509.243,491.797,510.542,493.968,510.542,498.557 M504.285,498.522c0,3.379,0.577,5.271,2.062,5.271c1.551,0,2.07-1.782,2.07-5.26
	c0-3.364-0.556-4.97-2.076-4.97C504.847,493.563,504.285,495.327,504.285,498.522 M514.562,499.49v5.837h-2.06v-13.326h3.874
	c2.359,0,3.664,1.265,3.664,3.572c0,1.949-1.013,2.787-1.747,3.063c1.101,0.468,1.554,1.418,1.554,3.351v0.531
	c0,1.421,0.061,2.095,0.183,2.809h-2.016c-0.191-0.61-0.219-1.709-0.219-2.834v-0.474c0-1.822-0.4-2.529-2.007-2.529H514.562z
	 M514.562,497.793h1.318c1.503,0,2.083-0.721,2.083-2.137c0-1.213-0.572-1.958-1.88-1.958h-1.521V497.793z"/>
<rect fill="none" width="1210" height="1178"/>
<text transform="matrix(1 0 0 1 317.3691 443.3716)"><tspan x="0" y="0" fill="#2A77BC" font-family="'OCRAStd'" font-size="24.5916" letter-spacing="-1">3.3</tspan><tspan x="49.576" y="0" fill="#2A77BC" font-family="'OCRAStd'" font-size="24.5916"> </tspan></text>
<text transform="matrix(1 0 0 1 383.373 443.3716)" fill="#2A77BC" font-family="'OCRAStd'" font-size="24.5916">V</text>
<text transform="matrix(1 0 0 1 317.3691 474.3569)"><tspan x="0" y="0" fill="#2A77BC" font-family="'OCRAStd'" font-size="24.5916" letter-spacing="-1">G</tspan><tspan x="16.525" y="0" fill="#2A77BC" font-family="'OCRAStd'" font-size="24.5916">N</tspan></text>
<text transform="matrix(1 0 0 1 350.3711 474.3569)" fill="#2A77BC" font-family="'OCRAStd'" font-size="24.5916">D</text>
<text transform="matrix(1 0 0 1 317.3691 536.3276)"><tspan x="0" y="0" fill="#2A77BC" font-family="'OCRAStd'" font-size="24.5916" letter-spacing="-1">4 (I</tspan><tspan x="66.101" y="0" fill="#2A77BC" font-family="'OCRAStd'" font-size="24.5916">O</tspan></text>
<text transform="matrix(1 0 0 1 399.874 536.3276)" fill="#2A77BC" font-family="'OCRAStd'" font-size="24.5916">)</text>
<text transform="matrix(1 0 0 1 317.3691 567.3135)"><tspan x="0" y="0" fill="#2A77BC" font-family="'OCRAStd'" font-size="24.5916" letter-spacing="-1">5 (P</tspan><tspan x="66.101" y="0" fill="#2A77BC" font-family="'OCRAStd'" font-size="24.5916">W</tspan></text>
<text transform="matrix(1 0 0 1 399.874 567.3135)" fill="#2A77BC" font-family="'OCRAStd'" font-size="24.5916">)</text>
<text transform="matrix(1 0 0 1 317.3691 598.2988)"><tspan x="0" y="0" fill="#2A77BC" font-family="'OCRAStd'" font-size="24.5916" letter-spacing="-1">10 (P</tspan><tspan x="82.626" y="0" fill="#2A77BC" font-family="'OCRAStd'" font-size="24.5916">W</tspan></text>
<text transform="matrix(1 0 0 1 416.375 598.2988)" fill="#2A77BC" font-family="'OCRAStd'" font-size="24.5916">)</text>
<text transform="matrix(1 0 0 1 317.3691 629.2842)"><tspan x="0" y="0" fill="#2A77BC" font-family="'OCRAStd'" font-size="24.5916" letter-spacing="-1">16 (P</tspan><tspan x="82.626" y="0" fill="#2A77BC" font-family="'OCRAStd'" font-size="24.5916">W</tspan></text>
<text transform="matrix(1 0 0 1 416.375 629.2842)" fill="#2A77BC" font-family="'OCRAStd'" font-size="24.5916">)</text>
<text transform="matrix(1 0 0 1 317.3691 660.2695)"><tspan x="0" y="0" fill="#2A77BC" font-family="'OCRAStd'" font-size="24.5916" letter-spacing="-1">14 (</tspan><tspan x="66.101" y="0" fill="#2A77BC" font-family="'OCRAStd'" font-size="24.5916">L</tspan></text>
<text transform="matrix(1 0 0 1 399.874 660.2695)" fill="#2A77BC" font-family="'OCRAStd'" font-size="24.5916">)</text>
<text transform="matrix(1 0 0 1 317.3691 691.2549)"><tspan x="0" y="0" fill="#2A77BC" font-family="'OCRAStd'" font-size="24.5916" letter-spacing="-1">12 (</tspan><tspan x="66.101" y="0" fill="#2A77BC" font-family="'OCRAStd'" font-size="24.5916">D</tspan></text>
<text transform="matrix(1 0 0 1 399.874 691.2549)" fill="#2A77BC" font-family="'OCRAStd'" font-size="24.5916">)</text>
<text transform="matrix(1 0 0 1 317.3691 722.2402)"><tspan x="0" y="0" fill="#2A77BC" font-family="'OCRAStd'" font-size="24.5916" letter-spacing="-1">13 (</tspan><tspan x="66.101" y="0" fill="#2A77BC" font-family="'OCRAStd'" font-size="24.5916">C</tspan></text>
<text transform="matrix(1 0 0 1 399.874 722.2402)" fill="#2A77BC" font-family="'OCRAStd'" font-size="24.5916">)</text>
<text transform="matrix(1 0 0 1 819.0381 423.6982)" fill="#2A77BC" font-family="'OCRAStd'" font-size="24.5916">S</text>
<text transform="matrix(1 0 0 1 819.0381 617.9717)" fill="#2A77BC" font-family="'OCRAStd'" font-size="24.5916">S</text>
<text transform="matrix(1 0 0 1 835.5391 617.9717)" fill="#2A77BC" font-family="'OCRAStd'" font-size="24.5916">3</text>
<text transform="matrix(1 0 0 1 737.8857 554.0337)" fill="#2A77BC" font-family="'OCRAStd'" font-size="24.5916">S</text>
<text transform="matrix(1 0 0 1 754.3867 554.0337)" fill="#2A77BC" font-family="'OCRAStd'" font-size="24.5916">4</text>
<text transform="matrix(1 0 0 1 900.1904 554.0337)" fill="#2A77BC" font-family="'OCRAStd'" font-size="24.5916">S</text>
<text transform="matrix(1 0 0 1 916.6914 554.0337)" fill="#2A77BC" font-family="'OCRAStd'" font-size="24.5916">2</text>
<text transform="matrix(1 0 0 1 319.8262 753.2236)"><tspan x="0" y="0" fill="#2A77BC" font-family="'OCRAStd'" font-size="17.2141">0 (12C-</tspan><tspan x="80.974" y="0" fill="#2A77BC" font-family="'OCRAStd'" font-size="17.2141">D</tspan></text>
<text transform="matrix(1 0 0 1 412.2314 753.2236)" fill="#2A77BC" font-family="'OCRAStd'" font-size="17.2141">)</text>
<text transform="matrix(1 0 0 1 319.8262 784.209)"><tspan x="0" y="0" fill="#2A77BC" font-family="'OCRAStd'" font-size="17.2141">2 (12C-</tspan><tspan x="80.974" y="0" fill="#2A77BC" font-family="'OCRAStd'" font-size="17.2141">D</tspan></text>
<text transform="matrix(1 0 0 1 412.2314 784.209)" fill="#2A77BC" font-family="'OCRAStd'" font-size="17.2141">)</text>
<text transform="matrix(1 0 0 1 253.0181 819.6182)"><tspan x="0" y="0" fill="#2A77BC" font-family="'OCRAStd'" font-size="17.2141">V + G</tspan><tspan x="57.838" y="0" fill="#2A77BC" font-family="'OCRAStd'" font-size="17.2141">N</tspan></text>
<text transform="matrix(1 0 0 1 322.3223 819.6182)" fill="#2A77BC" font-family="'OCRAStd'" font-size="17.2141">D</text>
<text transform="matrix(1 0 0 1 255.8931 888.4746)" fill="#2A77BC" font-family="'OCRAStd'" font-size="17.2141">C</text>
<text transform="matrix(1 0 0 1 267.4438 888.4746)" fill="#2A77BC" font-family="'OCRAStd'" font-size="17.2141">K</text>
<text transform="matrix(1 0 0 1 354.2544 888.4746)" fill="#2A77BC" font-family="'OCRAStd'" font-size="17.2141">C</text>
<text transform="matrix(1 0 0 1 365.8052 888.4746)" fill="#2A77BC" font-family="'OCRAStd'" font-size="17.2141">O</text>
<text transform="matrix(1 0 0 1 322.2876 888.4746)" fill="#2A77BC" font-family="'OCRAStd'" font-size="17.2141">M</text>
<text transform="matrix(1 0 0 1 333.8384 888.4746)" fill="#2A77BC" font-family="'OCRAStd'" font-size="17.2141">I</text>
<text transform="matrix(1 0 0 1 290.3213 888.4746)" fill="#2A77BC" font-family="'OCRAStd'" font-size="17.2141">M</text>
<text transform="matrix(1 0 0 1 301.8721 888.4746)" fill="#2A77BC" font-family="'OCRAStd'" font-size="17.2141">O</text>
<g>
	<defs>
		<rect id="SVGID_5_" width="1210" height="1178"/>
	</defs>
	<clipPath id="SVGID_6_">
		<use xlink:href="#SVGID_5_"  overflow="visible"/>
	</clipPath>
	
		<rect x="933.069" y="731.117" clip-path="url(#SVGID_6_)" fill="none" stroke="#2C77BC" stroke-width="7.147" stroke-miterlimit="10" width="31.299" height="73.649"/>
	
		<rect x="964.369" y="737.874" clip-path="url(#SVGID_6_)" fill-rule="evenodd" clip-rule="evenodd" fill="#2C77BC" width="13.134" height="13.134"/>
</g>
<text transform="matrix(1 0 0 1 948.7314 834.7451)" fill="#2C77BC" font-family="'Nunito-ExtraBold'" font-size="34.3072">0</text>
<text transform="matrix(1 0 0 1 948.7314 715.8018)" fill="#2C77BC" font-family="'Nunito-ExtraBold'" font-size="34.3072">1</text>
<g>
	<defs>
		<rect id="SVGID_7_" width="1210" height="1178"/>
	</defs>
	<clipPath id="SVGID_8_">
		<use xlink:href="#SVGID_7_"  overflow="visible"/>
	</clipPath>
	<path clip-path="url(#SVGID_8_)" fill="none" stroke="#2A77BC" stroke-width="3.04" stroke-miterlimit="10" d="M277.77,411.723
		h129.927c20.062,0,36.477,16.415,36.477,36.477v310.674c0,20.063-16.415,36.477-36.477,36.477H277.77"/>
	<rect x="305.231" y="478.12" clip-path="url(#SVGID_8_)" fill="#2A77BC" width="137.713" height="31.969"/>
</g>
<text transform="matrix(1 0 0 1 356.7134 504.8516)" fill="#FFFFFF" font-family="'OCRAStd'" font-size="26.2423">A</text>
<text transform="matrix(1 0 0 1 374.3218 504.8516)" fill="#FFFFFF" font-family="'OCRAStd'" font-size="26.2423">O</text>
<line fill="none" stroke="#2A77BC" stroke-width="2.459" stroke-miterlimit="10" x1="304.001" y1="634.276" x2="444.173" y2="634.276"/>
<line fill="none" stroke="#2A77BC" stroke-width="2.459" stroke-miterlimit="10" x1="304.001" y1="726.494" x2="444.173" y2="726.494"/>
<path fill="none" stroke="#2C77BC" stroke-width="7.147" stroke-miterlimit="10" d="M522.766,458.689
	c0-10.351-5.366-19.5-13.445-24.834h-32.617c-8.079,5.334-13.444,14.483-13.444,24.834c0,9.313,4.345,17.653,11.098,23.119h37.31
	C518.421,476.343,522.766,468.002,522.766,458.689z"/>
<rect x="577.232" y="303.674" fill-rule="evenodd" clip-rule="evenodd" fill="#FF0000" width="31.555" height="46.542"/>
<rect x="577.232" y="354.95" fill="#15394C" width="31.555" height="25.244"/>
<rect x="671.896" y="354.95" fill="#15394C" width="31.554" height="25.244"/>
<g opacity="0.29">
	<g>
		<defs>
			<rect id="SVGID_9_" x="547.1" y="537.966" width="86.775" height="86.775"/>
		</defs>
		<clipPath id="SVGID_10_">
			<use xlink:href="#SVGID_9_"  overflow="visible"/>
		</clipPath>
		<g clip-path="url(#SVGID_10_)">
			<defs>
				<rect id="SVGID_11_" x="547.1" y="537.966" width="86.775" height="86.775"/>
			</defs>
			<clipPath id="SVGID_12_">
				<use xlink:href="#SVGID_11_"  overflow="visible"/>
			</clipPath>
			
				<rect x="547.1" y="537.966" clip-path="url(#SVGID_12_)" fill-rule="evenodd" clip-rule="evenodd" fill="#FF0000" width="86.775" height="86.775"/>
		</g>
	</g>
</g>
<rect x="671.896" y="303.674" fill-rule="evenodd" clip-rule="evenodd" fill="#9E9E9E" width="31.554" height="46.542"/>
<rect x="562.244" y="552.955" fill-rule="evenodd" clip-rule="evenodd" fill="#FF0000" width="56.798" height="56.798"/>
<path fill="none" stroke="#15394C" stroke-width="15.777" stroke-miterlimit="10" d="M593.009,367.572
	c0,0-182.227-312.39,56.798-312.39s37.866,312.39,37.866,312.39"/>
<line fill="none" stroke="#FF9425" stroke-width="17.585" stroke-miterlimit="10" x1="1013" y1="211" x2="900.064" y2="350.519"/>
<path fill="#FF9425" d="M873.172,383.695c7.378-21.837,13.634-51.281,12.843-73.317l19.871,32.958l36.353,12.615
	C920.515,359.737,893.003,371.952,873.172,383.695"/>
<rect x="922" y="152" fill-rule="evenodd" clip-rule="evenodd" fill="#FFEAB6" width="166" height="74"/>
<rect x="922" y="152" fill="none" stroke="#FF9425" stroke-width="4" stroke-miterlimit="10" width="166" height="74"/>
<rect fill="none" width="1210" height="1178"/>
<g>
	<path fill="#00426B" d="M955.88,178.057h12.471c2.854,0,5.071,0.726,6.656,2.176c1.585,1.451,2.378,3.469,2.378,6.053
		c0,2.56-0.799,4.571-2.396,6.034c-1.598,1.463-3.811,2.194-6.639,2.194h-5.741v9.326h-6.729V178.057z M967.437,189.468
		c1.243,0,2.164-0.256,2.762-0.768c0.597-0.512,0.896-1.304,0.896-2.377c0-1.072-0.299-1.871-0.896-2.396
		c-0.598-0.524-1.519-0.786-2.762-0.786h-4.827v6.327H967.437z"/>
	<path fill="#00426B" d="M993.731,190.711l-3.548,0.366c-1.414,0.146-2.401,0.524-2.962,1.134c-0.562,0.609-0.841,1.475-0.841,2.596
		v9.034h-6.511v-17.994h6.182v3.108c0.414-1.097,1.097-1.932,2.048-2.505c0.95-0.573,2.108-0.896,3.475-0.969l1.792-0.146
		L993.731,190.711z"/>
</g>
<g>
	<path fill="#00426B" d="M1012.803,196.087h-11.118c0.195,1.17,0.622,2.012,1.28,2.523c0.658,0.512,1.597,0.768,2.815,0.768
		c0.878,0,1.768-0.146,2.67-0.439s1.707-0.695,2.414-1.207l1.646,4.279c-0.902,0.658-1.987,1.177-3.255,1.554
		c-1.268,0.378-2.536,0.567-3.804,0.567c-2.072,0-3.864-0.377-5.376-1.134c-1.512-0.755-2.676-1.84-3.492-3.255
		c-0.817-1.414-1.226-3.072-1.226-4.974c0-1.804,0.384-3.42,1.152-4.846c0.768-1.426,1.841-2.536,3.218-3.328
		c1.378-0.792,2.932-1.188,4.663-1.188c2.584,0,4.633,0.823,6.145,2.469c1.512,1.646,2.268,3.895,2.268,6.748V196.087z
		 M1001.611,193.015h5.742c-0.146-2.145-1.073-3.218-2.779-3.218C1002.843,189.797,1001.854,190.87,1001.611,193.015z"/>
	<path fill="#00426B" d="M1018.216,203.585c-1.463-0.366-2.694-0.902-3.694-1.609l1.646-4.425c0.976,0.634,2.085,1.14,3.328,1.518
		c1.244,0.378,2.438,0.567,3.585,0.567c0.706,0,1.255-0.103,1.646-0.311c0.39-0.207,0.585-0.494,0.585-0.859
		c0-0.317-0.141-0.561-0.421-0.731s-0.847-0.354-1.7-0.549l-2.89-0.658c-1.828-0.415-3.145-1.024-3.949-1.829
		s-1.207-1.951-1.207-3.438c0-1.146,0.341-2.164,1.023-3.054c0.683-0.89,1.64-1.579,2.871-2.066
		c1.231-0.487,2.627-0.731,4.188-0.731c1.292,0,2.579,0.189,3.858,0.567c1.28,0.378,2.444,0.909,3.493,1.591l-1.683,4.243
		c-0.976-0.609-1.956-1.079-2.944-1.408c-0.987-0.329-1.92-0.494-2.798-0.494c-0.707,0-1.256,0.109-1.646,0.329
		c-0.391,0.219-0.585,0.537-0.585,0.951c0,0.244,0.122,0.445,0.365,0.604c0.244,0.159,0.671,0.311,1.28,0.457l3.036,0.695
		c1.901,0.415,3.278,1.055,4.132,1.92c0.854,0.866,1.28,2.042,1.28,3.529c0,1.78-0.713,3.182-2.14,4.206
		c-1.426,1.024-3.383,1.536-5.869,1.536C1021.275,204.133,1019.679,203.951,1018.216,203.585z"/>
	<path fill="#00426B" d="M1036.136,203.585c-1.463-0.366-2.694-0.902-3.694-1.609l1.646-4.425c0.976,0.634,2.085,1.14,3.328,1.518
		c1.244,0.378,2.438,0.567,3.585,0.567c0.706,0,1.255-0.103,1.646-0.311c0.39-0.207,0.585-0.494,0.585-0.859
		c0-0.317-0.141-0.561-0.421-0.731s-0.847-0.354-1.7-0.549l-2.89-0.658c-1.828-0.415-3.145-1.024-3.949-1.829
		s-1.207-1.951-1.207-3.438c0-1.146,0.341-2.164,1.023-3.054c0.683-0.89,1.64-1.579,2.871-2.066
		c1.231-0.487,2.627-0.731,4.188-0.731c1.292,0,2.579,0.189,3.858,0.567c1.28,0.378,2.444,0.909,3.493,1.591l-1.683,4.243
		c-0.976-0.609-1.956-1.079-2.944-1.408c-0.987-0.329-1.92-0.494-2.798-0.494c-0.707,0-1.256,0.109-1.646,0.329
		c-0.391,0.219-0.585,0.537-0.585,0.951c0,0.244,0.122,0.445,0.365,0.604c0.244,0.159,0.671,0.311,1.28,0.457l3.036,0.695
		c1.901,0.415,3.278,1.055,4.132,1.92c0.854,0.866,1.28,2.042,1.28,3.529c0,1.78-0.713,3.182-2.14,4.206
		c-1.426,1.024-3.383,1.536-5.869,1.536C1039.195,204.133,1037.599,203.951,1036.136,203.585z"/>
</g>
<text transform="matrix(1 0 0 1 588.4395 401.8179)" fill="#2A77BC" font-family="'OCRAStd'" font-size="17.6865">R</text>
<text transform="matrix(1 0 0 1 682.4434 401.146)" fill="#2A77BC" font-family="'OCRAStd'" font-size="17.6865">1</text>
<rect fill="none" width="1210" height="1178"/>
<rect x="807.194" y="434.417" fill="none" stroke="#2C77BC" stroke-width="7.147" stroke-miterlimit="10" width="56.802" height="28.401"/>
<text transform="matrix(1 0 0 1 835.5391 423.6982)" fill="#2A77BC" font-family="'OCRAStd'" font-size="24.5916">1</text>
</svg>
