<?xml version="1.0" encoding="utf-8"?>
<!-- Generator: Adobe Illustrator 16.0.0, SVG Export Plug-In . SVG Version: 6.00 Build 0)  -->
<!DOCTYPE svg PUBLIC "-//W3C//DTD SVG 1.1//EN" "http://www.w3.org/Graphics/SVG/1.1/DTD/svg11.dtd">
<svg version="1.1" xmlns="http://www.w3.org/2000/svg" xmlns:xlink="http://www.w3.org/1999/xlink" x="0px" y="0px"
	 width="1209.969px" height="1177.965px" viewBox="0 0 1209.969 1177.965" enable-background="new 0 0 1209.969 1177.965"
	 xml:space="preserve">
<g id="Page_1_1_">
</g>
<g id="Page_2_1_">
</g>
<g id="Page_3_1_">
</g>
<g id="Page_4_1_">
</g>
<g id="Page_5_1_">
</g>
<g id="Page_6_1_">
</g>
<g id="Page_7_1_">
</g>
<g id="Page_8_1_">
</g>
<g id="Page_9_1_">
</g>
<g id="Page_10_1_">
</g>
<g id="Page_11_1_">
</g>
<g id="Page_12_1_">
</g>
<g id="Page_13_1_">
</g>
<g id="Page_14_1_">
</g>
<g id="Page_15_1_">
</g>
<g id="Page_16_1_">
</g>
<g id="Page_17_1_">
</g>
<g id="Page_18_1_">
</g>
<g id="Page_19_1_">
</g>
<g id="Page_20_1_">
</g>
<g id="Page_21_1_">
</g>
<g id="Page_22_1_">
</g>
<g id="Page_23_1_">
</g>
<g id="Page_24_1_">
</g>
<g id="Page_25_1_">
</g>
<g id="Page_26_1_">
</g>
<g id="Page_27_1_">
</g>
<g id="Page_28_1_">
</g>
<g id="Page_29_1_">
</g>
<g id="Page_30_1_">
</g>
<g id="Page_31_1_">
</g>
<g id="Page_32_1_">
</g>
<g id="Page_33_1_">
	<g id="Page_33">
		<g enable-background="new    ">
			<g>
				<defs>
					<rect id="SVGID_73_" y="-0.035" width="1210" height="1178"/>
				</defs>
				<clipPath id="SVGID_2_">
					<use xlink:href="#SVGID_73_"  overflow="visible"/>
				</clipPath>
				
					<rect y="0.065" clip-path="url(#SVGID_2_)" fill-rule="evenodd" clip-rule="evenodd" fill="#FFFFFF" width="1210" height="1177.999"/>
				<path clip-path="url(#SVGID_2_)" fill="none" stroke="#B7B6B6" stroke-width="5.0657" stroke-miterlimit="7.6613" d="
					M655.5,350.166c-14.7,8.299-31.7,13.1-49.7,13.1c-18.399,0-35.7-5-50.5-13.6"/>
				<path clip-path="url(#SVGID_2_)" fill="none" stroke="#FF9426" stroke-width="5.0657" stroke-miterlimit="7.6613" d="
					M655.3,174.965c30.5,17.301,51.2,50.101,51.2,87.701c0,26.399-10.2,50.5-26.9,68.399"/>
				<path clip-path="url(#SVGID_2_)" fill-rule="evenodd" clip-rule="evenodd" fill="#FF9426" d="M655.5,350.166
					c7.8-13.301,15.9-31.701,18.4-46.301l8.5,24.301l22.199,13.199C689.8,340.965,670.1,345.166,655.5,350.166z"/>
				<path clip-path="url(#SVGID_2_)" fill="#B7B6B6" d="M601.955,384.893v6.658c-1.527-0.724-2.967-1.258-4.317-1.604
					s-2.669-0.52-3.956-0.52c-2.766,0-4.92,0.769-6.465,2.304c-1.543,1.536-2.443,3.815-2.701,6.839
					c1.062-0.788,2.211-1.379,3.449-1.773c1.238-0.394,2.589-0.591,4.053-0.591c3.682,0,6.653,1.077,8.912,3.232
					c2.26,2.155,3.39,4.978,3.39,8.466c0,3.859-1.263,6.951-3.787,9.275s-5.909,3.485-10.155,3.485c-4.68,0-8.302-1.58-10.866-4.739
					c-2.565-3.16-3.848-7.643-3.848-13.448c0-5.95,1.499-10.626,4.499-14.026c2.999-3.4,7.111-5.102,12.338-5.102
					c1.656,0,3.264,0.129,4.824,0.386C598.884,383.992,600.428,384.379,601.955,384.893z M590.474,402.188
					c-1.624,0-2.843,0.527-3.654,1.58c-0.812,1.054-1.218,2.634-1.218,4.74c0,2.107,0.406,3.688,1.218,4.74s2.03,1.58,3.654,1.58
					c1.64,0,2.866-0.527,3.679-1.58c0.812-1.053,1.218-2.633,1.218-4.74c0-2.106-0.406-3.687-1.218-4.74
					C593.34,402.715,592.113,402.188,590.474,402.188z M638.942,401.995c0,5.966-1.287,10.569-3.859,13.81
					c-2.573,3.24-6.224,4.86-10.951,4.86c-4.744,0-8.402-1.62-10.976-4.86c-2.572-3.24-3.859-7.844-3.859-13.81
					c0-5.981,1.287-10.593,3.859-13.833c2.573-3.24,6.231-4.861,10.976-4.861c4.728,0,8.378,1.621,10.951,4.861
					C637.655,391.402,638.942,396.014,638.942,401.995z M629.655,401.923c0-4.503-0.422-7.675-1.267-9.517
					c-0.844-1.84-2.264-2.762-4.257-2.762c-1.994,0-3.417,0.922-4.27,2.762c-0.853,1.842-1.278,5.014-1.278,9.517
					c0,4.551,0.426,7.759,1.278,9.624s2.275,2.799,4.27,2.799c1.978,0,3.393-0.934,4.245-2.799S629.655,406.474,629.655,401.923z
					 M653.716,382.963c1.061,0,2.082,0.205,3.063,0.615c0.98,0.41,1.856,0.994,2.629,1.75c0.756,0.771,1.33,1.64,1.725,2.604
					c0.394,0.965,0.591,1.994,0.591,3.087c0,1.078-0.197,2.104-0.591,3.076c-0.395,0.973-0.953,1.82-1.677,2.545
					c-0.771,0.771-1.656,1.362-2.653,1.772s-2.042,0.615-3.136,0.615c-2.268,0-4.169-0.769-5.704-2.304
					c-1.536-1.535-2.304-3.438-2.304-5.705s0.775-4.176,2.327-5.729C649.538,383.74,651.448,382.963,653.716,382.963z
					 M653.716,386.871c-1.158,0-2.14,0.402-2.943,1.206s-1.206,1.785-1.206,2.942c0,1.158,0.398,2.131,1.194,2.919
					s1.78,1.183,2.955,1.183c1.157,0,2.138-0.398,2.942-1.194c0.804-0.796,1.206-1.765,1.206-2.907c0-1.157-0.406-2.139-1.218-2.942
					C655.834,387.273,654.857,386.871,653.716,386.871z"/>
				
					<line clip-path="url(#SVGID_2_)" fill="none" stroke="#B7B6B6" stroke-width="5.0657" stroke-miterlimit="10" x1="605.2" y1="263.166" x2="608.6" y2="257.266"/>
				
					<line clip-path="url(#SVGID_2_)" fill="none" stroke="#B7B6B6" stroke-width="5.0657" stroke-miterlimit="10" x1="612" y1="251.365" x2="615.3" y2="245.465"/>
				
					<line clip-path="url(#SVGID_2_)" fill="none" stroke="#B7B6B6" stroke-width="5.0657" stroke-miterlimit="10" x1="618.7" y1="239.565" x2="622.1" y2="233.666"/>
				
					<line clip-path="url(#SVGID_2_)" fill="none" stroke="#B7B6B6" stroke-width="5.0657" stroke-miterlimit="10" x1="625.5" y1="227.766" x2="628.9" y2="221.865"/>
				
					<line clip-path="url(#SVGID_2_)" fill="none" stroke="#B7B6B6" stroke-width="5.0657" stroke-miterlimit="10" x1="632.2" y1="215.965" x2="635.6" y2="210.065"/>
				
					<line clip-path="url(#SVGID_2_)" fill="none" stroke="#B7B6B6" stroke-width="5.0657" stroke-miterlimit="10" x1="639" y1="204.166" x2="642.4" y2="198.266"/>
				
					<line clip-path="url(#SVGID_2_)" fill="none" stroke="#B7B6B6" stroke-width="5.0657" stroke-miterlimit="10" x1="645.7" y1="192.266" x2="649.1" y2="186.365"/>
				
					<line clip-path="url(#SVGID_2_)" fill="none" stroke="#B7B6B6" stroke-width="5.0657" stroke-miterlimit="10" x1="652.5" y1="180.565" x2="655.9" y2="174.565"/>
				
					<line clip-path="url(#SVGID_2_)" fill="none" stroke="#B7B6B6" stroke-width="5.0657" stroke-miterlimit="10" x1="659.2" y1="168.666" x2="662.6" y2="162.766"/>
				
					<line clip-path="url(#SVGID_2_)" fill="none" stroke="#B7B6B6" stroke-width="5.0657" stroke-miterlimit="10" x1="666" y1="156.865" x2="669.3" y2="150.965"/>
				
					<line clip-path="url(#SVGID_2_)" fill="none" stroke="#B7B6B6" stroke-width="5.0657" stroke-miterlimit="10" x1="672.7" y1="145.065" x2="676.1" y2="139.166"/>
				
					<line clip-path="url(#SVGID_2_)" fill="none" stroke="#B7B6B6" stroke-width="5.0657" stroke-miterlimit="10" x1="679.5" y1="133.266" x2="682.9" y2="127.365"/>
				
					<line clip-path="url(#SVGID_2_)" fill="none" stroke="#B7B6B6" stroke-width="5.0657" stroke-miterlimit="10" x1="686.2" y1="121.465" x2="689.6" y2="115.565"/>
				
					<line clip-path="url(#SVGID_2_)" fill="none" stroke="#B7B6B6" stroke-width="5.0657" stroke-miterlimit="10" x1="693" y1="109.666" x2="696.4" y2="103.766"/>
				
					<line clip-path="url(#SVGID_2_)" fill="none" stroke="#B7B6B6" stroke-width="5.0657" stroke-miterlimit="10" x1="699.7" y1="97.766" x2="703.1" y2="91.865"/>
				<polygon clip-path="url(#SVGID_2_)" fill-rule="evenodd" clip-rule="evenodd" fill="#B7B6B6" points="723.3,56.666 
					716.1,110.965 704.1,90.266 680.1,90.365 				"/>
				<polygon clip-path="url(#SVGID_2_)" fill="none" stroke="#2C77BC" stroke-width="10.2446" stroke-miterlimit="7.6613" points="
					605.2,263.166 318.6,759.766 891.9,759.766 				"/>
				<path clip-path="url(#SVGID_2_)" fill="#FF9426" d="M730.389,288.749h8.201v-23.276l-8.418,1.736v-6.32l8.37-1.736h8.828v29.597
					h8.201v6.417h-25.183V288.749z M773.264,288.339h15.848v6.827h-26.172v-6.827l13.146-11.603
					c1.174-1.061,2.042-2.098,2.604-3.111c0.563-1.013,0.845-2.066,0.845-3.16c0-1.688-0.566-3.047-1.7-4.076
					s-2.642-1.543-4.523-1.543c-1.447,0-3.031,0.309-4.752,0.928s-3.562,1.541-5.523,2.762v-7.911
					c2.091-0.691,4.157-1.218,6.199-1.58s4.044-0.542,6.006-0.542c4.31,0,7.659,0.948,10.047,2.846s3.582,4.543,3.582,7.936
					c0,1.963-0.507,3.791-1.52,5.488c-1.014,1.696-3.145,3.967-6.393,6.813L773.264,288.339z M825.374,277.195
					c0,5.966-1.286,10.568-3.859,13.809c-2.573,3.241-6.223,4.861-10.951,4.861c-4.743,0-8.402-1.62-10.975-4.861
					c-2.573-3.24-3.859-7.843-3.859-13.809c0-5.982,1.286-10.594,3.859-13.834c2.572-3.24,6.231-4.859,10.975-4.859
					c4.729,0,8.378,1.619,10.951,4.859S825.374,271.213,825.374,277.195z M816.088,277.123c0-4.502-0.423-7.674-1.267-9.516
					c-0.845-1.842-2.264-2.762-4.258-2.762s-3.417,0.92-4.27,2.762s-1.278,5.014-1.278,9.516c0,4.551,0.426,7.759,1.278,9.624
					c0.853,1.866,2.275,2.798,4.27,2.798c1.979,0,3.394-0.932,4.246-2.798C815.661,284.882,816.088,281.674,816.088,277.123z
					 M840.147,258.164c1.062,0,2.083,0.205,3.063,0.615s1.857,0.992,2.629,1.748c0.756,0.771,1.331,1.641,1.725,2.605
					c0.395,0.965,0.592,1.994,0.592,3.088c0,1.076-0.197,2.102-0.592,3.074c-0.394,0.974-0.952,1.822-1.676,2.545
					c-0.772,0.772-1.656,1.363-2.653,1.773s-2.043,0.615-3.136,0.615c-2.268,0-4.169-0.768-5.705-2.304
					c-1.535-1.536-2.304-3.438-2.304-5.704c0-2.268,0.776-4.178,2.328-5.729S837.88,258.164,840.147,258.164z M840.147,262.071
					c-1.157,0-2.139,0.401-2.942,1.206c-0.805,0.805-1.206,1.785-1.206,2.943c0,1.157,0.397,2.131,1.193,2.918
					c0.797,0.788,1.781,1.182,2.955,1.182c1.158,0,2.139-0.398,2.943-1.193c0.804-0.797,1.206-1.766,1.206-2.906
					c0-1.158-0.406-2.139-1.219-2.943C842.267,262.473,841.289,262.071,840.147,262.071z"/>
			</g>
		</g>
	</g>
</g>
<g id="Page_34_1_">
</g>
<g id="Page_35_1_">
</g>
<g id="Page_36_1_">
</g>
<g id="Page_37_1_">
</g>
<g id="Page_38_1_">
</g>
</svg>
