<?xml version="1.0" encoding="utf-8"?>
<!-- Generator: Adobe Illustrator 16.0.0, SVG Export Plug-In . SVG Version: 6.00 Build 0)  -->
<!DOCTYPE svg PUBLIC "-//W3C//DTD SVG 1.1//EN" "http://www.w3.org/Graphics/SVG/1.1/DTD/svg11.dtd">
<svg version="1.1" xmlns="http://www.w3.org/2000/svg" xmlns:xlink="http://www.w3.org/1999/xlink" x="0px" y="0px"
	 width="1209.969px" height="1177.966px" viewBox="0 0 1209.969 1177.966" enable-background="new 0 0 1209.969 1177.966"
	 xml:space="preserve">
<g id="Page_1_1_">
</g>
<g id="Page_2_1_">
</g>
<g id="Page_3_1_">
</g>
<g id="Page_4_1_">
</g>
<g id="Page_5_1_">
</g>
<g id="Page_6_1_">
</g>
<g id="Page_7_1_">
</g>
<g id="Page_8_1_">
</g>
<g id="Page_9_1_">
</g>
<g id="Page_10_1_">
</g>
<g id="Page_11_1_">
</g>
<g id="Page_12_1_">
</g>
<g id="Page_13_1_">
</g>
<g id="Page_14_1_">
</g>
<g id="Page_15_1_">
</g>
<g id="Page_16_1_">
</g>
<g id="Page_17_1_">
</g>
<g id="Page_18_1_">
</g>
<g id="Page_19_1_">
</g>
<g id="Page_20_1_">
</g>
<g id="Page_21_1_">
</g>
<g id="Page_22_1_">
</g>
<g id="Page_23_1_">
</g>
<g id="Page_24_1_">
	<g id="Page_24">
		<g enable-background="new    ">
			<g>
				<defs>
					<rect id="SVGID_51_" y="-0.034" width="1210" height="1178"/>
				</defs>
				<clipPath id="SVGID_2_">
					<use xlink:href="#SVGID_51_"  overflow="visible"/>
				</clipPath>
				
					<rect y="0.065" clip-path="url(#SVGID_2_)" fill-rule="evenodd" clip-rule="evenodd" fill="#FFFFFF" width="1210" height="1178"/>
				
					<polyline clip-path="url(#SVGID_2_)" fill="none" stroke="#1A78BB" stroke-width="3.679" stroke-linejoin="round" stroke-miterlimit="10" points="
					817,489.365 786.4,514.765 301.4,460.966 310.8,825.165 777.7,920.866 903.1,735.765 921.4,402.466 868.2,446.665 				"/>
				
					<line clip-path="url(#SVGID_2_)" fill="none" stroke="#1A78BB" stroke-width="3.679" stroke-linejoin="round" stroke-miterlimit="10" x1="901.5" y1="400.765" x2="921.4" y2="402.466"/>
				
					<line clip-path="url(#SVGID_2_)" fill="none" stroke="#1A78BB" stroke-width="3.679" stroke-linejoin="round" stroke-miterlimit="10" x1="866.2" y1="397.765" x2="878.3" y2="398.865"/>
				
					<polyline clip-path="url(#SVGID_2_)" fill="none" stroke="#1A78BB" stroke-width="3.679" stroke-linejoin="round" stroke-miterlimit="10" points="
					301.4,460.966 509.8,368.165 826.8,394.565 				"/>
				
					<line clip-path="url(#SVGID_2_)" fill="none" stroke="#1A78BB" stroke-width="3.679" stroke-linejoin="round" stroke-miterlimit="10" x1="786.4" y1="514.765" x2="777.6" y2="920.866"/>
				
					<polyline clip-path="url(#SVGID_2_)" fill="none" stroke="#1A78BB" stroke-width="3.679" stroke-linejoin="round" stroke-miterlimit="10" points="
					805.7,879.466 812.7,879.765 826.1,861.366 826.8,848.265 				"/>
				
					<polyline clip-path="url(#SVGID_2_)" fill="none" stroke="#1A78BB" stroke-width="3.679" stroke-linejoin="round" stroke-miterlimit="10" points="
					850.3,813.565 853.5,817.165 868.9,794.966 868.5,788.466 				"/>
				
					<path clip-path="url(#SVGID_2_)" fill="none" stroke="#1A78BB" stroke-width="3.679" stroke-linejoin="round" stroke-miterlimit="10" d="
					M849.9,521.065l-1.601,28.199l-8.5,63.301c0,0-31.2,145.699,7,108.801c0,0,37.8-50,22.2-146.501l3.7-9.601l-3.8-30.199
					l1.6-29.801L849.9,521.065z"/>
				
					<polyline clip-path="url(#SVGID_2_)" fill="none" stroke="#1A78BB" stroke-width="3.679" stroke-linejoin="round" stroke-miterlimit="10" points="
					812,675.466 811.3,688.366 816.3,686.366 817.3,668.966 812.2,673.165 				"/>
				
					<polygon clip-path="url(#SVGID_2_)" fill="none" stroke="#1A78BB" stroke-width="3.679" stroke-linejoin="round" stroke-miterlimit="10" points="
					879.7,597.265 879.1,608.565 883.5,608.765 884.3,593.565 				"/>
				
					<polygon clip-path="url(#SVGID_2_)" fill="none" stroke="#1A78BB" stroke-width="3.679" stroke-linejoin="round" stroke-miterlimit="10" points="
					328.4,133.765 367.3,461.665 505.1,399.966 478.9,109.265 				"/>
				
					<polygon clip-path="url(#SVGID_2_)" fill="none" stroke="#1A78BB" stroke-width="3.679" stroke-linejoin="round" stroke-miterlimit="10" points="
					871.3,135.365 946,104.865 917.2,381.966 835.2,490.365 				"/>
				
					<polyline clip-path="url(#SVGID_2_)" fill="none" stroke="#1A78BB" stroke-width="3.679" stroke-linejoin="round" stroke-miterlimit="10" points="
					328.4,133.765 313.8,135.865 351.2,460.765 367.3,461.665 				"/>
				
					<polyline clip-path="url(#SVGID_2_)" fill="none" stroke="#1A78BB" stroke-width="3.679" stroke-linejoin="round" stroke-miterlimit="10" points="
					871.4,135.365 854,133.365 817,489.365 835.2,490.365 				"/>
				
					<polyline clip-path="url(#SVGID_2_)" fill="none" stroke="#1A78BB" stroke-width="3.679" stroke-linejoin="round" stroke-miterlimit="10" points="
					854,133.365 928.1,105.765 946,104.865 				"/>
				
					<polygon clip-path="url(#SVGID_2_)" fill="none" stroke="#1A78BB" stroke-width="3.679" stroke-linejoin="round" stroke-miterlimit="10" points="
					917.7,275.765 931.4,276.466 930.6,293.665 916.4,292.865 				"/>
				
					<polyline clip-path="url(#SVGID_2_)" fill="none" stroke="#1A78BB" stroke-width="3.679" stroke-linejoin="round" stroke-miterlimit="10" points="
					917.7,275.765 923,273.365 937.5,274.165 931.4,276.565 				"/>
				
					<polyline clip-path="url(#SVGID_2_)" fill="none" stroke="#1A78BB" stroke-width="3.679" stroke-linejoin="round" stroke-miterlimit="10" points="
					938.9,274.165 938,290.365 930.5,293.665 				"/>
				
					<polygon clip-path="url(#SVGID_2_)" fill="none" stroke="#1A78BB" stroke-width="3.679" stroke-linejoin="round" stroke-miterlimit="10" points="
					857.1,320.966 870.9,321.665 870,338.865 855.8,338.065 				"/>
				
					<polyline clip-path="url(#SVGID_2_)" fill="none" stroke="#1A78BB" stroke-width="3.679" stroke-linejoin="round" stroke-miterlimit="10" points="
					857.1,320.966 862.4,318.565 876.9,319.265 870.9,321.665 				"/>
				
					<polyline clip-path="url(#SVGID_2_)" fill="none" stroke="#1A78BB" stroke-width="3.679" stroke-linejoin="round" stroke-miterlimit="10" points="
					878.3,319.365 877.4,335.565 870,338.865 				"/>
				
					<line clip-path="url(#SVGID_2_)" fill="none" stroke="#1A78BB" stroke-width="3.679" stroke-linejoin="round" stroke-miterlimit="10" x1="364.9" y1="315.765" x2="374.2" y2="316.365"/>
				
					<polyline clip-path="url(#SVGID_2_)" fill="none" stroke="#1A78BB" stroke-width="3.679" stroke-linejoin="round" stroke-miterlimit="10" points="
					375.5,304.665 375.1,320.765 832.8,336.865 				"/>
				
					<polygon clip-path="url(#SVGID_2_)" fill="none" stroke="#1A78BB" stroke-width="3.679" stroke-linejoin="round" stroke-miterlimit="10" points="
					449.4,266.165 448.6,280.865 457.8,281.365 456.3,266.565 				"/>
				
					<line clip-path="url(#SVGID_2_)" fill="none" stroke="#1A78BB" stroke-width="3.679" stroke-linejoin="round" stroke-miterlimit="10" x1="449.4" y1="265.065" x2="456" y2="262.165"/>
				
					<line clip-path="url(#SVGID_2_)" fill="none" stroke="#1A78BB" stroke-width="3.679" stroke-linejoin="round" stroke-miterlimit="10" x1="366.2" y1="315.865" x2="364.7" y2="296.365"/>
				
					<polyline clip-path="url(#SVGID_2_)" fill="none" stroke="#1A78BB" stroke-width="3.679" stroke-linejoin="round" stroke-miterlimit="10" points="
					472.1,267.466 473.8,285.065 508,286.765 				"/>
				
					<polyline clip-path="url(#SVGID_2_)" fill="none" stroke="#1A78BB" stroke-width="3.679" stroke-linejoin="round" stroke-miterlimit="10" points="
					904.6,266.665 495.8,260.065 481,264.466 472.1,267.466 553.4,269.165 483.3,296.265 374.5,293.365 364.7,296.365 
					385.5,297.565 375.5,304.665 834.7,318.665 				"/>
				
					<polyline clip-path="url(#SVGID_2_)" fill="none" stroke="#1A78BB" stroke-width="3.679" stroke-linejoin="round" stroke-miterlimit="10" points="
					834.9,304.865 749.1,303.466 799.5,276.466 902.5,278.665 901.8,294.665 801.9,292.665 783.1,304.065 				"/>
				
					<line clip-path="url(#SVGID_2_)" fill="none" stroke="#1A78BB" stroke-width="3.679" stroke-linejoin="round" stroke-miterlimit="10" x1="509.8" y1="368.165" x2="511.3" y2="484.265"/>
				
					<polygon clip-path="url(#SVGID_2_)" fill="none" stroke="#1A78BB" stroke-width="3.679" stroke-linejoin="round" stroke-miterlimit="10" points="
					466.5,304.466 467.3,300.665 468,296.865 468.6,293.065 469.1,289.165 469.5,285.365 469.8,281.565 469.9,277.765 470,274.065 
					470,270.765 469.8,267.565 469.6,263.865 469.3,260.365 468.9,256.765 468.2,252.466 467.5,249.065 466.7,245.765 
					465.9,242.466 464.9,239.365 463.7,235.966 462.7,233.265 461.5,230.365 460.2,227.565 458.8,224.966 457.4,222.365 
					455.8,219.865 454.2,217.565 452.6,215.365 450.9,213.365 449.5,211.865 452.1,210.065 430.5,173.365 427.4,152.165 
					390.2,171.765 392.9,195.265 383.7,255.665 386.9,256.165 385.6,262.765 384.8,267.265 384.1,271.865 383.4,277.765 
					382.9,282.466 382.5,287.165 382.3,291.966 382.1,298.565 382.1,302.466 382.1,306.065 382.3,310.665 382.6,315.265 
					382.9,319.765 383.4,324.165 384,328.365 384.5,331.565 385.3,335.665 386.1,339.565 387.1,343.365 388.4,347.765 
					389.6,351.165 390.8,354.265 392.2,357.265 393.6,360.065 395.1,362.665 396.8,364.966 398.4,367.065 400.2,368.966 
					402,370.565 403.8,371.966 405.8,373.165 407.7,374.065 409.7,374.765 411.8,375.165 413.9,375.365 416,375.265 418.2,374.966 
					420.3,374.466 422.5,373.765 424.7,372.865 426.9,371.665 429.1,370.265 431.3,368.665 433.5,366.966 435.7,365.065 
					437.8,362.865 439.9,360.565 441.9,358.165 444,355.565 446,352.765 447.9,349.966 449.8,346.966 451.6,343.865 453.4,340.565 
					455.1,337.265 456.7,333.865 458.2,330.365 459.7,326.865 461,323.165 462.3,319.565 463.5,315.865 464.6,312.065 
					465.6,308.265 				"/>
				
					<polyline clip-path="url(#SVGID_2_)" fill="none" stroke="#1A78BB" stroke-width="3.679" stroke-linejoin="round" stroke-miterlimit="10" points="
					412.6,374.165 416.9,370.565 419.1,369.065 421.3,367.265 423.4,365.265 425.6,363.165 427.7,360.865 429.8,358.365 
					431.8,355.765 433.8,352.966 435.7,350.065 437.6,347.065 439.4,343.966 441.2,340.665 442.9,337.365 444.5,333.966 
					446,330.466 447.5,326.865 448.9,323.265 450.1,319.565 451.3,315.865 452.4,312.065 453.4,308.265 454.3,304.466 				"/>
				
					<polyline clip-path="url(#SVGID_2_)" fill="none" stroke="#1A78BB" stroke-width="3.679" stroke-linejoin="round" stroke-miterlimit="10" points="
					454.3,304.565 455.1,300.665 455.8,296.865 456.4,293.065 456.9,289.265 457.3,285.365 457.6,281.565 457.8,277.865 
					457.8,274.065 457.8,270.765 457.7,267.565 457.4,263.966 457.1,260.365 456.7,256.765 456,252.565 455.3,249.165 
					454.6,245.765 453.7,242.466 452.7,239.365 451.6,235.966 450.6,233.265 449.3,230.365 448,227.565 446.7,224.865 
					445.2,222.265 443.7,219.865 442.1,217.466 440.4,215.265 438.7,213.165 437.3,211.665 439.9,209.966 418.4,172.765 
					416.2,158.165 				"/>
				
					<polygon clip-path="url(#SVGID_2_)" fill="none" stroke="#1A78BB" stroke-width="3.679" stroke-linejoin="round" stroke-miterlimit="10" points="
					896.2,366.466 897.4,361.865 898.6,357.265 899.7,352.565 900.9,347.765 902,342.966 903.1,338.065 904.2,333.265 
					905.2,328.365 906.1,323.966 906.9,319.765 907.9,314.865 908.8,310.065 909.7,305.265 910.7,299.365 911.4,294.665 
					912.2,290.065 912.8,285.565 913.4,281.165 914.1,276.265 914.5,272.466 915,268.365 915.4,264.365 915.8,260.466 916,256.665 
					916.3,252.966 916.5,249.466 916.6,246.065 916.7,242.865 916.7,240.565 917.8,239.966 920.6,191.365 924.5,169.665 
					908.8,172.765 904.8,195.865 889.5,250.865 890.2,253.265 888.5,259.265 887.4,263.565 886.2,267.966 884.8,273.765 
					883.6,278.466 882.6,283.265 881.5,288.265 880,295.365 879.2,299.665 878.5,303.565 877.5,308.865 876.6,314.165 
					875.7,319.466 874.9,324.865 874.1,330.165 873.4,334.265 872.7,339.565 872.1,344.865 871.4,350.065 870.7,356.365 
					870.2,361.466 869.7,366.365 869.3,371.165 869,375.765 868.7,380.265 868.5,384.665 868.3,388.765 868.2,392.765 
					868.1,396.565 868.1,400.065 868.2,403.365 868.3,406.466 868.5,409.265 868.7,411.865 869,414.165 869.4,416.165 
					869.8,417.865 870.3,419.365 870.8,420.565 871.4,421.466 872.1,422.065 872.7,422.365 873.5,422.466 874.3,422.165 
					875.1,421.665 876,420.765 876.9,419.665 877.9,418.365 878.9,416.665 879.9,414.865 881,412.665 882,410.265 883.1,407.665 
					884.3,404.865 885.4,401.765 886.6,398.466 887.8,395.065 889,391.466 890.2,387.665 891.4,383.665 892.6,379.565 
					893.8,375.265 895,370.966 				"/>
				
					<polyline clip-path="url(#SVGID_2_)" fill="none" stroke="#1A78BB" stroke-width="3.679" stroke-linejoin="round" stroke-miterlimit="10" points="
					871.7,420.665 872.8,417.365 873.9,413.865 875.1,410.065 876.3,406.165 877.5,402.065 878.7,397.765 879.9,393.265 
					881.1,388.665 882.3,383.966 883.6,379.065 884.8,374.165 				"/>
				
					<polyline clip-path="url(#SVGID_2_)" fill="none" stroke="#1A78BB" stroke-width="3.679" stroke-linejoin="round" stroke-miterlimit="10" points="
					884.7,374.165 885.9,369.165 887.1,364.065 888.3,358.966 889.4,353.765 890.6,348.565 891.6,343.265 892.7,337.966 
					893.8,332.765 894.6,328.165 895.5,323.565 896.5,318.365 897.4,313.265 898.2,308.165 899.2,301.966 900,297.065 
					900.7,292.265 901.4,287.466 902,282.865 902.7,277.865 903.1,273.966 903.6,269.665 904,265.565 904.4,261.565 904.6,257.665 
					904.9,253.966 905.1,250.365 905.2,246.966 905.3,243.665 905.3,241.365 906.4,240.565 909.3,191.365 912.8,171.765 				"/>
				
					<path clip-path="url(#SVGID_2_)" fill="none" stroke="#1A78BB" stroke-width="3.679" stroke-linejoin="round" stroke-miterlimit="10" d="
					M324.8,588.966l13.8,0.1c-9.199,27.301,5.301,58.699,34.101,74l-10.101,7.6C332.6,652.366,317.2,619.165,324.8,588.966z"/>
				
					<path clip-path="url(#SVGID_2_)" fill="none" stroke="#1A78BB" stroke-width="3.679" stroke-linejoin="round" stroke-miterlimit="10" d="
					M422.6,682.165l-7.8-11.1c31-3.801,52.4-28.5,50.3-58.1l13.101,5.1C478.1,649.765,455.4,675.866,422.6,682.165z"/>
				
					<path clip-path="url(#SVGID_2_)" fill="none" stroke="#1A78BB" stroke-width="3.679" stroke-linejoin="round" stroke-miterlimit="10" d="
					M454.1,564.665l-5.899,11c-21.8-23.5-57.8-30.3-84.4-15.9l-2.899-12.699C390.8,533.565,428.9,540.765,454.1,564.665z"/>
				
					<path clip-path="url(#SVGID_2_)" fill="none" stroke="#1A78BB" stroke-width="3.679" stroke-linejoin="round" stroke-miterlimit="10" d="
					M745.5,668.966l-12.9-5c1.101,29.6-21.199,54.299-52.399,58.199l7.5,11.1C720.7,726.966,744.3,700.765,745.5,668.966z"/>
				
					<path clip-path="url(#SVGID_2_)" fill="none" stroke="#1A78BB" stroke-width="3.679" stroke-linejoin="round" stroke-miterlimit="10" d="
					M628,721.665l10.4-7.6c-28.2-15.301-41.7-46.801-31.5-74.1l-13.801-0.1C584.4,670.065,598.7,703.466,628,721.665z"/>
				
					<path clip-path="url(#SVGID_2_)" fill="none" stroke="#1A78BB" stroke-width="3.679" stroke-linejoin="round" stroke-miterlimit="10" d="
					M630.6,597.966l2.5,12.6c27.101-14.301,62.9-7.5,83.9,16l6.3-11.1C698.9,591.565,661.1,584.466,630.6,597.966z"/>
				
					<path clip-path="url(#SVGID_2_)" fill="none" stroke="#1A78BB" stroke-width="3.679" stroke-linejoin="round" stroke-miterlimit="10" d="
					M676.1,285.466c0.101,3.6-14.8,6.699-33.3,6.899s-33.5-2.5-33.6-6.101c0-3.6,14.899-6.699,33.399-6.899
					C661.1,279.065,676.1,281.865,676.1,285.466z"/>
				<polygon clip-path="url(#SVGID_2_)" fill-rule="evenodd" clip-rule="evenodd" fill="#FFFFFF" points="482,322.865 
					405.4,320.365 405.8,306.966 482.7,309.466 				"/>
				<polygon clip-path="url(#SVGID_2_)" fill-rule="evenodd" clip-rule="evenodd" fill="#FFFFFF" points="447.7,296.865 
					473.8,297.565 471,305.865 445.3,305.265 				"/>
				<polygon clip-path="url(#SVGID_2_)" fill-rule="evenodd" clip-rule="evenodd" fill="#FFFFFF" points="527.1,323.365 
					482,322.865 480,309.665 512.3,310.365 				"/>
				<polygon clip-path="url(#SVGID_2_)" fill-rule="evenodd" clip-rule="evenodd" fill="#FFFFFF" points="507,283.265 
					480.3,282.065 480.8,269.365 507.8,269.565 				"/>
				<polygon clip-path="url(#SVGID_2_)" fill-rule="evenodd" clip-rule="evenodd" fill="#FFFFFF" points="524.4,266.966 
					482.4,265.966 495.5,261.765 522.5,262.065 				"/>
				<polygon clip-path="url(#SVGID_2_)" fill-rule="evenodd" clip-rule="evenodd" fill="#FFFFFF" points="408.4,320.466 
					376.5,319.365 376.8,306.365 409.1,306.966 				"/>
				<polygon clip-path="url(#SVGID_2_)" fill-rule="evenodd" clip-rule="evenodd" fill="#FFFFFF" points="839.9,297.665 
					844,259.665 855.2,260.265 851.4,296.466 				"/>
				<polygon clip-path="url(#SVGID_2_)" fill-rule="evenodd" clip-rule="evenodd" fill="#FFFFFF" points="857.6,300.665 
					861.6,262.665 884.5,263.865 875.8,298.665 				"/>
				<polygon clip-path="url(#SVGID_2_)" fill-rule="evenodd" clip-rule="evenodd" fill="#FFFFFF" points="500.3,383.865 
					367.6,438.466 366.2,424.665 498.8,366.765 				"/>
				<polygon clip-path="url(#SVGID_2_)" fill-rule="evenodd" clip-rule="evenodd" fill="#FFFFFF" points="362,444.365 
					352.5,442.865 350.9,429.065 360.1,428.565 				"/>
				
					<line clip-path="url(#SVGID_2_)" fill="none" stroke="#06EEF4" stroke-width="19.3006" stroke-miterlimit="7.6613" x1="658.1" y1="82.565" x2="638.1" y2="445.966"/>
				<polygon clip-path="url(#SVGID_2_)" fill-rule="evenodd" clip-rule="evenodd" fill="#FFFFFF" points="519,306.966 
					490.8,306.665 491.2,295.065 514.4,286.466 				"/>
				<path clip-path="url(#SVGID_2_)" fill-rule="evenodd" clip-rule="evenodd" fill="#06EEF4" d="M633.2,477.765
					c-6.101-24.6-17.7-55.6-31.5-75.6l37.899,18.801l41.2-9.9C662.9,427.466,644.7,455.165,633.2,477.765z"/>
			</g>
		</g>
	</g>
</g>
<g id="Page_25_1_">
</g>
<g id="Page_26_1_">
</g>
<g id="Page_27_1_">
</g>
<g id="Page_28_1_">
</g>
<g id="Page_29_1_">
</g>
<g id="Page_30_1_">
</g>
<g id="Page_31_1_">
</g>
<g id="Page_32_1_">
</g>
<g id="Page_33_1_">
</g>
<g id="Page_34_1_">
</g>
<g id="Page_35_1_">
</g>
<g id="Page_36_1_">
</g>
<g id="Page_37_1_">
</g>
<g id="Page_38_1_">
</g>
</svg>
