<?xml version="1.0" encoding="utf-8"?>
<!-- Generator: Adobe Illustrator 16.0.0, SVG Export Plug-In . SVG Version: 6.00 Build 0)  -->
<!DOCTYPE svg PUBLIC "-//W3C//DTD SVG 1.1//EN" "http://www.w3.org/Graphics/SVG/1.1/DTD/svg11.dtd">
<svg version="1.1" id="Layer_1" xmlns="http://www.w3.org/2000/svg" xmlns:xlink="http://www.w3.org/1999/xlink" x="0px" y="0px"
	 width="1210px" height="1178px" viewBox="0 0 1210 1178" enable-background="new 0 0 1210 1178" xml:space="preserve">
<g>
	<defs>
		<rect id="SVGID_1_" width="1210" height="1178"/>
	</defs>
	<clipPath id="SVGID_2_">
		<use xlink:href="#SVGID_1_"  overflow="visible"/>
	</clipPath>
	<g clip-path="url(#SVGID_2_)">
		<defs>
			<rect id="SVGID_3_" y="5.001" width="1210" height="1172.999"/>
		</defs>
		<clipPath id="SVGID_4_">
			<use xlink:href="#SVGID_3_"  overflow="visible"/>
		</clipPath>
	</g>
	<g clip-path="url(#SVGID_2_)">
		<defs>
			<rect id="SVGID_5_" width="1210" height="1178"/>
		</defs>
		<clipPath id="SVGID_6_">
			<use xlink:href="#SVGID_5_"  overflow="visible"/>
		</clipPath>
		<g clip-path="url(#SVGID_6_)">
			<g>
				<defs>
					<rect id="SVGID_7_" x="130.662" y="391.488" width="49.52" height="49.52"/>
				</defs>
				<clipPath id="SVGID_8_">
					<use xlink:href="#SVGID_7_"  overflow="visible"/>
				</clipPath>
				<path clip-path="url(#SVGID_8_)" fill-rule="evenodd" clip-rule="evenodd" fill="#B9F9F7" d="M180.182,416.248
					c0,13.674-11.085,24.76-24.76,24.76c-13.675,0-24.76-11.086-24.76-24.76c0-13.675,11.085-24.76,24.76-24.76
					C169.097,391.488,180.182,402.573,180.182,416.248"/>
			</g>
		</g>
	</g>
	<g clip-path="url(#SVGID_2_)">
		<text transform="matrix(1 0 0 1 147.6553 424.5161)" fill="#1A303A" font-family="'Nunito-ExtraBold'" font-size="27.0544">3</text>
	</g>
	<g clip-path="url(#SVGID_2_)">
		<defs>
			<rect id="SVGID_9_" width="1210" height="1178"/>
		</defs>
		<clipPath id="SVGID_10_">
			<use xlink:href="#SVGID_9_"  overflow="visible"/>
		</clipPath>
		<g clip-path="url(#SVGID_10_)">
			<g>
				<defs>
					<rect id="SVGID_11_" x="604.662" y="770.488" width="49.52" height="49.52"/>
				</defs>
				<clipPath id="SVGID_12_">
					<use xlink:href="#SVGID_11_"  overflow="visible"/>
				</clipPath>
				<path clip-path="url(#SVGID_12_)" fill-rule="evenodd" clip-rule="evenodd" fill="#B9F9F7" d="M654.182,795.248
					c0,13.674-11.085,24.76-24.76,24.76s-24.76-11.086-24.76-24.76c0-13.675,11.085-24.76,24.76-24.76
					S654.182,781.573,654.182,795.248"/>
			</g>
		</g>
	</g>
	<g clip-path="url(#SVGID_2_)">
		<text transform="matrix(1 0 0 1 614.6074 803.5156)"><tspan x="0" y="0" fill="#1A303A" font-family="'Nunito-ExtraBold'" font-size="27.0544">1</tspan><tspan x="13.229" y="0" fill="#1A303A" font-family="'Nunito-ExtraBold'" font-size="27.0544">a</tspan></text>
	</g>
	<g clip-path="url(#SVGID_2_)">
		<defs>
			<rect id="SVGID_13_" width="1210" height="1178"/>
		</defs>
		<clipPath id="SVGID_14_">
			<use xlink:href="#SVGID_13_"  overflow="visible"/>
		</clipPath>
		<g clip-path="url(#SVGID_14_)">
			<g>
				<defs>
					<rect id="SVGID_15_" x="899.662" y="748.488" width="49.52" height="49.52"/>
				</defs>
				<clipPath id="SVGID_16_">
					<use xlink:href="#SVGID_15_"  overflow="visible"/>
				</clipPath>
				<path clip-path="url(#SVGID_16_)" fill-rule="evenodd" clip-rule="evenodd" fill="#B9F9F7" d="M949.182,773.248
					c0,13.674-11.085,24.76-24.76,24.76s-24.76-11.086-24.76-24.76c0-13.675,11.085-24.76,24.76-24.76
					S949.182,759.573,949.182,773.248"/>
			</g>
		</g>
	</g>
	<g clip-path="url(#SVGID_2_)">
		<text transform="matrix(1 0 0 1 908.7012 781.5156)"><tspan x="0" y="0" fill="#1A303A" font-family="'Nunito-ExtraBold'" font-size="27.0544">1</tspan><tspan x="13.229" y="0" fill="#1A303A" font-family="'Nunito-ExtraBold'" font-size="27.0544">b</tspan></text>
	</g>
	<g clip-path="url(#SVGID_2_)">
		<defs>
			<rect id="SVGID_17_" width="1210" height="1178"/>
		</defs>
		<clipPath id="SVGID_18_">
			<use xlink:href="#SVGID_17_"  overflow="visible"/>
		</clipPath>
		<g clip-path="url(#SVGID_18_)">
			<g>
				<defs>
					<rect id="SVGID_19_" x="695.662" y="161.49" width="49.52" height="49.518"/>
				</defs>
				<clipPath id="SVGID_20_">
					<use xlink:href="#SVGID_19_"  overflow="visible"/>
				</clipPath>
				<path clip-path="url(#SVGID_20_)" fill-rule="evenodd" clip-rule="evenodd" fill="#B9F9F7" d="M745.182,186.248
					c0,13.674-11.085,24.76-24.76,24.76s-24.76-11.086-24.76-24.76c0-13.675,11.085-24.76,24.76-24.76
					S745.182,172.573,745.182,186.248"/>
			</g>
		</g>
	</g>
	<g clip-path="url(#SVGID_2_)">
		<text transform="matrix(1 0 0 1 712.6553 194.5161)" fill="#1A303A" font-family="'Nunito-ExtraBold'" font-size="27.0544">4</text>
	</g>
	<polyline clip-path="url(#SVGID_2_)" fill="none" stroke="#1A78BB" stroke-width="3.345" stroke-miterlimit="10" points="
		421.385,750.085 671.594,891.962 374.358,883.822 497.563,533.459 437.337,505.92 441.045,495.304 393.817,474.42 388.538,482.074 
		342.304,460.144 344.804,449.714 296.288,424.126 289.622,432.658 232.552,401.046 139.348,708.293 374.358,883.822 	"/>
	<g clip-path="url(#SVGID_2_)">
		<defs>
			<rect id="SVGID_21_" width="1210" height="1178"/>
		</defs>
		<clipPath id="SVGID_22_">
			<use xlink:href="#SVGID_21_"  overflow="visible"/>
		</clipPath>
		<path clip-path="url(#SVGID_22_)" fill="none" stroke="#1A78BB" stroke-width="3.345" stroke-miterlimit="10" d="M476.336,523.753
			c0.283-11.401,0.251-18.704-0.31-19.993c-9.513-21.864-72.72-66.541-72.72-66.541l299.396-64.727c0,0,42.758,45.964,48.752,64.869
			c2.506,7.912-2.886,70.176-2.886,70.176l-2.566,62.446"/>
		<path clip-path="url(#SVGID_22_)" fill="none" stroke="#1A78BB" stroke-width="3.345" stroke-miterlimit="10" d="M422.692,746.371
			c0,0,43.682,15.4,45.491,5.042c4.861-27.808,4.861-148.232,4.861-148.232"/>
		
			<line clip-path="url(#SVGID_22_)" fill="none" stroke="#1A78BB" stroke-width="3.345" stroke-miterlimit="10" x1="696.638" y1="581.455" x2="702.703" y2="372.492"/>
		
			<line clip-path="url(#SVGID_22_)" fill="none" stroke="#1A78BB" stroke-width="3.345" stroke-miterlimit="10" x1="469.399" y1="724.643" x2="592.298" y2="689.764"/>
		<path clip-path="url(#SVGID_22_)" fill="none" stroke="#1A78BB" stroke-width="3.345" stroke-miterlimit="10" d="M671.594,891.961
			c0,0-59.852-35.21-67.985-53.929c-14.993-34.505-10.759-153.489-10.759-153.489s-0.091-59.948,12.12-71.236
			c10.243-9.473,62.946-25.175,62.946-25.175l297.017-69.024c0,0-64.481,6.118-70.002,10.6c-3.896,3.162-2.592,6.27-2.592,6.27"/>
		
			<line clip-path="url(#SVGID_22_)" fill="none" stroke="#1A78BB" stroke-width="3.345" stroke-miterlimit="10" x1="403.307" y1="437.219" x2="403.307" y2="478.617"/>
		<polyline clip-path="url(#SVGID_22_)" fill="none" stroke="#1A78BB" stroke-width="3.345" stroke-miterlimit="10" points="
			667.902,587.145 671.594,891.961 948.268,790.204 964.933,519.107 		"/>
		<polyline clip-path="url(#SVGID_22_)" fill="none" stroke="#1A78BB" stroke-width="3.345" stroke-miterlimit="10" points="
			948.268,790.203 1058.364,437.219 805.022,347.464 748.569,507.537 		"/>
		<polyline clip-path="url(#SVGID_22_)" fill="none" stroke="#1A78BB" stroke-width="3.345" stroke-miterlimit="10" points="
			1058.364,437.219 976.218,117.302 923.433,110.643 916.491,97.9 876.219,94.591 867.278,103.56 824.543,98.17 819.114,87.376 
			775.101,82.381 770.176,91.311 719.542,84.924 805.023,347.464 		"/>
		<polyline clip-path="url(#SVGID_22_)" fill="none" stroke="#1A78BB" stroke-width="3.345" stroke-miterlimit="10" points="
			275.9,549.27 273.489,550.265 271.154,551.404 268.896,552.696 266.726,554.128 264.642,555.691 262.65,557.402 260.763,559.239 
			258.98,561.203 257.5,563.054 256.12,564.971 254.649,567.261 253.299,569.656 252.071,572.157 250.725,575.376 249.789,578.095 
			248.981,580.888 248.315,583.76 247.791,586.707 247.372,590.06 247.15,592.781 247.042,595.893 247.076,599.054 247.255,602.247 
			247.574,605.468 248.033,608.707 248.634,611.957 249.373,615.218 250.25,618.477 251.034,620.978 247.544,618.563 
			255.417,664.11 250.388,678.362 300.933,713.644 305.978,699.348 336.82,682.603 333.549,678.268 337.193,676.901 
			339.534,675.789 341.794,674.527 344.548,672.709 346.589,671.103 348.528,669.354 350.367,667.471 352.726,664.532 
			354.05,662.767 355.188,661.037 356.559,658.645 357.802,656.146 358.917,653.543 359.905,650.838 360.757,648.044 
			361.306,645.847 361.921,642.91 362.403,639.898 362.743,636.827 362.996,632.952 363.028,629.764 362.923,626.528 
			362.684,623.263 362.309,619.98 361.795,616.684 361.149,613.375 360.372,610.068 359.467,606.775 358.429,603.498 
			357.268,600.245 355.985,597.026 354.584,593.852 353.065,590.728 351.433,587.654 349.692,584.645 347.852,581.716 
			345.906,578.858 343.872,576.084 341.746,573.412 339.528,570.832 337.234,568.348 334.869,565.983 332.427,563.729 
			329.924,561.6 327.363,559.591 324.751,557.719 322.089,555.974 319.389,554.365 316.655,552.905 313.895,551.583 311.11,550.415 
			308.313,549.395 305.501,548.521 302.694,547.812 299.889,547.254 297.097,546.849 294.32,546.602 291.566,546.515 
			288.841,546.582 286.155,546.807 283.51,547.188 280.915,547.729 278.376,548.421 275.9,549.27 		"/>
		<polyline clip-path="url(#SVGID_22_)" fill="none" stroke="#1A78BB" stroke-width="3.345" stroke-miterlimit="10" points="
			365.658,662.857 377.851,671.319 381.691,659.617 369.533,651.192 365.658,662.857 		"/>
		<polyline clip-path="url(#SVGID_22_)" fill="none" stroke="#1A78BB" stroke-width="3.345" stroke-miterlimit="10" points="
			228.814,567.852 240.815,576.129 245.087,564.852 233.127,556.611 228.814,567.852 		"/>
		<polyline clip-path="url(#SVGID_22_)" fill="none" stroke="#1A78BB" stroke-width="3.345" stroke-miterlimit="10" points="
			833.242,193.1 831.913,194.795 830.682,196.562 829.546,198.396 828.505,200.287 827.565,202.24 826.726,204.245 825.992,206.303 
			825.374,208.407 824.92,210.311 824.559,212.228 824.246,214.45 824.052,216.707 823.975,219.002 824.026,221.871 
			824.217,224.227 824.526,226.609 824.953,229.006 825.506,231.423 826.259,234.125 826.954,236.286 827.86,238.733 
			828.881,241.18 830.017,243.624 831.267,246.062 832.626,248.491 834.091,250.901 835.656,253.294 837.332,255.666 
			838.697,257.467 835.44,256.461 856.13,292.194 857.352,305.547 906.217,325.717 904.532,310.764 919.775,284.765 915.941,281.8 
			917.93,279.16 919.113,277.221 920.177,275.149 921.378,272.344 922.162,269.998 922.824,267.543 923.367,264.995 923.863,261.2 
			924.098,258.947 924.223,256.808 924.256,253.926 924.169,250.995 923.949,248.012 923.61,244.989 923.154,241.938 
			922.717,239.599 922.054,236.521 921.274,233.443 920.385,230.372 919.149,226.602 918.022,223.584 916.789,220.603 
			915.47,217.674 914.053,214.799 912.543,211.99 910.955,209.257 909.283,206.602 907.537,204.04 905.719,201.569 903.832,199.203 
			901.882,196.942 899.878,194.794 897.815,192.767 895.71,190.862 893.557,189.08 891.363,187.43 889.139,185.912 886.888,184.528 
			884.611,183.282 882.313,182.172 880,181.198 877.68,180.363 875.35,179.667 873.02,179.107 870.695,178.686 868.384,178.399 
			866.076,178.244 863.793,178.218 861.535,178.326 859.297,178.554 857.092,178.909 854.925,179.381 852.797,179.971 
			850.716,180.675 848.678,181.487 846.698,182.404 844.772,183.421 842.912,184.543 841.112,185.753 839.385,187.056 
			837.729,188.446 836.152,189.92 834.654,191.471 833.242,193.1 		"/>
		<polyline clip-path="url(#SVGID_22_)" fill="none" stroke="#1A78BB" stroke-width="3.345" stroke-miterlimit="10" points="
			931.852,254.04 943.068,256.896 941.171,243.484 930.084,240.958 931.852,254.04 		"/>
		<polyline clip-path="url(#SVGID_22_)" fill="none" stroke="#1A78BB" stroke-width="3.345" stroke-miterlimit="10" points="
			806.379,222.87 817.336,225.486 816.872,215.767 806.035,213.469 806.379,222.87 		"/>
		<path clip-path="url(#SVGID_22_)" fill="none" stroke="#1A78BB" stroke-width="3.345" stroke-miterlimit="10" d="M683.25,499.87
			l-6.581,2.968c4.159-15.566-3.211-28.012-17.326-29.284l4.791-5.991C678.868,470.059,686.656,483.221,683.25,499.87z"/>
		<path clip-path="url(#SVGID_22_)" fill="none" stroke="#1A78BB" stroke-width="3.345" stroke-miterlimit="10" d="M634.844,475.052
			l4.021,3.745c-14.847,8.692-24.491,25.553-22.767,39.644l-6.313,0.359C609.006,503.16,619.186,485.338,634.844,475.052z"/>
		<path clip-path="url(#SVGID_22_)" fill="none" stroke="#1A78BB" stroke-width="3.345" stroke-miterlimit="10" d="M622.303,539.952
			l2.562-6.708c10.684,6.874,27.697,2.468,40.091-10.367l1.528,5.637C652.521,541.66,634.557,546.318,622.303,539.952z"/>
		<path clip-path="url(#SVGID_22_)" fill="none" stroke="#1A78BB" stroke-width="3.345" stroke-miterlimit="10" d="M495.351,526.393
			c3.768-5.712,8.915-10.793,15.006-14.437l-4.08-3.746c-6.646,4.469-11.601,8.618-15.691,15.136"/>
		<path clip-path="url(#SVGID_22_)" fill="none" stroke="#1A78BB" stroke-width="3.345" stroke-miterlimit="10" d="M535.155,500.721
			l-4.606,5.99c14.041,1.272,21.661,13.719,17.927,29.284l6.453-2.964C557.898,516.379,549.841,503.214,535.155,500.721z"/>
		<path clip-path="url(#SVGID_22_)" fill="none" stroke="#1A78BB" stroke-width="3.345" stroke-miterlimit="10" d="M539.007,561.668
			l-1.656-5.632c-11.973,12.832-28.746,17.24-39.521,10.365l-2.372,6.708C507.775,579.475,525.482,574.812,539.007,561.668z"/>
	</g>
	<g clip-path="url(#SVGID_2_)">
		<defs>
			<polygon id="SVGID_23_" points="779.927,485.2 811.254,554.843 890.762,534.031 892.962,524.535 916.735,526.405 
				947.156,456.011 848.361,445.118 			"/>
		</defs>
		<clipPath id="SVGID_24_">
			<use xlink:href="#SVGID_23_"  overflow="visible"/>
		</clipPath>
		<polyline clip-path="url(#SVGID_24_)" fill="none" stroke="#1A78BB" stroke-width="3.345" stroke-miterlimit="10" points="
			893.202,594.771 895.5,593.614 897.718,592.349 899.856,590.961 901.909,589.47 903.871,587.882 905.74,586.189 907.508,584.406 
			909.167,582.531 910.542,580.795 911.819,579.018 913.174,576.913 914.41,574.744 915.527,572.504 916.749,569.663 
			917.592,567.295 918.311,564.879 918.897,562.422 919.354,559.927 919.713,557.123 919.891,554.864 919.975,552.302 
			919.918,549.726 919.738,547.15 919.436,544.577 919.004,542.016 918.452,539.464 917.776,536.936 916.984,534.437 
			916.276,532.542 919.403,533.899 912.535,498.327 916.981,485.835 874.03,467.099 869.07,479.377 840.763,497.996 843.49,500.853 
			840.11,502.533 837.922,503.797 835.79,505.163 833.162,507.038 831.197,508.629 829.306,510.313 827.504,512.079 
			825.145,514.751 823.803,516.339 822.637,517.872 821.207,519.953 819.885,522.095 818.676,524.297 817.572,526.558 
			816.585,528.868 815.921,530.661 815.146,533.046 814.49,535.46 813.957,537.91 813.46,540.968 813.211,543.458 813.098,545.965 
			813.105,548.476 813.248,550.983 813.524,553.483 813.93,555.972 814.46,558.444 815.124,560.894 815.916,563.311 
			816.837,565.698 817.882,568.042 819.051,570.335 820.336,572.575 821.747,574.77 823.272,576.892 824.906,578.948 
			826.643,580.934 828.482,582.851 830.422,584.673 832.452,586.413 834.575,588.063 836.78,589.617 839.058,591.073 
			841.408,592.433 843.831,593.685 846.308,594.819 848.838,595.851 851.414,596.766 854.028,597.564 856.676,598.25 
			859.347,598.807 862.036,599.244 864.746,599.557 867.451,599.745 870.156,599.807 872.848,599.744 875.522,599.557 
			878.178,599.242 880.795,598.804 883.378,598.243 885.921,597.556 888.406,596.747 890.837,595.822 893.202,594.771 		"/>
		<polyline clip-path="url(#SVGID_24_)" fill="none" stroke="#1A78BB" stroke-width="3.345" stroke-miterlimit="10" points="
			813.022,518.083 802.281,513.396 797.746,523.033 808.557,527.738 813.022,518.083 		"/>
		<polyline clip-path="url(#SVGID_24_)" fill="none" stroke="#1A78BB" stroke-width="3.345" stroke-miterlimit="10" points="
			936.968,572.26 925.843,567.438 922.058,577.365 933.249,582.222 936.968,572.26 		"/>
	</g>
	<g clip-path="url(#SVGID_2_)">
		<defs>
			<rect id="SVGID_25_" width="1210" height="1178"/>
		</defs>
		<clipPath id="SVGID_26_">
			<use xlink:href="#SVGID_25_"  overflow="visible"/>
		</clipPath>
		<polygon clip-path="url(#SVGID_26_)" fill="none" stroke="#1A78BB" stroke-width="3.345" stroke-miterlimit="10" points="
			471.607,764.389 475.867,763.074 510.4,781.978 506.26,783.509 		"/>
		<polygon clip-path="url(#SVGID_26_)" fill="none" stroke="#1A78BB" stroke-width="3.345" stroke-miterlimit="10" points="
			557.168,816.727 561.43,815.402 595.821,834.36 591.821,835.839 		"/>
	</g>
	<g clip-path="url(#SVGID_2_)">
		<defs>
			<polygon id="SVGID_27_" points="384.698,854.419 394.391,868.177 448.971,876.955 495.992,873.85 500.196,837.652 
				457.255,779.652 413.24,773.251 			"/>
		</defs>
		<clipPath id="SVGID_28_">
			<use xlink:href="#SVGID_27_"  overflow="visible"/>
		</clipPath>
		<polyline clip-path="url(#SVGID_28_)" fill="none" stroke="#1A78BB" stroke-width="3.345" stroke-miterlimit="10" points="
			442.053,780.855 439.674,780.259 437.265,779.755 434.829,779.345 432.375,779.026 429.906,778.8 427.429,778.661 
			424.947,778.624 422.471,778.675 420.284,778.805 418.131,779.003 415.688,779.313 413.276,779.705 410.883,780.197 
			407.979,780.911 405.673,781.595 403.416,782.362 401.212,783.215 399.066,784.146 396.757,785.276 394.969,786.239 
			393.023,787.397 391.158,788.63 389.376,789.928 387.683,791.292 386.077,792.719 384.57,794.202 383.159,795.739 
			381.855,797.332 380.933,798.598 379.751,796.273 357.854,816.477 345.092,819.644 362.728,853.365 375.65,850.382 
			410.544,857.623 410.554,854.604 414.297,855.696 416.842,856.314 419.415,856.837 422.719,857.383 425.321,857.688 
			427.928,857.9 430.527,858.017 434.176,857.97 436.294,857.903 438.238,857.764 440.758,857.487 443.239,857.111 445.676,856.635 
			448.067,856.065 450.397,855.402 452.135,854.823 454.355,854.001 456.509,853.08 458.581,852.073 461.045,850.727 
			462.933,849.533 464.733,848.26 466.439,846.916 468.047,845.498 469.55,844.011 470.949,842.459 472.238,840.846 
			473.415,839.182 474.484,837.46 475.431,835.689 476.267,833.88 476.981,832.026 477.576,830.144 478.048,828.227 
			478.401,826.289 478.628,824.332 478.735,822.361 478.722,820.382 478.588,818.4 478.329,816.417 477.958,814.438 
			477.466,812.473 476.854,810.527 476.132,808.592 475.292,806.692 474.344,804.818 473.288,802.98 472.125,801.183 
			470.862,799.432 469.497,797.724 468.037,796.067 466.486,794.469 464.841,792.932 463.113,791.461 461.303,790.049 
			459.416,788.713 457.455,787.445 455.425,786.263 453.331,785.15 451.176,784.122 448.967,783.175 446.705,782.318 
			444.401,781.54 442.053,780.855 		"/>
		<polyline clip-path="url(#SVGID_28_)" fill="none" stroke="#1A78BB" stroke-width="3.345" stroke-miterlimit="10" points="
			445.582,863.111 450.439,871.728 460.477,869.136 455.6,860.508 445.582,863.111 		"/>
		<polyline clip-path="url(#SVGID_28_)" fill="none" stroke="#1A78BB" stroke-width="3.345" stroke-miterlimit="10" points="
			396.135,769.227 400.134,777.232 409.973,774.518 405.953,766.5 396.135,769.227 		"/>
	</g>
	<g clip-path="url(#SVGID_2_)">
		<defs>
			<rect id="SVGID_29_" width="1210" height="1178"/>
		</defs>
		<clipPath id="SVGID_30_">
			<use xlink:href="#SVGID_29_"  overflow="visible"/>
		</clipPath>
		<path clip-path="url(#SVGID_30_)" fill="none" stroke="#06EEF4" stroke-width="10" stroke-miterlimit="10" d="M714.174,152.074
			c0,0-66.905-88.548-81.401,19.615c-14.496,108.163,17.589,145.947,17.589,145.947"/>
		<path clip-path="url(#SVGID_30_)" fill="none" stroke="#06EEF4" stroke-width="10" stroke-miterlimit="10" d="M163.563,372.492
			c0,0,7.806-89.207,101.473-94.782c93.667-5.575,138.27,94.782,138.27,94.782"/>
		<path clip-path="url(#SVGID_30_)" fill="none" stroke="#06EEF4" stroke-width="10" stroke-miterlimit="10" d="M965.274,763.073
			c0,0,66.555,10.178,18.147-47.776"/>
		<path clip-path="url(#SVGID_30_)" fill="none" stroke="#06EEF4" stroke-width="10" stroke-miterlimit="10" d="M903.469,742.211
			c0,0-41.539-49.448,41.055-38.772"/>
		<path clip-path="url(#SVGID_30_)" fill="#FFFFFF" d="M973.967,923.966c0,38.932-31.567,70.499-70.499,70.499
			c-38.936,0-70.502-31.567-70.502-70.499c0-38.937,31.566-70.499,70.502-70.499C942.399,853.467,973.967,885.029,973.967,923.966"
			/>
	</g>
	<g clip-path="url(#SVGID_2_)">
		<defs>
			<path id="SVGID_31_" d="M832.965,923.966c0,38.933,31.567,70.499,70.504,70.499c38.932,0,70.497-31.566,70.497-70.499
				c0-38.937-31.565-70.499-70.497-70.499C864.532,853.467,832.965,885.029,832.965,923.966"/>
		</defs>
		<clipPath id="SVGID_32_">
			<use xlink:href="#SVGID_31_"  overflow="visible"/>
		</clipPath>
		<polyline clip-path="url(#SVGID_32_)" fill="#FFFFFF" points="828.183,865.511 828.183,886.467 953.563,957.932 1031.585,911.9 		
			"/>
		<polyline clip-path="url(#SVGID_32_)" fill="none" stroke="#1A78BB" stroke-width="2.23" stroke-miterlimit="10" points="
			828.183,865.511 828.183,886.467 953.563,957.932 1031.585,911.9 		"/>
		<line clip-path="url(#SVGID_32_)" fill="#FFFFFF" x1="953.564" y1="957.932" x2="953.564" y2="865.511"/>
		
			<line clip-path="url(#SVGID_32_)" fill="none" stroke="#1A78BB" stroke-width="2.23" stroke-miterlimit="10" x1="953.564" y1="957.932" x2="953.564" y2="865.511"/>
		<polyline clip-path="url(#SVGID_32_)" fill="#FFFFFF" points="848.642,898.127 850.78,905.415 866.392,914.679 869.136,909.81 		
			"/>
		<polyline clip-path="url(#SVGID_32_)" fill="none" stroke="#1A78BB" stroke-width="2.23" stroke-miterlimit="10" points="
			848.642,898.127 850.78,905.415 866.392,914.679 869.136,909.81 		"/>
		<polyline clip-path="url(#SVGID_32_)" fill="#FFFFFF" points="893.219,923.966 895.357,931.253 910.969,940.513 913.713,935.647 
					"/>
		<polyline clip-path="url(#SVGID_32_)" fill="none" stroke="#1A78BB" stroke-width="2.23" stroke-miterlimit="10" points="
			893.219,923.966 895.357,931.253 910.969,940.513 913.713,935.647 		"/>
	</g>
	<g clip-path="url(#SVGID_2_)">
		<defs>
			<rect id="SVGID_33_" width="1210" height="1178"/>
		</defs>
		<clipPath id="SVGID_34_">
			<use xlink:href="#SVGID_33_"  overflow="visible"/>
		</clipPath>
		<path clip-path="url(#SVGID_34_)" fill="none" stroke="#1A78BB" stroke-width="2.23" stroke-miterlimit="10" d="M973.967,923.966
			c0,38.932-31.567,70.499-70.499,70.499c-38.936,0-70.502-31.567-70.502-70.499c0-38.937,31.566-70.499,70.502-70.499
			C942.399,853.467,973.967,885.029,973.967,923.966z"/>
		
			<line clip-path="url(#SVGID_34_)" fill="none" stroke="#06EEF4" stroke-width="6" stroke-miterlimit="10" x1="648.423" y1="312.165" x2="655.259" y2="322.958"/>
		<path clip-path="url(#SVGID_34_)" fill="#06EEF4" d="M674.633,353.551c-14.459-11.013-34.883-23.102-51.547-28.06l29.631-6.547
			l18.58-23.983C668.655,312.146,670.853,335.777,674.633,353.551"/>
		
			<line clip-path="url(#SVGID_34_)" fill="none" stroke="#06EEF4" stroke-width="6" stroke-miterlimit="10" x1="390.423" y1="352.165" x2="397.259" y2="362.958"/>
		<path clip-path="url(#SVGID_34_)" fill="#06EEF4" d="M416.632,393.551c-14.458-11.013-34.882-23.102-51.546-28.06l29.63-6.547
			l18.581-23.983C410.655,352.146,412.852,375.777,416.632,393.551"/>
		
			<line clip-path="url(#SVGID_34_)" fill="none" stroke="#06EEF4" stroke-width="6" stroke-miterlimit="10" x1="602.639" y1="732.85" x2="614.057" y2="727.116"/>
		<path clip-path="url(#SVGID_34_)" fill="#06EEF4" d="M646.416,710.865c-12.39,13.297-26.44,32.425-33.023,48.517l-3.582-30.133
			l-22.027-20.863C604.622,712.716,628.354,712.868,646.416,710.865"/>
		<path clip-path="url(#SVGID_34_)" fill="none" stroke="#06EEF4" stroke-width="10" stroke-miterlimit="10" d="M495,859
			c0,0,52-99,119-128"/>
	</g>
</g>
</svg>
