<?xml version="1.0" encoding="utf-8"?>
<!-- Generator: Adobe Illustrator 16.0.0, SVG Export Plug-In . SVG Version: 6.00 Build 0)  -->
<!DOCTYPE svg PUBLIC "-//W3C//DTD SVG 1.1//EN" "http://www.w3.org/Graphics/SVG/1.1/DTD/svg11.dtd">
<svg version="1.1" id="Layer_1" xmlns="http://www.w3.org/2000/svg" xmlns:xlink="http://www.w3.org/1999/xlink" x="0px" y="0px"
	 width="1210px" height="1178px" viewBox="0 0 1210 1178" enable-background="new 0 0 1210 1178" xml:space="preserve">
<pattern  y="1178" width="72" height="72" patternUnits="userSpaceOnUse" id="Unnamed_Pattern" viewBox="72.25 -72 72 72" overflow="visible">
	<g>
		<polygon fill="none" points="72.25,-72 144.25,-72 144.25,0 72.25,0 		"/>
		<g>
			<defs>
				<rect id="SVGID_1_" x="72.25" y="-72" width="72" height="72"/>
			</defs>
			<clipPath id="SVGID_2_">
				<use xlink:href="#SVGID_1_"  overflow="visible"/>
			</clipPath>
			
				<line clip-path="url(#SVGID_2_)" fill="none" stroke="#231F20" stroke-width="0.72" x1="144" y1="-68.399" x2="216.5" y2="-68.399"/>
			<line clip-path="url(#SVGID_2_)" fill="none" stroke="#231F20" stroke-width="0.72" x1="144" y1="-54" x2="216.5" y2="-54"/>
			
				<line clip-path="url(#SVGID_2_)" fill="none" stroke="#231F20" stroke-width="0.72" x1="144" y1="-39.601" x2="216.5" y2="-39.601"/>
			<line clip-path="url(#SVGID_2_)" fill="none" stroke="#231F20" stroke-width="0.72" x1="144" y1="-25.2" x2="216.5" y2="-25.2"/>
			<line clip-path="url(#SVGID_2_)" fill="none" stroke="#231F20" stroke-width="0.72" x1="144" y1="-10.8" x2="216.5" y2="-10.8"/>
			<line clip-path="url(#SVGID_2_)" fill="none" stroke="#231F20" stroke-width="0.72" x1="144" y1="-61.2" x2="216.5" y2="-61.2"/>
			<line clip-path="url(#SVGID_2_)" fill="none" stroke="#231F20" stroke-width="0.72" x1="144" y1="-46.8" x2="216.5" y2="-46.8"/>
			<line clip-path="url(#SVGID_2_)" fill="none" stroke="#231F20" stroke-width="0.72" x1="144" y1="-32.4" x2="216.5" y2="-32.4"/>
			<line clip-path="url(#SVGID_2_)" fill="none" stroke="#231F20" stroke-width="0.72" x1="144" y1="-18" x2="216.5" y2="-18"/>
			
				<line clip-path="url(#SVGID_2_)" fill="none" stroke="#231F20" stroke-width="0.72" x1="144" y1="-3.601" x2="216.5" y2="-3.601"/>
			
				<line clip-path="url(#SVGID_2_)" fill="none" stroke="#231F20" stroke-width="0.72" x1="72" y1="-68.399" x2="144.5" y2="-68.399"/>
			<line clip-path="url(#SVGID_2_)" fill="none" stroke="#231F20" stroke-width="0.72" x1="72" y1="-54" x2="144.5" y2="-54"/>
			
				<line clip-path="url(#SVGID_2_)" fill="none" stroke="#231F20" stroke-width="0.72" x1="72" y1="-39.601" x2="144.5" y2="-39.601"/>
			<line clip-path="url(#SVGID_2_)" fill="none" stroke="#231F20" stroke-width="0.72" x1="72" y1="-25.2" x2="144.5" y2="-25.2"/>
			<line clip-path="url(#SVGID_2_)" fill="none" stroke="#231F20" stroke-width="0.72" x1="72" y1="-10.8" x2="144.5" y2="-10.8"/>
			<line clip-path="url(#SVGID_2_)" fill="none" stroke="#231F20" stroke-width="0.72" x1="72" y1="-61.2" x2="144.5" y2="-61.2"/>
			<line clip-path="url(#SVGID_2_)" fill="none" stroke="#231F20" stroke-width="0.72" x1="72" y1="-46.8" x2="144.5" y2="-46.8"/>
			<line clip-path="url(#SVGID_2_)" fill="none" stroke="#231F20" stroke-width="0.72" x1="72" y1="-32.4" x2="144.5" y2="-32.4"/>
			<line clip-path="url(#SVGID_2_)" fill="none" stroke="#231F20" stroke-width="0.72" x1="72" y1="-18" x2="144.5" y2="-18"/>
			
				<line clip-path="url(#SVGID_2_)" fill="none" stroke="#231F20" stroke-width="0.72" x1="72" y1="-3.601" x2="144.5" y2="-3.601"/>
			
				<line clip-path="url(#SVGID_2_)" fill="none" stroke="#231F20" stroke-width="0.72" x1="0" y1="-68.399" x2="72.5" y2="-68.399"/>
			<line clip-path="url(#SVGID_2_)" fill="none" stroke="#231F20" stroke-width="0.72" x1="0" y1="-54" x2="72.5" y2="-54"/>
			
				<line clip-path="url(#SVGID_2_)" fill="none" stroke="#231F20" stroke-width="0.72" x1="0" y1="-39.601" x2="72.5" y2="-39.601"/>
			<line clip-path="url(#SVGID_2_)" fill="none" stroke="#231F20" stroke-width="0.72" x1="0" y1="-25.2" x2="72.5" y2="-25.2"/>
			<line clip-path="url(#SVGID_2_)" fill="none" stroke="#231F20" stroke-width="0.72" x1="0" y1="-10.8" x2="72.5" y2="-10.8"/>
			<line clip-path="url(#SVGID_2_)" fill="none" stroke="#231F20" stroke-width="0.72" x1="0" y1="-61.2" x2="72.5" y2="-61.2"/>
			<line clip-path="url(#SVGID_2_)" fill="none" stroke="#231F20" stroke-width="0.72" x1="0" y1="-46.8" x2="72.5" y2="-46.8"/>
			<line clip-path="url(#SVGID_2_)" fill="none" stroke="#231F20" stroke-width="0.72" x1="0" y1="-32.4" x2="72.5" y2="-32.4"/>
			<line clip-path="url(#SVGID_2_)" fill="none" stroke="#231F20" stroke-width="0.72" x1="0" y1="-18" x2="72.5" y2="-18"/>
			<line clip-path="url(#SVGID_2_)" fill="none" stroke="#231F20" stroke-width="0.72" x1="0" y1="-3.601" x2="72.5" y2="-3.601"/>
		</g>
	</g>
</pattern>
<pattern  y="1178" width="72" height="72" patternUnits="userSpaceOnUse" id="Unnamed_Pattern_2" viewBox="72.25 -72 72 72" overflow="visible">
	<g>
		<polygon fill="none" points="72.25,-72 144.25,-72 144.25,0 72.25,0 		"/>
		<g>
			<defs>
				<rect id="SVGID_3_" x="72.25" y="-72" width="72" height="72"/>
			</defs>
			<clipPath id="SVGID_4_">
				<use xlink:href="#SVGID_3_"  overflow="visible"/>
			</clipPath>
			
				<line clip-path="url(#SVGID_4_)" fill="none" stroke="#231F20" stroke-width="0.72" x1="144" y1="-68.399" x2="216.5" y2="-68.399"/>
			<line clip-path="url(#SVGID_4_)" fill="none" stroke="#231F20" stroke-width="0.72" x1="144" y1="-54" x2="216.5" y2="-54"/>
			
				<line clip-path="url(#SVGID_4_)" fill="none" stroke="#231F20" stroke-width="0.72" x1="144" y1="-39.601" x2="216.5" y2="-39.601"/>
			<line clip-path="url(#SVGID_4_)" fill="none" stroke="#231F20" stroke-width="0.72" x1="144" y1="-25.2" x2="216.5" y2="-25.2"/>
			<line clip-path="url(#SVGID_4_)" fill="none" stroke="#231F20" stroke-width="0.72" x1="144" y1="-10.8" x2="216.5" y2="-10.8"/>
			<line clip-path="url(#SVGID_4_)" fill="none" stroke="#231F20" stroke-width="0.72" x1="144" y1="-61.2" x2="216.5" y2="-61.2"/>
			<line clip-path="url(#SVGID_4_)" fill="none" stroke="#231F20" stroke-width="0.72" x1="144" y1="-46.8" x2="216.5" y2="-46.8"/>
			<line clip-path="url(#SVGID_4_)" fill="none" stroke="#231F20" stroke-width="0.72" x1="144" y1="-32.4" x2="216.5" y2="-32.4"/>
			<line clip-path="url(#SVGID_4_)" fill="none" stroke="#231F20" stroke-width="0.72" x1="144" y1="-18" x2="216.5" y2="-18"/>
			
				<line clip-path="url(#SVGID_4_)" fill="none" stroke="#231F20" stroke-width="0.72" x1="144" y1="-3.601" x2="216.5" y2="-3.601"/>
			
				<line clip-path="url(#SVGID_4_)" fill="none" stroke="#231F20" stroke-width="0.72" x1="72" y1="-68.399" x2="144.5" y2="-68.399"/>
			<line clip-path="url(#SVGID_4_)" fill="none" stroke="#231F20" stroke-width="0.72" x1="72" y1="-54" x2="144.5" y2="-54"/>
			
				<line clip-path="url(#SVGID_4_)" fill="none" stroke="#231F20" stroke-width="0.72" x1="72" y1="-39.601" x2="144.5" y2="-39.601"/>
			<line clip-path="url(#SVGID_4_)" fill="none" stroke="#231F20" stroke-width="0.72" x1="72" y1="-25.2" x2="144.5" y2="-25.2"/>
			<line clip-path="url(#SVGID_4_)" fill="none" stroke="#231F20" stroke-width="0.72" x1="72" y1="-10.8" x2="144.5" y2="-10.8"/>
			<line clip-path="url(#SVGID_4_)" fill="none" stroke="#231F20" stroke-width="0.72" x1="72" y1="-61.2" x2="144.5" y2="-61.2"/>
			<line clip-path="url(#SVGID_4_)" fill="none" stroke="#231F20" stroke-width="0.72" x1="72" y1="-46.8" x2="144.5" y2="-46.8"/>
			<line clip-path="url(#SVGID_4_)" fill="none" stroke="#231F20" stroke-width="0.72" x1="72" y1="-32.4" x2="144.5" y2="-32.4"/>
			<line clip-path="url(#SVGID_4_)" fill="none" stroke="#231F20" stroke-width="0.72" x1="72" y1="-18" x2="144.5" y2="-18"/>
			
				<line clip-path="url(#SVGID_4_)" fill="none" stroke="#231F20" stroke-width="0.72" x1="72" y1="-3.601" x2="144.5" y2="-3.601"/>
			
				<line clip-path="url(#SVGID_4_)" fill="none" stroke="#231F20" stroke-width="0.72" x1="0" y1="-68.399" x2="72.5" y2="-68.399"/>
			<line clip-path="url(#SVGID_4_)" fill="none" stroke="#231F20" stroke-width="0.72" x1="0" y1="-54" x2="72.5" y2="-54"/>
			
				<line clip-path="url(#SVGID_4_)" fill="none" stroke="#231F20" stroke-width="0.72" x1="0" y1="-39.601" x2="72.5" y2="-39.601"/>
			<line clip-path="url(#SVGID_4_)" fill="none" stroke="#231F20" stroke-width="0.72" x1="0" y1="-25.2" x2="72.5" y2="-25.2"/>
			<line clip-path="url(#SVGID_4_)" fill="none" stroke="#231F20" stroke-width="0.72" x1="0" y1="-10.8" x2="72.5" y2="-10.8"/>
			<line clip-path="url(#SVGID_4_)" fill="none" stroke="#231F20" stroke-width="0.72" x1="0" y1="-61.2" x2="72.5" y2="-61.2"/>
			<line clip-path="url(#SVGID_4_)" fill="none" stroke="#231F20" stroke-width="0.72" x1="0" y1="-46.8" x2="72.5" y2="-46.8"/>
			<line clip-path="url(#SVGID_4_)" fill="none" stroke="#231F20" stroke-width="0.72" x1="0" y1="-32.4" x2="72.5" y2="-32.4"/>
			<line clip-path="url(#SVGID_4_)" fill="none" stroke="#231F20" stroke-width="0.72" x1="0" y1="-18" x2="72.5" y2="-18"/>
			<line clip-path="url(#SVGID_4_)" fill="none" stroke="#231F20" stroke-width="0.72" x1="0" y1="-3.601" x2="72.5" y2="-3.601"/>
		</g>
	</g>
</pattern>
<pattern  id="SVGID_5_" xlink:href="#Unnamed_Pattern" patternTransform="matrix(1 0 0 -1 0 -144)">
</pattern>
<rect x="839" y="224" fill="url(#SVGID_5_)" width="35" height="376"/>
<rect x="839" y="224" fill="none" stroke="#2C77BC" stroke-width="3" stroke-miterlimit="10" width="35" height="376"/>
<pattern  id="SVGID_6_" xlink:href="#Unnamed_Pattern_2" patternTransform="matrix(1 0 0 -1 0 -144)">
</pattern>
<rect x="324" y="224" fill="url(#SVGID_6_)" width="35" height="376"/>
<rect x="324" y="224" fill="none" stroke="#2C77BC" stroke-width="3" stroke-miterlimit="10" width="35" height="376"/>
<g>
	<defs>
		<rect id="SVGID_7_" width="1210" height="1178"/>
	</defs>
	<clipPath id="SVGID_8_">
		<use xlink:href="#SVGID_7_"  overflow="visible"/>
	</clipPath>
	<path clip-path="url(#SVGID_8_)" fill="#FFFFFF" d="M267.74,862.827c0,0-30.582-46.98,32.014-131.883
		c62.596-84.901,21.572-99.585-0.85-85.788c-125.627,77.307-151.882-49.944-157.018-88.973c-5.137-39.027,13.063-93.47,47.4-129.803
		c31.559-33.396,92.937-89.504,120.406-174.952c18.803-58.489,13.482-115.369,53.919-137.104
		c50.892-27.357,126.102,84.064,126.102,84.064H444.53c0,0-75.509-125.844-86.793,1.922
		c-11.284,127.767-144.338,236.073-165.263,286.797c-20.924,50.725-14.359,83.768-14.359,83.768s26.504,113.248,106.462,49.24
		c0,0,45.128-27.339,66.477,6.935c2.685,4.31,30.952,45.244-22.903,112.957c-62.996,79.208-28.397,116.078-28.397,116.078"/>
	
		<path clip-path="url(#SVGID_8_)" fill="none" stroke="#1A77BC" stroke-width="3.729" stroke-linejoin="round" stroke-miterlimit="10" d="
		M267.74,862.827c0,0-30.582-46.98,32.014-131.883c62.596-84.901,21.572-99.585-0.85-85.788
		c-125.627,77.307-151.882-49.944-157.018-88.973c-5.137-39.027,13.063-93.47,47.4-129.803
		c31.559-33.396,92.937-89.504,120.406-174.952c18.803-58.489,13.482-115.369,53.919-137.104
		c50.892-27.357,126.102,84.064,126.102,84.064H444.53c0,0-75.509-125.844-86.793,1.922
		c-11.284,127.767-144.338,236.073-165.263,286.797c-20.924,50.725-14.359,83.768-14.359,83.768s26.504,113.248,106.462,49.24
		c0,0,45.128-27.339,66.477,6.935c2.685,4.31,30.952,45.244-22.903,112.957c-62.996,79.208-28.397,116.078-28.397,116.078"/>
	<path clip-path="url(#SVGID_8_)" fill="none" stroke="#2C77BC" stroke-width="3.669" stroke-miterlimit="10" d="M736.486,991.582
		H463.181c-33.843,0-61.535-27.69-61.535-61.535V692.895c0-33.845,27.692-61.535,61.535-61.535h273.305
		c33.844,0,61.535,27.69,61.535,61.535v237.152C798.021,963.892,770.33,991.582,736.486,991.582z"/>
	<polygon clip-path="url(#SVGID_8_)" fill="none" stroke="#2C77BC" stroke-width="3.669" stroke-miterlimit="10" points="
		544.88,814.836 544.88,801.527 698.953,802.617 698.953,814.836 718.751,814.836 718.751,916.206 699.814,916.206 699.814,929.117 
		544.88,929.117 544.88,917.927 525.082,917.927 525.082,814.836 	"/>
	<path clip-path="url(#SVGID_8_)" fill-rule="evenodd" clip-rule="evenodd" fill="#2C77BC" d="M545.148,833.377
		c0,1.645-1.331,2.977-2.975,2.977c-1.642,0-2.974-1.332-2.974-2.977c0-1.643,1.332-2.975,2.974-2.975
		C543.817,830.402,545.148,831.734,545.148,833.377"/>
	<path clip-path="url(#SVGID_8_)" fill-rule="evenodd" clip-rule="evenodd" fill="#2C77BC" d="M561.216,833.377
		c0,1.645-1.331,2.977-2.975,2.977c-1.642,0-2.974-1.332-2.974-2.977c0-1.643,1.332-2.975,2.974-2.975
		C559.885,830.402,561.216,831.734,561.216,833.377"/>
	<path clip-path="url(#SVGID_8_)" fill-rule="evenodd" clip-rule="evenodd" fill="#2C77BC" d="M577.283,833.377
		c0,1.645-1.332,2.977-2.975,2.977c-1.642,0-2.974-1.332-2.974-2.977c0-1.643,1.332-2.975,2.974-2.975
		C575.951,830.402,577.283,831.734,577.283,833.377"/>
	<path clip-path="url(#SVGID_8_)" fill-rule="evenodd" clip-rule="evenodd" fill="#2C77BC" d="M593.351,833.377
		c0,1.645-1.332,2.977-2.975,2.977c-1.642,0-2.974-1.332-2.974-2.977c0-1.643,1.332-2.975,2.974-2.975
		C592.019,830.402,593.351,831.734,593.351,833.377"/>
	<path clip-path="url(#SVGID_8_)" fill-rule="evenodd" clip-rule="evenodd" fill="#2C77BC" d="M609.418,833.377
		c0,1.645-1.332,2.977-2.975,2.977c-1.644,0-2.975-1.332-2.975-2.977c0-1.643,1.331-2.975,2.975-2.975
		C608.086,830.402,609.418,831.734,609.418,833.377"/>
	<path clip-path="url(#SVGID_8_)" fill-rule="evenodd" clip-rule="evenodd" fill="#2C77BC" d="M625.485,833.377
		c0,1.645-1.332,2.977-2.975,2.977c-1.644,0-2.975-1.332-2.975-2.977c0-1.643,1.331-2.975,2.975-2.975
		C624.153,830.402,625.485,831.734,625.485,833.377"/>
	<path clip-path="url(#SVGID_8_)" fill-rule="evenodd" clip-rule="evenodd" fill="#2C77BC" d="M641.553,833.377
		c0,1.645-1.332,2.977-2.975,2.977c-1.644,0-2.976-1.332-2.976-2.977c0-1.643,1.332-2.975,2.976-2.975
		C640.221,830.402,641.553,831.734,641.553,833.377"/>
	<path clip-path="url(#SVGID_8_)" fill-rule="evenodd" clip-rule="evenodd" fill="#2C77BC" d="M657.62,833.377
		c0,1.645-1.332,2.977-2.975,2.977c-1.644,0-2.976-1.332-2.976-2.977c0-1.643,1.332-2.975,2.976-2.975
		C656.288,830.402,657.62,831.734,657.62,833.377"/>
	<path clip-path="url(#SVGID_8_)" fill-rule="evenodd" clip-rule="evenodd" fill="#2C77BC" d="M673.688,833.377
		c0,1.645-1.332,2.977-2.976,2.977c-1.643,0-2.975-1.332-2.975-2.977c0-1.643,1.332-2.975,2.975-2.975
		C672.355,830.402,673.688,831.734,673.688,833.377"/>
	<path clip-path="url(#SVGID_8_)" fill-rule="evenodd" clip-rule="evenodd" fill="#2C77BC" d="M689.755,833.377
		c0,1.645-1.332,2.977-2.976,2.977c-1.643,0-2.975-1.332-2.975-2.977c0-1.643,1.332-2.975,2.975-2.975
		C688.423,830.402,689.755,831.734,689.755,833.377"/>
	<path clip-path="url(#SVGID_8_)" fill-rule="evenodd" clip-rule="evenodd" fill="#2C77BC" d="M705.822,833.377
		c0,1.645-1.332,2.977-2.976,2.977c-1.643,0-2.975-1.332-2.975-2.977c0-1.643,1.332-2.975,2.975-2.975
		C704.49,830.402,705.822,831.734,705.822,833.377"/>
	<path clip-path="url(#SVGID_8_)" fill-rule="evenodd" clip-rule="evenodd" fill="#2C77BC" d="M545.148,849.641
		c0,1.644-1.331,2.976-2.975,2.976c-1.642,0-2.974-1.332-2.974-2.976c0-1.643,1.332-2.975,2.974-2.975
		C543.817,846.666,545.148,847.998,545.148,849.641"/>
	<path clip-path="url(#SVGID_8_)" fill-rule="evenodd" clip-rule="evenodd" fill="#2C77BC" d="M561.216,849.641
		c0,1.644-1.331,2.976-2.975,2.976c-1.642,0-2.974-1.332-2.974-2.976c0-1.643,1.332-2.975,2.974-2.975
		C559.885,846.666,561.216,847.998,561.216,849.641"/>
	<path clip-path="url(#SVGID_8_)" fill-rule="evenodd" clip-rule="evenodd" fill="#2C77BC" d="M577.283,849.641
		c0,1.644-1.332,2.976-2.975,2.976c-1.642,0-2.974-1.332-2.974-2.976c0-1.643,1.332-2.975,2.974-2.975
		C575.951,846.666,577.283,847.998,577.283,849.641"/>
	<path clip-path="url(#SVGID_8_)" fill-rule="evenodd" clip-rule="evenodd" fill="#2C77BC" d="M593.351,849.641
		c0,1.644-1.332,2.976-2.975,2.976c-1.642,0-2.974-1.332-2.974-2.976c0-1.643,1.332-2.975,2.974-2.975
		C592.019,846.666,593.351,847.998,593.351,849.641"/>
	<path clip-path="url(#SVGID_8_)" fill-rule="evenodd" clip-rule="evenodd" fill="#2C77BC" d="M609.418,849.641
		c0,1.644-1.332,2.976-2.975,2.976c-1.644,0-2.975-1.332-2.975-2.976c0-1.643,1.331-2.975,2.975-2.975
		C608.086,846.666,609.418,847.998,609.418,849.641"/>
	<path clip-path="url(#SVGID_8_)" fill-rule="evenodd" clip-rule="evenodd" fill="#2C77BC" d="M625.485,849.641
		c0,1.644-1.332,2.976-2.975,2.976c-1.644,0-2.975-1.332-2.975-2.976c0-1.643,1.331-2.975,2.975-2.975
		C624.153,846.666,625.485,847.998,625.485,849.641"/>
	<path clip-path="url(#SVGID_8_)" fill-rule="evenodd" clip-rule="evenodd" fill="#2C77BC" d="M641.553,849.641
		c0,1.644-1.332,2.976-2.975,2.976c-1.644,0-2.976-1.332-2.976-2.976c0-1.643,1.332-2.975,2.976-2.975
		C640.221,846.666,641.553,847.998,641.553,849.641"/>
	<path clip-path="url(#SVGID_8_)" fill-rule="evenodd" clip-rule="evenodd" fill="#2C77BC" d="M657.62,849.641
		c0,1.644-1.332,2.976-2.975,2.976c-1.644,0-2.976-1.332-2.976-2.976c0-1.643,1.332-2.975,2.976-2.975
		C656.288,846.666,657.62,847.998,657.62,849.641"/>
	<path clip-path="url(#SVGID_8_)" fill-rule="evenodd" clip-rule="evenodd" fill="#2C77BC" d="M673.688,849.641
		c0,1.644-1.332,2.976-2.976,2.976c-1.643,0-2.975-1.332-2.975-2.976c0-1.643,1.332-2.975,2.975-2.975
		C672.355,846.666,673.688,847.998,673.688,849.641"/>
	<path clip-path="url(#SVGID_8_)" fill-rule="evenodd" clip-rule="evenodd" fill="#2C77BC" d="M689.755,849.641
		c0,1.644-1.332,2.976-2.976,2.976c-1.643,0-2.975-1.332-2.975-2.976c0-1.643,1.332-2.975,2.975-2.975
		C688.423,846.666,689.755,847.998,689.755,849.641"/>
	<path clip-path="url(#SVGID_8_)" fill-rule="evenodd" clip-rule="evenodd" fill="#2C77BC" d="M705.822,849.641
		c0,1.644-1.332,2.976-2.976,2.976c-1.643,0-2.975-1.332-2.975-2.976c0-1.643,1.332-2.975,2.975-2.975
		C704.49,846.666,705.822,847.998,705.822,849.641"/>
	<path clip-path="url(#SVGID_8_)" fill-rule="evenodd" clip-rule="evenodd" fill="#2C77BC" d="M545.148,865.904
		c0,1.644-1.331,2.976-2.975,2.976c-1.642,0-2.974-1.332-2.974-2.976c0-1.643,1.332-2.975,2.974-2.975
		C543.817,862.93,545.148,864.262,545.148,865.904"/>
	<path clip-path="url(#SVGID_8_)" fill-rule="evenodd" clip-rule="evenodd" fill="#2C77BC" d="M561.216,865.904
		c0,1.644-1.331,2.976-2.975,2.976c-1.642,0-2.974-1.332-2.974-2.976c0-1.643,1.332-2.975,2.974-2.975
		C559.885,862.93,561.216,864.262,561.216,865.904"/>
	<path clip-path="url(#SVGID_8_)" fill-rule="evenodd" clip-rule="evenodd" fill="#2C77BC" d="M577.283,865.904
		c0,1.644-1.332,2.976-2.975,2.976c-1.642,0-2.974-1.332-2.974-2.976c0-1.643,1.332-2.975,2.974-2.975
		C575.951,862.93,577.283,864.262,577.283,865.904"/>
	<path clip-path="url(#SVGID_8_)" fill-rule="evenodd" clip-rule="evenodd" fill="#2C77BC" d="M593.351,865.904
		c0,1.644-1.332,2.976-2.975,2.976c-1.642,0-2.974-1.332-2.974-2.976c0-1.643,1.332-2.975,2.974-2.975
		C592.019,862.93,593.351,864.262,593.351,865.904"/>
	<path clip-path="url(#SVGID_8_)" fill-rule="evenodd" clip-rule="evenodd" fill="#2C77BC" d="M609.418,865.904
		c0,1.644-1.332,2.976-2.975,2.976c-1.644,0-2.975-1.332-2.975-2.976c0-1.643,1.331-2.975,2.975-2.975
		C608.086,862.93,609.418,864.262,609.418,865.904"/>
	<path clip-path="url(#SVGID_8_)" fill-rule="evenodd" clip-rule="evenodd" fill="#2C77BC" d="M625.485,865.904
		c0,1.644-1.332,2.976-2.975,2.976c-1.644,0-2.975-1.332-2.975-2.976c0-1.643,1.331-2.975,2.975-2.975
		C624.153,862.93,625.485,864.262,625.485,865.904"/>
	<path clip-path="url(#SVGID_8_)" fill-rule="evenodd" clip-rule="evenodd" fill="#2C77BC" d="M641.553,865.904
		c0,1.644-1.332,2.976-2.975,2.976c-1.644,0-2.976-1.332-2.976-2.976c0-1.643,1.332-2.975,2.976-2.975
		C640.221,862.93,641.553,864.262,641.553,865.904"/>
	<path clip-path="url(#SVGID_8_)" fill-rule="evenodd" clip-rule="evenodd" fill="#2C77BC" d="M657.62,865.904
		c0,1.644-1.332,2.976-2.975,2.976c-1.644,0-2.976-1.332-2.976-2.976c0-1.643,1.332-2.975,2.976-2.975
		C656.288,862.93,657.62,864.262,657.62,865.904"/>
	<path clip-path="url(#SVGID_8_)" fill-rule="evenodd" clip-rule="evenodd" fill="#2C77BC" d="M673.688,865.904
		c0,1.644-1.332,2.976-2.976,2.976c-1.643,0-2.975-1.332-2.975-2.976c0-1.643,1.332-2.975,2.975-2.975
		C672.355,862.93,673.688,864.262,673.688,865.904"/>
	<path clip-path="url(#SVGID_8_)" fill-rule="evenodd" clip-rule="evenodd" fill="#2C77BC" d="M689.755,865.904
		c0,1.644-1.332,2.976-2.976,2.976c-1.643,0-2.975-1.332-2.975-2.976c0-1.643,1.332-2.975,2.975-2.975
		C688.423,862.93,689.755,864.262,689.755,865.904"/>
	<path clip-path="url(#SVGID_8_)" fill-rule="evenodd" clip-rule="evenodd" fill="#2C77BC" d="M705.822,865.904
		c0,1.644-1.332,2.976-2.976,2.976c-1.643,0-2.975-1.332-2.975-2.976c0-1.643,1.332-2.975,2.975-2.975
		C704.49,862.93,705.822,864.262,705.822,865.904"/>
	<path clip-path="url(#SVGID_8_)" fill-rule="evenodd" clip-rule="evenodd" fill="#2C77BC" d="M545.148,882.168
		c0,1.643-1.331,2.975-2.975,2.975c-1.642,0-2.974-1.332-2.974-2.975s1.332-2.975,2.974-2.975
		C543.817,879.193,545.148,880.525,545.148,882.168"/>
	<path clip-path="url(#SVGID_8_)" fill-rule="evenodd" clip-rule="evenodd" fill="#2C77BC" d="M561.216,882.168
		c0,1.643-1.331,2.975-2.975,2.975c-1.642,0-2.974-1.332-2.974-2.975s1.332-2.975,2.974-2.975
		C559.885,879.193,561.216,880.525,561.216,882.168"/>
	<path clip-path="url(#SVGID_8_)" fill-rule="evenodd" clip-rule="evenodd" fill="#2C77BC" d="M577.283,882.168
		c0,1.643-1.332,2.975-2.975,2.975c-1.642,0-2.974-1.332-2.974-2.975s1.332-2.975,2.974-2.975
		C575.951,879.193,577.283,880.525,577.283,882.168"/>
	<path clip-path="url(#SVGID_8_)" fill-rule="evenodd" clip-rule="evenodd" fill="#2C77BC" d="M593.351,882.168
		c0,1.643-1.332,2.975-2.975,2.975c-1.642,0-2.974-1.332-2.974-2.975s1.332-2.975,2.974-2.975
		C592.019,879.193,593.351,880.525,593.351,882.168"/>
	<path clip-path="url(#SVGID_8_)" fill-rule="evenodd" clip-rule="evenodd" fill="#2C77BC" d="M609.418,882.168
		c0,1.643-1.332,2.975-2.975,2.975c-1.644,0-2.975-1.332-2.975-2.975s1.331-2.975,2.975-2.975
		C608.086,879.193,609.418,880.525,609.418,882.168"/>
	<path clip-path="url(#SVGID_8_)" fill-rule="evenodd" clip-rule="evenodd" fill="#2C77BC" d="M625.485,882.168
		c0,1.643-1.332,2.975-2.975,2.975c-1.644,0-2.975-1.332-2.975-2.975s1.331-2.975,2.975-2.975
		C624.153,879.193,625.485,880.525,625.485,882.168"/>
	<path clip-path="url(#SVGID_8_)" fill-rule="evenodd" clip-rule="evenodd" fill="#2C77BC" d="M641.553,882.168
		c0,1.643-1.332,2.975-2.975,2.975c-1.644,0-2.976-1.332-2.976-2.975s1.332-2.975,2.976-2.975
		C640.221,879.193,641.553,880.525,641.553,882.168"/>
	<path clip-path="url(#SVGID_8_)" fill-rule="evenodd" clip-rule="evenodd" fill="#2C77BC" d="M657.62,882.168
		c0,1.643-1.332,2.975-2.975,2.975c-1.644,0-2.976-1.332-2.976-2.975s1.332-2.975,2.976-2.975
		C656.288,879.193,657.62,880.525,657.62,882.168"/>
	<path clip-path="url(#SVGID_8_)" fill-rule="evenodd" clip-rule="evenodd" fill="#2C77BC" d="M673.688,882.168
		c0,1.643-1.332,2.975-2.976,2.975c-1.643,0-2.975-1.332-2.975-2.975s1.332-2.975,2.975-2.975
		C672.355,879.193,673.688,880.525,673.688,882.168"/>
	<path clip-path="url(#SVGID_8_)" fill-rule="evenodd" clip-rule="evenodd" fill="#2C77BC" d="M689.755,882.168
		c0,1.643-1.332,2.975-2.976,2.975c-1.643,0-2.975-1.332-2.975-2.975s1.332-2.975,2.975-2.975
		C688.423,879.193,689.755,880.525,689.755,882.168"/>
	<path clip-path="url(#SVGID_8_)" fill-rule="evenodd" clip-rule="evenodd" fill="#2C77BC" d="M705.822,882.168
		c0,1.643-1.332,2.975-2.976,2.975c-1.643,0-2.975-1.332-2.975-2.975s1.332-2.975,2.975-2.975
		C704.49,879.193,705.822,880.525,705.822,882.168"/>
	<path clip-path="url(#SVGID_8_)" fill-rule="evenodd" clip-rule="evenodd" fill="#2C77BC" d="M545.148,898.432
		c0,1.643-1.331,2.975-2.975,2.975c-1.642,0-2.974-1.332-2.974-2.975s1.332-2.975,2.974-2.975
		C543.817,895.457,545.148,896.789,545.148,898.432"/>
	<path clip-path="url(#SVGID_8_)" fill-rule="evenodd" clip-rule="evenodd" fill="#2C77BC" d="M561.216,898.432
		c0,1.643-1.331,2.975-2.975,2.975c-1.642,0-2.974-1.332-2.974-2.975s1.332-2.975,2.974-2.975
		C559.885,895.457,561.216,896.789,561.216,898.432"/>
	<path clip-path="url(#SVGID_8_)" fill-rule="evenodd" clip-rule="evenodd" fill="#2C77BC" d="M577.283,898.432
		c0,1.643-1.332,2.975-2.975,2.975c-1.642,0-2.974-1.332-2.974-2.975s1.332-2.975,2.974-2.975
		C575.951,895.457,577.283,896.789,577.283,898.432"/>
	<path clip-path="url(#SVGID_8_)" fill-rule="evenodd" clip-rule="evenodd" fill="#2C77BC" d="M593.351,898.432
		c0,1.643-1.332,2.975-2.975,2.975c-1.642,0-2.974-1.332-2.974-2.975s1.332-2.975,2.974-2.975
		C592.019,895.457,593.351,896.789,593.351,898.432"/>
	<path clip-path="url(#SVGID_8_)" fill-rule="evenodd" clip-rule="evenodd" fill="#2C77BC" d="M609.418,898.432
		c0,1.643-1.332,2.975-2.975,2.975c-1.644,0-2.975-1.332-2.975-2.975s1.331-2.975,2.975-2.975
		C608.086,895.457,609.418,896.789,609.418,898.432"/>
	<path clip-path="url(#SVGID_8_)" fill-rule="evenodd" clip-rule="evenodd" fill="#2C77BC" d="M625.485,898.432
		c0,1.643-1.332,2.975-2.975,2.975c-1.644,0-2.975-1.332-2.975-2.975s1.331-2.975,2.975-2.975
		C624.153,895.457,625.485,896.789,625.485,898.432"/>
	<path clip-path="url(#SVGID_8_)" fill-rule="evenodd" clip-rule="evenodd" fill="#2C77BC" d="M641.553,898.432
		c0,1.643-1.332,2.975-2.975,2.975c-1.644,0-2.976-1.332-2.976-2.975s1.332-2.975,2.976-2.975
		C640.221,895.457,641.553,896.789,641.553,898.432"/>
	<path clip-path="url(#SVGID_8_)" fill-rule="evenodd" clip-rule="evenodd" fill="#2C77BC" d="M657.62,898.432
		c0,1.643-1.332,2.975-2.975,2.975c-1.644,0-2.976-1.332-2.976-2.975s1.332-2.975,2.976-2.975
		C656.288,895.457,657.62,896.789,657.62,898.432"/>
	<path clip-path="url(#SVGID_8_)" fill-rule="evenodd" clip-rule="evenodd" fill="#2C77BC" d="M673.688,898.432
		c0,1.643-1.332,2.975-2.976,2.975c-1.643,0-2.975-1.332-2.975-2.975s1.332-2.975,2.975-2.975
		C672.355,895.457,673.688,896.789,673.688,898.432"/>
	<path clip-path="url(#SVGID_8_)" fill-rule="evenodd" clip-rule="evenodd" fill="#2C77BC" d="M689.755,898.432
		c0,1.643-1.332,2.975-2.976,2.975c-1.643,0-2.975-1.332-2.975-2.975s1.332-2.975,2.975-2.975
		C688.423,895.457,689.755,896.789,689.755,898.432"/>
	<path clip-path="url(#SVGID_8_)" fill-rule="evenodd" clip-rule="evenodd" fill="#2C77BC" d="M705.822,898.432
		c0,1.643-1.332,2.975-2.976,2.975c-1.643,0-2.975-1.332-2.975-2.975s1.332-2.975,2.975-2.975
		C704.49,895.457,705.822,896.789,705.822,898.432"/>
	
		<rect x="431.692" y="690.447" clip-path="url(#SVGID_8_)" fill="none" stroke="#2C77BC" stroke-width="3.669" stroke-miterlimit="10" width="12.911" height="193.379"/>
	
		<rect x="431.691" y="659.382" clip-path="url(#SVGID_8_)" fill="none" stroke="#2C77BC" stroke-width="3.382" stroke-miterlimit="10" width="96.79" height="12.912"/>
	
		<rect x="419.426" y="938" clip-path="url(#SVGID_8_)" fill="none" stroke="#2C77BC" stroke-width="3.669" stroke-miterlimit="10" width="64.341" height="12.911"/>
	
		<rect x="568.909" y="659.382" clip-path="url(#SVGID_8_)" fill="none" stroke="#2C77BC" stroke-width="3.669" stroke-miterlimit="10" width="128.682" height="12.912"/>
	
		<rect x="577.283" y="761.32" clip-path="url(#SVGID_8_)" fill="none" stroke="#2C77BC" stroke-width="3.669" stroke-miterlimit="10" width="29.16" height="29.16"/>
	
		<rect x="660.595" y="732.716" clip-path="url(#SVGID_8_)" fill="none" stroke="#2C77BC" stroke-width="3.669" stroke-miterlimit="10" width="29.16" height="14.58"/>
	
		<rect x="702.847" y="700.304" clip-path="url(#SVGID_8_)" fill="none" stroke="#2C77BC" stroke-width="3.669" stroke-miterlimit="10" width="29.16" height="14.58"/>
	
		<rect x="702.847" y="765.134" clip-path="url(#SVGID_8_)" fill="none" stroke="#2C77BC" stroke-width="3.669" stroke-miterlimit="10" width="29.16" height="14.58"/>
	
		<rect x="495.601" y="939.808" clip-path="url(#SVGID_8_)" fill="none" stroke="#2C77BC" stroke-width="3.669" stroke-miterlimit="10" width="87.797" height="33.751"/>
	
		<rect x="611.743" y="939.808" clip-path="url(#SVGID_8_)" fill="none" stroke="#2C77BC" stroke-width="3.669" stroke-miterlimit="10" width="87.796" height="33.751"/>
	
		<rect x="743.227" y="732.716" clip-path="url(#SVGID_8_)" fill="none" stroke="#2C77BC" stroke-width="3.669" stroke-miterlimit="10" width="29.16" height="14.58"/>
	
		<rect x="507.685" y="958.496" clip-path="url(#SVGID_8_)" fill-rule="evenodd" clip-rule="evenodd" fill="#2C77BC" width="3.874" height="3.873"/>
	
		<rect x="522.532" y="958.496" clip-path="url(#SVGID_8_)" fill-rule="evenodd" clip-rule="evenodd" fill="#2C77BC" width="3.874" height="3.873"/>
	
		<rect x="537.381" y="958.496" clip-path="url(#SVGID_8_)" fill-rule="evenodd" clip-rule="evenodd" fill="#2C77BC" width="3.873" height="3.873"/>
	
		<rect x="552.229" y="958.496" clip-path="url(#SVGID_8_)" fill-rule="evenodd" clip-rule="evenodd" fill="#2C77BC" width="3.873" height="3.873"/>
	
		<rect x="567.076" y="958.496" clip-path="url(#SVGID_8_)" fill-rule="evenodd" clip-rule="evenodd" fill="#2C77BC" width="3.873" height="3.873"/>
	
		<rect x="623.675" y="958.496" clip-path="url(#SVGID_8_)" fill-rule="evenodd" clip-rule="evenodd" fill="#2C77BC" width="3.873" height="3.873"/>
	
		<rect x="638.523" y="958.496" clip-path="url(#SVGID_8_)" fill-rule="evenodd" clip-rule="evenodd" fill="#2C77BC" width="3.873" height="3.873"/>
	
		<rect x="653.37" y="958.496" clip-path="url(#SVGID_8_)" fill-rule="evenodd" clip-rule="evenodd" fill="#2C77BC" width="3.873" height="3.873"/>
	
		<rect x="668.218" y="958.496" clip-path="url(#SVGID_8_)" fill-rule="evenodd" clip-rule="evenodd" fill="#2C77BC" width="3.874" height="3.873"/>
	
		<rect x="683.066" y="958.496" clip-path="url(#SVGID_8_)" fill-rule="evenodd" clip-rule="evenodd" fill="#2C77BC" width="3.873" height="3.873"/>
	
		<rect x="716.491" y="942.084" clip-path="url(#SVGID_8_)" fill-rule="evenodd" clip-rule="evenodd" fill="#2C77BC" width="3.873" height="3.874"/>
	
		<rect x="733.864" y="942.084" clip-path="url(#SVGID_8_)" fill-rule="evenodd" clip-rule="evenodd" fill="#2C77BC" width="3.873" height="3.874"/>
	
		<rect x="424.657" y="909.262" clip-path="url(#SVGID_8_)" fill-rule="evenodd" clip-rule="evenodd" fill="#2C77BC" width="3.873" height="3.873"/>
	
		<rect x="442.03" y="909.262" clip-path="url(#SVGID_8_)" fill-rule="evenodd" clip-rule="evenodd" fill="#2C77BC" width="3.873" height="3.873"/>
	
		<rect x="749.975" y="942.084" clip-path="url(#SVGID_8_)" fill-rule="evenodd" clip-rule="evenodd" fill="#2C77BC" width="3.873" height="3.874"/>
	
		<line clip-path="url(#SVGID_8_)" fill="none" stroke="#2C77BC" stroke-width="3.669" stroke-miterlimit="10" x1="435.511" y1="938.001" x2="435.511" y2="950.911"/>
	
		<line clip-path="url(#SVGID_8_)" fill="none" stroke="#2C77BC" stroke-width="3.669" stroke-miterlimit="10" x1="451.596" y1="938.001" x2="451.596" y2="950.911"/>
	
		<line clip-path="url(#SVGID_8_)" fill="none" stroke="#2C77BC" stroke-width="3.669" stroke-miterlimit="10" x1="467.682" y1="938.001" x2="467.682" y2="950.911"/>
	
		<rect x="711.045" y="938" clip-path="url(#SVGID_8_)" fill="none" stroke="#2C77BC" stroke-width="3.184" stroke-miterlimit="10" width="48.459" height="12.911"/>
	
		<line clip-path="url(#SVGID_8_)" fill="none" stroke="#2C77BC" stroke-width="3.669" stroke-miterlimit="10" x1="727.13" y1="938.001" x2="727.13" y2="950.911"/>
	
		<line clip-path="url(#SVGID_8_)" fill="none" stroke="#2C77BC" stroke-width="3.669" stroke-miterlimit="10" x1="743.215" y1="938.001" x2="743.215" y2="950.911"/>
	
		<rect x="418.806" y="904.252" clip-path="url(#SVGID_8_)" fill="none" stroke="#2C77BC" stroke-width="3.669" stroke-miterlimit="10" width="32.17" height="12.911"/>
	
		<line clip-path="url(#SVGID_8_)" fill="none" stroke="#2C77BC" stroke-width="3.669" stroke-miterlimit="10" x1="434.891" y1="904.252" x2="434.891" y2="917.163"/>
	
		<line clip-path="url(#SVGID_8_)" fill="none" stroke="#2C77BC" stroke-width="3.669" stroke-miterlimit="10" x1="444.603" y1="867.794" x2="431.691" y2="867.794"/>
	
		<line clip-path="url(#SVGID_8_)" fill="none" stroke="#2C77BC" stroke-width="3.669" stroke-miterlimit="10" x1="444.603" y1="851.299" x2="431.691" y2="851.299"/>
	
		<line clip-path="url(#SVGID_8_)" fill="none" stroke="#2C77BC" stroke-width="3.669" stroke-miterlimit="10" x1="444.603" y1="835.214" x2="431.691" y2="835.214"/>
	
		<line clip-path="url(#SVGID_8_)" fill="none" stroke="#2C77BC" stroke-width="3.669" stroke-miterlimit="10" x1="444.603" y1="819.128" x2="431.691" y2="819.128"/>
	
		<line clip-path="url(#SVGID_8_)" fill="none" stroke="#2C77BC" stroke-width="3.669" stroke-miterlimit="10" x1="444.603" y1="803.043" x2="431.691" y2="803.043"/>
	
		<line clip-path="url(#SVGID_8_)" fill="none" stroke="#2C77BC" stroke-width="3.669" stroke-miterlimit="10" x1="444.603" y1="786.958" x2="431.691" y2="786.958"/>
	
		<line clip-path="url(#SVGID_8_)" fill="none" stroke="#2C77BC" stroke-width="3.669" stroke-miterlimit="10" x1="444.603" y1="770.873" x2="431.691" y2="770.873"/>
	
		<line clip-path="url(#SVGID_8_)" fill="none" stroke="#2C77BC" stroke-width="3.669" stroke-miterlimit="10" x1="444.603" y1="754.787" x2="431.691" y2="754.787"/>
	
		<line clip-path="url(#SVGID_8_)" fill="none" stroke="#2C77BC" stroke-width="3.669" stroke-miterlimit="10" x1="444.603" y1="738.702" x2="431.691" y2="738.702"/>
	
		<line clip-path="url(#SVGID_8_)" fill="none" stroke="#2C77BC" stroke-width="3.669" stroke-miterlimit="10" x1="444.603" y1="722.617" x2="431.691" y2="722.617"/>
	
		<line clip-path="url(#SVGID_8_)" fill="none" stroke="#2C77BC" stroke-width="3.669" stroke-miterlimit="10" x1="444.603" y1="706.531" x2="431.691" y2="706.531"/>
	
		<line clip-path="url(#SVGID_8_)" fill="none" stroke="#2C77BC" stroke-width="3.669" stroke-miterlimit="10" x1="584.994" y1="672.294" x2="584.994" y2="659.382"/>
	
		<line clip-path="url(#SVGID_8_)" fill="none" stroke="#2C77BC" stroke-width="3.669" stroke-miterlimit="10" x1="512.117" y1="672.294" x2="512.117" y2="659.382"/>
	
		<line clip-path="url(#SVGID_8_)" fill="none" stroke="#2C77BC" stroke-width="3.669" stroke-miterlimit="10" x1="496.032" y1="672.294" x2="496.032" y2="659.382"/>
	
		<line clip-path="url(#SVGID_8_)" fill="none" stroke="#2C77BC" stroke-width="3.669" stroke-miterlimit="10" x1="479.947" y1="672.294" x2="479.947" y2="659.382"/>
	
		<line clip-path="url(#SVGID_8_)" fill="none" stroke="#2C77BC" stroke-width="3.669" stroke-miterlimit="10" x1="463.861" y1="672.294" x2="463.861" y2="659.382"/>
	
		<line clip-path="url(#SVGID_8_)" fill="none" stroke="#2C77BC" stroke-width="3.669" stroke-miterlimit="10" x1="447.776" y1="672.294" x2="447.776" y2="659.382"/>
	
		<line clip-path="url(#SVGID_8_)" fill="none" stroke="#2C77BC" stroke-width="3.669" stroke-miterlimit="10" x1="601.079" y1="672.294" x2="601.079" y2="659.382"/>
	
		<line clip-path="url(#SVGID_8_)" fill="none" stroke="#2C77BC" stroke-width="3.669" stroke-miterlimit="10" x1="617.164" y1="672.294" x2="617.164" y2="659.382"/>
	
		<line clip-path="url(#SVGID_8_)" fill="none" stroke="#2C77BC" stroke-width="3.669" stroke-miterlimit="10" x1="633.25" y1="672.294" x2="633.25" y2="659.382"/>
	
		<line clip-path="url(#SVGID_8_)" fill="none" stroke="#2C77BC" stroke-width="3.669" stroke-miterlimit="10" x1="649.335" y1="672.294" x2="649.335" y2="659.382"/>
	
		<line clip-path="url(#SVGID_8_)" fill="none" stroke="#2C77BC" stroke-width="3.669" stroke-miterlimit="10" x1="665.42" y1="672.294" x2="665.42" y2="659.382"/>
	
		<line clip-path="url(#SVGID_8_)" fill="none" stroke="#2C77BC" stroke-width="3.669" stroke-miterlimit="10" x1="681.506" y1="672.294" x2="681.506" y2="659.382"/>
	<path clip-path="url(#SVGID_8_)" fill="#2A77BC" d="M463.013,647.161v4.962h-1.751v-11.33h3.294c2.005,0,3.115,1.075,3.115,3.038
		c0,1.657-0.862,2.369-1.485,2.604c0.936,0.397,1.321,1.205,1.321,2.85v0.451c0,1.208,0.051,1.781,0.155,2.388h-1.714
		c-0.162-0.518-0.185-1.453-0.185-2.409v-0.404c0-1.548-0.342-2.148-1.707-2.148H463.013z M463.013,645.718h1.121
		c1.277,0,1.771-0.614,1.771-1.816c0-1.032-0.487-1.665-1.599-1.665h-1.293V645.718z M476.122,646.367
		c0,4.048-1.055,5.942-3.613,5.942c-2.403,0-3.516-1.853-3.516-5.951c0-4.011,1.298-5.739,3.597-5.739
		C475.016,640.619,476.122,642.466,476.122,646.367 M470.801,646.337c0,2.874,0.491,4.482,1.753,4.482
		c1.319,0,1.76-1.515,1.76-4.473c0-2.859-0.472-4.226-1.765-4.226C471.279,642.121,470.801,643.621,470.801,646.337
		 M477.776,640.793h3.282c1.873,0,2.941,1.064,2.941,2.834c0,1.459-0.699,2.143-1.338,2.376c0.821,0.319,1.681,1.073,1.681,2.793
		c0,2.113-1.344,3.327-3.343,3.327h-3.223V640.793z M480.591,645.384c1.316,0,1.711-0.537,1.711-1.597
		c0-1.038-0.547-1.579-1.61-1.579h-1.189v3.176H480.591z M479.503,650.732h1.318c1.121,0,1.753-0.616,1.753-1.963
		c0-1.286-0.583-1.995-1.981-1.995h-1.09V650.732z M492.631,646.367c0,4.048-1.056,5.942-3.613,5.942
		c-2.404,0-3.516-1.853-3.516-5.951c0-4.011,1.298-5.739,3.596-5.739C491.525,640.619,492.631,642.466,492.631,646.367
		 M487.309,646.337c0,2.874,0.492,4.482,1.754,4.482c1.319,0,1.76-1.515,1.76-4.473c0-2.859-0.473-4.226-1.765-4.226
		C487.787,642.121,487.309,643.621,487.309,646.337 M495.554,642.342h-2.456v-1.549h6.675v1.549h-2.456v9.781h-1.763V642.342z
		 M505.776,652.123h-1.762v-11.33h1.762V652.123z M507.877,652.123v-11.33h2.041c2.612,6.802,3.058,7.953,3.198,8.486h0.016
		c-0.09-1.416-0.1-3.097-0.1-4.948v-3.538h1.591v11.33h-1.954c-2.705-7.209-3.125-8.356-3.265-8.852h-0.017
		c0.084,1.402,0.089,3.135,0.089,5.168v3.684H507.877z M520.661,652.123h-1.763l2.662-11.33h2.285l2.709,11.33h-1.852l-0.657-3.105
		h-2.733L520.661,652.123z M523.72,647.481c-0.503-2.38-0.871-4.027-1.04-5.048h-0.045c-0.143,1.023-0.538,2.841-1.003,5.048H523.72
		z M537.182,648.881c-0.05,0.602-0.291,3.429-3.299,3.429c-3.151,0-3.472-2.953-3.472-5.889c0-3.541,1.005-5.802,3.599-5.802
		c2.911,0,3.117,2.57,3.157,3.404h-1.749c-0.028-0.385-0.07-1.893-1.436-1.893c-1.449,0-1.747,1.859-1.747,4.32
		c0,2.224,0.231,4.37,1.682,4.37c1.312,0,1.454-1.46,1.504-1.94H537.182z M539.645,652.123h-1.763l2.663-11.33h2.284l2.709,11.33
		h-1.853l-0.656-3.105h-2.732L539.645,652.123z M542.704,647.481c-0.503-2.38-0.871-4.027-1.04-5.048h-0.045
		c-0.144,1.023-0.538,2.841-1.002,5.048H542.704z M546.598,652.123v-11.33h2.041c2.612,6.802,3.058,7.953,3.197,8.486h0.017
		c-0.09-1.416-0.101-3.097-0.101-4.948v-3.538h1.592v11.33h-1.954c-2.705-7.209-3.125-8.356-3.265-8.852h-0.017
		c0.084,1.402,0.089,3.135,0.089,5.168v3.684H546.598z"/>
	<path clip-path="url(#SVGID_8_)" fill="#2A77BC" d="M519.989,773.074v-1.353c0.336-0.045,0.62-0.079,1.053-0.091
		c-0.86-0.46-1.239-1.171-1.239-2.256c0-2.396,2.252-3.18,5.8-3.18c4.056,0,5.89,1.329,5.89,3.717c0,2.949-2.556,3.122-3.23,3.155
		v-1.744c0.439-0.034,1.729-0.129,1.729-1.463c0-1.407-1.791-1.84-4.379-1.84c-2.707,0-4.32,0.349-4.32,1.745
		c0,1.229,0.979,1.563,2.889,1.563h0.607v-1.677h1.513v3.423H519.989z M525.745,793.313c-4.048,0-5.942-1.056-5.942-3.613
		c0-2.403,1.853-3.516,5.95-3.516c4.011,0,5.74,1.298,5.74,3.596C531.493,792.206,529.647,793.313,525.745,793.313 M531.319,778.164
		c0,1.841-1.12,3.185-3.296,3.185c-2.13,0-3.327-1.215-3.327-3.349v-1.314h-4.707v-1.763h11.33V778.164z M531.319,784.497h-11.33
		v-1.763h11.33V784.497z M525.775,787.991c-2.874,0-4.482,0.491-4.482,1.753c0,1.319,1.515,1.761,4.472,1.761
		c2.861,0,4.227-0.473,4.227-1.766C529.992,788.469,528.492,787.991,525.775,787.991 M526.127,776.686v1.118
		c0,1.205,0.613,1.772,1.919,1.772c1.174,0,1.831-0.609,1.831-1.652v-1.238H526.127z"/>
	<path clip-path="url(#SVGID_8_)" fill="#2A77BC" d="M531.548,688.202h1.064v5.93h2.377l-0.115,0.913h-3.326V688.202z
		 M536.693,695.045h-1.065v-6.843h1.065V695.045z M541.864,695.045h-0.817c-0.027-0.202-0.047-0.374-0.055-0.637
		c-0.277,0.521-0.707,0.75-1.362,0.75c-1.448,0-1.921-1.36-1.921-3.504c0-2.449,0.802-3.558,2.245-3.558
		c1.782,0,1.886,1.544,1.906,1.951h-1.054c-0.02-0.265-0.077-1.044-0.883-1.044c-0.85,0-1.112,1.081-1.112,2.645
		c0,1.635,0.211,2.609,1.054,2.609c0.744,0,0.944-0.592,0.944-1.745v-0.367h-1.012v-0.913h2.067V695.045z M542.98,688.202h1.065
		v2.769h1.844v-2.769h1.065v6.843h-1.065v-3.146h-1.844v3.146h-1.065V688.202z M549.113,689.137h-1.484v-0.935h4.032v0.935h-1.484
		v5.908h-1.064V689.137z"/>
	<path clip-path="url(#SVGID_8_)" fill="#2A77BC" d="M579.316,752.645v2.997h-1.058v-6.844h1.989c1.212,0,1.882,0.649,1.882,1.835
		c0,1.001-0.52,1.432-0.897,1.572c0.565,0.241,0.797,0.729,0.797,1.722v0.272c0,0.729,0.032,1.076,0.095,1.442h-1.036
		c-0.098-0.313-0.112-0.878-0.112-1.455v-0.244c0-0.935-0.206-1.298-1.031-1.298H579.316z M579.316,751.772h0.676
		c0.772,0,1.07-0.37,1.07-1.097c0-0.623-0.294-1.006-0.965-1.006h-0.781V751.772z M587.08,755.642h-0.816
		c-0.027-0.203-0.048-0.374-0.055-0.636c-0.278,0.52-0.707,0.748-1.363,0.748c-1.447,0-1.92-1.36-1.92-3.503
		c0-2.45,0.802-3.558,2.245-3.558c1.781,0,1.885,1.543,1.905,1.95h-1.053c-0.02-0.265-0.078-1.044-0.884-1.044
		c-0.85,0-1.111,1.082-1.111,2.646c0,1.635,0.211,2.609,1.054,2.609c0.743,0,0.944-0.592,0.944-1.745v-0.366h-1.013v-0.915h2.067
		V755.642z M588.189,748.798h1.982c1.132,0,1.776,0.643,1.776,1.712c0,0.882-0.422,1.294-0.808,1.436
		c0.496,0.192,1.015,0.648,1.015,1.687c0,1.277-0.811,2.01-2.018,2.01h-1.947V748.798z M589.889,751.57
		c0.795,0,1.033-0.323,1.033-0.964c0-0.627-0.33-0.954-0.972-0.954h-0.718v1.918H589.889z M589.232,754.802h0.796
		c0.677,0,1.059-0.372,1.059-1.185c0-0.778-0.352-1.206-1.197-1.206h-0.658V754.802z M595.023,748.798h1.065v5.93h2.376
		l-0.115,0.914h-3.326V748.798z M602.38,752.517h-2.226v2.204h2.489l-0.134,0.921h-3.406v-6.844h3.384v0.936h-2.333v1.855h2.226
		V752.517z M603.415,748.798h1.693c1.698,0,2.391,1.12,2.391,3.269c0,2.314-0.65,3.575-2.49,3.575h-1.594V748.798z M604.487,754.764
		h0.503c1.058,0,1.411-0.814,1.411-2.686c0-1.657-0.353-2.387-1.4-2.387h-0.513V754.764z"/>
	<path clip-path="url(#SVGID_8_)" fill="#2A77BC" d="M642.634,790.458h1.983c1.131,0,1.775,0.643,1.775,1.712
		c0,0.881-0.422,1.294-0.809,1.435c0.497,0.193,1.016,0.648,1.016,1.688c0,1.276-0.811,2.01-2.019,2.01h-1.947V790.458z
		 M644.334,793.23c0.796,0,1.034-0.324,1.034-0.964c0-0.627-0.331-0.954-0.973-0.954h-0.718v1.918H644.334z M643.678,796.462h0.796
		c0.677,0,1.059-0.372,1.059-1.186c0-0.777-0.353-1.206-1.196-1.206h-0.658V796.462z M648.536,794.305v2.997h-1.058v-6.844h1.99
		c1.211,0,1.881,0.649,1.881,1.835c0,1.001-0.521,1.432-0.896,1.572c0.565,0.24,0.797,0.729,0.797,1.722v0.272
		c0,0.729,0.032,1.076,0.095,1.442h-1.035c-0.099-0.313-0.112-0.878-0.112-1.455v-0.244c0-0.935-0.206-1.298-1.031-1.298H648.536z
		 M648.536,793.433h0.678c0.771,0,1.069-0.37,1.069-1.098c0-0.623-0.294-1.005-0.966-1.005h-0.781V793.433z M655.613,794.177h-2.226
		v2.204h2.489l-0.135,0.921h-3.405v-6.844h3.384v0.936h-2.333v1.855h2.226V794.177z M657.43,797.302h-1.064l1.608-6.844h1.38
		l1.636,6.844h-1.119l-0.396-1.876h-1.65L657.43,797.302z M659.277,794.498c-0.304-1.437-0.525-2.433-0.628-3.049h-0.027
		c-0.087,0.618-0.325,1.716-0.605,3.049H659.277z M661.627,790.458h1.693c1.699,0,2.391,1.119,2.391,3.269
		c0,2.314-0.65,3.575-2.49,3.575h-1.594V790.458z M662.699,796.424h0.502c1.059,0,1.411-0.814,1.411-2.686
		c0-1.657-0.353-2.388-1.4-2.388h-0.513V796.424z M666.701,790.458h1.982c1.132,0,1.775,0.643,1.775,1.712
		c0,0.881-0.421,1.294-0.807,1.435c0.495,0.193,1.014,0.648,1.014,1.688c0,1.276-0.811,2.01-2.018,2.01h-1.947V790.458z
		 M668.401,793.23c0.795,0,1.033-0.324,1.033-0.964c0-0.627-0.33-0.954-0.973-0.954h-0.718v1.918H668.401z M667.744,796.462h0.796
		c0.678,0,1.06-0.372,1.06-1.186c0-0.777-0.353-1.206-1.197-1.206h-0.658V796.462z M675.672,793.825
		c0,2.444-0.638,3.589-2.182,3.589c-1.452,0-2.124-1.119-2.124-3.594c0-2.423,0.784-3.467,2.172-3.467
		C675.004,790.354,675.672,791.469,675.672,793.825 M672.457,793.807c0,1.736,0.298,2.708,1.061,2.708
		c0.796,0,1.063-0.915,1.063-2.702c0-1.728-0.285-2.553-1.066-2.553C672.746,791.26,672.457,792.166,672.457,793.807
		 M677.145,797.302h-1.065l1.608-6.844h1.38l1.637,6.844h-1.12l-0.396-1.876h-1.649L677.145,797.302z M678.992,794.498
		c-0.305-1.437-0.526-2.433-0.628-3.049h-0.027c-0.088,0.618-0.325,1.716-0.606,3.049H678.992z M682.398,794.305v2.997h-1.057
		v-6.844h1.989c1.21,0,1.881,0.649,1.881,1.835c0,1.001-0.521,1.432-0.896,1.572c0.565,0.24,0.798,0.729,0.798,1.722v0.272
		c0,0.729,0.031,1.076,0.094,1.442h-1.035c-0.098-0.313-0.112-0.878-0.112-1.455v-0.244c0-0.935-0.206-1.298-1.031-1.298H682.398z
		 M682.398,793.433h0.678c0.771,0,1.069-0.37,1.069-1.098c0-0.623-0.294-1.005-0.965-1.005h-0.782V793.433z M686.199,790.458h1.693
		c1.698,0,2.391,1.119,2.391,3.269c0,2.314-0.65,3.575-2.49,3.575h-1.594V790.458z M687.271,796.424h0.503
		c1.059,0,1.41-0.814,1.41-2.686c0-1.657-0.352-2.388-1.4-2.388h-0.513V796.424z"/>
	<path clip-path="url(#SVGID_8_)" fill="#2A77BC" d="M528.431,734.829c0.057,0.614,0.323,1.136,0.991,1.136
		c0.642,0,0.913-0.383,0.913-0.988c0-0.615-0.282-0.962-1.169-1.387c-1.138-0.542-1.602-1.027-1.602-2.036
		c0-1.043,0.67-1.794,1.866-1.794c1.465,0,1.837,1.01,1.858,1.87h-1.044c-0.037-0.371-0.138-1.02-0.837-1.02
		c-0.544,0-0.783,0.361-0.783,0.854c0,0.549,0.245,0.806,1.066,1.19c1.218,0.569,1.73,1.127,1.73,2.229
		c0,1.077-0.647,1.932-2.029,1.932c-1.504,0-1.975-0.97-2.021-1.985H528.431z M535.592,733.581h-2.226v2.203h2.489l-0.134,0.921
		h-3.406v-6.843h3.384v0.935h-2.333v1.855h2.226V733.581z M536.627,736.705v-6.843h1.233c1.577,4.107,1.847,4.803,1.931,5.125h0.01
		c-0.054-0.855-0.06-1.87-0.06-2.988v-2.137h0.961v6.843h-1.181c-1.633-4.354-1.887-5.048-1.972-5.348h-0.009
		c0.05,0.849,0.053,1.895,0.053,3.123v2.225H536.627z M542.59,734.829c0.058,0.614,0.323,1.136,0.991,1.136
		c0.643,0,0.913-0.383,0.913-0.988c0-0.615-0.282-0.962-1.169-1.387c-1.138-0.542-1.601-1.027-1.601-2.036
		c0-1.043,0.67-1.794,1.866-1.794c1.465,0,1.837,1.01,1.857,1.87h-1.044c-0.037-0.371-0.138-1.02-0.837-1.02
		c-0.544,0-0.782,0.361-0.782,0.854c0,0.549,0.244,0.806,1.066,1.19c1.217,0.569,1.729,1.127,1.729,2.229
		c0,1.077-0.646,1.932-2.029,1.932c-1.504,0-1.974-0.97-2.02-1.985H542.59z M550.562,733.229c0,2.445-0.638,3.589-2.182,3.589
		c-1.452,0-2.124-1.119-2.124-3.594c0-2.423,0.785-3.467,2.172-3.467C549.894,729.757,550.562,730.872,550.562,733.229
		 M547.348,733.21c0,1.736,0.297,2.708,1.059,2.708c0.797,0,1.063-0.915,1.063-2.701c0-1.728-0.285-2.553-1.066-2.553
		C547.636,730.664,547.348,731.569,547.348,733.21 M552.624,733.708v2.997h-1.058v-6.843h1.99c1.211,0,1.881,0.649,1.881,1.834
		c0,1.001-0.52,1.432-0.896,1.573c0.565,0.24,0.797,0.728,0.797,1.721v0.272c0,0.729,0.032,1.076,0.094,1.442h-1.035
		c-0.098-0.313-0.112-0.877-0.112-1.455v-0.243c0-0.936-0.206-1.299-1.031-1.299H552.624z M552.624,732.836h0.677
		c0.772,0,1.07-0.37,1.07-1.097c0-0.623-0.294-1.007-0.966-1.007h-0.781V732.836z"/>
</g>
<text transform="matrix(1 0 0 1 451.3916 704.9004)"><tspan x="0" y="0" fill="#2A77BC" font-family="'OCRAStd'" font-size="12.6242">3.3</tspan><tspan x="25.45" y="0" fill="#2A77BC" font-family="'OCRAStd'" font-size="12.6242"> </tspan></text>
<text transform="matrix(1 0 0 1 485.2749 704.9004)" fill="#2A77BC" font-family="'OCRAStd'" font-size="12.6242">V</text>
<text transform="matrix(1 0 0 1 451.3916 720.8066)"><tspan x="0" y="0" fill="#2A77BC" font-family="'OCRAStd'" font-size="12.6242">G</tspan><tspan x="8.483" y="0" fill="#2A77BC" font-family="'OCRAStd'" font-size="12.6242">N</tspan></text>
<text transform="matrix(1 0 0 1 468.3335 720.8066)" fill="#2A77BC" font-family="'OCRAStd'" font-size="12.6242">D</text>
<text transform="matrix(1 0 0 1 451.3916 752.6201)"><tspan x="0" y="0" fill="#2A77BC" font-family="'OCRAStd'" font-size="12.6242">4 (I</tspan><tspan x="33.934" y="0" fill="#2A77BC" font-family="'OCRAStd'" font-size="12.6242">O</tspan></text>
<text transform="matrix(1 0 0 1 493.7461 752.6201)" fill="#2A77BC" font-family="'OCRAStd'" font-size="12.6242">)</text>
<text transform="matrix(1 0 0 1 451.3916 768.5264)"><tspan x="0" y="0" fill="#2A77BC" font-family="'OCRAStd'" font-size="12.6242">5 (P</tspan><tspan x="33.934" y="0" fill="#2A77BC" font-family="'OCRAStd'" font-size="12.6242">W</tspan></text>
<text transform="matrix(1 0 0 1 493.7461 768.5264)" fill="#2A77BC" font-family="'OCRAStd'" font-size="12.6242">)</text>
<text transform="matrix(1 0 0 1 451.3916 784.4326)"><tspan x="0" y="0" fill="#2A77BC" font-family="'OCRAStd'" font-size="12.6242">10 (P</tspan><tspan x="42.417" y="0" fill="#2A77BC" font-family="'OCRAStd'" font-size="12.6242">W</tspan></text>
<text transform="matrix(1 0 0 1 502.2168 784.4326)" fill="#2A77BC" font-family="'OCRAStd'" font-size="12.6242">)</text>
<text transform="matrix(1 0 0 1 451.3916 800.3398)"><tspan x="0" y="0" fill="#2A77BC" font-family="'OCRAStd'" font-size="12.6242">16 (P</tspan><tspan x="42.417" y="0" fill="#2A77BC" font-family="'OCRAStd'" font-size="12.6242">W</tspan></text>
<text transform="matrix(1 0 0 1 502.2168 800.3398)" fill="#2A77BC" font-family="'OCRAStd'" font-size="12.6242">)</text>
<text transform="matrix(1 0 0 1 451.3916 816.2461)"><tspan x="0" y="0" fill="#2A77BC" font-family="'OCRAStd'" font-size="12.6242">14 (</tspan><tspan x="33.934" y="0" fill="#2A77BC" font-family="'OCRAStd'" font-size="12.6242">L</tspan></text>
<text transform="matrix(1 0 0 1 493.7461 816.2461)" fill="#2A77BC" font-family="'OCRAStd'" font-size="12.6242">)</text>
<text transform="matrix(1 0 0 1 451.3916 832.1523)"><tspan x="0" y="0" fill="#2A77BC" font-family="'OCRAStd'" font-size="12.6242">12 (</tspan><tspan x="33.934" y="0" fill="#2A77BC" font-family="'OCRAStd'" font-size="12.6242">D</tspan></text>
<text transform="matrix(1 0 0 1 493.7461 832.1523)" fill="#2A77BC" font-family="'OCRAStd'" font-size="12.6242">)</text>
<text transform="matrix(1 0 0 1 451.3916 848.0586)"><tspan x="0" y="0" fill="#2A77BC" font-family="'OCRAStd'" font-size="12.6242">13 (</tspan><tspan x="33.934" y="0" fill="#2A77BC" font-family="'OCRAStd'" font-size="12.6242">C</tspan></text>
<text transform="matrix(1 0 0 1 493.7461 848.0586)" fill="#2A77BC" font-family="'OCRAStd'" font-size="12.6242">)</text>
<text transform="matrix(1 0 0 1 708.9258 694.8008)" fill="#2A77BC" font-family="'OCRAStd'" font-size="12.6242">S</text>
<text transform="matrix(1 0 0 1 717.3965 694.8008)" fill="#2A77BC" font-family="'OCRAStd'" font-size="12.6242">1</text>
<text transform="matrix(1 0 0 1 708.9258 794.5322)" fill="#2A77BC" font-family="'OCRAStd'" font-size="12.6242">S</text>
<text transform="matrix(1 0 0 1 717.3965 794.5322)" fill="#2A77BC" font-family="'OCRAStd'" font-size="12.6242">3</text>
<text transform="matrix(1 0 0 1 667.2656 761.709)" fill="#2A77BC" font-family="'OCRAStd'" font-size="12.6242">S</text>
<text transform="matrix(1 0 0 1 675.7363 761.709)" fill="#2A77BC" font-family="'OCRAStd'" font-size="12.6242">4</text>
<text transform="matrix(1 0 0 1 750.585 761.709)" fill="#2A77BC" font-family="'OCRAStd'" font-size="12.6242">S</text>
<text transform="matrix(1 0 0 1 759.0557 761.709)" fill="#2A77BC" font-family="'OCRAStd'" font-size="12.6242">2</text>
<text transform="matrix(1 0 0 1 452.6543 863.9648)"><tspan x="0" y="0" fill="#2A77BC" font-family="'OCRAStd'" font-size="8.8369">0 (12C-</tspan><tspan x="41.567" y="0" fill="#2A77BC" font-family="'OCRAStd'" font-size="8.8369">D</tspan></text>
<text transform="matrix(1 0 0 1 500.0908 863.9648)" fill="#2A77BC" font-family="'OCRAStd'" font-size="8.8369">)</text>
<text transform="matrix(1 0 0 1 452.6543 879.8711)"><tspan x="0" y="0" fill="#2A77BC" font-family="'OCRAStd'" font-size="8.8369">2 (12C-</tspan><tspan x="41.567" y="0" fill="#2A77BC" font-family="'OCRAStd'" font-size="8.8369">D</tspan></text>
<text transform="matrix(1 0 0 1 500.0908 879.8711)" fill="#2A77BC" font-family="'OCRAStd'" font-size="8.8369">)</text>
<text transform="matrix(1 0 0 1 418.3496 898.0488)"><tspan x="0" y="0" fill="#2A77BC" font-family="'OCRAStd'" font-size="8.8369">V + G</tspan><tspan x="29.69" y="0" fill="#2A77BC" font-family="'OCRAStd'" font-size="8.8369">N</tspan></text>
<text transform="matrix(1 0 0 1 453.9268 898.0488)" fill="#2A77BC" font-family="'OCRAStd'" font-size="8.8369">D</text>
<text transform="matrix(1 0 0 1 419.8252 933.3965)" fill="#2A77BC" font-family="'OCRAStd'" font-size="8.8369">C</text>
<text transform="matrix(1 0 0 1 425.7549 933.3965)" fill="#2A77BC" font-family="'OCRAStd'" font-size="8.8369">K</text>
<text transform="matrix(1 0 0 1 470.3193 933.3965)" fill="#2A77BC" font-family="'OCRAStd'" font-size="8.8369">C</text>
<text transform="matrix(1 0 0 1 476.249 933.3965)" fill="#2A77BC" font-family="'OCRAStd'" font-size="8.8369">O</text>
<text transform="matrix(1 0 0 1 453.9092 933.3965)" fill="#2A77BC" font-family="'OCRAStd'" font-size="8.8369">M</text>
<text transform="matrix(1 0 0 1 459.8389 933.3965)" fill="#2A77BC" font-family="'OCRAStd'" font-size="8.8369">I</text>
<text transform="matrix(1 0 0 1 437.499 933.3965)" fill="#2A77BC" font-family="'OCRAStd'" font-size="8.8369">M</text>
<text transform="matrix(1 0 0 1 443.4287 933.3965)" fill="#2A77BC" font-family="'OCRAStd'" font-size="8.8369">O</text>
<g>
	<defs>
		<rect id="SVGID_9_" width="1210" height="1178"/>
	</defs>
	<clipPath id="SVGID_10_">
		<use xlink:href="#SVGID_9_"  overflow="visible"/>
	</clipPath>
	
		<rect x="767.466" y="852.616" clip-path="url(#SVGID_10_)" fill="none" stroke="#2C77BC" stroke-width="3.669" stroke-miterlimit="10" width="16.067" height="37.809"/>
	
		<rect x="783.533" y="856.085" clip-path="url(#SVGID_10_)" fill-rule="evenodd" clip-rule="evenodd" fill="#2C77BC" width="6.742" height="6.743"/>
</g>
<text transform="matrix(1 0 0 1 775.5059 905.8125)" fill="#2C77BC" font-family="'Nunito-ExtraBold'" font-size="17.6117">0</text>
<text transform="matrix(1 0 0 1 775.5059 844.7529)" fill="#2C77BC" font-family="'Nunito-ExtraBold'" font-size="17.6117">1</text>
<g>
	<defs>
		<rect id="SVGID_11_" width="1210" height="1178"/>
	</defs>
	<clipPath id="SVGID_12_">
		<use xlink:href="#SVGID_11_"  overflow="visible"/>
	</clipPath>
	<path clip-path="url(#SVGID_12_)" fill="none" stroke="#2A77BC" stroke-width="1.56" stroke-miterlimit="10" d="M431.064,688.654
		h66.698c10.299,0,18.726,8.427,18.726,18.726v159.486c0,10.299-8.427,18.726-18.726,18.726h-66.698"/>
	<rect x="445.161" y="722.739" clip-path="url(#SVGID_12_)" fill="#2A77BC" width="70.696" height="16.412"/>
</g>
<text transform="matrix(1 0 0 1 471.5898 736.4609)" fill="#FFFFFF" font-family="'OCRAStd'" font-size="13.4716">A</text>
<text transform="matrix(1 0 0 1 480.6294 736.4609)" fill="#FFFFFF" font-family="'OCRAStd'" font-size="13.4716">O</text>
<g>
	<defs>
		<rect id="SVGID_13_" width="1210" height="1178"/>
	</defs>
	<clipPath id="SVGID_14_">
		<use xlink:href="#SVGID_13_"  overflow="visible"/>
	</clipPath>
	
		<line clip-path="url(#SVGID_14_)" fill="none" stroke="#2A77BC" stroke-width="1.262" stroke-miterlimit="10" x1="444.53" y1="802.902" x2="516.488" y2="802.902"/>
	
		<line clip-path="url(#SVGID_14_)" fill="none" stroke="#2A77BC" stroke-width="1.262" stroke-miterlimit="10" x1="444.53" y1="850.244" x2="516.488" y2="850.244"/>
	<path clip-path="url(#SVGID_14_)" fill="none" stroke="#2C77BC" stroke-width="3.669" stroke-miterlimit="10" d="M556.834,712.765
		c0-5.314-2.754-10.011-6.901-12.749h-16.745c-4.147,2.738-6.902,7.435-6.902,12.749c0,4.781,2.231,9.062,5.698,11.868h19.153
		C554.604,721.826,556.834,717.546,556.834,712.765z"/>
	
		<rect x="376.794" y="198.387" clip-path="url(#SVGID_14_)" fill="none" stroke="#2C77BC" stroke-width="3.669" stroke-miterlimit="10" width="445.685" height="373.823"/>
	<path clip-path="url(#SVGID_14_)" fill="none" stroke="#35D9EF" stroke-width="12.85" stroke-miterlimit="10" d="M305.742,933.399
		c7.55,19.69,21.778,44.943,47.479,58.183c45.961,23.678,98.002,29.764,140.866-0.167"/>
	<path clip-path="url(#SVGID_14_)" fill="none" stroke="#35D9EF" stroke-width="5.711" stroke-miterlimit="10" d="M475.35,1001.211
		c4.633-1.049,9.202-2.334,13.684-3.86"/>
	<path clip-path="url(#SVGID_14_)" fill="#35D9EF" d="M519.828,981.864c-11.949,12.51-25.548,30.55-32.003,45.787l-3.056-28.722
		l-20.718-20.116C480.026,983.134,502.613,983.557,519.828,981.864"/>
	<polygon clip-path="url(#SVGID_14_)" fill="#FFFFFF" points="244.594,869.479 326.406,845.465 340.034,892.133 260.812,917.91 	"/>
	
		<polygon clip-path="url(#SVGID_14_)" fill="none" stroke="#1A77BC" stroke-width="3.729" stroke-linejoin="round" stroke-miterlimit="10" points="
		244.594,869.479 326.406,845.465 340.034,892.133 260.812,917.91 	"/>
	<path clip-path="url(#SVGID_14_)" fill="#FFFFFF" d="M934.947,862.827c0,0,30.583-46.98-32.014-131.883
		c-62.596-84.901-21.571-99.585,0.851-85.788c125.627,77.307,151.881-49.944,157.017-88.973
		c5.138-39.027-13.063-93.47-47.399-129.803c-31.56-33.396-92.938-89.504-120.406-174.952
		c-18.802-58.489-13.481-115.369-53.919-137.104c-50.892-27.357-126.101,84.064-126.101,84.064h45.182
		c0,0,75.509-125.844,86.793,1.922c11.284,127.767,144.338,236.073,165.263,286.797c20.925,50.725,14.36,83.768,14.36,83.768
		s-26.505,113.248-106.462,49.24c0,0-45.128-27.339-66.479,6.935c-2.685,4.31-30.95,45.244,22.903,112.957
		c62.996,79.208,28.397,116.078,28.397,116.078"/>
	
		<path clip-path="url(#SVGID_14_)" fill="none" stroke="#1A77BC" stroke-width="3.729" stroke-linejoin="round" stroke-miterlimit="10" d="
		M934.947,862.827c0,0,30.583-46.98-32.014-131.883c-62.596-84.901-21.571-99.585,0.851-85.788
		c125.627,77.307,151.881-49.944,157.017-88.973c5.138-39.027-13.063-93.47-47.399-129.803
		c-31.56-33.396-92.938-89.504-120.406-174.952c-18.802-58.489-13.481-115.369-53.919-137.104
		c-50.892-27.357-126.101,84.064-126.101,84.064h45.182c0,0,75.509-125.844,86.793,1.922
		c11.284,127.767,144.338,236.073,165.263,286.797c20.925,50.725,14.36,83.768,14.36,83.768s-26.505,113.248-106.462,49.24
		c0,0-45.128-27.339-66.479,6.935c-2.685,4.31-30.95,45.244,22.903,112.957c62.996,79.208,28.397,116.078,28.397,116.078"/>
	<path clip-path="url(#SVGID_14_)" fill="none" stroke="#35D9EF" stroke-width="12.85" stroke-miterlimit="10" d="M896.946,933.399
		c-7.55,19.69-21.778,44.943-47.48,58.183c-45.961,23.678-98.002,29.764-140.864-0.167"/>
	<path clip-path="url(#SVGID_14_)" fill="none" stroke="#35D9EF" stroke-width="5.711" stroke-miterlimit="10" d="M727.338,1001.211
		c-4.633-1.049-9.201-2.334-13.684-3.86"/>
	<path clip-path="url(#SVGID_14_)" fill="#35D9EF" d="M682.859,981.864c17.217,1.688,39.805,1.264,55.78-3.056l-20.722,20.121
		l-3.053,28.717C708.41,1012.409,694.811,994.369,682.859,981.864"/>
	<polygon clip-path="url(#SVGID_14_)" fill="#FFFFFF" points="958.094,869.479 876.28,845.465 862.654,892.133 941.876,917.91 	"/>
	
		<polygon clip-path="url(#SVGID_14_)" fill="none" stroke="#1A77BC" stroke-width="3.729" stroke-linejoin="round" stroke-miterlimit="10" points="
		958.094,869.479 876.28,845.465 862.654,892.133 941.876,917.91 	"/>
</g>
<text transform="matrix(1 0 0 1 220.4443 1031.2607)" fill="#35D9EF" font-family="'NunitoSans-ExtraBold'" font-size="79.0528">L</text>
<text transform="matrix(1 0 0 1 946.5439 1031.2607)" fill="#35D9EF" font-family="'NunitoSans-ExtraBold'" font-size="79.0528">R</text>
<g>
	<defs>
		<rect id="SVGID_15_" width="1210" height="1178"/>
	</defs>
	<clipPath id="SVGID_16_">
		<use xlink:href="#SVGID_15_"  overflow="visible"/>
	</clipPath>
	<path clip-path="url(#SVGID_16_)" fill="none" stroke="#2C77BC" stroke-width="3.669" stroke-miterlimit="10" d="M773.743,337.201
		l-10.868-2.223c4.799,25.302-9.641,50.309-33.954,58.806l7.36,8.304C761.802,391.187,777.063,364.751,773.743,337.201z"/>
	<path clip-path="url(#SVGID_16_)" fill="none" stroke="#2C77BC" stroke-width="3.669" stroke-miterlimit="10" d="M687.231,402.088
		l7.358-8.304c-24.313-8.497-38.753-33.504-33.951-58.806l-10.869,2.223C646.45,364.751,661.71,391.188,687.231,402.088z"/>
	<path clip-path="url(#SVGID_16_)" fill="none" stroke="#2C77BC" stroke-width="3.669" stroke-miterlimit="10" d="M674.294,294.721
		l3.51,10.526c19.512-16.807,48.39-16.807,67.904,0l3.511-10.526C727.018,278.073,696.495,278.073,674.294,294.721z"/>
	<path clip-path="url(#SVGID_16_)" fill="none" stroke="#2C77BC" stroke-width="3.669" stroke-miterlimit="10" d="M431.239,337.201
		l10.87-2.223c-4.8,25.302,9.639,50.309,33.952,58.806l-7.36,8.304C443.184,391.187,427.92,364.751,431.239,337.201z"/>
	<path clip-path="url(#SVGID_16_)" fill="none" stroke="#2C77BC" stroke-width="3.669" stroke-miterlimit="10" d="M517.755,402.088
		l-7.363-8.304c24.317-8.497,38.753-33.504,33.956-58.806l10.866,2.223C558.536,364.751,543.273,391.188,517.755,402.088z"/>
	<path clip-path="url(#SVGID_16_)" fill="none" stroke="#2C77BC" stroke-width="3.669" stroke-miterlimit="10" d="M530.688,294.721
		l-3.506,10.526c-19.517-16.807-48.391-16.807-67.908,0l-3.507-10.526C477.965,278.073,508.491,278.073,530.688,294.721z"/>
</g>
<text transform="matrix(1 0 0 1 513.0459 546.418)"><tspan x="0" y="0" fill="#2C77BC" font-family="'NunitoSans-ExtraBold'" font-size="33.3594">R</tspan><tspan x="22.618" y="0" fill="#2C77BC" font-family="'NunitoSans-ExtraBold'" font-size="33.3594">o</tspan><tspan x="41.432" y="0" fill="#2C77BC" font-family="'NunitoSans-ExtraBold'" font-size="33.3594">b</tspan></text>
<text transform="matrix(1 0 0 1 574.0938 546.418)" fill="#2C77BC" font-family="'NunitoSans-ExtraBold'" font-size="33.3594">o</text>
<text transform="matrix(1 0 0 1 592.7417 546.418)"><tspan x="0" y="0" fill="#2C77BC" font-family="'NunitoSans-ExtraBold'" font-size="33.3594">t</tspan><tspan x="12.143" y="0" fill="#2C77BC" font-family="'NunitoSans-ExtraBold'" font-size="33.3594"> </tspan></text>
<text transform="matrix(1 0 0 1 613.3574 546.418)"><tspan x="0" y="0" fill="#2C77BC" font-family="'NunitoSans-ExtraBold'" font-size="33.3594" letter-spacing="-1">F</tspan><tspan x="17.98" y="0" fill="#2C77BC" font-family="'NunitoSans-ExtraBold'" font-size="33.3594">r</tspan></text>
<text transform="matrix(1 0 0 1 643.5479 546.418)"><tspan x="0" y="0" fill="#2C77BC" font-family="'NunitoSans-ExtraBold'" font-size="33.3594">o</tspan><tspan x="18.848" y="0" fill="#2C77BC" font-family="'NunitoSans-ExtraBold'" font-size="33.3594">n</tspan></text>
<text transform="matrix(1 0 0 1 681.4111 546.418)" fill="#2C77BC" font-family="'NunitoSans-ExtraBold'" font-size="33.3594">t</text>
</svg>
