<?xml version="1.0" encoding="utf-8"?>
<!-- Generator: Adobe Illustrator 16.0.0, SVG Export Plug-In . SVG Version: 6.00 Build 0)  -->
<!DOCTYPE svg PUBLIC "-//W3C//DTD SVG 1.1//EN" "http://www.w3.org/Graphics/SVG/1.1/DTD/svg11.dtd">
<svg version="1.1" id="Layer_1" xmlns="http://www.w3.org/2000/svg" xmlns:xlink="http://www.w3.org/1999/xlink" x="0px" y="0px"
	 width="1210px" height="1178px" viewBox="0 0 1210 1178" enable-background="new 0 0 1210 1178" xml:space="preserve">
<g>
	<g>
		<defs>
			<rect id="SVGID_1_" x="895.5" y="772.5" width="188" height="99"/>
		</defs>
		<clipPath id="SVGID_2_">
			<use xlink:href="#SVGID_1_"  overflow="visible"/>
		</clipPath>
		
			<rect x="897.5" y="774.5" clip-path="url(#SVGID_2_)" fill-rule="evenodd" clip-rule="evenodd" fill="#FFEAB6" width="184" height="95"/>
		
			<rect x="897.5" y="774.5" clip-path="url(#SVGID_2_)" fill="none" stroke="#FF9425" stroke-width="4" stroke-miterlimit="10" width="184" height="95"/>
	</g>
</g>
<g>
	<defs>
		<rect id="SVGID_3_" y="0.001" width="1210" height="1177.999"/>
	</defs>
	<clipPath id="SVGID_4_">
		<use xlink:href="#SVGID_3_"  overflow="visible"/>
	</clipPath>
</g>
<rect x="751" y="409" fill-rule="evenodd" clip-rule="evenodd" fill="#FFEAB6" width="288" height="94"/>
<rect x="751" y="409" fill="none" stroke="#FF9425" stroke-width="4" stroke-miterlimit="10" width="288" height="94"/>
<g>
	<path fill="#00426B" d="M807.504,454.324v4.353h-17.848v-4.353H807.504z M807.504,461.638v4.353h-17.848v-4.353H807.504z"/>
	<path fill="#00426B" d="M825.973,470.233c-1.877-0.512-3.4-1.194-4.571-2.048l2.085-4.754c1.243,0.78,2.572,1.377,3.986,1.792
		s2.84,0.622,4.279,0.622c1.463,0,2.578-0.201,3.346-0.604c0.769-0.402,1.152-0.969,1.152-1.701c0-0.658-0.348-1.194-1.042-1.609
		c-0.695-0.415-2.019-0.829-3.969-1.244c-2.413-0.512-4.304-1.121-5.669-1.829c-1.365-0.707-2.322-1.536-2.87-2.487
		c-0.549-0.951-0.823-2.121-0.823-3.511c0-1.584,0.444-3.004,1.335-4.261c0.89-1.255,2.146-2.243,3.767-2.962
		c1.621-0.719,3.48-1.079,5.578-1.079c1.853,0,3.65,0.262,5.394,0.786c1.743,0.524,3.103,1.201,4.078,2.03l-2.048,4.754
		c-2.341-1.609-4.804-2.414-7.388-2.414c-1.243,0-2.243,0.238-2.999,0.713c-0.756,0.476-1.134,1.104-1.134,1.884
		c0,0.463,0.134,0.841,0.402,1.134c0.268,0.292,0.768,0.579,1.499,0.859s1.816,0.567,3.256,0.859
		c2.34,0.512,4.181,1.128,5.522,1.847c1.34,0.719,2.291,1.554,2.853,2.505c0.561,0.951,0.841,2.085,0.841,3.401
		c0,2.536-0.976,4.517-2.926,5.943c-1.951,1.427-4.693,2.14-8.229,2.14C829.752,471.001,827.851,470.745,825.973,470.233z"/>
	<path fill="#00426B" d="M860.698,454.196c1.353,1.305,2.029,3.334,2.029,6.089v10.387h-6.107v-2.523
		c-0.342,0.877-0.914,1.567-1.719,2.066s-1.769,0.75-2.89,0.75c-1.243,0-2.365-0.25-3.364-0.75c-1-0.5-1.787-1.194-2.359-2.085
		c-0.573-0.89-0.859-1.896-0.859-3.017c0-1.292,0.335-2.322,1.006-3.09c0.67-0.768,1.737-1.322,3.2-1.664
		c1.463-0.341,3.438-0.512,5.925-0.512h0.987v-0.438c0-0.902-0.208-1.53-0.622-1.884c-0.415-0.353-1.146-0.53-2.194-0.53
		c-0.829,0-1.786,0.165-2.871,0.494s-2.103,0.75-3.054,1.262l-1.646-4.279c1.048-0.634,2.359-1.164,3.932-1.591
		c1.572-0.426,3.018-0.64,4.334-0.64C857.254,452.239,859.345,452.892,860.698,454.196z M855.706,465.68
		c0.561-0.622,0.841-1.42,0.841-2.396v-0.439h-0.585c-1.561,0-2.67,0.141-3.328,0.421s-0.987,0.75-0.987,1.408
		c0,0.562,0.176,1.024,0.53,1.39c0.353,0.366,0.81,0.549,1.371,0.549C854.426,466.612,855.145,466.301,855.706,465.68z"/>
	<path fill="#00426B" d="M894.015,454.141c1.012,1.268,1.518,3.218,1.518,5.852v10.679h-6.51v-10.497
		c0-1.048-0.158-1.804-0.476-2.267c-0.316-0.463-0.841-0.695-1.572-0.695c-0.902,0-1.591,0.317-2.066,0.951
		c-0.476,0.634-0.713,1.536-0.713,2.707v9.801h-6.51v-10.497c0-1.048-0.159-1.804-0.476-2.267c-0.317-0.463-0.842-0.695-1.573-0.695
		c-0.902,0-1.585,0.317-2.048,0.951c-0.463,0.634-0.694,1.536-0.694,2.707v9.801h-6.511v-17.994h6.327v2.268
		c1.194-1.804,3.023-2.707,5.486-2.707c2.584,0,4.327,1.061,5.229,3.182c0.634-1,1.469-1.779,2.506-2.34
		c1.036-0.561,2.176-0.841,3.419-0.841C891.448,452.239,893.003,452.874,894.015,454.141z"/>
	<path fill="#00426B" d="M915.794,462.918h-11.118c0.195,1.17,0.622,2.012,1.28,2.523c0.658,0.512,1.597,0.768,2.815,0.768
		c0.878,0,1.768-0.146,2.67-0.439s1.707-0.695,2.414-1.207l1.646,4.279c-0.902,0.658-1.987,1.177-3.255,1.554
		c-1.268,0.378-2.536,0.567-3.804,0.567c-2.072,0-3.864-0.377-5.376-1.134c-1.512-0.755-2.676-1.84-3.492-3.255
		c-0.817-1.414-1.226-3.072-1.226-4.974c0-1.804,0.384-3.42,1.152-4.846c0.768-1.426,1.841-2.536,3.218-3.328
		c1.378-0.792,2.932-1.188,4.663-1.188c2.584,0,4.633,0.823,6.145,2.469c1.512,1.646,2.268,3.895,2.268,6.748V462.918z
		 M904.603,459.846h5.742c-0.146-2.145-1.073-3.218-2.779-3.218C905.834,456.628,904.846,457.701,904.603,459.846z"/>
	<path fill="#00426B" d="M930.971,468.478c-1.731-1.658-2.597-3.913-2.597-6.766c0-1.877,0.421-3.535,1.262-4.974
		c0.841-1.438,2.023-2.548,3.548-3.328c1.523-0.78,3.285-1.17,5.284-1.17c1.341,0,2.64,0.195,3.896,0.585
		c1.255,0.391,2.273,0.915,3.054,1.573l-1.646,4.389c-0.61-0.487-1.348-0.883-2.213-1.188c-0.866-0.305-1.677-0.457-2.433-0.457
		c-1.316,0-2.322,0.366-3.017,1.097c-0.695,0.731-1.043,1.841-1.043,3.328s0.348,2.609,1.043,3.365
		c0.694,0.756,1.7,1.133,3.017,1.133c0.756,0,1.566-0.152,2.433-0.457c0.865-0.305,1.603-0.713,2.213-1.225l1.646,4.425
		c-0.829,0.683-1.884,1.213-3.163,1.591c-1.28,0.378-2.64,0.567-4.078,0.567C935.104,470.964,932.702,470.136,930.971,468.478z"/>
	<path fill="#00426B" d="M951.359,469.813c-1.499-0.768-2.657-1.859-3.474-3.273c-0.817-1.414-1.226-3.072-1.226-4.974
		s0.408-3.553,1.226-4.956c0.816-1.402,1.969-2.481,3.456-3.237c1.486-0.755,3.23-1.134,5.229-1.134s3.742,0.378,5.23,1.134
		c1.486,0.756,2.639,1.835,3.456,3.237c0.816,1.402,1.225,3.054,1.225,4.956s-0.408,3.56-1.225,4.974
		c-0.817,1.415-1.97,2.505-3.456,3.273c-1.488,0.768-3.231,1.152-5.23,1.152C954.597,470.964,952.859,470.581,951.359,469.813z
		 M960.046,461.565c0-3.023-1.158-4.535-3.475-4.535s-3.475,1.512-3.475,4.535c0,3.023,1.158,4.535,3.475,4.535
		S960.046,464.589,960.046,461.565z"/>
	<path fill="#00426B" d="M988.499,444.888v25.784h-6.4v-2.45c-0.512,0.854-1.262,1.524-2.249,2.011s-2.079,0.731-3.273,0.731
		c-1.536,0-2.907-0.396-4.114-1.188c-1.207-0.792-2.152-1.908-2.834-3.347c-0.684-1.438-1.024-3.084-1.024-4.937
		c0-1.853,0.335-3.48,1.006-4.882c0.67-1.402,1.609-2.481,2.816-3.237c1.206-0.755,2.59-1.134,4.15-1.134
		c1.146,0,2.2,0.232,3.164,0.695c0.963,0.463,1.712,1.085,2.249,1.865v-9.911H988.499z M981.185,464.93
		c0.609-0.78,0.914-1.902,0.914-3.365c0-1.438-0.305-2.542-0.914-3.31s-1.487-1.152-2.633-1.152c-1.122,0-1.988,0.378-2.597,1.134
		c-0.61,0.756-0.915,1.841-0.915,3.255c0,1.463,0.312,2.597,0.933,3.401c0.622,0.804,1.481,1.207,2.579,1.207
		C979.697,466.1,980.575,465.71,981.185,464.93z"/>
	<path fill="#00426B" d="M1008.907,462.918h-11.118c0.195,1.17,0.622,2.012,1.28,2.523c0.658,0.512,1.597,0.768,2.815,0.768
		c0.878,0,1.768-0.146,2.67-0.439s1.707-0.695,2.414-1.207l1.646,4.279c-0.902,0.658-1.987,1.177-3.255,1.554
		c-1.268,0.378-2.536,0.567-3.804,0.567c-2.072,0-3.864-0.377-5.376-1.134c-1.512-0.755-2.676-1.84-3.492-3.255
		c-0.817-1.414-1.226-3.072-1.226-4.974c0-1.804,0.384-3.42,1.152-4.846c0.768-1.426,1.841-2.536,3.218-3.328
		c1.378-0.792,2.932-1.188,4.663-1.188c2.584,0,4.633,0.823,6.145,2.469c1.512,1.646,2.268,3.895,2.268,6.748V462.918z
		 M997.716,459.846h5.742c-0.146-2.145-1.073-3.218-2.779-3.218C998.947,456.628,997.959,457.701,997.716,459.846z"/>
</g>
<rect x="722.5" y="683.5" fill="none" stroke="#2C77BC" stroke-width="3.7" stroke-miterlimit="10" width="208" height="78"/>
<polyline fill="none" stroke="#2C77BC" stroke-width="3.7" stroke-miterlimit="10" points="931.5,683.5 933.5,663.5 957.5,663.5 
	957.5,616.5 937.5,616.5 937.5,601.5 722.5,601.5 722.5,616.5 699.5,616.5 692.5,666.5 722.5,666.5 722.5,683.5 "/>
<polyline fill="none" stroke="#2C77BC" stroke-width="3.7" stroke-miterlimit="10" points="957.5,664 957.5,745.5 934.5,745.5 "/>
<polyline fill="none" stroke="#2C77BC" stroke-width="3.7" stroke-miterlimit="10" points="692.5,667 692.5,744.5 722,744.5 "/>
<g>
	<defs>
		<rect id="SVGID_5_" width="1210" height="1178"/>
	</defs>
	<clipPath id="SVGID_6_">
		<use xlink:href="#SVGID_5_"  overflow="visible"/>
	</clipPath>
	<path clip-path="url(#SVGID_6_)" fill-rule="evenodd" clip-rule="evenodd" fill="#2C77BC" d="M722,654.5c0,2.485-2.686,4.5-6,4.5
		s-6-2.015-6-4.5s2.686-4.5,6-4.5S722,652.015,722,654.5"/>
	<path clip-path="url(#SVGID_6_)" fill-rule="evenodd" clip-rule="evenodd" fill="#2C77BC" d="M742,654.5c0,2.485-2.686,4.5-6,4.5
		s-6-2.015-6-4.5s2.686-4.5,6-4.5S742,652.015,742,654.5"/>
	<path clip-path="url(#SVGID_6_)" fill-rule="evenodd" clip-rule="evenodd" fill="#2C77BC" d="M763,654.5c0,2.485-2.686,4.5-6,4.5
		s-6-2.015-6-4.5s2.686-4.5,6-4.5S763,652.015,763,654.5"/>
	<path clip-path="url(#SVGID_6_)" fill-rule="evenodd" clip-rule="evenodd" fill="#2C77BC" d="M786,654.5c0,2.485-2.686,4.5-6,4.5
		s-6-2.015-6-4.5s2.686-4.5,6-4.5S786,652.015,786,654.5"/>
	<path clip-path="url(#SVGID_6_)" fill-rule="evenodd" clip-rule="evenodd" fill="#2C77BC" d="M807,654.5c0,2.485-2.686,4.5-6,4.5
		s-6-2.015-6-4.5s2.686-4.5,6-4.5S807,652.015,807,654.5"/>
	<path clip-path="url(#SVGID_6_)" fill-rule="evenodd" clip-rule="evenodd" fill="#2C77BC" d="M828,654.5c0,2.485-2.686,4.5-6,4.5
		s-6-2.015-6-4.5s2.686-4.5,6-4.5S828,652.015,828,654.5"/>
	<path clip-path="url(#SVGID_6_)" fill-rule="evenodd" clip-rule="evenodd" fill="#2C77BC" d="M849,654.5c0,2.485-2.686,4.5-6,4.5
		s-6-2.015-6-4.5s2.686-4.5,6-4.5S849,652.015,849,654.5"/>
	<path clip-path="url(#SVGID_6_)" fill-rule="evenodd" clip-rule="evenodd" fill="#2C77BC" d="M871,654.5c0,2.485-2.686,4.5-6,4.5
		s-6-2.015-6-4.5s2.686-4.5,6-4.5S871,652.015,871,654.5"/>
	<path clip-path="url(#SVGID_6_)" fill-rule="evenodd" clip-rule="evenodd" fill="#2C77BC" d="M893,654.5c0,2.485-2.686,4.5-6,4.5
		s-6-2.015-6-4.5s2.686-4.5,6-4.5S893,652.015,893,654.5"/>
	<path clip-path="url(#SVGID_6_)" fill-rule="evenodd" clip-rule="evenodd" fill="#2C77BC" d="M914,654.5c0,2.485-2.686,4.5-6,4.5
		s-6-2.015-6-4.5s2.686-4.5,6-4.5S914,652.015,914,654.5"/>
	<path clip-path="url(#SVGID_6_)" fill-rule="evenodd" clip-rule="evenodd" fill="#2C77BC" d="M742,668.5c0,2.485-2.686,4.5-6,4.5
		s-6-2.015-6-4.5s2.686-4.5,6-4.5S742,666.015,742,668.5"/>
	<path clip-path="url(#SVGID_6_)" fill-rule="evenodd" clip-rule="evenodd" fill="#2C77BC" d="M763,668.5c0,2.485-2.686,4.5-6,4.5
		s-6-2.015-6-4.5s2.686-4.5,6-4.5S763,666.015,763,668.5"/>
	<path clip-path="url(#SVGID_6_)" fill-rule="evenodd" clip-rule="evenodd" fill="#2C77BC" d="M786,668.5c0,2.485-2.686,4.5-6,4.5
		s-6-2.015-6-4.5s2.686-4.5,6-4.5S786,666.015,786,668.5"/>
	<path clip-path="url(#SVGID_6_)" fill-rule="evenodd" clip-rule="evenodd" fill="#2C77BC" d="M807,668.5c0,2.485-2.686,4.5-6,4.5
		s-6-2.015-6-4.5s2.686-4.5,6-4.5S807,666.015,807,668.5"/>
	<path clip-path="url(#SVGID_6_)" fill-rule="evenodd" clip-rule="evenodd" fill="#2C77BC" d="M828,668.5c0,2.485-2.686,4.5-6,4.5
		s-6-2.015-6-4.5s2.686-4.5,6-4.5S828,666.015,828,668.5"/>
	<path clip-path="url(#SVGID_6_)" fill-rule="evenodd" clip-rule="evenodd" fill="#2C77BC" d="M849,668.5c0,2.485-2.686,4.5-6,4.5
		s-6-2.015-6-4.5s2.686-4.5,6-4.5S849,666.015,849,668.5"/>
	<path clip-path="url(#SVGID_6_)" fill-rule="evenodd" clip-rule="evenodd" fill="#2C77BC" d="M871,668.5c0,2.485-2.686,4.5-6,4.5
		s-6-2.015-6-4.5s2.686-4.5,6-4.5S871,666.015,871,668.5"/>
	<path clip-path="url(#SVGID_6_)" fill-rule="evenodd" clip-rule="evenodd" fill="#2C77BC" d="M893,668.5c0,2.485-2.686,4.5-6,4.5
		s-6-2.015-6-4.5s2.686-4.5,6-4.5S893,666.015,893,668.5"/>
	<path clip-path="url(#SVGID_6_)" fill-rule="evenodd" clip-rule="evenodd" fill="#2C77BC" d="M914,668.5c0,2.485-2.686,4.5-6,4.5
		s-6-2.015-6-4.5s2.686-4.5,6-4.5S914,666.015,914,668.5"/>
	<path clip-path="url(#SVGID_6_)" fill-rule="evenodd" clip-rule="evenodd" fill="#2C77BC" d="M748,615.5c0,2.485-2.686,4.5-6,4.5
		s-6-2.015-6-4.5s2.686-4.5,6-4.5S748,613.015,748,615.5"/>
	<path clip-path="url(#SVGID_6_)" fill-rule="evenodd" clip-rule="evenodd" fill="#2C77BC" d="M769,615.5c0,2.485-2.686,4.5-6,4.5
		s-6-2.015-6-4.5s2.686-4.5,6-4.5S769,613.015,769,615.5"/>
	<path clip-path="url(#SVGID_6_)" fill-rule="evenodd" clip-rule="evenodd" fill="#2C77BC" d="M792,615.5c0,2.485-2.686,4.5-6,4.5
		s-6-2.015-6-4.5s2.686-4.5,6-4.5S792,613.015,792,615.5"/>
	<path clip-path="url(#SVGID_6_)" fill-rule="evenodd" clip-rule="evenodd" fill="#2C77BC" d="M813,615.5c0,2.485-2.686,4.5-6,4.5
		s-6-2.015-6-4.5s2.686-4.5,6-4.5S813,613.015,813,615.5"/>
	<path clip-path="url(#SVGID_6_)" fill-rule="evenodd" clip-rule="evenodd" fill="#2C77BC" d="M834,615.5c0,2.485-2.686,4.5-6,4.5
		s-6-2.015-6-4.5s2.686-4.5,6-4.5S834,613.015,834,615.5"/>
	<path clip-path="url(#SVGID_6_)" fill-rule="evenodd" clip-rule="evenodd" fill="#2C77BC" d="M855,615.5c0,2.485-2.686,4.5-6,4.5
		s-6-2.015-6-4.5s2.686-4.5,6-4.5S855,613.015,855,615.5"/>
	<path clip-path="url(#SVGID_6_)" fill-rule="evenodd" clip-rule="evenodd" fill="#2C77BC" d="M877,615.5c0,2.485-2.686,4.5-6,4.5
		s-6-2.015-6-4.5s2.686-4.5,6-4.5S877,613.015,877,615.5"/>
	<path clip-path="url(#SVGID_6_)" fill-rule="evenodd" clip-rule="evenodd" fill="#2C77BC" d="M899,615.5c0,2.485-2.686,4.5-6,4.5
		s-6-2.015-6-4.5s2.686-4.5,6-4.5S899,613.015,899,615.5"/>
	<path clip-path="url(#SVGID_6_)" fill-rule="evenodd" clip-rule="evenodd" fill="#2C77BC" d="M920,615.5c0,2.485-2.686,4.5-6,4.5
		s-6-2.015-6-4.5s2.686-4.5,6-4.5S920,613.015,920,615.5"/>
	<path clip-path="url(#SVGID_6_)" fill-rule="evenodd" clip-rule="evenodd" fill="#2C77BC" d="M937,654.5c0,2.485-2.686,4.5-6,4.5
		s-6-2.015-6-4.5s2.686-4.5,6-4.5S937,652.015,937,654.5"/>
	<path clip-path="url(#SVGID_6_)" fill-rule="evenodd" clip-rule="evenodd" fill="#2C77BC" d="M724,640.5c0,2.485-2.686,4.5-6,4.5
		s-6-2.015-6-4.5s2.686-4.5,6-4.5S724,638.015,724,640.5"/>
	<path clip-path="url(#SVGID_6_)" fill-rule="evenodd" clip-rule="evenodd" fill="#2C77BC" d="M744,640.5c0,2.485-2.686,4.5-6,4.5
		s-6-2.015-6-4.5s2.686-4.5,6-4.5S744,638.015,744,640.5"/>
	<path clip-path="url(#SVGID_6_)" fill-rule="evenodd" clip-rule="evenodd" fill="#2C77BC" d="M765,640.5c0,2.485-2.686,4.5-6,4.5
		s-6-2.015-6-4.5s2.686-4.5,6-4.5S765,638.015,765,640.5"/>
	<path clip-path="url(#SVGID_6_)" fill-rule="evenodd" clip-rule="evenodd" fill="#2C77BC" d="M788,640.5c0,2.485-2.686,4.5-6,4.5
		s-6-2.015-6-4.5s2.686-4.5,6-4.5S788,638.015,788,640.5"/>
	<path clip-path="url(#SVGID_6_)" fill-rule="evenodd" clip-rule="evenodd" fill="#2C77BC" d="M809,640.5c0,2.485-2.686,4.5-6,4.5
		s-6-2.015-6-4.5s2.686-4.5,6-4.5S809,638.015,809,640.5"/>
	<path clip-path="url(#SVGID_6_)" fill-rule="evenodd" clip-rule="evenodd" fill="#2C77BC" d="M830,640.5c0,2.485-2.686,4.5-6,4.5
		s-6-2.015-6-4.5s2.686-4.5,6-4.5S830,638.015,830,640.5"/>
	<path clip-path="url(#SVGID_6_)" fill-rule="evenodd" clip-rule="evenodd" fill="#2C77BC" d="M851,640.5c0,2.485-2.686,4.5-6,4.5
		s-6-2.015-6-4.5s2.686-4.5,6-4.5S851,638.015,851,640.5"/>
	<path clip-path="url(#SVGID_6_)" fill-rule="evenodd" clip-rule="evenodd" fill="#2C77BC" d="M873,640.5c0,2.485-2.686,4.5-6,4.5
		s-6-2.015-6-4.5s2.686-4.5,6-4.5S873,638.015,873,640.5"/>
	<path clip-path="url(#SVGID_6_)" fill-rule="evenodd" clip-rule="evenodd" fill="#2C77BC" d="M895,640.5c0,2.485-2.686,4.5-6,4.5
		s-6-2.015-6-4.5s2.686-4.5,6-4.5S895,638.015,895,640.5"/>
	<path clip-path="url(#SVGID_6_)" fill-rule="evenodd" clip-rule="evenodd" fill="#2C77BC" d="M916,640.5c0,2.485-2.686,4.5-6,4.5
		s-6-2.015-6-4.5s2.686-4.5,6-4.5S916,638.015,916,640.5"/>
	<path clip-path="url(#SVGID_6_)" fill-rule="evenodd" clip-rule="evenodd" fill="#2C77BC" d="M939,640.5c0,2.485-2.686,4.5-6,4.5
		s-6-2.015-6-4.5s2.686-4.5,6-4.5S939,638.015,939,640.5"/>
	<path clip-path="url(#SVGID_6_)" fill-rule="evenodd" clip-rule="evenodd" fill="#2C77BC" d="M727,627.5c0,2.485-2.686,4.5-6,4.5
		s-6-2.015-6-4.5s2.686-4.5,6-4.5S727,625.015,727,627.5"/>
	<path clip-path="url(#SVGID_6_)" fill-rule="evenodd" clip-rule="evenodd" fill="#2C77BC" d="M747,627.5c0,2.485-2.686,4.5-6,4.5
		s-6-2.015-6-4.5s2.686-4.5,6-4.5S747,625.015,747,627.5"/>
	<path clip-path="url(#SVGID_6_)" fill-rule="evenodd" clip-rule="evenodd" fill="#2C77BC" d="M768,627.5c0,2.485-2.686,4.5-6,4.5
		s-6-2.015-6-4.5s2.686-4.5,6-4.5S768,625.015,768,627.5"/>
	<path clip-path="url(#SVGID_6_)" fill-rule="evenodd" clip-rule="evenodd" fill="#2C77BC" d="M791,627.5c0,2.485-2.686,4.5-6,4.5
		s-6-2.015-6-4.5s2.686-4.5,6-4.5S791,625.015,791,627.5"/>
	<path clip-path="url(#SVGID_6_)" fill-rule="evenodd" clip-rule="evenodd" fill="#2C77BC" d="M812,627.5c0,2.485-2.686,4.5-6,4.5
		s-6-2.015-6-4.5s2.686-4.5,6-4.5S812,625.015,812,627.5"/>
	<path clip-path="url(#SVGID_6_)" fill-rule="evenodd" clip-rule="evenodd" fill="#2C77BC" d="M833,627.5c0,2.485-2.686,4.5-6,4.5
		s-6-2.015-6-4.5s2.686-4.5,6-4.5S833,625.015,833,627.5"/>
	<path clip-path="url(#SVGID_6_)" fill-rule="evenodd" clip-rule="evenodd" fill="#2C77BC" d="M854,627.5c0,2.485-2.686,4.5-6,4.5
		s-6-2.015-6-4.5s2.686-4.5,6-4.5S854,625.015,854,627.5"/>
	<path clip-path="url(#SVGID_6_)" fill-rule="evenodd" clip-rule="evenodd" fill="#2C77BC" d="M876,627.5c0,2.485-2.686,4.5-6,4.5
		s-6-2.015-6-4.5s2.686-4.5,6-4.5S876,625.015,876,627.5"/>
	<path clip-path="url(#SVGID_6_)" fill-rule="evenodd" clip-rule="evenodd" fill="#2C77BC" d="M898,627.5c0,2.485-2.686,4.5-6,4.5
		s-6-2.015-6-4.5s2.686-4.5,6-4.5S898,625.015,898,627.5"/>
	<path clip-path="url(#SVGID_6_)" fill-rule="evenodd" clip-rule="evenodd" fill="#2C77BC" d="M919,627.5c0,2.485-2.686,4.5-6,4.5
		s-6-2.015-6-4.5s2.686-4.5,6-4.5S919,625.015,919,627.5"/>
	<path clip-path="url(#SVGID_6_)" fill-rule="evenodd" clip-rule="evenodd" fill="#2C77BC" d="M942,627.5c0,2.485-2.686,4.5-6,4.5
		s-6-2.015-6-4.5s2.686-4.5,6-4.5S942,625.015,942,627.5"/>
	
		<rect x="675.5" y="805.5" clip-path="url(#SVGID_6_)" fill="none" stroke="#2C77BC" stroke-width="3.7" stroke-miterlimit="10" width="175" height="66"/>
	<polyline clip-path="url(#SVGID_6_)" fill="none" stroke="#2C77BC" stroke-width="3.7" stroke-miterlimit="10" points="
		685.5,790.5 864.5,790.5 864.5,859.5 850.5,871.5 	"/>
	<polyline clip-path="url(#SVGID_6_)" fill="none" stroke="#2C77BC" stroke-width="3.7" stroke-miterlimit="10" points="
		923.5,790.5 1075.5,785.5 1075.5,844.5 1061.5,856.5 	"/>
	<polygon clip-path="url(#SVGID_6_)" fill="none" stroke="#2C77BC" stroke-width="3.7" stroke-miterlimit="10" points="910.5,805.5 
		1060.5,800.5 1060.5,856.5 910.5,861.5 	"/>
	<path clip-path="url(#SVGID_6_)" fill="none" stroke="#2C77BC" stroke-width="3.7" stroke-miterlimit="10" d="M695.5,642.5
		c0,0-108-6-120,54s-30,146-30,146s-23,56,51,58s412-4,469-4s55-51,55-66s4-94,5-128s-2-68-36-67"/>
	
		<rect x="998.5" y="601.5" clip-path="url(#SVGID_6_)" fill="none" stroke="#2C77BC" stroke-width="3.7" stroke-miterlimit="10" width="86" height="67"/>
	<path clip-path="url(#SVGID_6_)" fill="none" stroke="#2C77BC" stroke-width="3.7" stroke-miterlimit="10" d="M542.5,861.5
		c-8,47,25,54,122,54s339-3,381-5s61.372-6,71.686-49"/>
	
		<line clip-path="url(#SVGID_6_)" fill="none" stroke="#2C77BC" stroke-width="3.7" stroke-miterlimit="10" x1="851" y1="805" x2="865" y2="790"/>
	
		<line clip-path="url(#SVGID_6_)" fill="none" stroke="#2C77BC" stroke-width="3.7" stroke-miterlimit="10" x1="909" y1="805" x2="923" y2="790"/>
	
		<line clip-path="url(#SVGID_6_)" fill="none" stroke="#2C77BC" stroke-width="3.7" stroke-miterlimit="10" x1="1061" y1="805" x2="1075" y2="790"/>
	
		<line clip-path="url(#SVGID_6_)" fill="none" stroke="#2C77BC" stroke-width="3.7" stroke-miterlimit="10" x1="674" y1="805" x2="688" y2="790"/>
	
		<line clip-path="url(#SVGID_6_)" fill="none" stroke="#2C77BC" stroke-width="3.7" stroke-miterlimit="10" x1="1000" y1="635" x2="958" y2="635"/>
</g>
<g>
	<path fill="#2C77BC" d="M954.922,840.162h6.757v6.533h-21.746v-6.533h6.756V824.1l-5.324,3.042l-2.953-5.906l10.694-6.085h5.816
		V840.162z"/>
	<path fill="#2C77BC" d="M987.406,840.162v6.533h-22.238v-6.085l10.292-10.694c1.969-2.059,2.953-3.952,2.953-5.683
		c0-2.088-1.238-3.132-3.714-3.132c-1.193,0-2.483,0.246-3.871,0.738c-1.387,0.492-2.781,1.186-4.184,2.08l-2.55-5.816
		c1.253-1.014,2.886-1.827,4.899-2.438s4.063-0.917,6.152-0.917c2.267,0,4.258,0.365,5.974,1.096
		c1.715,0.731,3.034,1.768,3.96,3.109c0.924,1.343,1.387,2.909,1.387,4.698c0,1.82-0.365,3.483-1.097,4.989
		c-0.73,1.507-1.977,3.185-3.735,5.034l-6.354,6.487H987.406z"/>
	<path fill="#2C77BC" d="M1012.665,833.228c0.999,1.342,1.499,2.968,1.499,4.877c0,2.774-1.097,4.96-3.289,6.555
		c-2.192,1.597-5.184,2.395-8.972,2.395c-2.237,0-4.385-0.307-6.442-0.918c-2.059-0.61-3.699-1.424-4.923-2.438l2.551-5.816
		c2.804,1.879,5.607,2.818,8.412,2.818c1.79,0,3.065-0.269,3.826-0.805c0.76-0.537,1.141-1.433,1.141-2.686
		c0-1.163-0.373-1.998-1.119-2.505c-0.745-0.507-1.969-0.761-3.669-0.761h-4.877v-6.354h4.072c1.64,0,2.833-0.238,3.579-0.716
		c0.745-0.477,1.119-1.237,1.119-2.281c0-1.104-0.352-1.962-1.052-2.573c-0.701-0.611-1.693-0.917-2.976-0.917
		c-1.253,0-2.581,0.246-3.982,0.738c-1.402,0.492-2.745,1.186-4.027,2.08l-2.55-5.816c1.253-1.014,2.9-1.827,4.944-2.438
		c2.043-0.611,4.123-0.917,6.241-0.917c2.237,0,4.198,0.357,5.884,1.073s2.99,1.73,3.916,3.043c0.924,1.313,1.387,2.834,1.387,4.563
		c0,1.671-0.425,3.118-1.275,4.341c-0.85,1.224-2.051,2.118-3.602,2.685C1010.271,830.961,1011.665,831.885,1012.665,833.228z"/>
	<path fill="#2C77BC" d="M1042.441,835.106v6.265h-4.116v5.324h-8.01v-5.324h-12.707v-6.086l14.139-20.135h6.578v19.956H1042.441z
		 M1024.946,835.106h5.369v-7.741L1024.946,835.106z"/>
</g>
<g>
	<defs>
		<rect id="SVGID_7_" width="1210" height="1178"/>
	</defs>
	<clipPath id="SVGID_8_">
		<use xlink:href="#SVGID_7_"  overflow="visible"/>
	</clipPath>
	<path clip-path="url(#SVGID_8_)" fill="#2977BC" d="M189.622,190.732c-8.476,0-16.952,3.49-22.436,9.972
		c-4.986,5.983-13.961-1.994-8.975-7.977c7.977-8.975,19.445-13.961,31.411-13.961c11.966,0,23.434,4.986,31.411,13.961
		c4.986,5.983-3.989,13.96-8.975,7.977C206.574,194.222,198.098,190.732,189.622,190.732 M189.622,232.613
		c-6.482,0-11.966-5.484-11.966-11.966c0-6.481,5.484-11.966,11.966-11.966c6.482,0,11.966,5.485,11.966,11.966
		C201.588,227.129,196.104,232.613,189.622,232.613 M189.622,160.817c-15.955,0-30.414,5.484-41.881,16.952
		c-4.986,4.986-14.459-2.493-8.476-8.476c13.462-13.462,31.411-20.442,50.357-20.442c18.946,0,36.895,6.98,50.357,20.442
		c5.983,5.983-3.49,13.462-8.476,8.476C220.036,166.301,205.577,160.817,189.622,160.817 M189.622,130.902
		c-22.935,0-44.374,8.476-60.827,23.932c-5.984,5.485-14.459-2.992-8.476-8.476c19.444-17.949,43.376-27.422,69.303-27.422
		c25.927,0,49.858,9.473,69.303,27.422c5.983,5.484-2.493,13.961-8.476,8.476C233.996,139.378,212.557,130.902,189.622,130.902"/>
	
		<rect x="88.885" y="280.784" clip-path="url(#SVGID_8_)" fill="none" stroke="#2C77BC" stroke-width="1.16" stroke-miterlimit="10" width="561.582" height="164.623"/>
	<rect x="88.885" y="324.555" clip-path="url(#SVGID_8_)" fill="#2C77BC" width="561.582" height="77.08"/>
</g>
<text transform="matrix(1 0 0 1 128.9512 377.043)"><tspan x="0" y="0" fill="#FFFFFF" font-family="'Nunito-SemiBold'" font-size="41.8332">Rob</tspan><tspan x="69.275" y="0" fill="#FFFFFF" font-family="'Nunito-SemiBold'" font-size="41.8332">o</tspan><tspan x="92.199" y="0" fill="#FFFFFF" font-family="'Nunito-SemiBold'" font-size="41.8332">tIn</tspan><tspan x="139.261" y="0" fill="#FFFFFF" font-family="'Nunito-SemiBold'" font-size="41.8332">A</tspan><tspan x="163.942" y="0" fill="#FFFFFF" font-family="'Nunito-SemiBold'" font-size="41.8332">C</tspan><tspan x="187.829" y="0" fill="#FFFFFF" font-family="'Nunito-SemiBold'" font-size="41.8332">an-1234</tspan></text>
<polygon fill="#1A303A" points="532.365,420.847 532.365,491.125 546.723,465.432 572.038,473.425 "/>
<rect fill="none" width="1210" height="1178"/>
<rect fill="none" width="1210" height="1178"/>
<g>
	<g>
		<defs>
			<rect id="SVGID_9_" x="361.492" y="322.555" width="114.508" height="79.08"/>
		</defs>
		<clipPath id="SVGID_10_">
			<use xlink:href="#SVGID_9_"  overflow="visible"/>
		</clipPath>
		
			<rect x="363.339" y="323.831" clip-path="url(#SVGID_10_)" fill-rule="evenodd" clip-rule="evenodd" fill="none" width="110.814" height="76.528"/>
		
			<rect x="363.339" y="323.831" clip-path="url(#SVGID_10_)" fill="none" stroke="#FF9425" stroke-width="15.3754" stroke-miterlimit="10" width="110.814" height="76.528"/>
	</g>
</g>
</svg>
