<?xml version="1.0" encoding="utf-8"?>
<!-- Generator: Adobe Illustrator 16.0.0, SVG Export Plug-In . SVG Version: 6.00 Build 0)  -->
<!DOCTYPE svg PUBLIC "-//W3C//DTD SVG 1.1//EN" "http://www.w3.org/Graphics/SVG/1.1/DTD/svg11.dtd">
<svg version="1.1" id="Layer_1" xmlns="http://www.w3.org/2000/svg" xmlns:xlink="http://www.w3.org/1999/xlink" x="0px" y="0px"
	 width="1210px" height="1178px" viewBox="0 0 1210 1178" enable-background="new 0 0 1210 1178" xml:space="preserve">
<g>
	<defs>
		<rect id="SVGID_1_" width="1210" height="1178"/>
	</defs>
	<clipPath id="SVGID_2_">
		<use xlink:href="#SVGID_1_"  overflow="visible"/>
	</clipPath>
	<g clip-path="url(#SVGID_2_)">
		<defs>
			<rect id="SVGID_3_" y="0.001" width="1210" height="1177.999"/>
		</defs>
		<clipPath id="SVGID_4_">
			<use xlink:href="#SVGID_3_"  overflow="visible"/>
		</clipPath>
	</g>
	<g clip-path="url(#SVGID_2_)">
		<defs>
			<rect id="SVGID_5_" width="1210" height="1178"/>
		</defs>
		<clipPath id="SVGID_6_">
			<use xlink:href="#SVGID_5_"  overflow="visible"/>
		</clipPath>
		<path clip-path="url(#SVGID_6_)" fill="#FF0000" d="M474.965,450.028c-0.297-4.973-0.465-9.981-0.465-15.028
			c0-94.536,52.792-176.738,130.5-218.745c-35.105-18.977-75.293-29.755-118-29.755c-137.242,0-248.5,111.257-248.5,248.5
			c0,91.93,49.924,172.195,124.135,215.178C365.227,566.403,409.279,493.082,474.965,450.028"/>
		<path clip-path="url(#SVGID_6_)" fill="#00FF00" d="M971.5,435c0-137.243-111.258-248.5-248.5-248.5
			c-42.707,0-82.895,10.778-118,29.755C682.708,258.263,735.5,340.464,735.5,435c0,2.618-0.055,5.223-0.135,7.821
			c70.137,40.624,118.562,114.551,123.67,200.15C926.759,598.583,971.5,522.022,971.5,435"/>
		<path clip-path="url(#SVGID_6_)" fill="#FFFF00" d="M474.5,435c0,5.048,0.168,10.055,0.465,15.028
			C514.049,424.412,560.779,409.5,611,409.5c45.312,0,87.787,12.135,124.365,33.321c0.08-2.598,0.135-5.203,0.135-7.821
			c0-94.536-52.792-176.737-130.5-218.745C527.292,258.263,474.5,340.464,474.5,435"/>
		<path clip-path="url(#SVGID_6_)" fill="#0000FF" d="M605,653.744c-35.105,18.978-75.293,29.756-118,29.756
			c-45.312,0-87.787-12.135-124.365-33.321c-0.08,2.599-0.135,5.203-0.135,7.821c0,137.242,111.258,248.5,248.5,248.5
			S859.5,795.242,859.5,658c0-5.047-0.168-10.056-0.465-15.028C819.951,668.589,773.221,683.5,723,683.5
			C680.293,683.5,640.105,672.722,605,653.744"/>
		<path clip-path="url(#SVGID_6_)" fill="#FF00FF" d="M605,653.744c-73.559-39.764-124.773-115.549-130.035-203.715
			c-65.686,43.053-109.738,116.374-112.33,200.15C399.213,671.365,441.688,683.5,487,683.5
			C529.707,683.5,569.895,672.722,605,653.744"/>
		<path clip-path="url(#SVGID_6_)" fill="#00FFFF" d="M735.365,442.821C732.543,534.054,680.557,612.9,605,653.744
			c35.105,18.979,75.293,29.756,118,29.756c50.22,0,96.951-14.912,136.035-40.528C853.927,557.372,805.502,483.445,735.365,442.821"
			/>
	</g>
</g>
</svg>
