<?xml version="1.0" encoding="utf-8"?>
<!-- Generator: Adobe Illustrator 16.0.0, SVG Export Plug-In . SVG Version: 6.00 Build 0)  -->
<!DOCTYPE svg PUBLIC "-//W3C//DTD SVG 1.1//EN" "http://www.w3.org/Graphics/SVG/1.1/DTD/svg11.dtd">
<svg version="1.1" id="Layer_1" xmlns="http://www.w3.org/2000/svg" xmlns:xlink="http://www.w3.org/1999/xlink" x="0px" y="0px"
	 width="1210px" height="1178px" viewBox="0 0 1210 1178" enable-background="new 0 0 1210 1178" xml:space="preserve">
<g>
	<defs>
		<rect id="SVGID_1_" width="1210" height="1178"/>
	</defs>
	<clipPath id="SVGID_2_">
		<use xlink:href="#SVGID_1_"  overflow="visible"/>
	</clipPath>
	<g clip-path="url(#SVGID_2_)">
		<defs>
			<rect id="SVGID_3_" y="0.001" width="1210" height="1177.999"/>
		</defs>
		<clipPath id="SVGID_4_">
			<use xlink:href="#SVGID_3_"  overflow="visible"/>
		</clipPath>
	</g>
	<g clip-path="url(#SVGID_2_)">
		<defs>
			<rect id="SVGID_5_" width="1210" height="1178"/>
		</defs>
		<clipPath id="SVGID_6_">
			<use xlink:href="#SVGID_5_"  overflow="visible"/>
		</clipPath>
		
			<circle clip-path="url(#SVGID_6_)" fill="none" stroke="#FF9425" stroke-width="7.731" stroke-miterlimit="10" cx="85.331" cy="317.854" r="49.771"/>
		
			<circle clip-path="url(#SVGID_6_)" fill="none" stroke="#FF9425" stroke-width="7.731" stroke-miterlimit="10" cx="270.374" cy="394.424" r="49.771"/>
		
			<line clip-path="url(#SVGID_6_)" fill="none" stroke="#FF9425" stroke-width="9.337" stroke-miterlimit="10" x1="128.917" y1="332.417" x2="191.273" y2="359.601"/>
		<path clip-path="url(#SVGID_6_)" fill="#FF9425" d="M212.059,368.661c-12.219-0.683-28.171,0.287-39.334,3.814l14.049-14.836
			l1.306-20.388C193.094,347.83,203.241,360.177,212.059,368.661"/>
		<path clip-path="url(#SVGID_6_)" fill="none" stroke="#2A77BC" stroke-width="2.55" stroke-miterlimit="10" d="M357.697,195.733
			l12.002,6.125c0,0-5.981,6.396,5.383,12.975c11.364,6.58,23.326,13.757,30.504,17.346c7.177,3.589,13.757,0,13.757,0l73.569,38.28
			c0,0-3.589,7.775,8.373,14.953c11.963,7.177,24.523,13.158,32.299,16.747c7.776,3.589,5.981-7.177,13.757-4.785l11.686,7.726
			c-4.187,9.208-109.18,212.981-112.17,218.364c-2.991,5.383-10.169,2.392-13.757,0c-3.589-2.393,6.579-8.481-5.383-15.306
			c-11.963-6.825-26.318-13.404-32.897-17.591c-6.58-4.187-10.168-5.981-14.355,0l-76.56-42.467c0,0,4.786-7.447,0-10.303
			c-4.784-2.855-37.681-18.406-41.27-20.799c-3.588-2.392-10.168,2.393-10.168,2.393l-10.168-3.589L357.697,195.733z"/>
		<polygon clip-path="url(#SVGID_6_)" fill="none" stroke="#2A77BC" stroke-width="2.55" stroke-miterlimit="10" points="
			352.951,186.722 568.275,302.757 446.856,536.864 230.934,414.606 		"/>
		
			<line clip-path="url(#SVGID_6_)" fill="none" stroke="#2A77BC" stroke-width="2.55" stroke-miterlimit="10" x1="330.059" y1="249.686" x2="532.134" y2="360.19"/>
		
			<line clip-path="url(#SVGID_6_)" fill="none" stroke="#2A77BC" stroke-width="2.55" stroke-miterlimit="10" x1="303.905" y1="304.938" x2="495.902" y2="411.017"/>
		
			<line clip-path="url(#SVGID_6_)" fill="none" stroke="#2A77BC" stroke-width="2.55" stroke-miterlimit="10" x1="276.392" y1="360.19" x2="465.996" y2="466.642"/>
		<path clip-path="url(#SVGID_6_)" fill="none" stroke="#2A77BC" stroke-width="2.55" stroke-miterlimit="10" d="M538.369,309.699
			c0,0-24.375,30.352-13.068,34.182c14.115,4.782,30.087-44.953,5.549-34.182c-14.163,6.217-17.86,21.328-14.911,25.506
			c1.795,2.542,7.724-1.885,10.318-10.317c5.502-17.884-2.841-22.579-10.318-17.196c-7.476,5.383-13.757,18.99-11.513,20.186
			c2.243,1.197,12.86-13.009,5.981-25.121c-6.878-12.112-19.14,14.206-17.196,17.196c1.944,2.991,15.402-13.607,9.251-18.784
			c-5.486-4.618-12.242,16.99-12.242,16.99"/>
		<path clip-path="url(#SVGID_6_)" fill="none" stroke="#2A77BC" stroke-width="2.55" stroke-miterlimit="10" d="M482.295,418.191
			c0,0-24.375,30.352-13.068,34.182c14.115,4.782,30.087-44.953,5.548-34.182c-14.162,6.217-17.859,21.328-14.91,25.506
			c1.795,2.542,7.724-1.885,10.318-10.317c5.502-17.884-2.841-22.579-10.318-17.196c-7.476,5.383-13.757,18.99-11.513,20.186
			c2.242,1.197,12.859-13.009,5.981-25.121c-6.879-12.112-19.14,14.206-17.196,17.196c1.944,2.991,15.402-13.607,9.251-18.784
			c-5.487-4.618-12.242,16.99-12.242,16.99"/>
		
			<ellipse transform="matrix(0.4738 -0.8806 0.8806 0.4738 -70.1383 646.0311)" clip-path="url(#SVGID_6_)" fill="none" stroke="#2A77BC" stroke-width="2.55" stroke-miterlimit="10" cx="505.548" cy="381.709" rx="11.041" ry="4.502"/>
		
			<ellipse transform="matrix(0.4738 -0.8806 0.8806 0.4738 -70.1381 646.0308)" clip-path="url(#SVGID_6_)" fill="none" stroke="#2A77BC" stroke-width="2.55" stroke-miterlimit="10" cx="505.548" cy="381.709" rx="6.574" ry="2.681"/>
		
			<ellipse transform="matrix(0.4738 -0.8806 0.8806 0.4738 -196.4941 654.213)" clip-path="url(#SVGID_6_)" fill="none" stroke="#2A77BC" stroke-width="2.55" stroke-miterlimit="10" cx="449.217" cy="491.538" rx="11.041" ry="4.502"/>
		
			<ellipse transform="matrix(0.4738 -0.8806 0.8806 0.4738 -196.4939 654.2126)" clip-path="url(#SVGID_6_)" fill="none" stroke="#2A77BC" stroke-width="2.55" stroke-miterlimit="10" cx="449.217" cy="491.538" rx="6.574" ry="2.681"/>
		<path clip-path="url(#SVGID_6_)" fill="none" stroke="#2A77BC" stroke-width="2.55" stroke-miterlimit="10" d="M327.033,266.272
			c0,0-7.775,16.149-9.171,21.532c-1.396,5.384,0.997,7.776,6.778,1.197c5.782-6.58,17.146-24.523,14.156-16.349
			c-2.991,8.174-12.361,33.096-6.18,26.118c6.18-6.978,17.744-22.906,15.75-15.64s-6.38,21.222-4.187,18.83
			c2.193-2.393,8.174-15.152,8.174-15.152"/>
		<path clip-path="url(#SVGID_6_)" fill="none" stroke="#2A77BC" stroke-width="2.55" stroke-miterlimit="10" d="M268.511,380.562
			c0,0-7.775,16.149-9.171,21.532c-1.396,5.383,0.997,7.776,6.778,1.197c5.782-6.58,17.147-24.523,14.156-16.349
			c-2.991,8.174-12.361,33.096-6.18,26.118c6.18-6.978,17.744-22.906,15.75-15.64s-6.38,21.222-4.187,18.83
			c2.193-2.393,8.174-15.152,8.174-15.152"/>
		<path clip-path="url(#SVGID_6_)" fill="none" stroke="#2C77BC" stroke-width="4.599" stroke-miterlimit="10" d="M319.238,249.686
			c0,0-84.577-34.209-49.288-128.712S10.36-12.773,162.009,196.205"/>
		<path clip-path="url(#SVGID_6_)" fill="none" stroke="#2C77BC" stroke-width="4.599" stroke-miterlimit="10" d="M324.449,239.955
			c0,0-79.159-34.093-56.431-93.905C290.747,86.238,247.234,3.401,165.662,43.705c-99.061,48.946-9.111,157.753-9.111,157.753"/>
		<polygon clip-path="url(#SVGID_6_)" fill="none" stroke="#2A77BC" stroke-width="2.55" stroke-miterlimit="10" points="
			147.95,210.181 170.63,187.176 173.845,190.783 172.576,193.867 191.024,213.188 172.758,231.253 155.23,211.837 151.887,214.432 
					"/>
		<polygon clip-path="url(#SVGID_6_)" fill="none" stroke="#2A77BC" stroke-width="2.55" stroke-miterlimit="10" points="
			154.313,203.727 168.444,218.025 174.025,219.7 156.55,201.458 		"/>
		<polygon clip-path="url(#SVGID_6_)" fill="none" stroke="#2A77BC" stroke-width="2.55" stroke-miterlimit="10" points="
			164.362,194.057 178.107,208.728 179.565,214.369 162.008,196.205 		"/>
		<path clip-path="url(#SVGID_6_)" fill="none" stroke="#2A77BC" stroke-width="2.55" stroke-miterlimit="10" d="M221.917,507.017
			L111.979,297.965c0,0-15.55,0.214-33.959,10.037c-18.409,9.823-24.234,21.268-24.234,21.268l109.357,210.256
			c0,0,18.393-11.019,31.452-18.376C207.654,513.792,221.917,507.017,221.917,507.017z"/>
		<polygon clip-path="url(#SVGID_6_)" fill="none" stroke="#2A77BC" stroke-width="2.55" stroke-miterlimit="10" points="
			201.469,517.379 205.425,525.787 186.435,536.814 181.529,528.663 		"/>
		
			<line clip-path="url(#SVGID_6_)" fill="none" stroke="#2A77BC" stroke-width="2.55" stroke-miterlimit="10" x1="206.867" y1="478.4" x2="148.152" y2="510.704"/>
		<path clip-path="url(#SVGID_6_)" fill="none" stroke="#2A77BC" stroke-width="2.55" stroke-miterlimit="10" d="M221.917,507.017
			c0,0-10.809,11.514-18.119,15.311"/>
		<path clip-path="url(#SVGID_6_)" fill="none" stroke="#2A77BC" stroke-width="2.55" stroke-miterlimit="10" d="M162.665,539.978
			c0,0,14.625-2.434,21.321-7.234"/>
		<path clip-path="url(#SVGID_6_)" fill="none" stroke="#2C77BC" stroke-width="2.55" stroke-miterlimit="10" d="M704.658,814.357
			l12.849-4.06c0,0-4.843-7.296,7.451-11.908c12.295-4.612,25.278-9.717,32.95-12.07c7.671-2.355,13.567,2.271,13.567,2.271
			l78.88-25.606c0,0-2.256-8.261,10.728-13.365c12.983-5.104,26.359-8.929,34.621-11.184c8.261-2.257,4.714,8.065,12.777,6.989
			l12.802-5.689c-2.609-9.773-74.387-223.569-76.447-229.372c-2.061-5.803-9.634-4.038-13.568-2.271s6.961,4.935-5.963,9.691
			c-12.927,4.756-28.171,8.875-35.351,11.918c-7.181,3.042-11.017,4.22-14.158-2.371l-82.521,29.243c0,0,3.488,8.135-1.701,10.162
			c-5.191,2.026-40.204,11.932-44.138,13.699c-3.936,1.767-10.224-5.782-10.224-5.782l-10.031,3.604L704.658,814.357z"/>
		<polygon clip-path="url(#SVGID_6_)" fill="none" stroke="#2C77BC" stroke-width="2.55" stroke-miterlimit="10" points="
			698.49,822.461 930.164,744.008 846.612,497.293 615.187,575.815 		"/>
		
			<line clip-path="url(#SVGID_6_)" fill="none" stroke="#2C77BC" stroke-width="2.55" stroke-miterlimit="10" x1="646.525" y1="637.523" x2="863.007" y2="564.375"/>
		
			<line clip-path="url(#SVGID_6_)" fill="none" stroke="#2C77BC" stroke-width="2.55" stroke-miterlimit="10" x1="666.707" y1="697.25" x2="883.188" y2="624.103"/>
		
			<line clip-path="url(#SVGID_6_)" fill="none" stroke="#2C77BC" stroke-width="2.55" stroke-miterlimit="10" x1="686.069" y1="754.55" x2="902.548" y2="681.401"/>
		
			<line clip-path="url(#SVGID_6_)" fill="none" stroke="#2C77BC" stroke-width="2.55" stroke-miterlimit="10" x1="679.525" y1="570.492" x2="696.473" y2="620.646"/>
		
			<line clip-path="url(#SVGID_6_)" fill="none" stroke="#2C77BC" stroke-width="2.55" stroke-miterlimit="10" x1="635.305" y1="575.337" x2="655.313" y2="634.555"/>
		
			<line clip-path="url(#SVGID_6_)" fill="none" stroke="#2C77BC" stroke-width="2.55" stroke-miterlimit="10" x1="633.93" y1="598.817" x2="642.284" y2="595.994"/>
		
			<line clip-path="url(#SVGID_6_)" fill="none" stroke="#2C77BC" stroke-width="2.55" stroke-miterlimit="10" x1="639.621" y1="615.665" x2="647.978" y2="612.842"/>
		
			<line clip-path="url(#SVGID_6_)" fill="none" stroke="#2C77BC" stroke-width="2.55" stroke-miterlimit="10" x1="716.788" y1="680.77" x2="735.706" y2="736.758"/>
		
			<line clip-path="url(#SVGID_6_)" fill="none" stroke="#2C77BC" stroke-width="2.55" stroke-miterlimit="10" x1="675.629" y1="694.677" x2="694.856" y2="751.58"/>
		
			<line clip-path="url(#SVGID_6_)" fill="none" stroke="#2C77BC" stroke-width="2.55" stroke-miterlimit="10" x1="674.254" y1="718.157" x2="682.609" y2="715.334"/>
		
			<line clip-path="url(#SVGID_6_)" fill="none" stroke="#2C77BC" stroke-width="2.55" stroke-miterlimit="10" x1="679.946" y1="735.004" x2="688.301" y2="732.182"/>
		
			<line clip-path="url(#SVGID_6_)" fill="none" stroke="#2C77BC" stroke-width="2.55" stroke-miterlimit="10" x1="867.888" y1="747.065" x2="851.982" y2="699.992"/>
		
			<line clip-path="url(#SVGID_6_)" fill="none" stroke="#2C77BC" stroke-width="2.55" stroke-miterlimit="10" x1="912.577" y1="743.604" x2="892.832" y2="685.17"/>
		
			<line clip-path="url(#SVGID_6_)" fill="none" stroke="#2C77BC" stroke-width="2.55" stroke-miterlimit="10" x1="913.436" y1="718.594" x2="905.079" y2="721.416"/>
		
			<line clip-path="url(#SVGID_6_)" fill="none" stroke="#2C77BC" stroke-width="2.55" stroke-miterlimit="10" x1="907.742" y1="701.746" x2="899.387" y2="704.569"/>
		
			<line clip-path="url(#SVGID_6_)" fill="none" stroke="#2C77BC" stroke-width="2.55" stroke-miterlimit="10" x1="831.847" y1="640.402" x2="811.983" y2="581.616"/>
		
			<line clip-path="url(#SVGID_6_)" fill="none" stroke="#2C77BC" stroke-width="2.55" stroke-miterlimit="10" x1="873.006" y1="626.495" x2="853.142" y2="567.709"/>
		
			<line clip-path="url(#SVGID_6_)" fill="none" stroke="#2C77BC" stroke-width="2.55" stroke-miterlimit="10" x1="874.382" y1="603.015" x2="866.025" y2="605.838"/>
		
			<line clip-path="url(#SVGID_6_)" fill="none" stroke="#2C77BC" stroke-width="2.55" stroke-miterlimit="10" x1="868.688" y1="586.167" x2="860.333" y2="588.99"/>
		<path clip-path="url(#SVGID_6_)" fill-rule="evenodd" clip-rule="evenodd" fill="#FFFFFF" d="M1085.946,597.023H896.031
			c-23.518,0-42.76-19.242-42.76-42.76V389.469c0-23.518,19.242-42.759,42.76-42.759h189.915c23.518,0,42.76,19.241,42.76,42.759
			v164.794C1128.706,577.781,1109.464,597.023,1085.946,597.023"/>
		<path clip-path="url(#SVGID_6_)" fill="none" stroke="#2C77BC" stroke-width="2.55" stroke-miterlimit="10" d="M1085.946,597.023
			H896.031c-23.518,0-42.76-19.242-42.76-42.76V389.469c0-23.518,19.242-42.759,42.76-42.759h189.915
			c23.518,0,42.76,19.241,42.76,42.759v164.794C1128.706,577.781,1109.464,597.023,1085.946,597.023z"/>
		<polygon clip-path="url(#SVGID_6_)" fill="none" stroke="#2C77BC" stroke-width="2.55" stroke-miterlimit="10" points="
			905.962,437.019 873.671,437.943 873.844,433.114 876.894,431.765 876.936,405.051 902.624,404.64 901.852,430.785 
			906.06,431.225 		"/>
		<polygon clip-path="url(#SVGID_6_)" fill="none" stroke="#2C77BC" stroke-width="2.55" stroke-miterlimit="10" points="
			896.902,437.278 896.589,417.177 893.716,412.107 893.717,437.369 		"/>
		<polygon clip-path="url(#SVGID_6_)" fill="none" stroke="#2C77BC" stroke-width="2.55" stroke-miterlimit="10" points="
			882.957,437.31 883.18,417.208 886.028,412.125 886.143,437.386 		"/>
		<polygon clip-path="url(#SVGID_6_)" fill="none" stroke="#2C77BC" stroke-width="2.55" stroke-miterlimit="10" points="
			873.043,392.96 882.015,392.96 882.015,377.259 896.818,377.259 896.818,392.96 906.688,392.96 906.688,363.353 873.043,363.353 
					"/>
		<path clip-path="url(#SVGID_6_)" fill-rule="evenodd" clip-rule="evenodd" fill="#2C77BC" d="M929.214,376.317
			c0,1.784-1.446,3.23-3.229,3.23c-1.785,0-3.231-1.446-3.231-3.23c0-1.784,1.446-3.23,3.231-3.23
			C927.768,373.087,929.214,374.533,929.214,376.317"/>
		<path clip-path="url(#SVGID_6_)" fill-rule="evenodd" clip-rule="evenodd" fill="#2C77BC" d="M940.504,376.317
			c0,1.784-1.446,3.23-3.23,3.23s-3.23-1.446-3.23-3.23c0-1.784,1.446-3.23,3.23-3.23S940.504,374.533,940.504,376.317"/>
		<path clip-path="url(#SVGID_6_)" fill-rule="evenodd" clip-rule="evenodd" fill="#2C77BC" d="M951.794,376.317
			c0,1.784-1.446,3.23-3.23,3.23s-3.23-1.446-3.23-3.23c0-1.784,1.446-3.23,3.23-3.23S951.794,374.533,951.794,376.317"/>
		<path clip-path="url(#SVGID_6_)" fill-rule="evenodd" clip-rule="evenodd" fill="#2C77BC" d="M940.504,573.951
			c0,1.784-1.446,3.23-3.23,3.23s-3.23-1.446-3.23-3.23c0-1.784,1.446-3.23,3.23-3.23S940.504,572.167,940.504,573.951"/>
		<path clip-path="url(#SVGID_6_)" fill-rule="evenodd" clip-rule="evenodd" fill="#2C77BC" d="M951.794,573.951
			c0,1.784-1.446,3.23-3.23,3.23s-3.23-1.446-3.23-3.23c0-1.784,1.446-3.23,3.23-3.23S951.794,572.167,951.794,573.951"/>
		<path clip-path="url(#SVGID_6_)" fill-rule="evenodd" clip-rule="evenodd" fill="#2C77BC" d="M963.084,573.951
			c0,1.784-1.446,3.23-3.23,3.23s-3.23-1.446-3.23-3.23c0-1.784,1.446-3.23,3.23-3.23S963.084,572.167,963.084,573.951"/>
		<path clip-path="url(#SVGID_6_)" fill-rule="evenodd" clip-rule="evenodd" fill="#2C77BC" d="M974.374,573.951
			c0,1.784-1.446,3.23-3.23,3.23s-3.23-1.446-3.23-3.23c0-1.784,1.446-3.23,3.23-3.23S974.374,572.167,974.374,573.951"/>
		<path clip-path="url(#SVGID_6_)" fill-rule="evenodd" clip-rule="evenodd" fill="#2C77BC" d="M985.664,573.951
			c0,1.784-1.446,3.23-3.23,3.23s-3.23-1.446-3.23-3.23c0-1.784,1.446-3.23,3.23-3.23S985.664,572.167,985.664,573.951"/>
		<path clip-path="url(#SVGID_6_)" fill-rule="evenodd" clip-rule="evenodd" fill="#2C77BC" d="M1047.267,376.317
			c0,1.784-1.446,3.23-3.23,3.23s-3.23-1.446-3.23-3.23c0-1.784,1.446-3.23,3.23-3.23S1047.267,374.533,1047.267,376.317"/>
		<path clip-path="url(#SVGID_6_)" fill-rule="evenodd" clip-rule="evenodd" fill="#2C77BC" d="M1059.062,376.317
			c0,1.784-1.446,3.23-3.23,3.23s-3.23-1.446-3.23-3.23c0-1.784,1.446-3.23,3.23-3.23S1059.062,374.533,1059.062,376.317"/>
		<path clip-path="url(#SVGID_6_)" fill-rule="evenodd" clip-rule="evenodd" fill="#2C77BC" d="M1070.856,376.317
			c0,1.784-1.446,3.23-3.23,3.23s-3.23-1.446-3.23-3.23c0-1.784,1.446-3.23,3.23-3.23S1070.856,374.533,1070.856,376.317"/>
		<path clip-path="url(#SVGID_6_)" fill-rule="evenodd" clip-rule="evenodd" fill="#2C77BC" d="M1082.651,376.317
			c0,1.784-1.446,3.23-3.23,3.23s-3.23-1.446-3.23-3.23c0-1.784,1.446-3.23,3.23-3.23S1082.651,374.533,1082.651,376.317"/>
		<path clip-path="url(#SVGID_6_)" fill-rule="evenodd" clip-rule="evenodd" fill="#2C77BC" d="M1094.445,376.317
			c0,1.784-1.446,3.23-3.23,3.23c-1.783,0-3.229-1.446-3.229-3.23c0-1.784,1.446-3.23,3.229-3.23
			C1092.999,373.087,1094.445,374.533,1094.445,376.317"/>
		<path clip-path="url(#SVGID_6_)" fill-rule="evenodd" clip-rule="evenodd" fill="#2C77BC" d="M1106.24,376.317
			c0,1.784-1.446,3.23-3.23,3.23s-3.23-1.446-3.23-3.23c0-1.784,1.446-3.23,3.23-3.23S1106.24,374.533,1106.24,376.317"/>
		<path clip-path="url(#SVGID_6_)" fill-rule="evenodd" clip-rule="evenodd" fill="#2C77BC" d="M1106.24,397.849
			c0,1.784-1.446,3.23-3.23,3.23s-3.23-1.446-3.23-3.23s1.446-3.23,3.23-3.23S1106.24,396.065,1106.24,397.849"/>
		<path clip-path="url(#SVGID_6_)" fill-rule="evenodd" clip-rule="evenodd" fill="#2C77BC" d="M1106.24,409.57
			c0,1.784-1.446,3.23-3.23,3.23s-3.23-1.446-3.23-3.23s1.446-3.23,3.23-3.23S1106.24,407.786,1106.24,409.57"/>
		<path clip-path="url(#SVGID_6_)" fill-rule="evenodd" clip-rule="evenodd" fill="#2C77BC" d="M1106.24,421.292
			c0,1.784-1.446,3.23-3.23,3.23s-3.23-1.446-3.23-3.23s1.446-3.23,3.23-3.23S1106.24,419.507,1106.24,421.292"/>
		<path clip-path="url(#SVGID_6_)" fill-rule="evenodd" clip-rule="evenodd" fill="#2C77BC" d="M1106.24,433.013
			c0,1.784-1.446,3.23-3.23,3.23s-3.23-1.446-3.23-3.23s1.446-3.23,3.23-3.23S1106.24,431.229,1106.24,433.013"/>
		<path clip-path="url(#SVGID_6_)" fill-rule="evenodd" clip-rule="evenodd" fill="#2C77BC" d="M1106.24,444.734
			c0,1.784-1.446,3.23-3.23,3.23s-3.23-1.446-3.23-3.23s1.446-3.23,3.23-3.23S1106.24,442.95,1106.24,444.734"/>
		<path clip-path="url(#SVGID_6_)" fill-rule="evenodd" clip-rule="evenodd" fill="#2C77BC" d="M1106.24,456.455
			c0,1.784-1.446,3.23-3.23,3.23s-3.23-1.446-3.23-3.23s1.446-3.23,3.23-3.23S1106.24,454.671,1106.24,456.455"/>
		<path clip-path="url(#SVGID_6_)" fill-rule="evenodd" clip-rule="evenodd" fill="#2C77BC" d="M1106.24,468.933
			c0,1.784-1.446,3.23-3.23,3.23s-3.23-1.446-3.23-3.23c0-1.784,1.446-3.23,3.23-3.23S1106.24,467.149,1106.24,468.933"/>
		<path clip-path="url(#SVGID_6_)" fill-rule="evenodd" clip-rule="evenodd" fill="#2C77BC" d="M1106.24,480.654
			c0,1.784-1.446,3.23-3.23,3.23s-3.23-1.446-3.23-3.23c0-1.784,1.446-3.23,3.23-3.23S1106.24,478.871,1106.24,480.654"/>
		<path clip-path="url(#SVGID_6_)" fill-rule="evenodd" clip-rule="evenodd" fill="#2C77BC" d="M1106.24,492.375
			c0,1.784-1.446,3.23-3.23,3.23s-3.23-1.446-3.23-3.23c0-1.784,1.446-3.23,3.23-3.23S1106.24,490.592,1106.24,492.375"/>
		<path clip-path="url(#SVGID_6_)" fill-rule="evenodd" clip-rule="evenodd" fill="#2C77BC" d="M1106.24,504.097
			c0,1.784-1.446,3.23-3.23,3.23s-3.23-1.446-3.23-3.23c0-1.784,1.446-3.23,3.23-3.23S1106.24,502.313,1106.24,504.097"/>
		<path clip-path="url(#SVGID_6_)" fill-rule="evenodd" clip-rule="evenodd" fill="#2C77BC" d="M1106.24,515.818
			c0,1.784-1.446,3.23-3.23,3.23s-3.23-1.446-3.23-3.23c0-1.784,1.446-3.23,3.23-3.23S1106.24,514.034,1106.24,515.818"/>
		<path clip-path="url(#SVGID_6_)" fill-rule="evenodd" clip-rule="evenodd" fill="#2C77BC" d="M1106.24,540.825
			c0,1.784-1.446,3.23-3.23,3.23s-3.23-1.446-3.23-3.23s1.446-3.23,3.23-3.23S1106.24,539.041,1106.24,540.825"/>
		<path clip-path="url(#SVGID_6_)" fill-rule="evenodd" clip-rule="evenodd" fill="#2C77BC" d="M1116.348,540.825
			c0,1.784-1.446,3.23-3.23,3.23s-3.23-1.446-3.23-3.23s1.446-3.23,3.23-3.23S1116.348,539.041,1116.348,540.825"/>
		
			<rect x="1013.648" y="468.176" clip-path="url(#SVGID_6_)" fill="none" stroke="#2C77BC" stroke-width="2.55" stroke-miterlimit="10" width="49.939" height="61.559"/>
		
			<rect x="959.854" y="495.656" clip-path="url(#SVGID_6_)" fill="none" stroke="#2C77BC" stroke-width="2.55" stroke-miterlimit="10" width="16.747" height="41.131"/>
		
			<rect x="936.152" y="416.486" clip-path="url(#SVGID_6_)" fill="none" stroke="#2C77BC" stroke-width="2.55" stroke-miterlimit="10" width="27.739" height="14.738"/>
		
			<line clip-path="url(#SVGID_6_)" fill="none" stroke="#2C77BC" stroke-width="2.55" stroke-miterlimit="10" x1="1064.086" y1="471.867" x2="1074.463" y2="471.867"/>
		
			<line clip-path="url(#SVGID_6_)" fill="none" stroke="#2C77BC" stroke-width="2.55" stroke-miterlimit="10" x1="1064.086" y1="479.897" x2="1074.463" y2="479.897"/>
		
			<line clip-path="url(#SVGID_6_)" fill="none" stroke="#2C77BC" stroke-width="2.55" stroke-miterlimit="10" x1="1064.086" y1="487.928" x2="1074.463" y2="487.928"/>
		
			<line clip-path="url(#SVGID_6_)" fill="none" stroke="#2C77BC" stroke-width="2.55" stroke-miterlimit="10" x1="1064.086" y1="495.959" x2="1074.463" y2="495.959"/>
		
			<line clip-path="url(#SVGID_6_)" fill="none" stroke="#2C77BC" stroke-width="2.55" stroke-miterlimit="10" x1="1064.086" y1="503.99" x2="1074.463" y2="503.99"/>
		
			<line clip-path="url(#SVGID_6_)" fill="none" stroke="#2C77BC" stroke-width="2.55" stroke-miterlimit="10" x1="1064.086" y1="512.021" x2="1074.463" y2="512.021"/>
		
			<line clip-path="url(#SVGID_6_)" fill="none" stroke="#2C77BC" stroke-width="2.55" stroke-miterlimit="10" x1="1064.086" y1="520.052" x2="1074.463" y2="520.052"/>
		
			<line clip-path="url(#SVGID_6_)" fill="none" stroke="#2C77BC" stroke-width="2.55" stroke-miterlimit="10" x1="1064.086" y1="528.082" x2="1074.463" y2="528.082"/>
		
			<line clip-path="url(#SVGID_6_)" fill="none" stroke="#2C77BC" stroke-width="2.55" stroke-miterlimit="10" x1="1002.725" y1="471.867" x2="1013.101" y2="471.867"/>
		
			<line clip-path="url(#SVGID_6_)" fill="none" stroke="#2C77BC" stroke-width="2.55" stroke-miterlimit="10" x1="977.156" y1="497.735" x2="984.714" y2="497.735"/>
		
			<line clip-path="url(#SVGID_6_)" fill="none" stroke="#2C77BC" stroke-width="2.55" stroke-miterlimit="10" x1="977.156" y1="503.99" x2="984.714" y2="503.99"/>
		
			<line clip-path="url(#SVGID_6_)" fill="none" stroke="#2C77BC" stroke-width="2.55" stroke-miterlimit="10" x1="977.156" y1="510.244" x2="984.714" y2="510.244"/>
		
			<line clip-path="url(#SVGID_6_)" fill="none" stroke="#2C77BC" stroke-width="2.55" stroke-miterlimit="10" x1="977.156" y1="516.499" x2="984.714" y2="516.499"/>
		
			<line clip-path="url(#SVGID_6_)" fill="none" stroke="#2C77BC" stroke-width="2.55" stroke-miterlimit="10" x1="977.156" y1="522.753" x2="984.714" y2="522.753"/>
		
			<line clip-path="url(#SVGID_6_)" fill="none" stroke="#2C77BC" stroke-width="2.55" stroke-miterlimit="10" x1="977.156" y1="529.008" x2="984.714" y2="529.008"/>
		
			<line clip-path="url(#SVGID_6_)" fill="none" stroke="#2C77BC" stroke-width="2.55" stroke-miterlimit="10" x1="977.156" y1="535.263" x2="984.714" y2="535.263"/>
		
			<line clip-path="url(#SVGID_6_)" fill="none" stroke="#2C77BC" stroke-width="2.55" stroke-miterlimit="10" x1="951.56" y1="497.735" x2="959.116" y2="497.735"/>
		
			<line clip-path="url(#SVGID_6_)" fill="none" stroke="#2C77BC" stroke-width="2.55" stroke-miterlimit="10" x1="951.56" y1="503.99" x2="959.116" y2="503.99"/>
		
			<line clip-path="url(#SVGID_6_)" fill="none" stroke="#2C77BC" stroke-width="2.55" stroke-miterlimit="10" x1="951.56" y1="510.244" x2="959.116" y2="510.244"/>
		
			<line clip-path="url(#SVGID_6_)" fill="none" stroke="#2C77BC" stroke-width="2.55" stroke-miterlimit="10" x1="951.56" y1="516.499" x2="959.116" y2="516.499"/>
		
			<line clip-path="url(#SVGID_6_)" fill="none" stroke="#2C77BC" stroke-width="2.55" stroke-miterlimit="10" x1="951.56" y1="522.753" x2="959.116" y2="522.753"/>
		
			<line clip-path="url(#SVGID_6_)" fill="none" stroke="#2C77BC" stroke-width="2.55" stroke-miterlimit="10" x1="951.56" y1="529.008" x2="959.116" y2="529.008"/>
		
			<line clip-path="url(#SVGID_6_)" fill="none" stroke="#2C77BC" stroke-width="2.55" stroke-miterlimit="10" x1="951.56" y1="535.263" x2="959.116" y2="535.263"/>
		
			<line clip-path="url(#SVGID_6_)" fill="none" stroke="#2C77BC" stroke-width="2.55" stroke-miterlimit="10" x1="1002.725" y1="479.897" x2="1013.101" y2="479.897"/>
		
			<line clip-path="url(#SVGID_6_)" fill="none" stroke="#2C77BC" stroke-width="2.55" stroke-miterlimit="10" x1="1002.725" y1="487.928" x2="1013.101" y2="487.928"/>
		
			<line clip-path="url(#SVGID_6_)" fill="none" stroke="#2C77BC" stroke-width="2.55" stroke-miterlimit="10" x1="1002.725" y1="495.959" x2="1013.101" y2="495.959"/>
		
			<line clip-path="url(#SVGID_6_)" fill="none" stroke="#2C77BC" stroke-width="2.55" stroke-miterlimit="10" x1="1002.725" y1="503.99" x2="1013.101" y2="503.99"/>
		
			<line clip-path="url(#SVGID_6_)" fill="none" stroke="#2C77BC" stroke-width="2.55" stroke-miterlimit="10" x1="1002.725" y1="512.021" x2="1013.101" y2="512.021"/>
		
			<line clip-path="url(#SVGID_6_)" fill="none" stroke="#2C77BC" stroke-width="2.55" stroke-miterlimit="10" x1="1002.725" y1="520.052" x2="1013.101" y2="520.052"/>
		
			<line clip-path="url(#SVGID_6_)" fill="none" stroke="#2C77BC" stroke-width="2.55" stroke-miterlimit="10" x1="1002.725" y1="528.082" x2="1013.101" y2="528.082"/>
		<polyline clip-path="url(#SVGID_6_)" fill="none" stroke="#2C77BC" stroke-width="2.55" stroke-miterlimit="10" points="
			1009.609,456.455 1009.609,437.051 1027.922,437.051 1027.922,450.185 1038.617,450.185 1038.617,438.521 1048.074,438.521 
			1048.074,448.772 1059.549,448.772 1059.549,437.051 1067.626,437.051 1067.626,454.671 		"/>
		
			<line clip-path="url(#SVGID_6_)" fill="none" stroke="#2C77BC" stroke-width="2.55" stroke-miterlimit="10" x1="941.079" y1="431.224" x2="941.079" y2="442.109"/>
		
			<line clip-path="url(#SVGID_6_)" fill="none" stroke="#2C77BC" stroke-width="2.55" stroke-miterlimit="10" x1="949.943" y1="431.224" x2="949.943" y2="442.109"/>
		
			<line clip-path="url(#SVGID_6_)" fill="none" stroke="#2C77BC" stroke-width="2.55" stroke-miterlimit="10" x1="958.807" y1="431.224" x2="958.807" y2="442.109"/>
		<path clip-path="url(#SVGID_6_)" fill-rule="evenodd" clip-rule="evenodd" fill="#2C77BC" d="M1082.272,564.276
			c0,1.784-1.446,3.23-3.23,3.23s-3.23-1.446-3.23-3.23c0-1.784,1.446-3.23,3.23-3.23S1082.272,562.492,1082.272,564.276"/>
		<path clip-path="url(#SVGID_6_)" fill-rule="evenodd" clip-rule="evenodd" fill="#2C77BC" d="M1092.228,564.276
			c0,1.784-1.446,3.23-3.23,3.23s-3.23-1.446-3.23-3.23c0-1.784,1.446-3.23,3.23-3.23S1092.228,562.492,1092.228,564.276"/>
		<path clip-path="url(#SVGID_6_)" fill-rule="evenodd" clip-rule="evenodd" fill="#2C77BC" d="M1102.183,564.276
			c0,1.784-1.446,3.23-3.23,3.23s-3.23-1.446-3.23-3.23c0-1.784,1.446-3.23,3.23-3.23S1102.183,562.492,1102.183,564.276"/>
		<path clip-path="url(#SVGID_6_)" fill-rule="evenodd" clip-rule="evenodd" fill="#2C77BC" d="M1112.138,564.276
			c0,1.784-1.446,3.23-3.23,3.23s-3.23-1.446-3.23-3.23c0-1.784,1.446-3.23,3.23-3.23S1112.138,562.492,1112.138,564.276"/>
		<path clip-path="url(#SVGID_6_)" fill-rule="evenodd" clip-rule="evenodd" fill="#2C77BC" d="M1017.249,573.951
			c0,1.784-1.446,3.23-3.23,3.23s-3.23-1.446-3.23-3.23c0-1.784,1.446-3.23,3.23-3.23S1017.249,572.167,1017.249,573.951"/>
		<path clip-path="url(#SVGID_6_)" fill-rule="evenodd" clip-rule="evenodd" fill="#2C77BC" d="M1028.539,573.951
			c0,1.784-1.446,3.23-3.23,3.23s-3.23-1.446-3.23-3.23c0-1.784,1.446-3.23,3.23-3.23S1028.539,572.167,1028.539,573.951"/>
		<path clip-path="url(#SVGID_6_)" fill-rule="evenodd" clip-rule="evenodd" fill="#2C77BC" d="M1039.829,573.951
			c0,1.784-1.446,3.23-3.23,3.23s-3.23-1.446-3.23-3.23c0-1.784,1.446-3.23,3.23-3.23S1039.829,572.167,1039.829,573.951"/>
		<path clip-path="url(#SVGID_6_)" fill-rule="evenodd" clip-rule="evenodd" fill="#2C77BC" d="M1051.119,573.951
			c0,1.784-1.446,3.23-3.23,3.23s-3.23-1.446-3.23-3.23c0-1.784,1.446-3.23,3.23-3.23S1051.119,572.167,1051.119,573.951"/>
		<path clip-path="url(#SVGID_6_)" fill-rule="evenodd" clip-rule="evenodd" fill="#2C77BC" d="M1062.409,573.951
			c0,1.784-1.446,3.23-3.23,3.23s-3.23-1.446-3.23-3.23c0-1.784,1.446-3.23,3.23-3.23S1062.409,572.167,1062.409,573.951"/>
		<path clip-path="url(#SVGID_6_)" fill="none" stroke="#2C77BC" stroke-width="4.599" stroke-miterlimit="10" d="M909.258,689.87
			c0,0,151.898-120.201,180.118-104.58s-37.728,87.242-88.491,79.543c-50.763-7.699-103.461-62.222-105.821-227.555"/>
		<path clip-path="url(#SVGID_6_)" fill="none" stroke="#2C77BC" stroke-width="4.599" stroke-miterlimit="10" d="M909.258,681.401
			c0,0,167.689-90.563,172.555-53.563c4.864,37-85.52,110.096-144.999,46.968s-51.131-237.419-51.131-237.419"/>
	</g>
	<g clip-path="url(#SVGID_2_)">
		<text transform="matrix(1 0 0 1 1033.8379 332.1572)" fill="#2A77BC" font-family="'Nunito-SemiBold'" font-size="29.5348">Back</text>
	</g>
	<g clip-path="url(#SVGID_2_)">
		<defs>
			<rect id="SVGID_7_" width="1210" height="1178"/>
		</defs>
		<clipPath id="SVGID_8_">
			<use xlink:href="#SVGID_7_"  overflow="visible"/>
		</clipPath>
		
			<circle clip-path="url(#SVGID_8_)" fill="none" stroke="#FF9425" stroke-width="8" stroke-miterlimit="10" cx="889.865" cy="397.849" r="61.888"/>
		<path clip-path="url(#SVGID_8_)" fill="none" stroke="#2C77BC" stroke-width="2.55" stroke-miterlimit="10" d="M424.071,943.52
			H234.156c-23.518,0-42.76-19.242-42.76-42.76V735.966c0-23.519,19.242-42.76,42.76-42.76h189.915
			c23.518,0,42.76,19.241,42.76,42.76V900.76C466.831,924.277,447.589,943.52,424.071,943.52z"/>
		<polygon clip-path="url(#SVGID_8_)" fill="none" stroke="#2C77BC" stroke-width="2.55" stroke-miterlimit="10" points="
			290.927,820.701 290.927,811.453 397.99,812.21 397.99,820.701 411.747,820.701 411.747,891.142 398.589,891.142 398.589,900.113 
			290.927,900.113 290.927,892.337 277.17,892.337 277.17,820.701 		"/>
		<path clip-path="url(#SVGID_8_)" fill-rule="evenodd" clip-rule="evenodd" fill="#2C77BC" d="M291.114,833.585
			c0,1.143-0.925,2.067-2.067,2.067c-1.141,0-2.067-0.925-2.067-2.067c0-1.142,0.926-2.066,2.067-2.066
			C290.189,831.519,291.114,832.443,291.114,833.585"/>
		<path clip-path="url(#SVGID_8_)" fill-rule="evenodd" clip-rule="evenodd" fill="#2C77BC" d="M302.279,833.585
			c0,1.143-0.925,2.067-2.067,2.067s-2.067-0.925-2.067-2.067c0-1.142,0.925-2.066,2.067-2.066S302.279,832.443,302.279,833.585"/>
		<path clip-path="url(#SVGID_8_)" fill-rule="evenodd" clip-rule="evenodd" fill="#2C77BC" d="M313.444,833.585
			c0,1.143-0.925,2.067-2.067,2.067c-1.142,0-2.067-0.925-2.067-2.067c0-1.142,0.925-2.066,2.067-2.066
			C312.519,831.519,313.444,832.443,313.444,833.585"/>
		<path clip-path="url(#SVGID_8_)" fill-rule="evenodd" clip-rule="evenodd" fill="#2C77BC" d="M324.609,833.585
			c0,1.143-0.926,2.067-2.067,2.067c-1.142,0-2.067-0.925-2.067-2.067c0-1.142,0.925-2.066,2.067-2.066
			C323.683,831.519,324.609,832.443,324.609,833.585"/>
		<path clip-path="url(#SVGID_8_)" fill-rule="evenodd" clip-rule="evenodd" fill="#2C77BC" d="M335.773,833.585
			c0,1.143-0.925,2.067-2.067,2.067c-1.141,0-2.067-0.925-2.067-2.067c0-1.142,0.926-2.066,2.067-2.066
			C334.849,831.519,335.773,832.443,335.773,833.585"/>
		<path clip-path="url(#SVGID_8_)" fill-rule="evenodd" clip-rule="evenodd" fill="#2C77BC" d="M346.938,833.585
			c0,1.143-0.925,2.067-2.067,2.067s-2.067-0.925-2.067-2.067c0-1.142,0.925-2.066,2.067-2.066S346.938,832.443,346.938,833.585"/>
		<path clip-path="url(#SVGID_8_)" fill-rule="evenodd" clip-rule="evenodd" fill="#2C77BC" d="M358.104,833.585
			c0,1.143-0.925,2.067-2.067,2.067s-2.067-0.925-2.067-2.067c0-1.142,0.925-2.066,2.067-2.066S358.104,832.443,358.104,833.585"/>
		<path clip-path="url(#SVGID_8_)" fill-rule="evenodd" clip-rule="evenodd" fill="#2C77BC" d="M369.269,833.585
			c0,1.143-0.926,2.067-2.067,2.067c-1.142,0-2.067-0.925-2.067-2.067c0-1.142,0.925-2.066,2.067-2.066
			C368.343,831.519,369.269,832.443,369.269,833.585"/>
		<path clip-path="url(#SVGID_8_)" fill-rule="evenodd" clip-rule="evenodd" fill="#2C77BC" d="M380.433,833.585
			c0,1.143-0.925,2.067-2.067,2.067c-1.141,0-2.067-0.925-2.067-2.067c0-1.142,0.926-2.066,2.067-2.066
			C379.508,831.519,380.433,832.443,380.433,833.585"/>
		<path clip-path="url(#SVGID_8_)" fill-rule="evenodd" clip-rule="evenodd" fill="#2C77BC" d="M391.598,833.585
			c0,1.143-0.925,2.067-2.067,2.067c-1.142,0-2.067-0.925-2.067-2.067c0-1.142,0.925-2.066,2.067-2.066
			C390.673,831.519,391.598,832.443,391.598,833.585"/>
		<path clip-path="url(#SVGID_8_)" fill-rule="evenodd" clip-rule="evenodd" fill="#2C77BC" d="M402.763,833.585
			c0,1.143-0.925,2.067-2.067,2.067s-2.067-0.925-2.067-2.067c0-1.142,0.925-2.066,2.067-2.066S402.763,832.443,402.763,833.585"/>
		<path clip-path="url(#SVGID_8_)" fill-rule="evenodd" clip-rule="evenodd" fill="#2C77BC" d="M291.114,844.887
			c0,1.142-0.925,2.067-2.067,2.067c-1.141,0-2.067-0.926-2.067-2.067s0.926-2.067,2.067-2.067
			C290.189,842.819,291.114,843.745,291.114,844.887"/>
		<path clip-path="url(#SVGID_8_)" fill-rule="evenodd" clip-rule="evenodd" fill="#2C77BC" d="M302.279,844.887
			c0,1.142-0.925,2.067-2.067,2.067s-2.067-0.926-2.067-2.067s0.925-2.067,2.067-2.067S302.279,843.745,302.279,844.887"/>
		<path clip-path="url(#SVGID_8_)" fill-rule="evenodd" clip-rule="evenodd" fill="#2C77BC" d="M313.444,844.887
			c0,1.142-0.925,2.067-2.067,2.067c-1.142,0-2.067-0.926-2.067-2.067s0.925-2.067,2.067-2.067
			C312.519,842.819,313.444,843.745,313.444,844.887"/>
		<path clip-path="url(#SVGID_8_)" fill-rule="evenodd" clip-rule="evenodd" fill="#2C77BC" d="M324.609,844.887
			c0,1.142-0.926,2.067-2.067,2.067c-1.142,0-2.067-0.926-2.067-2.067s0.925-2.067,2.067-2.067
			C323.683,842.819,324.609,843.745,324.609,844.887"/>
		<path clip-path="url(#SVGID_8_)" fill-rule="evenodd" clip-rule="evenodd" fill="#2C77BC" d="M335.773,844.887
			c0,1.142-0.925,2.067-2.067,2.067c-1.141,0-2.067-0.926-2.067-2.067s0.926-2.067,2.067-2.067
			C334.849,842.819,335.773,843.745,335.773,844.887"/>
		<path clip-path="url(#SVGID_8_)" fill-rule="evenodd" clip-rule="evenodd" fill="#2C77BC" d="M346.938,844.887
			c0,1.142-0.925,2.067-2.067,2.067s-2.067-0.926-2.067-2.067s0.925-2.067,2.067-2.067S346.938,843.745,346.938,844.887"/>
		<path clip-path="url(#SVGID_8_)" fill-rule="evenodd" clip-rule="evenodd" fill="#2C77BC" d="M358.104,844.887
			c0,1.142-0.925,2.067-2.067,2.067s-2.067-0.926-2.067-2.067s0.925-2.067,2.067-2.067S358.104,843.745,358.104,844.887"/>
		<path clip-path="url(#SVGID_8_)" fill-rule="evenodd" clip-rule="evenodd" fill="#2C77BC" d="M369.269,844.887
			c0,1.142-0.926,2.067-2.067,2.067c-1.142,0-2.067-0.926-2.067-2.067s0.925-2.067,2.067-2.067
			C368.343,842.819,369.269,843.745,369.269,844.887"/>
		<path clip-path="url(#SVGID_8_)" fill-rule="evenodd" clip-rule="evenodd" fill="#2C77BC" d="M380.433,844.887
			c0,1.142-0.925,2.067-2.067,2.067c-1.141,0-2.067-0.926-2.067-2.067s0.926-2.067,2.067-2.067
			C379.508,842.819,380.433,843.745,380.433,844.887"/>
		<path clip-path="url(#SVGID_8_)" fill-rule="evenodd" clip-rule="evenodd" fill="#2C77BC" d="M391.598,844.887
			c0,1.142-0.925,2.067-2.067,2.067c-1.142,0-2.067-0.926-2.067-2.067s0.925-2.067,2.067-2.067
			C390.673,842.819,391.598,843.745,391.598,844.887"/>
		<path clip-path="url(#SVGID_8_)" fill-rule="evenodd" clip-rule="evenodd" fill="#2C77BC" d="M402.763,844.887
			c0,1.142-0.925,2.067-2.067,2.067s-2.067-0.926-2.067-2.067s0.925-2.067,2.067-2.067S402.763,843.745,402.763,844.887"/>
		<path clip-path="url(#SVGID_8_)" fill-rule="evenodd" clip-rule="evenodd" fill="#2C77BC" d="M291.114,856.188
			c0,1.143-0.925,2.067-2.067,2.067c-1.141,0-2.067-0.925-2.067-2.067c0-1.142,0.926-2.066,2.067-2.066
			C290.189,854.121,291.114,855.046,291.114,856.188"/>
		<path clip-path="url(#SVGID_8_)" fill-rule="evenodd" clip-rule="evenodd" fill="#2C77BC" d="M302.279,856.188
			c0,1.143-0.925,2.067-2.067,2.067s-2.067-0.925-2.067-2.067c0-1.142,0.925-2.066,2.067-2.066S302.279,855.046,302.279,856.188"/>
		<path clip-path="url(#SVGID_8_)" fill-rule="evenodd" clip-rule="evenodd" fill="#2C77BC" d="M313.444,856.188
			c0,1.143-0.925,2.067-2.067,2.067c-1.142,0-2.067-0.925-2.067-2.067c0-1.142,0.925-2.066,2.067-2.066
			C312.519,854.121,313.444,855.046,313.444,856.188"/>
		<path clip-path="url(#SVGID_8_)" fill-rule="evenodd" clip-rule="evenodd" fill="#2C77BC" d="M324.609,856.188
			c0,1.143-0.926,2.067-2.067,2.067c-1.142,0-2.067-0.925-2.067-2.067c0-1.142,0.925-2.066,2.067-2.066
			C323.683,854.121,324.609,855.046,324.609,856.188"/>
		<path clip-path="url(#SVGID_8_)" fill-rule="evenodd" clip-rule="evenodd" fill="#2C77BC" d="M335.773,856.188
			c0,1.143-0.925,2.067-2.067,2.067c-1.141,0-2.067-0.925-2.067-2.067c0-1.142,0.926-2.066,2.067-2.066
			C334.849,854.121,335.773,855.046,335.773,856.188"/>
		<path clip-path="url(#SVGID_8_)" fill-rule="evenodd" clip-rule="evenodd" fill="#2C77BC" d="M346.938,856.188
			c0,1.143-0.925,2.067-2.067,2.067s-2.067-0.925-2.067-2.067c0-1.142,0.925-2.066,2.067-2.066S346.938,855.046,346.938,856.188"/>
		<path clip-path="url(#SVGID_8_)" fill-rule="evenodd" clip-rule="evenodd" fill="#2C77BC" d="M358.104,856.188
			c0,1.143-0.925,2.067-2.067,2.067s-2.067-0.925-2.067-2.067c0-1.142,0.925-2.066,2.067-2.066S358.104,855.046,358.104,856.188"/>
		<path clip-path="url(#SVGID_8_)" fill-rule="evenodd" clip-rule="evenodd" fill="#2C77BC" d="M369.269,856.188
			c0,1.143-0.926,2.067-2.067,2.067c-1.142,0-2.067-0.925-2.067-2.067c0-1.142,0.925-2.066,2.067-2.066
			C368.343,854.121,369.269,855.046,369.269,856.188"/>
		<path clip-path="url(#SVGID_8_)" fill-rule="evenodd" clip-rule="evenodd" fill="#2C77BC" d="M380.433,856.188
			c0,1.143-0.925,2.067-2.067,2.067c-1.141,0-2.067-0.925-2.067-2.067c0-1.142,0.926-2.066,2.067-2.066
			C379.508,854.121,380.433,855.046,380.433,856.188"/>
		<path clip-path="url(#SVGID_8_)" fill-rule="evenodd" clip-rule="evenodd" fill="#2C77BC" d="M391.598,856.188
			c0,1.143-0.925,2.067-2.067,2.067c-1.142,0-2.067-0.925-2.067-2.067c0-1.142,0.925-2.066,2.067-2.066
			C390.673,854.121,391.598,855.046,391.598,856.188"/>
		<path clip-path="url(#SVGID_8_)" fill-rule="evenodd" clip-rule="evenodd" fill="#2C77BC" d="M402.763,856.188
			c0,1.143-0.925,2.067-2.067,2.067s-2.067-0.925-2.067-2.067c0-1.142,0.925-2.066,2.067-2.066S402.763,855.046,402.763,856.188"/>
		<path clip-path="url(#SVGID_8_)" fill-rule="evenodd" clip-rule="evenodd" fill="#2C77BC" d="M291.114,867.489
			c0,1.142-0.925,2.067-2.067,2.067c-1.141,0-2.067-0.926-2.067-2.067s0.926-2.067,2.067-2.067
			C290.189,865.422,291.114,866.348,291.114,867.489"/>
		<path clip-path="url(#SVGID_8_)" fill-rule="evenodd" clip-rule="evenodd" fill="#2C77BC" d="M302.279,867.489
			c0,1.142-0.925,2.067-2.067,2.067s-2.067-0.926-2.067-2.067s0.925-2.067,2.067-2.067S302.279,866.348,302.279,867.489"/>
		<path clip-path="url(#SVGID_8_)" fill-rule="evenodd" clip-rule="evenodd" fill="#2C77BC" d="M313.444,867.489
			c0,1.142-0.925,2.067-2.067,2.067c-1.142,0-2.067-0.926-2.067-2.067s0.925-2.067,2.067-2.067
			C312.519,865.422,313.444,866.348,313.444,867.489"/>
		<path clip-path="url(#SVGID_8_)" fill-rule="evenodd" clip-rule="evenodd" fill="#2C77BC" d="M324.609,867.489
			c0,1.142-0.926,2.067-2.067,2.067c-1.142,0-2.067-0.926-2.067-2.067s0.925-2.067,2.067-2.067
			C323.683,865.422,324.609,866.348,324.609,867.489"/>
		<path clip-path="url(#SVGID_8_)" fill-rule="evenodd" clip-rule="evenodd" fill="#2C77BC" d="M335.773,867.489
			c0,1.142-0.925,2.067-2.067,2.067c-1.141,0-2.067-0.926-2.067-2.067s0.926-2.067,2.067-2.067
			C334.849,865.422,335.773,866.348,335.773,867.489"/>
		<path clip-path="url(#SVGID_8_)" fill-rule="evenodd" clip-rule="evenodd" fill="#2C77BC" d="M346.938,867.489
			c0,1.142-0.925,2.067-2.067,2.067s-2.067-0.926-2.067-2.067s0.925-2.067,2.067-2.067S346.938,866.348,346.938,867.489"/>
		<path clip-path="url(#SVGID_8_)" fill-rule="evenodd" clip-rule="evenodd" fill="#2C77BC" d="M358.104,867.489
			c0,1.142-0.925,2.067-2.067,2.067s-2.067-0.926-2.067-2.067s0.925-2.067,2.067-2.067S358.104,866.348,358.104,867.489"/>
		<path clip-path="url(#SVGID_8_)" fill-rule="evenodd" clip-rule="evenodd" fill="#2C77BC" d="M369.269,867.489
			c0,1.142-0.926,2.067-2.067,2.067c-1.142,0-2.067-0.926-2.067-2.067s0.925-2.067,2.067-2.067
			C368.343,865.422,369.269,866.348,369.269,867.489"/>
		<path clip-path="url(#SVGID_8_)" fill-rule="evenodd" clip-rule="evenodd" fill="#2C77BC" d="M380.433,867.489
			c0,1.142-0.925,2.067-2.067,2.067c-1.141,0-2.067-0.926-2.067-2.067s0.926-2.067,2.067-2.067
			C379.508,865.422,380.433,866.348,380.433,867.489"/>
		<path clip-path="url(#SVGID_8_)" fill-rule="evenodd" clip-rule="evenodd" fill="#2C77BC" d="M391.598,867.489
			c0,1.142-0.925,2.067-2.067,2.067c-1.142,0-2.067-0.926-2.067-2.067s0.925-2.067,2.067-2.067
			C390.673,865.422,391.598,866.348,391.598,867.489"/>
		<path clip-path="url(#SVGID_8_)" fill-rule="evenodd" clip-rule="evenodd" fill="#2C77BC" d="M402.763,867.489
			c0,1.142-0.925,2.067-2.067,2.067s-2.067-0.926-2.067-2.067s0.925-2.067,2.067-2.067S402.763,866.348,402.763,867.489"/>
		<path clip-path="url(#SVGID_8_)" fill-rule="evenodd" clip-rule="evenodd" fill="#2C77BC" d="M291.114,878.79
			c0,1.143-0.925,2.067-2.067,2.067c-1.141,0-2.067-0.925-2.067-2.067c0-1.142,0.926-2.066,2.067-2.066
			C290.189,876.724,291.114,877.648,291.114,878.79"/>
		<path clip-path="url(#SVGID_8_)" fill-rule="evenodd" clip-rule="evenodd" fill="#2C77BC" d="M302.279,878.79
			c0,1.143-0.925,2.067-2.067,2.067s-2.067-0.925-2.067-2.067c0-1.142,0.925-2.066,2.067-2.066S302.279,877.648,302.279,878.79"/>
		<path clip-path="url(#SVGID_8_)" fill-rule="evenodd" clip-rule="evenodd" fill="#2C77BC" d="M313.444,878.79
			c0,1.143-0.925,2.067-2.067,2.067c-1.142,0-2.067-0.925-2.067-2.067c0-1.142,0.925-2.066,2.067-2.066
			C312.519,876.724,313.444,877.648,313.444,878.79"/>
		<path clip-path="url(#SVGID_8_)" fill-rule="evenodd" clip-rule="evenodd" fill="#2C77BC" d="M324.609,878.79
			c0,1.143-0.926,2.067-2.067,2.067c-1.142,0-2.067-0.925-2.067-2.067c0-1.142,0.925-2.066,2.067-2.066
			C323.683,876.724,324.609,877.648,324.609,878.79"/>
		<path clip-path="url(#SVGID_8_)" fill-rule="evenodd" clip-rule="evenodd" fill="#2C77BC" d="M335.773,878.79
			c0,1.143-0.925,2.067-2.067,2.067c-1.141,0-2.067-0.925-2.067-2.067c0-1.142,0.926-2.066,2.067-2.066
			C334.849,876.724,335.773,877.648,335.773,878.79"/>
		<path clip-path="url(#SVGID_8_)" fill-rule="evenodd" clip-rule="evenodd" fill="#2C77BC" d="M346.938,878.79
			c0,1.143-0.925,2.067-2.067,2.067s-2.067-0.925-2.067-2.067c0-1.142,0.925-2.066,2.067-2.066S346.938,877.648,346.938,878.79"/>
		<path clip-path="url(#SVGID_8_)" fill-rule="evenodd" clip-rule="evenodd" fill="#2C77BC" d="M358.104,878.79
			c0,1.143-0.925,2.067-2.067,2.067s-2.067-0.925-2.067-2.067c0-1.142,0.925-2.066,2.067-2.066S358.104,877.648,358.104,878.79"/>
		<path clip-path="url(#SVGID_8_)" fill-rule="evenodd" clip-rule="evenodd" fill="#2C77BC" d="M369.269,878.79
			c0,1.143-0.926,2.067-2.067,2.067c-1.142,0-2.067-0.925-2.067-2.067c0-1.142,0.925-2.066,2.067-2.066
			C368.343,876.724,369.269,877.648,369.269,878.79"/>
		<path clip-path="url(#SVGID_8_)" fill-rule="evenodd" clip-rule="evenodd" fill="#2C77BC" d="M380.433,878.79
			c0,1.143-0.925,2.067-2.067,2.067c-1.141,0-2.067-0.925-2.067-2.067c0-1.142,0.926-2.066,2.067-2.066
			C379.508,876.724,380.433,877.648,380.433,878.79"/>
		<path clip-path="url(#SVGID_8_)" fill-rule="evenodd" clip-rule="evenodd" fill="#2C77BC" d="M391.598,878.79
			c0,1.143-0.925,2.067-2.067,2.067c-1.142,0-2.067-0.925-2.067-2.067c0-1.142,0.925-2.066,2.067-2.066
			C390.673,876.724,391.598,877.648,391.598,878.79"/>
		<path clip-path="url(#SVGID_8_)" fill-rule="evenodd" clip-rule="evenodd" fill="#2C77BC" d="M402.763,878.79
			c0,1.143-0.925,2.067-2.067,2.067s-2.067-0.925-2.067-2.067c0-1.142,0.925-2.066,2.067-2.066S402.763,877.648,402.763,878.79"/>
		
			<rect x="212.274" y="734.265" clip-path="url(#SVGID_8_)" fill="none" stroke="#2C77BC" stroke-width="2.55" stroke-miterlimit="10" width="8.972" height="134.376"/>
		
			<rect x="212.274" y="712.678" clip-path="url(#SVGID_8_)" fill="none" stroke="#2C77BC" stroke-width="2.55" stroke-miterlimit="10" width="79.151" height="8.973"/>
		
			<rect x="203.751" y="906.286" clip-path="url(#SVGID_8_)" fill="none" stroke="#2C77BC" stroke-width="2.55" stroke-miterlimit="10" width="44.709" height="8.972"/>
		
			<rect x="312.011" y="712.678" clip-path="url(#SVGID_8_)" fill="none" stroke="#2C77BC" stroke-width="2.55" stroke-miterlimit="10" width="89.419" height="8.973"/>
		
			<rect x="313.444" y="783.514" clip-path="url(#SVGID_8_)" fill="none" stroke="#2C77BC" stroke-width="2.55" stroke-miterlimit="10" width="20.263" height="20.264"/>
		
			<rect x="371.335" y="763.637" clip-path="url(#SVGID_8_)" fill="none" stroke="#2C77BC" stroke-width="2.55" stroke-miterlimit="10" width="20.263" height="10.131"/>
		
			<rect x="400.696" y="741.115" clip-path="url(#SVGID_8_)" fill="none" stroke="#2C77BC" stroke-width="2.55" stroke-miterlimit="10" width="20.263" height="10.131"/>
		
			<rect x="400.696" y="786.164" clip-path="url(#SVGID_8_)" fill="none" stroke="#2C77BC" stroke-width="2.55" stroke-miterlimit="10" width="20.263" height="10.131"/>
		
			<rect x="256.685" y="907.542" clip-path="url(#SVGID_8_)" fill="none" stroke="#2C77BC" stroke-width="2.55" stroke-miterlimit="10" width="61.008" height="23.453"/>
		
			<rect x="337.389" y="907.542" clip-path="url(#SVGID_8_)" fill="none" stroke="#2C77BC" stroke-width="2.55" stroke-miterlimit="10" width="61.008" height="23.453"/>
		
			<rect x="428.755" y="763.637" clip-path="url(#SVGID_8_)" fill="none" stroke="#2C77BC" stroke-width="2.55" stroke-miterlimit="10" width="20.263" height="10.131"/>
		
			<rect x="265.08" y="920.528" clip-path="url(#SVGID_8_)" fill-rule="evenodd" clip-rule="evenodd" fill="#2C77BC" width="2.692" height="2.691"/>
		
			<rect x="275.399" y="920.528" clip-path="url(#SVGID_8_)" fill-rule="evenodd" clip-rule="evenodd" fill="#2C77BC" width="2.691" height="2.691"/>
		
			<rect x="285.716" y="920.528" clip-path="url(#SVGID_8_)" fill-rule="evenodd" clip-rule="evenodd" fill="#2C77BC" width="2.691" height="2.691"/>
		
			<rect x="296.034" y="920.528" clip-path="url(#SVGID_8_)" fill-rule="evenodd" clip-rule="evenodd" fill="#2C77BC" width="2.691" height="2.691"/>
		
			<rect x="306.351" y="920.528" clip-path="url(#SVGID_8_)" fill-rule="evenodd" clip-rule="evenodd" fill="#2C77BC" width="2.691" height="2.691"/>
		
			<rect x="345.681" y="920.528" clip-path="url(#SVGID_8_)" fill-rule="evenodd" clip-rule="evenodd" fill="#2C77BC" width="2.691" height="2.691"/>
		
			<rect x="355.997" y="920.528" clip-path="url(#SVGID_8_)" fill-rule="evenodd" clip-rule="evenodd" fill="#2C77BC" width="2.692" height="2.691"/>
		
			<rect x="366.316" y="920.528" clip-path="url(#SVGID_8_)" fill-rule="evenodd" clip-rule="evenodd" fill="#2C77BC" width="2.691" height="2.691"/>
		
			<rect x="376.633" y="920.528" clip-path="url(#SVGID_8_)" fill-rule="evenodd" clip-rule="evenodd" fill="#2C77BC" width="2.692" height="2.691"/>
		
			<rect x="386.951" y="920.528" clip-path="url(#SVGID_8_)" fill-rule="evenodd" clip-rule="evenodd" fill="#2C77BC" width="2.691" height="2.691"/>
		
			<line clip-path="url(#SVGID_8_)" fill="none" stroke="#2C77BC" stroke-width="2.55" stroke-miterlimit="10" x1="214.928" y1="906.286" x2="214.928" y2="915.259"/>
		
			<line clip-path="url(#SVGID_8_)" fill="none" stroke="#2C77BC" stroke-width="2.55" stroke-miterlimit="10" x1="226.105" y1="906.286" x2="226.105" y2="915.259"/>
		
			<line clip-path="url(#SVGID_8_)" fill="none" stroke="#2C77BC" stroke-width="2.55" stroke-miterlimit="10" x1="237.283" y1="906.286" x2="237.283" y2="915.259"/>
		
			<rect x="206.978" y="882.835" clip-path="url(#SVGID_8_)" fill="none" stroke="#2C77BC" stroke-width="2.55" stroke-miterlimit="10" width="22.355" height="8.972"/>
		
			<line clip-path="url(#SVGID_8_)" fill="none" stroke="#2C77BC" stroke-width="2.55" stroke-miterlimit="10" x1="218.155" y1="882.835" x2="218.155" y2="891.808"/>
		
			<line clip-path="url(#SVGID_8_)" fill="none" stroke="#2C77BC" stroke-width="2.55" stroke-miterlimit="10" x1="221.246" y1="857.502" x2="212.273" y2="857.502"/>
		
			<line clip-path="url(#SVGID_8_)" fill="none" stroke="#2C77BC" stroke-width="2.55" stroke-miterlimit="10" x1="221.246" y1="846.039" x2="212.273" y2="846.039"/>
		
			<line clip-path="url(#SVGID_8_)" fill="none" stroke="#2C77BC" stroke-width="2.55" stroke-miterlimit="10" x1="221.246" y1="834.861" x2="212.273" y2="834.861"/>
		
			<line clip-path="url(#SVGID_8_)" fill="none" stroke="#2C77BC" stroke-width="2.55" stroke-miterlimit="10" x1="221.246" y1="823.684" x2="212.273" y2="823.684"/>
		
			<line clip-path="url(#SVGID_8_)" fill="none" stroke="#2C77BC" stroke-width="2.55" stroke-miterlimit="10" x1="221.246" y1="812.507" x2="212.273" y2="812.507"/>
		
			<line clip-path="url(#SVGID_8_)" fill="none" stroke="#2C77BC" stroke-width="2.55" stroke-miterlimit="10" x1="221.246" y1="801.329" x2="212.273" y2="801.329"/>
		
			<line clip-path="url(#SVGID_8_)" fill="none" stroke="#2C77BC" stroke-width="2.55" stroke-miterlimit="10" x1="221.246" y1="790.152" x2="212.273" y2="790.152"/>
		
			<line clip-path="url(#SVGID_8_)" fill="none" stroke="#2C77BC" stroke-width="2.55" stroke-miterlimit="10" x1="221.246" y1="778.975" x2="212.273" y2="778.975"/>
		
			<line clip-path="url(#SVGID_8_)" fill="none" stroke="#2C77BC" stroke-width="2.55" stroke-miterlimit="10" x1="221.246" y1="767.797" x2="212.273" y2="767.797"/>
		
			<line clip-path="url(#SVGID_8_)" fill="none" stroke="#2C77BC" stroke-width="2.55" stroke-miterlimit="10" x1="221.246" y1="756.619" x2="212.273" y2="756.619"/>
		
			<line clip-path="url(#SVGID_8_)" fill="none" stroke="#2C77BC" stroke-width="2.55" stroke-miterlimit="10" x1="221.246" y1="745.442" x2="212.273" y2="745.442"/>
		
			<line clip-path="url(#SVGID_8_)" fill="none" stroke="#2C77BC" stroke-width="2.55" stroke-miterlimit="10" x1="323.188" y1="721.65" x2="323.188" y2="712.679"/>
		
			<line clip-path="url(#SVGID_8_)" fill="none" stroke="#2C77BC" stroke-width="2.55" stroke-miterlimit="10" x1="279.862" y1="721.65" x2="279.862" y2="712.679"/>
		
			<line clip-path="url(#SVGID_8_)" fill="none" stroke="#2C77BC" stroke-width="2.55" stroke-miterlimit="10" x1="268.161" y1="721.65" x2="268.161" y2="712.679"/>
		
			<line clip-path="url(#SVGID_8_)" fill="none" stroke="#2C77BC" stroke-width="2.55" stroke-miterlimit="10" x1="256.983" y1="721.65" x2="256.983" y2="712.679"/>
		
			<line clip-path="url(#SVGID_8_)" fill="none" stroke="#2C77BC" stroke-width="2.55" stroke-miterlimit="10" x1="245.806" y1="721.65" x2="245.806" y2="712.679"/>
		
			<line clip-path="url(#SVGID_8_)" fill="none" stroke="#2C77BC" stroke-width="2.55" stroke-miterlimit="10" x1="234.629" y1="721.65" x2="234.629" y2="712.679"/>
		
			<line clip-path="url(#SVGID_8_)" fill="none" stroke="#2C77BC" stroke-width="2.55" stroke-miterlimit="10" x1="223.451" y1="721.65" x2="223.451" y2="712.679"/>
		
			<line clip-path="url(#SVGID_8_)" fill="none" stroke="#2C77BC" stroke-width="2.55" stroke-miterlimit="10" x1="334.365" y1="721.65" x2="334.365" y2="712.679"/>
		
			<line clip-path="url(#SVGID_8_)" fill="none" stroke="#2C77BC" stroke-width="2.55" stroke-miterlimit="10" x1="345.543" y1="721.65" x2="345.543" y2="712.679"/>
		
			<line clip-path="url(#SVGID_8_)" fill="none" stroke="#2C77BC" stroke-width="2.55" stroke-miterlimit="10" x1="356.72" y1="721.65" x2="356.72" y2="712.679"/>
		
			<line clip-path="url(#SVGID_8_)" fill="none" stroke="#2C77BC" stroke-width="2.55" stroke-miterlimit="10" x1="367.897" y1="721.65" x2="367.897" y2="712.679"/>
		
			<line clip-path="url(#SVGID_8_)" fill="none" stroke="#2C77BC" stroke-width="2.55" stroke-miterlimit="10" x1="379.075" y1="721.65" x2="379.075" y2="712.679"/>
		
			<line clip-path="url(#SVGID_8_)" fill="none" stroke="#2C77BC" stroke-width="2.55" stroke-miterlimit="10" x1="390.252" y1="721.65" x2="390.252" y2="712.679"/>
	</g>
	<g clip-path="url(#SVGID_2_)">
		<text transform="matrix(1 0 0 1 367.1997 679.2852)"><tspan x="0" y="0" fill="#2A77BC" font-family="'Nunito-SemiBold'" font-size="29.5348">F</tspan><tspan x="14.118" y="0" fill="#2A77BC" font-family="'Nunito-SemiBold'" font-size="29.5348">r</tspan><tspan x="23.48" y="0" fill="#2A77BC" font-family="'Nunito-SemiBold'" font-size="29.5348">ont</tspan></text>
	</g>
	<g clip-path="url(#SVGID_2_)">
		<defs>
			<rect id="SVGID_9_" width="1210" height="1178"/>
		</defs>
		<clipPath id="SVGID_10_">
			<use xlink:href="#SVGID_9_"  overflow="visible"/>
		</clipPath>
		
			<rect x="445.599" y="846.954" clip-path="url(#SVGID_10_)" fill="none" stroke="#2C77BC" stroke-width="2.55" stroke-miterlimit="10" width="11.165" height="26.272"/>
		
			<rect x="456.764" y="866.249" clip-path="url(#SVGID_10_)" fill-rule="evenodd" clip-rule="evenodd" fill="#2C77BC" width="4.685" height="4.685"/>
		<path clip-path="url(#SVGID_10_)" fill="none" stroke="#2C77BC" stroke-width="2.55" stroke-miterlimit="10" d="M291.861,758.633
			h-6.481c-3.035,0-5.518-2.483-5.518-5.52v-6.479c0-3.035,2.483-5.52,5.518-5.52h6.481c3.035,0,5.519,2.484,5.519,5.52v6.479
			C297.38,756.149,294.896,758.633,291.861,758.633z"/>
		
			<circle clip-path="url(#SVGID_10_)" fill="none" stroke="#FF9425" stroke-width="8" stroke-miterlimit="10" cx="451.181" cy="860.091" r="28.336"/>
		
			<rect x="538.079" y="973.904" clip-path="url(#SVGID_10_)" fill="none" stroke="#2C77BC" stroke-width="3.399" stroke-miterlimit="10" width="44.878" height="105.606"/>
		
			<rect x="582.957" y="983.843" clip-path="url(#SVGID_10_)" fill-rule="evenodd" clip-rule="evenodd" fill="#2C77BC" width="18.833" height="18.833"/>
		
			<line clip-path="url(#SVGID_10_)" fill="none" stroke="#2C77BC" stroke-width="3.399" stroke-miterlimit="10" x1="614.949" y1="926.637" x2="614.949" y2="1128.68"/>
		
			<circle clip-path="url(#SVGID_10_)" fill="none" stroke="#FF9425" stroke-width="8" stroke-miterlimit="10" cx="560.517" cy="1026.707" r="113.899"/>
	</g>
	<g clip-path="url(#SVGID_2_)">
		<text transform="matrix(1 0 0 1 451.1851 883.9229)" fill="#2C77BC" font-family="'Nunito-ExtraBold'" font-size="12.2381">0</text>
	</g>
	<g clip-path="url(#SVGID_2_)">
		<text transform="matrix(1 0 0 1 451.1851 841.4932)" fill="#2C77BC" font-family="'Nunito-ExtraBold'" font-size="12.2381">1</text>
	</g>
	<g clip-path="url(#SVGID_2_)">
		<text transform="matrix(1 0 0 1 549.4644 1114.7197)" fill="#2C77BC" font-family="'Nunito-ExtraBold'" font-size="37.4417">0</text>
	</g>
	<g clip-path="url(#SVGID_2_)">
		<text transform="matrix(1 0 0 1 549.4644 965.7393)" fill="#2C77BC" font-family="'Nunito-ExtraBold'" font-size="37.4417">1</text>
	</g>
	<g clip-path="url(#SVGID_2_)">
		<defs>
			<rect id="SVGID_11_" width="1210" height="1178"/>
		</defs>
		<clipPath id="SVGID_12_">
			<use xlink:href="#SVGID_11_"  overflow="visible"/>
		</clipPath>
		
			<line clip-path="url(#SVGID_12_)" fill="none" stroke="#2C77BC" stroke-width="3.399" stroke-miterlimit="10" x1="595.772" y1="1043.686" x2="595.772" y2="1011.631"/>
		<polyline clip-path="url(#SVGID_12_)" fill="none" stroke="#2C77BC" stroke-width="3.399" stroke-miterlimit="10" points="
			589.52,1017.956 595.772,1012.104 602.025,1017.956 		"/>
		
			<rect x="1002.5" y="431.5" clip-path="url(#SVGID_12_)" fill="none" stroke="#2C77BC" stroke-width="2.53" stroke-miterlimit="10" width="71" height="101"/>
	</g>
</g>
</svg>
