<?xml version="1.0" encoding="utf-8"?>
<!-- Generator: Adobe Illustrator 16.0.0, SVG Export Plug-In . SVG Version: 6.00 Build 0)  -->
<!DOCTYPE svg PUBLIC "-//W3C//DTD SVG 1.1//EN" "http://www.w3.org/Graphics/SVG/1.1/DTD/svg11.dtd">
<svg version="1.1" xmlns="http://www.w3.org/2000/svg" xmlns:xlink="http://www.w3.org/1999/xlink" x="0px" y="0px"
	 width="1209.969px" height="1177.966px" viewBox="0 0 1209.969 1177.966" enable-background="new 0 0 1209.969 1177.966"
	 xml:space="preserve">
<g id="Page_1_1_">
</g>
<g id="Page_2_1_">
</g>
<g id="Page_3_1_">
</g>
<g id="Page_4_1_">
</g>
<g id="Page_5_1_">
</g>
<g id="Page_6_1_">
</g>
<g id="Page_7_1_">
</g>
<g id="Page_8_1_">
</g>
<g id="Page_9_1_">
</g>
<g id="Page_10_1_">
</g>
<g id="Page_11_1_">
</g>
<g id="Page_12_1_">
</g>
<g id="Page_13_1_">
</g>
<g id="Page_14_1_">
</g>
<g id="Page_15_1_">
</g>
<g id="Page_16_1_">
</g>
<g id="Page_17_1_">
</g>
<g id="Page_18_1_">
</g>
<g id="Page_19_1_">
</g>
<g id="Page_20_1_">
</g>
<g id="Page_21_1_">
</g>
<g id="Page_22_1_">
	<g id="Page_22">
		<g enable-background="new    ">
			<g>
				<defs>
					<rect id="SVGID_47_" y="-0.034" width="1210" height="1178"/>
				</defs>
				<clipPath id="SVGID_2_">
					<use xlink:href="#SVGID_47_"  overflow="visible"/>
				</clipPath>
				
					<rect y="0.065" clip-path="url(#SVGID_2_)" fill-rule="evenodd" clip-rule="evenodd" fill="#FFFFFF" width="1210" height="1178"/>
				
					<line clip-path="url(#SVGID_2_)" fill="none" stroke="#1A77BC" stroke-width="2.6036" stroke-linecap="round" stroke-linejoin="round" stroke-miterlimit="10" x1="717.5" y1="559.065" x2="489.4" y2="559.065"/>
				
					<line clip-path="url(#SVGID_2_)" fill="none" stroke="#1A77BC" stroke-width="2.6036" stroke-linecap="round" stroke-linejoin="round" stroke-miterlimit="10" x1="486.9" y1="561.565" x2="486.9" y2="746.665"/>
				
					<line clip-path="url(#SVGID_2_)" fill="none" stroke="#1A77BC" stroke-width="2.6036" stroke-linecap="round" stroke-linejoin="round" stroke-miterlimit="10" x1="719.9" y1="746.665" x2="719.9" y2="561.565"/>
				
					<line clip-path="url(#SVGID_2_)" fill="none" stroke="#1A77BC" stroke-width="2.6036" stroke-linecap="round" stroke-linejoin="round" stroke-miterlimit="10" x1="717.5" y1="326.065" x2="489.4" y2="326.065"/>
				
					<line clip-path="url(#SVGID_2_)" fill="none" stroke="#1A77BC" stroke-width="2.6036" stroke-linecap="round" stroke-linejoin="round" stroke-miterlimit="10" x1="486.9" y1="328.565" x2="486.9" y2="377.665"/>
				
					<line clip-path="url(#SVGID_2_)" fill="none" stroke="#1A77BC" stroke-width="2.6036" stroke-linecap="round" stroke-linejoin="round" stroke-miterlimit="10" x1="719.9" y1="377.665" x2="719.9" y2="328.565"/>
				
					<line clip-path="url(#SVGID_2_)" fill="none" stroke="#1A77BC" stroke-width="2.6036" stroke-linecap="round" stroke-linejoin="round" stroke-miterlimit="10" x1="486.9" y1="136.365" x2="486.9" y2="323.665"/>
				
					<line clip-path="url(#SVGID_2_)" fill="none" stroke="#1A77BC" stroke-width="2.6036" stroke-linecap="round" stroke-linejoin="round" stroke-miterlimit="10" x1="719.9" y1="323.665" x2="719.9" y2="136.365"/>
				
					<line clip-path="url(#SVGID_2_)" fill="none" stroke="#1A77BC" stroke-width="2.6036" stroke-linecap="round" stroke-linejoin="round" stroke-miterlimit="10" x1="292.2" y1="326.065" x2="292.2" y2="559.065"/>
				
					<line clip-path="url(#SVGID_2_)" fill="none" stroke="#1A77BC" stroke-width="2.6036" stroke-linecap="round" stroke-linejoin="round" stroke-miterlimit="10" x1="287.5" y1="554.466" x2="287.5" y2="330.765"/>
				
					<line clip-path="url(#SVGID_2_)" fill="none" stroke="#1A77BC" stroke-width="2.6036" stroke-linecap="round" stroke-linejoin="round" stroke-miterlimit="10" x1="910.5" y1="326.065" x2="910.5" y2="559.065"/>
				
					<line clip-path="url(#SVGID_2_)" fill="none" stroke="#1A77BC" stroke-width="2.6036" stroke-linecap="round" stroke-linejoin="round" stroke-miterlimit="10" x1="915.2" y1="554.466" x2="915.2" y2="330.765"/>
				
					<line clip-path="url(#SVGID_2_)" fill="none" stroke="#1A77BC" stroke-width="2.6036" stroke-linecap="round" stroke-linejoin="round" stroke-miterlimit="10" x1="486.9" y1="556.665" x2="486.9" y2="507.565"/>
				
					<line clip-path="url(#SVGID_2_)" fill="none" stroke="#1A77BC" stroke-width="2.6036" stroke-linecap="round" stroke-linejoin="round" stroke-miterlimit="10" x1="719.9" y1="507.565" x2="719.9" y2="556.665"/>
				
					<line clip-path="url(#SVGID_2_)" fill="none" stroke="#1A77BC" stroke-width="2.6036" stroke-linecap="round" stroke-linejoin="round" stroke-miterlimit="10" x1="719.9" y1="421.765" x2="719.9" y2="463.466"/>
				
					<line clip-path="url(#SVGID_2_)" fill="none" stroke="#1A77BC" stroke-width="2.6036" stroke-linecap="round" stroke-linejoin="round" stroke-miterlimit="10" x1="486.9" y1="421.765" x2="486.9" y2="463.466"/>
				<path clip-path="url(#SVGID_2_)" fill="none" stroke="#1A77BC" stroke-width="2.6036" stroke-miterlimit="7.6613" d="
					M588.7,418.966c0,8.1,6.6,14.799,14.7,14.799c8.199,0,14.8-6.699,14.8-14.799c0-8.201-6.601-14.801-14.8-14.801
					C595.3,404.165,588.7,410.765,588.7,418.966z"/>
				<path clip-path="url(#SVGID_2_)" fill="none" stroke="#1A77BC" stroke-width="2.6036" stroke-miterlimit="7.6613" d="
					M590.4,518.565c0,7.199,5.8,13,13,13c7.199,0,13.1-5.801,13.1-13c0-7.301-5.9-13.1-13.1-13.1
					C596.2,505.466,590.4,511.265,590.4,518.565z"/>
				
					<rect x="718.4" y="465.865" clip-path="url(#SVGID_2_)" fill="none" stroke="#1A77BC" stroke-width="2.6036" stroke-miterlimit="7.6613" width="1.5" height="39.3"/>
				
					<rect x="718.4" y="380.065" clip-path="url(#SVGID_2_)" fill="none" stroke="#1A77BC" stroke-width="2.6036" stroke-miterlimit="7.6613" width="1.5" height="39.3"/>
				
					<line clip-path="url(#SVGID_2_)" fill="none" stroke="#1A77BC" stroke-width="3.9337" stroke-miterlimit="7.6613" x1="486.9" y1="133.966" x2="719.9" y2="133.966"/>
				<path clip-path="url(#SVGID_2_)" fill="none" stroke="#1A77BC" stroke-width="3.9337" stroke-miterlimit="7.6613" d="
					M596.5,749.165h208.7c4,0,7.3-3.199,7.3-7.299V620.265c0-23.299-4.1-43.5-27.1-48.1l-65.5-13.1H910.6l4.601-4.6H1108.1v-49.301
					h2.5c2.7,0,9.7-2.199,9.7-4.9l0.2-29.399c0-2.7-7-4.899-9.7-4.899h-0.1h-2.601v-46.601h2.601c2.7,0,9.8-2.2,9.8-4.899v-0.101
					l-0.2-29.399c0-2.701-7-4.9-9.7-4.9h-2.199l-0.301-49.301H915.2l-4.601-4.6H719.9l38.3-12.3c2.3-0.399,8.899-4.5,8.899-6.899
					c0,0,6-74.601,5.7-75c0,0-0.2-15.701-0.2-17.101v-66.601c0-2.699-2.199-4.899-4.899-4.899l-47.8-9.399"/>
				<path clip-path="url(#SVGID_2_)" fill="none" stroke="#1A77BC" stroke-width="3.9337" stroke-miterlimit="7.6613" d="
					M596.5,749.165H400.7c-4,0-7.3-3.199-7.3-7.299V620.265c0-23.299,4.1-43.5,27-48.1l65.5-13.1H291.2l-4.7-4.6H93.8v-49.301H91.4
					c-2.7,0-9.801-2.199-9.801-4.9L81.4,470.865c0-2.7,7-4.899,9.8-4.899h2.6v-46.601h-2.6c-2.7,0-9.7-2.2-9.7-4.899v-0.101
					l0.1-29.399c0-2.701,7.101-4.9,9.801-4.9h2.1l0.3-49.301h192.7l4.7-4.6h194.7l-38.301-12.3c-2.199-0.399-8.8-4.5-8.8-6.899
					c0,0-6.1-74.601-5.7-75c0,0,0.101-15.701,0.101-17.101v-66.601c0-2.699,2.3-4.899,5-4.899l47.7-9.399"/>
				<polygon clip-path="url(#SVGID_2_)" fill="none" stroke="#1A77BC" stroke-width="2.6036" stroke-miterlimit="7.6613" points="
					1032.7,454.265 1031.1,455.466 1029.4,456.665 1027.7,457.765 1025.9,458.765 1024.1,459.665 1022.2,460.565 1020.3,461.265 
					1018.4,461.865 1016.6,462.466 1014.9,462.865 1012.8,463.165 1010.8,463.466 1008.8,463.665 1006.2,463.765 1004.2,463.665 
					1002.2,463.565 1000.1,463.265 998.1,462.966 995.9,462.466 994.1,461.865 992.2,461.265 990.2,460.565 988.4,459.665 
					986.5,458.765 984.8,457.765 983,456.665 981.4,455.466 979.7,454.265 978.5,453.165 978.5,455.865 954.1,440.966 
					943.3,440.865 943.3,402.966 954.1,402.966 977.3,387.765 978.5,390.665 980.9,388.765 982.5,387.565 984.3,386.466 
					986.5,385.165 988.4,384.265 990.2,383.365 992.2,382.665 995,381.765 996.6,381.365 998.1,380.966 1000.1,380.665 
					1002.2,380.365 1004.2,380.265 1006.2,380.165 1008.3,380.265 1009.8,380.365 1011.9,380.565 1013.9,380.966 1015.9,381.365 
					1018.4,381.966 1020.3,382.665 1022.2,383.365 1024.1,384.265 1025.9,385.165 1027.7,386.165 1029.4,387.265 1031.1,388.365 
					1032.7,389.665 1034.3,391.065 1035.8,392.466 1037.2,393.865 1038.5,395.466 1039.8,397.065 1041,398.765 1042,400.466 
					1043.1,402.265 1044,404.065 1044.8,405.966 1045.6,407.865 1046.2,409.865 1046.7,411.765 1047.2,413.765 1047.5,415.865 
					1047.8,417.865 1047.9,419.865 1048,421.966 1047.9,423.966 1047.8,426.065 1047.5,428.065 1047.2,430.065 1046.7,432.065 
					1046.2,434.065 1045.6,435.966 1044.8,437.966 1044,439.765 1043.1,441.665 1042,443.365 1041,445.165 1039.8,446.765 
					1038.5,448.466 1037.2,449.966 1035.8,451.466 1034.3,452.865 				"/>
				<polygon clip-path="url(#SVGID_2_)" fill="none" stroke="#1A77BC" stroke-width="2.6036" stroke-miterlimit="7.6613" points="
					795.1,389.466 796.8,388.265 798.4,387.065 800.2,385.966 801.9,384.966 803.8,384.065 805.7,383.165 807.6,382.466 
					809.5,381.765 811.3,381.365 813,380.966 815,380.565 817.1,380.265 819.1,380.065 821.7,380.065 823.7,380.065 825.7,380.265 
					827.8,380.466 829.8,380.765 832,381.365 833.8,381.765 835.7,382.466 837.6,383.165 839.5,384.065 841.3,384.966 
					843.1,385.966 844.8,387.065 846.5,388.265 848.1,389.466 849.3,390.466 849.3,387.865 873.8,402.765 884.6,402.865 
					884.6,440.665 873.8,440.665 850.6,455.865 849.3,452.966 847,454.966 845.3,456.165 843.6,457.265 841.3,458.565 
					839.5,459.565 837.6,460.365 835.7,461.065 832.9,461.966 831.3,462.365 829.8,462.765 827.8,463.065 825.7,463.365 
					823.7,463.466 821.7,463.565 819.6,463.466 818,463.365 816,463.165 814,462.865 812,462.365 809.5,461.765 807.6,461.065 
					805.7,460.365 803.8,459.565 801.9,458.565 800.2,457.565 798.5,456.466 796.8,455.265 795.1,454.065 793.6,452.665 
					792.1,451.265 790.7,449.765 789.4,448.265 788.1,446.665 786.9,444.966 785.8,443.265 784.8,441.466 783.9,439.565 
					783,437.765 782.3,435.865 781.7,433.865 781.1,431.865 780.7,429.865 780.3,427.865 780.1,425.865 779.9,423.865 
					779.9,421.765 779.9,419.665 780.1,417.665 780.3,415.665 780.7,413.565 781.1,411.665 781.7,409.665 782.3,407.665 
					783,405.765 783.9,403.966 784.8,402.065 785.8,400.265 786.9,398.565 788.1,396.865 789.4,395.265 790.7,393.665 
					792.1,392.265 793.6,390.865 				"/>
				<polygon clip-path="url(#SVGID_2_)" fill="none" stroke="#1A77BC" stroke-width="2.6036" stroke-miterlimit="7.6613" points="
					411.2,455.565 409.6,456.865 407.9,458.065 406.2,459.165 404.4,460.165 402.6,461.065 400.7,461.966 398.8,462.665 
					396.9,463.265 395.1,463.765 393.4,464.165 391.4,464.565 389.3,464.865 387.3,465.065 384.7,465.165 382.7,465.065 
					380.7,464.966 378.6,464.665 376.6,464.265 374.4,463.765 372.6,463.265 370.7,462.665 368.8,461.966 366.9,461.065 
					365,460.165 363.3,459.165 361.5,458.065 359.9,456.865 358.2,455.565 357.1,454.565 357.1,457.165 332.6,442.365 
					321.8,442.165 321.8,404.365 332.6,404.365 355.8,389.165 357.1,392.065 359.4,390.165 361,388.966 362.8,387.865 365,386.466 
					366.9,385.565 368.8,384.765 370.7,384.065 373.5,383.165 375.1,382.765 376.6,382.365 378.6,382.065 380.7,381.765 
					382.7,381.665 384.7,381.565 386.8,381.665 388.3,381.765 390.4,381.966 392.4,382.265 394.4,382.765 396.9,383.365 
					398.8,384.065 400.7,384.765 402.6,385.565 404.4,386.466 406.2,387.565 407.9,388.565 409.6,389.765 411.2,391.065 
					412.8,392.365 414.3,393.765 415.7,395.265 417,396.865 418.3,398.466 419.5,400.165 420.5,401.865 421.6,403.665 
					422.5,405.466 423.3,407.365 424.1,409.265 424.7,411.165 425.3,413.165 425.7,415.165 426,417.165 426.3,419.265 
					426.4,421.265 426.5,423.365 426.4,425.365 426.3,427.466 426,429.466 425.7,431.466 425.3,433.466 424.7,435.466 
					424.1,437.365 423.3,439.265 422.5,441.165 421.6,442.966 420.5,444.765 419.5,446.565 418.3,448.165 417,449.765 
					415.7,451.365 414.3,452.865 412.8,454.265 				"/>
				<polygon clip-path="url(#SVGID_2_)" fill="none" stroke="#1A77BC" stroke-width="2.6036" stroke-miterlimit="7.6613" points="
					169.7,390.865 171.4,389.565 173,388.466 174.8,387.365 176.5,386.265 178.4,385.365 180.3,384.565 182.2,383.865 
					184.1,383.165 185.8,382.665 187.6,382.365 189.6,381.966 191.7,381.665 193.7,381.466 196.2,381.365 198.3,381.466 
					200.3,381.565 202.3,381.865 204.4,382.165 206.6,382.665 208.3,383.165 210.3,383.865 212.2,384.565 214.1,385.365 
					215.9,386.265 217.7,387.365 219.4,388.466 221.1,389.565 222.7,390.865 223.9,391.865 223.9,389.265 248.3,404.165 
					259.1,404.265 259.1,442.065 248.3,442.065 225.2,457.265 223.9,454.365 221.5,456.365 219.9,457.565 218.2,458.665 
					215.9,459.966 214.1,460.966 212.2,461.765 210.3,462.466 207.5,463.365 205.9,463.765 204.4,464.165 202.3,464.466 
					200.3,464.765 198.3,464.865 196.2,464.966 194.2,464.865 192.6,464.765 190.6,464.565 188.6,464.165 186.5,463.765 
					184.1,463.165 182.2,462.466 180.3,461.765 178.4,460.966 176.5,459.966 174.8,458.966 173,457.865 171.4,456.665 
					169.7,455.466 168.2,454.065 166.7,452.665 165.3,451.165 164,449.665 162.7,448.065 161.5,446.365 160.4,444.565 
					159.4,442.865 158.5,440.966 157.7,439.165 156.9,437.265 156.2,435.265 155.7,433.265 155.3,431.265 154.9,429.265 
					154.7,427.265 154.5,425.165 154.4,423.165 154.5,421.065 154.7,419.065 154.9,416.966 155.3,414.966 155.7,412.966 
					156.2,411.065 156.9,409.065 157.7,407.165 158.5,405.265 159.4,403.466 160.4,401.665 161.5,399.966 162.7,398.265 
					164,396.665 165.3,395.065 166.7,393.665 168.2,392.165 				"/>
				
					<rect x="1001.4" y="364.865" clip-path="url(#SVGID_2_)" fill="none" stroke="#1A77BC" stroke-width="2.6036" stroke-miterlimit="7.6613" width="8.699" height="9.3"/>
				
					<rect x="1001.6" y="469.565" clip-path="url(#SVGID_2_)" fill="none" stroke="#1A77BC" stroke-width="2.6036" stroke-miterlimit="7.6613" width="8.7" height="9.199"/>
				
					<rect x="816" y="468.665" clip-path="url(#SVGID_2_)" fill="none" stroke="#1A77BC" stroke-width="2.6036" stroke-miterlimit="7.6613" width="8.7" height="9.301"/>
				
					<rect x="815.7" y="364.065" clip-path="url(#SVGID_2_)" fill="none" stroke="#1A77BC" stroke-width="2.6036" stroke-miterlimit="7.6613" width="8.7" height="9.199"/>
				
					<rect x="379.9" y="366.265" clip-path="url(#SVGID_2_)" fill="none" stroke="#1A77BC" stroke-width="2.6036" stroke-miterlimit="7.6613" width="8.699" height="9.301"/>
				
					<rect x="380.1" y="470.966" clip-path="url(#SVGID_2_)" fill="none" stroke="#1A77BC" stroke-width="2.6036" stroke-miterlimit="7.6613" width="8.7" height="9.1"/>
				
					<rect x="192.4" y="470.966" clip-path="url(#SVGID_2_)" fill="none" stroke="#1A77BC" stroke-width="2.6036" stroke-miterlimit="7.6613" width="8.699" height="9.299"/>
				
					<rect x="192.1" y="366.365" clip-path="url(#SVGID_2_)" fill="none" stroke="#1A77BC" stroke-width="2.6036" stroke-miterlimit="7.6613" width="8.7" height="9.2"/>
				
					<rect x="486.2" y="465.865" clip-path="url(#SVGID_2_)" fill="none" stroke="#1A77BC" stroke-width="2.6036" stroke-miterlimit="7.6613" width="1.5" height="39.3"/>
				
					<rect x="486.2" y="380.065" clip-path="url(#SVGID_2_)" fill="none" stroke="#1A77BC" stroke-width="2.6036" stroke-miterlimit="7.6613" width="1.5" height="39.3"/>
				<path clip-path="url(#SVGID_2_)" fill="none" stroke="#1A77BC" stroke-width="2.6036" stroke-miterlimit="7.6613" d="
					M704.7,203.065l-6.4-1.301c2.9,14.9-5.6,29.601-20,34.701l4.4,4.799C697.7,234.865,706.7,219.265,704.7,203.065z"/>
				<path clip-path="url(#SVGID_2_)" fill="none" stroke="#1A77BC" stroke-width="2.6036" stroke-miterlimit="7.6613" d="
					M653.8,241.265l4.3-4.799c-14.3-5.101-22.8-19.801-20-34.701l-6.399,1.301C629.7,219.265,638.8,234.865,653.8,241.265z"/>
				<path clip-path="url(#SVGID_2_)" fill="none" stroke="#1A77BC" stroke-width="2.6036" stroke-miterlimit="7.6613" d="
					M646.1,178.065l2.101,6.199c11.5-10,28.5-10,40,0l2.1-6.199C677.2,168.165,659.2,168.165,646.1,178.065z"/>
				<path clip-path="url(#SVGID_2_)" fill="none" stroke="#1A77BC" stroke-width="2.6036" stroke-miterlimit="7.6613" d="
					M503,203.065l6.4-1.301c-2.9,14.9,5.699,29.601,20,34.701l-4.301,4.799C510,234.865,501,219.265,503,203.065z"/>
				<path clip-path="url(#SVGID_2_)" fill="none" stroke="#1A77BC" stroke-width="2.6036" stroke-miterlimit="7.6613" d="
					M553.9,241.265l-4.301-4.799c14.301-5.101,22.801-19.801,20-34.701l6.4,1.301C578,219.265,568.9,234.865,553.9,241.265z"/>
				<path clip-path="url(#SVGID_2_)" fill="none" stroke="#1A77BC" stroke-width="2.6036" stroke-miterlimit="7.6613" d="
					M561.5,178.065l-2,6.199c-11.5-10-28.5-10-40.1,0l-2-6.199C530.4,168.165,548.4,168.165,561.5,178.065z"/>
				
					<rect x="801" y="656.565" clip-path="url(#SVGID_2_)" fill="none" stroke="#1A77BC" stroke-width="2.6036" stroke-miterlimit="7.6613" width="9.4" height="8.699"/>
				
					<rect x="757.9" y="221.665" clip-path="url(#SVGID_2_)" fill="none" stroke="#1A77BC" stroke-width="2.6036" stroke-miterlimit="7.6613" width="9.199" height="8.7"/>
				
					<rect x="396.5" y="656.565" clip-path="url(#SVGID_2_)" fill="none" stroke="#1A77BC" stroke-width="2.6036" stroke-miterlimit="7.6613" width="9.3" height="8.699"/>
				
					<rect x="439.8" y="221.665" clip-path="url(#SVGID_2_)" fill="none" stroke="#1A77BC" stroke-width="2.6036" stroke-miterlimit="7.6613" width="9.2" height="8.7"/>
				<path clip-path="url(#SVGID_2_)" fill-rule="evenodd" clip-rule="evenodd" fill="#B9F9F7" d="M487,269.665
					c0,14.9-12.1,27-27.1,27s-27.101-12.1-27.101-27c0-15,12.101-27.199,27.101-27.199S487,254.665,487,269.665z"/>
				<path clip-path="url(#SVGID_2_)" fill-rule="evenodd" clip-rule="evenodd" fill="#B9F9F7" d="M771.7,269.665
					c0,14.9-12.2,27-27.101,27c-15,0-27.1-12.1-27.1-27c0-15,12.1-27.199,27.1-27.199C759.5,242.466,771.7,254.665,771.7,269.665z"
					/>
				<path clip-path="url(#SVGID_2_)" fill="#1A303A" d="M452.228,274.575h9.495v4.09h-15.682v-4.09l7.877-6.952
					c0.703-0.636,1.225-1.257,1.562-1.864s0.506-1.238,0.506-1.894c0-1.012-0.34-1.825-1.019-2.442
					c-0.68-0.617-1.583-0.926-2.711-0.926c-0.867,0-1.816,0.187-2.847,0.557c-1.031,0.371-2.134,0.924-3.31,1.655v-4.741
					c1.252-0.414,2.49-0.729,3.714-0.945s2.423-0.326,3.599-0.326c2.582,0,4.59,0.568,6.02,1.705
					c1.432,1.138,2.146,2.723,2.146,4.756c0,1.176-0.303,2.271-0.91,3.288s-1.884,2.378-3.83,4.083L452.228,274.575z M481.92,269.43
					v9.235h-5.218v-2.398c-0.694,0.982-1.475,1.697-2.342,2.146c-0.867,0.447-1.922,0.672-3.165,0.672
					c-1.677,0-3.037-0.489-4.083-1.467c-1.046-0.979-1.568-2.248-1.568-3.809c0-1.898,0.653-3.291,1.958-4.178
					c1.307-0.887,3.355-1.33,6.15-1.33h3.05v-0.404c0-0.818-0.323-1.418-0.969-1.799s-1.652-0.571-3.021-0.571
					c-1.108,0-2.139,0.11-3.093,0.333c-0.954,0.221-1.841,0.554-2.659,0.996v-3.945c1.107-0.27,2.221-0.475,3.338-0.613
					c1.118-0.141,2.235-0.211,3.354-0.211c2.92,0,5.027,0.576,6.323,1.729C481.271,264.966,481.92,266.838,481.92,269.43z
					 M474.014,271.381c-1.079,0-1.891,0.183-2.436,0.55c-0.545,0.365-0.816,0.905-0.816,1.618c0,0.655,0.219,1.169,0.658,1.54
					c0.438,0.371,1.047,0.556,1.828,0.556c0.973,0,1.792-0.349,2.457-1.048c0.664-0.698,0.997-1.572,0.997-2.623v-0.593H474.014z"/>
				<path clip-path="url(#SVGID_2_)" fill-rule="evenodd" clip-rule="evenodd" fill="#B9F9F7" d="M455.7,608.065
					c0,15-12.101,27.1-27.101,27.1c-14.899,0-27.1-12.1-27.1-27.1c0-14.9,12.2-27.1,27.1-27.1
					C443.6,580.966,455.7,593.165,455.7,608.065z"/>
				<path clip-path="url(#SVGID_2_)" fill="#1A303A" d="M735.827,274.575h9.496v4.09h-15.682v-4.09l7.877-6.952
					c0.703-0.636,1.224-1.257,1.561-1.864s0.506-1.238,0.506-1.894c0-1.012-0.34-1.825-1.019-2.442
					c-0.68-0.617-1.583-0.926-2.71-0.926c-0.867,0-1.816,0.187-2.848,0.557c-1.031,0.371-2.134,0.924-3.31,1.655v-4.741
					c1.252-0.414,2.49-0.729,3.715-0.945c1.223-0.217,2.423-0.326,3.599-0.326c2.582,0,4.589,0.568,6.02,1.705
					c1.431,1.138,2.146,2.723,2.146,4.756c0,1.176-0.304,2.271-0.911,3.288c-0.606,1.017-1.884,2.378-3.83,4.083L735.827,274.575z
					 M755.621,264.849c0.713-0.945,1.503-1.641,2.37-2.089s1.864-0.673,2.992-0.673c1.994,0,3.632,0.793,4.914,2.379
					c1.281,1.584,1.922,3.625,1.922,6.12s-0.641,4.536-1.922,6.121c-1.282,1.585-2.92,2.378-4.914,2.378
					c-1.128,0-2.125-0.225-2.992-0.672c-0.867-0.449-1.657-1.145-2.37-2.09v2.342h-5.174v-22.488h5.174V264.849z M759.061,275.327
					c1.108,0,1.954-0.405,2.537-1.215c0.583-0.809,0.874-1.984,0.874-3.526s-0.291-2.718-0.874-3.526
					c-0.583-0.81-1.429-1.215-2.537-1.215c-1.107,0-1.958,0.408-2.551,1.223c-0.593,0.813-0.889,1.986-0.889,3.519
					s0.296,2.706,0.889,3.52C757.103,274.92,757.953,275.327,759.061,275.327z"/>
				<path clip-path="url(#SVGID_2_)" fill-rule="evenodd" clip-rule="evenodd" fill="#B9F9F7" d="M807,608.065
					c0,15-12.1,27.1-27.1,27.1s-27.101-12.1-27.101-27.1c0-14.9,12.101-27.1,27.101-27.1S807,593.165,807,608.065z"/>
				<path clip-path="url(#SVGID_2_)" fill="#1A303A" d="M415.869,613.321h4.914v-13.947l-5.045,1.041v-3.787l5.016-1.041h5.29
					v17.734h4.914v3.844h-15.089V613.321z M450.619,607.931v9.234h-5.217v-2.398c-0.694,0.982-1.475,1.697-2.342,2.146
					c-0.867,0.447-1.922,0.672-3.166,0.672c-1.676,0-3.037-0.49-4.082-1.467c-1.046-0.979-1.568-2.248-1.568-3.809
					c0-1.898,0.652-3.291,1.959-4.178c1.305-0.887,3.354-1.33,6.148-1.33h3.051v-0.404c0-0.818-0.323-1.418-0.969-1.799
					s-1.652-0.57-3.021-0.57c-1.107,0-2.139,0.109-3.092,0.332c-0.955,0.221-1.841,0.555-2.66,0.996v-3.945
					c1.108-0.27,2.221-0.475,3.339-0.613c1.118-0.141,2.235-0.211,3.353-0.211c2.92,0,5.027,0.576,6.324,1.729
					C449.971,603.466,450.619,605.339,450.619,607.931z M442.713,609.882c-1.078,0-1.891,0.182-2.435,0.549
					c-0.544,0.365-0.817,0.906-0.817,1.619c0,0.654,0.22,1.168,0.658,1.539s1.048,0.557,1.828,0.557c0.974,0,1.793-0.35,2.457-1.049
					c0.665-0.699,0.998-1.572,0.998-2.623v-0.592H442.713z"/>
				<path clip-path="url(#SVGID_2_)" fill-rule="evenodd" clip-rule="evenodd" fill="#B9F9F7" d="M179.4,505.165
					c0,19.1-15.5,34.6-34.601,34.6c-19.1,0-34.6-15.5-34.6-34.6s15.5-34.6,34.6-34.6C163.9,470.565,179.4,486.065,179.4,505.165z"/>
				<path clip-path="url(#SVGID_2_)" fill="#1A303A" d="M766.169,613.321h4.914v-13.947l-5.044,1.041v-3.787l5.015-1.041h5.29
					v17.734h4.914v3.844h-15.089V613.321z M790.933,603.349c0.713-0.945,1.503-1.641,2.37-2.09c0.867-0.447,1.864-0.672,2.992-0.672
					c1.994,0,3.632,0.793,4.914,2.379c1.281,1.584,1.922,3.625,1.922,6.121c0,2.494-0.641,4.535-1.922,6.119
					c-1.282,1.586-2.92,2.379-4.914,2.379c-1.128,0-2.125-0.225-2.992-0.672c-0.867-0.449-1.657-1.145-2.37-2.09v2.342h-5.175
					v-22.488h5.175V603.349z M794.372,613.827c1.108,0,1.953-0.404,2.537-1.215c0.582-0.809,0.874-1.984,0.874-3.525
					c0-1.543-0.292-2.719-0.874-3.527c-0.584-0.809-1.429-1.215-2.537-1.215s-1.958,0.408-2.551,1.223s-0.889,1.986-0.889,3.52
					c0,1.531,0.296,2.705,0.889,3.518C792.414,613.419,793.264,613.827,794.372,613.827z"/>
				<path clip-path="url(#SVGID_2_)" fill-rule="evenodd" clip-rule="evenodd" fill="#B9F9F7" d="M1090.9,505.165
					c0,19.1-15.5,34.6-34.601,34.6c-19.1,0-34.6-15.5-34.6-34.6s15.5-34.6,34.6-34.6C1075.4,470.565,1090.9,486.065,1090.9,505.165z
					"/>
				<path clip-path="url(#SVGID_2_)" fill="#1A303A" d="M151.607,501.808c1.858,0.479,3.271,1.313,4.236,2.5
					c0.966,1.188,1.449,2.699,1.449,4.531c0,2.732-1.047,4.809-3.138,6.23c-2.093,1.42-5.144,2.131-9.155,2.131
					c-1.414,0-2.833-0.113-4.254-0.342c-1.422-0.227-2.827-0.568-4.217-1.023v-5.482c1.328,0.665,2.648,1.166,3.959,1.505
					c1.31,0.339,2.599,0.507,3.866,0.507c1.882,0,3.325-0.325,4.328-0.978s1.505-1.587,1.505-2.806c0-1.255-0.515-2.205-1.542-2.852
					s-2.544-0.969-4.55-0.969h-2.842v-4.578h2.99c1.783,0,3.112-0.279,3.986-0.84c0.873-0.559,1.311-1.411,1.311-2.556
					c0-1.058-0.425-1.876-1.273-2.454c-0.85-0.579-2.049-0.868-3.6-0.868c-1.145,0-2.301,0.13-3.47,0.388s-2.332,0.64-3.488,1.145
					v-5.205c1.403-0.394,2.793-0.689,4.171-0.887c1.379-0.195,2.732-0.295,4.061-0.295c3.581,0,6.26,0.588,8.038,1.764
					c1.778,1.174,2.667,2.943,2.667,5.306c0,1.612-0.424,2.932-1.273,3.959C154.524,500.667,153.27,501.39,151.607,501.808z"/>
				<path clip-path="url(#SVGID_2_)" fill="#1A303A" d="M1058.235,489.108h7.899v17.387h3.932v5.15h-3.932v5.02h-6.718v-5.02
					h-12.219v-6.092L1058.235,489.108z M1059.417,494.96l-7.789,11.535h7.789V494.96z"/>
				<path clip-path="url(#SVGID_2_)" fill-rule="evenodd" clip-rule="evenodd" fill="#B9F9F7" d="M293.7,557.765v-85.5
					c0-4.1,3.3-7.399,7.399-7.399h121.5c23.4,0,43.5,4.101,48.101,27.101l13.1,65.5L293.7,557.765z"/>
				<path clip-path="url(#SVGID_2_)" fill-rule="evenodd" clip-rule="evenodd" fill="#B9F9F7" d="M911.5,557.765v-85.5
					c0-4.1-3.3-7.399-7.4-7.399H782.6c-23.399,0-43.5,4.101-48.1,27.101l-13.1,65.5L911.5,557.765z"/>
				<path clip-path="url(#SVGID_2_)" fill-rule="evenodd" clip-rule="evenodd" fill="#B9F9F7" d="M485.9,326.065l-12.301,38.4
					c-0.399,2.199-4.5,8.799-6.8,8.799c0,0-74.7,6.101-75.1,5.701c0,0-15.7-0.101-17-0.101H308c-2.7,0-4.9-2.2-4.9-4.899
					l-9.399-47.9H485.9z"/>
				<path clip-path="url(#SVGID_2_)" fill-rule="evenodd" clip-rule="evenodd" fill="#B9F9F7" d="M719.5,326.065l12.2,38.4
					c0.5,2.199,4.6,8.799,6.899,8.799c0,0,74.7,6.101,75.101,5.701c0,0,15.7-0.101,17-0.101h66.7c2.699,0,4.899-2.2,4.899-4.899
					l9.4-47.9H719.5z"/>
				<path clip-path="url(#SVGID_2_)" fill="none" stroke="#B9F9F7" stroke-width="8.7164" stroke-miterlimit="7.6613" d="
					M439.9,268.765c0,0-60.101-18.899-60,37.201"/>
				<polyline clip-path="url(#SVGID_2_)" fill="none" stroke="#B9F9F7" stroke-width="8.7164" stroke-miterlimit="7.6613" points="
					355.6,285.765 379.9,305.966 409.9,285.765 				"/>
				<path clip-path="url(#SVGID_2_)" fill="none" stroke="#B9F9F7" stroke-width="8.7164" stroke-miterlimit="7.6613" d="
					M402.7,614.466c0,0-60,18.9-59.9-37.201"/>
				<polyline clip-path="url(#SVGID_2_)" fill="none" stroke="#B9F9F7" stroke-width="8.7164" stroke-miterlimit="7.6613" points="
					318.5,597.366 342.8,577.265 372.8,597.366 				"/>
				<path clip-path="url(#SVGID_2_)" fill="none" stroke="#B9F9F7" stroke-width="8.7164" stroke-miterlimit="7.6613" d="
					M806.2,614.466c0,0,60,18.9,60-37.201"/>
				<polyline clip-path="url(#SVGID_2_)" fill="none" stroke="#B9F9F7" stroke-width="8.7164" stroke-miterlimit="7.6613" points="
					890.5,597.366 866.2,577.265 836.2,597.366 				"/>
				<path clip-path="url(#SVGID_2_)" fill="none" stroke="#B9F9F7" stroke-width="8.7164" stroke-miterlimit="7.6613" d="
					M769.6,268.765c0,0,60-18.899,60,37.201"/>
				<polyline clip-path="url(#SVGID_2_)" fill="none" stroke="#B9F9F7" stroke-width="8.7164" stroke-miterlimit="7.6613" points="
					853.8,285.765 829.5,305.966 799.5,285.765 				"/>
				
					<line clip-path="url(#SVGID_2_)" fill="none" stroke="#B9F9F7" stroke-width="8.7164" stroke-miterlimit="7.6613" x1="179.3" y1="505.165" x2="265.2" y2="504.865"/>
				<polyline clip-path="url(#SVGID_2_)" fill="none" stroke="#B9F9F7" stroke-width="8.7164" stroke-miterlimit="7.6613" points="
					238.2,477.966 265.2,504.865 238.2,532.865 				"/>
				
					<line clip-path="url(#SVGID_2_)" fill="none" stroke="#B9F9F7" stroke-width="8.7164" stroke-miterlimit="7.6613" x1="1021.7" y1="505.765" x2="935.9" y2="506.065"/>
				<polyline clip-path="url(#SVGID_2_)" fill="none" stroke="#B9F9F7" stroke-width="8.7164" stroke-miterlimit="7.6613" points="
					962.9,532.865 935.9,506.065 962.9,477.966 				"/>
				<path clip-path="url(#SVGID_2_)" fill="#1A303A" d="M502.022,100.215v3.071c-0.797-0.357-1.574-0.626-2.332-0.807
					c-0.758-0.182-1.474-0.273-2.147-0.273c-0.895,0-1.555,0.124-1.982,0.37s-0.641,0.628-0.641,1.146
					c0,0.389,0.144,0.691,0.432,0.909c0.289,0.217,0.812,0.402,1.57,0.559l1.593,0.32c1.613,0.324,2.76,0.816,3.44,1.477
					c0.68,0.66,1.02,1.6,1.02,2.818c0,1.6-0.475,2.79-1.424,3.57c-0.949,0.781-2.398,1.172-4.348,1.172
					c-0.92,0-1.844-0.088-2.77-0.264c-0.926-0.174-1.853-0.434-2.779-0.777v-3.157c0.927,0.492,1.822,0.863,2.688,1.112
					c0.864,0.25,1.698,0.375,2.502,0.375c0.816,0,1.441-0.137,1.875-0.408c0.434-0.273,0.65-0.662,0.65-1.166
					c0-0.454-0.146-0.804-0.441-1.051c-0.295-0.246-0.883-0.466-1.764-0.66l-1.447-0.32c-1.451-0.311-2.512-0.807-3.183-1.486
					c-0.671-0.681-1.006-1.598-1.006-2.75c0-1.445,0.466-2.557,1.399-3.334c0.933-0.777,2.273-1.166,4.022-1.166
					c0.797,0,1.616,0.061,2.458,0.181C500.251,99.796,501.122,99.976,502.022,100.215z M506.314,99.759h3.741v5.528h5.519v-5.528
					h3.741v14.506h-3.741v-6.15h-5.519v6.15h-3.741V99.759z M522.911,99.759h3.741v14.506h-3.741V99.759z M530.394,99.759h4.179
					l5.275,9.949v-9.949h3.547v14.506h-4.178l-5.277-9.949v9.949h-3.546V99.759z M544.969,99.759h4.091l3.304,5.168l3.304-5.168
					h4.101l-5.529,8.395v6.111h-3.74v-6.111L544.969,99.759z M576.729,103.723v2.644c-0.745-0.312-1.464-0.545-2.157-0.7
					s-1.348-0.233-1.963-0.233c-0.66,0-1.151,0.082-1.473,0.248c-0.32,0.165-0.48,0.42-0.48,0.763c0,0.278,0.121,0.492,0.364,0.642
					c0.243,0.148,0.679,0.259,1.308,0.33l0.611,0.088c1.781,0.227,2.98,0.599,3.596,1.117c0.615,0.518,0.923,1.331,0.923,2.439
					c0,1.158-0.428,2.029-1.282,2.613c-0.855,0.582-2.132,0.875-3.828,0.875c-0.72,0-1.463-0.058-2.23-0.171
					c-0.768-0.112-1.557-0.283-2.366-0.511v-2.643c0.692,0.338,1.404,0.59,2.133,0.758c0.729,0.169,1.469,0.254,2.22,0.254
					c0.681,0,1.192-0.095,1.535-0.283c0.344-0.188,0.516-0.466,0.516-0.835c0-0.312-0.118-0.542-0.354-0.694
					c-0.237-0.152-0.708-0.271-1.414-0.355l-0.612-0.078c-1.548-0.193-2.633-0.553-3.255-1.078
					c-0.622-0.524-0.933-1.321-0.933-2.391c0-1.152,0.395-2.008,1.186-2.564c0.79-0.557,2.002-0.836,3.634-0.836
					c0.642,0,1.315,0.049,2.021,0.146C575.133,103.363,575.9,103.515,576.729,103.723z M580.107,99.146h3.479v2.838h-3.479V99.146z
					 M580.107,103.382h3.479v10.883h-3.479V103.382z M594.317,104.976v-5.83h3.498v15.119h-3.498v-1.573
					c-0.479,0.642-1.007,1.11-1.584,1.409c-0.577,0.297-1.243,0.447-2.001,0.447c-1.342,0-2.443-0.533-3.305-1.6
					c-0.861-1.064-1.292-2.438-1.292-4.115s0.431-3.049,1.292-4.114s1.963-1.599,3.305-1.599c0.751,0,1.416,0.15,1.996,0.451
					C593.309,103.874,593.838,104.341,594.317,104.976z M592.024,112.021c0.745,0,1.313-0.271,1.705-0.816
					c0.392-0.543,0.588-1.334,0.588-2.371c0-1.035-0.196-1.826-0.588-2.37s-0.96-0.816-1.705-0.816
					c-0.739,0-1.304,0.272-1.696,0.816c-0.392,0.544-0.588,1.335-0.588,2.37c0,1.037,0.196,1.828,0.588,2.371
					C590.721,111.749,591.285,112.021,592.024,112.021z M612.064,108.795v0.991h-8.133c0.084,0.816,0.379,1.428,0.885,1.836
					c0.505,0.408,1.211,0.613,2.118,0.613c0.731,0,1.481-0.109,2.249-0.326s1.557-0.546,2.366-0.986v2.682
					c-0.823,0.311-1.646,0.546-2.468,0.705c-0.823,0.158-1.646,0.238-2.469,0.238c-1.969,0-3.5-0.501-4.591-1.502
					c-1.092-1.001-1.638-2.404-1.638-4.213c0-1.773,0.536-3.17,1.608-4.188c1.072-1.017,2.547-1.525,4.426-1.525
					c1.71,0,3.079,0.516,4.105,1.545C611.551,105.695,612.064,107.071,612.064,108.795z M608.489,107.639
					c0-0.661-0.193-1.194-0.578-1.599c-0.386-0.404-0.89-0.607-1.512-0.607c-0.674,0-1.221,0.189-1.642,0.568
					c-0.422,0.379-0.684,0.926-0.787,1.638H608.489z M626.857,103.12c1.872,0,3.334,0.506,4.387,1.516
					c1.053,1.011,1.579,2.41,1.579,4.197c0,1.789-0.526,3.188-1.579,4.198s-2.515,1.517-4.387,1.517
					c-1.879,0-3.348-0.506-4.406-1.517c-1.06-1.011-1.589-2.409-1.589-4.198c0-1.787,0.529-3.187,1.589-4.197
					C623.51,103.626,624.979,103.12,626.857,103.12z M626.857,105.608c-0.771,0-1.358,0.276-1.764,0.83s-0.607,1.352-0.607,2.395
					s0.202,1.842,0.607,2.396c0.405,0.553,0.992,0.83,1.764,0.83c0.758,0,1.338-0.277,1.739-0.83
					c0.401-0.555,0.603-1.354,0.603-2.396s-0.201-1.841-0.603-2.395S627.615,105.608,626.857,105.608z M646.291,107.639v6.626
					h-3.498v-1.078v-3.993c0-0.939-0.021-1.587-0.063-1.943s-0.115-0.618-0.219-0.787c-0.136-0.228-0.32-0.403-0.554-0.53
					c-0.233-0.125-0.499-0.189-0.797-0.189c-0.726,0-1.296,0.281-1.71,0.842c-0.415,0.56-0.622,1.336-0.622,2.326v5.354h-3.479
					v-10.883h3.479v1.594c0.524-0.635,1.082-1.102,1.671-1.404c0.59-0.301,1.241-0.451,1.953-0.451c1.257,0,2.211,0.386,2.862,1.156
					C645.965,105.048,646.291,106.168,646.291,107.639z M660.243,100.292v3.09h3.585v2.488h-3.585v4.615
					c0,0.506,0.101,0.848,0.301,1.025c0.201,0.178,0.6,0.268,1.195,0.268h1.788v2.486h-2.983c-1.373,0-2.347-0.285-2.92-0.859
					c-0.573-0.573-0.859-1.547-0.859-2.92v-4.615h-1.729v-2.488h1.729v-3.09H660.243z M676.877,107.639v6.626h-3.498v-1.078v-3.975
					c0-0.951-0.021-1.605-0.063-1.962s-0.114-0.618-0.218-0.787c-0.137-0.228-0.321-0.403-0.555-0.53
					c-0.232-0.125-0.498-0.189-0.797-0.189c-0.725,0-1.295,0.281-1.71,0.842c-0.414,0.56-0.622,1.336-0.622,2.326v5.354h-3.479
					V99.146h3.479v5.83c0.525-0.635,1.082-1.102,1.672-1.404c0.589-0.301,1.24-0.451,1.953-0.451c1.257,0,2.211,0.386,2.861,1.156
					C676.552,105.048,676.877,106.168,676.877,107.639z M690.988,108.795v0.991h-8.133c0.084,0.816,0.379,1.428,0.884,1.836
					s1.211,0.613,2.118,0.613c0.732,0,1.481-0.109,2.25-0.326c0.768-0.217,1.556-0.546,2.365-0.986v2.682
					c-0.822,0.311-1.646,0.546-2.468,0.705c-0.822,0.158-1.646,0.238-2.468,0.238c-1.97,0-3.5-0.501-4.592-1.502
					c-1.091-1.001-1.637-2.404-1.637-4.213c0-1.773,0.536-3.17,1.607-4.188c1.072-1.017,2.548-1.525,4.427-1.525
					c1.71,0,3.078,0.516,4.105,1.545C690.475,105.695,690.988,107.071,690.988,108.795z M687.412,107.639
					c0-0.661-0.192-1.194-0.578-1.599s-0.889-0.607-1.511-0.607c-0.674,0-1.222,0.189-1.643,0.568s-0.684,0.926-0.787,1.638H687.412
					z M699.027,99.759h13.37v2.827h-4.81v11.679h-3.741v-11.679h-4.819V99.759z M723.133,111.622h-5.85l-0.924,2.643h-3.76
					l5.373-14.506h4.46l5.374,14.506h-3.761L723.133,111.622z M718.216,108.931h3.974l-1.981-5.771L718.216,108.931z
					 M739.048,106.501c0.803,0.234,1.425,0.664,1.865,1.293s0.661,1.399,0.661,2.313c0,1.399-0.473,2.442-1.419,3.129
					c-0.945,0.688-2.384,1.029-4.314,1.029h-6.209V99.759h5.616c2.015,0,3.475,0.305,4.378,0.912
					c0.903,0.609,1.355,1.584,1.355,2.926c0,0.705-0.165,1.307-0.496,1.803C740.155,105.895,739.676,106.263,739.048,106.501z
					 M735.442,105.374c0.59,0,1.037-0.129,1.341-0.389c0.305-0.258,0.457-0.641,0.457-1.146c0-0.498-0.152-0.879-0.457-1.141
					c-0.304-0.264-0.751-0.395-1.341-0.395h-2.069v3.07H735.442z M735.569,111.72c0.751,0,1.316-0.158,1.695-0.477
					c0.379-0.316,0.568-0.797,0.568-1.438c0-0.629-0.188-1.1-0.563-1.414s-0.942-0.471-1.7-0.471h-2.196v3.799H735.569z
					 M744.815,99.759h3.741v11.68h6.568v2.826h-10.31V99.759z M757.592,99.759h10.096v2.827h-6.355v2.701h5.977v2.827h-5.977v3.324
					h6.569v2.826h-10.31V99.759z"/>
			</g>
		</g>
	</g>
</g>
<g id="Page_23_1_">
</g>
<g id="Page_24_1_">
</g>
<g id="Page_25_1_">
</g>
<g id="Page_26_1_">
</g>
<g id="Page_27_1_">
</g>
<g id="Page_28_1_">
</g>
<g id="Page_29_1_">
</g>
<g id="Page_30_1_">
</g>
<g id="Page_31_1_">
</g>
<g id="Page_32_1_">
</g>
<g id="Page_33_1_">
</g>
<g id="Page_34_1_">
</g>
<g id="Page_35_1_">
</g>
<g id="Page_36_1_">
</g>
<g id="Page_37_1_">
</g>
<g id="Page_38_1_">
</g>
</svg>
