<?xml version="1.0" encoding="utf-8"?>
<!-- Generator: Adobe Illustrator 16.0.0, SVG Export Plug-In . SVG Version: 6.00 Build 0)  -->
<!DOCTYPE svg PUBLIC "-//W3C//DTD SVG 1.1//EN" "http://www.w3.org/Graphics/SVG/1.1/DTD/svg11.dtd">
<svg version="1.1" id="Layer_1" xmlns="http://www.w3.org/2000/svg" xmlns:xlink="http://www.w3.org/1999/xlink" x="0px" y="0px"
	 width="1210px" height="1178px" viewBox="0 0 1210 1178" enable-background="new 0 0 1210 1178" xml:space="preserve">
<g>
	<defs>
		<rect id="SVGID_1_" x="514" y="133.94" width="318" height="83.06"/>
	</defs>
	<clipPath id="SVGID_2_">
		<use xlink:href="#SVGID_1_"  overflow="visible"/>
	</clipPath>
	
		<rect x="516" y="135.945" clip-path="url(#SVGID_2_)" fill-rule="evenodd" clip-rule="evenodd" fill="#FFEAB6" width="314" height="79.055"/>
	
		<rect x="516" y="135.945" clip-path="url(#SVGID_2_)" fill="none" stroke="#FF9425" stroke-width="4" stroke-miterlimit="10" width="314" height="79.055"/>
</g>
<g>
	<defs>
		<rect id="SVGID_3_" y="0.001" width="1210" height="1177.999"/>
	</defs>
	<clipPath id="SVGID_4_">
		<use xlink:href="#SVGID_3_"  overflow="visible"/>
	</clipPath>
</g>
<g>
	<defs>
		<rect id="SVGID_5_" width="1210" height="1178"/>
	</defs>
	<clipPath id="SVGID_6_">
		<use xlink:href="#SVGID_5_"  overflow="visible"/>
	</clipPath>
	<path clip-path="url(#SVGID_6_)" fill="none" stroke="#2C77BC" stroke-width="7.153" stroke-miterlimit="10" d="M869.037,813.949
		H336.231c-65.979,0-119.962-53.983-119.962-119.962V231.658c0-65.98,53.983-119.963,119.962-119.963h532.806
		c65.979,0,119.963,53.983,119.963,119.963v462.329C989,759.966,935.016,813.949,869.037,813.949z"/>
	<polygon clip-path="url(#SVGID_6_)" fill="none" stroke="#2C77BC" stroke-width="7.153" stroke-miterlimit="10" points="
		495.501,469.383 495.501,443.438 795.868,445.562 795.868,469.383 834.463,469.383 834.463,667.003 797.546,667.003 
		797.546,692.173 495.501,692.173 495.501,670.358 456.906,670.358 456.906,469.383 	"/>
	<path clip-path="url(#SVGID_6_)" fill-rule="evenodd" clip-rule="evenodd" fill="#2C77BC" d="M496.026,505.53
		c0,3.203-2.597,5.8-5.8,5.8c-3.203,0-5.799-2.597-5.799-5.8c0-3.203,2.596-5.799,5.799-5.799
		C493.429,499.731,496.026,502.327,496.026,505.53"/>
	<path clip-path="url(#SVGID_6_)" fill-rule="evenodd" clip-rule="evenodd" fill="#2C77BC" d="M527.35,505.53
		c0,3.203-2.597,5.8-5.8,5.8c-3.203,0-5.8-2.597-5.8-5.8c0-3.203,2.597-5.799,5.8-5.799
		C524.752,499.731,527.35,502.327,527.35,505.53"/>
	<path clip-path="url(#SVGID_6_)" fill-rule="evenodd" clip-rule="evenodd" fill="#2C77BC" d="M558.673,505.53
		c0,3.203-2.597,5.8-5.8,5.8c-3.203,0-5.8-2.597-5.8-5.8c0-3.203,2.597-5.799,5.8-5.799
		C556.076,499.731,558.673,502.327,558.673,505.53"/>
	<path clip-path="url(#SVGID_6_)" fill-rule="evenodd" clip-rule="evenodd" fill="#2C77BC" d="M589.996,505.53
		c0,3.203-2.597,5.8-5.8,5.8c-3.203,0-5.8-2.597-5.8-5.8c0-3.203,2.597-5.799,5.8-5.799
		C587.399,499.731,589.996,502.327,589.996,505.53"/>
	<path clip-path="url(#SVGID_6_)" fill-rule="evenodd" clip-rule="evenodd" fill="#2C77BC" d="M621.318,505.53
		c0,3.203-2.596,5.8-5.799,5.8s-5.8-2.597-5.8-5.8c0-3.203,2.597-5.799,5.8-5.799S621.318,502.327,621.318,505.53"/>
	<path clip-path="url(#SVGID_6_)" fill-rule="evenodd" clip-rule="evenodd" fill="#2C77BC" d="M652.642,505.53
		c0,3.203-2.596,5.8-5.799,5.8s-5.8-2.597-5.8-5.8c0-3.203,2.597-5.799,5.8-5.799S652.642,502.327,652.642,505.53"/>
	<path clip-path="url(#SVGID_6_)" fill-rule="evenodd" clip-rule="evenodd" fill="#2C77BC" d="M683.965,505.53
		c0,3.203-2.597,5.8-5.799,5.8c-3.203,0-5.801-2.597-5.801-5.8c0-3.203,2.598-5.799,5.801-5.799
		C681.368,499.731,683.965,502.327,683.965,505.53"/>
	<path clip-path="url(#SVGID_6_)" fill-rule="evenodd" clip-rule="evenodd" fill="#2C77BC" d="M715.288,505.53
		c0,3.203-2.597,5.8-5.799,5.8c-3.203,0-5.8-2.597-5.8-5.8c0-3.203,2.597-5.799,5.8-5.799
		C712.691,499.731,715.288,502.327,715.288,505.53"/>
	<path clip-path="url(#SVGID_6_)" fill-rule="evenodd" clip-rule="evenodd" fill="#2C77BC" d="M746.611,505.53
		c0,3.203-2.597,5.8-5.8,5.8c-3.202,0-5.799-2.597-5.799-5.8c0-3.203,2.597-5.799,5.799-5.799
		C744.015,499.731,746.611,502.327,746.611,505.53"/>
	<path clip-path="url(#SVGID_6_)" fill-rule="evenodd" clip-rule="evenodd" fill="#2C77BC" d="M777.935,505.53
		c0,3.203-2.597,5.8-5.8,5.8c-3.202,0-5.799-2.597-5.799-5.8c0-3.203,2.597-5.799,5.799-5.799
		C775.338,499.731,777.935,502.327,777.935,505.53"/>
	<path clip-path="url(#SVGID_6_)" fill-rule="evenodd" clip-rule="evenodd" fill="#2C77BC" d="M809.258,505.53
		c0,3.203-2.597,5.8-5.8,5.8s-5.799-2.597-5.799-5.8c0-3.203,2.596-5.799,5.799-5.799S809.258,502.327,809.258,505.53"/>
	<path clip-path="url(#SVGID_6_)" fill-rule="evenodd" clip-rule="evenodd" fill="#2C77BC" d="M496.026,537.235
		c0,3.203-2.597,5.8-5.8,5.8c-3.203,0-5.799-2.597-5.799-5.8c0-3.203,2.596-5.799,5.799-5.799
		C493.429,531.437,496.026,534.033,496.026,537.235"/>
	<path clip-path="url(#SVGID_6_)" fill-rule="evenodd" clip-rule="evenodd" fill="#2C77BC" d="M527.35,537.235
		c0,3.203-2.597,5.8-5.8,5.8c-3.203,0-5.8-2.597-5.8-5.8c0-3.203,2.597-5.799,5.8-5.799
		C524.752,531.437,527.35,534.033,527.35,537.235"/>
	<path clip-path="url(#SVGID_6_)" fill-rule="evenodd" clip-rule="evenodd" fill="#2C77BC" d="M558.673,537.235
		c0,3.203-2.597,5.8-5.8,5.8c-3.203,0-5.8-2.597-5.8-5.8c0-3.203,2.597-5.799,5.8-5.799
		C556.076,531.437,558.673,534.033,558.673,537.235"/>
	<path clip-path="url(#SVGID_6_)" fill-rule="evenodd" clip-rule="evenodd" fill="#2C77BC" d="M589.996,537.235
		c0,3.203-2.597,5.8-5.8,5.8c-3.203,0-5.8-2.597-5.8-5.8c0-3.203,2.597-5.799,5.8-5.799
		C587.399,531.437,589.996,534.033,589.996,537.235"/>
	<path clip-path="url(#SVGID_6_)" fill-rule="evenodd" clip-rule="evenodd" fill="#2C77BC" d="M621.318,537.235
		c0,3.203-2.596,5.8-5.799,5.8s-5.8-2.597-5.8-5.8c0-3.203,2.597-5.799,5.8-5.799S621.318,534.033,621.318,537.235"/>
	<path clip-path="url(#SVGID_6_)" fill-rule="evenodd" clip-rule="evenodd" fill="#2C77BC" d="M652.642,537.235
		c0,3.203-2.596,5.8-5.799,5.8s-5.8-2.597-5.8-5.8c0-3.203,2.597-5.799,5.8-5.799S652.642,534.033,652.642,537.235"/>
	<path clip-path="url(#SVGID_6_)" fill-rule="evenodd" clip-rule="evenodd" fill="#2C77BC" d="M683.965,537.235
		c0,3.203-2.597,5.8-5.799,5.8c-3.203,0-5.801-2.597-5.801-5.8c0-3.203,2.598-5.799,5.801-5.799
		C681.368,531.437,683.965,534.033,683.965,537.235"/>
	<path clip-path="url(#SVGID_6_)" fill-rule="evenodd" clip-rule="evenodd" fill="#2C77BC" d="M715.288,537.235
		c0,3.203-2.597,5.8-5.799,5.8c-3.203,0-5.8-2.597-5.8-5.8c0-3.203,2.597-5.799,5.8-5.799
		C712.691,531.437,715.288,534.033,715.288,537.235"/>
	<path clip-path="url(#SVGID_6_)" fill-rule="evenodd" clip-rule="evenodd" fill="#2C77BC" d="M746.611,537.235
		c0,3.203-2.597,5.8-5.8,5.8c-3.202,0-5.799-2.597-5.799-5.8c0-3.203,2.597-5.799,5.799-5.799
		C744.015,531.437,746.611,534.033,746.611,537.235"/>
	<path clip-path="url(#SVGID_6_)" fill-rule="evenodd" clip-rule="evenodd" fill="#2C77BC" d="M777.935,537.235
		c0,3.203-2.597,5.8-5.8,5.8c-3.202,0-5.799-2.597-5.799-5.8c0-3.203,2.597-5.799,5.799-5.799
		C775.338,531.437,777.935,534.033,777.935,537.235"/>
	<path clip-path="url(#SVGID_6_)" fill-rule="evenodd" clip-rule="evenodd" fill="#2C77BC" d="M809.258,537.235
		c0,3.203-2.597,5.8-5.8,5.8s-5.799-2.597-5.799-5.8c0-3.203,2.596-5.799,5.799-5.799S809.258,534.033,809.258,537.235"/>
	<path clip-path="url(#SVGID_6_)" fill-rule="evenodd" clip-rule="evenodd" fill="#2C77BC" d="M496.026,568.941
		c0,3.203-2.597,5.8-5.8,5.8c-3.203,0-5.799-2.597-5.799-5.8c0-3.203,2.596-5.799,5.799-5.799
		C493.429,563.142,496.026,565.738,496.026,568.941"/>
	<path clip-path="url(#SVGID_6_)" fill-rule="evenodd" clip-rule="evenodd" fill="#2C77BC" d="M527.35,568.941
		c0,3.203-2.597,5.8-5.8,5.8c-3.203,0-5.8-2.597-5.8-5.8c0-3.203,2.597-5.799,5.8-5.799
		C524.752,563.142,527.35,565.738,527.35,568.941"/>
	<path clip-path="url(#SVGID_6_)" fill-rule="evenodd" clip-rule="evenodd" fill="#2C77BC" d="M558.673,568.941
		c0,3.203-2.597,5.8-5.8,5.8c-3.203,0-5.8-2.597-5.8-5.8c0-3.203,2.597-5.799,5.8-5.799
		C556.076,563.142,558.673,565.738,558.673,568.941"/>
	<path clip-path="url(#SVGID_6_)" fill-rule="evenodd" clip-rule="evenodd" fill="#2C77BC" d="M589.996,568.941
		c0,3.203-2.597,5.8-5.8,5.8c-3.203,0-5.8-2.597-5.8-5.8c0-3.203,2.597-5.799,5.8-5.799
		C587.399,563.142,589.996,565.738,589.996,568.941"/>
	<path clip-path="url(#SVGID_6_)" fill-rule="evenodd" clip-rule="evenodd" fill="#2C77BC" d="M621.318,568.941
		c0,3.203-2.596,5.8-5.799,5.8s-5.8-2.597-5.8-5.8c0-3.203,2.597-5.799,5.8-5.799S621.318,565.738,621.318,568.941"/>
	<path clip-path="url(#SVGID_6_)" fill-rule="evenodd" clip-rule="evenodd" fill="#2C77BC" d="M652.642,568.941
		c0,3.203-2.596,5.8-5.799,5.8s-5.8-2.597-5.8-5.8c0-3.203,2.597-5.799,5.8-5.799S652.642,565.738,652.642,568.941"/>
	<path clip-path="url(#SVGID_6_)" fill-rule="evenodd" clip-rule="evenodd" fill="#2C77BC" d="M683.965,568.941
		c0,3.203-2.597,5.8-5.799,5.8c-3.203,0-5.801-2.597-5.801-5.8c0-3.203,2.598-5.799,5.801-5.799
		C681.368,563.142,683.965,565.738,683.965,568.941"/>
	<path clip-path="url(#SVGID_6_)" fill-rule="evenodd" clip-rule="evenodd" fill="#2C77BC" d="M715.288,568.941
		c0,3.203-2.597,5.8-5.799,5.8c-3.203,0-5.8-2.597-5.8-5.8c0-3.203,2.597-5.799,5.8-5.799
		C712.691,563.142,715.288,565.738,715.288,568.941"/>
	<path clip-path="url(#SVGID_6_)" fill-rule="evenodd" clip-rule="evenodd" fill="#2C77BC" d="M746.611,568.941
		c0,3.203-2.597,5.8-5.8,5.8c-3.202,0-5.799-2.597-5.799-5.8c0-3.203,2.597-5.799,5.799-5.799
		C744.015,563.142,746.611,565.738,746.611,568.941"/>
	<path clip-path="url(#SVGID_6_)" fill-rule="evenodd" clip-rule="evenodd" fill="#2C77BC" d="M777.935,568.941
		c0,3.203-2.597,5.8-5.8,5.8c-3.202,0-5.799-2.597-5.799-5.8c0-3.203,2.597-5.799,5.799-5.799
		C775.338,563.142,777.935,565.738,777.935,568.941"/>
	<path clip-path="url(#SVGID_6_)" fill-rule="evenodd" clip-rule="evenodd" fill="#2C77BC" d="M809.258,568.941
		c0,3.203-2.597,5.8-5.8,5.8s-5.799-2.597-5.799-5.8c0-3.203,2.596-5.799,5.799-5.799S809.258,565.738,809.258,568.941"/>
	<path clip-path="url(#SVGID_6_)" fill-rule="evenodd" clip-rule="evenodd" fill="#2C77BC" d="M496.026,600.646
		c0,3.203-2.597,5.799-5.8,5.799c-3.203,0-5.799-2.596-5.799-5.799s2.596-5.8,5.799-5.8
		C493.429,594.847,496.026,597.443,496.026,600.646"/>
	<path clip-path="url(#SVGID_6_)" fill-rule="evenodd" clip-rule="evenodd" fill="#2C77BC" d="M527.35,600.646
		c0,3.203-2.597,5.799-5.8,5.799c-3.203,0-5.8-2.596-5.8-5.799s2.597-5.8,5.8-5.8C524.752,594.847,527.35,597.443,527.35,600.646"/>
	<path clip-path="url(#SVGID_6_)" fill-rule="evenodd" clip-rule="evenodd" fill="#2C77BC" d="M558.673,600.646
		c0,3.203-2.597,5.799-5.8,5.799c-3.203,0-5.8-2.596-5.8-5.799s2.597-5.8,5.8-5.8C556.076,594.847,558.673,597.443,558.673,600.646"
		/>
	<path clip-path="url(#SVGID_6_)" fill-rule="evenodd" clip-rule="evenodd" fill="#2C77BC" d="M589.996,600.646
		c0,3.203-2.597,5.799-5.8,5.799c-3.203,0-5.8-2.596-5.8-5.799s2.597-5.8,5.8-5.8C587.399,594.847,589.996,597.443,589.996,600.646"
		/>
	<path clip-path="url(#SVGID_6_)" fill-rule="evenodd" clip-rule="evenodd" fill="#2C77BC" d="M621.318,600.646
		c0,3.203-2.596,5.799-5.799,5.799s-5.8-2.596-5.8-5.799s2.597-5.8,5.8-5.8S621.318,597.443,621.318,600.646"/>
	<path clip-path="url(#SVGID_6_)" fill-rule="evenodd" clip-rule="evenodd" fill="#2C77BC" d="M652.642,600.646
		c0,3.203-2.596,5.799-5.799,5.799s-5.8-2.596-5.8-5.799s2.597-5.8,5.8-5.8S652.642,597.443,652.642,600.646"/>
	<path clip-path="url(#SVGID_6_)" fill-rule="evenodd" clip-rule="evenodd" fill="#2C77BC" d="M683.965,600.646
		c0,3.203-2.597,5.799-5.799,5.799c-3.203,0-5.801-2.596-5.801-5.799s2.598-5.8,5.801-5.8
		C681.368,594.847,683.965,597.443,683.965,600.646"/>
	<path clip-path="url(#SVGID_6_)" fill-rule="evenodd" clip-rule="evenodd" fill="#2C77BC" d="M715.288,600.646
		c0,3.203-2.597,5.799-5.799,5.799c-3.203,0-5.8-2.596-5.8-5.799s2.597-5.8,5.8-5.8
		C712.691,594.847,715.288,597.443,715.288,600.646"/>
	<path clip-path="url(#SVGID_6_)" fill-rule="evenodd" clip-rule="evenodd" fill="#2C77BC" d="M746.611,600.646
		c0,3.203-2.597,5.799-5.8,5.799c-3.202,0-5.799-2.596-5.799-5.799s2.597-5.8,5.799-5.8
		C744.015,594.847,746.611,597.443,746.611,600.646"/>
	<path clip-path="url(#SVGID_6_)" fill-rule="evenodd" clip-rule="evenodd" fill="#2C77BC" d="M777.935,600.646
		c0,3.203-2.597,5.799-5.8,5.799c-3.202,0-5.799-2.596-5.799-5.799s2.597-5.8,5.799-5.8
		C775.338,594.847,777.935,597.443,777.935,600.646"/>
	<path clip-path="url(#SVGID_6_)" fill-rule="evenodd" clip-rule="evenodd" fill="#2C77BC" d="M809.258,600.646
		c0,3.203-2.597,5.799-5.8,5.799s-5.799-2.596-5.799-5.799s2.596-5.8,5.799-5.8S809.258,597.443,809.258,600.646"/>
	<path clip-path="url(#SVGID_6_)" fill-rule="evenodd" clip-rule="evenodd" fill="#2C77BC" d="M496.026,632.353
		c0,3.203-2.597,5.799-5.8,5.799c-3.203,0-5.799-2.596-5.799-5.799s2.596-5.8,5.799-5.8
		C493.429,626.553,496.026,629.149,496.026,632.353"/>
	<path clip-path="url(#SVGID_6_)" fill-rule="evenodd" clip-rule="evenodd" fill="#2C77BC" d="M527.35,632.353
		c0,3.203-2.597,5.799-5.8,5.799c-3.203,0-5.8-2.596-5.8-5.799s2.597-5.8,5.8-5.8C524.752,626.553,527.35,629.149,527.35,632.353"/>
	<path clip-path="url(#SVGID_6_)" fill-rule="evenodd" clip-rule="evenodd" fill="#2C77BC" d="M558.673,632.353
		c0,3.203-2.597,5.799-5.8,5.799c-3.203,0-5.8-2.596-5.8-5.799s2.597-5.8,5.8-5.8C556.076,626.553,558.673,629.149,558.673,632.353"
		/>
	<path clip-path="url(#SVGID_6_)" fill-rule="evenodd" clip-rule="evenodd" fill="#2C77BC" d="M589.996,632.353
		c0,3.203-2.597,5.799-5.8,5.799c-3.203,0-5.8-2.596-5.8-5.799s2.597-5.8,5.8-5.8C587.399,626.553,589.996,629.149,589.996,632.353"
		/>
	<path clip-path="url(#SVGID_6_)" fill-rule="evenodd" clip-rule="evenodd" fill="#2C77BC" d="M621.318,632.353
		c0,3.203-2.596,5.799-5.799,5.799s-5.8-2.596-5.8-5.799s2.597-5.8,5.8-5.8S621.318,629.149,621.318,632.353"/>
	<path clip-path="url(#SVGID_6_)" fill-rule="evenodd" clip-rule="evenodd" fill="#2C77BC" d="M652.642,632.353
		c0,3.203-2.596,5.799-5.799,5.799s-5.8-2.596-5.8-5.799s2.597-5.8,5.8-5.8S652.642,629.149,652.642,632.353"/>
	<path clip-path="url(#SVGID_6_)" fill-rule="evenodd" clip-rule="evenodd" fill="#2C77BC" d="M683.965,632.353
		c0,3.203-2.597,5.799-5.799,5.799c-3.203,0-5.801-2.596-5.801-5.799s2.598-5.8,5.801-5.8
		C681.368,626.553,683.965,629.149,683.965,632.353"/>
	<path clip-path="url(#SVGID_6_)" fill-rule="evenodd" clip-rule="evenodd" fill="#2C77BC" d="M715.288,632.353
		c0,3.203-2.597,5.799-5.799,5.799c-3.203,0-5.8-2.596-5.8-5.799s2.597-5.8,5.8-5.8
		C712.691,626.553,715.288,629.149,715.288,632.353"/>
	<path clip-path="url(#SVGID_6_)" fill-rule="evenodd" clip-rule="evenodd" fill="#2C77BC" d="M746.611,632.353
		c0,3.203-2.597,5.799-5.8,5.799c-3.202,0-5.799-2.596-5.799-5.799s2.597-5.8,5.799-5.8
		C744.015,626.553,746.611,629.149,746.611,632.353"/>
	<path clip-path="url(#SVGID_6_)" fill-rule="evenodd" clip-rule="evenodd" fill="#2C77BC" d="M777.935,632.353
		c0,3.203-2.597,5.799-5.8,5.799c-3.202,0-5.799-2.596-5.799-5.799s2.597-5.8,5.799-5.8
		C775.338,626.553,777.935,629.149,777.935,632.353"/>
	<path clip-path="url(#SVGID_6_)" fill-rule="evenodd" clip-rule="evenodd" fill="#2C77BC" d="M809.258,632.353
		c0,3.203-2.597,5.799-5.8,5.799s-5.799-2.596-5.799-5.799s2.596-5.8,5.799-5.8S809.258,629.149,809.258,632.353"/>
	
		<rect x="274.841" y="226.886" clip-path="url(#SVGID_6_)" fill="none" stroke="#2C77BC" stroke-width="7.153" stroke-miterlimit="10" width="25.171" height="376.992"/>
	
		<rect x="274.841" y="166.326" clip-path="url(#SVGID_6_)" fill="none" stroke="#2C77BC" stroke-width="6.594" stroke-miterlimit="10" width="188.692" height="25.17"/>
	
		<rect x="250.929" y="709.492" clip-path="url(#SVGID_6_)" fill="none" stroke="#2C77BC" stroke-width="7.153" stroke-miterlimit="10" width="125.433" height="25.17"/>
	
		<rect x="542.347" y="166.326" clip-path="url(#SVGID_6_)" fill="none" stroke="#2C77BC" stroke-width="7.153" stroke-miterlimit="10" width="250.864" height="25.17"/>
	
		<rect x="558.673" y="365.054" clip-path="url(#SVGID_6_)" fill="none" stroke="#2C77BC" stroke-width="7.153" stroke-miterlimit="10" width="56.847" height="56.847"/>
	
		<rect x="721.088" y="309.291" clip-path="url(#SVGID_6_)" fill="none" stroke="#2C77BC" stroke-width="7.153" stroke-miterlimit="10" width="56.847" height="28.423"/>
	
		<rect x="803.458" y="246.104" clip-path="url(#SVGID_6_)" fill="none" stroke="#2C77BC" stroke-width="7.153" stroke-miterlimit="10" width="56.847" height="28.423"/>
	
		<rect x="803.458" y="372.49" clip-path="url(#SVGID_6_)" fill="none" stroke="#2C77BC" stroke-width="7.153" stroke-miterlimit="10" width="56.847" height="28.423"/>
	
		<rect x="399.435" y="713.014" clip-path="url(#SVGID_6_)" fill="none" stroke="#2C77BC" stroke-width="7.153" stroke-miterlimit="10" width="171.158" height="65.799"/>
	
		<rect x="625.851" y="713.014" clip-path="url(#SVGID_6_)" fill="none" stroke="#2C77BC" stroke-width="7.153" stroke-miterlimit="10" width="171.159" height="65.799"/>
	
		<rect x="882.179" y="309.291" clip-path="url(#SVGID_6_)" fill="none" stroke="#2C77BC" stroke-width="7.153" stroke-miterlimit="10" width="56.848" height="28.423"/>
	
		<rect x="422.99" y="749.448" clip-path="url(#SVGID_6_)" fill-rule="evenodd" clip-rule="evenodd" fill="#2C77BC" width="7.551" height="7.551"/>
	
		<rect x="451.935" y="749.448" clip-path="url(#SVGID_6_)" fill-rule="evenodd" clip-rule="evenodd" fill="#2C77BC" width="7.552" height="7.551"/>
	
		<rect x="480.882" y="749.448" clip-path="url(#SVGID_6_)" fill-rule="evenodd" clip-rule="evenodd" fill="#2C77BC" width="7.551" height="7.551"/>
	
		<rect x="509.828" y="749.448" clip-path="url(#SVGID_6_)" fill-rule="evenodd" clip-rule="evenodd" fill="#2C77BC" width="7.551" height="7.551"/>
	
		<rect x="538.773" y="749.448" clip-path="url(#SVGID_6_)" fill-rule="evenodd" clip-rule="evenodd" fill="#2C77BC" width="7.552" height="7.551"/>
	
		<rect x="649.111" y="749.448" clip-path="url(#SVGID_6_)" fill-rule="evenodd" clip-rule="evenodd" fill="#2C77BC" width="7.552" height="7.551"/>
	
		<rect x="678.057" y="749.448" clip-path="url(#SVGID_6_)" fill-rule="evenodd" clip-rule="evenodd" fill="#2C77BC" width="7.552" height="7.551"/>
	
		<rect x="707.003" y="749.448" clip-path="url(#SVGID_6_)" fill-rule="evenodd" clip-rule="evenodd" fill="#2C77BC" width="7.552" height="7.551"/>
	
		<rect x="735.949" y="749.448" clip-path="url(#SVGID_6_)" fill-rule="evenodd" clip-rule="evenodd" fill="#2C77BC" width="7.551" height="7.551"/>
	
		<rect x="764.895" y="749.448" clip-path="url(#SVGID_6_)" fill-rule="evenodd" clip-rule="evenodd" fill="#2C77BC" width="7.552" height="7.551"/>
	
		<rect x="830.057" y="717.454" clip-path="url(#SVGID_6_)" fill-rule="evenodd" clip-rule="evenodd" fill="#2C77BC" width="7.552" height="7.551"/>
	
		<rect x="863.926" y="717.454" clip-path="url(#SVGID_6_)" fill-rule="evenodd" clip-rule="evenodd" fill="#2C77BC" width="7.551" height="7.551"/>
	
		<rect x="261.128" y="653.465" clip-path="url(#SVGID_6_)" fill-rule="evenodd" clip-rule="evenodd" fill="#2C77BC" width="7.551" height="7.551"/>
	
		<rect x="294.996" y="653.465" clip-path="url(#SVGID_6_)" fill-rule="evenodd" clip-rule="evenodd" fill="#2C77BC" width="7.551" height="7.551"/>
	
		<rect x="895.333" y="717.454" clip-path="url(#SVGID_6_)" fill-rule="evenodd" clip-rule="evenodd" fill="#2C77BC" width="7.551" height="7.551"/>
	
		<line clip-path="url(#SVGID_6_)" fill="none" stroke="#2C77BC" stroke-width="7.153" stroke-miterlimit="10" x1="282.287" y1="709.492" x2="282.287" y2="734.662"/>
	
		<line clip-path="url(#SVGID_6_)" fill="none" stroke="#2C77BC" stroke-width="7.153" stroke-miterlimit="10" x1="313.646" y1="709.492" x2="313.646" y2="734.662"/>
	
		<line clip-path="url(#SVGID_6_)" fill="none" stroke="#2C77BC" stroke-width="7.153" stroke-miterlimit="10" x1="345.003" y1="709.492" x2="345.003" y2="734.662"/>
	
		<rect x="819.439" y="709.492" clip-path="url(#SVGID_6_)" fill="none" stroke="#2C77BC" stroke-width="6.208" stroke-miterlimit="10" width="94.473" height="25.17"/>
	
		<line clip-path="url(#SVGID_6_)" fill="none" stroke="#2C77BC" stroke-width="7.153" stroke-miterlimit="10" x1="850.798" y1="709.492" x2="850.798" y2="734.662"/>
	
		<line clip-path="url(#SVGID_6_)" fill="none" stroke="#2C77BC" stroke-width="7.153" stroke-miterlimit="10" x1="882.156" y1="709.492" x2="882.156" y2="734.662"/>
	
		<rect x="249.72" y="643.7" clip-path="url(#SVGID_6_)" fill="none" stroke="#2C77BC" stroke-width="7.153" stroke-miterlimit="10" width="62.717" height="25.17"/>
	
		<line clip-path="url(#SVGID_6_)" fill="none" stroke="#2C77BC" stroke-width="7.153" stroke-miterlimit="10" x1="281.078" y1="643.7" x2="281.078" y2="668.87"/>
	
		<line clip-path="url(#SVGID_6_)" fill="none" stroke="#2C77BC" stroke-width="7.153" stroke-miterlimit="10" x1="300.012" y1="572.625" x2="274.841" y2="572.625"/>
	
		<line clip-path="url(#SVGID_6_)" fill="none" stroke="#2C77BC" stroke-width="7.153" stroke-miterlimit="10" x1="300.012" y1="540.467" x2="274.841" y2="540.467"/>
	
		<line clip-path="url(#SVGID_6_)" fill="none" stroke="#2C77BC" stroke-width="7.153" stroke-miterlimit="10" x1="300.012" y1="509.109" x2="274.841" y2="509.109"/>
	
		<line clip-path="url(#SVGID_6_)" fill="none" stroke="#2C77BC" stroke-width="7.153" stroke-miterlimit="10" x1="300.012" y1="477.751" x2="274.841" y2="477.751"/>
	
		<line clip-path="url(#SVGID_6_)" fill="none" stroke="#2C77BC" stroke-width="7.153" stroke-miterlimit="10" x1="300.012" y1="446.393" x2="274.841" y2="446.393"/>
	
		<line clip-path="url(#SVGID_6_)" fill="none" stroke="#2C77BC" stroke-width="7.153" stroke-miterlimit="10" x1="300.012" y1="415.035" x2="274.841" y2="415.035"/>
	
		<line clip-path="url(#SVGID_6_)" fill="none" stroke="#2C77BC" stroke-width="7.153" stroke-miterlimit="10" x1="300.012" y1="383.677" x2="274.841" y2="383.677"/>
	
		<line clip-path="url(#SVGID_6_)" fill="none" stroke="#2C77BC" stroke-width="7.153" stroke-miterlimit="10" x1="300.012" y1="352.318" x2="274.841" y2="352.318"/>
	
		<line clip-path="url(#SVGID_6_)" fill="none" stroke="#2C77BC" stroke-width="7.153" stroke-miterlimit="10" x1="300.012" y1="320.96" x2="274.841" y2="320.96"/>
	
		<line clip-path="url(#SVGID_6_)" fill="none" stroke="#2C77BC" stroke-width="7.153" stroke-miterlimit="10" x1="300.012" y1="289.603" x2="274.841" y2="289.603"/>
	
		<line clip-path="url(#SVGID_6_)" fill="none" stroke="#2C77BC" stroke-width="7.153" stroke-miterlimit="10" x1="300.012" y1="258.244" x2="274.841" y2="258.244"/>
	
		<line clip-path="url(#SVGID_6_)" fill="none" stroke="#2C77BC" stroke-width="7.153" stroke-miterlimit="10" x1="573.704" y1="191.496" x2="573.704" y2="166.326"/>
	
		<line clip-path="url(#SVGID_6_)" fill="none" stroke="#2C77BC" stroke-width="7.153" stroke-miterlimit="10" x1="431.632" y1="191.496" x2="431.632" y2="166.326"/>
	
		<line clip-path="url(#SVGID_6_)" fill="none" stroke="#2C77BC" stroke-width="7.153" stroke-miterlimit="10" x1="400.273" y1="191.496" x2="400.273" y2="166.326"/>
	
		<line clip-path="url(#SVGID_6_)" fill="none" stroke="#2C77BC" stroke-width="7.153" stroke-miterlimit="10" x1="368.915" y1="191.496" x2="368.915" y2="166.326"/>
	
		<line clip-path="url(#SVGID_6_)" fill="none" stroke="#2C77BC" stroke-width="7.153" stroke-miterlimit="10" x1="337.557" y1="191.496" x2="337.557" y2="166.326"/>
	
		<line clip-path="url(#SVGID_6_)" fill="none" stroke="#2C77BC" stroke-width="7.153" stroke-miterlimit="10" x1="306.199" y1="191.496" x2="306.199" y2="166.326"/>
	
		<line clip-path="url(#SVGID_6_)" fill="none" stroke="#2C77BC" stroke-width="7.153" stroke-miterlimit="10" x1="605.063" y1="191.496" x2="605.063" y2="166.326"/>
	
		<line clip-path="url(#SVGID_6_)" fill="none" stroke="#2C77BC" stroke-width="7.153" stroke-miterlimit="10" x1="636.421" y1="191.496" x2="636.421" y2="166.326"/>
	
		<line clip-path="url(#SVGID_6_)" fill="none" stroke="#2C77BC" stroke-width="7.153" stroke-miterlimit="10" x1="667.778" y1="191.496" x2="667.778" y2="166.326"/>
	
		<line clip-path="url(#SVGID_6_)" fill="none" stroke="#2C77BC" stroke-width="7.153" stroke-miterlimit="10" x1="699.137" y1="191.496" x2="699.137" y2="166.326"/>
	
		<line clip-path="url(#SVGID_6_)" fill="none" stroke="#2C77BC" stroke-width="7.153" stroke-miterlimit="10" x1="730.495" y1="191.496" x2="730.495" y2="166.326"/>
	
		<line clip-path="url(#SVGID_6_)" fill="none" stroke="#2C77BC" stroke-width="7.153" stroke-miterlimit="10" x1="761.853" y1="191.496" x2="761.853" y2="166.326"/>
</g>
<path fill="#2A77BC" d="M335.903,142.5v9.677h-3.414v-22.092h6.422c3.911,0,6.073,2.097,6.073,5.922c0,3.231-1.68,4.62-2.896,5.077
	c1.825,0.776,2.576,2.351,2.576,5.556v0.88c0,2.355,0.101,3.473,0.303,4.656h-3.342c-0.316-1.011-0.362-2.833-0.362-4.699v-0.786
	c0-3.02-0.665-4.192-3.328-4.192H335.903z M335.903,139.687h2.187c2.49,0,3.452-1.196,3.452-3.542c0-2.012-0.949-3.247-3.116-3.247
	h-2.522V139.687z M361.46,140.953c0,7.892-2.059,11.586-7.045,11.586c-4.687,0-6.855-3.612-6.855-11.603
	c0-7.82,2.531-11.191,7.012-11.191C359.304,129.746,361.46,133.346,361.46,140.953z M351.084,140.895c0,5.603,0.958,8.74,3.419,8.74
	c2.572,0,3.432-2.954,3.432-8.72c0-5.577-0.922-8.241-3.442-8.241C352.016,132.673,351.084,135.598,351.084,140.895z
	 M364.68,130.085h6.4c3.653,0,5.733,2.074,5.733,5.524c0,2.846-1.363,4.177-2.608,4.633c1.601,0.623,3.277,2.093,3.277,5.445
	c0,4.122-2.619,6.489-6.516,6.489h-6.286V130.085z M370.169,139.035c2.565,0,3.334-1.046,3.334-3.113c0-2.024-1.066-3.08-3.139-3.08
	h-2.317v6.192H370.169z M368.048,149.465h2.568c2.187,0,3.419-1.202,3.419-3.826c0-2.509-1.137-3.892-3.862-3.892h-2.125V149.465z
	 M393.64,140.953c0,7.892-2.058,11.586-7.045,11.586c-4.686,0-6.855-3.612-6.855-11.603c0-7.82,2.531-11.191,7.012-11.191
	C391.483,129.746,393.64,133.346,393.64,140.953z M383.264,140.895c0,5.603,0.958,8.74,3.419,8.74c2.572,0,3.432-2.954,3.432-8.72
	c0-5.577-0.922-8.241-3.442-8.241C384.196,132.673,383.264,135.598,383.264,140.895z M399.335,133.104h-4.79v-3.019h13.016v3.019
	h-4.79v19.073h-3.437V133.104z M419.262,130.085v22.092h-3.437v-22.092H419.262z M423.356,152.177v-22.092h3.978
	c5.094,13.262,5.965,15.506,6.235,16.546h0.033c-0.176-2.761-0.196-6.038-0.196-9.648v-6.898h3.104v22.092h-3.812
	c-5.273-14.058-6.091-16.295-6.366-17.261H426.3c0.163,2.736,0.172,6.113,0.172,10.078v7.183H423.356z M448.272,152.177h-3.437
	l5.191-22.092h4.455l5.282,22.092h-3.613l-1.28-6.056h-5.327L448.272,152.177z M454.236,143.125
	c-0.98-4.638-1.697-7.852-2.027-9.842h-0.088c-0.28,1.996-1.049,5.539-1.955,9.842H454.236z M480.479,145.854
	c-0.098,1.174-0.567,6.686-6.432,6.686c-6.144,0-6.771-5.757-6.771-11.481c0-6.904,1.96-11.312,7.019-11.312
	c5.675,0,6.077,5.012,6.155,6.637h-3.411c-0.055-0.75-0.137-3.69-2.799-3.69c-2.825,0-3.406,3.626-3.406,8.424
	c0,4.335,0.45,8.521,3.278,8.521c2.559,0,2.835-2.846,2.934-3.784H480.479z M485.277,152.177h-3.437c0,0,5.191-22.092,5.191-22.092
	h4.455l5.282,22.092h-3.613l-1.28-6.056h-5.327L485.277,152.177z M491.242,143.125c-0.981-4.638-1.698-7.852-2.027-9.842h-0.088
	c-0.281,1.996-1.05,5.539-1.956,9.842H491.242z M498.831,152.177v-22.092h3.978c5.094,13.262,5.964,15.506,6.235,16.546h0.033
	c-0.176-2.761-0.196-6.038-0.196-9.648v-6.898h3.104v22.092h-3.812c-5.272-14.058-6.091-16.295-6.365-17.261h-0.033
	c0.163,2.736,0.173,6.113,0.173,10.078v7.183H498.831z"/>
<path fill="#2A77BC" d="M446.981,387.973v-2.637c0.655-0.088,1.209-0.153,2.053-0.176c-1.677-0.897-2.416-2.284-2.416-4.399
	c0-4.672,4.391-6.199,11.309-6.199c7.908,0,11.484,2.59,11.484,7.247c0,5.75-4.983,6.086-6.297,6.151v-3.401
	c0.854-0.065,3.37-0.251,3.37-2.852c0-2.745-3.492-3.588-8.538-3.588c-5.279,0-8.423,0.681-8.423,3.403
	c0,2.398,1.909,3.047,5.633,3.047h1.184V381.3h2.95v6.673C459.291,387.973,446.981,387.973,446.981,387.973z M458.205,427.423
	c-7.892,0-11.586-2.058-11.586-7.045c0-4.686,3.612-6.855,11.602-6.855c7.82,0,11.191,2.531,11.191,7.012
	C469.412,425.267,465.813,427.423,458.205,427.423z M469.073,397.896c0,3.587-2.185,6.207-6.428,6.207
	c-4.152,0-6.486-2.368-6.486-6.529v-2.562h-9.178v-3.437h22.092V397.896z M469.073,410.237h-22.092V406.8h22.092V410.237z
	 M458.264,417.048c-5.603,0-8.74,0.958-8.74,3.419c0,2.572,2.954,3.432,8.72,3.432c5.577,0,8.241-0.921,8.241-3.441
	C466.485,417.979,463.56,417.048,458.264,417.048z M458.949,395.011v2.18c0,2.35,1.196,3.455,3.742,3.455
	c2.289,0,3.569-1.187,3.569-3.22v-2.415H458.949z"/>
<path fill="#2A77BC" d="M469.512,222.518h2.075v11.555h4.631l-0.225,1.781h-6.481V222.518z M479.54,222.518v13.336h-2.074v-13.336
	H479.54z M489.621,235.854h-1.592c-0.053-0.396-0.093-0.73-0.106-1.239c-0.542,1.012-1.379,1.458-2.655,1.458
	c-2.82,0-3.742-2.65-3.742-6.826c0-4.774,1.563-6.933,4.375-6.933c3.471,0,3.674,3.008,3.713,3.801h-2.053
	c-0.039-0.516-0.151-2.034-1.721-2.034c-1.657,0-2.166,2.108-2.166,5.154c0,3.187,0.411,5.085,2.054,5.085
	c1.448,0,1.84-1.152,1.84-3.401v-0.714h-1.974v-1.781h4.028C489.621,228.423,489.621,235.854,489.621,235.854z M491.797,222.518
	h2.075v5.395h3.594v-5.395h2.074v13.336h-2.074v-6.133h-3.594v6.133h-2.075V222.518z M503.751,224.34h-2.891v-1.822h7.857v1.822
	h-2.892v11.514h-2.075V224.34z"/>
<path fill="#2A77BC" d="M562.623,348.151v5.841h-2.061v-13.336h3.877c2.36,0,3.666,1.266,3.666,3.575
	c0,1.951-1.014,2.789-1.748,3.064c1.102,0.469,1.555,1.419,1.555,3.354v0.532c0,1.421,0.062,2.096,0.183,2.811h-2.017
	c-0.191-0.61-0.219-1.71-0.219-2.836v-0.474c0-1.823-0.401-2.531-2.009-2.531H562.623z M562.623,346.453h1.32
	c1.503,0,2.084-0.722,2.084-2.139c0-1.214-0.573-1.96-1.881-1.96h-1.522V346.453z M577.757,353.992h-1.592
	c-0.053-0.396-0.092-0.73-0.106-1.239c-0.542,1.012-1.379,1.458-2.655,1.458c-2.821,0-3.743-2.65-3.743-6.826
	c0-4.774,1.563-6.933,4.375-6.933c3.471,0,3.674,3.008,3.713,3.801h-2.053c-0.04-0.516-0.152-2.034-1.722-2.034
	c-1.657,0-2.166,2.108-2.166,5.154c0,3.187,0.411,5.085,2.054,5.085c1.448,0,1.839-1.152,1.839-3.401v-0.714h-1.973v-1.781h4.028
	C577.757,346.562,577.757,353.992,577.757,353.992z M579.92,340.656h3.863c2.206,0,3.461,1.252,3.461,3.335
	c0,1.718-0.823,2.521-1.575,2.797c0.966,0.376,1.978,1.264,1.978,3.287c0,2.488-1.581,3.917-3.934,3.917h-3.794V340.656z
	 M583.234,346.059c1.549,0,2.013-0.631,2.013-1.879c0-1.222-0.644-1.859-1.895-1.859h-1.399v3.738H583.234z M581.953,352.355h1.551
	c1.32,0,2.063-0.726,2.063-2.31c0-1.515-0.686-2.349-2.331-2.349h-1.283V352.355z M593.24,340.656h2.075v11.555h4.631l-0.225,1.781
	h-6.481V340.656z M607.578,347.903h-4.338v4.294h4.852l-0.262,1.795h-6.637v-13.336h6.594v1.822h-4.547v3.616h4.338V347.903z
	 M609.6,340.656h3.3c3.31,0,4.658,2.181,4.658,6.368c0,4.511-1.268,6.968-4.853,6.968H609.6V340.656z M611.688,352.28h0.979
	c2.063,0,2.749-1.585,2.749-5.232c0-3.229-0.687-4.652-2.729-4.652h-1V352.28z"/>
<path fill="#2A77BC" d="M686.069,421.883h3.863c2.205,0,3.462,1.252,3.462,3.335c0,1.718-0.823,2.521-1.575,2.797
	c0.967,0.376,1.979,1.264,1.979,3.287c0,2.488-1.581,3.917-3.934,3.917h-3.795V421.883z M689.384,427.286
	c1.549,0,2.013-0.631,2.013-1.879c0-1.222-0.644-1.859-1.895-1.859h-1.399v3.738H689.384z M688.103,433.582h1.551
	c1.32,0,2.063-0.726,2.063-2.31c0-1.515-0.687-2.349-2.331-2.349h-1.283V433.582z M697.574,429.377v5.841h-2.061v-13.336h3.877
	c2.36,0,3.666,1.266,3.666,3.575c0,1.95-1.015,2.789-1.748,3.064c1.102,0.469,1.555,1.419,1.555,3.354v0.532
	c0,1.421,0.061,2.096,0.183,2.811h-2.017c-0.191-0.61-0.219-1.71-0.219-2.836v-0.474c0-1.823-0.401-2.531-2.01-2.531H697.574z
	 M697.574,427.679h1.319c1.504,0,2.084-0.722,2.084-2.138c0-1.214-0.572-1.96-1.881-1.96h-1.522V427.679z M711.367,429.129h-4.338
	v4.294h4.853l-0.263,1.795h-6.637v-13.336h6.594v1.822h-4.547v3.616h4.338V429.129z M714.91,435.219h-2.074l3.133-13.336h2.689
	l3.188,13.336h-2.181l-0.773-3.655h-3.215L714.91,435.219z M718.511,429.755c-0.592-2.8-1.024-4.74-1.224-5.941h-0.053
	c-0.17,1.205-0.634,3.344-1.181,5.941H718.511z M723.092,421.883h3.301c3.31,0,4.657,2.181,4.657,6.368
	c0,4.511-1.268,6.968-4.853,6.968h-3.105V421.883z M725.181,433.507h0.979c2.062,0,2.748-1.585,2.748-5.232
	c0-3.229-0.686-4.652-2.729-4.652h-0.999V433.507z M732.98,421.883h3.863c2.205,0,3.461,1.252,3.461,3.335
	c0,1.718-0.822,2.521-1.574,2.797c0.967,0.376,1.979,1.264,1.979,3.287c0,2.488-1.582,3.917-3.934,3.917h-3.795V421.883z
	 M736.295,427.286c1.549,0,2.013-0.631,2.013-1.879c0-1.222-0.644-1.859-1.896-1.859h-1.398v3.738H736.295z M735.014,433.582h1.551
	c1.32,0,2.063-0.726,2.063-2.31c0-1.515-0.687-2.349-2.331-2.349h-1.283V433.582z M750.465,428.443c0,4.764-1.242,6.994-4.252,6.994
	c-2.829,0-4.139-2.181-4.139-7.004c0-4.721,1.528-6.755,4.232-6.755C749.163,421.678,750.465,423.851,750.465,428.443z
	 M744.202,428.408c0,3.382,0.578,5.276,2.063,5.276c1.553,0,2.071-1.783,2.071-5.264c0-3.366-0.556-4.975-2.077-4.975
	C744.764,423.445,744.202,425.211,744.202,428.408z M753.337,435.219h-2.075l3.134-13.336h2.689l3.188,13.336h-2.182l-0.772-3.655
	h-3.216L753.337,435.219z M756.938,429.755c-0.593-2.8-1.025-4.74-1.224-5.941h-0.054c-0.169,1.205-0.634,3.344-1.181,5.941H756.938
	z M763.581,429.377v5.841h-2.061v-13.336h3.877c2.36,0,3.666,1.266,3.666,3.575c0,1.95-1.014,2.789-1.748,3.064
	c1.102,0.469,1.555,1.419,1.555,3.354v0.532c0,1.421,0.062,2.096,0.184,2.811h-2.018c-0.191-0.61-0.219-1.71-0.219-2.836v-0.474
	c0-1.823-0.401-2.531-2.009-2.531H763.581z M763.581,427.679h1.319c1.504,0,2.085-0.722,2.085-2.138c0-1.214-0.573-1.96-1.882-1.96
	h-1.522V427.679z M770.99,421.883h3.3c3.31,0,4.657,2.181,4.657,6.368c0,4.511-1.268,6.968-4.853,6.968h-3.104V421.883z
	 M773.078,433.507h0.979c2.062,0,2.749-1.585,2.749-5.232c0-3.229-0.687-4.652-2.729-4.652h-0.999V433.507z"/>
<path fill="#2A77BC" d="M463.435,313.424c0.112,1.196,0.629,2.211,1.932,2.211c1.251,0,1.778-0.746,1.778-1.924
	c0-1.2-0.549-1.875-2.279-2.704c-2.217-1.055-3.12-2.002-3.12-3.966c0-2.034,1.306-3.497,3.637-3.497
	c2.855,0,3.579,1.967,3.619,3.644h-2.033c-0.073-0.723-0.27-1.987-1.631-1.987c-1.061,0-1.525,0.704-1.525,1.665
	c0,1.068,0.477,1.57,2.076,2.319c2.372,1.108,3.371,2.195,3.371,4.343c0,2.098-1.26,3.764-3.954,3.764
	c-2.932,0-3.847-1.89-3.938-3.868H463.435z M477.394,310.991h-4.338v4.294h4.852l-0.262,1.795h-6.637v-13.336h6.593v1.822h-4.546
	v3.616h4.338V310.991z M479.415,317.08v-13.336h2.401c3.075,8.006,3.6,9.36,3.764,9.988h0.02c-0.106-1.667-0.118-3.645-0.118-5.824
	v-4.165h1.874v13.336h-2.301c-3.183-8.486-3.677-9.837-3.842-10.419h-0.02c0.099,1.651,0.104,3.69,0.104,6.083v4.336H479.415z
	 M491.035,313.424c0.112,1.196,0.629,2.211,1.932,2.211c1.251,0,1.778-0.746,1.778-1.924c0-1.2-0.549-1.875-2.279-2.704
	c-2.217-1.055-3.121-2.002-3.121-3.966c0-2.034,1.306-3.497,3.637-3.497c2.855,0,3.58,1.967,3.619,3.644h-2.033
	c-0.073-0.723-0.27-1.987-1.631-1.987c-1.06,0-1.524,0.704-1.524,1.665c0,1.068,0.476,1.57,2.076,2.319
	c2.372,1.108,3.371,2.195,3.371,4.343c0,2.098-1.26,3.764-3.954,3.764c-2.932,0-3.847-1.89-3.938-3.868H491.035z M506.571,310.305
	c0,4.764-1.243,6.994-4.252,6.994c-2.829,0-4.139-2.181-4.139-7.004c0-4.721,1.528-6.755,4.233-6.755
	C505.27,303.54,506.571,305.712,506.571,310.305z M500.308,310.27c0,3.382,0.578,5.276,2.064,5.276c1.552,0,2.072-1.783,2.072-5.264
	c0-3.366-0.557-4.975-2.078-4.975C500.87,305.307,500.308,307.072,500.308,310.27z M510.592,311.239v5.841h-2.061v-13.336h3.877
	c2.36,0,3.666,1.266,3.666,3.575c0,1.95-1.014,2.789-1.748,3.064c1.102,0.469,1.555,1.419,1.555,3.354v0.532
	c0,1.421,0.061,2.096,0.183,2.811h-2.018c-0.191-0.61-0.218-1.71-0.218-2.836v-0.474c0-1.823-0.402-2.531-2.009-2.531H510.592z
	 M510.592,309.541h1.319c1.504,0,2.084-0.722,2.084-2.138c0-1.214-0.573-1.96-1.881-1.96h-1.522V309.541z"/>
<text transform="matrix(1 0 0 1 313.2495 255.0654)"><tspan x="0" y="0" fill="#2A77BC" font-family="'OCRAStd'" font-size="24.6082" letter-spacing="-1">3.3 </tspan><tspan x="66.047" y="0" fill="#2A77BC" font-family="'OCRAStd'" font-size="24.6082">V</tspan></text>
<text transform="matrix(1 0 0 1 313.2495 286.0718)"><tspan x="0" y="0" fill="#2A77BC" font-family="'OCRAStd'" font-size="24.6082" letter-spacing="-1">GN</tspan><tspan x="33.023" y="0" fill="#2A77BC" font-family="'OCRAStd'" font-size="24.6082">D</tspan></text>
<text transform="matrix(1 0 0 1 313.2495 348.0845)"><tspan x="0" y="0" fill="#2A77BC" font-family="'OCRAStd'" font-size="24.6082" letter-spacing="-1">4 (IO</tspan><tspan x="82.559" y="0" fill="#2A77BC" font-family="'OCRAStd'" font-size="24.6082">)</tspan></text>
<text transform="matrix(1 0 0 1 313.2495 379.0908)"><tspan x="0" y="0" fill="#2A77BC" font-family="'OCRAStd'" font-size="24.6082" letter-spacing="-1">5 (PW</tspan><tspan x="82.559" y="0" fill="#2A77BC" font-family="'OCRAStd'" font-size="24.6082">)</tspan></text>
<text transform="matrix(1 0 0 1 313.2495 410.0972)"><tspan x="0" y="0" fill="#2A77BC" font-family="'OCRAStd'" font-size="24.6082" letter-spacing="-1">10 (PW</tspan><tspan x="99.07" y="0" fill="#2A77BC" font-family="'OCRAStd'" font-size="24.6082">)</tspan></text>
<text transform="matrix(1 0 0 1 313.2495 441.1035)"><tspan x="0" y="0" fill="#2A77BC" font-family="'OCRAStd'" font-size="24.6082" letter-spacing="-1">16 (PW</tspan><tspan x="99.07" y="0" fill="#2A77BC" font-family="'OCRAStd'" font-size="24.6082">)</tspan></text>
<text transform="matrix(1 0 0 1 313.2495 472.1099)"><tspan x="0" y="0" fill="#2A77BC" font-family="'OCRAStd'" font-size="24.6082" letter-spacing="-1">14 (L</tspan><tspan x="82.559" y="0" fill="#2A77BC" font-family="'OCRAStd'" font-size="24.6082">)</tspan></text>
<text transform="matrix(1 0 0 1 313.2495 503.1162)"><tspan x="0" y="0" fill="#2A77BC" font-family="'OCRAStd'" font-size="24.6082" letter-spacing="-1">12 (D</tspan><tspan x="82.559" y="0" fill="#2A77BC" font-family="'OCRAStd'" font-size="24.6082">)</tspan></text>
<text transform="matrix(1 0 0 1 313.2495 534.1226)"><tspan x="0" y="0" fill="#2A77BC" font-family="'OCRAStd'" font-size="24.6082" letter-spacing="-1">13 (C</tspan><tspan x="82.559" y="0" fill="#2A77BC" font-family="'OCRAStd'" font-size="24.6082">)</tspan></text>
<text transform="matrix(1 0 0 1 815.3057 235.3789)"><tspan x="0" y="0" fill="#2A77BC" font-family="'OCRAStd'" font-size="24.6082" letter-spacing="-1">S</tspan><tspan x="16.512" y="0" fill="#2A77BC" font-family="'OCRAStd'" font-size="24.6082">1</tspan></text>
<text transform="matrix(1 0 0 1 815.3057 429.8086)"><tspan x="0" y="0" fill="#2A77BC" font-family="'OCRAStd'" font-size="24.6082" letter-spacing="-1">S</tspan><tspan x="16.512" y="0" fill="#2A77BC" font-family="'OCRAStd'" font-size="24.6082">3</tspan></text>
<text transform="matrix(1 0 0 1 734.0986 365.8271)"><tspan x="0" y="0" fill="#2A77BC" font-family="'OCRAStd'" font-size="24.6082" letter-spacing="-1">S</tspan><tspan x="16.512" y="0" fill="#2A77BC" font-family="'OCRAStd'" font-size="24.6082">4</tspan></text>
<text transform="matrix(1 0 0 1 896.5381 365.8271)"><tspan x="0" y="0" fill="#2A77BC" font-family="'OCRAStd'" font-size="24.6082" letter-spacing="-1">S</tspan><tspan x="16.512" y="0" fill="#2A77BC" font-family="'OCRAStd'" font-size="24.6082">2</tspan></text>
<text transform="matrix(1 0 0 1 315.7075 565.1611)"><tspan x="0" y="0" fill="#2A77BC" font-family="'OCRAStd'" font-size="17.2257">0 (12C-D</tspan><tspan x="92.466" y="0" fill="#2A77BC" font-family="'OCRAStd'" font-size="17.2257">)</tspan></text>
<text transform="matrix(1 0 0 1 315.7075 596.167)"><tspan x="0" y="0" fill="#2A77BC" font-family="'OCRAStd'" font-size="17.2257">2 (12C-D</tspan><tspan x="92.466" y="0" fill="#2A77BC" font-family="'OCRAStd'" font-size="17.2257">)</tspan></text>
<text transform="matrix(1 0 0 1 248.8374 631.6172)"><tspan x="0" y="0" fill="#2A77BC" font-family="'OCRAStd'" font-size="17.2257">V + GN</tspan><tspan x="69.349" y="0" fill="#2A77BC" font-family="'OCRAStd'" font-size="17.2257">D</tspan></text>
<text transform="matrix(1 0 0 1 251.7144 700.5205)"><tspan x="0" y="0" fill="#2A77BC" font-family="'OCRAStd'" font-size="17.2257">C</tspan><tspan x="11.558" y="0" fill="#2A77BC" font-family="'OCRAStd'" font-size="17.2257">K</tspan></text>
<text transform="matrix(1 0 0 1 350.1592 700.5205)"><tspan x="0" y="0" fill="#2A77BC" font-family="'OCRAStd'" font-size="17.2257">C</tspan><tspan x="11.558" y="0" fill="#2A77BC" font-family="'OCRAStd'" font-size="17.2257">O</tspan></text>
<text transform="matrix(1 0 0 1 318.1709 700.5205)"><tspan x="0" y="0" fill="#2A77BC" font-family="'OCRAStd'" font-size="17.2257">M</tspan><tspan x="11.558" y="0" fill="#2A77BC" font-family="'OCRAStd'" font-size="17.2257">I</tspan></text>
<text transform="matrix(1 0 0 1 286.1826 700.5205)"><tspan x="0" y="0" fill="#2A77BC" font-family="'OCRAStd'" font-size="17.2257">M</tspan><tspan x="11.558" y="0" fill="#2A77BC" font-family="'OCRAStd'" font-size="17.2257">O</tspan></text>
<g>
	<defs>
		<rect id="SVGID_7_" width="1210" height="1178"/>
	</defs>
	<clipPath id="SVGID_8_">
		<use xlink:href="#SVGID_7_"  overflow="visible"/>
	</clipPath>
	
		<rect x="929.433" y="543.035" clip-path="url(#SVGID_8_)" fill="none" stroke="#2C77BC" stroke-width="7.153" stroke-miterlimit="10" width="31.323" height="73.709"/>
	
		<rect x="960.755" y="549.798" clip-path="url(#SVGID_8_)" fill-rule="evenodd" clip-rule="evenodd" fill="#2C77BC" width="13.146" height="13.145"/>
</g>
<text transform="matrix(1 0 0 1 945.1064 646.7461)" fill="#2C77BC" font-family="'Nunito-ExtraBold'" font-size="34.3303">0</text>
<text transform="matrix(1 0 0 1 945.1064 527.688)" fill="#2C77BC" font-family="'Nunito-ExtraBold'" font-size="34.3303">1</text>
<g>
	<defs>
		<rect id="SVGID_9_" width="1210" height="1178"/>
	</defs>
	<clipPath id="SVGID_10_">
		<use xlink:href="#SVGID_9_"  overflow="visible"/>
	</clipPath>
	<path clip-path="url(#SVGID_10_)" fill="none" stroke="#2A77BC" stroke-width="3.042" stroke-miterlimit="10" d="M273.618,223.391
		h130.029c20.077,0,36.505,16.427,36.505,36.505v310.919c0,20.079-16.428,36.505-36.505,36.505H273.618"/>
	<rect x="301.102" y="289.841" clip-path="url(#SVGID_10_)" fill="#2A77BC" width="137.82" height="31.994"/>
</g>
<text transform="matrix(1 0 0 1 352.6245 316.5933)"><tspan x="0" y="0" fill="#FFFFFF" font-family="'OCRAStd'" font-size="26.2601" letter-spacing="-1">A</tspan><tspan x="17.62" y="0" fill="#FFFFFF" font-family="'OCRAStd'" font-size="26.2601">O</tspan></text>
<line fill="none" stroke="#2A77BC" stroke-width="2.461" stroke-miterlimit="10" x1="299.87" y1="446.119" x2="440.152" y2="446.119"/>
<line fill="none" stroke="#2A77BC" stroke-width="2.461" stroke-miterlimit="10" x1="299.87" y1="538.41" x2="440.152" y2="538.41"/>
<path fill="none" stroke="#2C77BC" stroke-width="7.153" stroke-miterlimit="10" d="M518.807,270.395
	c0-10.36-5.369-19.516-13.455-24.854h-32.643c-8.085,5.338-13.455,14.494-13.455,24.854c0,9.321,4.349,17.667,11.108,23.137h37.339
	C514.458,288.062,518.807,279.716,518.807,270.395z"/>
<g>
	<g>
		<defs>
			<rect id="SVGID_11_" x="478.5" y="838.618" width="245" height="73.882"/>
		</defs>
		<clipPath id="SVGID_12_">
			<use xlink:href="#SVGID_11_"  overflow="visible"/>
		</clipPath>
		
			<rect x="480.5" y="840.618" clip-path="url(#SVGID_12_)" fill-rule="evenodd" clip-rule="evenodd" fill="#FFEAB6" width="241" height="69.882"/>
		
			<rect x="480.5" y="840.618" clip-path="url(#SVGID_12_)" fill="none" stroke="#FF9425" stroke-width="4" stroke-miterlimit="10" width="241" height="69.882"/>
	</g>
</g>
<rect fill="none" width="1210" height="1178"/>
<g>
	<path fill="#00426B" d="M517.874,864.007h12.471c2.853,0,5.071,0.727,6.656,2.177c1.584,1.45,2.377,3.469,2.377,6.053
		c0,2.56-0.799,4.571-2.396,6.034c-1.597,1.463-3.81,2.194-6.638,2.194h-5.742v9.326h-6.729V864.007z M529.43,875.418
		c1.244,0,2.164-0.256,2.761-0.768c0.597-0.513,0.896-1.305,0.896-2.378c0-1.072-0.299-1.871-0.896-2.396
		c-0.598-0.523-1.518-0.786-2.761-0.786h-4.828v6.327H529.43z"/>
	<path fill="#00426B" d="M556.256,873.315c1.353,1.305,2.03,3.334,2.03,6.089v10.387h-6.107v-2.523
		c-0.342,0.878-0.915,1.566-1.719,2.066c-0.805,0.499-1.768,0.75-2.889,0.75c-1.244,0-2.365-0.251-3.365-0.75
		c-1-0.5-1.786-1.194-2.359-2.085c-0.573-0.89-0.859-1.896-0.859-3.017c0-1.293,0.335-2.323,1.006-3.091
		c0.67-0.768,1.737-1.322,3.2-1.664c1.463-0.341,3.438-0.512,5.924-0.512h0.988v-0.439c0-0.901-0.208-1.529-0.622-1.883
		s-1.146-0.53-2.194-0.53c-0.829,0-1.786,0.164-2.871,0.493c-1.085,0.329-2.103,0.75-3.054,1.262l-1.646-4.279
		c1.048-0.633,2.359-1.164,3.932-1.591c1.573-0.426,3.017-0.64,4.334-0.64C552.812,871.358,554.903,872.011,556.256,873.315z
		 M551.264,884.799c0.561-0.622,0.841-1.42,0.841-2.396v-0.438h-0.585c-1.561,0-2.669,0.141-3.328,0.42
		c-0.658,0.281-0.987,0.75-0.987,1.408c0,0.562,0.177,1.024,0.53,1.39c0.353,0.366,0.811,0.549,1.372,0.549
		C549.984,885.731,550.703,885.421,551.264,884.799z"/>
	<path fill="#00426B" d="M574.487,885.293l-0.329,4.645c-0.781,0.097-1.536,0.146-2.268,0.146c-2.926,0-5.053-0.616-6.382-1.848
		c-1.329-1.23-1.993-3.139-1.993-5.724v-5.925h-3.365v-4.791h3.365v-5.229h6.51v5.229h4.315v4.791h-4.315v5.962
		c0,1.901,0.89,2.853,2.67,2.853C573.23,885.402,573.829,885.365,574.487,885.293z"/>
	<path fill="#00426B" d="M578.51,887.597c-1.731-1.658-2.597-3.913-2.597-6.766c0-1.878,0.42-3.535,1.262-4.975
		c0.841-1.438,2.023-2.547,3.548-3.328c1.523-0.779,3.285-1.17,5.285-1.17c1.34,0,2.639,0.195,3.895,0.585
		c1.255,0.391,2.273,0.914,3.054,1.573l-1.646,4.389c-0.609-0.488-1.347-0.884-2.212-1.189c-0.866-0.304-1.677-0.457-2.432-0.457
		c-1.316,0-2.322,0.366-3.017,1.098s-1.042,1.841-1.042,3.328s0.348,2.609,1.042,3.364c0.695,0.756,1.701,1.134,3.017,1.134
		c0.755,0,1.566-0.151,2.432-0.457c0.865-0.305,1.603-0.713,2.212-1.225l1.646,4.425c-0.829,0.683-1.883,1.213-3.164,1.591
		s-2.64,0.567-4.078,0.567C582.643,890.084,580.241,889.255,578.51,887.597z"/>
	<path fill="#00426B" d="M611.938,873.278c1.049,1.28,1.572,3.225,1.572,5.833v10.68H607v-10.387c0-1.072-0.189-1.853-0.566-2.341
		c-0.379-0.487-0.945-0.731-1.701-0.731c-0.976,0-1.75,0.312-2.323,0.933c-0.573,0.622-0.859,1.457-0.859,2.506v10.021h-6.51
		v-25.784h6.51v9.948c0.658-0.854,1.463-1.5,2.414-1.938c0.951-0.438,2.012-0.658,3.182-0.658
		C609.291,871.358,610.889,871.998,611.938,873.278z"/>
	<path fill="#00426B" d="M648.839,878.728c0.805,1.085,1.207,2.42,1.207,4.005c0,1.414-0.372,2.651-1.116,3.712
		s-1.805,1.884-3.182,2.469c-1.378,0.585-2.993,0.878-4.846,0.878h-12.837v-25.784h12.471c2.707,0,4.858,0.604,6.455,1.811
		s2.396,2.835,2.396,4.883c0,1.316-0.354,2.481-1.061,3.492c-0.707,1.013-1.694,1.75-2.962,2.213
		C646.876,876.869,648.034,877.644,648.839,878.728z M634.611,874.138h4.791c1.268,0,2.194-0.194,2.78-0.585
		c0.585-0.39,0.878-1.012,0.878-1.865c0-0.901-0.293-1.56-0.878-1.975c-0.586-0.415-1.513-0.622-2.78-0.622h-4.791V874.138z
		 M642.932,884.067c0.573-0.427,0.86-1.128,0.86-2.103c0-0.976-0.287-1.677-0.86-2.104c-0.572-0.426-1.53-0.64-2.87-0.64h-5.45
		v5.485h5.45C641.401,884.707,642.359,884.494,642.932,884.067z"/>
	<path fill="#00426B" d="M667.546,873.315c1.353,1.305,2.029,3.334,2.029,6.089v10.387h-6.107v-2.523
		c-0.342,0.878-0.914,1.566-1.719,2.066c-0.805,0.499-1.769,0.75-2.89,0.75c-1.243,0-2.365-0.251-3.364-0.75
		c-1-0.5-1.787-1.194-2.359-2.085c-0.573-0.89-0.859-1.896-0.859-3.017c0-1.293,0.335-2.323,1.006-3.091
		c0.67-0.768,1.737-1.322,3.2-1.664c1.463-0.341,3.438-0.512,5.925-0.512h0.987v-0.439c0-0.901-0.208-1.529-0.622-1.883
		c-0.415-0.354-1.146-0.53-2.194-0.53c-0.829,0-1.786,0.164-2.871,0.493s-2.103,0.75-3.054,1.262l-1.646-4.279
		c1.048-0.633,2.359-1.164,3.932-1.591c1.572-0.426,3.018-0.64,4.334-0.64C664.102,871.358,666.192,872.011,667.546,873.315z
		 M662.554,884.799c0.561-0.622,0.841-1.42,0.841-2.396v-0.438h-0.585c-1.561,0-2.67,0.141-3.328,0.42
		c-0.658,0.281-0.987,0.75-0.987,1.408c0,0.562,0.176,1.024,0.53,1.39c0.353,0.366,0.81,0.549,1.371,0.549
		C661.273,885.731,661.992,885.421,662.554,884.799z"/>
	<path fill="#00426B" d="M685.521,871.834h6.363l-10.972,24.54h-6.583l3.621-7.826l-7.352-16.714h6.803l3.949,10.131
		L685.521,871.834z"/>
</g>
<rect fill="none" width="1210" height="1178"/>
</svg>
