<?xml version="1.0" encoding="UTF-8" standalone="no"?>
<!-- Generator: Adobe Illustrator 16.0.0, SVG Export Plug-In . SVG Version: 6.00 Build 0)  -->

<svg
   version="1.1"
   x="0px"
   y="0px"
   width="1209.969px"
   height="1177.965px"
   viewBox="0 0 1209.969 1177.965"
   enable-background="new 0 0 1209.969 1177.965"
   xml:space="preserve"
   id="svg280"
   sodipodi:docname="eBrain-27-redone.svg"
   inkscape:version="1.2 (56b05e47e7, 2022-06-09, custom)"
   xmlns:inkscape="http://www.inkscape.org/namespaces/inkscape"
   xmlns:sodipodi="http://sodipodi.sourceforge.net/DTD/sodipodi-0.dtd"
   xmlns:xlink="http://www.w3.org/1999/xlink"
   xmlns="http://www.w3.org/2000/svg"
   xmlns:svg="http://www.w3.org/2000/svg"><defs
   id="defs284">
	

		
	
			
		
				<defs
   id="defs45">
					<rect
   id="SVGID_57_"
   y="-0.035"
   width="1210"
   height="1178"
   x="0" />
				</defs>
				<clipPath
   id="SVGID_2_">
					<use
   xlink:href="#SVGID_57_"
   overflow="visible"
   id="use47" />
				</clipPath>
				
					
				
				
				
				
				
				
				
				
				
				
					
				
				
				
				
				
				
				
				
				
					
				
				
				
				
				
				
				
				
				
				
				
				
				
				
				
				
				
				
				
				
				
				
				
				
				
				
				
				
				
				
				
				
				
				
				
				
				
					
				
				
				
					
				
				
				
				
				
				
				
				
				
				
				
					
				
				
				
				
				
				
				
				
				
				
				
				
				
				
				
					
				
				
				
					
				
			</defs><sodipodi:namedview
   id="namedview282"
   pagecolor="#ffffff"
   bordercolor="#666666"
   borderopacity="1.0"
   inkscape:showpageshadow="2"
   inkscape:pageopacity="0.0"
   inkscape:pagecheckerboard="0"
   inkscape:deskcolor="#d1d1d1"
   showgrid="false"
   inkscape:zoom="0.56666269"
   inkscape:cx="988.24222"
   inkscape:cy="611.47488"
   inkscape:window-width="1608"
   inkscape:window-height="986"
   inkscape:window-x="72"
   inkscape:window-y="339"
   inkscape:window-maximized="1"
   inkscape:current-layer="svg280" />
<g
   id="Page_1_1_">
</g>
<g
   id="Page_2_1_">
</g>
<g
   id="Page_3_1_">
</g>
<g
   id="Page_4_1_">
</g>
<g
   id="Page_5_1_">
</g>
<g
   id="Page_6_1_">
</g>
<g
   id="Page_7_1_">
</g>
<g
   id="Page_8_1_">
</g>
<g
   id="Page_9_1_">
</g>
<g
   id="Page_10_1_">
</g>
<g
   id="Page_11_1_">
</g>
<g
   id="Page_12_1_">
</g>
<g
   id="Page_13_1_">
</g>
<g
   id="Page_14_1_">
</g>
<g
   id="Page_15_1_">
</g>
<g
   id="Page_16_1_">
</g>
<g
   id="Page_17_1_">
</g>
<g
   id="Page_18_1_">
</g>
<g
   id="Page_19_1_">
</g>
<g
   id="Page_20_1_">
</g>
<g
   id="Page_21_1_">
</g>
<g
   id="Page_22_1_">
</g>
<g
   id="Page_23_1_">
</g>
<g
   id="Page_24_1_">
</g>
<g
   id="Page_25_1_">
</g>
<g
   id="Page_26_1_">
</g>
<rect
   y="0.064999998"
   clip-path="url(#SVGID_2_)"
   fill-rule="evenodd"
   clip-rule="evenodd"
   fill="#ffffff"
   width="1210"
   height="1177.999"
   id="rect50"
   x="0" /><path
   clip-path="url(#SVGID_2_)"
   fill-rule="evenodd"
   clip-rule="evenodd"
   fill="#ffffff"
   d="m 1031.9,883.266 c 26.399,46.5 25.399,107.199 -2.5,132.299 -28,23.5 -72.2,2.602 -98.5,-43.398 -26.301,-44.102 -24.7,-96.701 3.199,-120.602 27.901,-25.7 71.601,-13.001 97.801,31.701 z"
   id="path54"
   transform="translate(0,-542)" /><path
   clip-path="url(#SVGID_2_)"
   fill="none"
   stroke="#1a77bc"
   stroke-width="2.0659"
   stroke-miterlimit="7.6613"
   d="m 1031.9,882.766 c 26.399,46.5 25.399,107.199 -2.5,132.4 -28,23.398 -72.2,2.5 -98.5,-43.5 -26.301,-44.102 -24.7,-96.701 3.199,-120.602 27.901,-25.699 71.601,-13 97.801,31.702 z"
   id="path56"
   transform="translate(0,-542)" /><polygon
   clip-path="url(#SVGID_2_)"
   fill-rule="evenodd"
   clip-rule="evenodd"
   fill="#ffffff"
   points="871.1,946.965 871.1,1108.365 1021.2,1029.965 1021.2,872.865 "
   id="polygon58"
   transform="translate(0,-542)" /><polyline
   clip-path="url(#SVGID_2_)"
   fill="none"
   stroke="#1a77bc"
   stroke-width="2.0659"
   stroke-miterlimit="7.6613"
   points="      871.1,1108.365 1021.2,1029.965 1021.2,872.865 871.1,946.965     "
   id="polyline60"
   transform="translate(0,-542)" /><polygon
   clip-path="url(#SVGID_2_)"
   fill-rule="evenodd"
   clip-rule="evenodd"
   fill="#ffffff"
   points="719.8,876.965 871.1,816.266 1021.2,872.965 "
   id="polygon62"
   transform="translate(0,-542)" /><polyline
   clip-path="url(#SVGID_2_)"
   fill="none"
   stroke="#1a77bc"
   stroke-width="2.0659"
   stroke-miterlimit="7.6613"
   points="      719.8,876.965 871.1,816.266 1021.2,872.965     "
   id="polyline64"
   transform="translate(0,-542)" /><polygon
   clip-path="url(#SVGID_2_)"
   fill-rule="evenodd"
   clip-rule="evenodd"
   fill="#ffffff"
   points="871.1,946.965 788.3,908.666 892.2,865.166 903.6,870.064 877.5,882.166 934.7,905.266 959,893.666 970.9,897.865 "
   id="polygon66"
   transform="translate(0,-542)" /><polyline
   clip-path="url(#SVGID_2_)"
   fill="none"
   stroke="#1a77bc"
   stroke-width="2.0659"
   stroke-miterlimit="7.6613"
   points="      788.3,908.666 892.2,865.166 903.6,870.064 877.5,882.166 934.7,905.266 959,893.666 970.9,897.865 871.1,946.965     "
   id="polyline68"
   transform="translate(0,-542)" /><line
   clip-path="url(#SVGID_2_)"
   fill="none"
   stroke="#1a77bc"
   stroke-width="2.0659"
   stroke-miterlimit="7.6613"
   x1="871.09998"
   y1="816.26599"
   x2="871.09998"
   y2="873.96503"
   id="line70"
   transform="translate(0,-542)" /><path
   clip-path="url(#SVGID_2_)"
   fill="none"
   stroke="#1a77bc"
   stroke-width="2.0659"
   stroke-miterlimit="7.6613"
   d="m 888.7,920.266 c 0,6.299 -8,11.5 -17.9,11.5 -9.899,0 -17.899,-5.201 -17.899,-11.5 0,-6.4 8,-11.6 17.899,-11.6 9.9,0 17.9,5.199 17.9,11.6 z"
   id="path72"
   transform="translate(0,-542)" /><polygon
   clip-path="url(#SVGID_2_)"
   fill="none"
   stroke="#1a77bc"
   stroke-width="2.0659"
   stroke-miterlimit="7.6613"
   points="871.1,1108.365 871.1,946.965 719.8,876.965 719.8,1030.865 "
   id="polygon74"
   transform="translate(0,-542)" /><path
   clip-path="url(#SVGID_2_)"
   fill-rule="evenodd"
   clip-rule="evenodd"
   fill="#ffffff"
   d="m 832.2,977.064 c 26.399,46.4 25.3,107.201 -2.601,132.4 -27.899,23.4 -72.1,2.5 -98.5,-43.5 -26.199,-44.1 -24.6,-96.699 3.301,-120.699 27.8,-25.599 71.5,-12.9 97.8,31.799 z"
   id="path76"
   transform="translate(0,-542)" /><path
   clip-path="url(#SVGID_2_)"
   fill="none"
   stroke="#1a77bc"
   stroke-width="2.0659"
   stroke-miterlimit="7.6613"
   d="m 832.2,977.064 c 26.399,46.4 25.3,107.201 -2.601,132.4 -27.899,23.4 -72.1,2.5 -98.5,-43.5 -26.199,-44.1 -24.6,-96.699 3.301,-120.699 27.8,-25.599 71.5,-12.9 97.8,31.799 z"
   id="path78"
   transform="translate(0,-542)" /><polygon
   clip-path="url(#SVGID_2_)"
   fill-rule="evenodd"
   clip-rule="evenodd"
   fill="#ffffff"
   points="772.3,1040.465 792.5,1047.365 802.6,1026.865 792.6,1000.865 772.6,996.865 762.4,1015.965 "
   id="polygon80"
   transform="translate(0,-542)" /><polygon
   clip-path="url(#SVGID_2_)"
   fill="none"
   stroke="#1a77bc"
   stroke-width="2.0659"
   stroke-miterlimit="7.6613"
   points="772.3,1040.465 792.5,1047.365 802.6,1026.865 792.6,1000.865 772.6,996.865 762.4,1015.965 "
   id="polygon82"
   transform="translate(0,-542)" /><polygon
   clip-path="url(#SVGID_2_)"
   fill="none"
   stroke="#1a77bc"
   stroke-width="2.2923"
   stroke-miterlimit="7.6613"
   points="994.7,1013.266 996.3,1016.166 926.4,1054.766 924.9,1051.965 "
   id="polygon84"
   transform="translate(0,-542)" /><polygon
   clip-path="url(#SVGID_2_)"
   fill-rule="evenodd"
   clip-rule="evenodd"
   fill="#ffffff"
   points="972.1,972.465 994.1,1012.365 924.3,1050.865 902.2,1011.064 "
   id="polygon86"
   transform="translate(0,-542)" /><rect
   x="917.40002"
   y="983.36499"
   clip-path="url(#SVGID_2_)"
   fill="none"
   stroke="#ff1762"
   stroke-width="8.6598"
   stroke-miterlimit="7.6613"
   width="150.10001"
   height="109.9"
   id="rect88"
   transform="translate(0,-542)" /><path
   clip-path="url(#SVGID_2_)"
   fill-rule="evenodd"
   clip-rule="evenodd"
   fill="#ffffff"
   d="m 526.2,673.365 c 35.899,63.301 34.5,146 -3.5,180.301 -38.101,32 -98.3,3.5 -134.2,-59.102 -35.7,-60.199 -33.7,-131.799 4.4,-164.398 37.9,-35.102 97.5,-17.701 133.3,43.199 z"
   id="path174"
   transform="translate(0,-542)" /><path
   clip-path="url(#SVGID_2_)"
   fill="none"
   stroke="#1a77bc"
   stroke-width="2.83"
   stroke-miterlimit="7.6613"
   d="m 544.6,690.166 c 35.9,63.299 34.5,146.1 -3.5,180.398 -38.1,31.9 -98.3,3.4 -134.199,-59.199 -35.7,-60.1 -33.601,-131.801 4.399,-164.4 37.9,-35 97.5,-17.6 133.3,43.201 z"
   id="path176"
   transform="translate(0,-542)" /><polygon
   clip-path="url(#SVGID_2_)"
   fill-rule="evenodd"
   clip-rule="evenodd"
   fill="#ffffff"
   points="325.4,777.766 325.4,997.666 529.9,890.766 529.9,676.865 "
   id="polygon178"
   transform="translate(0,-542)" /><polyline
   clip-path="url(#SVGID_2_)"
   fill="none"
   stroke="#1a77bc"
   stroke-width="2.83"
   stroke-miterlimit="7.6613"
   points="      325.4,997.666 529.9,890.766 529.9,676.865 325.4,777.766     "
   id="polyline180"
   transform="translate(0,-542)" /><polygon
   clip-path="url(#SVGID_2_)"
   fill-rule="evenodd"
   clip-rule="evenodd"
   fill="#ffffff"
   points="119.4,682.465 325.5,599.564 529.9,676.865 "
   id="polygon182"
   transform="translate(0,-542)" /><polyline
   clip-path="url(#SVGID_2_)"
   fill="none"
   stroke="#1a77bc"
   stroke-width="2.83"
   stroke-miterlimit="7.6613"
   points="      119.4,682.465 325.5,599.564 529.9,676.865     "
   id="polyline184"
   transform="translate(0,-542)" /><polygon
   clip-path="url(#SVGID_2_)"
   fill-rule="evenodd"
   clip-rule="evenodd"
   fill="#ffffff"
   points="325.4,777.766 212.7,725.564 354.2,666.266 369.7,672.965 334.2,689.564 412.1,720.865 445.2,705.166 461.4,710.766 "
   id="polygon186"
   transform="translate(0,-542)" /><polyline
   clip-path="url(#SVGID_2_)"
   fill="none"
   stroke="#1a77bc"
   stroke-width="2.83"
   stroke-miterlimit="7.6613"
   points="      212.7,725.564 354.2,666.266 369.7,672.965 334.2,689.564 412.1,720.865 445.2,705.166 461.4,710.766 325.4,777.766     "
   id="polyline188"
   transform="translate(0,-542)" /><line
   clip-path="url(#SVGID_2_)"
   fill="none"
   stroke="#1a77bc"
   stroke-width="2.83"
   stroke-miterlimit="7.6613"
   x1="325.39999"
   y1="599.56403"
   x2="325.39999"
   y2="678.26599"
   id="line190"
   transform="translate(0,-542)" /><path
   clip-path="url(#SVGID_2_)"
   fill="none"
   stroke="#1a77bc"
   stroke-width="2.83"
   stroke-miterlimit="7.6613"
   d="m 349.4,741.266 c 0,8.699 -10.9,15.799 -24.4,15.799 -13.4,0 -24.4,-7.1 -24.4,-15.799 0,-8.701 11,-15.701 24.4,-15.701 13.5,-0.001 24.4,6.999 24.4,15.701 z"
   id="path192"
   transform="translate(0,-542)" /><polygon
   clip-path="url(#SVGID_2_)"
   fill="none"
   stroke="#1a77bc"
   stroke-width="2.83"
   stroke-miterlimit="7.6613"
   points="325.5,997.666 325.5,777.766 119.4,682.365 119.4,892.166 "
   id="polygon194"
   transform="translate(0,-542)" /><path
   clip-path="url(#SVGID_2_)"
   fill-rule="evenodd"
   clip-rule="evenodd"
   fill="#ffffff"
   d="m 272.4,818.666 c 36,63.398 34.5,146.1 -3.4,180.398 -38.1,32 -98.3,3.5 -134.2,-59.1 -35.7,-60.199 -33.7,-131.799 4.4,-164.5 37.9,-34.999 97.5,-17.599 133.2,43.202 z"
   id="path196"
   transform="translate(0,-542)" /><path
   clip-path="url(#SVGID_2_)"
   fill="none"
   stroke="#1a77bc"
   stroke-width="2.83"
   stroke-miterlimit="7.6613"
   d="m 272.4,818.666 c 36,63.398 34.5,146.1 -3.4,180.398 -38.1,32 -98.3,3.5 -134.2,-59.1 -35.7,-60.199 -33.7,-131.799 4.4,-164.5 37.9,-34.999 97.5,-17.599 133.2,43.202 z"
   id="path198"
   transform="translate(0,-542)" /><polygon
   clip-path="url(#SVGID_2_)"
   fill-rule="evenodd"
   clip-rule="evenodd"
   fill="#ffffff"
   points="190.9,905.166 218.4,914.564 232.1,886.564 218.5,851.166 191.3,845.766 177.4,871.766 "
   id="polygon200"
   transform="translate(0,-542)" /><polygon
   clip-path="url(#SVGID_2_)"
   fill="none"
   stroke="#1a77bc"
   stroke-width="2.83"
   stroke-miterlimit="7.6613"
   points="190.9,905.166 218.4,914.564 232.1,886.564 218.5,851.166 191.3,845.766 177.4,871.766 "
   id="polygon202"
   transform="translate(0,-542)" /><path
   clip-path="url(#SVGID_2_)"
   fill-rule="evenodd"
   clip-rule="evenodd"
   fill="#1a77bc"
   d="m 252.9,1075.965 c -13.101,0 -23.601,-10.6 -23.601,-23.699 0,-13 10.5,-23.6 23.601,-23.6 0.8,0 1.699,0.1 2.6,0.1 v -3.701 c 0,-0.6 0.3,-1 0.7,-1.199 0.5,-0.199 1,-0.1 1.399,0.301 l 8.301,8.398 c 0.5,0.4 0.5,1.201 0,1.701 l -8.301,8.4 c -0.399,0.398 -0.899,0.398 -1.399,0.299 -0.4,-0.199 -0.7,-0.699 -0.7,-1.199 v -4.201 c -0.9,-0.199 -1.8,-0.199 -2.6,-0.199 -8.301,0 -15,6.699 -15,14.9 0,8.299 6.699,15 15,15 8.3,0 14.899,-6.701 14.899,-15 0,-0.6 0.601,-1.201 1.3,-1.201 h 6.2 c 0.7,0 1.2,0.602 1.2,1.201 10e-4,13.099 -10.599,23.699 -23.599,23.699 z"
   id="path204"
   transform="translate(0,-542)" /><path
   clip-path="url(#SVGID_2_)"
   fill-rule="evenodd"
   clip-rule="evenodd"
   fill="#1a77bc"
   d="m 498.1,946.266 c -1.199,-1.701 -2.399,-3.4 -3.5,-5.201 -2.1,-3.6 -4.1,-7.1 -6.1,-10.699 -2.9,-4.9 -5.8,-9.801 -8.7,-14.699 -0.5,-0.9 -1,-1.701 -1.5,-2.602 -0.2,0.102 -0.3,0.201 -0.399,0.201 0.3,0.9 0.6,1.699 1,2.5 1.5,2.699 3.1,5.199 4.699,7.9 3.301,5.799 6.601,11.6 9.9,17.398 1.5,2.701 2.8,5.602 4.3,8.301 0.601,1 1.601,1.9 2.5,2.699 z m -0.8,-5.702 c 0,0 7.7,12.801 10.4,17 1.7,2.602 4.899,7.4 4.3,11.301 -2.2,13.6 -23.4,-0.301 -23.6,-0.801 -3.9,-6.299 -1.801,-13.299 -1.801,-13.299 l -4.3,-9.1 -17,2.199 c 0,0 -0.8,16.4 -0.8,16.6 -0.3,4.6 -0.3,13.301 2.8,18 3.2,5 10.8,17.801 2.5,21.5 -9.5,4.4 -18.899,2.301 -23.8,-0.4 -3.5,-1.898 -8.6,-8.799 -6.6,-13 1.3,-2.799 2.199,-4.299 3,-5.898 1.6,-3.301 4.399,-10 4.899,-13.602 0.5,-3.398 -0.5,-13.6 -0.5,-13.6 0,0 -0.3,-9.5 -1.8,-9.5 -8.7,0.201 -29.4,0.1 -28.6,-2.4 0.699,-1.799 5.6,-15.299 6.399,-17.6 0.4,-1.4 1,-2.799 1.5,-4.299 4.9,-14.4 11.2,-32.701 11.9,-33.5 0.8,-0.9 2.899,-1.201 4.3,-0.701 4.1,1.301 8.1,2.4 12.2,3.5 1.5,0.5 2.399,1.301 2.399,3.1 4.2,-1.898 7.7,0.5 11.5,1.4 0.4,0 0.7,0.5 1.101,0.9 -1.9,1.6 -1.2,3.4 -0.7,5.6 0.3,-0.9 0.5,-1.4 1.4,-1.5 1.699,-0.299 3.399,-0.699 4.699,-2.1 0.5,-0.699 1.2,-0.9 2.101,-0.6 3.5,1 7,2.1 10.399,3.1 2.801,0.9 3.7,2 3.601,4.6 0,2.5 -1.3,4.301 -3.7,5.1 -0.3,0.102 -0.6,0.102 -0.9,0.201 0.801,1.299 1.601,2.5 2.5,3.699 3.5,4.301 7,8.5 10.5,12.801 1.101,1.199 2.101,2.5 2.101,4.4 0.1,2.5 -3.7,5.6 -3.7,5.6 z m -26.6,54.301 c 0.5,-1.9 -0.8,-3.1 -1.8,-4.4 0.699,1.4 1.3,2.9 1.899,4.4 0.5,2.199 -0.2,4.199 -1,6.301 1.3,-1.5 1.7,-3.301 1.5,-5.301 0.001,-0.301 -0.399,-0.599 -0.599,-1 z m 20.7,-44.4 c 0.699,0.1 1.399,0.5 2,0.301 1.8,-0.6 2.899,0.6 3.899,1.699 0.5,0.5 0.9,1.1 1.4,1.6 0.1,-0.1 0.1,-0.1 0.2,-0.199 -2.4,-3.801 -4.801,-7.5 -7.301,-11.5 -1.3,0.801 -2.5,1.5 -3.899,2.301 -0.3,-0.602 -0.5,-1.102 -0.8,-1.5 -3.101,-4.602 -6.2,-9.201 -9.4,-13.801 -4.7,-6.6 -9.3,-13.301 -14.1,-19.801 -2.4,-3.398 -5.101,-6.6 -7.7,-9.799 -0.4,-0.5 -0.8,-1.1 -1.8,-1.1 0.199,0.398 0.3,0.6 0.399,0.699 3,2.801 5.3,6.199 7.601,9.5 6.8,9.6 13.5,19.301 20.199,29 0.301,0.5 0.5,1.1 0.7,1.699 -0.8,-1.1 -1.6,-2.199 -2.399,-3.299 -5.2,-7.5 -10.4,-15 -15.601,-22.5 -2.5,-3.5 -5,-6.801 -7.5,-10.201 -0.899,-1.1 -1.8,-2 -3.6,-2.299 0.6,1.199 0.899,2.299 1.5,3.199 1.899,2.9 3.899,5.801 5.899,8.6 2.4,3.4 4.601,6.9 7.2,10 2.7,3.301 4.9,6.801 7.2,10.301 3.6,5.199 7.3,10.4 11,15.6 0.2,0.301 0.6,0.5 1.1,0.9 -0.199,-2.199 -1,-4 -2.1,-5.699 -0.9,-1.5 -1.8,-3.102 -2.7,-4.701 0.2,0.201 0.5,0.301 0.601,0.6 2,3.201 4,6.4 5.899,9.602 0.9,1.6 1.101,3.299 0.8,5.199 -0.399,1.801 -0.199,3.5 0.601,5.199 0.8,1.801 1.899,3.5 2.399,5.5 0.2,1.102 1.301,1.701 2.7,1.5 0,-0.398 0.101,-0.699 0,-0.898 -0.3,-0.602 -0.6,-1.102 -1,-1.5 -1.7,-1.9 -2.6,-4 -2.399,-6.602 0.199,-2.6 0.399,-5.199 -0.9,-7.699 z m -44.1,35.301 c 0.101,-0.201 0.3,-0.301 0.4,-0.5 2.1,-4 2.8,-8.301 2.7,-12.701 -0.2,-6.398 -0.5,-12.699 -1,-19.1 -0.2,-2.5 -0.7,-5.1 -1.2,-7.6 -0.101,-0.9 -0.3,-1.699 -1.601,-2.199 0.101,1.898 0.2,3.6 0.301,5.299 0.399,6.701 0.8,13.301 1.399,20 0.2,2.301 -0.5,4.301 -1.5,6.201 -0.899,1.6 -0.899,3.199 -0.5,5 0.4,-0.201 0.8,-0.301 1.3,-0.602 -0.8,4.5 -3.3,7.801 -5.1,11.102 -0.8,-0.102 -1.3,-0.201 -1.6,0 -1,0.6 -1.101,1.398 -0.4,2.299 0.6,0.701 1.3,1.4 2.1,2.301 0.2,-0.801 0.4,-1.5 0.4,-2.1 0.1,-2 0.8,-3.801 1.8,-5.5 0.601,-0.9 1.2,-1.9 1.7,-2.9 1.6,-3 2.8,-6.201 3.1,-9.701 0,-0.898 0,-1.898 0,-2.799 0.101,0 0.2,0 0.4,0 -0.299,4.599 -0.899,9.199 -2.699,13.5 z m 17.7,-2.202 c -0.5,-2.799 -1.2,-5.1 -1.4,-7.5 -0.3,-3.6 -0.3,-7.199 -0.199,-10.898 0,-4.701 0.199,-9.4 0.399,-14.102 0,-0.799 -0.1,-1.6 -0.1,-2.398 -0.2,-0.9 -0.601,-1.5 -1.9,-1.701 -0.1,1 -0.5,1.9 -0.5,2.9 -0.1,5.9 -0.2,11.801 -0.2,17.801 0,2.5 0,5 0.801,7.5 0.199,-0.4 0.3,-0.801 0.699,-1.5 0.4,3.6 1.1,6.6 2.4,9.898 z m -17,17.801 c 4.3,4.6 11.8,5.199 16.4,3 2,-0.9 3.6,-2.1 4.8,-4 0.1,-0.199 0.2,-0.699 0.3,-1.4 -6.8,6.599 -13.8,7.4 -21.5,2.4 z m 2.1,-91.9 c -0.1,0.1 -0.199,0.201 -0.399,0.4 1.7,2.4 4,4.301 6,6.5 2.3,2.6 4.899,4.9 8.3,6.199 0,-0.299 -0.2,-0.398 -0.4,-0.5 -4.399,-3 -8,-6.799 -11.5,-10.799 -0.601,-0.701 -1.301,-1.201 -2.001,-1.8 z m 38.8,51.201 c -0.4,2.398 0.3,3.199 2.699,3.5 0.201,-2 -1.199,-2.602 -2.699,-3.5 z m 5.1,-6.201 c 0.4,-0.299 0.8,-0.5 0.8,-0.6 0,-0.301 -0.2,-0.6 -0.5,-0.801 -0.1,0 -0.7,0.201 -0.7,0.301 0,0.401 0.2,0.6 0.4,1.1 z m -48.4,45 c -0.1,0 -0.199,0.1 -0.3,0.1 -0.1,-0.6 -0.2,-1.299 -0.399,-2 -0.101,0.102 -0.2,0.201 -0.301,0.301 0.3,0.499 0.7,1.099 1,1.599 z m -1.9,-4.6 c 0.1,0 0.2,0 0.3,0 l -0.1,-2.199 c -0.101,0 -0.101,0 -0.2,0 0,0.699 0,1.5 0,2.199 z m 23.9,-6.199 c 0.101,-0.102 0.2,-0.201 0.301,-0.201 -0.301,-0.5 -0.601,-1 -0.9,-1.4 -0.1,0 -0.1,0.102 -0.2,0.102 0.299,0.499 0.499,0.999 0.799,1.499 z m 1.3,8.299 c -1,0.1 -1,0.5 -0.4,1.301 0.2,-0.5 0.3,-0.901 0.4,-1.301 z m -1.8,6.599 c 0,0.102 0.101,0.201 0.2,0.201 0.2,-0.201 0.601,-0.4 0.8,-0.701 0,0 0,-0.1 -0.1,-0.199 -0.3,0.301 -0.6,0.5 -0.9,0.699 z m 19.5,-44.798 c 0.101,-0.1 0.2,-0.301 0.2,-0.4 0,-0.099 -0.1,-0.199 -0.2,-0.199 -0.1,0.1 -0.199,0.199 -0.3,0.398 0,-0.001 0.2,0.101 0.3,0.201 z"
   id="path206"
   transform="translate(0,-542)" /><path
   clip-path="url(#SVGID_2_)"
   fill-rule="evenodd"
   clip-rule="evenodd"
   fill="#ffffff"
   d="m 464.2,991.865 c 8.899,2.6 15.399,-0.199 20.1,-8.5 0,0.801 0.101,1.199 0,1.5 -0.5,2.1 -1.8,3.801 -3.399,5.199 -3.801,3.401 -11.201,4.901 -16.701,1.801 z"
   id="path208"
   transform="translate(0,-542)" /><path
   clip-path="url(#SVGID_2_)"
   fill-rule="evenodd"
   clip-rule="evenodd"
   fill="#ffffff"
   d="m 461.5,990.766 c -0.5,-0.4 -1,-0.9 -1.5,-1.301 0.1,-0.1 0.1,-0.199 0.3,-0.299 0.3,0.6 0.601,1.199 0.9,1.799 0.1,-0.1 0.2,-0.199 0.3,-0.199 z"
   id="path210"
   transform="translate(0,-542)" /><path
   clip-path="url(#SVGID_2_)"
   fill-rule="evenodd"
   clip-rule="evenodd"
   fill="#ffffff"
   d="m 458.3,986.865 c -0.2,-0.699 -0.399,-1.4 -0.6,-2 0,-0.1 0.1,-0.1 0.2,-0.1 0.199,0.699 0.399,1.4 0.699,2 -0.099,0.1 -0.199,0.1 -0.299,0.1 z"
   id="path212"
   transform="translate(0,-542)" /><path
   clip-path="url(#SVGID_2_)"
   fill-rule="evenodd"
   clip-rule="evenodd"
   fill="#ffffff"
   d="m 483.2,988.564 c 0.2,-0.299 0.5,-0.699 0.7,-1 0.1,0.102 0.1,0.102 0.199,0.102 -0.199,0.398 -0.5,0.699 -0.699,1 z"
   id="path214"
   transform="translate(0,-542)" /><polygon
   clip-path="url(#SVGID_2_)"
   fill="#ff1762"
   points="1126.93,1008.379 1135.576,1008.379 1116.451,1036.947 1136.851,1067.865 1128.205,1067.865 1111.471,1042.564 1094.616,1067.865 1085.931,1067.865 1107.167,1036.109 1088.64,1008.379 1097.286,1008.379 1112.068,1030.492 "
   id="polygon216"
   transform="translate(0,-542)" /><path
   clip-path="url(#SVGID_2_)"
   fill="#1a77bc"
   d="m 299.886,1056.641 c 0.8,0.232 1.418,0.66 1.856,1.285 0.438,0.625 0.657,1.393 0.657,2.301 0,1.393 -0.471,2.432 -1.411,3.113 -0.941,0.684 -2.372,1.025 -4.293,1.025 h -6.178 v -14.434 h 5.588 c 2.005,0 3.457,0.303 4.355,0.908 0.899,0.605 1.349,1.576 1.349,2.91 0,0.703 -0.164,1.301 -0.493,1.793 -0.328,0.495 -0.805,0.86 -1.43,1.099 z m -3.587,-1.121 c 0.586,0 1.031,-0.129 1.334,-0.387 0.303,-0.258 0.455,-0.639 0.455,-1.141 0,-0.496 -0.152,-0.875 -0.455,-1.137 -0.303,-0.262 -0.748,-0.391 -1.334,-0.391 h -2.059 v 3.055 h 2.059 z m 0.126,6.312 c 0.747,0 1.31,-0.158 1.687,-0.473 0.377,-0.316 0.566,-0.793 0.566,-1.432 0,-0.625 -0.188,-1.094 -0.561,-1.406 -0.375,-0.313 -0.938,-0.469 -1.692,-0.469 h -2.185 v 3.779 h 2.185 z m 19.167,-3.644 v 6.178 h -3.49 v -1.605 c -0.464,0.658 -0.986,1.137 -1.566,1.436 -0.58,0.301 -1.285,0.451 -2.117,0.451 -1.121,0 -2.031,-0.328 -2.73,-0.982 -0.699,-0.654 -1.049,-1.504 -1.049,-2.547 0,-1.27 0.436,-2.201 1.31,-2.795 0.874,-0.592 2.245,-0.889 4.114,-0.889 h 2.039 v -0.271 c 0,-0.547 -0.216,-0.949 -0.647,-1.203 -0.431,-0.254 -1.105,-0.383 -2.021,-0.383 -0.741,0 -1.431,0.074 -2.068,0.223 -0.639,0.148 -1.232,0.371 -1.779,0.668 v -2.639 c 0.74,-0.182 1.485,-0.318 2.232,-0.412 0.748,-0.094 1.496,-0.141 2.244,-0.141 1.953,0 3.362,0.387 4.229,1.156 0.865,0.768 1.299,2.02 1.299,3.755 z m -5.288,1.304 c -0.722,0 -1.265,0.123 -1.629,0.367 -0.364,0.246 -0.546,0.607 -0.546,1.084 0,0.438 0.146,0.781 0.439,1.029 0.293,0.248 0.701,0.371 1.223,0.371 0.651,0 1.199,-0.232 1.645,-0.699 0.443,-0.469 0.666,-1.053 0.666,-1.756 v -0.396 z m 17.202,-5.617 v 2.824 c -0.471,-0.322 -0.943,-0.561 -1.417,-0.717 -0.474,-0.154 -0.966,-0.23 -1.474,-0.23 -0.967,0 -1.72,0.281 -2.258,0.846 -0.539,0.564 -0.808,1.352 -0.808,2.363 0,1.011 0.269,1.801 0.808,2.363 0.538,0.564 1.291,0.846 2.258,0.846 0.541,0 1.055,-0.08 1.541,-0.24 0.486,-0.162 0.937,-0.4 1.35,-0.717 v 2.834 c -0.542,0.199 -1.092,0.35 -1.648,0.449 -0.559,0.1 -1.117,0.15 -1.678,0.15 -1.953,0 -3.48,-0.502 -4.582,-1.504 -1.104,-1.002 -1.654,-2.396 -1.654,-4.182 0,-1.786 0.551,-3.18 1.654,-4.182 1.102,-1.002 2.629,-1.504 4.582,-1.504 0.566,0 1.127,0.051 1.678,0.15 0.551,0.099 1.099,0.252 1.648,0.451 z m 3.031,-4.553 h 3.461 v 8.188 l 3.982,-3.973 h 4.022 l -5.288,4.969 5.704,5.859 h -4.196 l -4.225,-4.516 v 4.516 h -3.461 v -15.043 z"
   id="path218"
   transform="translate(0,-542)" /><line
   clip-path="url(#SVGID_2_)"
   fill="none"
   stroke="#06eef4"
   stroke-width="3.9903"
   stroke-miterlimit="7.6613"
   x1="405.39999"
   y1="957.36499"
   x2="405.39999"
   y2="1042.064"
   id="line220"
   transform="translate(0,-542)" /><path
   clip-path="url(#SVGID_2_)"
   fill-rule="evenodd"
   clip-rule="evenodd"
   fill="#06eef4"
   d="m 405.4,964.564 14.399,8.801 0.3,-0.5 -9.3,-23.5 -5.399,-24.6 c -1.801,8.199 -3.601,16.4 -5.4,24.6 l -9.4,23.5 0.301,0.5 z"
   id="path222"
   transform="translate(0,-542)" /><path
   clip-path="url(#SVGID_2_)"
   fill-rule="evenodd"
   clip-rule="evenodd"
   fill="#1a77bc"
   d="m 1006.4,1011.266 c -1.9,0.699 -3.9,1.5 -5.9,2.1 -3.9,1.199 -7.9,2.301 -11.8,3.4 -5.4,1.6 -10.9,3.299 -16.4,4.9 -0.899,0.299 -1.899,0.6 -2.8,0.898 0,0.102 0,0.201 0.1,0.4 0.801,-0.199 1.7,-0.199 2.601,-0.4 2.899,-0.799 5.899,-1.799 8.8,-2.6 6.4,-1.799 12.9,-3.699 19.3,-5.5 3,-0.799 6.101,-1.4 9.101,-2.199 1.1,-0.301 2.199,-1 3.199,-1.701 z m -5.7,-0.6 c 0,0 14.3,-4.4 19.1,-6.102 2.8,-0.898 8.3,-2.898 12,-1.398 12.601,5.398 -6,22.6 -6.6,22.799 -6.9,2.201 -13.3,-1.5 -13.3,-1.5 l -9.801,2 -2,17.1 c 0,0 15.7,4.602 16,4.701 4.301,1.4 12.801,3.5 18.101,1.6 5.7,-1.9 19.8,-6.199 21.5,2.699 1.899,10.4 -2.3,18.9 -6.101,23.102 -2.8,3 -10.6,6.199 -14.3,3.299 -2.399,-2 -3.6,-3.199 -5,-4.4 -2.8,-2.299 -8.7,-6.699 -12,-8 -3.2,-1.299 -13.3,-2.799 -13.3,-2.799 0,0 -9.3,-2 -9.7,-0.5 -2,8.5 -6.899,28.5 -9.2,27.1 -1.6,-1.1 -13.5,-9.1 -15.6,-10.4 -1.2,-0.799 -2.5,-1.6 -3.8,-2.5 -12.8,-8.299 -29,-18.699 -29.601,-19.6 -0.699,-1 -0.399,-3.1 0.301,-4.4 2.3,-3.6 4.399,-7.299 6.399,-11 0.8,-1.299 1.8,-2 3.5,-1.5 -0.8,-4.6 2.4,-7.4 4.101,-10.799 0.199,-0.4 0.8,-0.602 1.199,-0.9 1.2,2.199 3.101,2 5.301,2.1 -0.801,-0.6 -1.2,-1 -1.101,-1.801 0.101,-1.699 0.101,-3.5 -1,-5.1 -0.5,-0.699 -0.5,-1.4 0,-2.199 1.8,-3.1 3.601,-6.201 5.5,-9.301 1.5,-2.5 2.9,-3.1 5.3,-2.4 2.5,0.602 3.9,2.301 4.101,4.801 0,0.301 0,0.6 0,1 1.399,-0.6 2.8,-1 4.1,-1.6 5,-2.4 10,-4.801 15,-7.201 1.5,-0.699 3,-1.299 4.8,-0.898 2.4,0.5 4.5,4.898 4.5,4.898 z m 46.3,38.799 c -1.7,-0.799 -3.2,0.201 -4.7,0.801 1.6,-0.301 3.1,-0.5 4.7,-0.801 2.3,0 4.1,1.201 5.8,2.5 -1.1,-1.699 -2.7,-2.5 -4.6,-2.799 -0.3,0 -0.8,0.299 -1.2,0.299 z m -38.1,-30.699 c 0.3,-0.6 0.8,-1.201 0.8,-1.801 -0.101,-2 1.2,-2.699 2.5,-3.5 0.6,-0.299 1.3,-0.6 2,-0.9 -0.101,-0.1 -0.101,-0.199 -0.2,-0.299 -4.2,1.4 -8.5,2.9 -12.9,4.4 0.5,1.5 0.801,2.799 1.301,4.299 -0.7,0.201 -1.2,0.301 -1.7,0.4 -5.2,2 -10.4,3.801 -15.601,5.801 -7.6,3 -15.1,5.898 -22.6,8.898 -3.9,1.602 -7.6,3.4 -11.4,5.201 -0.6,0.199 -1.3,0.5 -1.5,1.4 0.4,-0.102 0.7,-0.102 0.801,-0.201 3.399,-2.299 7.3,-3.6 11,-5.1 11,-4.199 22,-8.4 33,-12.5 0.6,-0.199 1.199,-0.301 1.8,-0.4 -1.2,0.5 -2.5,1.1 -3.7,1.5 -8.6,3.301 -17.1,6.5 -25.6,9.9 -4,1.5 -7.9,3.199 -11.801,4.801 -1.199,0.5 -2.3,1.199 -3,2.898 1.301,-0.299 2.4,-0.398 3.4,-0.699 3.3,-1.199 6.6,-2.5 9.8,-3.699 3.9,-1.5 7.8,-2.801 11.5,-4.602 3.8,-1.799 7.7,-3.1 11.601,-4.5 6,-2.199 11.899,-4.6 17.899,-6.898 0.3,-0.102 0.601,-0.4 1.101,-0.801 -2.2,-0.4 -4.101,0 -6,0.6 -1.7,0.5 -3.5,1 -5.301,1.5 0.301,-0.1 0.5,-0.4 0.801,-0.5 3.6,-1.1 7.1,-2.199 10.699,-3.299 1.801,-0.5 3.5,-0.301 5.2,0.5 1.7,0.699 3.4,1 5.2,0.6 2,-0.301 3.9,-1 6,-1 1.1,0 1.9,-0.9 2.1,-2.201 -0.399,-0.1 -0.699,-0.299 -0.899,-0.299 -0.601,0.199 -1.2,0.4 -1.7,0.699 -2.2,1.1 -4.5,1.5 -6.9,0.701 -2.5,-0.9 -5.1,-1.701 -7.699,-1 v 0.101 z m 23.7,51.298 c -0.1,-0.199 -0.3,-0.299 -0.5,-0.5 -3.3,-3 -7.3,-4.699 -11.6,-5.6 -6.3,-1.4 -12.5,-2.6 -18.8,-3.699 -2.5,-0.5 -5.101,-0.5 -7.601,-0.701 -1,-0.1 -1.8,-0.1 -2.6,1.102 1.9,0.299 3.5,0.699 5.2,0.898 6.6,1.201 13.1,2.5 19.8,3.5 2.3,0.301 4.1,1.5 5.6,2.9 1.4,1.301 2.9,1.701 4.801,1.701 -0.101,-0.4 -0.101,-0.801 -0.2,-1.4 4.1,1.9 6.7,5.1 9.399,7.699 -0.199,0.701 -0.399,1.201 -0.3,1.5 0.3,1.1 1.101,1.4 2.101,0.9 0.899,-0.4 1.699,-0.9 2.8,-1.4 -0.8,-0.4 -1.3,-0.799 -1.9,-1 -2,-0.5 -3.6,-1.6 -5,-3 -0.8,-0.799 -1.5,-1.6 -2.399,-2.299 -2.5,-2.301 -5.301,-4.301 -8.7,-5.4 -0.9,-0.301 -1.8,-0.5 -2.7,-0.701 0,-0.1 0.1,-0.199 0.1,-0.299 4.499,1.299 8.699,3.001 12.499,5.799 z m 2.1,-17.699 c -2.8,-0.199 -5.3,-0.1 -7.601,-0.4 -3.6,-0.6 -7.1,-1.5 -10.6,-2.4 -4.6,-1.199 -9.1,-2.6 -13.7,-3.799 -0.7,-0.201 -1.5,-0.4 -2.3,-0.5 -0.9,-0.1 -1.7,0.199 -2.1,1.4 0.899,0.398 1.699,0.898 2.699,1.1 5.7,1.6 11.4,3.199 17.2,4.6 2.4,0.6 4.9,1.199 7.5,1 -0.399,-0.301 -0.7,-0.5 -1.3,-1.1 3.502,0.599 6.702,0.599 10.202,0.099 z m 13.1,20.801 c 5.5,-3.102 8,-10.201 6.9,-15.201 -0.4,-2.1 -1.101,-4 -2.7,-5.6 -0.2,-0.199 -0.6,-0.301 -1.3,-0.699 4.8,8.199 3.8,15.199 -2.9,21.5 z m -88.6,-24.201 c 0,0.201 0.1,0.301 0.2,0.5 2.8,-1.1 5.199,-2.9 7.8,-4.199 3.1,-1.6 6,-3.6 8.1,-6.6 -0.3,-0.102 -0.5,0.1 -0.7,0.299 -3.899,3.5 -8.5,6.1 -13.199,8.5 -0.801,0.4 -1.501,1 -2.201,1.5 z m 59.1,-25.299 c 2.2,0.898 3.101,0.5 4,-1.801 -1.9,-0.699 -2.9,0.5 -4,1.801 z m -4.9,-6.5 c -0.2,-0.4 -0.2,-0.9 -0.4,-0.9 -0.3,0 -0.7,0.1 -0.9,0.299 0,0.102 0.101,0.801 0.2,0.801 0.3,-10e-4 0.6,-0.1 1.1,-0.2 z m 32,57.898 c 0,0.102 0.1,0.201 0.1,0.301 -0.7,-0.1 -1.4,-0.1 -2,-0.1 0,0.1 0.1,0.199 0.2,0.4 0.6,-0.2 1.2,-0.399 1.7,-0.601 z m -4.9,0.702 c 0,-0.1 0,-0.201 0.1,-0.301 l -2.1,-0.4 c 0,0 0,0.102 -0.1,0.201 0.7,0.199 1.4,0.298 2.1,0.5 z m -0.3,-24.702 c 0,-0.1 0,-0.299 -0.101,-0.398 -0.5,0.199 -1,0.398 -1.6,0.6 0.1,0.1 0.1,0.199 0.1,0.299 0.601,-0.2 1.101,-0.399 1.601,-0.501 z m 8.4,0.702 c -0.1,1.1 0.301,1.1 1.2,0.799 -0.5,-0.299 -0.8,-0.6 -1.2,-0.799 z m 6,3.4 c 0.101,-0.102 0.2,-0.102 0.301,-0.102 -0.2,-0.398 -0.4,-0.699 -0.5,-1.1 -0.101,0.1 -0.2,0.1 -0.2,0.1 0.099,0.401 0.299,0.702 0.399,1.102 z m -38.7,-29.701 c -0.2,-0.1 -0.301,-0.299 -0.4,-0.299 -0.099,0 -0.2,0.1 -0.3,0.199 0.1,0.1 0.2,0.199 0.3,0.301 0.1,0 0.2,-0.102 0.4,-0.201 z"
   id="path224"
   transform="translate(0,-542)" /><g
   clip-path="url(#SVGID_2_)"
   id="g238">
					<text
   transform="translate(328.9004,1064.3652)"
   id="text236"><tspan
     x="0"
     y="0"
     fill="#1a77bc"
     font-family="DejaVuSans-Bold"
     font-size="19.8px"
     id="tspan228" /></text>
				</g>

<g
   id="Page_29_1_">
</g>
<g
   id="Page_30_1_">
</g>
<g
   id="Page_31_1_">
</g>
<g
   id="Page_32_1_">
</g>
<g
   id="Page_33_1_">
</g>
<g
   id="Page_34_1_">
</g>
<g
   id="Page_35_1_">
</g>
<g
   id="Page_36_1_">
</g>
<g
   id="Page_37_1_">
</g>
<g
   id="Page_38_1_">
</g>
</svg>
