<?xml version="1.0" encoding="utf-8"?>
<!-- Generator: Adobe Illustrator 16.0.0, SVG Export Plug-In . SVG Version: 6.00 Build 0)  -->
<!DOCTYPE svg PUBLIC "-//W3C//DTD SVG 1.1//EN" "http://www.w3.org/Graphics/SVG/1.1/DTD/svg11.dtd">
<svg version="1.1" id="Layer_1" xmlns="http://www.w3.org/2000/svg" xmlns:xlink="http://www.w3.org/1999/xlink" x="0px" y="0px"
	 width="1210px" height="1178px" viewBox="0 0 1210 1178" enable-background="new 0 0 1210 1178" xml:space="preserve">
<g>
	<defs>
		<rect id="SVGID_1_" width="1210" height="1178"/>
	</defs>
	<clipPath id="SVGID_2_">
		<use xlink:href="#SVGID_1_"  overflow="visible"/>
	</clipPath>
	
		<rect x="278.708" y="186.883" clip-path="url(#SVGID_2_)" fill-rule="evenodd" clip-rule="evenodd" fill="#0000FF" width="15.495" height="22.856"/>
	<g clip-path="url(#SVGID_2_)">
		<defs>
			<rect id="SVGID_3_" width="1210" height="1178"/>
		</defs>
		<clipPath id="SVGID_4_">
			<use xlink:href="#SVGID_3_"  overflow="visible"/>
		</clipPath>
		<path clip-path="url(#SVGID_4_)" fill="none" stroke="#2C77BC" stroke-width="3.51" stroke-miterlimit="10" d="M392.824,529.725
			H131.381c-32.375,0-58.865-26.489-58.865-58.865V244c0-32.376,26.49-58.865,58.865-58.865h261.443
			c32.376,0,58.864,26.489,58.864,58.865v226.86C451.688,503.236,425.2,529.725,392.824,529.725z"/>
		<polygon clip-path="url(#SVGID_4_)" fill="none" stroke="#2C77BC" stroke-width="3.51" stroke-miterlimit="10" points="
			209.533,360.649 209.533,347.918 356.921,348.961 356.921,360.649 375.858,360.649 375.858,457.62 357.744,457.62 
			357.744,469.971 209.533,469.971 209.533,459.267 190.596,459.267 190.596,360.649 		"/>
		<path clip-path="url(#SVGID_4_)" fill-rule="evenodd" clip-rule="evenodd" fill="#2C77BC" d="M209.791,378.386
			c0,1.572-1.274,2.846-2.846,2.846c-1.571,0-2.845-1.274-2.845-2.846s1.274-2.846,2.845-2.846
			C208.517,375.54,209.791,376.814,209.791,378.386"/>
		<path clip-path="url(#SVGID_4_)" fill-rule="evenodd" clip-rule="evenodd" fill="#2C77BC" d="M225.161,378.386
			c0,1.572-1.274,2.846-2.846,2.846c-1.572,0-2.845-1.274-2.845-2.846s1.273-2.846,2.845-2.846
			C223.887,375.54,225.161,376.814,225.161,378.386"/>
		<path clip-path="url(#SVGID_4_)" fill-rule="evenodd" clip-rule="evenodd" fill="#2C77BC" d="M240.531,378.386
			c0,1.572-1.274,2.846-2.846,2.846c-1.572,0-2.845-1.274-2.845-2.846s1.273-2.846,2.845-2.846
			C239.257,375.54,240.531,376.814,240.531,378.386"/>
		<path clip-path="url(#SVGID_4_)" fill-rule="evenodd" clip-rule="evenodd" fill="#2C77BC" d="M255.901,378.386
			c0,1.572-1.274,2.846-2.846,2.846c-1.572,0-2.845-1.274-2.845-2.846s1.273-2.846,2.845-2.846
			C254.627,375.54,255.901,376.814,255.901,378.386"/>
		<path clip-path="url(#SVGID_4_)" fill-rule="evenodd" clip-rule="evenodd" fill="#2C77BC" d="M271.271,378.386
			c0,1.572-1.274,2.846-2.847,2.846c-1.571,0-2.845-1.274-2.845-2.846s1.274-2.846,2.845-2.846
			C269.998,375.54,271.271,376.814,271.271,378.386"/>
		<path clip-path="url(#SVGID_4_)" fill-rule="evenodd" clip-rule="evenodd" fill="#2C77BC" d="M286.641,378.386
			c0,1.572-1.273,2.846-2.846,2.846c-1.571,0-2.845-1.274-2.845-2.846s1.274-2.846,2.845-2.846
			C285.368,375.54,286.641,376.814,286.641,378.386"/>
		<path clip-path="url(#SVGID_4_)" fill-rule="evenodd" clip-rule="evenodd" fill="#2C77BC" d="M302.011,378.386
			c0,1.572-1.273,2.846-2.846,2.846c-1.571,0-2.845-1.274-2.845-2.846s1.274-2.846,2.845-2.846
			C300.738,375.54,302.011,376.814,302.011,378.386"/>
		<path clip-path="url(#SVGID_4_)" fill-rule="evenodd" clip-rule="evenodd" fill="#2C77BC" d="M317.381,378.386
			c0,1.572-1.274,2.846-2.846,2.846c-1.571,0-2.845-1.274-2.845-2.846s1.274-2.846,2.845-2.846
			C316.107,375.54,317.381,376.814,317.381,378.386"/>
		<path clip-path="url(#SVGID_4_)" fill-rule="evenodd" clip-rule="evenodd" fill="#2C77BC" d="M332.751,378.386
			c0,1.572-1.274,2.846-2.846,2.846c-1.571,0-2.845-1.274-2.845-2.846s1.274-2.846,2.845-2.846
			C331.477,375.54,332.751,376.814,332.751,378.386"/>
		<path clip-path="url(#SVGID_4_)" fill-rule="evenodd" clip-rule="evenodd" fill="#2C77BC" d="M348.121,378.386
			c0,1.572-1.274,2.846-2.846,2.846c-1.572,0-2.845-1.274-2.845-2.846s1.273-2.846,2.845-2.846
			C346.847,375.54,348.121,376.814,348.121,378.386"/>
		<path clip-path="url(#SVGID_4_)" fill-rule="evenodd" clip-rule="evenodd" fill="#2C77BC" d="M363.491,378.386
			c0,1.572-1.274,2.846-2.846,2.846c-1.572,0-2.845-1.274-2.845-2.846s1.273-2.846,2.845-2.846
			C362.217,375.54,363.491,376.814,363.491,378.386"/>
		<path clip-path="url(#SVGID_4_)" fill-rule="evenodd" clip-rule="evenodd" fill="#2C77BC" d="M209.791,393.944
			c0,1.572-1.274,2.846-2.846,2.846c-1.571,0-2.845-1.274-2.845-2.846c0-1.572,1.274-2.846,2.845-2.846
			C208.517,391.098,209.791,392.372,209.791,393.944"/>
		<path clip-path="url(#SVGID_4_)" fill-rule="evenodd" clip-rule="evenodd" fill="#2C77BC" d="M225.161,393.944
			c0,1.572-1.274,2.846-2.846,2.846c-1.572,0-2.845-1.274-2.845-2.846c0-1.572,1.273-2.846,2.845-2.846
			C223.887,391.098,225.161,392.372,225.161,393.944"/>
		<path clip-path="url(#SVGID_4_)" fill-rule="evenodd" clip-rule="evenodd" fill="#2C77BC" d="M240.531,393.944
			c0,1.572-1.274,2.846-2.846,2.846c-1.572,0-2.845-1.274-2.845-2.846c0-1.572,1.273-2.846,2.845-2.846
			C239.257,391.098,240.531,392.372,240.531,393.944"/>
		<path clip-path="url(#SVGID_4_)" fill-rule="evenodd" clip-rule="evenodd" fill="#2C77BC" d="M255.901,393.944
			c0,1.572-1.274,2.846-2.846,2.846c-1.572,0-2.845-1.274-2.845-2.846c0-1.572,1.273-2.846,2.845-2.846
			C254.627,391.098,255.901,392.372,255.901,393.944"/>
		<path clip-path="url(#SVGID_4_)" fill-rule="evenodd" clip-rule="evenodd" fill="#2C77BC" d="M271.271,393.944
			c0,1.572-1.274,2.846-2.847,2.846c-1.571,0-2.845-1.274-2.845-2.846c0-1.572,1.274-2.846,2.845-2.846
			C269.998,391.098,271.271,392.372,271.271,393.944"/>
		<path clip-path="url(#SVGID_4_)" fill-rule="evenodd" clip-rule="evenodd" fill="#2C77BC" d="M286.641,393.944
			c0,1.572-1.273,2.846-2.846,2.846c-1.571,0-2.845-1.274-2.845-2.846c0-1.572,1.274-2.846,2.845-2.846
			C285.368,391.098,286.641,392.372,286.641,393.944"/>
		<path clip-path="url(#SVGID_4_)" fill-rule="evenodd" clip-rule="evenodd" fill="#2C77BC" d="M302.011,393.944
			c0,1.572-1.273,2.846-2.846,2.846c-1.571,0-2.845-1.274-2.845-2.846c0-1.572,1.274-2.846,2.845-2.846
			C300.738,391.098,302.011,392.372,302.011,393.944"/>
		<path clip-path="url(#SVGID_4_)" fill-rule="evenodd" clip-rule="evenodd" fill="#2C77BC" d="M317.381,393.944
			c0,1.572-1.274,2.846-2.846,2.846c-1.571,0-2.845-1.274-2.845-2.846c0-1.572,1.274-2.846,2.845-2.846
			C316.107,391.098,317.381,392.372,317.381,393.944"/>
		<path clip-path="url(#SVGID_4_)" fill-rule="evenodd" clip-rule="evenodd" fill="#2C77BC" d="M332.751,393.944
			c0,1.572-1.274,2.846-2.846,2.846c-1.571,0-2.845-1.274-2.845-2.846c0-1.572,1.274-2.846,2.845-2.846
			C331.477,391.098,332.751,392.372,332.751,393.944"/>
		<path clip-path="url(#SVGID_4_)" fill-rule="evenodd" clip-rule="evenodd" fill="#2C77BC" d="M348.121,393.944
			c0,1.572-1.274,2.846-2.846,2.846c-1.572,0-2.845-1.274-2.845-2.846c0-1.572,1.273-2.846,2.845-2.846
			C346.847,391.098,348.121,392.372,348.121,393.944"/>
		<path clip-path="url(#SVGID_4_)" fill-rule="evenodd" clip-rule="evenodd" fill="#2C77BC" d="M363.491,393.944
			c0,1.572-1.274,2.846-2.846,2.846c-1.572,0-2.845-1.274-2.845-2.846c0-1.572,1.273-2.846,2.845-2.846
			C362.217,391.098,363.491,392.372,363.491,393.944"/>
		<path clip-path="url(#SVGID_4_)" fill-rule="evenodd" clip-rule="evenodd" fill="#2C77BC" d="M209.791,409.502
			c0,1.572-1.274,2.846-2.846,2.846c-1.571,0-2.845-1.274-2.845-2.846c0-1.572,1.274-2.846,2.845-2.846
			C208.517,406.656,209.791,407.93,209.791,409.502"/>
		<path clip-path="url(#SVGID_4_)" fill-rule="evenodd" clip-rule="evenodd" fill="#2C77BC" d="M225.161,409.502
			c0,1.572-1.274,2.846-2.846,2.846c-1.572,0-2.845-1.274-2.845-2.846c0-1.572,1.273-2.846,2.845-2.846
			C223.887,406.656,225.161,407.93,225.161,409.502"/>
		<path clip-path="url(#SVGID_4_)" fill-rule="evenodd" clip-rule="evenodd" fill="#2C77BC" d="M240.531,409.502
			c0,1.572-1.274,2.846-2.846,2.846c-1.572,0-2.845-1.274-2.845-2.846c0-1.572,1.273-2.846,2.845-2.846
			C239.257,406.656,240.531,407.93,240.531,409.502"/>
		<path clip-path="url(#SVGID_4_)" fill-rule="evenodd" clip-rule="evenodd" fill="#2C77BC" d="M255.901,409.502
			c0,1.572-1.274,2.846-2.846,2.846c-1.572,0-2.845-1.274-2.845-2.846c0-1.572,1.273-2.846,2.845-2.846
			C254.627,406.656,255.901,407.93,255.901,409.502"/>
		<path clip-path="url(#SVGID_4_)" fill-rule="evenodd" clip-rule="evenodd" fill="#2C77BC" d="M271.271,409.502
			c0,1.572-1.274,2.846-2.847,2.846c-1.571,0-2.845-1.274-2.845-2.846c0-1.572,1.274-2.846,2.845-2.846
			C269.998,406.656,271.271,407.93,271.271,409.502"/>
		<path clip-path="url(#SVGID_4_)" fill-rule="evenodd" clip-rule="evenodd" fill="#2C77BC" d="M286.641,409.502
			c0,1.572-1.273,2.846-2.846,2.846c-1.571,0-2.845-1.274-2.845-2.846c0-1.572,1.274-2.846,2.845-2.846
			C285.368,406.656,286.641,407.93,286.641,409.502"/>
		<path clip-path="url(#SVGID_4_)" fill-rule="evenodd" clip-rule="evenodd" fill="#2C77BC" d="M302.011,409.502
			c0,1.572-1.273,2.846-2.846,2.846c-1.571,0-2.845-1.274-2.845-2.846c0-1.572,1.274-2.846,2.845-2.846
			C300.738,406.656,302.011,407.93,302.011,409.502"/>
		<path clip-path="url(#SVGID_4_)" fill-rule="evenodd" clip-rule="evenodd" fill="#2C77BC" d="M317.381,409.502
			c0,1.572-1.274,2.846-2.846,2.846c-1.571,0-2.845-1.274-2.845-2.846c0-1.572,1.274-2.846,2.845-2.846
			C316.107,406.656,317.381,407.93,317.381,409.502"/>
		<path clip-path="url(#SVGID_4_)" fill-rule="evenodd" clip-rule="evenodd" fill="#2C77BC" d="M332.751,409.502
			c0,1.572-1.274,2.846-2.846,2.846c-1.571,0-2.845-1.274-2.845-2.846c0-1.572,1.274-2.846,2.845-2.846
			C331.477,406.656,332.751,407.93,332.751,409.502"/>
		<path clip-path="url(#SVGID_4_)" fill-rule="evenodd" clip-rule="evenodd" fill="#2C77BC" d="M348.121,409.502
			c0,1.572-1.274,2.846-2.846,2.846c-1.572,0-2.845-1.274-2.845-2.846c0-1.572,1.273-2.846,2.845-2.846
			C346.847,406.656,348.121,407.93,348.121,409.502"/>
		<path clip-path="url(#SVGID_4_)" fill-rule="evenodd" clip-rule="evenodd" fill="#2C77BC" d="M363.491,409.502
			c0,1.572-1.274,2.846-2.846,2.846c-1.572,0-2.845-1.274-2.845-2.846c0-1.572,1.273-2.846,2.845-2.846
			C362.217,406.656,363.491,407.93,363.491,409.502"/>
		<path clip-path="url(#SVGID_4_)" fill-rule="evenodd" clip-rule="evenodd" fill="#2C77BC" d="M209.791,425.06
			c0,1.572-1.274,2.846-2.846,2.846c-1.571,0-2.845-1.274-2.845-2.846c0-1.572,1.274-2.846,2.845-2.846
			C208.517,422.214,209.791,423.488,209.791,425.06"/>
		<path clip-path="url(#SVGID_4_)" fill-rule="evenodd" clip-rule="evenodd" fill="#2C77BC" d="M225.161,425.06
			c0,1.572-1.274,2.846-2.846,2.846c-1.572,0-2.845-1.274-2.845-2.846c0-1.572,1.273-2.846,2.845-2.846
			C223.887,422.214,225.161,423.488,225.161,425.06"/>
		<path clip-path="url(#SVGID_4_)" fill-rule="evenodd" clip-rule="evenodd" fill="#2C77BC" d="M240.531,425.06
			c0,1.572-1.274,2.846-2.846,2.846c-1.572,0-2.845-1.274-2.845-2.846c0-1.572,1.273-2.846,2.845-2.846
			C239.257,422.214,240.531,423.488,240.531,425.06"/>
		<path clip-path="url(#SVGID_4_)" fill-rule="evenodd" clip-rule="evenodd" fill="#2C77BC" d="M255.901,425.06
			c0,1.572-1.274,2.846-2.846,2.846c-1.572,0-2.845-1.274-2.845-2.846c0-1.572,1.273-2.846,2.845-2.846
			C254.627,422.214,255.901,423.488,255.901,425.06"/>
		<path clip-path="url(#SVGID_4_)" fill-rule="evenodd" clip-rule="evenodd" fill="#2C77BC" d="M271.271,425.06
			c0,1.572-1.274,2.846-2.847,2.846c-1.571,0-2.845-1.274-2.845-2.846c0-1.572,1.274-2.846,2.845-2.846
			C269.998,422.214,271.271,423.488,271.271,425.06"/>
		<path clip-path="url(#SVGID_4_)" fill-rule="evenodd" clip-rule="evenodd" fill="#2C77BC" d="M286.641,425.06
			c0,1.572-1.273,2.846-2.846,2.846c-1.571,0-2.845-1.274-2.845-2.846c0-1.572,1.274-2.846,2.845-2.846
			C285.368,422.214,286.641,423.488,286.641,425.06"/>
		<path clip-path="url(#SVGID_4_)" fill-rule="evenodd" clip-rule="evenodd" fill="#2C77BC" d="M302.011,425.06
			c0,1.572-1.273,2.846-2.846,2.846c-1.571,0-2.845-1.274-2.845-2.846c0-1.572,1.274-2.846,2.845-2.846
			C300.738,422.214,302.011,423.488,302.011,425.06"/>
		<path clip-path="url(#SVGID_4_)" fill-rule="evenodd" clip-rule="evenodd" fill="#2C77BC" d="M317.381,425.06
			c0,1.572-1.274,2.846-2.846,2.846c-1.571,0-2.845-1.274-2.845-2.846c0-1.572,1.274-2.846,2.845-2.846
			C316.107,422.214,317.381,423.488,317.381,425.06"/>
		<path clip-path="url(#SVGID_4_)" fill-rule="evenodd" clip-rule="evenodd" fill="#2C77BC" d="M332.751,425.06
			c0,1.572-1.274,2.846-2.846,2.846c-1.571,0-2.845-1.274-2.845-2.846c0-1.572,1.274-2.846,2.845-2.846
			C331.477,422.214,332.751,423.488,332.751,425.06"/>
		<path clip-path="url(#SVGID_4_)" fill-rule="evenodd" clip-rule="evenodd" fill="#2C77BC" d="M348.121,425.06
			c0,1.572-1.274,2.846-2.846,2.846c-1.572,0-2.845-1.274-2.845-2.846c0-1.572,1.273-2.846,2.845-2.846
			C346.847,422.214,348.121,423.488,348.121,425.06"/>
		<path clip-path="url(#SVGID_4_)" fill-rule="evenodd" clip-rule="evenodd" fill="#2C77BC" d="M363.491,425.06
			c0,1.572-1.274,2.846-2.846,2.846c-1.572,0-2.845-1.274-2.845-2.846c0-1.572,1.273-2.846,2.845-2.846
			C362.217,422.214,363.491,423.488,363.491,425.06"/>
		<path clip-path="url(#SVGID_4_)" fill-rule="evenodd" clip-rule="evenodd" fill="#2C77BC" d="M209.791,440.617
			c0,1.572-1.274,2.846-2.846,2.846c-1.571,0-2.845-1.274-2.845-2.846s1.274-2.846,2.845-2.846
			C208.517,437.771,209.791,439.045,209.791,440.617"/>
		<path clip-path="url(#SVGID_4_)" fill-rule="evenodd" clip-rule="evenodd" fill="#2C77BC" d="M225.161,440.617
			c0,1.572-1.274,2.846-2.846,2.846c-1.572,0-2.845-1.274-2.845-2.846s1.273-2.846,2.845-2.846
			C223.887,437.771,225.161,439.045,225.161,440.617"/>
		<path clip-path="url(#SVGID_4_)" fill-rule="evenodd" clip-rule="evenodd" fill="#2C77BC" d="M240.531,440.617
			c0,1.572-1.274,2.846-2.846,2.846c-1.572,0-2.845-1.274-2.845-2.846s1.273-2.846,2.845-2.846
			C239.257,437.771,240.531,439.045,240.531,440.617"/>
		<path clip-path="url(#SVGID_4_)" fill-rule="evenodd" clip-rule="evenodd" fill="#2C77BC" d="M255.901,440.617
			c0,1.572-1.274,2.846-2.846,2.846c-1.572,0-2.845-1.274-2.845-2.846s1.273-2.846,2.845-2.846
			C254.627,437.771,255.901,439.045,255.901,440.617"/>
		<path clip-path="url(#SVGID_4_)" fill-rule="evenodd" clip-rule="evenodd" fill="#2C77BC" d="M271.271,440.617
			c0,1.572-1.274,2.846-2.847,2.846c-1.571,0-2.845-1.274-2.845-2.846s1.274-2.846,2.845-2.846
			C269.998,437.771,271.271,439.045,271.271,440.617"/>
		<path clip-path="url(#SVGID_4_)" fill-rule="evenodd" clip-rule="evenodd" fill="#2C77BC" d="M286.641,440.617
			c0,1.572-1.273,2.846-2.846,2.846c-1.571,0-2.845-1.274-2.845-2.846s1.274-2.846,2.845-2.846
			C285.368,437.771,286.641,439.045,286.641,440.617"/>
		<path clip-path="url(#SVGID_4_)" fill-rule="evenodd" clip-rule="evenodd" fill="#2C77BC" d="M302.011,440.617
			c0,1.572-1.273,2.846-2.846,2.846c-1.571,0-2.845-1.274-2.845-2.846s1.274-2.846,2.845-2.846
			C300.738,437.771,302.011,439.045,302.011,440.617"/>
		<path clip-path="url(#SVGID_4_)" fill-rule="evenodd" clip-rule="evenodd" fill="#2C77BC" d="M317.381,440.617
			c0,1.572-1.274,2.846-2.846,2.846c-1.571,0-2.845-1.274-2.845-2.846s1.274-2.846,2.845-2.846
			C316.107,437.771,317.381,439.045,317.381,440.617"/>
		<path clip-path="url(#SVGID_4_)" fill-rule="evenodd" clip-rule="evenodd" fill="#2C77BC" d="M332.751,440.617
			c0,1.572-1.274,2.846-2.846,2.846c-1.571,0-2.845-1.274-2.845-2.846s1.274-2.846,2.845-2.846
			C331.477,437.771,332.751,439.045,332.751,440.617"/>
		<path clip-path="url(#SVGID_4_)" fill-rule="evenodd" clip-rule="evenodd" fill="#2C77BC" d="M348.121,440.617
			c0,1.572-1.274,2.846-2.846,2.846c-1.572,0-2.845-1.274-2.845-2.846s1.273-2.846,2.845-2.846
			C346.847,437.771,348.121,439.045,348.121,440.617"/>
		<path clip-path="url(#SVGID_4_)" fill-rule="evenodd" clip-rule="evenodd" fill="#2C77BC" d="M363.491,440.617
			c0,1.572-1.274,2.846-2.846,2.846c-1.572,0-2.845-1.274-2.845-2.846s1.273-2.846,2.845-2.846
			C362.217,437.771,363.491,439.045,363.491,440.617"/>
		
			<rect x="101.257" y="241.658" clip-path="url(#SVGID_4_)" fill="none" stroke="#2C77BC" stroke-width="3.51" stroke-miterlimit="10" width="12.351" height="184.987"/>
		
			<rect x="101.258" y="211.942" clip-path="url(#SVGID_4_)" fill="none" stroke="#2C77BC" stroke-width="3.235" stroke-miterlimit="10" width="92.589" height="12.351"/>
		
			<rect x="89.524" y="478.469" clip-path="url(#SVGID_4_)" fill="none" stroke="#2C77BC" stroke-width="3.51" stroke-miterlimit="10" width="61.548" height="12.351"/>
		
			<rect x="232.52" y="211.942" clip-path="url(#SVGID_4_)" fill="none" stroke="#2C77BC" stroke-width="3.51" stroke-miterlimit="10" width="123.098" height="12.351"/>
		
			<rect x="240.531" y="309.456" clip-path="url(#SVGID_4_)" fill="none" stroke="#2C77BC" stroke-width="3.51" stroke-miterlimit="10" width="27.894" height="27.894"/>
		
			<rect x="320.227" y="282.094" clip-path="url(#SVGID_4_)" fill="none" stroke="#2C77BC" stroke-width="3.51" stroke-miterlimit="10" width="27.895" height="13.947"/>
		
			<rect x="360.646" y="251.088" clip-path="url(#SVGID_4_)" fill="none" stroke="#2C77BC" stroke-width="3.51" stroke-miterlimit="10" width="27.894" height="13.947"/>
		
			<rect x="360.646" y="313.105" clip-path="url(#SVGID_4_)" fill="none" stroke="#2C77BC" stroke-width="3.51" stroke-miterlimit="10" width="27.894" height="13.947"/>
		
			<rect x="162.395" y="480.197" clip-path="url(#SVGID_4_)" fill="none" stroke="#2C77BC" stroke-width="3.51" stroke-miterlimit="10" width="83.985" height="32.287"/>
		
			<rect x="273.495" y="480.197" clip-path="url(#SVGID_4_)" fill="none" stroke="#2C77BC" stroke-width="3.51" stroke-miterlimit="10" width="83.985" height="32.287"/>
		
			<rect x="399.272" y="282.094" clip-path="url(#SVGID_4_)" fill="none" stroke="#2C77BC" stroke-width="3.51" stroke-miterlimit="10" width="27.895" height="13.947"/>
		
			<rect x="173.953" y="498.075" clip-path="url(#SVGID_4_)" fill-rule="evenodd" clip-rule="evenodd" fill="#2C77BC" width="3.705" height="3.705"/>
		
			<rect x="188.156" y="498.075" clip-path="url(#SVGID_4_)" fill-rule="evenodd" clip-rule="evenodd" fill="#2C77BC" width="3.705" height="3.705"/>
		
			<rect x="202.359" y="498.075" clip-path="url(#SVGID_4_)" fill-rule="evenodd" clip-rule="evenodd" fill="#2C77BC" width="3.706" height="3.705"/>
		
			<rect x="216.564" y="498.075" clip-path="url(#SVGID_4_)" fill-rule="evenodd" clip-rule="evenodd" fill="#2C77BC" width="3.705" height="3.705"/>
		
			<rect x="230.767" y="498.075" clip-path="url(#SVGID_4_)" fill-rule="evenodd" clip-rule="evenodd" fill="#2C77BC" width="3.705" height="3.705"/>
		
			<rect x="284.908" y="498.075" clip-path="url(#SVGID_4_)" fill-rule="evenodd" clip-rule="evenodd" fill="#2C77BC" width="3.706" height="3.705"/>
		
			<rect x="299.112" y="498.075" clip-path="url(#SVGID_4_)" fill-rule="evenodd" clip-rule="evenodd" fill="#2C77BC" width="3.705" height="3.705"/>
		
			<rect x="313.316" y="498.075" clip-path="url(#SVGID_4_)" fill-rule="evenodd" clip-rule="evenodd" fill="#2C77BC" width="3.705" height="3.705"/>
		
			<rect x="327.52" y="498.075" clip-path="url(#SVGID_4_)" fill-rule="evenodd" clip-rule="evenodd" fill="#2C77BC" width="3.705" height="3.705"/>
		
			<rect x="341.723" y="498.075" clip-path="url(#SVGID_4_)" fill-rule="evenodd" clip-rule="evenodd" fill="#2C77BC" width="3.705" height="3.705"/>
		
			<rect x="373.697" y="482.376" clip-path="url(#SVGID_4_)" fill-rule="evenodd" clip-rule="evenodd" fill="#2C77BC" width="3.705" height="3.705"/>
		
			<rect x="390.316" y="482.376" clip-path="url(#SVGID_4_)" fill-rule="evenodd" clip-rule="evenodd" fill="#2C77BC" width="3.705" height="3.705"/>
		
			<rect x="94.528" y="450.977" clip-path="url(#SVGID_4_)" fill-rule="evenodd" clip-rule="evenodd" fill="#2C77BC" width="3.705" height="3.705"/>
		
			<rect x="111.148" y="450.977" clip-path="url(#SVGID_4_)" fill-rule="evenodd" clip-rule="evenodd" fill="#2C77BC" width="3.705" height="3.705"/>
		
			<rect x="405.728" y="482.376" clip-path="url(#SVGID_4_)" fill-rule="evenodd" clip-rule="evenodd" fill="#2C77BC" width="3.705" height="3.705"/>
		
			<line clip-path="url(#SVGID_4_)" fill="none" stroke="#2C77BC" stroke-width="3.51" stroke-miterlimit="10" x1="104.911" y1="478.469" x2="104.911" y2="490.82"/>
		
			<line clip-path="url(#SVGID_4_)" fill="none" stroke="#2C77BC" stroke-width="3.51" stroke-miterlimit="10" x1="120.298" y1="478.469" x2="120.298" y2="490.82"/>
		
			<line clip-path="url(#SVGID_4_)" fill="none" stroke="#2C77BC" stroke-width="3.51" stroke-miterlimit="10" x1="135.686" y1="478.469" x2="135.686" y2="490.82"/>
		
			<rect x="368.487" y="478.469" clip-path="url(#SVGID_4_)" fill="none" stroke="#2C77BC" stroke-width="3.046" stroke-miterlimit="10" width="46.356" height="12.351"/>
		
			<line clip-path="url(#SVGID_4_)" fill="none" stroke="#2C77BC" stroke-width="3.51" stroke-miterlimit="10" x1="383.874" y1="478.469" x2="383.874" y2="490.82"/>
		
			<line clip-path="url(#SVGID_4_)" fill="none" stroke="#2C77BC" stroke-width="3.51" stroke-miterlimit="10" x1="399.262" y1="478.469" x2="399.262" y2="490.82"/>
		
			<rect x="88.931" y="446.185" clip-path="url(#SVGID_4_)" fill="none" stroke="#2C77BC" stroke-width="3.51" stroke-miterlimit="10" width="30.774" height="12.351"/>
		
			<line clip-path="url(#SVGID_4_)" fill="none" stroke="#2C77BC" stroke-width="3.51" stroke-miterlimit="10" x1="104.318" y1="446.186" x2="104.318" y2="458.537"/>
		
			<line clip-path="url(#SVGID_4_)" fill="none" stroke="#2C77BC" stroke-width="3.51" stroke-miterlimit="10" x1="113.608" y1="411.31" x2="101.257" y2="411.31"/>
		
			<line clip-path="url(#SVGID_4_)" fill="none" stroke="#2C77BC" stroke-width="3.51" stroke-miterlimit="10" x1="113.608" y1="395.53" x2="101.257" y2="395.53"/>
		
			<line clip-path="url(#SVGID_4_)" fill="none" stroke="#2C77BC" stroke-width="3.51" stroke-miterlimit="10" x1="113.608" y1="380.143" x2="101.257" y2="380.143"/>
		
			<line clip-path="url(#SVGID_4_)" fill="none" stroke="#2C77BC" stroke-width="3.51" stroke-miterlimit="10" x1="113.608" y1="364.756" x2="101.257" y2="364.756"/>
		
			<line clip-path="url(#SVGID_4_)" fill="none" stroke="#2C77BC" stroke-width="3.51" stroke-miterlimit="10" x1="113.608" y1="349.368" x2="101.257" y2="349.368"/>
		
			<line clip-path="url(#SVGID_4_)" fill="none" stroke="#2C77BC" stroke-width="3.51" stroke-miterlimit="10" x1="113.608" y1="333.981" x2="101.257" y2="333.981"/>
		
			<line clip-path="url(#SVGID_4_)" fill="none" stroke="#2C77BC" stroke-width="3.51" stroke-miterlimit="10" x1="113.608" y1="318.594" x2="101.257" y2="318.594"/>
		
			<line clip-path="url(#SVGID_4_)" fill="none" stroke="#2C77BC" stroke-width="3.51" stroke-miterlimit="10" x1="113.608" y1="303.207" x2="101.257" y2="303.207"/>
		
			<line clip-path="url(#SVGID_4_)" fill="none" stroke="#2C77BC" stroke-width="3.51" stroke-miterlimit="10" x1="113.608" y1="287.82" x2="101.257" y2="287.82"/>
		
			<line clip-path="url(#SVGID_4_)" fill="none" stroke="#2C77BC" stroke-width="3.51" stroke-miterlimit="10" x1="113.608" y1="272.433" x2="101.257" y2="272.433"/>
		
			<line clip-path="url(#SVGID_4_)" fill="none" stroke="#2C77BC" stroke-width="3.51" stroke-miterlimit="10" x1="113.608" y1="257.045" x2="101.257" y2="257.045"/>
		
			<line clip-path="url(#SVGID_4_)" fill="none" stroke="#2C77BC" stroke-width="3.51" stroke-miterlimit="10" x1="247.907" y1="224.293" x2="247.907" y2="211.942"/>
		
			<line clip-path="url(#SVGID_4_)" fill="none" stroke="#2C77BC" stroke-width="3.51" stroke-miterlimit="10" x1="178.193" y1="224.293" x2="178.193" y2="211.942"/>
		
			<line clip-path="url(#SVGID_4_)" fill="none" stroke="#2C77BC" stroke-width="3.51" stroke-miterlimit="10" x1="162.806" y1="224.293" x2="162.806" y2="211.942"/>
		
			<line clip-path="url(#SVGID_4_)" fill="none" stroke="#2C77BC" stroke-width="3.51" stroke-miterlimit="10" x1="147.419" y1="224.293" x2="147.419" y2="211.942"/>
		
			<line clip-path="url(#SVGID_4_)" fill="none" stroke="#2C77BC" stroke-width="3.51" stroke-miterlimit="10" x1="132.031" y1="224.293" x2="132.031" y2="211.942"/>
		
			<line clip-path="url(#SVGID_4_)" fill="none" stroke="#2C77BC" stroke-width="3.51" stroke-miterlimit="10" x1="116.645" y1="224.293" x2="116.645" y2="211.942"/>
		
			<line clip-path="url(#SVGID_4_)" fill="none" stroke="#2C77BC" stroke-width="3.51" stroke-miterlimit="10" x1="263.294" y1="224.293" x2="263.294" y2="211.942"/>
		
			<line clip-path="url(#SVGID_4_)" fill="none" stroke="#2C77BC" stroke-width="3.51" stroke-miterlimit="10" x1="278.682" y1="224.293" x2="278.682" y2="211.942"/>
		
			<line clip-path="url(#SVGID_4_)" fill="none" stroke="#2C77BC" stroke-width="3.51" stroke-miterlimit="10" x1="294.068" y1="224.293" x2="294.068" y2="211.942"/>
		
			<line clip-path="url(#SVGID_4_)" fill="none" stroke="#2C77BC" stroke-width="3.51" stroke-miterlimit="10" x1="309.455" y1="224.293" x2="309.455" y2="211.942"/>
		
			<line clip-path="url(#SVGID_4_)" fill="none" stroke="#2C77BC" stroke-width="3.51" stroke-miterlimit="10" x1="324.843" y1="224.293" x2="324.843" y2="211.942"/>
		
			<line clip-path="url(#SVGID_4_)" fill="none" stroke="#2C77BC" stroke-width="3.51" stroke-miterlimit="10" x1="340.229" y1="224.293" x2="340.229" y2="211.942"/>
		<path clip-path="url(#SVGID_4_)" fill="#2A77BC" d="M131.22,200.248v4.75h-1.676v-10.844h3.153c1.919,0,2.981,1.029,2.981,2.907
			c0,1.586-0.824,2.268-1.421,2.492c0.896,0.381,1.264,1.154,1.264,2.727v0.433c0,1.156,0.05,1.704,0.149,2.285h-1.64
			c-0.156-0.496-0.178-1.391-0.178-2.306v-0.386c0-1.482-0.327-2.058-1.634-2.058H131.22z M131.22,198.868h1.073
			c1.223,0,1.695-0.588,1.695-1.74c0-0.987-0.466-1.593-1.53-1.593h-1.238V198.868z M143.763,199.489
			c0,3.874-1.01,5.687-3.458,5.687c-2.3,0-3.365-1.773-3.365-5.695c0-3.839,1.242-5.494,3.442-5.494
			C142.705,193.987,143.763,195.754,143.763,199.489 M138.67,199.46c0,2.75,0.47,4.29,1.678,4.29c1.263,0,1.685-1.45,1.685-4.28
			c0-2.738-0.453-4.046-1.689-4.046C139.127,195.424,138.67,196.86,138.67,199.46 M145.342,194.154h3.141
			c1.793,0,2.815,1.018,2.815,2.712c0,1.397-0.669,2.05-1.281,2.274c0.786,0.306,1.609,1.027,1.609,2.673
			c0,2.023-1.286,3.185-3.199,3.185h-3.085V194.154z M148.036,198.547c1.26,0,1.637-0.513,1.637-1.528
			c0-0.993-0.523-1.511-1.541-1.511h-1.137v3.039H148.036z M146.995,203.667h1.261c1.073,0,1.678-0.59,1.678-1.878
			c0-1.232-0.558-1.911-1.896-1.911h-1.043V203.667z M159.555,199.489c0,3.874-1.01,5.687-3.458,5.687
			c-2.3,0-3.365-1.773-3.365-5.695c0-3.839,1.242-5.494,3.442-5.494C158.497,193.987,159.555,195.754,159.555,199.489
			 M154.462,199.46c0,2.75,0.47,4.29,1.678,4.29c1.263,0,1.685-1.45,1.685-4.28c0-2.738-0.452-4.046-1.69-4.046
			C154.919,195.424,154.462,196.86,154.462,199.46 M162.349,195.636h-2.351v-1.482h6.389v1.482h-2.351v9.362h-1.687V195.636z
			 M172.128,204.998h-1.687v-10.844h1.687V204.998z M174.136,204.998v-10.844h1.954c2.5,6.51,2.927,7.612,3.06,8.122h0.016
			c-0.087-1.355-0.096-2.964-0.096-4.736v-3.386h1.524v10.844h-1.872c-2.588-6.9-2.99-7.999-3.124-8.473h-0.016
			c0.08,1.343,0.085,3.001,0.085,4.948v3.525H174.136z M186.365,204.998h-1.686l2.548-10.844h2.187l2.593,10.844h-1.774
			l-0.629-2.972h-2.614L186.365,204.998z M189.294,200.555c-0.482-2.277-0.834-3.854-0.995-4.831h-0.044
			c-0.137,0.98-0.515,2.719-0.959,4.831H189.294z M202.173,201.894c-0.048,0.577-0.279,3.282-3.158,3.282
			c-3.016,0-3.323-2.826-3.323-5.636c0-3.389,0.962-5.553,3.445-5.553c2.786,0,2.983,2.461,3.021,3.258h-1.674
			c-0.027-0.368-0.067-1.811-1.374-1.811c-1.387,0-1.672,1.78-1.672,4.135c0,2.128,0.221,4.183,1.61,4.183
			c1.255,0,1.391-1.397,1.439-1.858H202.173z M204.526,204.998h-1.687l2.548-10.844h2.187l2.593,10.844h-1.774l-0.629-2.972h-2.614
			L204.526,204.998z M207.454,200.555c-0.482-2.277-0.834-3.854-0.995-4.831h-0.043c-0.138,0.98-0.516,2.719-0.96,4.831H207.454z
			 M211.177,204.998v-10.844h1.953c2.5,6.51,2.927,7.612,3.06,8.122h0.016c-0.086-1.355-0.096-2.964-0.096-4.736v-3.386h1.524
			v10.844h-1.872c-2.587-6.9-2.989-7.999-3.124-8.473h-0.016c0.08,1.343,0.085,3.001,0.085,4.948v3.525H211.177z"/>
		<path clip-path="url(#SVGID_4_)" fill="#2A77BC" d="M185.726,320.704v-1.294c0.322-0.044,0.594-0.075,1.008-0.086
			c-0.823-0.441-1.186-1.122-1.186-2.16c0-2.294,2.156-3.043,5.551-3.043c3.882,0,5.638,1.271,5.638,3.557
			c0,2.823-2.447,2.988-3.092,3.02v-1.669c0.42-0.033,1.655-0.123,1.655-1.4c0-1.347-1.714-1.762-4.191-1.762
			c-2.591,0-4.135,0.334-4.135,1.67c0,1.178,0.937,1.496,2.765,1.496h0.582v-1.604h1.447v3.275H185.726z M191.234,340.064
			c-3.874,0-5.687-1.011-5.687-3.459c0-2.3,1.773-3.365,5.696-3.365c3.838,0,5.493,1.243,5.493,3.442
			C196.737,339.006,194.97,340.064,191.234,340.064 M196.57,325.573c0,1.761-1.072,3.046-3.155,3.046
			c-2.038,0-3.184-1.162-3.184-3.205v-1.257h-4.505v-1.687h10.844V325.573z M196.57,331.629h-10.844v-1.687h10.844V331.629z
			 M191.264,334.971c-2.75,0-4.29,0.471-4.29,1.679c0,1.262,1.45,1.684,4.281,1.684c2.737,0,4.045-0.452,4.045-1.689
			C195.3,335.428,193.864,334.971,191.264,334.971 M191.601,324.157v1.07c0,1.154,0.587,1.696,1.836,1.696
			c1.124,0,1.752-0.582,1.752-1.581v-1.185H191.601z"/>
		<path clip-path="url(#SVGID_4_)" fill="#2A77BC" d="M196.779,239.514h1.018v5.67h2.273l-0.11,0.874h-3.181V239.514z
			 M201.701,246.058h-1.018v-6.544h1.018V246.058z M206.647,246.058h-0.781c-0.026-0.194-0.045-0.358-0.052-0.608
			c-0.266,0.497-0.676,0.716-1.303,0.716c-1.384,0-1.836-1.301-1.836-3.35c0-2.343,0.767-3.402,2.146-3.402
			c1.703,0,1.803,1.476,1.823,1.866h-1.008c-0.019-0.254-0.074-0.999-0.845-0.999c-0.812,0-1.062,1.035-1.062,2.529
			c0,1.564,0.201,2.495,1.007,2.495c0.711,0,0.903-0.565,0.903-1.668v-0.351h-0.968v-0.874h1.976V246.058z M207.716,239.514h1.018
			v2.647h1.764v-2.647h1.017v6.544h-1.017v-3.009h-1.764v3.009h-1.018V239.514z M213.583,240.409h-1.419v-0.895h3.856v0.895h-1.419
			v5.649h-1.018V240.409z"/>
		<path clip-path="url(#SVGID_4_)" fill="#2A77BC" d="M242.473,301.159v2.866h-1.011v-6.544h1.902c1.158,0,1.799,0.621,1.799,1.755
			c0,0.957-0.497,1.368-0.858,1.503c0.541,0.23,0.763,0.696,0.763,1.646v0.261c0,0.698,0.03,1.029,0.09,1.379h-0.99
			c-0.094-0.299-0.107-0.839-0.107-1.392V302.4c0-0.895-0.197-1.242-0.986-1.242H242.473z M242.473,300.326h0.647
			c0.738,0,1.023-0.354,1.023-1.05c0-0.595-0.281-0.961-0.923-0.961h-0.747V300.326z M249.899,304.024h-0.781
			c-0.026-0.194-0.045-0.358-0.052-0.608c-0.266,0.497-0.677,0.715-1.304,0.715c-1.383,0-1.835-1.3-1.835-3.349
			c0-2.343,0.767-3.402,2.146-3.402c1.703,0,1.803,1.476,1.822,1.865h-1.008c-0.019-0.253-0.074-0.998-0.844-0.998
			c-0.813,0-1.063,1.034-1.063,2.529c0,1.563,0.202,2.495,1.008,2.495c0.71,0,0.902-0.566,0.902-1.669v-0.35h-0.968v-0.874h1.977
			V304.024z M250.961,297.48h1.895c1.082,0,1.698,0.615,1.698,1.637c0,0.843-0.403,1.237-0.772,1.372
			c0.474,0.185,0.971,0.62,0.971,1.613c0,1.221-0.776,1.922-1.93,1.922h-1.862V297.48z M252.587,300.132
			c0.759,0,0.987-0.309,0.987-0.922c0-0.599-0.315-0.912-0.93-0.912h-0.686v1.834H252.587z M251.958,303.222h0.761
			c0.648,0,1.013-0.356,1.013-1.134c0-0.743-0.337-1.152-1.144-1.152h-0.63V303.222z M257.499,297.48h1.018v5.67h2.273l-0.111,0.874
			h-3.18V297.48z M264.535,301.037h-2.129v2.107h2.381l-0.128,0.881h-3.257v-6.544h3.236v0.894h-2.232v1.775h2.129V301.037z
			 M265.528,297.48h1.619c1.624,0,2.285,1.071,2.285,3.125c0,2.214-0.622,3.419-2.381,3.419h-1.523V297.48z M266.552,303.185h0.481
			c1.012,0,1.349-0.778,1.349-2.567c0-1.585-0.337-2.283-1.339-2.283h-0.491V303.185z"/>
		<path clip-path="url(#SVGID_4_)" fill="#2A77BC" d="M303.044,337.333h1.896c1.082,0,1.698,0.615,1.698,1.637
			c0,0.843-0.404,1.237-0.772,1.372c0.474,0.185,0.97,0.62,0.97,1.613c0,1.221-0.776,1.922-1.93,1.922h-1.862V337.333z
			 M304.67,339.983c0.76,0,0.988-0.309,0.988-0.922c0-0.599-0.316-0.912-0.93-0.912h-0.686v1.834H304.67z M304.042,343.074h0.761
			c0.647,0,1.012-0.356,1.012-1.134c0-0.743-0.337-1.153-1.144-1.153h-0.629V343.074z M308.69,341.011v2.866h-1.011v-6.544h1.902
			c1.158,0,1.799,0.621,1.799,1.754c0,0.958-0.498,1.369-0.858,1.504c0.541,0.23,0.763,0.696,0.763,1.646v0.261
			c0,0.698,0.03,1.029,0.09,1.379h-0.99c-0.094-0.299-0.107-0.839-0.107-1.392v-0.233c0-0.894-0.197-1.241-0.986-1.241H308.69z
			 M308.69,340.178h0.647c0.738,0,1.023-0.354,1.023-1.05c0-0.595-0.281-0.962-0.923-0.962h-0.747V340.178z M315.459,340.889h-2.129
			v2.107h2.381l-0.129,0.881h-3.256v-6.544h3.235v0.894h-2.231v1.775h2.129V340.889z M317.198,343.876h-1.018l1.537-6.544h1.32
			l1.564,6.544h-1.07l-0.379-1.794h-1.578L317.198,343.876z M318.963,341.196c-0.29-1.374-0.503-2.326-0.6-2.915h-0.026
			c-0.083,0.591-0.311,1.64-0.579,2.915H318.963z M321.214,337.333h1.619c1.624,0,2.286,1.071,2.286,3.125
			c0,2.214-0.623,3.419-2.381,3.419h-1.524V337.333z M322.24,343.037h0.48c1.012,0,1.349-0.778,1.349-2.567
			c0-1.585-0.337-2.283-1.339-2.283h-0.49V343.037z M326.067,337.333h1.895c1.082,0,1.699,0.615,1.699,1.637
			c0,0.843-0.404,1.237-0.773,1.372c0.474,0.185,0.971,0.62,0.971,1.613c0,1.221-0.776,1.922-1.93,1.922h-1.862V337.333z
			 M327.693,339.983c0.759,0,0.988-0.309,0.988-0.922c0-0.599-0.316-0.912-0.931-0.912h-0.686v1.834H327.693z M327.064,343.074
			h0.761c0.648,0,1.013-0.356,1.013-1.134c0-0.743-0.337-1.153-1.144-1.153h-0.63V343.074z M334.646,340.553
			c0,2.338-0.609,3.431-2.086,3.431c-1.388,0-2.031-1.07-2.031-3.436c0-2.317,0.75-3.315,2.077-3.315
			C334.009,337.232,334.646,338.299,334.646,340.553 M331.574,340.535c0,1.66,0.284,2.589,1.013,2.589
			c0.762,0,1.016-0.875,1.016-2.583c0-1.652-0.273-2.441-1.019-2.441C331.85,338.1,331.574,338.966,331.574,340.535
			 M336.057,343.876h-1.018l1.538-6.544h1.319l1.565,6.544h-1.07l-0.38-1.794h-1.578L336.057,343.876z M337.824,341.196
			c-0.29-1.374-0.503-2.326-0.6-2.915h-0.027c-0.083,0.591-0.31,1.64-0.579,2.915H337.824z M341.083,341.011v2.866h-1.011v-6.544
			h1.903c1.158,0,1.799,0.621,1.799,1.754c0,0.958-0.498,1.369-0.858,1.504c0.54,0.23,0.763,0.696,0.763,1.646v0.261
			c0,0.698,0.03,1.029,0.09,1.379h-0.99c-0.094-0.299-0.107-0.839-0.107-1.392v-0.233c0-0.894-0.198-1.241-0.986-1.241H341.083z
			 M341.083,340.178h0.648c0.738,0,1.023-0.354,1.023-1.05c0-0.595-0.281-0.962-0.924-0.962h-0.747V340.178z M344.721,337.333h1.619
			c1.624,0,2.285,1.071,2.285,3.125c0,2.214-0.622,3.419-2.381,3.419h-1.523V337.333z M345.745,343.037h0.481
			c1.012,0,1.349-0.778,1.349-2.567c0-1.585-0.337-2.283-1.339-2.283h-0.491V343.037z"/>
		<path clip-path="url(#SVGID_4_)" fill="#2A77BC" d="M193.797,284.116c0.055,0.587,0.309,1.085,0.948,1.085
			c0.614,0,0.873-0.366,0.873-0.944c0-0.589-0.27-0.92-1.119-1.327c-1.087-0.517-1.531-0.982-1.531-1.946
			c0-0.998,0.641-1.716,1.784-1.716c1.401,0,1.757,0.965,1.776,1.789h-0.997c-0.036-0.355-0.133-0.976-0.801-0.976
			c-0.52,0-0.748,0.346-0.748,0.817c0,0.524,0.234,0.77,1.019,1.138c1.164,0.544,1.654,1.077,1.654,2.131
			c0,1.03-0.618,1.847-1.94,1.847c-1.439,0-1.888-0.928-1.932-1.898H193.797z M200.646,282.922h-2.129v2.107h2.381l-0.128,0.881
			h-3.257v-6.544h3.235v0.894h-2.231v1.774h2.129V282.922z M201.639,285.91v-6.544h1.178c1.509,3.928,1.767,4.593,1.847,4.901h0.01
			c-0.052-0.818-0.058-1.788-0.058-2.858v-2.043h0.919v6.544h-1.129c-1.562-4.164-1.804-4.827-1.885-5.113h-0.01
			c0.048,0.81,0.051,1.811,0.051,2.985v2.128H201.639z M207.342,284.116c0.054,0.587,0.308,1.085,0.948,1.085
			c0.614,0,0.873-0.366,0.873-0.944c0-0.589-0.27-0.92-1.119-1.327c-1.088-0.517-1.531-0.982-1.531-1.946
			c0-0.998,0.64-1.716,1.784-1.716c1.401,0,1.757,0.965,1.776,1.789h-0.997c-0.036-0.355-0.133-0.976-0.801-0.976
			c-0.52,0-0.748,0.346-0.748,0.817c0,0.524,0.234,0.77,1.019,1.138c1.164,0.544,1.654,1.077,1.654,2.131
			c0,1.03-0.618,1.847-1.94,1.847c-1.439,0-1.888-0.928-1.932-1.898H207.342z M214.965,282.585c0,2.338-0.61,3.432-2.087,3.432
			c-1.387,0-2.03-1.07-2.03-3.437c0-2.316,0.75-3.315,2.077-3.315C214.327,279.266,214.965,280.333,214.965,282.585
			 M211.892,282.568c0,1.66,0.284,2.589,1.013,2.589c0.762,0,1.016-0.875,1.016-2.583c0-1.652-0.273-2.442-1.019-2.442
			C212.168,280.132,211.892,281,211.892,282.568 M216.938,283.043v2.867h-1.011v-6.544h1.902c1.158,0,1.799,0.621,1.799,1.754
			c0,0.957-0.498,1.369-0.857,1.504c0.54,0.23,0.762,0.696,0.762,1.646v0.26c0,0.698,0.03,1.029,0.09,1.38h-0.99
			c-0.093-0.3-0.107-0.84-0.107-1.392v-0.233c0-0.894-0.197-1.242-0.986-1.242H216.938z M216.938,282.21h0.647
			c0.738,0,1.023-0.354,1.023-1.049c0-0.596-0.281-0.962-0.923-0.962h-0.747V282.21z"/>
	</g>
	<g clip-path="url(#SVGID_2_)">
		<text transform="matrix(1 0 0 1 120.1035 255.4854)"><tspan x="0" y="0" fill="#2A77BC" font-family="'OCRAStd'" font-size="12.0763">3.3</tspan><tspan x="24.345" y="0" fill="#2A77BC" font-family="'OCRAStd'" font-size="12.0763"> </tspan></text>
	</g>
	<g clip-path="url(#SVGID_2_)">
		<text transform="matrix(1 0 0 1 152.5161 255.4854)" fill="#2A77BC" font-family="'OCRAStd'" font-size="12.0763">V</text>
	</g>
	<g clip-path="url(#SVGID_2_)">
		<text transform="matrix(1 0 0 1 120.1035 270.7017)"><tspan x="0" y="0" fill="#2A77BC" font-family="'OCRAStd'" font-size="12.0763">G</tspan><tspan x="8.115" y="0" fill="#2A77BC" font-family="'OCRAStd'" font-size="12.0763">N</tspan></text>
	</g>
	<g clip-path="url(#SVGID_2_)">
		<text transform="matrix(1 0 0 1 136.3101 270.7017)" fill="#2A77BC" font-family="'OCRAStd'" font-size="12.0763">D</text>
	</g>
	<g clip-path="url(#SVGID_2_)">
		<text transform="matrix(1 0 0 1 120.1035 301.1338)"><tspan x="0" y="0" fill="#2A77BC" font-family="'OCRAStd'" font-size="12.0763">4 (I</tspan><tspan x="32.46" y="0" fill="#2A77BC" font-family="'OCRAStd'" font-size="12.0763">O</tspan></text>
	</g>
	<g clip-path="url(#SVGID_2_)">
		<text transform="matrix(1 0 0 1 160.6196 301.1338)" fill="#2A77BC" font-family="'OCRAStd'" font-size="12.0763">)</text>
	</g>
	<g clip-path="url(#SVGID_2_)">
		<text transform="matrix(1 0 0 1 120.1035 316.3501)"><tspan x="0" y="0" fill="#2A77BC" font-family="'OCRAStd'" font-size="12.0763">5 (P</tspan><tspan x="32.46" y="0" fill="#2A77BC" font-family="'OCRAStd'" font-size="12.0763">W</tspan></text>
	</g>
	<g clip-path="url(#SVGID_2_)">
		<text transform="matrix(1 0 0 1 160.6196 316.3501)" fill="#2A77BC" font-family="'OCRAStd'" font-size="12.0763">)</text>
	</g>
	<g clip-path="url(#SVGID_2_)">
		<text transform="matrix(1 0 0 1 120.1035 331.5659)"><tspan x="0" y="0" fill="#2A77BC" font-family="'OCRAStd'" font-size="12.0763">10 (P</tspan><tspan x="40.575" y="0" fill="#2A77BC" font-family="'OCRAStd'" font-size="12.0763">W</tspan></text>
	</g>
	<g clip-path="url(#SVGID_2_)">
		<text transform="matrix(1 0 0 1 168.7227 331.5659)" fill="#2A77BC" font-family="'OCRAStd'" font-size="12.0763">)</text>
	</g>
	<g clip-path="url(#SVGID_2_)">
		<text transform="matrix(1 0 0 1 120.1035 346.7822)"><tspan x="0" y="0" fill="#2A77BC" font-family="'OCRAStd'" font-size="12.0763">16 (P</tspan><tspan x="40.575" y="0" fill="#2A77BC" font-family="'OCRAStd'" font-size="12.0763">W</tspan></text>
	</g>
	<g clip-path="url(#SVGID_2_)">
		<text transform="matrix(1 0 0 1 168.7227 346.7822)" fill="#2A77BC" font-family="'OCRAStd'" font-size="12.0763">)</text>
	</g>
	<g clip-path="url(#SVGID_2_)">
		<text transform="matrix(1 0 0 1 120.1035 361.998)"><tspan x="0" y="0" fill="#2A77BC" font-family="'OCRAStd'" font-size="12.0763">14 (</tspan><tspan x="32.46" y="0" fill="#2A77BC" font-family="'OCRAStd'" font-size="12.0763">L</tspan></text>
	</g>
	<g clip-path="url(#SVGID_2_)">
		<text transform="matrix(1 0 0 1 160.6196 361.998)" fill="#2A77BC" font-family="'OCRAStd'" font-size="12.0763">)</text>
	</g>
	<g clip-path="url(#SVGID_2_)">
		<text transform="matrix(1 0 0 1 120.1035 377.2144)"><tspan x="0" y="0" fill="#2A77BC" font-family="'OCRAStd'" font-size="12.0763">12 (</tspan><tspan x="32.46" y="0" fill="#2A77BC" font-family="'OCRAStd'" font-size="12.0763">D</tspan></text>
	</g>
	<g clip-path="url(#SVGID_2_)">
		<text transform="matrix(1 0 0 1 160.6196 377.2144)" fill="#2A77BC" font-family="'OCRAStd'" font-size="12.0763">)</text>
	</g>
	<g clip-path="url(#SVGID_2_)">
		<text transform="matrix(1 0 0 1 120.1035 392.4307)"><tspan x="0" y="0" fill="#2A77BC" font-family="'OCRAStd'" font-size="12.0763">13 (</tspan><tspan x="32.46" y="0" fill="#2A77BC" font-family="'OCRAStd'" font-size="12.0763">C</tspan></text>
	</g>
	<g clip-path="url(#SVGID_2_)">
		<text transform="matrix(1 0 0 1 160.6196 392.4307)" fill="#2A77BC" font-family="'OCRAStd'" font-size="12.0763">)</text>
	</g>
	<g clip-path="url(#SVGID_2_)">
		<text transform="matrix(1 0 0 1 366.46 245.8242)" fill="#2A77BC" font-family="'OCRAStd'" font-size="12.0763">S</text>
	</g>
	<g clip-path="url(#SVGID_2_)">
		<text transform="matrix(1 0 0 1 374.5635 245.8242)" fill="#2A77BC" font-family="'OCRAStd'" font-size="12.0763">1</text>
	</g>
	<g clip-path="url(#SVGID_2_)">
		<text transform="matrix(1 0 0 1 366.46 341.2271)" fill="#2A77BC" font-family="'OCRAStd'" font-size="12.0763">S</text>
	</g>
	<g clip-path="url(#SVGID_2_)">
		<text transform="matrix(1 0 0 1 374.5635 341.2271)" fill="#2A77BC" font-family="'OCRAStd'" font-size="12.0763">3</text>
	</g>
	<g clip-path="url(#SVGID_2_)">
		<text transform="matrix(1 0 0 1 326.6084 309.8286)" fill="#2A77BC" font-family="'OCRAStd'" font-size="12.0763">S</text>
	</g>
	<g clip-path="url(#SVGID_2_)">
		<text transform="matrix(1 0 0 1 334.7114 309.8286)" fill="#2A77BC" font-family="'OCRAStd'" font-size="12.0763">4</text>
	</g>
	<g clip-path="url(#SVGID_2_)">
		<text transform="matrix(1 0 0 1 406.312 309.8286)" fill="#2A77BC" font-family="'OCRAStd'" font-size="12.0763">S</text>
	</g>
	<g clip-path="url(#SVGID_2_)">
		<text transform="matrix(1 0 0 1 414.415 309.8286)" fill="#2A77BC" font-family="'OCRAStd'" font-size="12.0763">2</text>
	</g>
	<g clip-path="url(#SVGID_2_)">
		<text transform="matrix(1 0 0 1 121.3096 407.646)"><tspan x="0" y="0" fill="#2A77BC" font-family="'OCRAStd'" font-size="8.4534">0 (12C-</tspan><tspan x="39.764" y="0" fill="#2A77BC" font-family="'OCRAStd'" font-size="8.4534">D</tspan></text>
	</g>
	<g clip-path="url(#SVGID_2_)">
		<text transform="matrix(1 0 0 1 166.6875 407.646)" fill="#2A77BC" font-family="'OCRAStd'" font-size="8.4534">)</text>
	</g>
	<g clip-path="url(#SVGID_2_)">
		<text transform="matrix(1 0 0 1 121.3096 422.8623)"><tspan x="0" y="0" fill="#2A77BC" font-family="'OCRAStd'" font-size="8.4534">2 (12C-</tspan><tspan x="39.764" y="0" fill="#2A77BC" font-family="'OCRAStd'" font-size="8.4534">D</tspan></text>
	</g>
	<g clip-path="url(#SVGID_2_)">
		<text transform="matrix(1 0 0 1 166.6875 422.8623)" fill="#2A77BC" font-family="'OCRAStd'" font-size="8.4534">)</text>
	</g>
	<g clip-path="url(#SVGID_2_)">
		<text transform="matrix(1 0 0 1 88.502 440.251)"><tspan x="0" y="0" fill="#2A77BC" font-family="'OCRAStd'" font-size="8.4534">V + G</tspan><tspan x="28.403" y="0" fill="#2A77BC" font-family="'OCRAStd'" font-size="8.4534">N</tspan></text>
	</g>
	<g clip-path="url(#SVGID_2_)">
		<text transform="matrix(1 0 0 1 122.5352 440.251)" fill="#2A77BC" font-family="'OCRAStd'" font-size="8.4534">D</text>
	</g>
	<g clip-path="url(#SVGID_2_)">
		<text transform="matrix(1 0 0 1 89.9136 474.0645)" fill="#2A77BC" font-family="'OCRAStd'" font-size="8.4534">C</text>
	</g>
	<g clip-path="url(#SVGID_2_)">
		<text transform="matrix(1 0 0 1 95.5859 474.0645)" fill="#2A77BC" font-family="'OCRAStd'" font-size="8.4534">K</text>
	</g>
	<g clip-path="url(#SVGID_2_)">
		<text transform="matrix(1 0 0 1 138.2163 474.0645)" fill="#2A77BC" font-family="'OCRAStd'" font-size="8.4534">C</text>
	</g>
	<g clip-path="url(#SVGID_2_)">
		<text transform="matrix(1 0 0 1 143.8887 474.0645)" fill="#2A77BC" font-family="'OCRAStd'" font-size="8.4534">O</text>
	</g>
	<g clip-path="url(#SVGID_2_)">
		<text transform="matrix(1 0 0 1 122.5186 474.0645)" fill="#2A77BC" font-family="'OCRAStd'" font-size="8.4534">M</text>
	</g>
	<g clip-path="url(#SVGID_2_)">
		<text transform="matrix(1 0 0 1 128.1904 474.0645)" fill="#2A77BC" font-family="'OCRAStd'" font-size="8.4534">I</text>
	</g>
	<g clip-path="url(#SVGID_2_)">
		<text transform="matrix(1 0 0 1 106.8203 474.0645)" fill="#2A77BC" font-family="'OCRAStd'" font-size="8.4534">M</text>
	</g>
	<g clip-path="url(#SVGID_2_)">
		<text transform="matrix(1 0 0 1 112.4927 474.0645)" fill="#2A77BC" font-family="'OCRAStd'" font-size="8.4534">O</text>
	</g>
	<g clip-path="url(#SVGID_2_)">
		<defs>
			<rect id="SVGID_5_" width="1210" height="1178"/>
		</defs>
		<clipPath id="SVGID_6_">
			<use xlink:href="#SVGID_5_"  overflow="visible"/>
		</clipPath>
		
			<rect x="422.46" y="396.79" clip-path="url(#SVGID_6_)" fill="none" stroke="#2C77BC" stroke-width="3.51" stroke-miterlimit="10" width="15.37" height="36.168"/>
		
			<rect x="437.83" y="400.108" clip-path="url(#SVGID_6_)" fill-rule="evenodd" clip-rule="evenodd" fill="#2C77BC" width="6.449" height="6.45"/>
	</g>
	<g clip-path="url(#SVGID_2_)">
		<text transform="matrix(1 0 0 1 430.1494 447.6792)" fill="#2C77BC" font-family="'Nunito-ExtraBold'" font-size="16.8474">0</text>
	</g>
	<g clip-path="url(#SVGID_2_)">
		<text transform="matrix(1 0 0 1 430.1494 389.2695)" fill="#2C77BC" font-family="'Nunito-ExtraBold'" font-size="16.8474">1</text>
	</g>
	<g clip-path="url(#SVGID_2_)">
		<defs>
			<rect id="SVGID_7_" width="1210" height="1178"/>
		</defs>
		<clipPath id="SVGID_8_">
			<use xlink:href="#SVGID_7_"  overflow="visible"/>
		</clipPath>
		<path clip-path="url(#SVGID_8_)" fill="none" stroke="#2A77BC" stroke-width="1.493" stroke-miterlimit="10" d="M100.657,239.943
			h63.804c9.852,0,17.913,8.061,17.913,17.913v152.565c0,9.852-8.061,17.913-17.913,17.913h-63.804"/>
		<rect x="114.143" y="272.55" clip-path="url(#SVGID_8_)" fill="#2A77BC" width="67.628" height="15.699"/>
	</g>
	<g clip-path="url(#SVGID_2_)">
		<text transform="matrix(1 0 0 1 139.4238 285.6768)" fill="#FFFFFF" font-family="'OCRAStd'" font-size="12.887">A</text>
	</g>
	<g clip-path="url(#SVGID_2_)">
		<text transform="matrix(1 0 0 1 148.0708 285.6768)" fill="#FFFFFF" font-family="'OCRAStd'" font-size="12.887">O</text>
	</g>
	<g clip-path="url(#SVGID_2_)">
		<defs>
			<rect id="SVGID_9_" width="1210" height="1178"/>
		</defs>
		<clipPath id="SVGID_10_">
			<use xlink:href="#SVGID_9_"  overflow="visible"/>
		</clipPath>
		
			<line clip-path="url(#SVGID_10_)" fill="none" stroke="#2A77BC" stroke-width="1.208" stroke-miterlimit="10" x1="113.539" y1="349.234" x2="182.374" y2="349.234"/>
		
			<line clip-path="url(#SVGID_10_)" fill="none" stroke="#2A77BC" stroke-width="1.208" stroke-miterlimit="10" x1="113.539" y1="394.521" x2="182.374" y2="394.521"/>
		<path clip-path="url(#SVGID_10_)" fill="none" stroke="#2C77BC" stroke-width="3.51" stroke-miterlimit="10" d="M220.97,263.008
			c0-5.083-2.636-9.576-6.603-12.196H198.35c-3.968,2.62-6.603,7.113-6.603,12.196c0,4.573,2.134,8.669,5.451,11.353h18.322
			C218.836,271.677,220.97,267.581,220.97,263.008z"/>
		
			<rect x="247.716" y="186.883" clip-path="url(#SVGID_10_)" fill-rule="evenodd" clip-rule="evenodd" fill="#FF0000" width="15.496" height="22.856"/>
		<rect x="247.716" y="212.063" clip-path="url(#SVGID_10_)" fill="#15394C" width="15.496" height="12.397"/>
		<rect x="98.958" y="242.281" clip-path="url(#SVGID_10_)" fill="#15394C" width="15.495" height="12.396"/>
		<rect x="263.212" y="212.063" clip-path="url(#SVGID_10_)" fill="#15394C" width="15.496" height="12.397"/>
		<rect x="278.708" y="212.063" clip-path="url(#SVGID_10_)" fill="#15394C" width="15.495" height="12.397"/>
		<path clip-path="url(#SVGID_10_)" fill="none" stroke="#15394C" stroke-width="7.748" stroke-miterlimit="10" d="M139.247,64.855
			c0,0-44.551,159.605-87.938,73.217c-39.019-77.688,203.38-41.451,204.155,80.19"/>
		<path clip-path="url(#SVGID_10_)" fill="none" stroke="#15394C" stroke-width="7.748" stroke-miterlimit="10" d="M403.846,64.855
			c0,0,44.55,159.605,87.938,73.217c39.018-77.688-203.381-41.451-204.156,80.19"/>
		
			<line clip-path="url(#SVGID_10_)" fill="none" stroke="#999999" stroke-width="1.937" stroke-miterlimit="10" x1="147.963" y1="35.607" x2="139.486" y2="64.941"/>
		
			<line clip-path="url(#SVGID_10_)" fill="none" stroke="#999999" stroke-width="1.937" stroke-miterlimit="10" x1="36.395" y1="454.571" x2="36.44" y2="481"/>
		
			<line clip-path="url(#SVGID_10_)" fill="none" stroke="#999999" stroke-width="1.937" stroke-miterlimit="10" x1="225.64" y1="51.085" x2="206.695" y2="75.031"/>
		
			<line clip-path="url(#SVGID_10_)" fill="none" stroke="#999999" stroke-width="1.937" stroke-miterlimit="10" x1="395.165" y1="35.607" x2="403.642" y2="64.941"/>
		
			<rect x="263.6" y="186.883" clip-path="url(#SVGID_10_)" fill-rule="evenodd" clip-rule="evenodd" fill="#00FF00" width="15.495" height="22.856"/>
		<path clip-path="url(#SVGID_10_)" fill="none" stroke="#15394C" stroke-width="7.748" stroke-miterlimit="10" d="M270.96,218.262
			c0,0-15.883-84.064,38.352-117.38c54.234-33.315-32.929-100.721-84.065-49.198"/>
		<path clip-path="url(#SVGID_10_)" fill="none" stroke="#15394C" stroke-width="7.748" stroke-miterlimit="10" d="M106.706,248.479
			c0,0-69.344-38.739-70.118,47.649c-0.775,86.389,0,158.444,0,158.444"/>
		
			<rect x="809.581" y="520.454" clip-path="url(#SVGID_10_)" fill-rule="evenodd" clip-rule="evenodd" fill="#0000FF" width="26.004" height="38.355"/>
		<path clip-path="url(#SVGID_10_)" fill="none" stroke="#2C77BC" stroke-width="5.89" stroke-miterlimit="10" d="
			M1001.079,1095.772H562.354c-54.328,0-98.779-44.451-98.779-98.779V616.301c0-54.329,44.451-98.78,98.779-98.78h438.725
			c54.329,0,98.78,44.451,98.78,98.78v380.692C1099.859,1051.321,1055.408,1095.772,1001.079,1095.772z"/>
		<polygon clip-path="url(#SVGID_10_)" fill="none" stroke="#2C77BC" stroke-width="5.89" stroke-miterlimit="10" points="
			693.501,812.049 693.501,790.685 940.83,792.434 940.83,812.049 972.609,812.049 972.609,974.773 942.212,974.773 942.212,995.5 
			693.501,995.5 693.501,977.537 661.722,977.537 661.722,812.049 		"/>
		<path clip-path="url(#SVGID_10_)" fill-rule="evenodd" clip-rule="evenodd" fill="#2C77BC" d="M693.934,841.813
			c0,2.638-2.138,4.776-4.775,4.776s-4.775-2.139-4.775-4.776c0-2.637,2.138-4.774,4.775-4.774S693.934,839.176,693.934,841.813"/>
		<path clip-path="url(#SVGID_10_)" fill-rule="evenodd" clip-rule="evenodd" fill="#2C77BC" d="M719.726,841.813
			c0,2.638-2.138,4.776-4.775,4.776s-4.775-2.139-4.775-4.776c0-2.637,2.138-4.774,4.775-4.774S719.726,839.176,719.726,841.813"/>
		<path clip-path="url(#SVGID_10_)" fill-rule="evenodd" clip-rule="evenodd" fill="#2C77BC" d="M745.518,841.813
			c0,2.638-2.138,4.776-4.775,4.776c-2.637,0-4.775-2.139-4.775-4.776c0-2.637,2.139-4.774,4.775-4.774
			C743.38,837.038,745.518,839.176,745.518,841.813"/>
		<path clip-path="url(#SVGID_10_)" fill-rule="evenodd" clip-rule="evenodd" fill="#2C77BC" d="M771.311,841.813
			c0,2.638-2.139,4.776-4.776,4.776c-2.637,0-4.775-2.139-4.775-4.776c0-2.637,2.139-4.774,4.775-4.774
			C769.172,837.038,771.311,839.176,771.311,841.813"/>
		<path clip-path="url(#SVGID_10_)" fill-rule="evenodd" clip-rule="evenodd" fill="#2C77BC" d="M797.103,841.813
			c0,2.638-2.139,4.776-4.775,4.776c-2.638,0-4.775-2.139-4.775-4.776c0-2.637,2.138-4.774,4.775-4.774
			C794.964,837.038,797.103,839.176,797.103,841.813"/>
		<path clip-path="url(#SVGID_10_)" fill-rule="evenodd" clip-rule="evenodd" fill="#2C77BC" d="M822.895,841.813
			c0,2.638-2.138,4.776-4.775,4.776s-4.775-2.139-4.775-4.776c0-2.637,2.138-4.774,4.775-4.774S822.895,839.176,822.895,841.813"/>
		<path clip-path="url(#SVGID_10_)" fill-rule="evenodd" clip-rule="evenodd" fill="#2C77BC" d="M848.687,841.813
			c0,2.638-2.138,4.776-4.775,4.776s-4.775-2.139-4.775-4.776c0-2.637,2.138-4.774,4.775-4.774S848.687,839.176,848.687,841.813"/>
		<path clip-path="url(#SVGID_10_)" fill-rule="evenodd" clip-rule="evenodd" fill="#2C77BC" d="M874.479,841.813
			c0,2.638-2.138,4.776-4.775,4.776c-2.637,0-4.775-2.139-4.775-4.776c0-2.637,2.139-4.774,4.775-4.774
			C872.341,837.038,874.479,839.176,874.479,841.813"/>
		<path clip-path="url(#SVGID_10_)" fill-rule="evenodd" clip-rule="evenodd" fill="#2C77BC" d="M900.271,841.813
			c0,2.638-2.139,4.776-4.775,4.776c-2.638,0-4.775-2.139-4.775-4.776c0-2.637,2.138-4.774,4.775-4.774
			C898.133,837.038,900.271,839.176,900.271,841.813"/>
		<path clip-path="url(#SVGID_10_)" fill-rule="evenodd" clip-rule="evenodd" fill="#2C77BC" d="M926.063,841.813
			c0,2.638-2.139,4.776-4.775,4.776c-2.638,0-4.775-2.139-4.775-4.776c0-2.637,2.138-4.774,4.775-4.774
			C923.925,837.038,926.063,839.176,926.063,841.813"/>
		<path clip-path="url(#SVGID_10_)" fill-rule="evenodd" clip-rule="evenodd" fill="#2C77BC" d="M951.855,841.813
			c0,2.638-2.138,4.776-4.775,4.776s-4.775-2.139-4.775-4.776c0-2.637,2.138-4.774,4.775-4.774S951.855,839.176,951.855,841.813"/>
		<path clip-path="url(#SVGID_10_)" fill-rule="evenodd" clip-rule="evenodd" fill="#2C77BC" d="M693.934,867.92
			c0,2.638-2.138,4.775-4.775,4.775s-4.775-2.138-4.775-4.775c0-2.637,2.138-4.774,4.775-4.774S693.934,865.283,693.934,867.92"/>
		<path clip-path="url(#SVGID_10_)" fill-rule="evenodd" clip-rule="evenodd" fill="#2C77BC" d="M719.726,867.92
			c0,2.638-2.138,4.775-4.775,4.775s-4.775-2.138-4.775-4.775c0-2.637,2.138-4.774,4.775-4.774S719.726,865.283,719.726,867.92"/>
		<path clip-path="url(#SVGID_10_)" fill-rule="evenodd" clip-rule="evenodd" fill="#2C77BC" d="M745.518,867.92
			c0,2.638-2.138,4.775-4.775,4.775c-2.637,0-4.775-2.138-4.775-4.775c0-2.637,2.139-4.774,4.775-4.774
			C743.38,863.146,745.518,865.283,745.518,867.92"/>
		<path clip-path="url(#SVGID_10_)" fill-rule="evenodd" clip-rule="evenodd" fill="#2C77BC" d="M771.311,867.92
			c0,2.638-2.139,4.775-4.776,4.775c-2.637,0-4.775-2.138-4.775-4.775c0-2.637,2.139-4.774,4.775-4.774
			C769.172,863.146,771.311,865.283,771.311,867.92"/>
		<path clip-path="url(#SVGID_10_)" fill-rule="evenodd" clip-rule="evenodd" fill="#2C77BC" d="M797.103,867.92
			c0,2.638-2.139,4.775-4.775,4.775c-2.638,0-4.775-2.138-4.775-4.775c0-2.637,2.138-4.774,4.775-4.774
			C794.964,863.146,797.103,865.283,797.103,867.92"/>
		<path clip-path="url(#SVGID_10_)" fill-rule="evenodd" clip-rule="evenodd" fill="#2C77BC" d="M822.895,867.92
			c0,2.638-2.138,4.775-4.775,4.775s-4.775-2.138-4.775-4.775c0-2.637,2.138-4.774,4.775-4.774S822.895,865.283,822.895,867.92"/>
		<path clip-path="url(#SVGID_10_)" fill-rule="evenodd" clip-rule="evenodd" fill="#2C77BC" d="M848.687,867.92
			c0,2.638-2.138,4.775-4.775,4.775s-4.775-2.138-4.775-4.775c0-2.637,2.138-4.774,4.775-4.774S848.687,865.283,848.687,867.92"/>
		<path clip-path="url(#SVGID_10_)" fill-rule="evenodd" clip-rule="evenodd" fill="#2C77BC" d="M874.479,867.92
			c0,2.638-2.138,4.775-4.775,4.775c-2.637,0-4.775-2.138-4.775-4.775c0-2.637,2.139-4.774,4.775-4.774
			C872.341,863.146,874.479,865.283,874.479,867.92"/>
		<path clip-path="url(#SVGID_10_)" fill-rule="evenodd" clip-rule="evenodd" fill="#2C77BC" d="M900.271,867.92
			c0,2.638-2.139,4.775-4.775,4.775c-2.638,0-4.775-2.138-4.775-4.775c0-2.637,2.138-4.774,4.775-4.774
			C898.133,863.146,900.271,865.283,900.271,867.92"/>
		<path clip-path="url(#SVGID_10_)" fill-rule="evenodd" clip-rule="evenodd" fill="#2C77BC" d="M926.063,867.92
			c0,2.638-2.139,4.775-4.775,4.775c-2.638,0-4.775-2.138-4.775-4.775c0-2.637,2.138-4.774,4.775-4.774
			C923.925,863.146,926.063,865.283,926.063,867.92"/>
		<path clip-path="url(#SVGID_10_)" fill-rule="evenodd" clip-rule="evenodd" fill="#2C77BC" d="M951.855,867.92
			c0,2.638-2.138,4.775-4.775,4.775s-4.775-2.138-4.775-4.775c0-2.637,2.138-4.774,4.775-4.774S951.855,865.283,951.855,867.92"/>
		<path clip-path="url(#SVGID_10_)" fill-rule="evenodd" clip-rule="evenodd" fill="#2C77BC" d="M693.934,894.027
			c0,2.637-2.138,4.775-4.775,4.775s-4.775-2.139-4.775-4.775s2.138-4.775,4.775-4.775S693.934,891.391,693.934,894.027"/>
		<path clip-path="url(#SVGID_10_)" fill-rule="evenodd" clip-rule="evenodd" fill="#2C77BC" d="M719.726,894.027
			c0,2.637-2.138,4.775-4.775,4.775s-4.775-2.139-4.775-4.775s2.138-4.775,4.775-4.775S719.726,891.391,719.726,894.027"/>
		<path clip-path="url(#SVGID_10_)" fill-rule="evenodd" clip-rule="evenodd" fill="#2C77BC" d="M745.518,894.027
			c0,2.637-2.138,4.775-4.775,4.775c-2.637,0-4.775-2.139-4.775-4.775s2.139-4.775,4.775-4.775
			C743.38,889.252,745.518,891.391,745.518,894.027"/>
		<path clip-path="url(#SVGID_10_)" fill-rule="evenodd" clip-rule="evenodd" fill="#2C77BC" d="M771.311,894.027
			c0,2.637-2.139,4.775-4.776,4.775c-2.637,0-4.775-2.139-4.775-4.775s2.139-4.775,4.775-4.775
			C769.172,889.252,771.311,891.391,771.311,894.027"/>
		<path clip-path="url(#SVGID_10_)" fill-rule="evenodd" clip-rule="evenodd" fill="#2C77BC" d="M797.103,894.027
			c0,2.637-2.139,4.775-4.775,4.775c-2.638,0-4.775-2.139-4.775-4.775s2.138-4.775,4.775-4.775
			C794.964,889.252,797.103,891.391,797.103,894.027"/>
		<path clip-path="url(#SVGID_10_)" fill-rule="evenodd" clip-rule="evenodd" fill="#2C77BC" d="M822.895,894.027
			c0,2.637-2.138,4.775-4.775,4.775s-4.775-2.139-4.775-4.775s2.138-4.775,4.775-4.775S822.895,891.391,822.895,894.027"/>
		<path clip-path="url(#SVGID_10_)" fill-rule="evenodd" clip-rule="evenodd" fill="#2C77BC" d="M848.687,894.027
			c0,2.637-2.138,4.775-4.775,4.775s-4.775-2.139-4.775-4.775s2.138-4.775,4.775-4.775S848.687,891.391,848.687,894.027"/>
		<path clip-path="url(#SVGID_10_)" fill-rule="evenodd" clip-rule="evenodd" fill="#2C77BC" d="M874.479,894.027
			c0,2.637-2.138,4.775-4.775,4.775c-2.637,0-4.775-2.139-4.775-4.775s2.139-4.775,4.775-4.775
			C872.341,889.252,874.479,891.391,874.479,894.027"/>
		<path clip-path="url(#SVGID_10_)" fill-rule="evenodd" clip-rule="evenodd" fill="#2C77BC" d="M900.271,894.027
			c0,2.637-2.139,4.775-4.775,4.775c-2.638,0-4.775-2.139-4.775-4.775s2.138-4.775,4.775-4.775
			C898.133,889.252,900.271,891.391,900.271,894.027"/>
		<path clip-path="url(#SVGID_10_)" fill-rule="evenodd" clip-rule="evenodd" fill="#2C77BC" d="M926.063,894.027
			c0,2.637-2.139,4.775-4.775,4.775c-2.638,0-4.775-2.139-4.775-4.775s2.138-4.775,4.775-4.775
			C923.925,889.252,926.063,891.391,926.063,894.027"/>
		<path clip-path="url(#SVGID_10_)" fill-rule="evenodd" clip-rule="evenodd" fill="#2C77BC" d="M951.855,894.027
			c0,2.637-2.138,4.775-4.775,4.775s-4.775-2.139-4.775-4.775s2.138-4.775,4.775-4.775S951.855,891.391,951.855,894.027"/>
		<path clip-path="url(#SVGID_10_)" fill-rule="evenodd" clip-rule="evenodd" fill="#2C77BC" d="M693.934,920.135
			c0,2.637-2.138,4.774-4.775,4.774s-4.775-2.138-4.775-4.774c0-2.638,2.138-4.776,4.775-4.776S693.934,917.497,693.934,920.135"/>
		<path clip-path="url(#SVGID_10_)" fill-rule="evenodd" clip-rule="evenodd" fill="#2C77BC" d="M719.726,920.135
			c0,2.637-2.138,4.774-4.775,4.774s-4.775-2.138-4.775-4.774c0-2.638,2.138-4.776,4.775-4.776S719.726,917.497,719.726,920.135"/>
		<path clip-path="url(#SVGID_10_)" fill-rule="evenodd" clip-rule="evenodd" fill="#2C77BC" d="M745.518,920.135
			c0,2.637-2.138,4.774-4.775,4.774c-2.637,0-4.775-2.138-4.775-4.774c0-2.638,2.139-4.776,4.775-4.776
			C743.38,915.358,745.518,917.497,745.518,920.135"/>
		<path clip-path="url(#SVGID_10_)" fill-rule="evenodd" clip-rule="evenodd" fill="#2C77BC" d="M771.311,920.135
			c0,2.637-2.139,4.774-4.776,4.774c-2.637,0-4.775-2.138-4.775-4.774c0-2.638,2.139-4.776,4.775-4.776
			C769.172,915.358,771.311,917.497,771.311,920.135"/>
		<path clip-path="url(#SVGID_10_)" fill-rule="evenodd" clip-rule="evenodd" fill="#2C77BC" d="M797.103,920.135
			c0,2.637-2.139,4.774-4.775,4.774c-2.638,0-4.775-2.138-4.775-4.774c0-2.638,2.138-4.776,4.775-4.776
			C794.964,915.358,797.103,917.497,797.103,920.135"/>
		<path clip-path="url(#SVGID_10_)" fill-rule="evenodd" clip-rule="evenodd" fill="#2C77BC" d="M822.895,920.135
			c0,2.637-2.138,4.774-4.775,4.774s-4.775-2.138-4.775-4.774c0-2.638,2.138-4.776,4.775-4.776S822.895,917.497,822.895,920.135"/>
		<path clip-path="url(#SVGID_10_)" fill-rule="evenodd" clip-rule="evenodd" fill="#2C77BC" d="M848.687,920.135
			c0,2.637-2.138,4.774-4.775,4.774s-4.775-2.138-4.775-4.774c0-2.638,2.138-4.776,4.775-4.776S848.687,917.497,848.687,920.135"/>
		<path clip-path="url(#SVGID_10_)" fill-rule="evenodd" clip-rule="evenodd" fill="#2C77BC" d="M874.479,920.135
			c0,2.637-2.138,4.774-4.775,4.774c-2.637,0-4.775-2.138-4.775-4.774c0-2.638,2.139-4.776,4.775-4.776
			C872.341,915.358,874.479,917.497,874.479,920.135"/>
		<path clip-path="url(#SVGID_10_)" fill-rule="evenodd" clip-rule="evenodd" fill="#2C77BC" d="M900.271,920.135
			c0,2.637-2.139,4.774-4.775,4.774c-2.638,0-4.775-2.138-4.775-4.774c0-2.638,2.138-4.776,4.775-4.776
			C898.133,915.358,900.271,917.497,900.271,920.135"/>
		<path clip-path="url(#SVGID_10_)" fill-rule="evenodd" clip-rule="evenodd" fill="#2C77BC" d="M926.063,920.135
			c0,2.637-2.139,4.774-4.775,4.774c-2.638,0-4.775-2.138-4.775-4.774c0-2.638,2.138-4.776,4.775-4.776
			C923.925,915.358,926.063,917.497,926.063,920.135"/>
		<path clip-path="url(#SVGID_10_)" fill-rule="evenodd" clip-rule="evenodd" fill="#2C77BC" d="M951.855,920.135
			c0,2.637-2.138,4.774-4.775,4.774s-4.775-2.138-4.775-4.774c0-2.638,2.138-4.776,4.775-4.776S951.855,917.497,951.855,920.135"/>
		<path clip-path="url(#SVGID_10_)" fill-rule="evenodd" clip-rule="evenodd" fill="#2C77BC" d="M693.934,946.241
			c0,2.638-2.138,4.775-4.775,4.775s-4.775-2.138-4.775-4.775c0-2.637,2.138-4.774,4.775-4.774S693.934,943.604,693.934,946.241"/>
		<path clip-path="url(#SVGID_10_)" fill-rule="evenodd" clip-rule="evenodd" fill="#2C77BC" d="M719.726,946.241
			c0,2.638-2.138,4.775-4.775,4.775s-4.775-2.138-4.775-4.775c0-2.637,2.138-4.774,4.775-4.774S719.726,943.604,719.726,946.241"/>
		<path clip-path="url(#SVGID_10_)" fill-rule="evenodd" clip-rule="evenodd" fill="#2C77BC" d="M745.518,946.241
			c0,2.638-2.138,4.775-4.775,4.775c-2.637,0-4.775-2.138-4.775-4.775c0-2.637,2.139-4.774,4.775-4.774
			C743.38,941.467,745.518,943.604,745.518,946.241"/>
		<path clip-path="url(#SVGID_10_)" fill-rule="evenodd" clip-rule="evenodd" fill="#2C77BC" d="M771.311,946.241
			c0,2.638-2.139,4.775-4.776,4.775c-2.637,0-4.775-2.138-4.775-4.775c0-2.637,2.139-4.774,4.775-4.774
			C769.172,941.467,771.311,943.604,771.311,946.241"/>
		<path clip-path="url(#SVGID_10_)" fill-rule="evenodd" clip-rule="evenodd" fill="#2C77BC" d="M797.103,946.241
			c0,2.638-2.139,4.775-4.775,4.775c-2.638,0-4.775-2.138-4.775-4.775c0-2.637,2.138-4.774,4.775-4.774
			C794.964,941.467,797.103,943.604,797.103,946.241"/>
		<path clip-path="url(#SVGID_10_)" fill-rule="evenodd" clip-rule="evenodd" fill="#2C77BC" d="M822.895,946.241
			c0,2.638-2.138,4.775-4.775,4.775s-4.775-2.138-4.775-4.775c0-2.637,2.138-4.774,4.775-4.774S822.895,943.604,822.895,946.241"/>
		<path clip-path="url(#SVGID_10_)" fill-rule="evenodd" clip-rule="evenodd" fill="#2C77BC" d="M848.687,946.241
			c0,2.638-2.138,4.775-4.775,4.775s-4.775-2.138-4.775-4.775c0-2.637,2.138-4.774,4.775-4.774S848.687,943.604,848.687,946.241"/>
		<path clip-path="url(#SVGID_10_)" fill-rule="evenodd" clip-rule="evenodd" fill="#2C77BC" d="M874.479,946.241
			c0,2.638-2.138,4.775-4.775,4.775c-2.637,0-4.775-2.138-4.775-4.775c0-2.637,2.139-4.774,4.775-4.774
			C872.341,941.467,874.479,943.604,874.479,946.241"/>
		<path clip-path="url(#SVGID_10_)" fill-rule="evenodd" clip-rule="evenodd" fill="#2C77BC" d="M900.271,946.241
			c0,2.638-2.139,4.775-4.775,4.775c-2.638,0-4.775-2.138-4.775-4.775c0-2.637,2.138-4.774,4.775-4.774
			C898.133,941.467,900.271,943.604,900.271,946.241"/>
		<path clip-path="url(#SVGID_10_)" fill-rule="evenodd" clip-rule="evenodd" fill="#2C77BC" d="M926.063,946.241
			c0,2.638-2.139,4.775-4.775,4.775c-2.638,0-4.775-2.138-4.775-4.775c0-2.637,2.138-4.774,4.775-4.774
			C923.925,941.467,926.063,943.604,926.063,946.241"/>
		<path clip-path="url(#SVGID_10_)" fill-rule="evenodd" clip-rule="evenodd" fill="#2C77BC" d="M951.855,946.241
			c0,2.638-2.138,4.775-4.775,4.775s-4.775-2.138-4.775-4.775c0-2.637,2.138-4.774,4.775-4.774S951.855,943.604,951.855,946.241"/>
		
			<rect x="511.804" y="612.371" clip-path="url(#SVGID_10_)" fill="none" stroke="#2C77BC" stroke-width="5.89" stroke-miterlimit="10" width="20.726" height="310.424"/>
		
			<rect x="511.805" y="562.505" clip-path="url(#SVGID_10_)" fill="none" stroke="#2C77BC" stroke-width="5.429" stroke-miterlimit="10" width="155.373" height="20.726"/>
		
			<rect x="492.114" y="1009.76" clip-path="url(#SVGID_10_)" fill="none" stroke="#2C77BC" stroke-width="5.89" stroke-miterlimit="10" width="103.284" height="20.728"/>
		
			<rect x="732.074" y="562.505" clip-path="url(#SVGID_10_)" fill="none" stroke="#2C77BC" stroke-width="5.89" stroke-miterlimit="10" width="206.566" height="20.726"/>
		
			<rect x="745.518" y="726.142" clip-path="url(#SVGID_10_)" fill="none" stroke="#2C77BC" stroke-width="5.89" stroke-miterlimit="10" width="46.812" height="46.811"/>
		
			<rect x="879.254" y="680.225" clip-path="url(#SVGID_10_)" fill="none" stroke="#2C77BC" stroke-width="5.89" stroke-miterlimit="10" width="46.812" height="23.405"/>
		
			<rect x="947.08" y="628.196" clip-path="url(#SVGID_10_)" fill="none" stroke="#2C77BC" stroke-width="5.89" stroke-miterlimit="10" width="46.809" height="23.403"/>
		
			<rect x="947.08" y="732.265" clip-path="url(#SVGID_10_)" fill="none" stroke="#2C77BC" stroke-width="5.89" stroke-miterlimit="10" width="46.809" height="23.405"/>
		
			<rect x="614.396" y="1012.661" clip-path="url(#SVGID_10_)" fill="none" stroke="#2C77BC" stroke-width="5.89" stroke-miterlimit="10" width="140.937" height="54.18"/>
		
			<rect x="800.834" y="1012.661" clip-path="url(#SVGID_10_)" fill="none" stroke="#2C77BC" stroke-width="5.89" stroke-miterlimit="10" width="140.938" height="54.18"/>
		
			<rect x="1011.9" y="680.225" clip-path="url(#SVGID_10_)" fill="none" stroke="#2C77BC" stroke-width="5.89" stroke-miterlimit="10" width="46.809" height="23.405"/>
		
			<rect x="633.794" y="1042.66" clip-path="url(#SVGID_10_)" fill-rule="evenodd" clip-rule="evenodd" fill="#2C77BC" width="6.218" height="6.218"/>
		
			<rect x="657.629" y="1042.66" clip-path="url(#SVGID_10_)" fill-rule="evenodd" clip-rule="evenodd" fill="#2C77BC" width="6.218" height="6.218"/>
		
			<rect x="681.463" y="1042.66" clip-path="url(#SVGID_10_)" fill-rule="evenodd" clip-rule="evenodd" fill="#2C77BC" width="6.218" height="6.218"/>
		
			<rect x="705.298" y="1042.66" clip-path="url(#SVGID_10_)" fill-rule="evenodd" clip-rule="evenodd" fill="#2C77BC" width="6.218" height="6.218"/>
		
			<rect x="729.133" y="1042.66" clip-path="url(#SVGID_10_)" fill-rule="evenodd" clip-rule="evenodd" fill="#2C77BC" width="6.218" height="6.218"/>
		
			<rect x="819.987" y="1042.66" clip-path="url(#SVGID_10_)" fill-rule="evenodd" clip-rule="evenodd" fill="#2C77BC" width="6.218" height="6.218"/>
		
			<rect x="843.822" y="1042.66" clip-path="url(#SVGID_10_)" fill-rule="evenodd" clip-rule="evenodd" fill="#2C77BC" width="6.218" height="6.218"/>
		
			<rect x="867.657" y="1042.66" clip-path="url(#SVGID_10_)" fill-rule="evenodd" clip-rule="evenodd" fill="#2C77BC" width="6.218" height="6.218"/>
		
			<rect x="891.491" y="1042.66" clip-path="url(#SVGID_10_)" fill-rule="evenodd" clip-rule="evenodd" fill="#2C77BC" width="6.218" height="6.218"/>
		
			<rect x="915.326" y="1042.66" clip-path="url(#SVGID_10_)" fill-rule="evenodd" clip-rule="evenodd" fill="#2C77BC" width="6.218" height="6.218"/>
		
			<rect x="968.982" y="1016.316" clip-path="url(#SVGID_10_)" fill-rule="evenodd" clip-rule="evenodd" fill="#2C77BC" width="6.218" height="6.218"/>
		
			<rect x="996.87" y="1016.316" clip-path="url(#SVGID_10_)" fill-rule="evenodd" clip-rule="evenodd" fill="#2C77BC" width="6.218" height="6.218"/>
		
			<rect x="500.512" y="963.626" clip-path="url(#SVGID_10_)" fill-rule="evenodd" clip-rule="evenodd" fill="#2C77BC" width="6.218" height="6.218"/>
		
			<rect x="528.4" y="963.626" clip-path="url(#SVGID_10_)" fill-rule="evenodd" clip-rule="evenodd" fill="#2C77BC" width="6.218" height="6.218"/>
		
			<rect x="1022.73" y="1016.316" clip-path="url(#SVGID_10_)" fill-rule="evenodd" clip-rule="evenodd" fill="#2C77BC" width="6.219" height="6.218"/>
		
			<line clip-path="url(#SVGID_10_)" fill="none" stroke="#2C77BC" stroke-width="5.89" stroke-miterlimit="10" x1="517.936" y1="1009.761" x2="517.936" y2="1030.486"/>
		
			<line clip-path="url(#SVGID_10_)" fill="none" stroke="#2C77BC" stroke-width="5.89" stroke-miterlimit="10" x1="543.757" y1="1009.761" x2="543.757" y2="1030.486"/>
		
			<line clip-path="url(#SVGID_10_)" fill="none" stroke="#2C77BC" stroke-width="5.89" stroke-miterlimit="10" x1="569.578" y1="1009.761" x2="569.578" y2="1030.486"/>
		
			<rect x="960.239" y="1009.76" clip-path="url(#SVGID_10_)" fill="none" stroke="#2C77BC" stroke-width="5.112" stroke-miterlimit="10" width="77.791" height="20.728"/>
		
			<line clip-path="url(#SVGID_10_)" fill="none" stroke="#2C77BC" stroke-width="5.89" stroke-miterlimit="10" x1="986.061" y1="1009.761" x2="986.061" y2="1030.486"/>
		
			<line clip-path="url(#SVGID_10_)" fill="none" stroke="#2C77BC" stroke-width="5.89" stroke-miterlimit="10" x1="1011.882" y1="1009.761" x2="1011.882" y2="1030.486"/>
		
			<rect x="491.119" y="955.586" clip-path="url(#SVGID_10_)" fill="none" stroke="#2C77BC" stroke-width="5.89" stroke-miterlimit="10" width="51.643" height="20.726"/>
		
			<line clip-path="url(#SVGID_10_)" fill="none" stroke="#2C77BC" stroke-width="5.89" stroke-miterlimit="10" x1="516.94" y1="955.586" x2="516.94" y2="976.312"/>
		
			<line clip-path="url(#SVGID_10_)" fill="none" stroke="#2C77BC" stroke-width="5.89" stroke-miterlimit="10" x1="532.53" y1="897.062" x2="511.804" y2="897.062"/>
		
			<line clip-path="url(#SVGID_10_)" fill="none" stroke="#2C77BC" stroke-width="5.89" stroke-miterlimit="10" x1="532.53" y1="870.581" x2="511.804" y2="870.581"/>
		
			<line clip-path="url(#SVGID_10_)" fill="none" stroke="#2C77BC" stroke-width="5.89" stroke-miterlimit="10" x1="532.53" y1="844.761" x2="511.804" y2="844.761"/>
		
			<line clip-path="url(#SVGID_10_)" fill="none" stroke="#2C77BC" stroke-width="5.89" stroke-miterlimit="10" x1="532.53" y1="818.939" x2="511.804" y2="818.939"/>
		
			<line clip-path="url(#SVGID_10_)" fill="none" stroke="#2C77BC" stroke-width="5.89" stroke-miterlimit="10" x1="532.53" y1="793.118" x2="511.804" y2="793.118"/>
		
			<line clip-path="url(#SVGID_10_)" fill="none" stroke="#2C77BC" stroke-width="5.89" stroke-miterlimit="10" x1="532.53" y1="767.298" x2="511.804" y2="767.298"/>
		
			<line clip-path="url(#SVGID_10_)" fill="none" stroke="#2C77BC" stroke-width="5.89" stroke-miterlimit="10" x1="532.53" y1="741.477" x2="511.804" y2="741.477"/>
		
			<line clip-path="url(#SVGID_10_)" fill="none" stroke="#2C77BC" stroke-width="5.89" stroke-miterlimit="10" x1="532.53" y1="715.655" x2="511.804" y2="715.655"/>
		
			<line clip-path="url(#SVGID_10_)" fill="none" stroke="#2C77BC" stroke-width="5.89" stroke-miterlimit="10" x1="532.53" y1="689.835" x2="511.804" y2="689.835"/>
		
			<line clip-path="url(#SVGID_10_)" fill="none" stroke="#2C77BC" stroke-width="5.89" stroke-miterlimit="10" x1="532.53" y1="664.014" x2="511.804" y2="664.014"/>
		
			<line clip-path="url(#SVGID_10_)" fill="none" stroke="#2C77BC" stroke-width="5.89" stroke-miterlimit="10" x1="532.53" y1="638.192" x2="511.804" y2="638.192"/>
		
			<line clip-path="url(#SVGID_10_)" fill="none" stroke="#2C77BC" stroke-width="5.89" stroke-miterlimit="10" x1="757.896" y1="583.23" x2="757.896" y2="562.504"/>
		
			<line clip-path="url(#SVGID_10_)" fill="none" stroke="#2C77BC" stroke-width="5.89" stroke-miterlimit="10" x1="640.909" y1="583.23" x2="640.909" y2="562.504"/>
		
			<line clip-path="url(#SVGID_10_)" fill="none" stroke="#2C77BC" stroke-width="5.89" stroke-miterlimit="10" x1="615.088" y1="583.23" x2="615.088" y2="562.504"/>
		
			<line clip-path="url(#SVGID_10_)" fill="none" stroke="#2C77BC" stroke-width="5.89" stroke-miterlimit="10" x1="589.268" y1="583.23" x2="589.268" y2="562.504"/>
		
			<line clip-path="url(#SVGID_10_)" fill="none" stroke="#2C77BC" stroke-width="5.89" stroke-miterlimit="10" x1="563.446" y1="583.23" x2="563.446" y2="562.504"/>
		
			<line clip-path="url(#SVGID_10_)" fill="none" stroke="#2C77BC" stroke-width="5.89" stroke-miterlimit="10" x1="537.625" y1="583.23" x2="537.625" y2="562.504"/>
		
			<line clip-path="url(#SVGID_10_)" fill="none" stroke="#2C77BC" stroke-width="5.89" stroke-miterlimit="10" x1="783.717" y1="583.23" x2="783.717" y2="562.504"/>
		
			<line clip-path="url(#SVGID_10_)" fill="none" stroke="#2C77BC" stroke-width="5.89" stroke-miterlimit="10" x1="809.537" y1="583.23" x2="809.537" y2="562.504"/>
		
			<line clip-path="url(#SVGID_10_)" fill="none" stroke="#2C77BC" stroke-width="5.89" stroke-miterlimit="10" x1="835.358" y1="583.23" x2="835.358" y2="562.504"/>
		
			<line clip-path="url(#SVGID_10_)" fill="none" stroke="#2C77BC" stroke-width="5.89" stroke-miterlimit="10" x1="861.18" y1="583.23" x2="861.18" y2="562.504"/>
		
			<line clip-path="url(#SVGID_10_)" fill="none" stroke="#2C77BC" stroke-width="5.89" stroke-miterlimit="10" x1="887" y1="583.23" x2="887" y2="562.504"/>
		
			<line clip-path="url(#SVGID_10_)" fill="none" stroke="#2C77BC" stroke-width="5.89" stroke-miterlimit="10" x1="912.821" y1="583.23" x2="912.821" y2="562.504"/>
		<path clip-path="url(#SVGID_10_)" fill="#2A77BC" d="M562.084,542.885v7.969h-2.811V532.66h5.289c3.221,0,5.002,1.726,5.002,4.877
			c0,2.661-1.383,3.805-2.385,4.181c1.504,0.639,2.122,1.937,2.122,4.576v0.725c0,1.94,0.083,2.86,0.25,3.835h-2.753
			c-0.261-0.833-0.298-2.333-0.298-3.87v-0.647c0-2.486-0.548-3.452-2.741-3.452H562.084z M562.084,540.568h1.801
			c2.051,0,2.843-0.985,2.843-2.918c0-1.656-0.781-2.673-2.566-2.673h-2.078V540.568z M583.132,541.61
			c0,6.5-1.695,9.542-5.802,9.542c-3.86,0-5.646-2.975-5.646-9.555c0-6.441,2.085-9.217,5.775-9.217
			C581.355,532.38,583.132,535.345,583.132,541.61 M574.587,541.562c0,4.615,0.789,7.198,2.816,7.198
			c2.118,0,2.826-2.433,2.826-7.182c0-4.593-0.759-6.787-2.834-6.787C575.354,534.791,574.587,537.2,574.587,541.562
			 M585.782,532.66h5.271c3.009,0,4.723,1.708,4.723,4.549c0,2.344-1.123,3.44-2.148,3.816c1.318,0.513,2.698,1.724,2.698,4.485
			c0,3.396-2.157,5.344-5.366,5.344h-5.178V532.66z M590.304,540.031c2.113,0,2.746-0.862,2.746-2.564
			c0-1.667-0.878-2.536-2.585-2.536h-1.908v5.1H590.304z M588.557,548.621h2.115c1.801,0,2.816-0.991,2.816-3.152
			c0-2.067-0.937-3.205-3.181-3.205h-1.75V548.621z M609.633,541.61c0,6.5-1.695,9.542-5.802,9.542c-3.86,0-5.647-2.975-5.647-9.555
			c0-6.441,2.085-9.217,5.776-9.217C607.856,532.38,609.633,535.345,609.633,541.61 M601.087,541.562
			c0,4.615,0.789,7.198,2.816,7.198c2.119,0,2.827-2.433,2.827-7.182c0-4.593-0.759-6.787-2.835-6.787
			C601.854,534.791,601.087,537.2,601.087,541.562 M614.322,535.146h-3.945v-2.486h10.721v2.486h-3.945v15.708h-2.83V535.146z
			 M630.731,550.854h-2.83V532.66h2.83V550.854z M634.104,550.854V532.66h3.276c4.193,10.922,4.912,12.77,5.135,13.627h0.027
			c-0.146-2.274-0.161-4.973-0.161-7.946v-5.681h2.556v18.194h-3.14c-4.342-11.578-5.017-13.42-5.242-14.216h-0.026
			c0.134,2.254,0.142,5.035,0.142,8.3v5.916H634.104z M654.622,550.854h-2.831l4.275-18.194h3.669l4.351,18.194h-2.976l-1.055-4.987
			h-4.388L654.622,550.854z M659.533,543.399c-0.807-3.819-1.396-6.466-1.669-8.106h-0.072c-0.23,1.644-0.864,4.562-1.61,8.106
			H659.533z M681.148,545.646c-0.081,0.967-0.467,5.506-5.297,5.506c-5.061,0-5.576-4.741-5.576-9.456
			c0-5.687,1.614-9.316,5.78-9.316c4.674,0,5.004,4.128,5.068,5.466h-2.809c-0.046-0.617-0.112-3.039-2.306-3.039
			c-2.327,0-2.805,2.986-2.805,6.938c0,3.571,0.369,7.018,2.7,7.018c2.107,0,2.334-2.344,2.415-3.117H681.148z M685.1,550.854
			h-2.831l4.275-18.194h3.669l4.35,18.194h-2.975l-1.056-4.987h-4.387L685.1,550.854z M690.012,543.399
			c-0.808-3.819-1.398-6.466-1.67-8.106h-0.072c-0.23,1.644-0.864,4.562-1.611,8.106H690.012z M696.261,550.854V532.66h3.274
			c4.196,10.922,4.913,12.77,5.137,13.627h0.026c-0.145-2.274-0.161-4.973-0.161-7.946v-5.681h2.557v18.194h-3.14
			c-4.343-11.578-5.017-13.42-5.242-14.216h-0.027c0.135,2.254,0.142,5.035,0.142,8.3v5.916H696.261z"/>
		<path clip-path="url(#SVGID_10_)" fill="#2A77BC" d="M653.55,745.016v-2.171c0.54-0.073,0.996-0.127,1.691-0.146
			c-1.381-0.739-1.989-1.881-1.989-3.623c0-3.848,3.615-5.105,9.313-5.105c6.514,0,9.459,2.133,9.459,5.969
			c0,4.735-4.104,5.012-5.187,5.065v-2.801c0.704-0.054,2.775-0.206,2.775-2.349c0-2.26-2.875-2.955-7.031-2.955
			c-4.348,0-6.938,0.561-6.938,2.803c0,1.975,1.572,2.51,4.64,2.51h0.976v-2.692h2.43v5.495H653.55z M662.793,777.504
			c-6.499,0-9.541-1.695-9.541-5.802c0-3.859,2.975-5.646,9.555-5.646c6.44,0,9.217,2.085,9.217,5.775
			C672.023,775.729,669.059,777.504,662.793,777.504 M671.744,753.187c0,2.955-1.799,5.112-5.294,5.112
			c-3.419,0-5.342-1.951-5.342-5.378v-2.109h-7.559v-2.831h18.194V753.187z M671.744,763.35H653.55v-2.83h18.194V763.35z
			 M662.842,768.959c-4.614,0-7.198,0.789-7.198,2.815c0,2.118,2.433,2.827,7.183,2.827c4.592,0,6.786-0.76,6.786-2.835
			C669.612,769.726,667.204,768.959,662.842,768.959 M663.406,750.812v1.795c0,1.935,0.985,2.846,3.082,2.846
			c1.885,0,2.938-0.978,2.938-2.652v-1.988H663.406z"/>
		<path clip-path="url(#SVGID_10_)" fill="#2A77BC" d="M672.102,608.776h1.708v9.513h3.813l-0.185,1.467h-5.336V608.776z
			 M680.359,619.756h-1.707v-10.979h1.707V619.756z M688.66,619.756h-1.311c-0.044-0.326-0.076-0.602-0.088-1.021
			c-0.446,0.834-1.135,1.201-2.187,1.201c-2.321,0-3.08-2.182-3.08-5.62c0-3.931,1.287-5.708,3.601-5.708
			c2.858,0,3.025,2.477,3.058,3.13h-1.69c-0.032-0.425-0.125-1.675-1.417-1.675c-1.364,0-1.783,1.735-1.783,4.243
			c0,2.623,0.339,4.186,1.691,4.186c1.191,0,1.514-0.948,1.514-2.799v-0.589h-1.624v-1.466h3.316V619.756z M690.454,608.776h1.708
			v4.441h2.959v-4.441h1.707v10.979h-1.707v-5.05h-2.959v5.05h-1.708V608.776z M700.298,610.276h-2.381v-1.5h6.469v1.5h-2.38v9.479
			h-1.708V610.276z"/>
		<path clip-path="url(#SVGID_10_)" fill="#2A77BC" d="M748.779,712.219v4.809h-1.697v-10.979h3.192
			c1.943,0,3.019,1.042,3.019,2.943c0,1.605-0.836,2.296-1.439,2.522c0.907,0.386,1.28,1.169,1.28,2.762v0.438
			c0,1.17,0.05,1.726,0.15,2.313h-1.661c-0.156-0.502-0.18-1.407-0.18-2.335v-0.391c0-1.5-0.33-2.083-1.654-2.083H748.779z
			 M748.779,710.821h1.086c1.238,0,1.716-0.595,1.716-1.761c0-1-0.471-1.613-1.548-1.613h-1.254V710.821z M761.241,717.027h-1.311
			c-0.044-0.325-0.076-0.601-0.088-1.021c-0.445,0.834-1.136,1.201-2.186,1.201c-2.323,0-3.081-2.183-3.081-5.62
			c0-3.93,1.287-5.707,3.602-5.707c2.857,0,3.024,2.476,3.057,3.129h-1.689c-0.032-0.425-0.125-1.675-1.418-1.675
			c-1.363,0-1.783,1.735-1.783,4.243c0,2.623,0.339,4.187,1.691,4.187c1.191,0,1.515-0.949,1.515-2.8v-0.589h-1.625v-1.466h3.316
			V717.027z M763.024,706.049h3.181c1.814,0,2.849,1.031,2.849,2.745c0,1.415-0.677,2.076-1.296,2.304
			c0.796,0.309,1.628,1.039,1.628,2.705c0,2.049-1.302,3.225-3.237,3.225h-3.124V706.049z M765.752,710.497
			c1.275,0,1.657-0.521,1.657-1.547c0-1.006-0.529-1.53-1.56-1.53h-1.151v3.077H765.752z M764.698,715.681h1.276
			c1.087,0,1.699-0.598,1.699-1.902c0-1.247-0.565-1.933-1.92-1.933h-1.056V715.681z M773.993,706.049h1.708v9.513h3.813
			l-0.185,1.466h-5.336V706.049z M785.801,712.015h-3.571v3.535h3.995l-0.216,1.478h-5.464v-10.979h5.428v1.5h-3.743v2.977h3.571
			V712.015z M787.467,706.049h2.717c2.725,0,3.835,1.797,3.835,5.242c0,3.715-1.044,5.736-3.995,5.736h-2.557V706.049z
			 M789.187,715.618h0.807c1.697,0,2.263-1.305,2.263-4.308c0-2.658-0.565-3.829-2.247-3.829h-0.822V715.618z"/>
		<path clip-path="url(#SVGID_10_)" fill="#2A77BC" d="M850.424,772.924h3.18c1.816,0,2.85,1.031,2.85,2.745
			c0,1.415-0.677,2.076-1.296,2.304c0.796,0.309,1.628,1.039,1.628,2.705c0,2.049-1.301,3.225-3.238,3.225h-3.123V772.924z
			 M853.151,777.372c1.275,0,1.657-0.521,1.657-1.547c0-1.006-0.529-1.531-1.56-1.531h-1.151v3.078H853.151z M852.098,782.556h1.276
			c1.087,0,1.698-0.599,1.698-1.902c0-1.247-0.564-1.933-1.919-1.933h-1.056V782.556z M859.896,779.094v4.809H858.2v-10.979h3.192
			c1.943,0,3.018,1.042,3.018,2.943c0,1.605-0.835,2.296-1.439,2.522c0.908,0.386,1.28,1.168,1.28,2.762v0.438
			c0,1.17,0.051,1.726,0.151,2.313h-1.661c-0.157-0.502-0.18-1.408-0.18-2.335v-0.391c0-1.5-0.331-2.083-1.654-2.083H859.896z
			 M859.896,777.695h1.087c1.237,0,1.716-0.594,1.716-1.76c0-1-0.472-1.613-1.549-1.613h-1.254V777.695z M871.255,778.89h-3.571
			v3.535h3.994l-0.215,1.478h-5.464v-10.979h5.428v1.5h-3.743v2.977h3.571V778.89z M874.172,783.902h-1.707l2.579-10.979h2.214
			l2.625,10.979h-1.795l-0.637-3.009h-2.648L874.172,783.902z M877.136,779.404c-0.486-2.305-0.843-3.902-1.007-4.89h-0.044
			c-0.139,0.99-0.521,2.751-0.972,4.89H877.136z M880.912,772.924h2.717c2.725,0,3.835,1.797,3.835,5.242
			c0,3.714-1.044,5.736-3.995,5.736h-2.557V772.924z M882.631,782.493h0.807c1.697,0,2.263-1.305,2.263-4.308
			c0-2.658-0.564-3.829-2.246-3.829h-0.823V782.493z M889.055,772.924h3.181c1.815,0,2.85,1.031,2.85,2.745
			c0,1.415-0.677,2.076-1.296,2.304c0.795,0.309,1.628,1.039,1.628,2.705c0,2.049-1.302,3.225-3.239,3.225h-3.123V772.924z
			 M891.783,777.372c1.275,0,1.657-0.521,1.657-1.547c0-1.006-0.529-1.531-1.56-1.531h-1.151v3.078H891.783z M890.729,782.556h1.276
			c1.086,0,1.698-0.599,1.698-1.902c0-1.247-0.565-1.933-1.919-1.933h-1.056V782.556z M903.45,778.325
			c0,3.922-1.022,5.757-3.501,5.757c-2.329,0-3.407-1.795-3.407-5.766c0-3.886,1.259-5.561,3.485-5.561
			C902.379,772.756,903.45,774.544,903.45,778.325 M898.294,778.296c0,2.784,0.476,4.344,1.699,4.344
			c1.278,0,1.706-1.469,1.706-4.333c0-2.772-0.459-4.097-1.711-4.097C898.757,774.21,898.294,775.664,898.294,778.296
			 M905.818,783.902h-1.708l2.58-10.979h2.214l2.625,10.979h-1.796l-0.636-3.009h-2.647L905.818,783.902z M908.782,779.404
			c-0.487-2.305-0.843-3.902-1.007-4.89h-0.044c-0.14,0.99-0.521,2.751-0.972,4.89H908.782z M914.253,779.094v4.809h-1.696v-10.979
			h3.191c1.943,0,3.019,1.042,3.019,2.943c0,1.605-0.835,2.296-1.439,2.522c0.907,0.386,1.28,1.168,1.28,2.762v0.438
			c0,1.17,0.051,1.726,0.15,2.313h-1.66c-0.157-0.502-0.181-1.408-0.181-2.335v-0.391c0-1.5-0.33-2.083-1.653-2.083H914.253z
			 M914.253,777.695h1.087c1.237,0,1.715-0.594,1.715-1.76c0-1-0.471-1.613-1.548-1.613h-1.254V777.695z M920.354,772.924h2.717
			c2.725,0,3.835,1.797,3.835,5.242c0,3.714-1.044,5.736-3.995,5.736h-2.557V772.924z M922.074,782.493h0.807
			c1.697,0,2.263-1.305,2.263-4.308c0-2.658-0.565-3.829-2.247-3.829h-0.822V782.493z"/>
		<path clip-path="url(#SVGID_10_)" fill="#2A77BC" d="M667.097,683.62c0.093,0.985,0.519,1.822,1.591,1.822
			c1.03,0,1.464-0.615,1.464-1.584c0-0.989-0.452-1.545-1.876-2.227c-1.826-0.869-2.569-1.647-2.569-3.266
			c0-1.674,1.075-2.879,2.993-2.879c2.352,0,2.947,1.62,2.98,3h-1.674c-0.061-0.595-0.224-1.636-1.343-1.636
			c-0.873,0-1.256,0.58-1.256,1.37c0,0.88,0.393,1.292,1.71,1.909c1.952,0.913,2.774,1.808,2.774,3.575
			c0,1.728-1.037,3.099-3.255,3.099c-2.413,0-3.167-1.556-3.241-3.185H667.097z M678.591,681.617h-3.571v3.535h3.994l-0.216,1.478
			h-5.464v-10.978h5.428v1.5h-3.742v2.976h3.571V681.617z M680.255,686.63v-10.978h1.977c2.531,6.59,2.964,7.706,3.099,8.222h0.017
			c-0.088-1.372-0.098-3.001-0.098-4.795v-3.427h1.542v10.978h-1.894c-2.62-6.986-3.027-8.098-3.163-8.578h-0.017
			c0.081,1.36,0.086,3.038,0.086,5.009v3.569H680.255z M689.824,683.62c0.093,0.985,0.519,1.822,1.591,1.822
			c1.03,0,1.464-0.615,1.464-1.584c0-0.989-0.452-1.545-1.876-2.227c-1.825-0.869-2.569-1.647-2.569-3.266
			c0-1.674,1.075-2.879,2.994-2.879c2.351,0,2.947,1.62,2.979,3h-1.674c-0.061-0.595-0.223-1.636-1.343-1.636
			c-0.873,0-1.256,0.58-1.256,1.37c0,0.88,0.393,1.292,1.71,1.909c1.952,0.913,2.774,1.808,2.774,3.575
			c0,1.728-1.037,3.099-3.255,3.099c-2.413,0-3.167-1.556-3.241-3.185H689.824z M702.615,681.053c0,3.922-1.021,5.757-3.5,5.757
			c-2.329,0-3.407-1.795-3.407-5.766c0-3.886,1.259-5.561,3.485-5.561C701.545,675.483,702.615,677.271,702.615,681.053
			 M697.46,681.023c0,2.784,0.476,4.343,1.698,4.343c1.279,0,1.707-1.468,1.707-4.333c0-2.771-0.459-4.096-1.711-4.096
			C697.923,676.938,697.46,678.391,697.46,681.023 M705.929,681.821v4.809h-1.696v-10.978h3.191c1.943,0,3.019,1.042,3.019,2.942
			c0,1.605-0.835,2.296-1.438,2.522c0.906,0.386,1.278,1.168,1.278,2.762v0.438c0,1.169,0.052,1.725,0.151,2.313h-1.66
			c-0.156-0.502-0.18-1.408-0.18-2.335v-0.391c0-1.5-0.331-2.083-1.654-2.083H705.929z M705.929,680.423h1.087
			c1.237,0,1.716-0.594,1.716-1.761c0-0.999-0.472-1.613-1.549-1.613h-1.254V680.423z"/>
	</g>
	<g clip-path="url(#SVGID_2_)">
		<text transform="matrix(1 0 0 1 543.4307 635.5752)"><tspan x="0" y="0" fill="#2A77BC" font-family="'OCRAStd'" font-size="20.2652">3.3</tspan><tspan x="40.854" y="0" fill="#2A77BC" font-family="'OCRAStd'" font-size="20.2652"> </tspan></text>
	</g>
	<g clip-path="url(#SVGID_2_)">
		<text transform="matrix(1 0 0 1 597.8223 635.5752)" fill="#2A77BC" font-family="'OCRAStd'" font-size="20.2652">V</text>
	</g>
	<g clip-path="url(#SVGID_2_)">
		<text transform="matrix(1 0 0 1 543.4307 661.1094)"><tspan x="0" y="0" fill="#2A77BC" font-family="'OCRAStd'" font-size="20.2652">G</tspan><tspan x="13.618" y="0" fill="#2A77BC" font-family="'OCRAStd'" font-size="20.2652">N</tspan></text>
	</g>
	<g clip-path="url(#SVGID_2_)">
		<text transform="matrix(1 0 0 1 570.6265 661.1094)" fill="#2A77BC" font-family="'OCRAStd'" font-size="20.2652">D</text>
	</g>
	<g clip-path="url(#SVGID_2_)">
		<text transform="matrix(1 0 0 1 543.4307 712.1777)"><tspan x="0" y="0" fill="#2A77BC" font-family="'OCRAStd'" font-size="20.2652">4 (I</tspan><tspan x="54.472" y="0" fill="#2A77BC" font-family="'OCRAStd'" font-size="20.2652">O</tspan></text>
	</g>
	<g clip-path="url(#SVGID_2_)">
		<text transform="matrix(1 0 0 1 611.4209 712.1777)" fill="#2A77BC" font-family="'OCRAStd'" font-size="20.2652">)</text>
	</g>
	<g clip-path="url(#SVGID_2_)">
		<text transform="matrix(1 0 0 1 543.4307 737.7119)"><tspan x="0" y="0" fill="#2A77BC" font-family="'OCRAStd'" font-size="20.2652">5 (P</tspan><tspan x="54.472" y="0" fill="#2A77BC" font-family="'OCRAStd'" font-size="20.2652">W</tspan></text>
	</g>
	<g clip-path="url(#SVGID_2_)">
		<text transform="matrix(1 0 0 1 611.4209 737.7119)" fill="#2A77BC" font-family="'OCRAStd'" font-size="20.2652">)</text>
	</g>
	<g clip-path="url(#SVGID_2_)">
		<text transform="matrix(1 0 0 1 543.4307 763.2461)"><tspan x="0" y="0" fill="#2A77BC" font-family="'OCRAStd'" font-size="20.2652">10 (P</tspan><tspan x="68.09" y="0" fill="#2A77BC" font-family="'OCRAStd'" font-size="20.2652">W</tspan></text>
	</g>
	<g clip-path="url(#SVGID_2_)">
		<text transform="matrix(1 0 0 1 625.0186 763.2461)" fill="#2A77BC" font-family="'OCRAStd'" font-size="20.2652">)</text>
	</g>
	<g clip-path="url(#SVGID_2_)">
		<text transform="matrix(1 0 0 1 543.4307 788.7803)"><tspan x="0" y="0" fill="#2A77BC" font-family="'OCRAStd'" font-size="20.2652">16 (P</tspan><tspan x="68.09" y="0" fill="#2A77BC" font-family="'OCRAStd'" font-size="20.2652">W</tspan></text>
	</g>
	<g clip-path="url(#SVGID_2_)">
		<text transform="matrix(1 0 0 1 625.0186 788.7803)" fill="#2A77BC" font-family="'OCRAStd'" font-size="20.2652">)</text>
	</g>
	<g clip-path="url(#SVGID_2_)">
		<text transform="matrix(1 0 0 1 543.4307 814.3145)"><tspan x="0" y="0" fill="#2A77BC" font-family="'OCRAStd'" font-size="20.2652">14 (</tspan><tspan x="54.472" y="0" fill="#2A77BC" font-family="'OCRAStd'" font-size="20.2652">L</tspan></text>
	</g>
	<g clip-path="url(#SVGID_2_)">
		<text transform="matrix(1 0 0 1 611.4209 814.3145)" fill="#2A77BC" font-family="'OCRAStd'" font-size="20.2652">)</text>
	</g>
	<g clip-path="url(#SVGID_2_)">
		<text transform="matrix(1 0 0 1 543.4307 839.8486)"><tspan x="0" y="0" fill="#2A77BC" font-family="'OCRAStd'" font-size="20.2652">12 (</tspan><tspan x="54.472" y="0" fill="#2A77BC" font-family="'OCRAStd'" font-size="20.2652">D</tspan></text>
	</g>
	<g clip-path="url(#SVGID_2_)">
		<text transform="matrix(1 0 0 1 611.4209 839.8486)" fill="#2A77BC" font-family="'OCRAStd'" font-size="20.2652">)</text>
	</g>
	<g clip-path="url(#SVGID_2_)">
		<text transform="matrix(1 0 0 1 543.4307 865.3828)"><tspan x="0" y="0" fill="#2A77BC" font-family="'OCRAStd'" font-size="20.2652">13 (</tspan><tspan x="54.472" y="0" fill="#2A77BC" font-family="'OCRAStd'" font-size="20.2652">C</tspan></text>
	</g>
	<g clip-path="url(#SVGID_2_)">
		<text transform="matrix(1 0 0 1 611.4209 865.3828)" fill="#2A77BC" font-family="'OCRAStd'" font-size="20.2652">)</text>
	</g>
	<g clip-path="url(#SVGID_2_)">
		<text transform="matrix(1 0 0 1 956.8408 619.3633)" fill="#2A77BC" font-family="'OCRAStd'" font-size="20.2652">S</text>
	</g>
	<g clip-path="url(#SVGID_2_)">
		<text transform="matrix(1 0 0 1 970.4385 619.3633)" fill="#2A77BC" font-family="'OCRAStd'" font-size="20.2652">1</text>
	</g>
	<g clip-path="url(#SVGID_2_)">
		<text transform="matrix(1 0 0 1 956.8408 779.458)" fill="#2A77BC" font-family="'OCRAStd'" font-size="20.2652">S</text>
	</g>
	<g clip-path="url(#SVGID_2_)">
		<text transform="matrix(1 0 0 1 970.4385 779.458)" fill="#2A77BC" font-family="'OCRAStd'" font-size="20.2652">3</text>
	</g>
	<g clip-path="url(#SVGID_2_)">
		<text transform="matrix(1 0 0 1 889.9658 726.7686)" fill="#2A77BC" font-family="'OCRAStd'" font-size="20.2652">S</text>
	</g>
	<g clip-path="url(#SVGID_2_)">
		<text transform="matrix(1 0 0 1 903.5635 726.7686)" fill="#2A77BC" font-family="'OCRAStd'" font-size="20.2652">4</text>
	</g>
	<g clip-path="url(#SVGID_2_)">
		<text transform="matrix(1 0 0 1 1023.7158 726.7686)" fill="#2A77BC" font-family="'OCRAStd'" font-size="20.2652">S</text>
	</g>
	<g clip-path="url(#SVGID_2_)">
		<text transform="matrix(1 0 0 1 1037.3145 726.7686)" fill="#2A77BC" font-family="'OCRAStd'" font-size="20.2652">2</text>
	</g>
	<g clip-path="url(#SVGID_2_)">
		<text transform="matrix(1 0 0 1 545.4551 890.9141)"><tspan x="0" y="0" fill="#2A77BC" font-family="'OCRAStd'" font-size="14.1856">0 (12C-</tspan><tspan x="66.728" y="0" fill="#2A77BC" font-family="'OCRAStd'" font-size="14.1856">D</tspan></text>
	</g>
	<g clip-path="url(#SVGID_2_)">
		<text transform="matrix(1 0 0 1 621.6035 890.9141)" fill="#2A77BC" font-family="'OCRAStd'" font-size="14.1856">)</text>
	</g>
	<g clip-path="url(#SVGID_2_)">
		<text transform="matrix(1 0 0 1 545.4551 916.4482)"><tspan x="0" y="0" fill="#2A77BC" font-family="'OCRAStd'" font-size="14.1856">2 (12C-</tspan><tspan x="66.728" y="0" fill="#2A77BC" font-family="'OCRAStd'" font-size="14.1856">D</tspan></text>
	</g>
	<g clip-path="url(#SVGID_2_)">
		<text transform="matrix(1 0 0 1 621.6035 916.4482)" fill="#2A77BC" font-family="'OCRAStd'" font-size="14.1856">)</text>
	</g>
	<g clip-path="url(#SVGID_2_)">
		<text transform="matrix(1 0 0 1 490.4009 945.6279)"><tspan x="0" y="0" fill="#2A77BC" font-family="'OCRAStd'" font-size="14.1856">V + G</tspan><tspan x="47.663" y="0" fill="#2A77BC" font-family="'OCRAStd'" font-size="14.1856">N</tspan></text>
	</g>
	<g clip-path="url(#SVGID_2_)">
		<text transform="matrix(1 0 0 1 547.5122 945.6279)" fill="#2A77BC" font-family="'OCRAStd'" font-size="14.1856">D</text>
	</g>
	<g clip-path="url(#SVGID_2_)">
		<text transform="matrix(1 0 0 1 492.7695 1002.3701)" fill="#2A77BC" font-family="'OCRAStd'" font-size="14.1856">C</text>
	</g>
	<g clip-path="url(#SVGID_2_)">
		<text transform="matrix(1 0 0 1 502.2881 1002.3701)" fill="#2A77BC" font-family="'OCRAStd'" font-size="14.1856">K</text>
	</g>
	<g clip-path="url(#SVGID_2_)">
		<text transform="matrix(1 0 0 1 573.8262 1002.3701)" fill="#2A77BC" font-family="'OCRAStd'" font-size="14.1856">C</text>
	</g>
	<g clip-path="url(#SVGID_2_)">
		<text transform="matrix(1 0 0 1 583.3447 1002.3701)" fill="#2A77BC" font-family="'OCRAStd'" font-size="14.1856">O</text>
	</g>
	<g clip-path="url(#SVGID_2_)">
		<text transform="matrix(1 0 0 1 547.4834 1002.3701)" fill="#2A77BC" font-family="'OCRAStd'" font-size="14.1856">M</text>
	</g>
	<g clip-path="url(#SVGID_2_)">
		<text transform="matrix(1 0 0 1 557.002 1002.3701)" fill="#2A77BC" font-family="'OCRAStd'" font-size="14.1856">I</text>
	</g>
	<g clip-path="url(#SVGID_2_)">
		<text transform="matrix(1 0 0 1 521.1411 1002.3701)" fill="#2A77BC" font-family="'OCRAStd'" font-size="14.1856">M</text>
	</g>
	<g clip-path="url(#SVGID_2_)">
		<text transform="matrix(1 0 0 1 530.6597 1002.3701)" fill="#2A77BC" font-family="'OCRAStd'" font-size="14.1856">O</text>
	</g>
	<g clip-path="url(#SVGID_2_)">
		<defs>
			<rect id="SVGID_11_" width="1210" height="1178"/>
		</defs>
		<clipPath id="SVGID_12_">
			<use xlink:href="#SVGID_11_"  overflow="visible"/>
		</clipPath>
		
			<rect x="1050.811" y="872.696" clip-path="url(#SVGID_12_)" fill="none" stroke="#2C77BC" stroke-width="5.89" stroke-miterlimit="10" width="25.793" height="60.692"/>
		
			<rect x="1076.604" y="878.265" clip-path="url(#SVGID_12_)" fill-rule="evenodd" clip-rule="evenodd" fill="#2C77BC" width="10.822" height="10.823"/>
	</g>
	<g clip-path="url(#SVGID_2_)">
		<text transform="matrix(1 0 0 1 1063.7158 958.0938)" fill="#2C77BC" font-family="'Nunito-ExtraBold'" font-size="28.2715">0</text>
	</g>
	<g clip-path="url(#SVGID_2_)">
		<text transform="matrix(1 0 0 1 1063.7158 860.0762)" fill="#2C77BC" font-family="'Nunito-ExtraBold'" font-size="28.2715">1</text>
	</g>
	<g clip-path="url(#SVGID_2_)">
		<defs>
			<rect id="SVGID_13_" width="1210" height="1178"/>
		</defs>
		<clipPath id="SVGID_14_">
			<use xlink:href="#SVGID_13_"  overflow="visible"/>
		</clipPath>
		<path clip-path="url(#SVGID_14_)" fill="none" stroke="#2A77BC" stroke-width="2.505" stroke-miterlimit="10" d="M510.798,609.493
			h107.068c16.534,0,30.06,13.527,30.06,30.062V895.57c0,16.533-13.525,30.059-30.06,30.059H510.798"/>
		<rect x="533.428" y="664.209" clip-path="url(#SVGID_14_)" fill="#2A77BC" width="113.484" height="26.345"/>
	</g>
	<g clip-path="url(#SVGID_2_)">
		<text transform="matrix(1 0 0 1 575.8535 686.2383)" fill="#FFFFFF" font-family="'OCRAStd'" font-size="21.6255">A</text>
	</g>
	<g clip-path="url(#SVGID_2_)">
		<text transform="matrix(1 0 0 1 590.3643 686.2383)" fill="#FFFFFF" font-family="'OCRAStd'" font-size="21.6255">O</text>
	</g>
	<g clip-path="url(#SVGID_2_)">
		<defs>
			<rect id="SVGID_15_" width="1210" height="1178"/>
		</defs>
		<clipPath id="SVGID_16_">
			<use xlink:href="#SVGID_15_"  overflow="visible"/>
		</clipPath>
		
			<line clip-path="url(#SVGID_16_)" fill="none" stroke="#2A77BC" stroke-width="2.027" stroke-miterlimit="10" x1="532.414" y1="792.894" x2="647.926" y2="792.894"/>
		
			<line clip-path="url(#SVGID_16_)" fill="none" stroke="#2A77BC" stroke-width="2.027" stroke-miterlimit="10" x1="532.414" y1="868.888" x2="647.926" y2="868.888"/>
		<path clip-path="url(#SVGID_16_)" fill="none" stroke="#2C77BC" stroke-width="5.89" stroke-miterlimit="10" d="M712.691,648.198
			c0-8.531-4.422-16.07-11.079-20.467h-26.879c-6.657,4.396-11.079,11.936-11.079,20.467c0,7.675,3.58,14.547,9.146,19.052h30.745
			C709.111,662.745,712.691,655.873,712.691,648.198z"/>
		
			<rect x="757.575" y="520.454" clip-path="url(#SVGID_16_)" fill-rule="evenodd" clip-rule="evenodd" fill="#FF0000" width="26.003" height="38.355"/>
		<rect x="757.575" y="562.71" clip-path="url(#SVGID_16_)" fill="#15394C" width="26.003" height="20.802"/>
		<rect x="507.945" y="613.416" clip-path="url(#SVGID_16_)" fill="#15394C" width="26.003" height="20.802"/>
		<rect x="783.578" y="562.71" clip-path="url(#SVGID_16_)" fill="#15394C" width="26.003" height="20.802"/>
		<rect x="809.581" y="562.71" clip-path="url(#SVGID_16_)" fill="#15394C" width="26.004" height="20.802"/>
		<path clip-path="url(#SVGID_16_)" fill="none" stroke="#15394C" stroke-width="13.002" stroke-miterlimit="10" d="
			M1019.573,315.68c0,0,74.76,267.832,147.567,122.865c65.478-130.368-341.29-69.559-342.59,134.566"/>
		<g opacity="0.3" clip-path="url(#SVGID_16_)">
			<g>
				<defs>
					<rect id="SVGID_17_" x="730.271" y="713.527" width="71.51" height="71.509"/>
				</defs>
				<clipPath id="SVGID_18_">
					<use xlink:href="#SVGID_17_"  overflow="visible"/>
				</clipPath>
				<g clip-path="url(#SVGID_18_)">
					<defs>
						<rect id="SVGID_19_" x="730.271" y="713.527" width="71.51" height="71.509"/>
					</defs>
					<clipPath id="SVGID_20_">
						<use xlink:href="#SVGID_19_"  overflow="visible"/>
					</clipPath>
					
						<rect x="730.272" y="713.527" clip-path="url(#SVGID_20_)" fill-rule="evenodd" clip-rule="evenodd" fill="#FFFF00" width="71.508" height="71.509"/>
				</g>
			</g>
		</g>
		
			<line clip-path="url(#SVGID_16_)" fill="none" stroke="#999999" stroke-width="3.25" stroke-miterlimit="10" x1="1005.008" y1="266.599" x2="1019.231" y2="315.825"/>
		<path clip-path="url(#SVGID_16_)" fill="none" stroke="#15394C" stroke-width="13.002" stroke-miterlimit="10" d="
			M523.548,623.816c0,0,76.709-79.959,141.066-20.802s52.656,237.928,52.656,237.928"/>
		
			<rect x="784.229" y="520.454" clip-path="url(#SVGID_16_)" fill-rule="evenodd" clip-rule="evenodd" fill="#00FF00" width="26.003" height="38.355"/>
		<path clip-path="url(#SVGID_16_)" fill="#15394C" d="M724.421,868.57c0,5.206-4.22,9.427-9.426,9.427s-9.427-4.221-9.427-9.427
			s4.221-9.426,9.427-9.426S724.421,863.364,724.421,868.57"/>
		<path clip-path="url(#SVGID_16_)" fill="#15394C" d="M724.421,893.273c0,5.206-4.22,9.427-9.426,9.427s-9.427-4.221-9.427-9.427
			s4.221-9.426,9.427-9.426S724.421,888.067,724.421,893.273"/>
		<path clip-path="url(#SVGID_16_)" fill="#15394C" d="M724.421,841.918c0,5.205-4.22,9.426-9.426,9.426s-9.427-4.221-9.427-9.426
			c0-5.206,4.221-9.427,9.427-9.427S724.421,836.712,724.421,841.918"/>
		
			<rect x="745.222" y="725.878" clip-path="url(#SVGID_16_)" fill-rule="evenodd" clip-rule="evenodd" fill="#FFFF00" width="46.808" height="46.806"/>
		<path clip-path="url(#SVGID_16_)" fill="none" stroke="#15394C" stroke-width="13.002" stroke-miterlimit="10" d="M770.577,573.11
			c0,0,26.653,278.233-55.907,299.688"/>
		<path clip-path="url(#SVGID_16_)" fill="none" stroke="#15394C" stroke-width="13.002" stroke-miterlimit="10" d="M796.58,573.11
			c0,0,56.557,273.683-81.91,321.138"/>
	</g>
	<g clip-path="url(#SVGID_2_)">
		<text transform="matrix(1 0 0 1 244.9395 239.8179)" fill="#2A77BC" font-family="'OCRAStd'" font-size="14">R G B</text>
	</g>
</g>
</svg>
