<?xml version="1.0" encoding="utf-8"?>
<!-- Generator: Adobe Illustrator 16.0.0, SVG Export Plug-In . SVG Version: 6.00 Build 0)  -->
<!DOCTYPE svg PUBLIC "-//W3C//DTD SVG 1.1//EN" "http://www.w3.org/Graphics/SVG/1.1/DTD/svg11.dtd">
<svg version="1.1" xmlns="http://www.w3.org/2000/svg" xmlns:xlink="http://www.w3.org/1999/xlink" x="0px" y="0px"
	 width="1209.969px" height="1177.965px" viewBox="0 0 1209.969 1177.965" enable-background="new 0 0 1209.969 1177.965"
	 xml:space="preserve">
<g id="Page_1_1_">
</g>
<g id="Page_2_1_">
</g>
<g id="Page_3_1_">
</g>
<g id="Page_4_1_">
</g>
<g id="Page_5_1_">
</g>
<g id="Page_6_1_">
</g>
<g id="Page_7_1_">
</g>
<g id="Page_8_1_">
</g>
<g id="Page_9_1_">
</g>
<g id="Page_10_1_">
</g>
<g id="Page_11_1_">
</g>
<g id="Page_12_1_">
</g>
<g id="Page_13_1_">
</g>
<g id="Page_14_1_">
</g>
<g id="Page_15_1_">
</g>
<g id="Page_16_1_">
</g>
<g id="Page_17_1_">
</g>
<g id="Page_18_1_">
</g>
<g id="Page_19_1_">
</g>
<g id="Page_20_1_">
</g>
<g id="Page_21_1_">
</g>
<g id="Page_22_1_">
</g>
<g id="Page_23_1_">
</g>
<g id="Page_24_1_">
</g>
<g id="Page_25_1_">
</g>
<g id="Page_26_1_">
</g>
<g id="Page_27_1_">
</g>
<g id="Page_28_1_">
</g>
<g id="Page_29_1_">
</g>
<g id="Page_30_1_">
</g>
<g id="Page_31_1_">
</g>
<g id="Page_32_1_">
	<g id="Page_32">
		<g enable-background="new    ">
			<g>
				<defs>
					<rect id="SVGID_71_" y="-0.035" width="1210" height="1178"/>
				</defs>
				<clipPath id="SVGID_2_">
					<use xlink:href="#SVGID_71_"  overflow="visible"/>
				</clipPath>
				
					<rect y="0.065" clip-path="url(#SVGID_2_)" fill-rule="evenodd" clip-rule="evenodd" fill="#FFFFFF" width="1210" height="1177.999"/>
				
					<rect x="356.1" y="263.766" clip-path="url(#SVGID_2_)" fill="none" stroke="#2C77BC" stroke-width="10.2446" stroke-miterlimit="7.6613" width="496.101" height="496"/>
				<path clip-path="url(#SVGID_2_)" fill="none" stroke="#FF9426" stroke-width="5.0657" stroke-miterlimit="7.6613" d="
					M452.2,233.365c-12.9-40.699-51.101-70.3-96.101-70.3"/>
				<path clip-path="url(#SVGID_2_)" fill-rule="evenodd" clip-rule="evenodd" fill="#FF9426" d="M456.8,263.766
					c2.9-15.2,9-34.4,16.7-47L451,229.465l-25.3-4.6C437.1,234.166,449.1,250.365,456.8,263.766z"/>
				<path clip-path="url(#SVGID_2_)" fill="none" stroke="#B7B6B6" stroke-width="5.0657" stroke-miterlimit="7.6613" d="
					M356.1,364.465c55.601,0,100.7-45.1,100.7-100.699"/>
				<path clip-path="url(#SVGID_2_)" fill="#B7B6B6" d="M456.145,382.869v-6.657c1.479,0.691,2.895,1.21,4.246,1.556
					c1.35,0.346,2.686,0.519,4.004,0.519c2.766,0,4.92-0.768,6.465-2.304c1.543-1.535,2.451-3.814,2.725-6.838
					c-1.094,0.805-2.26,1.407-3.497,1.809c-1.239,0.402-2.581,0.604-4.028,0.604c-3.683,0-6.654-1.074-8.912-3.221
					c-2.26-2.146-3.39-4.973-3.39-8.479c0-3.875,1.259-6.979,3.774-9.311c2.518-2.331,5.89-3.498,10.119-3.498
					c4.695,0,8.33,1.585,10.902,4.752c2.573,3.169,3.859,7.646,3.859,13.436c0,5.951-1.504,10.626-4.51,14.027
					c-3.008,3.4-7.133,5.102-12.375,5.102c-1.688,0-3.305-0.125-4.848-0.375C459.136,383.742,457.624,383.368,456.145,382.869z
					 M467.603,365.526c1.624,0,2.847-0.526,3.666-1.58c0.82-1.054,1.23-2.633,1.23-4.739c0-2.091-0.41-3.667-1.23-4.729
					c-0.819-1.061-2.042-1.592-3.666-1.592s-2.847,0.531-3.667,1.592c-0.82,1.062-1.23,2.638-1.23,4.729
					c0,2.106,0.41,3.686,1.23,4.739S465.979,365.526,467.603,365.526z M517.542,365.695c0,5.966-1.286,10.568-3.859,13.809
					c-2.573,3.241-6.224,4.861-10.95,4.861c-4.744,0-8.403-1.62-10.976-4.861c-2.573-3.24-3.859-7.843-3.859-13.809
					c0-5.982,1.286-10.594,3.859-13.834c2.572-3.24,6.231-4.859,10.976-4.859c4.727,0,8.377,1.619,10.95,4.859
					S517.542,359.713,517.542,365.695z M508.256,365.623c0-4.502-0.422-7.674-1.267-9.516s-2.264-2.762-4.257-2.762
					c-1.994,0-3.418,0.92-4.27,2.762c-0.854,1.842-1.279,5.014-1.279,9.516c0,4.551,0.426,7.759,1.279,9.624
					c0.852,1.866,2.275,2.798,4.27,2.798c1.977,0,3.393-0.932,4.244-2.798C507.829,373.382,508.256,370.174,508.256,365.623z
					 M532.315,346.664c1.062,0,2.083,0.205,3.063,0.615s1.857,0.992,2.629,1.748c0.756,0.771,1.33,1.641,1.725,2.605
					s0.592,1.994,0.592,3.088c0,1.076-0.197,2.102-0.592,3.074c-0.395,0.974-0.953,1.822-1.676,2.545
					c-0.771,0.772-1.656,1.363-2.654,1.773c-0.996,0.41-2.041,0.615-3.135,0.615c-2.268,0-4.17-0.768-5.705-2.304
					s-2.303-3.438-2.303-5.704c0-2.268,0.775-4.178,2.327-5.729S530.049,346.664,532.315,346.664z M532.315,350.571
					c-1.157,0-2.139,0.401-2.942,1.206c-0.805,0.805-1.207,1.785-1.207,2.943c0,1.157,0.398,2.131,1.195,2.918
					c0.795,0.788,1.78,1.182,2.954,1.182c1.157,0,2.139-0.398,2.942-1.193c0.805-0.797,1.207-1.766,1.207-2.906
					c0-1.158-0.406-2.139-1.219-2.943S533.457,350.571,532.315,350.571z"/>
				
					<line clip-path="url(#SVGID_2_)" fill="none" stroke="#B7B6B6" stroke-width="5.0657" stroke-miterlimit="10" x1="356.1" y1="254.666" x2="356.2" y2="247.865"/>
				
					<line clip-path="url(#SVGID_2_)" fill="none" stroke="#B7B6B6" stroke-width="5.0657" stroke-miterlimit="10" x1="356.2" y1="241.065" x2="356.2" y2="234.266"/>
				
					<line clip-path="url(#SVGID_2_)" fill="none" stroke="#B7B6B6" stroke-width="5.0657" stroke-miterlimit="10" x1="356.2" y1="227.465" x2="356.2" y2="220.666"/>
				
					<line clip-path="url(#SVGID_2_)" fill="none" stroke="#B7B6B6" stroke-width="5.0657" stroke-miterlimit="10" x1="356.3" y1="213.865" x2="356.3" y2="207.065"/>
				
					<line clip-path="url(#SVGID_2_)" fill="none" stroke="#B7B6B6" stroke-width="5.0657" stroke-miterlimit="10" x1="356.3" y1="200.266" x2="356.3" y2="193.465"/>
				
					<line clip-path="url(#SVGID_2_)" fill="none" stroke="#B7B6B6" stroke-width="5.0657" stroke-miterlimit="10" x1="356.3" y1="186.666" x2="356.4" y2="179.865"/>
				
					<line clip-path="url(#SVGID_2_)" fill="none" stroke="#B7B6B6" stroke-width="5.0657" stroke-miterlimit="10" x1="356.4" y1="173.065" x2="356.4" y2="166.266"/>
				
					<line clip-path="url(#SVGID_2_)" fill="none" stroke="#B7B6B6" stroke-width="5.0657" stroke-miterlimit="10" x1="356.4" y1="159.465" x2="356.4" y2="152.666"/>
				
					<line clip-path="url(#SVGID_2_)" fill="none" stroke="#B7B6B6" stroke-width="5.0657" stroke-miterlimit="10" x1="356.5" y1="145.865" x2="356.5" y2="139.065"/>
				
					<line clip-path="url(#SVGID_2_)" fill="none" stroke="#B7B6B6" stroke-width="5.0657" stroke-miterlimit="10" x1="356.5" y1="132.266" x2="356.5" y2="125.465"/>
				
					<line clip-path="url(#SVGID_2_)" fill="none" stroke="#B7B6B6" stroke-width="5.0657" stroke-miterlimit="10" x1="356.5" y1="118.666" x2="356.6" y2="111.865"/>
				
					<line clip-path="url(#SVGID_2_)" fill="none" stroke="#B7B6B6" stroke-width="5.0657" stroke-miterlimit="10" x1="356.6" y1="105.065" x2="356.6" y2="98.266"/>
				
					<line clip-path="url(#SVGID_2_)" fill="none" stroke="#B7B6B6" stroke-width="5.0657" stroke-miterlimit="10" x1="356.6" y1="91.465" x2="356.6" y2="84.666"/>
				<polygon clip-path="url(#SVGID_2_)" fill-rule="evenodd" clip-rule="evenodd" fill="#B7B6B6" points="356.7,41.865 
					377.3,92.666 356.7,80.565 335.9,92.565 				"/>
				<path clip-path="url(#SVGID_2_)" fill="#FF9426" d="M456.145,185.369v-6.657c1.479,0.691,2.895,1.21,4.246,1.556
					c1.35,0.346,2.686,0.519,4.004,0.519c2.766,0,4.92-0.768,6.465-2.304c1.543-1.535,2.451-3.814,2.725-6.838
					c-1.094,0.805-2.26,1.407-3.497,1.809c-1.239,0.402-2.581,0.604-4.028,0.604c-3.683,0-6.654-1.074-8.912-3.221
					c-2.26-2.146-3.39-4.973-3.39-8.479c0-3.875,1.259-6.979,3.774-9.311c2.518-2.332,5.89-3.498,10.119-3.498
					c4.695,0,8.33,1.584,10.902,4.752c2.573,3.169,3.859,7.646,3.859,13.436c0,5.951-1.504,10.626-4.51,14.027
					c-3.008,3.4-7.133,5.102-12.375,5.102c-1.688,0-3.305-0.125-4.848-0.375C459.136,186.242,457.624,185.868,456.145,185.369z
					 M467.603,168.026c1.624,0,2.847-0.526,3.666-1.58c0.82-1.054,1.23-2.633,1.23-4.739c0-2.091-0.41-3.667-1.23-4.729
					c-0.819-1.061-2.042-1.592-3.666-1.592s-2.847,0.531-3.667,1.592c-0.82,1.062-1.23,2.638-1.23,4.729
					c0,2.106,0.41,3.686,1.23,4.739S465.979,168.026,467.603,168.026z M517.542,168.195c0,5.966-1.286,10.568-3.859,13.809
					c-2.573,3.241-6.224,4.861-10.95,4.861c-4.744,0-8.403-1.62-10.976-4.861c-2.573-3.24-3.859-7.843-3.859-13.809
					c0-5.982,1.286-10.594,3.859-13.834c2.572-3.24,6.231-4.859,10.976-4.859c4.727,0,8.377,1.619,10.95,4.859
					S517.542,162.213,517.542,168.195z M508.256,168.123c0-4.502-0.422-7.674-1.267-9.516s-2.264-2.762-4.257-2.762
					c-1.994,0-3.418,0.92-4.27,2.762c-0.854,1.842-1.279,5.014-1.279,9.516c0,4.551,0.426,7.759,1.279,9.624
					c0.852,1.866,2.275,2.798,4.27,2.798c1.977,0,3.393-0.932,4.244-2.798C507.829,175.882,508.256,172.674,508.256,168.123z
					 M532.315,149.164c1.062,0,2.083,0.205,3.063,0.615s1.857,0.992,2.629,1.748c0.756,0.771,1.33,1.641,1.725,2.605
					s0.592,1.994,0.592,3.088c0,1.076-0.197,2.102-0.592,3.074c-0.395,0.974-0.953,1.822-1.676,2.545
					c-0.771,0.772-1.656,1.363-2.654,1.773c-0.996,0.41-2.041,0.615-3.135,0.615c-2.268,0-4.17-0.768-5.705-2.304
					s-2.303-3.438-2.303-5.704c0-2.268,0.775-4.178,2.327-5.729S530.049,149.164,532.315,149.164z M532.315,153.071
					c-1.157,0-2.139,0.401-2.942,1.206c-0.805,0.805-1.207,1.785-1.207,2.943c0,1.157,0.398,2.131,1.195,2.918
					c0.795,0.788,1.78,1.182,2.954,1.182c1.157,0,2.139-0.398,2.942-1.193c0.805-0.797,1.207-1.766,1.207-2.906
					c0-1.158-0.406-2.139-1.219-2.943S533.457,153.071,532.315,153.071z"/>
			</g>
		</g>
	</g>
</g>
<g id="Page_33_1_">
</g>
<g id="Page_34_1_">
</g>
<g id="Page_35_1_">
</g>
<g id="Page_36_1_">
</g>
<g id="Page_37_1_">
</g>
<g id="Page_38_1_">
</g>
</svg>
