<?xml version="1.0" encoding="utf-8"?>
<!-- Generator: Adobe Illustrator 16.0.0, SVG Export Plug-In . SVG Version: 6.00 Build 0)  -->
<!DOCTYPE svg PUBLIC "-//W3C//DTD SVG 1.1//EN" "http://www.w3.org/Graphics/SVG/1.1/DTD/svg11.dtd">
<svg version="1.1" xmlns="http://www.w3.org/2000/svg" xmlns:xlink="http://www.w3.org/1999/xlink" x="0px" y="0px"
	 width="1209.969px" height="1177.965px" viewBox="0 0 1209.969 1177.965" enable-background="new 0 0 1209.969 1177.965"
	 xml:space="preserve">
<g id="Page_1_1_">
</g>
<g id="Page_2_1_">
</g>
<g id="Page_3_1_">
</g>
<g id="Page_4_1_">
</g>
<g id="Page_5_1_">
</g>
<g id="Page_6_1_">
</g>
<g id="Page_7_1_">
</g>
<g id="Page_8_1_">
</g>
<g id="Page_9_1_">
</g>
<g id="Page_10_1_">
</g>
<g id="Page_11_1_">
</g>
<g id="Page_12_1_">
</g>
<g id="Page_13_1_">
</g>
<g id="Page_14_1_">
</g>
<g id="Page_15_1_">
</g>
<g id="Page_16_1_">
</g>
<g id="Page_17_1_">
</g>
<g id="Page_18_1_">
</g>
<g id="Page_19_1_">
</g>
<g id="Page_20_1_">
</g>
<g id="Page_21_1_">
</g>
<g id="Page_22_1_">
</g>
<g id="Page_23_1_">
</g>
<g id="Page_24_1_">
</g>
<g id="Page_25_1_">
</g>
<g id="Page_26_1_">
</g>
<g id="Page_27_1_">
</g>
<g id="Page_28_1_">
</g>
<g id="Page_29_1_">
</g>
<g id="Page_30_1_">
</g>
<g id="Page_31_1_">
</g>
<g id="Page_32_1_">
</g>
<g id="Page_33_1_">
</g>
<g id="Page_34_1_">
	<g id="Page_34">
		<g enable-background="new    ">
			<g>
				<defs>
					<rect id="SVGID_75_" y="-0.035" width="1210" height="1178"/>
				</defs>
				<clipPath id="SVGID_2_">
					<use xlink:href="#SVGID_75_"  overflow="visible"/>
				</clipPath>
				
					<rect y="0.065" clip-path="url(#SVGID_2_)" fill-rule="evenodd" clip-rule="evenodd" fill="#FFFFFF" width="1210" height="1177.999"/>
				<path clip-path="url(#SVGID_2_)" fill="#B7B6B6" d="M541.389,399.549h8.201v-23.276l-8.418,1.736v-6.319l8.37-1.736h8.828
					v29.596h8.201v6.416h-25.183V399.549z M584.165,399.139h15.847v6.826h-26.171v-6.826l13.146-11.602
					c1.174-1.062,2.043-2.099,2.605-3.111c0.563-1.014,0.845-2.066,0.845-3.16c0-1.689-0.567-3.047-1.7-4.076
					c-1.135-1.029-2.642-1.545-4.523-1.545c-1.447,0-3.031,0.311-4.752,0.93s-3.562,1.539-5.523,2.762v-7.912
					c2.09-0.691,4.156-1.219,6.199-1.58c2.042-0.361,4.044-0.543,6.006-0.543c4.31,0,7.658,0.949,10.047,2.847
					c2.388,1.897,3.582,4.543,3.582,7.937c0,1.961-0.507,3.791-1.52,5.486c-1.014,1.697-3.145,3.969-6.393,6.814L584.165,399.139z
					 M636.374,387.995c0,5.966-1.286,10.569-3.859,13.81s-6.223,4.86-10.951,4.86c-4.743,0-8.402-1.62-10.975-4.86
					c-2.573-3.24-3.859-7.844-3.859-13.81c0-5.981,1.286-10.593,3.859-13.833c2.572-3.24,6.231-4.861,10.975-4.861
					c4.729,0,8.378,1.621,10.951,4.861S636.374,382.014,636.374,387.995z M627.088,387.923c0-4.503-0.423-7.675-1.267-9.517
					c-0.845-1.84-2.264-2.762-4.258-2.762s-3.417,0.922-4.27,2.762c-0.853,1.842-1.278,5.014-1.278,9.517
					c0,4.551,0.426,7.759,1.278,9.624s2.275,2.799,4.27,2.799c1.979,0,3.394-0.934,4.246-2.799
					C626.661,395.682,627.088,392.474,627.088,387.923z M651.049,368.963c1.062,0,2.082,0.205,3.063,0.615
					c0.98,0.41,1.857,0.994,2.629,1.75c0.756,0.771,1.331,1.64,1.725,2.604c0.395,0.965,0.591,1.994,0.591,3.087
					c0,1.078-0.196,2.104-0.591,3.076c-0.394,0.973-0.952,1.82-1.676,2.545c-0.772,0.771-1.657,1.362-2.653,1.772
					c-0.998,0.41-2.043,0.615-3.136,0.615c-2.268,0-4.17-0.769-5.705-2.304c-1.536-1.535-2.304-3.438-2.304-5.705
					s0.775-4.176,2.328-5.729C646.872,369.74,648.781,368.963,651.049,368.963z M651.049,372.871c-1.158,0-2.139,0.402-2.942,1.206
					c-0.805,0.804-1.206,1.785-1.206,2.942c0,1.158,0.397,2.131,1.193,2.919s1.781,1.183,2.955,1.183
					c1.158,0,2.139-0.398,2.942-1.194c0.805-0.796,1.206-1.765,1.206-2.907c0-1.157-0.406-2.139-1.218-2.942
					C653.167,373.273,652.19,372.871,651.049,372.871z"/>
				
					<line clip-path="url(#SVGID_2_)" fill="none" stroke="#B7B6B6" stroke-width="5.0657" stroke-miterlimit="10" x1="469.2" y1="263.166" x2="472.6" y2="257.266"/>
				
					<line clip-path="url(#SVGID_2_)" fill="none" stroke="#B7B6B6" stroke-width="5.0657" stroke-miterlimit="10" x1="476" y1="251.365" x2="479.3" y2="245.465"/>
				
					<line clip-path="url(#SVGID_2_)" fill="none" stroke="#B7B6B6" stroke-width="5.0657" stroke-miterlimit="10" x1="482.7" y1="239.565" x2="486.1" y2="233.666"/>
				
					<line clip-path="url(#SVGID_2_)" fill="none" stroke="#B7B6B6" stroke-width="5.0657" stroke-miterlimit="10" x1="489.5" y1="227.766" x2="492.9" y2="221.865"/>
				
					<line clip-path="url(#SVGID_2_)" fill="none" stroke="#B7B6B6" stroke-width="5.0657" stroke-miterlimit="10" x1="496.2" y1="215.965" x2="499.6" y2="210.065"/>
				
					<line clip-path="url(#SVGID_2_)" fill="none" stroke="#B7B6B6" stroke-width="5.0657" stroke-miterlimit="10" x1="503" y1="204.166" x2="506.4" y2="198.266"/>
				
					<line clip-path="url(#SVGID_2_)" fill="none" stroke="#B7B6B6" stroke-width="5.0657" stroke-miterlimit="10" x1="509.7" y1="192.365" x2="513.1" y2="186.365"/>
				
					<line clip-path="url(#SVGID_2_)" fill="none" stroke="#B7B6B6" stroke-width="5.0657" stroke-miterlimit="10" x1="516.5" y1="180.565" x2="519.9" y2="174.666"/>
				
					<line clip-path="url(#SVGID_2_)" fill="none" stroke="#B7B6B6" stroke-width="5.0657" stroke-miterlimit="10" x1="523.2" y1="168.666" x2="526.6" y2="162.766"/>
				
					<line clip-path="url(#SVGID_2_)" fill="none" stroke="#B7B6B6" stroke-width="5.0657" stroke-miterlimit="10" x1="530" y1="156.865" x2="533.4" y2="150.965"/>
				
					<line clip-path="url(#SVGID_2_)" fill="none" stroke="#B7B6B6" stroke-width="5.0657" stroke-miterlimit="10" x1="536.7" y1="145.065" x2="540.1" y2="139.166"/>
				
					<line clip-path="url(#SVGID_2_)" fill="none" stroke="#B7B6B6" stroke-width="5.0657" stroke-miterlimit="10" x1="543.5" y1="133.266" x2="546.9" y2="127.365"/>
				
					<line clip-path="url(#SVGID_2_)" fill="none" stroke="#B7B6B6" stroke-width="5.0657" stroke-miterlimit="10" x1="550.2" y1="121.465" x2="553.6" y2="115.565"/>
				
					<line clip-path="url(#SVGID_2_)" fill="none" stroke="#B7B6B6" stroke-width="5.0657" stroke-miterlimit="10" x1="557" y1="109.666" x2="560.4" y2="103.766"/>
				
					<line clip-path="url(#SVGID_2_)" fill="none" stroke="#B7B6B6" stroke-width="5.0657" stroke-miterlimit="10" x1="563.8" y1="97.865" x2="567.1" y2="91.965"/>
				<polygon clip-path="url(#SVGID_2_)" fill-rule="evenodd" clip-rule="evenodd" fill="#B7B6B6" points="587.3,56.666 
					580.1,110.965 568.1,90.266 544.1,90.365 				"/>
				<polygon clip-path="url(#SVGID_2_)" fill="none" stroke="#2C77BC" stroke-width="10.2446" stroke-miterlimit="7.6613" points="
					744.7,271.065 465.3,271.065 325.6,513.065 465.3,755.064 744.7,755.064 884.4,513.065 				"/>
				<path clip-path="url(#SVGID_2_)" fill="none" stroke="#FF9426" stroke-width="5.0657" stroke-miterlimit="7.6613" d="
					M566.7,235.865c-2.2-6.6-5-13-8.601-19.1c-9.3-16-22.3-28.4-37.3-36.801"/>
				<path clip-path="url(#SVGID_2_)" fill-rule="evenodd" clip-rule="evenodd" fill="#FF9426" d="M571.8,266.166
					c2.7-15.201,8.5-34.5,16-47.201l-22.3,13l-25.4-4.299C551.7,236.865,563.9,252.865,571.8,266.166z"/>
				<path clip-path="url(#SVGID_2_)" fill="none" stroke="#B7B6B6" stroke-width="5.0657" stroke-miterlimit="7.6613" d="
					M420.4,354.365c30.3,17.7,69,19,101.5,0c32.399-18.9,50.3-53.199,49.899-88.199"/>
				<path clip-path="url(#SVGID_2_)" fill="#FF9426" d="M624.056,163.094v6.656c-1.528-0.723-2.967-1.258-4.318-1.604
					c-1.351-0.346-2.669-0.519-3.955-0.519c-2.767,0-4.921,0.769-6.465,2.304s-2.444,3.815-2.701,6.838
					c1.061-0.787,2.21-1.379,3.449-1.772c1.237-0.394,2.589-0.591,4.052-0.591c3.683,0,6.653,1.077,8.913,3.232
					c2.259,2.154,3.389,4.977,3.389,8.467c0,3.859-1.263,6.95-3.787,9.273c-2.524,2.324-5.909,3.486-10.154,3.486
					c-4.68,0-8.302-1.58-10.866-4.74c-2.566-3.16-3.848-7.643-3.848-13.447c0-5.949,1.499-10.625,4.498-14.027
					c2.999-3.4,7.111-5.102,12.338-5.102c1.656,0,3.265,0.129,4.824,0.387S622.527,162.578,624.056,163.094z M612.574,180.389
					c-1.625,0-2.843,0.526-3.655,1.58c-0.812,1.053-1.218,2.633-1.218,4.739s0.406,3.687,1.218,4.739
					c0.813,1.054,2.03,1.58,3.655,1.58c1.64,0,2.866-0.526,3.678-1.58c0.813-1.053,1.219-2.633,1.219-4.739
					s-0.406-3.687-1.219-4.739C615.44,180.915,614.214,180.389,612.574,180.389z M661.042,180.195
					c0,5.966-1.286,10.568-3.859,13.809c-2.573,3.241-6.224,4.861-10.951,4.861c-4.743,0-8.402-1.62-10.975-4.861
					c-2.573-3.24-3.859-7.843-3.859-13.809c0-5.982,1.286-10.594,3.859-13.834c2.572-3.24,6.231-4.859,10.975-4.859
					c4.728,0,8.378,1.619,10.951,4.859S661.042,174.213,661.042,180.195z M651.756,180.123c0-4.502-0.423-7.674-1.267-9.516
					c-0.845-1.842-2.264-2.762-4.258-2.762s-3.417,0.92-4.27,2.762s-1.278,5.014-1.278,9.516c0,4.551,0.426,7.759,1.278,9.624
					c0.853,1.866,2.275,2.798,4.27,2.798c1.979,0,3.394-0.932,4.245-2.798C651.329,187.882,651.756,184.674,651.756,180.123z
					 M675.717,161.164c1.062,0,2.082,0.205,3.063,0.615c0.98,0.41,1.857,0.992,2.629,1.748c0.756,0.771,1.331,1.641,1.725,2.605
					s0.591,1.994,0.591,3.088c0,1.076-0.197,2.102-0.591,3.074c-0.394,0.974-0.952,1.822-1.676,2.545
					c-0.772,0.772-1.657,1.363-2.653,1.773c-0.998,0.41-2.043,0.615-3.136,0.615c-2.268,0-4.17-0.768-5.705-2.304
					c-1.536-1.536-2.304-3.438-2.304-5.704c0-2.268,0.775-4.178,2.328-5.729C671.54,161.939,673.449,161.164,675.717,161.164z
					 M675.717,165.071c-1.158,0-2.139,0.401-2.942,1.206c-0.805,0.805-1.206,1.785-1.206,2.943c0,1.157,0.397,2.131,1.193,2.918
					c0.796,0.788,1.781,1.182,2.955,1.182c1.158,0,2.139-0.398,2.942-1.193c0.805-0.797,1.206-1.766,1.206-2.906
					c0-1.158-0.406-2.139-1.218-2.943C677.835,165.473,676.858,165.071,675.717,165.071z"/>
			</g>
		</g>
	</g>
</g>
<g id="Page_35_1_">
</g>
<g id="Page_36_1_">
</g>
<g id="Page_37_1_">
</g>
<g id="Page_38_1_">
</g>
</svg>
