<?xml version="1.0" encoding="utf-8"?>
<!-- Generator: Adobe Illustrator 16.0.0, SVG Export Plug-In . SVG Version: 6.00 Build 0)  -->
<!DOCTYPE svg PUBLIC "-//W3C//DTD SVG 1.1//EN" "http://www.w3.org/Graphics/SVG/1.1/DTD/svg11.dtd">
<svg version="1.1" id="Layer_1" xmlns="http://www.w3.org/2000/svg" xmlns:xlink="http://www.w3.org/1999/xlink" x="0px" y="0px"
	 width="1210px" height="1178px" viewBox="0 0 1210 1178" enable-background="new 0 0 1210 1178" xml:space="preserve">
<g>
	<defs>
		<rect id="SVGID_1_" y="0.001" width="1210" height="1177.999"/>
	</defs>
	<clipPath id="SVGID_2_">
		<use xlink:href="#SVGID_1_"  overflow="visible"/>
	</clipPath>
</g>
<g>
	<defs>
		<rect id="SVGID_3_" width="1210" height="1178"/>
	</defs>
	<clipPath id="SVGID_4_">
		<use xlink:href="#SVGID_3_"  overflow="visible"/>
	</clipPath>
	<path clip-path="url(#SVGID_4_)" fill="none" stroke="#2C77BC" stroke-width="4.455" stroke-miterlimit="10" d="M903.059,910.934
		H571.215c-41.093,0-74.715-33.622-74.715-74.716V548.27c0-41.094,33.622-74.716,74.715-74.716h331.844
		c41.094,0,74.715,33.622,74.715,74.716v287.948C977.773,877.312,944.152,910.934,903.059,910.934z"/>
	<polygon clip-path="url(#SVGID_4_)" fill="none" stroke="#2C77BC" stroke-width="4.455" stroke-miterlimit="10" points="
		670.412,696.33 670.412,680.171 857.487,681.494 857.487,696.33 881.524,696.33 881.524,819.412 858.532,819.412 858.532,835.089 
		670.412,835.089 670.412,821.502 646.374,821.502 646.374,696.33 	"/>
	<path clip-path="url(#SVGID_4_)" fill-rule="evenodd" clip-rule="evenodd" fill="#2C77BC" d="M670.739,718.843
		c0,1.995-1.617,3.612-3.612,3.612s-3.611-1.617-3.611-3.612s1.616-3.611,3.611-3.611S670.739,716.848,670.739,718.843"/>
	<path clip-path="url(#SVGID_4_)" fill-rule="evenodd" clip-rule="evenodd" fill="#2C77BC" d="M690.248,718.843
		c0,1.995-1.617,3.612-3.612,3.612s-3.612-1.617-3.612-3.612s1.617-3.611,3.612-3.611S690.248,716.848,690.248,718.843"/>
	<path clip-path="url(#SVGID_4_)" fill-rule="evenodd" clip-rule="evenodd" fill="#2C77BC" d="M709.756,718.843
		c0,1.995-1.616,3.612-3.611,3.612s-3.612-1.617-3.612-3.612s1.617-3.611,3.612-3.611S709.756,716.848,709.756,718.843"/>
	<path clip-path="url(#SVGID_4_)" fill-rule="evenodd" clip-rule="evenodd" fill="#2C77BC" d="M729.265,718.843
		c0,1.995-1.616,3.612-3.611,3.612s-3.612-1.617-3.612-3.612s1.617-3.611,3.612-3.611S729.265,716.848,729.265,718.843"/>
	<path clip-path="url(#SVGID_4_)" fill-rule="evenodd" clip-rule="evenodd" fill="#2C77BC" d="M748.773,718.843
		c0,1.995-1.616,3.612-3.611,3.612s-3.612-1.617-3.612-3.612s1.617-3.611,3.612-3.611S748.773,716.848,748.773,718.843"/>
	<path clip-path="url(#SVGID_4_)" fill-rule="evenodd" clip-rule="evenodd" fill="#2C77BC" d="M768.283,718.843
		c0,1.995-1.617,3.612-3.612,3.612s-3.612-1.617-3.612-3.612s1.617-3.611,3.612-3.611S768.283,716.848,768.283,718.843"/>
	<path clip-path="url(#SVGID_4_)" fill-rule="evenodd" clip-rule="evenodd" fill="#2C77BC" d="M787.791,718.843
		c0,1.995-1.616,3.612-3.611,3.612s-3.612-1.617-3.612-3.612s1.617-3.611,3.612-3.611S787.791,716.848,787.791,718.843"/>
	<path clip-path="url(#SVGID_4_)" fill-rule="evenodd" clip-rule="evenodd" fill="#2C77BC" d="M807.3,718.843
		c0,1.995-1.617,3.612-3.612,3.612c-1.994,0-3.611-1.617-3.611-3.612s1.617-3.611,3.611-3.611
		C805.683,715.231,807.3,716.848,807.3,718.843"/>
	<path clip-path="url(#SVGID_4_)" fill-rule="evenodd" clip-rule="evenodd" fill="#2C77BC" d="M826.809,718.843
		c0,1.995-1.617,3.612-3.612,3.612s-3.611-1.617-3.611-3.612s1.616-3.611,3.611-3.611S826.809,716.848,826.809,718.843"/>
	<path clip-path="url(#SVGID_4_)" fill-rule="evenodd" clip-rule="evenodd" fill="#2C77BC" d="M846.317,718.843
		c0,1.995-1.617,3.612-3.612,3.612s-3.611-1.617-3.611-3.612s1.616-3.611,3.611-3.611S846.317,716.848,846.317,718.843"/>
	<path clip-path="url(#SVGID_4_)" fill-rule="evenodd" clip-rule="evenodd" fill="#2C77BC" d="M865.826,718.843
		c0,1.995-1.617,3.612-3.612,3.612s-3.611-1.617-3.611-3.612s1.616-3.611,3.611-3.611S865.826,716.848,865.826,718.843"/>
	<path clip-path="url(#SVGID_4_)" fill-rule="evenodd" clip-rule="evenodd" fill="#2C77BC" d="M670.739,738.59
		c0,1.995-1.617,3.612-3.612,3.612s-3.611-1.617-3.611-3.612s1.616-3.612,3.611-3.612S670.739,736.595,670.739,738.59"/>
	<path clip-path="url(#SVGID_4_)" fill-rule="evenodd" clip-rule="evenodd" fill="#2C77BC" d="M690.248,738.59
		c0,1.995-1.617,3.612-3.612,3.612s-3.612-1.617-3.612-3.612s1.617-3.612,3.612-3.612S690.248,736.595,690.248,738.59"/>
	<path clip-path="url(#SVGID_4_)" fill-rule="evenodd" clip-rule="evenodd" fill="#2C77BC" d="M709.756,738.59
		c0,1.995-1.616,3.612-3.611,3.612s-3.612-1.617-3.612-3.612s1.617-3.612,3.612-3.612S709.756,736.595,709.756,738.59"/>
	<path clip-path="url(#SVGID_4_)" fill-rule="evenodd" clip-rule="evenodd" fill="#2C77BC" d="M729.265,738.59
		c0,1.995-1.616,3.612-3.611,3.612s-3.612-1.617-3.612-3.612s1.617-3.612,3.612-3.612S729.265,736.595,729.265,738.59"/>
	<path clip-path="url(#SVGID_4_)" fill-rule="evenodd" clip-rule="evenodd" fill="#2C77BC" d="M748.773,738.59
		c0,1.995-1.616,3.612-3.611,3.612s-3.612-1.617-3.612-3.612s1.617-3.612,3.612-3.612S748.773,736.595,748.773,738.59"/>
	<path clip-path="url(#SVGID_4_)" fill-rule="evenodd" clip-rule="evenodd" fill="#2C77BC" d="M768.283,738.59
		c0,1.995-1.617,3.612-3.612,3.612s-3.612-1.617-3.612-3.612s1.617-3.612,3.612-3.612S768.283,736.595,768.283,738.59"/>
	<path clip-path="url(#SVGID_4_)" fill-rule="evenodd" clip-rule="evenodd" fill="#2C77BC" d="M787.791,738.59
		c0,1.995-1.616,3.612-3.611,3.612s-3.612-1.617-3.612-3.612s1.617-3.612,3.612-3.612S787.791,736.595,787.791,738.59"/>
	<path clip-path="url(#SVGID_4_)" fill-rule="evenodd" clip-rule="evenodd" fill="#2C77BC" d="M807.3,738.59
		c0,1.995-1.617,3.612-3.612,3.612c-1.994,0-3.611-1.617-3.611-3.612s1.617-3.612,3.611-3.612
		C805.683,734.978,807.3,736.595,807.3,738.59"/>
	<path clip-path="url(#SVGID_4_)" fill-rule="evenodd" clip-rule="evenodd" fill="#2C77BC" d="M826.809,738.59
		c0,1.995-1.617,3.612-3.612,3.612s-3.611-1.617-3.611-3.612s1.616-3.612,3.611-3.612S826.809,736.595,826.809,738.59"/>
	<path clip-path="url(#SVGID_4_)" fill-rule="evenodd" clip-rule="evenodd" fill="#2C77BC" d="M846.317,738.59
		c0,1.995-1.617,3.612-3.612,3.612s-3.611-1.617-3.611-3.612s1.616-3.612,3.611-3.612S846.317,736.595,846.317,738.59"/>
	<path clip-path="url(#SVGID_4_)" fill-rule="evenodd" clip-rule="evenodd" fill="#2C77BC" d="M865.826,738.59
		c0,1.995-1.617,3.612-3.612,3.612s-3.611-1.617-3.611-3.612s1.616-3.612,3.611-3.612S865.826,736.595,865.826,738.59"/>
	<path clip-path="url(#SVGID_4_)" fill-rule="evenodd" clip-rule="evenodd" fill="#2C77BC" d="M670.739,758.337
		c0,1.995-1.617,3.612-3.612,3.612s-3.611-1.617-3.611-3.612s1.616-3.612,3.611-3.612S670.739,756.342,670.739,758.337"/>
	<path clip-path="url(#SVGID_4_)" fill-rule="evenodd" clip-rule="evenodd" fill="#2C77BC" d="M690.248,758.337
		c0,1.995-1.617,3.612-3.612,3.612s-3.612-1.617-3.612-3.612s1.617-3.612,3.612-3.612S690.248,756.342,690.248,758.337"/>
	<path clip-path="url(#SVGID_4_)" fill-rule="evenodd" clip-rule="evenodd" fill="#2C77BC" d="M709.756,758.337
		c0,1.995-1.616,3.612-3.611,3.612s-3.612-1.617-3.612-3.612s1.617-3.612,3.612-3.612S709.756,756.342,709.756,758.337"/>
	<path clip-path="url(#SVGID_4_)" fill-rule="evenodd" clip-rule="evenodd" fill="#2C77BC" d="M729.265,758.337
		c0,1.995-1.616,3.612-3.611,3.612s-3.612-1.617-3.612-3.612s1.617-3.612,3.612-3.612S729.265,756.342,729.265,758.337"/>
	<path clip-path="url(#SVGID_4_)" fill-rule="evenodd" clip-rule="evenodd" fill="#2C77BC" d="M748.773,758.337
		c0,1.995-1.616,3.612-3.611,3.612s-3.612-1.617-3.612-3.612s1.617-3.612,3.612-3.612S748.773,756.342,748.773,758.337"/>
	<path clip-path="url(#SVGID_4_)" fill-rule="evenodd" clip-rule="evenodd" fill="#2C77BC" d="M768.283,758.337
		c0,1.995-1.617,3.612-3.612,3.612s-3.612-1.617-3.612-3.612s1.617-3.612,3.612-3.612S768.283,756.342,768.283,758.337"/>
	<path clip-path="url(#SVGID_4_)" fill-rule="evenodd" clip-rule="evenodd" fill="#2C77BC" d="M787.791,758.337
		c0,1.995-1.616,3.612-3.611,3.612s-3.612-1.617-3.612-3.612s1.617-3.612,3.612-3.612S787.791,756.342,787.791,758.337"/>
	<path clip-path="url(#SVGID_4_)" fill-rule="evenodd" clip-rule="evenodd" fill="#2C77BC" d="M807.3,758.337
		c0,1.995-1.617,3.612-3.612,3.612c-1.994,0-3.611-1.617-3.611-3.612s1.617-3.612,3.611-3.612
		C805.683,754.725,807.3,756.342,807.3,758.337"/>
	<path clip-path="url(#SVGID_4_)" fill-rule="evenodd" clip-rule="evenodd" fill="#2C77BC" d="M826.809,758.337
		c0,1.995-1.617,3.612-3.612,3.612s-3.611-1.617-3.611-3.612s1.616-3.612,3.611-3.612S826.809,756.342,826.809,758.337"/>
	<path clip-path="url(#SVGID_4_)" fill-rule="evenodd" clip-rule="evenodd" fill="#2C77BC" d="M846.317,758.337
		c0,1.995-1.617,3.612-3.612,3.612s-3.611-1.617-3.611-3.612s1.616-3.612,3.611-3.612S846.317,756.342,846.317,758.337"/>
	<path clip-path="url(#SVGID_4_)" fill-rule="evenodd" clip-rule="evenodd" fill="#2C77BC" d="M865.826,758.337
		c0,1.995-1.617,3.612-3.612,3.612s-3.611-1.617-3.611-3.612s1.616-3.612,3.611-3.612S865.826,756.342,865.826,758.337"/>
	<path clip-path="url(#SVGID_4_)" fill-rule="evenodd" clip-rule="evenodd" fill="#2C77BC" d="M670.739,778.084
		c0,1.995-1.617,3.611-3.612,3.611s-3.611-1.616-3.611-3.611s1.616-3.612,3.611-3.612S670.739,776.089,670.739,778.084"/>
	<path clip-path="url(#SVGID_4_)" fill-rule="evenodd" clip-rule="evenodd" fill="#2C77BC" d="M690.248,778.084
		c0,1.995-1.617,3.611-3.612,3.611s-3.612-1.616-3.612-3.611s1.617-3.612,3.612-3.612S690.248,776.089,690.248,778.084"/>
	<path clip-path="url(#SVGID_4_)" fill-rule="evenodd" clip-rule="evenodd" fill="#2C77BC" d="M709.756,778.084
		c0,1.995-1.616,3.611-3.611,3.611s-3.612-1.616-3.612-3.611s1.617-3.612,3.612-3.612S709.756,776.089,709.756,778.084"/>
	<path clip-path="url(#SVGID_4_)" fill-rule="evenodd" clip-rule="evenodd" fill="#2C77BC" d="M729.265,778.084
		c0,1.995-1.616,3.611-3.611,3.611s-3.612-1.616-3.612-3.611s1.617-3.612,3.612-3.612S729.265,776.089,729.265,778.084"/>
	<path clip-path="url(#SVGID_4_)" fill-rule="evenodd" clip-rule="evenodd" fill="#2C77BC" d="M748.773,778.084
		c0,1.995-1.616,3.611-3.611,3.611s-3.612-1.616-3.612-3.611s1.617-3.612,3.612-3.612S748.773,776.089,748.773,778.084"/>
	<path clip-path="url(#SVGID_4_)" fill-rule="evenodd" clip-rule="evenodd" fill="#2C77BC" d="M768.283,778.084
		c0,1.995-1.617,3.611-3.612,3.611s-3.612-1.616-3.612-3.611s1.617-3.612,3.612-3.612S768.283,776.089,768.283,778.084"/>
	<path clip-path="url(#SVGID_4_)" fill-rule="evenodd" clip-rule="evenodd" fill="#2C77BC" d="M787.791,778.084
		c0,1.995-1.616,3.611-3.611,3.611s-3.612-1.616-3.612-3.611s1.617-3.612,3.612-3.612S787.791,776.089,787.791,778.084"/>
	<path clip-path="url(#SVGID_4_)" fill-rule="evenodd" clip-rule="evenodd" fill="#2C77BC" d="M807.3,778.084
		c0,1.995-1.617,3.611-3.612,3.611c-1.994,0-3.611-1.616-3.611-3.611s1.617-3.612,3.611-3.612
		C805.683,774.472,807.3,776.089,807.3,778.084"/>
	<path clip-path="url(#SVGID_4_)" fill-rule="evenodd" clip-rule="evenodd" fill="#2C77BC" d="M826.809,778.084
		c0,1.995-1.617,3.611-3.612,3.611s-3.611-1.616-3.611-3.611s1.616-3.612,3.611-3.612S826.809,776.089,826.809,778.084"/>
	<path clip-path="url(#SVGID_4_)" fill-rule="evenodd" clip-rule="evenodd" fill="#2C77BC" d="M846.317,778.084
		c0,1.995-1.617,3.611-3.612,3.611s-3.611-1.616-3.611-3.611s1.616-3.612,3.611-3.612S846.317,776.089,846.317,778.084"/>
	<path clip-path="url(#SVGID_4_)" fill-rule="evenodd" clip-rule="evenodd" fill="#2C77BC" d="M865.826,778.084
		c0,1.995-1.617,3.611-3.612,3.611s-3.611-1.616-3.611-3.611s1.616-3.612,3.611-3.612S865.826,776.089,865.826,778.084"/>
	<path clip-path="url(#SVGID_4_)" fill-rule="evenodd" clip-rule="evenodd" fill="#2C77BC" d="M670.739,797.831
		c0,1.994-1.617,3.611-3.612,3.611s-3.611-1.617-3.611-3.611c0-1.995,1.616-3.612,3.611-3.612S670.739,795.836,670.739,797.831"/>
	<path clip-path="url(#SVGID_4_)" fill-rule="evenodd" clip-rule="evenodd" fill="#2C77BC" d="M690.248,797.831
		c0,1.994-1.617,3.611-3.612,3.611s-3.612-1.617-3.612-3.611c0-1.995,1.617-3.612,3.612-3.612S690.248,795.836,690.248,797.831"/>
	<path clip-path="url(#SVGID_4_)" fill-rule="evenodd" clip-rule="evenodd" fill="#2C77BC" d="M709.756,797.831
		c0,1.994-1.616,3.611-3.611,3.611s-3.612-1.617-3.612-3.611c0-1.995,1.617-3.612,3.612-3.612S709.756,795.836,709.756,797.831"/>
	<path clip-path="url(#SVGID_4_)" fill-rule="evenodd" clip-rule="evenodd" fill="#2C77BC" d="M729.265,797.831
		c0,1.994-1.616,3.611-3.611,3.611s-3.612-1.617-3.612-3.611c0-1.995,1.617-3.612,3.612-3.612S729.265,795.836,729.265,797.831"/>
	<path clip-path="url(#SVGID_4_)" fill-rule="evenodd" clip-rule="evenodd" fill="#2C77BC" d="M748.773,797.831
		c0,1.994-1.616,3.611-3.611,3.611s-3.612-1.617-3.612-3.611c0-1.995,1.617-3.612,3.612-3.612S748.773,795.836,748.773,797.831"/>
	<path clip-path="url(#SVGID_4_)" fill-rule="evenodd" clip-rule="evenodd" fill="#2C77BC" d="M768.283,797.831
		c0,1.994-1.617,3.611-3.612,3.611s-3.612-1.617-3.612-3.611c0-1.995,1.617-3.612,3.612-3.612S768.283,795.836,768.283,797.831"/>
	<path clip-path="url(#SVGID_4_)" fill-rule="evenodd" clip-rule="evenodd" fill="#2C77BC" d="M787.791,797.831
		c0,1.994-1.616,3.611-3.611,3.611s-3.612-1.617-3.612-3.611c0-1.995,1.617-3.612,3.612-3.612S787.791,795.836,787.791,797.831"/>
	<path clip-path="url(#SVGID_4_)" fill-rule="evenodd" clip-rule="evenodd" fill="#2C77BC" d="M807.3,797.831
		c0,1.994-1.617,3.611-3.612,3.611c-1.994,0-3.611-1.617-3.611-3.611c0-1.995,1.617-3.612,3.611-3.612
		C805.683,794.219,807.3,795.836,807.3,797.831"/>
	<path clip-path="url(#SVGID_4_)" fill-rule="evenodd" clip-rule="evenodd" fill="#2C77BC" d="M826.809,797.831
		c0,1.994-1.617,3.611-3.612,3.611s-3.611-1.617-3.611-3.611c0-1.995,1.616-3.612,3.611-3.612S826.809,795.836,826.809,797.831"/>
	<path clip-path="url(#SVGID_4_)" fill-rule="evenodd" clip-rule="evenodd" fill="#2C77BC" d="M846.317,797.831
		c0,1.994-1.617,3.611-3.612,3.611s-3.611-1.617-3.611-3.611c0-1.995,1.616-3.612,3.611-3.612S846.317,795.836,846.317,797.831"/>
	<path clip-path="url(#SVGID_4_)" fill-rule="evenodd" clip-rule="evenodd" fill="#2C77BC" d="M865.826,797.831
		c0,1.994-1.617,3.611-3.612,3.611s-3.611-1.617-3.611-3.611c0-1.995,1.616-3.612,3.611-3.612S865.826,795.836,865.826,797.831"/>
	
		<rect x="532.98" y="545.297" clip-path="url(#SVGID_4_)" fill="none" stroke="#2C77BC" stroke-width="4.455" stroke-miterlimit="10" width="15.677" height="234.799"/>
	
		<rect x="532.98" y="507.579" clip-path="url(#SVGID_4_)" fill="none" stroke="#2C77BC" stroke-width="4.107" stroke-miterlimit="10" width="117.521" height="15.677"/>
	
		<rect x="518.087" y="845.875" clip-path="url(#SVGID_4_)" fill="none" stroke="#2C77BC" stroke-width="4.455" stroke-miterlimit="10" width="78.122" height="15.677"/>
	
		<rect x="699.588" y="507.579" clip-path="url(#SVGID_4_)" fill="none" stroke="#2C77BC" stroke-width="4.455" stroke-miterlimit="10" width="156.244" height="15.677"/>
	
		<rect x="709.756" y="631.351" clip-path="url(#SVGID_4_)" fill="none" stroke="#2C77BC" stroke-width="4.455" stroke-miterlimit="10" width="35.405" height="35.405"/>
	
		<rect x="810.912" y="596.621" clip-path="url(#SVGID_4_)" fill="none" stroke="#2C77BC" stroke-width="4.455" stroke-miterlimit="10" width="35.405" height="17.703"/>
	
		<rect x="862.214" y="557.267" clip-path="url(#SVGID_4_)" fill="none" stroke="#2C77BC" stroke-width="4.455" stroke-miterlimit="10" width="35.405" height="17.703"/>
	
		<rect x="862.214" y="635.983" clip-path="url(#SVGID_4_)" fill="none" stroke="#2C77BC" stroke-width="4.455" stroke-miterlimit="10" width="35.405" height="17.702"/>
	
		<rect x="610.58" y="848.069" clip-path="url(#SVGID_4_)" fill="none" stroke="#2C77BC" stroke-width="4.455" stroke-miterlimit="10" width="106.601" height="40.98"/>
	
		<rect x="751.597" y="848.069" clip-path="url(#SVGID_4_)" fill="none" stroke="#2C77BC" stroke-width="4.455" stroke-miterlimit="10" width="106.602" height="40.98"/>
	
		<rect x="911.243" y="596.621" clip-path="url(#SVGID_4_)" fill="none" stroke="#2C77BC" stroke-width="4.455" stroke-miterlimit="10" width="35.405" height="17.703"/>
	
		<rect x="625.251" y="870.76" clip-path="url(#SVGID_4_)" fill-rule="evenodd" clip-rule="evenodd" fill="#2C77BC" width="4.703" height="4.703"/>
	
		<rect x="643.278" y="870.76" clip-path="url(#SVGID_4_)" fill-rule="evenodd" clip-rule="evenodd" fill="#2C77BC" width="4.703" height="4.703"/>
	
		<rect x="661.307" y="870.76" clip-path="url(#SVGID_4_)" fill-rule="evenodd" clip-rule="evenodd" fill="#2C77BC" width="4.703" height="4.703"/>
	
		<rect x="679.335" y="870.76" clip-path="url(#SVGID_4_)" fill-rule="evenodd" clip-rule="evenodd" fill="#2C77BC" width="4.703" height="4.703"/>
	
		<rect x="697.363" y="870.76" clip-path="url(#SVGID_4_)" fill-rule="evenodd" clip-rule="evenodd" fill="#2C77BC" width="4.703" height="4.703"/>
	
		<rect x="766.084" y="870.76" clip-path="url(#SVGID_4_)" fill-rule="evenodd" clip-rule="evenodd" fill="#2C77BC" width="4.703" height="4.703"/>
	
		<rect x="784.112" y="870.76" clip-path="url(#SVGID_4_)" fill-rule="evenodd" clip-rule="evenodd" fill="#2C77BC" width="4.703" height="4.703"/>
	
		<rect x="802.14" y="870.76" clip-path="url(#SVGID_4_)" fill-rule="evenodd" clip-rule="evenodd" fill="#2C77BC" width="4.703" height="4.703"/>
	
		<rect x="820.168" y="870.76" clip-path="url(#SVGID_4_)" fill-rule="evenodd" clip-rule="evenodd" fill="#2C77BC" width="4.703" height="4.703"/>
	
		<rect x="838.196" y="870.76" clip-path="url(#SVGID_4_)" fill-rule="evenodd" clip-rule="evenodd" fill="#2C77BC" width="4.703" height="4.703"/>
	
		<rect x="878.781" y="850.833" clip-path="url(#SVGID_4_)" fill-rule="evenodd" clip-rule="evenodd" fill="#2C77BC" width="4.703" height="4.703"/>
	
		<rect x="899.875" y="850.833" clip-path="url(#SVGID_4_)" fill-rule="evenodd" clip-rule="evenodd" fill="#2C77BC" width="4.703" height="4.703"/>
	
		<rect x="524.44" y="810.98" clip-path="url(#SVGID_4_)" fill-rule="evenodd" clip-rule="evenodd" fill="#2C77BC" width="4.703" height="4.702"/>
	
		<rect x="545.533" y="810.98" clip-path="url(#SVGID_4_)" fill-rule="evenodd" clip-rule="evenodd" fill="#2C77BC" width="4.703" height="4.702"/>
	
		<rect x="919.436" y="850.833" clip-path="url(#SVGID_4_)" fill-rule="evenodd" clip-rule="evenodd" fill="#2C77BC" width="4.703" height="4.703"/>
	
		<line clip-path="url(#SVGID_4_)" fill="none" stroke="#2C77BC" stroke-width="4.455" stroke-miterlimit="10" x1="537.618" y1="845.875" x2="537.618" y2="861.552"/>
	
		<line clip-path="url(#SVGID_4_)" fill="none" stroke="#2C77BC" stroke-width="4.455" stroke-miterlimit="10" x1="557.148" y1="845.875" x2="557.148" y2="861.552"/>
	
		<line clip-path="url(#SVGID_4_)" fill="none" stroke="#2C77BC" stroke-width="4.455" stroke-miterlimit="10" x1="576.679" y1="845.875" x2="576.679" y2="861.552"/>
	
		<rect x="872.168" y="845.875" clip-path="url(#SVGID_4_)" fill="none" stroke="#2C77BC" stroke-width="3.866" stroke-miterlimit="10" width="58.839" height="15.677"/>
	
		<line clip-path="url(#SVGID_4_)" fill="none" stroke="#2C77BC" stroke-width="4.455" stroke-miterlimit="10" x1="891.698" y1="845.875" x2="891.698" y2="861.552"/>
	
		<line clip-path="url(#SVGID_4_)" fill="none" stroke="#2C77BC" stroke-width="4.455" stroke-miterlimit="10" x1="911.229" y1="845.875" x2="911.229" y2="861.552"/>
	
		<rect x="517.334" y="804.898" clip-path="url(#SVGID_4_)" fill="none" stroke="#2C77BC" stroke-width="4.455" stroke-miterlimit="10" width="39.061" height="15.677"/>
	
		<line clip-path="url(#SVGID_4_)" fill="none" stroke="#2C77BC" stroke-width="4.455" stroke-miterlimit="10" x1="536.865" y1="804.898" x2="536.865" y2="820.575"/>
	
		<line clip-path="url(#SVGID_4_)" fill="none" stroke="#2C77BC" stroke-width="4.455" stroke-miterlimit="10" x1="548.657" y1="760.632" x2="532.979" y2="760.632"/>
	
		<line clip-path="url(#SVGID_4_)" fill="none" stroke="#2C77BC" stroke-width="4.455" stroke-miterlimit="10" x1="548.657" y1="740.603" x2="532.979" y2="740.603"/>
	
		<line clip-path="url(#SVGID_4_)" fill="none" stroke="#2C77BC" stroke-width="4.455" stroke-miterlimit="10" x1="548.657" y1="721.072" x2="532.979" y2="721.072"/>
	
		<line clip-path="url(#SVGID_4_)" fill="none" stroke="#2C77BC" stroke-width="4.455" stroke-miterlimit="10" x1="548.657" y1="701.542" x2="532.979" y2="701.542"/>
	
		<line clip-path="url(#SVGID_4_)" fill="none" stroke="#2C77BC" stroke-width="4.455" stroke-miterlimit="10" x1="548.657" y1="682.011" x2="532.979" y2="682.011"/>
	
		<line clip-path="url(#SVGID_4_)" fill="none" stroke="#2C77BC" stroke-width="4.455" stroke-miterlimit="10" x1="548.657" y1="662.48" x2="532.979" y2="662.48"/>
	
		<line clip-path="url(#SVGID_4_)" fill="none" stroke="#2C77BC" stroke-width="4.455" stroke-miterlimit="10" x1="548.657" y1="642.95" x2="532.979" y2="642.95"/>
	
		<line clip-path="url(#SVGID_4_)" fill="none" stroke="#2C77BC" stroke-width="4.455" stroke-miterlimit="10" x1="548.657" y1="623.42" x2="532.979" y2="623.42"/>
	
		<line clip-path="url(#SVGID_4_)" fill="none" stroke="#2C77BC" stroke-width="4.455" stroke-miterlimit="10" x1="548.657" y1="603.89" x2="532.979" y2="603.89"/>
	
		<line clip-path="url(#SVGID_4_)" fill="none" stroke="#2C77BC" stroke-width="4.455" stroke-miterlimit="10" x1="548.657" y1="584.359" x2="532.979" y2="584.359"/>
	
		<line clip-path="url(#SVGID_4_)" fill="none" stroke="#2C77BC" stroke-width="4.455" stroke-miterlimit="10" x1="548.657" y1="564.828" x2="532.979" y2="564.828"/>
	
		<line clip-path="url(#SVGID_4_)" fill="none" stroke="#2C77BC" stroke-width="4.455" stroke-miterlimit="10" x1="719.119" y1="523.256" x2="719.119" y2="507.579"/>
	
		<line clip-path="url(#SVGID_4_)" fill="none" stroke="#2C77BC" stroke-width="4.455" stroke-miterlimit="10" x1="630.633" y1="523.256" x2="630.633" y2="507.579"/>
	
		<line clip-path="url(#SVGID_4_)" fill="none" stroke="#2C77BC" stroke-width="4.455" stroke-miterlimit="10" x1="611.103" y1="523.256" x2="611.103" y2="507.579"/>
	
		<line clip-path="url(#SVGID_4_)" fill="none" stroke="#2C77BC" stroke-width="4.455" stroke-miterlimit="10" x1="591.572" y1="523.256" x2="591.572" y2="507.579"/>
	
		<line clip-path="url(#SVGID_4_)" fill="none" stroke="#2C77BC" stroke-width="4.455" stroke-miterlimit="10" x1="572.041" y1="523.256" x2="572.041" y2="507.579"/>
	
		<line clip-path="url(#SVGID_4_)" fill="none" stroke="#2C77BC" stroke-width="4.455" stroke-miterlimit="10" x1="552.511" y1="523.256" x2="552.511" y2="507.579"/>
	
		<line clip-path="url(#SVGID_4_)" fill="none" stroke="#2C77BC" stroke-width="4.455" stroke-miterlimit="10" x1="738.648" y1="523.256" x2="738.648" y2="507.579"/>
	
		<line clip-path="url(#SVGID_4_)" fill="none" stroke="#2C77BC" stroke-width="4.455" stroke-miterlimit="10" x1="758.18" y1="523.256" x2="758.18" y2="507.579"/>
	
		<line clip-path="url(#SVGID_4_)" fill="none" stroke="#2C77BC" stroke-width="4.455" stroke-miterlimit="10" x1="777.71" y1="523.256" x2="777.71" y2="507.579"/>
	
		<line clip-path="url(#SVGID_4_)" fill="none" stroke="#2C77BC" stroke-width="4.455" stroke-miterlimit="10" x1="797.24" y1="523.256" x2="797.24" y2="507.579"/>
	
		<line clip-path="url(#SVGID_4_)" fill="none" stroke="#2C77BC" stroke-width="4.455" stroke-miterlimit="10" x1="816.771" y1="523.256" x2="816.771" y2="507.579"/>
	
		<line clip-path="url(#SVGID_4_)" fill="none" stroke="#2C77BC" stroke-width="4.455" stroke-miterlimit="10" x1="836.301" y1="523.256" x2="836.301" y2="507.579"/>
</g>
<path fill="#2A77BC" d="M571.012,492.74v6.027h-2.126v-13.759h4c2.436,0,3.783,1.306,3.783,3.688c0,2.012-1.046,2.877-1.804,3.162
	c1.137,0.484,1.604,1.464,1.604,3.461v0.548c0,1.467,0.063,2.163,0.189,2.9h-2.082c-0.197-0.629-0.226-1.765-0.226-2.926v-0.49
	c0-1.88-0.414-2.611-2.073-2.611H571.012z M571.012,490.988h1.361c1.551,0,2.15-0.745,2.15-2.207c0-1.253-0.591-2.022-1.941-2.022
	h-1.571V490.988z M586.93,491.777c0,4.916-1.282,7.216-4.388,7.216c-2.919,0-4.27-2.25-4.27-7.226c0-4.871,1.577-6.97,4.368-6.97
	C585.587,484.796,586.93,487.038,586.93,491.777z M580.467,491.74c0,3.49,0.597,5.443,2.129,5.443c1.602,0,2.138-1.84,2.138-5.432
	c0-3.473-0.574-5.132-2.144-5.132C581.047,486.62,580.467,488.441,580.467,491.74z M588.936,485.008h3.986
	c2.275,0,3.571,1.292,3.571,3.44c0,1.773-0.849,2.602-1.625,2.886c0.997,0.388,2.041,1.304,2.041,3.392
	c0,2.567-1.631,4.042-4.058,4.042h-3.915V485.008z M592.355,490.582c1.598,0,2.077-0.652,2.077-1.938
	c0-1.261-0.664-1.918-1.956-1.918h-1.443v3.857H592.355z M591.034,497.078h1.6c1.362,0,2.129-0.749,2.129-2.383
	c0-1.563-0.708-2.424-2.405-2.424h-1.324V497.078z M606.975,491.777c0,4.916-1.282,7.216-4.388,7.216c-2.918,0-4.27-2.25-4.27-7.226
	c0-4.871,1.577-6.97,4.368-6.97C605.631,484.796,606.975,487.038,606.975,491.777z M600.512,491.74c0,3.49,0.597,5.443,2.13,5.443
	c1.602,0,2.137-1.84,2.137-5.432c0-3.473-0.574-5.132-2.144-5.132C601.092,486.62,600.512,488.441,600.512,491.74z M610.522,486.888
	h-2.983v-1.88h8.107v1.88h-2.983v11.879h-2.141V486.888z M622.935,485.008v13.759h-2.141v-13.759H622.935z M625.485,498.767v-13.76
	h2.478c3.172,8.26,3.715,9.658,3.883,10.306h0.021c-0.109-1.72-0.122-3.761-0.122-6.009v-4.297h1.934v13.76h-2.374
	c-3.284-8.755-3.794-10.149-3.965-10.75h-0.021c0.102,1.704,0.107,3.808,0.107,6.277v4.474H625.485z M641.005,498.767h-2.141
	l3.232-13.759h2.775l3.29,13.759h-2.251l-0.797-3.771h-3.318L641.005,498.767z M644.72,493.129c-0.611-2.889-1.058-4.891-1.263-6.13
	h-0.055c-0.175,1.243-0.654,3.45-1.218,6.13H644.72z M661.065,494.829c-0.061,0.731-0.354,4.164-4.006,4.164
	c-3.827,0-4.217-3.586-4.217-7.151c0-4.3,1.221-7.045,4.371-7.045c3.534,0,3.784,3.122,3.833,4.133h-2.124
	c-0.034-0.467-0.085-2.298-1.743-2.298c-1.76,0-2.121,2.258-2.121,5.247c0,2.701,0.279,5.307,2.042,5.307
	c1.593,0,1.766-1.772,1.826-2.357H661.065z M664.055,498.767h-2.141l3.233-13.759h2.774l3.29,13.759h-2.25l-0.798-3.771h-3.317
	L664.055,498.767z M667.77,493.129c-0.61-2.889-1.057-4.891-1.262-6.13h-0.056c-0.174,1.243-0.653,3.45-1.218,6.13H667.77z
	 M672.497,498.767v-13.76h2.478c3.173,8.26,3.715,9.658,3.884,10.306h0.021c-0.11-1.72-0.122-3.761-0.122-6.009v-4.297h1.933v13.76
	h-2.374c-3.284-8.755-3.794-10.149-3.964-10.75h-0.021c0.102,1.704,0.107,3.808,0.107,6.277v4.474H672.497z"/>
<path fill="#2A77BC" d="M640.193,645.626v-1.643c0.408-0.055,0.753-0.096,1.278-0.109c-1.044-0.56-1.504-1.423-1.504-2.74
	c0-2.91,2.734-3.861,7.043-3.861c4.926,0,7.153,1.613,7.153,4.514c0,3.582-3.104,3.791-3.923,3.831V643.5
	c0.532-0.041,2.1-0.157,2.1-1.776c0-1.71-2.175-2.235-5.318-2.235c-3.287,0-5.246,0.425-5.246,2.119
	c0,1.494,1.189,1.898,3.509,1.898h0.737v-2.036h1.838v4.156C647.859,645.626,640.193,645.626,640.193,645.626z M647.184,670.199
	c-4.916,0-7.216-1.282-7.216-4.388c0-2.919,2.249-4.271,7.226-4.271c4.871,0,6.971,1.577,6.971,4.368
	C654.164,668.856,651.922,670.199,647.184,670.199z M653.952,651.807c0,2.234-1.36,3.865-4.003,3.865
	c-2.586,0-4.04-1.475-4.04-4.066v-1.596h-5.716v-2.141h13.759V651.807z M653.952,659.494h-13.759v-2.141h13.759V659.494z
	 M647.22,663.736c-3.489,0-5.443,0.597-5.443,2.13c0,1.602,1.84,2.138,5.432,2.138c3.473,0,5.133-0.574,5.133-2.144
	C652.341,664.317,650.519,663.736,647.22,663.736z M647.647,650.01v1.358c0,1.464,0.744,2.151,2.33,2.151
	c1.425,0,2.223-0.739,2.223-2.006v-1.504H647.647z"/>
<path fill="#2A77BC" d="M654.227,542.571h1.293v7.202h2.887l-0.141,1.11h-4.039V542.571z M660.474,542.571v8.312h-1.293v-8.312
	H660.474z M666.755,550.883h-0.992c-0.033-0.247-0.058-0.455-0.066-0.772c-0.338,0.631-0.859,0.909-1.655,0.909
	c-1.758,0-2.332-1.652-2.332-4.254c0-2.976,0.975-4.321,2.727-4.321c2.163,0,2.289,1.875,2.314,2.37h-1.279
	c-0.025-0.322-0.095-1.268-1.073-1.268c-1.032,0-1.351,1.314-1.351,3.212c0,1.986,0.257,3.169,1.28,3.169
	c0.902,0,1.146-0.718,1.146-2.12v-0.445h-1.229v-1.11h2.511V550.883z M668.107,542.571h1.293v3.362h2.24v-3.362h1.293v8.312h-1.293
	v-3.822h-2.24v3.822h-1.293V542.571z M675.554,543.707h-1.802v-1.136h4.897v1.136h-1.803v7.176h-1.293V543.707z"/>
<path fill="#2A77BC" d="M712.225,620.817v3.641h-1.284v-8.312h2.416c1.472,0,2.285,0.789,2.285,2.228c0,1.216-0.632,1.738-1.09,1.91
	c0.688,0.292,0.97,0.885,0.97,2.091v0.331c0,0.886,0.038,1.307,0.114,1.752h-1.258c-0.119-0.381-0.136-1.066-0.136-1.768v-0.296
	c0-1.136-0.251-1.577-1.253-1.577H712.225z M712.225,619.759h0.822c0.938,0,1.299-0.45,1.299-1.333c0-0.757-0.356-1.221-1.172-1.221
	h-0.949V619.759z M721.654,624.458h-0.992c-0.033-0.247-0.058-0.455-0.066-0.772c-0.338,0.631-0.859,0.908-1.655,0.908
	c-1.758,0-2.332-1.651-2.332-4.254c0-2.976,0.974-4.321,2.727-4.321c2.163,0,2.289,1.875,2.313,2.369h-1.279
	c-0.024-0.321-0.094-1.268-1.072-1.268c-1.033,0-1.351,1.313-1.351,3.212c0,1.986,0.257,3.169,1.28,3.169
	c0.902,0,1.146-0.718,1.146-2.119v-0.445h-1.229v-1.11h2.511V624.458z M722.998,616.146h2.408c1.374,0,2.157,0.78,2.157,2.078
	c0,1.071-0.513,1.571-0.981,1.743c0.602,0.234,1.232,0.788,1.232,2.049c0,1.551-0.985,2.441-2.451,2.441h-2.365V616.146z
	 M725.063,619.514c0.965,0,1.255-0.394,1.255-1.171c0-0.762-0.401-1.159-1.182-1.159h-0.871v2.33H725.063z M724.266,623.438h0.966
	c0.823,0,1.286-0.452,1.286-1.439c0-0.944-0.428-1.464-1.453-1.464h-0.799V623.438z M731.295,616.146h1.293v7.201h2.887l-0.141,1.11
	h-4.039V616.146z M740.229,620.663h-2.704v2.676h3.024l-0.163,1.119h-4.137v-8.312h4.109v1.136h-2.834v2.253h2.704V620.663z
	 M741.485,616.146h2.057c2.063,0,2.903,1.359,2.903,3.969c0,2.812-0.791,4.343-3.025,4.343h-1.935V616.146z M742.786,623.391h0.611
	c1.284,0,1.713-0.988,1.713-3.261c0-2.013-0.428-2.899-1.701-2.899h-0.623V623.391z"/>
<path fill="#2A77BC" d="M789.105,666.729h2.407c1.375,0,2.157,0.78,2.157,2.078c0,1.07-0.513,1.571-0.981,1.743
	c0.603,0.234,1.233,0.787,1.233,2.049c0,1.551-0.985,2.441-2.452,2.441h-2.364V666.729z M791.171,670.097
	c0.965,0,1.254-0.394,1.254-1.171c0-0.762-0.4-1.159-1.181-1.159h-0.872v2.33H791.171z M790.372,674.021h0.967
	c0.822,0,1.286-0.452,1.286-1.439c0-0.944-0.428-1.465-1.453-1.465h-0.8V674.021z M796.271,671.4v3.641h-1.284v-8.312h2.417
	c1.471,0,2.284,0.788,2.284,2.228c0,1.216-0.632,1.738-1.089,1.91c0.687,0.292,0.969,0.885,0.969,2.091v0.331
	c0,0.886,0.038,1.307,0.114,1.752h-1.258c-0.118-0.381-0.136-1.066-0.136-1.769v-0.295c0-1.136-0.25-1.577-1.252-1.577H796.271z
	 M796.271,670.342h0.823c0.937,0,1.299-0.45,1.299-1.333c0-0.757-0.357-1.222-1.173-1.222h-0.949V670.342z M804.865,671.245h-2.703
	v2.677h3.023l-0.163,1.119h-4.137v-8.312h4.109v1.136h-2.833v2.253h2.703V671.245z M807.068,675.041h-1.293l1.953-8.312h1.677
	l1.987,8.312h-1.359l-0.482-2.278h-2.004L807.068,675.041z M809.313,671.635c-0.368-1.744-0.639-2.954-0.763-3.702h-0.032
	c-0.105,0.751-0.396,2.084-0.736,3.702H809.313z M812.166,666.729h2.057c2.063,0,2.903,1.359,2.903,3.969
	c0,2.812-0.79,4.343-3.024,4.343h-1.936V666.729z M813.468,673.974h0.61c1.285,0,1.713-0.988,1.713-3.261
	c0-2.013-0.428-2.899-1.7-2.899h-0.623V673.974z M818.325,666.729h2.408c1.374,0,2.157,0.78,2.157,2.078
	c0,1.07-0.513,1.571-0.981,1.743c0.603,0.234,1.232,0.787,1.232,2.049c0,1.551-0.985,2.441-2.451,2.441h-2.365V666.729z
	 M820.391,670.097c0.966,0,1.255-0.394,1.255-1.171c0-0.762-0.401-1.159-1.181-1.159h-0.872v2.33H820.391z M819.593,674.021h0.966
	c0.823,0,1.287-0.452,1.287-1.439c0-0.944-0.428-1.465-1.453-1.465h-0.8V674.021z M829.22,670.818c0,2.969-0.774,4.358-2.651,4.358
	c-1.763,0-2.579-1.358-2.579-4.365c0-2.941,0.953-4.21,2.639-4.21C828.408,666.602,829.22,667.956,829.22,670.818z M825.315,670.796
	c0,2.108,0.36,3.288,1.286,3.288c0.968,0,1.292-1.111,1.292-3.281c0-2.098-0.347-3.1-1.295-3.1
	C825.666,667.703,825.315,668.803,825.315,670.796z M831.005,675.041h-1.293l1.953-8.312h1.677l1.986,8.312h-1.358l-0.482-2.278
	h-2.004L831.005,675.041z M833.249,671.635c-0.368-1.744-0.639-2.954-0.763-3.702h-0.033c-0.105,0.751-0.395,2.084-0.735,3.702
	H833.249z M837.387,671.4v3.641h-1.284v-8.312h2.417c1.471,0,2.284,0.788,2.284,2.228c0,1.216-0.632,1.738-1.089,1.91
	c0.687,0.292,0.969,0.885,0.969,2.091v0.331c0,0.886,0.038,1.307,0.114,1.752h-1.258c-0.119-0.381-0.136-1.066-0.136-1.769v-0.295
	c0-1.136-0.25-1.577-1.252-1.577H837.387z M837.387,670.342h0.823c0.937,0,1.299-0.45,1.299-1.333c0-0.757-0.357-1.222-1.173-1.222
	h-0.949V670.342z M842.001,666.729h2.057c2.063,0,2.903,1.359,2.903,3.969c0,2.812-0.79,4.343-3.024,4.343h-1.936V666.729z
	 M843.303,673.974h0.61c1.285,0,1.713-0.988,1.713-3.261c0-2.013-0.428-2.899-1.7-2.899h-0.623V673.974z"/>
<path fill="#2A77BC" d="M650.441,599.188c0.069,0.745,0.393,1.378,1.204,1.378c0.78,0,1.108-0.465,1.108-1.199
	c0-0.748-0.342-1.168-1.421-1.685c-1.381-0.658-1.944-1.248-1.944-2.473c0-1.268,0.813-2.179,2.267-2.179
	c1.779,0,2.23,1.226,2.255,2.271h-1.267c-0.046-0.451-0.168-1.239-1.017-1.239c-0.661,0-0.95,0.439-0.95,1.037
	c0,0.666,0.297,0.979,1.294,1.446c1.479,0.69,2.101,1.368,2.101,2.706c0,1.309-0.785,2.346-2.464,2.346
	c-1.827,0-2.397-1.178-2.454-2.41H650.441z M659.138,597.671h-2.704v2.676h3.024l-0.163,1.119h-4.137v-8.312h4.109v1.136h-2.834
	v2.253h2.704V597.671z M660.395,601.466v-8.312h1.496c1.917,4.989,2.244,5.834,2.346,6.225h0.013
	c-0.066-1.038-0.073-2.271-0.073-3.63v-2.595h1.167v8.312h-1.434c-1.983-5.289-2.292-6.131-2.396-6.494h-0.012
	c0.062,1.029,0.064,2.3,0.064,3.792v2.702H660.395z M667.633,599.188c0.07,0.745,0.393,1.378,1.204,1.378
	c0.78,0,1.108-0.465,1.108-1.199c0-0.748-0.342-1.168-1.42-1.685c-1.382-0.658-1.945-1.248-1.945-2.473
	c0-1.268,0.814-2.179,2.267-2.179c1.78,0,2.231,1.226,2.256,2.271h-1.268c-0.045-0.451-0.168-1.239-1.017-1.239
	c-0.66,0-0.949,0.439-0.949,1.037c0,0.666,0.296,0.979,1.293,1.446c1.479,0.69,2.102,1.368,2.102,2.706
	c0,1.309-0.786,2.346-2.465,2.346c-1.827,0-2.397-1.178-2.454-2.41H667.633z M677.313,597.243c0,2.969-0.774,4.358-2.65,4.358
	c-1.763,0-2.579-1.358-2.579-4.365c0-2.941,0.952-4.21,2.638-4.21C676.501,593.026,677.313,594.381,677.313,597.243z
	 M673.409,597.221c0,2.108,0.36,3.288,1.286,3.288c0.968,0,1.291-1.111,1.291-3.28c0-2.099-0.347-3.101-1.295-3.101
	C673.76,594.128,673.409,595.229,673.409,597.221z M679.813,597.825v3.641h-1.284v-8.312h2.416c1.472,0,2.285,0.789,2.285,2.228
	c0,1.216-0.632,1.738-1.089,1.91c0.687,0.292,0.969,0.885,0.969,2.091v0.331c0,0.886,0.038,1.307,0.114,1.752h-1.258
	c-0.119-0.381-0.136-1.066-0.136-1.768v-0.296c0-1.136-0.251-1.577-1.253-1.577H679.813z M679.813,596.767h0.823
	c0.937,0,1.299-0.45,1.299-1.333c0-0.757-0.357-1.221-1.173-1.221h-0.949V596.767z"/>
<text transform="matrix(1 0 0 1 556.9014 562.8486)"><tspan x="0" y="0" fill="#2A77BC" font-family="'OCRAStd'" font-size="15.3282">3.3 </tspan><tspan x="41.14" y="0" fill="#2A77BC" font-family="'OCRAStd'" font-size="15.3282">V</tspan></text>
<text transform="matrix(1 0 0 1 556.9014 582.1621)"><tspan x="0" y="0" fill="#2A77BC" font-family="'OCRAStd'" font-size="15.3282">GN</tspan><tspan x="20.57" y="0" fill="#2A77BC" font-family="'OCRAStd'" font-size="15.3282">D</tspan></text>
<text transform="matrix(1 0 0 1 556.9014 620.7891)"><tspan x="0" y="0" fill="#2A77BC" font-family="'OCRAStd'" font-size="15.3282">4 (IO</tspan><tspan x="51.425" y="0" fill="#2A77BC" font-family="'OCRAStd'" font-size="15.3282">)</tspan></text>
<text transform="matrix(1 0 0 1 556.9014 640.1025)"><tspan x="0" y="0" fill="#2A77BC" font-family="'OCRAStd'" font-size="15.3282">5 (PW</tspan><tspan x="51.425" y="0" fill="#2A77BC" font-family="'OCRAStd'" font-size="15.3282">)</tspan></text>
<text transform="matrix(1 0 0 1 556.9014 659.416)"><tspan x="0" y="0" fill="#2A77BC" font-family="'OCRAStd'" font-size="15.3282">10 (PW</tspan><tspan x="61.71" y="0" fill="#2A77BC" font-family="'OCRAStd'" font-size="15.3282">)</tspan></text>
<text transform="matrix(1 0 0 1 556.9014 678.7295)"><tspan x="0" y="0" fill="#2A77BC" font-family="'OCRAStd'" font-size="15.3282">16 (PW</tspan><tspan x="61.71" y="0" fill="#2A77BC" font-family="'OCRAStd'" font-size="15.3282">)</tspan></text>
<text transform="matrix(1 0 0 1 556.9014 698.043)"><tspan x="0" y="0" fill="#2A77BC" font-family="'OCRAStd'" font-size="15.3282">14 (L</tspan><tspan x="51.425" y="0" fill="#2A77BC" font-family="'OCRAStd'" font-size="15.3282">)</tspan></text>
<text transform="matrix(1 0 0 1 556.9014 717.3564)"><tspan x="0" y="0" fill="#2A77BC" font-family="'OCRAStd'" font-size="15.3282">12 (D</tspan><tspan x="51.425" y="0" fill="#2A77BC" font-family="'OCRAStd'" font-size="15.3282">)</tspan></text>
<text transform="matrix(1 0 0 1 556.9014 736.6699)"><tspan x="0" y="0" fill="#2A77BC" font-family="'OCRAStd'" font-size="15.3282">13 (C</tspan><tspan x="51.425" y="0" fill="#2A77BC" font-family="'OCRAStd'" font-size="15.3282">)</tspan></text>
<text transform="matrix(1 0 0 1 869.5967 550.5859)"><tspan x="0" y="0" fill="#2A77BC" font-family="'OCRAStd'" font-size="15.3282">S</tspan><tspan x="10.285" y="0" fill="#2A77BC" font-family="'OCRAStd'" font-size="15.3282">1</tspan></text>
<text transform="matrix(1 0 0 1 869.5967 671.6787)"><tspan x="0" y="0" fill="#2A77BC" font-family="'OCRAStd'" font-size="15.3282">S</tspan><tspan x="10.285" y="0" fill="#2A77BC" font-family="'OCRAStd'" font-size="15.3282">3</tspan></text>
<text transform="matrix(1 0 0 1 819.0137 631.8252)"><tspan x="0" y="0" fill="#2A77BC" font-family="'OCRAStd'" font-size="15.3282">S</tspan><tspan x="10.285" y="0" fill="#2A77BC" font-family="'OCRAStd'" font-size="15.3282">4</tspan></text>
<text transform="matrix(1 0 0 1 920.1797 631.8252)"><tspan x="0" y="0" fill="#2A77BC" font-family="'OCRAStd'" font-size="15.3282">S</tspan><tspan x="10.285" y="0" fill="#2A77BC" font-family="'OCRAStd'" font-size="15.3282">2</tspan></text>
<text transform="matrix(1 0 0 1 558.4331 755.9824)"><tspan x="0" y="0" fill="#2A77BC" font-family="'OCRAStd'" font-size="10.7297">0 (12C-D</tspan><tspan x="57.596" y="0" fill="#2A77BC" font-family="'OCRAStd'" font-size="10.7297">)</tspan></text>
<text transform="matrix(1 0 0 1 558.4331 775.2959)"><tspan x="0" y="0" fill="#2A77BC" font-family="'OCRAStd'" font-size="10.7297">2 (12C-D</tspan><tspan x="57.596" y="0" fill="#2A77BC" font-family="'OCRAStd'" font-size="10.7297">)</tspan></text>
<text transform="matrix(1 0 0 1 516.791 797.3672)"><tspan x="0" y="0" fill="#2A77BC" font-family="'OCRAStd'" font-size="10.7297">V + GN</tspan><tspan x="43.197" y="0" fill="#2A77BC" font-family="'OCRAStd'" font-size="10.7297">D</tspan></text>
<text transform="matrix(1 0 0 1 518.583 840.2852)"><tspan x="0" y="0" fill="#2A77BC" font-family="'OCRAStd'" font-size="10.7297">C</tspan><tspan x="7.2" y="0" fill="#2A77BC" font-family="'OCRAStd'" font-size="10.7297">K</tspan></text>
<text transform="matrix(1 0 0 1 579.8926 840.2852)"><tspan x="0" y="0" fill="#2A77BC" font-family="'OCRAStd'" font-size="10.7297">C</tspan><tspan x="7.2" y="0" fill="#2A77BC" font-family="'OCRAStd'" font-size="10.7297">O</tspan></text>
<text transform="matrix(1 0 0 1 559.9673 840.2852)"><tspan x="0" y="0" fill="#2A77BC" font-family="'OCRAStd'" font-size="10.7297">M</tspan><tspan x="7.2" y="0" fill="#2A77BC" font-family="'OCRAStd'" font-size="10.7297">I</tspan></text>
<text transform="matrix(1 0 0 1 540.0425 840.2852)"><tspan x="0" y="0" fill="#2A77BC" font-family="'OCRAStd'" font-size="10.7297">M</tspan><tspan x="7.2" y="0" fill="#2A77BC" font-family="'OCRAStd'" font-size="10.7297">O</tspan></text>
<g>
	<defs>
		<rect id="SVGID_5_" width="1210" height="1178"/>
	</defs>
	<clipPath id="SVGID_6_">
		<use xlink:href="#SVGID_5_"  overflow="visible"/>
	</clipPath>
	
		<rect x="940.674" y="742.202" clip-path="url(#SVGID_6_)" fill="none" stroke="#2C77BC" stroke-width="4.455" stroke-miterlimit="10" width="19.508" height="45.907"/>
	
		<rect x="960.182" y="746.414" clip-path="url(#SVGID_6_)" fill-rule="evenodd" clip-rule="evenodd" fill="#2C77BC" width="8.188" height="8.187"/>
</g>
<text transform="matrix(1 0 0 1 950.4355 806.7949)" fill="#2C77BC" font-family="'Nunito-ExtraBold'" font-size="21.384">0</text>
<text transform="matrix(1 0 0 1 950.4355 732.6572)" fill="#2C77BC" font-family="'Nunito-ExtraBold'" font-size="21.384">1</text>
<g>
	<defs>
		<rect id="SVGID_7_" width="1210" height="1178"/>
	</defs>
	<clipPath id="SVGID_8_">
		<use xlink:href="#SVGID_7_"  overflow="visible"/>
	</clipPath>
	<path clip-path="url(#SVGID_8_)" fill="none" stroke="#2A77BC" stroke-width="1.895" stroke-miterlimit="10" d="M532.219,543.121
		h80.984c12.506,0,22.736,10.231,22.736,22.736v193.647c0,12.505-10.23,22.736-22.736,22.736h-80.984"/>
	<rect x="549.335" y="584.507" clip-path="url(#SVGID_8_)" fill="#2A77BC" width="85.838" height="19.927"/>
</g>
<text transform="matrix(1 0 0 1 581.4253 601.1689)"><tspan x="0" y="0" fill="#FFFFFF" font-family="'OCRAStd'" font-size="16.3571">A</tspan><tspan x="10.976" y="0" fill="#FFFFFF" font-family="'OCRAStd'" font-size="16.3571">O</tspan></text>
<g>
	<defs>
		<rect id="SVGID_9_" width="1210" height="1178"/>
	</defs>
	<clipPath id="SVGID_10_">
		<use xlink:href="#SVGID_9_"  overflow="visible"/>
	</clipPath>
	
		<line clip-path="url(#SVGID_10_)" fill="none" stroke="#2A77BC" stroke-width="1.533" stroke-miterlimit="10" x1="548.569" y1="681.841" x2="635.94" y2="681.841"/>
	
		<line clip-path="url(#SVGID_10_)" fill="none" stroke="#2A77BC" stroke-width="1.533" stroke-miterlimit="10" x1="548.569" y1="739.321" x2="635.94" y2="739.321"/>
	<path clip-path="url(#SVGID_10_)" fill="none" stroke="#2C77BC" stroke-width="4.455" stroke-miterlimit="10" d="M684.927,572.396
		c0-6.452-3.344-12.155-8.38-15.48h-20.33c-5.035,3.325-8.381,9.028-8.381,15.48c0,5.805,2.709,11.003,6.918,14.41h23.256
		C682.219,583.399,684.927,578.201,684.927,572.396z"/>
</g>
<g>
	<path fill="#2A77BC" d="M308.327,366.563v18.032h-33.614v33.614h-18.208v-33.614h-33.613v-18.032h33.613v-33.789h18.208v33.789
		H308.327z"/>
</g>
<g>
	<path fill="#2A77BC" d="M224.06,443.855h6.321v36.831h-7.157v-21.837l-8.463,15.777h-5.224l-8.463-15.568v21.628h-7.157v-36.831
		h6.426l11.859,22.516L224.06,443.855z"/>
	<path fill="#2A77BC" d="M245.191,478.832c-2.7-1.549-4.78-3.744-6.243-6.583c-1.463-2.838-2.194-6.173-2.194-10.004
		c0-3.831,0.731-7.166,2.194-10.004c1.463-2.838,3.543-5.023,6.243-6.557c2.699-1.532,5.877-2.298,9.534-2.298
		c3.657,0,6.834,0.767,9.534,2.298c2.699,1.533,4.78,3.718,6.243,6.557c1.463,2.839,2.194,6.173,2.194,10.004
		c0,3.832-0.731,7.166-2.194,10.004c-1.462,2.839-3.544,5.033-6.243,6.583c-2.7,1.55-5.877,2.325-9.534,2.325
		C251.068,481.156,247.89,480.381,245.191,478.832z M261.961,471.596c1.758-2.159,2.638-5.276,2.638-9.351s-0.871-7.183-2.612-9.325
		c-1.742-2.142-4.163-3.213-7.262-3.213c-3.101,0-5.512,1.071-7.236,3.213c-1.724,2.142-2.586,5.25-2.586,9.325
		s0.87,7.192,2.612,9.351c1.741,2.16,4.144,3.239,7.209,3.239C257.79,474.835,260.202,473.756,261.961,471.596z"/>
	<path fill="#2A77BC" d="M310.885,480.686h-8.881l-6.374-11.754c-0.522-0.905-1.149-1.559-1.881-1.959s-1.655-0.601-2.769-0.601
		h-4.023v14.314h-8.045v-36.831h16.927c4.318,0,7.583,0.949,9.795,2.847c2.211,1.898,3.317,4.641,3.317,8.228
		c0,2.787-0.775,5.12-2.325,7c-1.55,1.881-3.735,3.117-6.557,3.709c1.915,0.488,3.535,1.864,4.858,4.127L310.885,480.686z
		 M299.705,458.979c1.045-0.818,1.567-2.098,1.567-3.84c0-1.776-0.522-3.064-1.567-3.866c-1.045-0.801-2.734-1.202-5.067-1.202
		h-7.784v10.135h7.784C296.971,460.207,298.66,459.798,299.705,458.979z"/>
	<path fill="#2A77BC" d="M315.534,480.686v-36.831h25.39v6.321h-17.449v8.62h16.404v6.321h-16.404v9.247h17.449v6.321H315.534z"/>
</g>
<g>
	<defs>
		<rect id="SVGID_11_" width="1210" height="1178"/>
	</defs>
	<clipPath id="SVGID_12_">
		<use xlink:href="#SVGID_11_"  overflow="visible"/>
	</clipPath>
	<path clip-path="url(#SVGID_12_)" fill="#FF9425" d="M113.459,313.413v185.111c0,22.095,17.976,40.076,40.075,40.076h18.13v41.98
		c0,3.69,2.124,7.045,5.456,8.625c1.301,0.615,2.695,0.917,4.086,0.917c2.161,0,4.304-0.73,6.042-2.154l60.34-49.368h134.954
		c22.095,0,40.071-17.981,40.071-40.076V414.97c7.168,1.003,14.485,1.536,21.928,1.536c34.19,0,67.695-11.264,94.896-31.813
		l40.579,10.608c3.563,0.932,7.343-0.268,9.713-3.086c2.371-2.818,2.911-6.746,1.383-10.097l-15.975-35.1
		C592.73,320.982,602,290.684,602,259.042c0-27.731-7.313-55.003-21.146-78.865c-2.645-4.563-8.482-6.113-13.041-3.47
		c-4.559,2.642-6.113,8.479-3.47,13.042c12.151,20.958,18.573,44.921,18.573,69.293c0,29.464-9.143,57.594-26.437,81.348
		c-2.024,2.784-2.397,6.437-0.97,9.568l9.922,21.804l-25.327-6.623c-3.004-0.921-6.302-0.321-8.792,1.685
		c-24.828,20.015-54.832,30.597-86.771,30.597c-76.301,0-138.379-62.078-138.379-138.379c0-76.301,62.078-138.375,138.379-138.375
		c24.309,0,48.212,6.389,69.126,18.476c4.562,2.636,10.399,1.078,13.038-3.488c2.635-4.563,1.073-10.399-3.489-13.035
		c-23.813-13.761-51.019-21.036-78.675-21.036c-86.823,0-157.462,70.635-157.462,157.458c0,4.82,0.231,9.587,0.655,14.294h-134.2
		C131.436,273.336,113.459,291.313,113.459,313.413 M132.542,313.413c0-11.577,9.415-20.992,20.992-20.992h137.119
		c12.46,57.515,56.435,103.413,112.877,118.654v87.449c0,11.573-9.415,20.992-20.988,20.992H247.856c-5.109,0-7.383,0-9.981,2.371
		l-47.128,38.558v-31.387c0-5.27-4.271-9.542-9.541-9.542h-27.672c-11.577,0-20.992-9.419-20.992-20.992V313.413z"/>
	<path clip-path="url(#SVGID_12_)" fill="#FF9425" d="M549.224,164.295c3.042,0,6.025-1.239,8.182-3.39
		c2.151-2.152,3.39-5.135,3.39-8.182c0-3.042-1.239-6.025-3.39-8.181c-2.157-2.152-5.14-3.39-8.182-3.39
		c-3.056,0-6.03,1.238-8.181,3.39c-2.152,2.156-3.39,5.139-3.39,8.181c0,3.047,1.238,6.03,3.39,8.182
		C543.193,163.062,546.178,164.295,549.224,164.295"/>
</g>
<rect fill="none" width="1210" height="1178"/>
<g>
	<path fill="none" d="M472.426,274.588c-0.333,2.168,0.067,3.713,1.301,5.055c0.836,0.903,2.057,1.517,3.859,1.928
		c1.818,0.415,6.146,0.225,8.526-0.376c2.001-0.509,4.531-1.67,5.496-2.528l0.581-0.516l-0.108-5.861l-0.106-5.859l-3.139,0.026
		C478.62,266.547,473.246,269.21,472.426,274.588z"/>
	<path fill="none" d="M517.909,282.307c1.799,0.338,5.728,0.251,7.217-0.16c1.475-0.412,3.574-1.461,4.679-2.339
		c1.273-1.011,2.54-2.73,3.576-4.846c3.796-7.756,2.454-17.872-3.014-22.746c-2.107-1.879-4.654-2.74-8.088-2.73
		c-4.426,0.012-7.349,1.021-9.799,3.386l-1.316,1.269l0.183,3.688c0.101,2.025,0.277,7.684,0.394,12.572
		c0.115,4.885,0.241,8.99,0.28,9.117C512.27,280.306,515.542,281.857,517.909,282.307z"/>
	<path fill="#E4AC23" d="M454.791,300.513c-0.082,0.08-0.237,1.159-0.346,2.399c-0.456,5.214-1.92,9.608-3.95,11.868
		c-1.597,1.776-0.193,1.65-18.347,1.654c-15.795,0.003-15.973,0-16.778-0.389c-2.765-1.337-5.123-7.071-5.514-13.397l-0.124-1.998
		l-6.997-0.115c-7.325-0.12-8.899-0.273-11.625-1.131c-1.593-0.499-2.913-1.289-5.681-3.399c-2.285-1.743-4.016-3.553-6.244-6.53
		c-5.881-7.851-9.587-20.303-11.986-40.256c-1.164-9.673-1.998-13.892-3.521-17.788c-1.369-3.499-2.852-5.237-5.58-6.525
		c-1.888-0.892-3.476-1.273-6.124-1.463c-3.574-0.26-10.208,0.449-10.902,1.166c-0.296,0.309-1.09,7.501-0.851,7.737
		c0.113,0.118,0.583,0.092,1.286-0.069c0.719-0.16,2.371-0.248,4.7-0.239c3.058,0.007,3.807,0.067,5.038,0.407
		c1.914,0.53,3.218,1.212,4.376,2.284c2.048,1.905,3.375,6.243,4.095,13.415l0.193,1.945l-1.046,2.085
		c-1.417,2.831-4.56,8.266-9.159,15.863c-2.113,3.482-4.604,7.61-5.537,9.169c-4.201,7.032-7.708,13.785-9.079,17.488
		c-0.652,1.757-1.199,4.1-1,4.299c0.131,0.134,10.004,1.169,10.17,1.067c0.069-0.042,0.187-0.479,0.254-0.971
		c0.593-4.273,2.69-9.454,8.595-21.227c5.09-10.153,7.283-15.002,7.937-17.528c0.113-0.441,0.286-0.804,0.382-0.804
		c0.206,0,0.246,0.241,0.76,4.63c1.458,12.445,3.764,22.027,6.722,27.934c2.329,4.658,5.801,8.294,9.741,10.205
		c5.038,2.442,11.433,3.617,21.034,3.868c5.416,0.141,4.794-0.153,5.331,2.519c0.889,4.411,3.25,9.018,5.634,11.004
		c1.114,0.922,1.668,1.265,2.911,1.776l1.089,0.446l17.433,0.003l17.433,0.009l1.208-0.439c4.234-1.54,7.483-6.799,8.953-14.499
		l0.162-0.854l20.417-0.091l20.418-0.096v-2.741v-2.744l-22.865-0.045C465.227,300.388,454.873,300.43,454.791,300.513z"/>
	<path fill="#E4AC23" d="M514.663,300.461l-0.054,2.545c-0.03,1.4-0.008,2.653,0.042,2.791c0.078,0.197,2.921,0.235,15.272,0.197
		l15.18-0.048v-2.741v-2.744h-15.221H514.663z"/>
	<path fill="#E4AC23" d="M510.882,231.928c0-0.175-0.717-0.385-2.27-0.675c-4.691-0.869-9.119-2.249-13.666-4.258
		c-4.978-2.195-9.67-4.924-18.947-11.015c-3.483-2.287-7.526-4.894-8.981-5.801c-14.617-9.075-25.092-12.024-40.22-11.335
		c-4.947,0.229-8.123,0.569-12.525,1.338c-19.763,3.468-33.483,12.662-38.568,25.845c-0.583,1.502-1.611,4.94-1.611,5.378
		c-0.003,0.93,4.938-2.306,13.963-9.152c7.872-5.968,12.436-8.59,18.734-10.77c6.646-2.299,13.223-3.24,22.793-3.255
		c6.626-0.008,8.61,0.187,13.044,1.277c8.05,1.985,14.153,4.821,30.912,14.373c13.196,7.521,20.016,10.466,25.592,11.049
		c0.846,0.092,1.794,0.175,2.106,0.187c1.287,0.054,4.056-0.4,5.596-0.914C508.616,233.6,510.882,232.332,510.882,231.928z"/>
	<path fill="#5169B1" d="M548.884,274.696c-3.608,0.232-6.274,2.96-6.488,6.638c-0.162,2.786,0.583,4.463,2.327,5.258
		c1.098,0.498,3.349,0.47,4.762-0.056c1.454-0.543,2.91-1.935,3.696-3.524c0.511-1.048,0.614-1.485,0.678-2.95
		c0.1-2.252-0.167-3.197-1.17-4.205C551.726,274.894,550.704,274.581,548.884,274.696z"/>
	<path fill="#5169B1" d="M511.945,285.431c0.143,0,0.682,0.298,1.196,0.664c2.017,1.433,5.516,2.088,10.344,1.933
		c2.49-0.077,3.452-0.191,4.957-0.584c5.079-1.333,9.021-4.628,11.902-9.958c2.229-4.128,3.192-8.192,3.178-13.42
		c-0.007-3.115-0.339-5.325-1.167-7.792c-1.93-5.763-5.997-10.31-10.684-11.948c-2.465-0.858-4.412-1.112-7.652-0.999
		c-5.14,0.183-8.526,1.26-11.41,3.64c-0.686,0.569-1.326,1.031-1.426,1.031c-0.195,0-0.269-0.307-0.605-2.514
		c-0.122-0.808-0.277-1.501-0.34-1.54c-0.223-0.138-7.4,0.958-7.602,1.16c-0.146,0.147-0.117,0.704,0.097,1.973
		c0.366,2.148,0.975,7.498,1.23,10.845c0.479,6.204,0.626,13.233,0.521,24.958c-0.1,11.327-0.214,14.834-0.697,21.328
		c-0.109,1.437-0.145,2.695-0.083,2.794c0.066,0.11,1.748,0.16,4.21,0.129l4.099-0.055l-0.049-3.967
		c-0.026-2.183-0.1-7.055-0.164-10.824C511.703,286.526,511.726,285.431,511.945,285.431z M511.739,270.401
		c-0.116-4.888-0.292-10.546-0.394-12.572l-0.183-3.688l1.316-1.269c2.45-2.364,5.373-3.374,9.799-3.386
		c3.434-0.01,5.981,0.851,8.088,2.73c5.468,4.874,6.811,14.99,3.014,22.746c-1.036,2.116-2.303,3.835-3.576,4.846
		c-1.105,0.878-3.204,1.928-4.679,2.339c-1.489,0.411-5.418,0.499-7.217,0.16c-2.367-0.45-5.639-2.001-5.889-2.789
		C511.98,279.391,511.854,275.286,511.739,270.401z"/>
	<path fill="#5169B1" d="M488.296,261.263c-10.846,0.504-16.998,2.573-20.527,6.907c-1.911,2.344-2.782,4.921-2.805,8.284
		c-0.026,3.593,0.799,5.787,2.979,7.938c1.858,1.829,3.873,2.869,6.637,3.418c2.594,0.514,8.16,0.026,11.212-0.983
		c1.599-0.526,3.968-1.758,5.244-2.725c0.688-0.52,1.315-0.903,1.396-0.854s0.201,0.72,0.265,1.489
		c0.064,0.771,0.209,1.64,0.319,1.93l0.198,0.526l3.338-0.122c1.836-0.064,3.402-0.187,3.481-0.267
		c0.081-0.077-0.017-1.251-0.217-2.604c-0.787-5.373-0.916-10.271-0.542-20.753c0.29-8.128,0.028-10.527-1.475-13.529
		c-1.607-3.211-4.869-5.233-9.985-6.195c-1.992-0.373-7.959-0.418-11.343-0.084c-2.344,0.233-5.589,0.781-7.564,1.282l-1.322,0.336
		l-0.22,1.513c-0.123,0.83-0.283,2.214-0.359,3.072c-0.153,1.783-0.252,1.703,1.612,1.265c4.215-0.995,11.033-1.567,14.49-1.22
		c5.451,0.548,7.825,2.104,8.667,5.676c0.354,1.501,0.4,5.202,0.068,5.407C491.717,261.047,490.122,261.18,488.296,261.263z
		 M492.081,272.291l0.108,5.861l-0.581,0.516c-0.965,0.857-3.495,2.019-5.496,2.528c-2.38,0.601-6.708,0.791-8.526,0.376
		c-1.802-0.412-3.022-1.025-3.859-1.928c-1.234-1.342-1.634-2.887-1.301-5.055c0.819-5.378,6.194-8.042,16.409-8.13l3.139-0.026
		L492.081,272.291z"/>
	<path fill="#5169B1" d="M455.362,286.805c0.082,0.08,1.888,0.125,4.011,0.094l3.863-0.049v-16.355c0-16.348,0-16.354-0.425-17.958
		c-0.232-0.885-0.722-2.216-1.086-2.958c-1.272-2.588-4.117-4.631-7.752-5.557c-3.138-0.796-7.792-0.838-10.669-0.092
		c-2.649,0.687-5.75,2.306-8.062,4.208c-0.664,0.545-1.287,0.996-1.386,0.996c-0.198,0-0.244-0.199-0.689-3.026
		c-0.173-1.089-0.37-2.043-0.436-2.111c-0.178-0.185-7.369,0.864-7.609,1.109c-0.15,0.147-0.071,1.021,0.275,3.109
		c1.52,9.114,1.719,15.738,0.964,32.271c-0.152,3.362-0.229,6.195-0.167,6.293c0.063,0.101,1.743,0.153,4.02,0.122l3.908-0.049
		v-16.252v-16.252l1.133-0.919c1.343-1.086,4.454-2.668,6.051-3.071c3.772-0.954,7.729-0.668,10.49,0.758
		c1.77,0.914,3.285,3.03,3.9,5.435c0.628,2.458,0.514,16.397-0.215,26.42C455.333,284.994,455.281,286.721,455.362,286.805z"/>
	<path fill="#5169B1" d="M550.176,263.083l1.351-0.056l0.534-1.607c3.804-11.487,6.373-22.689,6.373-27.801
		c0-2.874-0.587-4.298-2.075-5.05c-1.654-0.831-3.235-0.48-4.742,1.06c-1.744,1.776-2.609,4.658-3.019,10.046
		c-0.198,2.604-0.079,22.94,0.136,23.31C548.783,263.071,549.43,263.113,550.176,263.083z"/>
	<path fill="#5169B1" d="M407.463,281.552c-5.363,0.849-11.513,0.37-17.206-1.342c-0.935-0.281-1.949-0.521-2.252-0.528
		l-0.551-0.018l-0.732,3.294c-0.432,1.947-0.662,3.361-0.559,3.46c0.531,0.533,6.504,1.588,10.429,1.844
		c5.017,0.324,11.073-0.072,14.461-0.95c6.225-1.607,10.133-4.791,11.732-9.546c1.199-3.576,1.116-8.427-0.202-11.671
		c-2.061-5.066-6.558-8.603-16.54-13.001c-8.155-3.595-10.493-5.127-11.765-7.714c-0.567-1.152-0.619-1.403-0.619-3.058
		c0-1.657,0.052-1.906,0.623-3.068c1.041-2.112,2.829-3.289,5.995-3.949c3.978-0.823,12.403-0.218,17.206,1.243
		c1.105,0.335,1.795,0.37,1.795,0.091c0-0.106,0.224-1.643,0.497-3.415c0.326-2.101,0.434-3.282,0.315-3.404
		c-0.324-0.324-3.539-0.884-6.429-1.116c-3.852-0.316-11.934-0.149-13.856,0.286c-7.998,1.799-12.563,6.655-12.982,13.805
		c-0.181,3.087,0.469,6.02,1.862,8.373c0.886,1.506,3.372,3.95,5.261,5.181c2.395,1.555,3.964,2.374,9.479,4.94
		c2.756,1.28,5.941,2.876,7.072,3.544c4.388,2.589,6.361,5.641,6.078,9.391C416.278,278.18,413.215,280.641,407.463,281.552z"/>
</g>
</svg>
