<?xml version="1.0" encoding="utf-8"?>
<!-- Generator: Adobe Illustrator 16.0.0, SVG Export Plug-In . SVG Version: 6.00 Build 0)  -->
<!DOCTYPE svg PUBLIC "-//W3C//DTD SVG 1.1//EN" "http://www.w3.org/Graphics/SVG/1.1/DTD/svg11.dtd">
<svg version="1.1" id="Layer_1" xmlns="http://www.w3.org/2000/svg" xmlns:xlink="http://www.w3.org/1999/xlink" x="0px" y="0px"
	 width="1210px" height="1178px" viewBox="0 0 1210 1178" enable-background="new 0 0 1210 1178" xml:space="preserve">
<rect x="85.756" y="191.199" fill="none" width="561" height="445.441"/>
<rect x="85.756" y="191.199" fill="none" width="561" height="445.441"/>
<rect x="27.756" y="103.199" fill="none" width="1210" height="1178"/>
<text transform="matrix(1 0 0 1 706.1797 450.3608)" fill="#FF9425" font-family="'NunitoSans-ExtraBold'" font-size="186.512">=</text>
<g>
	<g>
		<defs>
			<rect id="SVGID_1_" x="27.756" y="103.199" width="1210" height="1178"/>
		</defs>
		<clipPath id="SVGID_2_">
			<use xlink:href="#SVGID_1_"  overflow="visible"/>
		</clipPath>
		<path clip-path="url(#SVGID_2_)" fill="none" stroke="#2C77BC" stroke-width="4.455" stroke-miterlimit="10" d="M929.814,1014.133
			H597.971c-41.093,0-74.715-33.621-74.715-74.715V651.471c0-41.094,33.622-74.718,74.715-74.718h331.844
			c41.093,0,74.715,33.624,74.715,74.718v287.947C1004.529,980.512,970.907,1014.133,929.814,1014.133z"/>
	</g>
	<g>
		<defs>
			<rect id="SVGID_3_" x="27.756" y="103.199" width="1210" height="1178"/>
		</defs>
		<clipPath id="SVGID_4_">
			<use xlink:href="#SVGID_3_"  overflow="visible"/>
		</clipPath>
		<polygon clip-path="url(#SVGID_4_)" fill="none" stroke="#2C77BC" stroke-width="4.455" stroke-miterlimit="10" points="
			697.168,799.529 697.168,783.371 884.243,784.693 884.243,799.529 908.28,799.529 908.28,922.611 885.288,922.611 
			885.288,938.289 697.168,938.289 697.168,924.701 673.131,924.701 673.131,799.529 		"/>
	</g>
	<g>
		<defs>
			<rect id="SVGID_5_" x="27.756" y="103.199" width="1210" height="1178"/>
		</defs>
		<clipPath id="SVGID_6_">
			<use xlink:href="#SVGID_5_"  overflow="visible"/>
		</clipPath>
		<path clip-path="url(#SVGID_6_)" fill="#2C77BC" d="M697.495,822.043c0,1.994-1.617,3.611-3.612,3.611s-3.611-1.617-3.611-3.611
			c0-1.996,1.616-3.611,3.611-3.611S697.495,820.047,697.495,822.043"/>
	</g>
	<g>
		<defs>
			<rect id="SVGID_7_" x="27.756" y="103.199" width="1210" height="1178"/>
		</defs>
		<clipPath id="SVGID_8_">
			<use xlink:href="#SVGID_7_"  overflow="visible"/>
		</clipPath>
		<path clip-path="url(#SVGID_8_)" fill="#2C77BC" d="M717.004,822.043c0,1.994-1.617,3.611-3.612,3.611
			c-1.994,0-3.611-1.617-3.611-3.611c0-1.996,1.617-3.611,3.611-3.611C715.387,818.432,717.004,820.047,717.004,822.043"/>
	</g>
	<g>
		<defs>
			<rect id="SVGID_9_" x="27.756" y="103.199" width="1210" height="1178"/>
		</defs>
		<clipPath id="SVGID_10_">
			<use xlink:href="#SVGID_9_"  overflow="visible"/>
		</clipPath>
		<path clip-path="url(#SVGID_10_)" fill="#2C77BC" d="M736.513,822.043c0,1.994-1.616,3.611-3.611,3.611s-3.612-1.617-3.612-3.611
			c0-1.996,1.617-3.611,3.612-3.611S736.513,820.047,736.513,822.043"/>
	</g>
	<g>
		<defs>
			<rect id="SVGID_11_" x="27.756" y="103.199" width="1210" height="1178"/>
		</defs>
		<clipPath id="SVGID_12_">
			<use xlink:href="#SVGID_11_"  overflow="visible"/>
		</clipPath>
		<path clip-path="url(#SVGID_12_)" fill="#2C77BC" d="M756.021,822.043c0,1.994-1.616,3.611-3.611,3.611s-3.612-1.617-3.612-3.611
			c0-1.996,1.617-3.611,3.612-3.611S756.021,820.047,756.021,822.043"/>
	</g>
	<g>
		<defs>
			<rect id="SVGID_13_" x="27.756" y="103.199" width="1210" height="1178"/>
		</defs>
		<clipPath id="SVGID_14_">
			<use xlink:href="#SVGID_13_"  overflow="visible"/>
		</clipPath>
		<path clip-path="url(#SVGID_14_)" fill="#2C77BC" d="M775.529,822.043c0,1.994-1.616,3.611-3.611,3.611s-3.612-1.617-3.612-3.611
			c0-1.996,1.617-3.611,3.612-3.611S775.529,820.047,775.529,822.043"/>
	</g>
	<g>
		<defs>
			<rect id="SVGID_15_" x="27.756" y="103.199" width="1210" height="1178"/>
		</defs>
		<clipPath id="SVGID_16_">
			<use xlink:href="#SVGID_15_"  overflow="visible"/>
		</clipPath>
		<path clip-path="url(#SVGID_16_)" fill="#2C77BC" d="M795.038,822.043c0,1.994-1.616,3.611-3.611,3.611s-3.611-1.617-3.611-3.611
			c0-1.996,1.616-3.611,3.611-3.611S795.038,820.047,795.038,822.043"/>
	</g>
	<g>
		<defs>
			<rect id="SVGID_17_" x="27.756" y="103.199" width="1210" height="1178"/>
		</defs>
		<clipPath id="SVGID_18_">
			<use xlink:href="#SVGID_17_"  overflow="visible"/>
		</clipPath>
		<path clip-path="url(#SVGID_18_)" fill="#2C77BC" d="M814.547,822.043c0,1.994-1.617,3.611-3.611,3.611s-3.611-1.617-3.611-3.611
			c0-1.996,1.617-3.611,3.611-3.611S814.547,820.047,814.547,822.043"/>
	</g>
	<g>
		<defs>
			<rect id="SVGID_19_" x="27.756" y="103.199" width="1210" height="1178"/>
		</defs>
		<clipPath id="SVGID_20_">
			<use xlink:href="#SVGID_19_"  overflow="visible"/>
		</clipPath>
		<path clip-path="url(#SVGID_20_)" fill="#2C77BC" d="M834.056,822.043c0,1.994-1.616,3.611-3.611,3.611
			c-1.994,0-3.611-1.617-3.611-3.611c0-1.996,1.617-3.611,3.611-3.611C832.438,818.432,834.056,820.047,834.056,822.043"/>
	</g>
	<g>
		<defs>
			<rect id="SVGID_21_" x="27.756" y="103.199" width="1210" height="1178"/>
		</defs>
		<clipPath id="SVGID_22_">
			<use xlink:href="#SVGID_21_"  overflow="visible"/>
		</clipPath>
		<path clip-path="url(#SVGID_22_)" fill="#2C77BC" d="M853.564,822.043c0,1.994-1.617,3.611-3.612,3.611
			c-1.994,0-3.611-1.617-3.611-3.611c0-1.996,1.617-3.611,3.611-3.611C851.947,818.432,853.564,820.047,853.564,822.043"/>
	</g>
	<g>
		<defs>
			<rect id="SVGID_23_" x="27.756" y="103.199" width="1210" height="1178"/>
		</defs>
		<clipPath id="SVGID_24_">
			<use xlink:href="#SVGID_23_"  overflow="visible"/>
		</clipPath>
		<path clip-path="url(#SVGID_24_)" fill="#2C77BC" d="M873.073,822.043c0,1.994-1.617,3.611-3.612,3.611s-3.611-1.617-3.611-3.611
			c0-1.996,1.616-3.611,3.611-3.611S873.073,820.047,873.073,822.043"/>
	</g>
	<g>
		<defs>
			<rect id="SVGID_25_" x="27.756" y="103.199" width="1210" height="1178"/>
		</defs>
		<clipPath id="SVGID_26_">
			<use xlink:href="#SVGID_25_"  overflow="visible"/>
		</clipPath>
		<path clip-path="url(#SVGID_26_)" fill="#2C77BC" d="M892.582,822.043c0,1.994-1.617,3.611-3.612,3.611s-3.61-1.617-3.61-3.611
			c0-1.996,1.615-3.611,3.61-3.611S892.582,820.047,892.582,822.043"/>
	</g>
	<g>
		<defs>
			<rect id="SVGID_27_" x="27.756" y="103.199" width="1210" height="1178"/>
		</defs>
		<clipPath id="SVGID_28_">
			<use xlink:href="#SVGID_27_"  overflow="visible"/>
		</clipPath>
		<path clip-path="url(#SVGID_28_)" fill="#2C77BC" d="M697.495,841.789c0,1.996-1.617,3.613-3.612,3.613s-3.611-1.617-3.611-3.613
			c0-1.994,1.616-3.611,3.611-3.611S697.495,839.795,697.495,841.789"/>
	</g>
	<g>
		<defs>
			<rect id="SVGID_29_" x="27.756" y="103.199" width="1210" height="1178"/>
		</defs>
		<clipPath id="SVGID_30_">
			<use xlink:href="#SVGID_29_"  overflow="visible"/>
		</clipPath>
		<path clip-path="url(#SVGID_30_)" fill="#2C77BC" d="M717.004,841.789c0,1.996-1.617,3.613-3.612,3.613
			c-1.994,0-3.611-1.617-3.611-3.613c0-1.994,1.617-3.611,3.611-3.611C715.387,838.178,717.004,839.795,717.004,841.789"/>
	</g>
	<g>
		<defs>
			<rect id="SVGID_31_" x="27.756" y="103.199" width="1210" height="1178"/>
		</defs>
		<clipPath id="SVGID_32_">
			<use xlink:href="#SVGID_31_"  overflow="visible"/>
		</clipPath>
		<path clip-path="url(#SVGID_32_)" fill="#2C77BC" d="M736.513,841.789c0,1.996-1.616,3.613-3.611,3.613s-3.612-1.617-3.612-3.613
			c0-1.994,1.617-3.611,3.612-3.611S736.513,839.795,736.513,841.789"/>
	</g>
	<g>
		<defs>
			<rect id="SVGID_33_" x="27.756" y="103.199" width="1210" height="1178"/>
		</defs>
		<clipPath id="SVGID_34_">
			<use xlink:href="#SVGID_33_"  overflow="visible"/>
		</clipPath>
		<path clip-path="url(#SVGID_34_)" fill="#2C77BC" d="M756.021,841.789c0,1.996-1.616,3.613-3.611,3.613s-3.612-1.617-3.612-3.613
			c0-1.994,1.617-3.611,3.612-3.611S756.021,839.795,756.021,841.789"/>
	</g>
	<g>
		<defs>
			<rect id="SVGID_35_" x="27.756" y="103.199" width="1210" height="1178"/>
		</defs>
		<clipPath id="SVGID_36_">
			<use xlink:href="#SVGID_35_"  overflow="visible"/>
		</clipPath>
		<path clip-path="url(#SVGID_36_)" fill="#2C77BC" d="M775.529,841.789c0,1.996-1.616,3.613-3.611,3.613s-3.612-1.617-3.612-3.613
			c0-1.994,1.617-3.611,3.612-3.611S775.529,839.795,775.529,841.789"/>
	</g>
	<g>
		<defs>
			<rect id="SVGID_37_" x="27.756" y="103.199" width="1210" height="1178"/>
		</defs>
		<clipPath id="SVGID_38_">
			<use xlink:href="#SVGID_37_"  overflow="visible"/>
		</clipPath>
		<path clip-path="url(#SVGID_38_)" fill="#2C77BC" d="M795.038,841.789c0,1.996-1.616,3.613-3.611,3.613s-3.611-1.617-3.611-3.613
			c0-1.994,1.616-3.611,3.611-3.611S795.038,839.795,795.038,841.789"/>
	</g>
	<g>
		<defs>
			<rect id="SVGID_39_" x="27.756" y="103.199" width="1210" height="1178"/>
		</defs>
		<clipPath id="SVGID_40_">
			<use xlink:href="#SVGID_39_"  overflow="visible"/>
		</clipPath>
		<path clip-path="url(#SVGID_40_)" fill="#2C77BC" d="M814.547,841.789c0,1.996-1.617,3.613-3.611,3.613s-3.611-1.617-3.611-3.613
			c0-1.994,1.617-3.611,3.611-3.611S814.547,839.795,814.547,841.789"/>
	</g>
	<g>
		<defs>
			<rect id="SVGID_41_" x="27.756" y="103.199" width="1210" height="1178"/>
		</defs>
		<clipPath id="SVGID_42_">
			<use xlink:href="#SVGID_41_"  overflow="visible"/>
		</clipPath>
		<path clip-path="url(#SVGID_42_)" fill="#2C77BC" d="M834.056,841.789c0,1.996-1.616,3.613-3.611,3.613
			c-1.994,0-3.611-1.617-3.611-3.613c0-1.994,1.617-3.611,3.611-3.611C832.438,838.178,834.056,839.795,834.056,841.789"/>
	</g>
	<g>
		<defs>
			<rect id="SVGID_43_" x="27.756" y="103.199" width="1210" height="1178"/>
		</defs>
		<clipPath id="SVGID_44_">
			<use xlink:href="#SVGID_43_"  overflow="visible"/>
		</clipPath>
		<path clip-path="url(#SVGID_44_)" fill="#2C77BC" d="M853.564,841.789c0,1.996-1.617,3.613-3.612,3.613
			c-1.994,0-3.611-1.617-3.611-3.613c0-1.994,1.617-3.611,3.611-3.611C851.947,838.178,853.564,839.795,853.564,841.789"/>
	</g>
	<g>
		<defs>
			<rect id="SVGID_45_" x="27.756" y="103.199" width="1210" height="1178"/>
		</defs>
		<clipPath id="SVGID_46_">
			<use xlink:href="#SVGID_45_"  overflow="visible"/>
		</clipPath>
		<path clip-path="url(#SVGID_46_)" fill="#2C77BC" d="M873.073,841.789c0,1.996-1.617,3.613-3.612,3.613s-3.611-1.617-3.611-3.613
			c0-1.994,1.616-3.611,3.611-3.611S873.073,839.795,873.073,841.789"/>
	</g>
	<g>
		<defs>
			<rect id="SVGID_47_" x="27.756" y="103.199" width="1210" height="1178"/>
		</defs>
		<clipPath id="SVGID_48_">
			<use xlink:href="#SVGID_47_"  overflow="visible"/>
		</clipPath>
		<path clip-path="url(#SVGID_48_)" fill="#2C77BC" d="M892.582,841.789c0,1.996-1.617,3.613-3.612,3.613s-3.61-1.617-3.61-3.613
			c0-1.994,1.615-3.611,3.61-3.611S892.582,839.795,892.582,841.789"/>
	</g>
	<g>
		<defs>
			<rect id="SVGID_49_" x="27.756" y="103.199" width="1210" height="1178"/>
		</defs>
		<clipPath id="SVGID_50_">
			<use xlink:href="#SVGID_49_"  overflow="visible"/>
		</clipPath>
		<path clip-path="url(#SVGID_50_)" fill="#2C77BC" d="M697.495,861.537c0,1.994-1.617,3.611-3.612,3.611s-3.611-1.617-3.611-3.611
			c0-1.996,1.616-3.613,3.611-3.613S697.495,859.541,697.495,861.537"/>
	</g>
	<g>
		<defs>
			<rect id="SVGID_51_" x="27.756" y="103.199" width="1210" height="1178"/>
		</defs>
		<clipPath id="SVGID_52_">
			<use xlink:href="#SVGID_51_"  overflow="visible"/>
		</clipPath>
		<path clip-path="url(#SVGID_52_)" fill="#2C77BC" d="M717.004,861.537c0,1.994-1.617,3.611-3.612,3.611
			c-1.994,0-3.611-1.617-3.611-3.611c0-1.996,1.617-3.613,3.611-3.613C715.387,857.924,717.004,859.541,717.004,861.537"/>
	</g>
	<g>
		<defs>
			<rect id="SVGID_53_" x="27.756" y="103.199" width="1210" height="1178"/>
		</defs>
		<clipPath id="SVGID_54_">
			<use xlink:href="#SVGID_53_"  overflow="visible"/>
		</clipPath>
		<path clip-path="url(#SVGID_54_)" fill="#2C77BC" d="M736.513,861.537c0,1.994-1.616,3.611-3.611,3.611s-3.612-1.617-3.612-3.611
			c0-1.996,1.617-3.613,3.612-3.613S736.513,859.541,736.513,861.537"/>
	</g>
	<g>
		<defs>
			<rect id="SVGID_55_" x="27.756" y="103.199" width="1210" height="1178"/>
		</defs>
		<clipPath id="SVGID_56_">
			<use xlink:href="#SVGID_55_"  overflow="visible"/>
		</clipPath>
		<path clip-path="url(#SVGID_56_)" fill="#2C77BC" d="M756.021,861.537c0,1.994-1.616,3.611-3.611,3.611s-3.612-1.617-3.612-3.611
			c0-1.996,1.617-3.613,3.612-3.613S756.021,859.541,756.021,861.537"/>
	</g>
	<g>
		<defs>
			<rect id="SVGID_57_" x="27.756" y="103.199" width="1210" height="1178"/>
		</defs>
		<clipPath id="SVGID_58_">
			<use xlink:href="#SVGID_57_"  overflow="visible"/>
		</clipPath>
		<path clip-path="url(#SVGID_58_)" fill="#2C77BC" d="M775.529,861.537c0,1.994-1.616,3.611-3.611,3.611s-3.612-1.617-3.612-3.611
			c0-1.996,1.617-3.613,3.612-3.613S775.529,859.541,775.529,861.537"/>
	</g>
	<g>
		<defs>
			<rect id="SVGID_59_" x="27.756" y="103.199" width="1210" height="1178"/>
		</defs>
		<clipPath id="SVGID_60_">
			<use xlink:href="#SVGID_59_"  overflow="visible"/>
		</clipPath>
		<path clip-path="url(#SVGID_60_)" fill="#2C77BC" d="M795.038,861.537c0,1.994-1.616,3.611-3.611,3.611s-3.611-1.617-3.611-3.611
			c0-1.996,1.616-3.613,3.611-3.613S795.038,859.541,795.038,861.537"/>
	</g>
	<g>
		<defs>
			<rect id="SVGID_61_" x="27.756" y="103.199" width="1210" height="1178"/>
		</defs>
		<clipPath id="SVGID_62_">
			<use xlink:href="#SVGID_61_"  overflow="visible"/>
		</clipPath>
		<path clip-path="url(#SVGID_62_)" fill="#2C77BC" d="M814.547,861.537c0,1.994-1.617,3.611-3.611,3.611s-3.611-1.617-3.611-3.611
			c0-1.996,1.617-3.613,3.611-3.613S814.547,859.541,814.547,861.537"/>
	</g>
	<g>
		<defs>
			<rect id="SVGID_63_" x="27.756" y="103.199" width="1210" height="1178"/>
		</defs>
		<clipPath id="SVGID_64_">
			<use xlink:href="#SVGID_63_"  overflow="visible"/>
		</clipPath>
		<path clip-path="url(#SVGID_64_)" fill="#2C77BC" d="M834.056,861.537c0,1.994-1.616,3.611-3.611,3.611
			c-1.994,0-3.611-1.617-3.611-3.611c0-1.996,1.617-3.613,3.611-3.613C832.438,857.924,834.056,859.541,834.056,861.537"/>
	</g>
	<g>
		<defs>
			<rect id="SVGID_65_" x="27.756" y="103.199" width="1210" height="1178"/>
		</defs>
		<clipPath id="SVGID_66_">
			<use xlink:href="#SVGID_65_"  overflow="visible"/>
		</clipPath>
		<path clip-path="url(#SVGID_66_)" fill="#2C77BC" d="M853.564,861.537c0,1.994-1.617,3.611-3.612,3.611
			c-1.994,0-3.611-1.617-3.611-3.611c0-1.996,1.617-3.613,3.611-3.613C851.947,857.924,853.564,859.541,853.564,861.537"/>
	</g>
	<g>
		<defs>
			<rect id="SVGID_67_" x="27.756" y="103.199" width="1210" height="1178"/>
		</defs>
		<clipPath id="SVGID_68_">
			<use xlink:href="#SVGID_67_"  overflow="visible"/>
		</clipPath>
		<path clip-path="url(#SVGID_68_)" fill="#2C77BC" d="M873.073,861.537c0,1.994-1.617,3.611-3.612,3.611s-3.611-1.617-3.611-3.611
			c0-1.996,1.616-3.613,3.611-3.613S873.073,859.541,873.073,861.537"/>
	</g>
	<g>
		<defs>
			<rect id="SVGID_69_" x="27.756" y="103.199" width="1210" height="1178"/>
		</defs>
		<clipPath id="SVGID_70_">
			<use xlink:href="#SVGID_69_"  overflow="visible"/>
		</clipPath>
		<path clip-path="url(#SVGID_70_)" fill="#2C77BC" d="M892.582,861.537c0,1.994-1.617,3.611-3.612,3.611s-3.61-1.617-3.61-3.611
			c0-1.996,1.615-3.613,3.61-3.613S892.582,859.541,892.582,861.537"/>
	</g>
	<g>
		<defs>
			<rect id="SVGID_71_" x="27.756" y="103.199" width="1210" height="1178"/>
		</defs>
		<clipPath id="SVGID_72_">
			<use xlink:href="#SVGID_71_"  overflow="visible"/>
		</clipPath>
		<path clip-path="url(#SVGID_72_)" fill="#2C77BC" d="M697.495,881.283c0,1.996-1.617,3.611-3.612,3.611s-3.611-1.615-3.611-3.611
			c0-1.994,1.616-3.611,3.611-3.611S697.495,879.289,697.495,881.283"/>
	</g>
	<g>
		<defs>
			<rect id="SVGID_73_" x="27.756" y="103.199" width="1210" height="1178"/>
		</defs>
		<clipPath id="SVGID_74_">
			<use xlink:href="#SVGID_73_"  overflow="visible"/>
		</clipPath>
		<path clip-path="url(#SVGID_74_)" fill="#2C77BC" d="M717.004,881.283c0,1.996-1.617,3.611-3.612,3.611
			c-1.994,0-3.611-1.615-3.611-3.611c0-1.994,1.617-3.611,3.611-3.611C715.387,877.672,717.004,879.289,717.004,881.283"/>
	</g>
	<g>
		<defs>
			<rect id="SVGID_75_" x="27.756" y="103.199" width="1210" height="1178"/>
		</defs>
		<clipPath id="SVGID_76_">
			<use xlink:href="#SVGID_75_"  overflow="visible"/>
		</clipPath>
		<path clip-path="url(#SVGID_76_)" fill="#2C77BC" d="M736.513,881.283c0,1.996-1.616,3.611-3.611,3.611s-3.612-1.615-3.612-3.611
			c0-1.994,1.617-3.611,3.612-3.611S736.513,879.289,736.513,881.283"/>
	</g>
	<g>
		<defs>
			<rect id="SVGID_77_" x="27.756" y="103.199" width="1210" height="1178"/>
		</defs>
		<clipPath id="SVGID_78_">
			<use xlink:href="#SVGID_77_"  overflow="visible"/>
		</clipPath>
		<path clip-path="url(#SVGID_78_)" fill="#2C77BC" d="M756.021,881.283c0,1.996-1.616,3.611-3.611,3.611s-3.612-1.615-3.612-3.611
			c0-1.994,1.617-3.611,3.612-3.611S756.021,879.289,756.021,881.283"/>
	</g>
	<g>
		<defs>
			<rect id="SVGID_79_" x="27.756" y="103.199" width="1210" height="1178"/>
		</defs>
		<clipPath id="SVGID_80_">
			<use xlink:href="#SVGID_79_"  overflow="visible"/>
		</clipPath>
		<path clip-path="url(#SVGID_80_)" fill="#2C77BC" d="M775.529,881.283c0,1.996-1.616,3.611-3.611,3.611s-3.612-1.615-3.612-3.611
			c0-1.994,1.617-3.611,3.612-3.611S775.529,879.289,775.529,881.283"/>
	</g>
	<g>
		<defs>
			<rect id="SVGID_81_" x="27.756" y="103.199" width="1210" height="1178"/>
		</defs>
		<clipPath id="SVGID_82_">
			<use xlink:href="#SVGID_81_"  overflow="visible"/>
		</clipPath>
		<path clip-path="url(#SVGID_82_)" fill="#2C77BC" d="M795.038,881.283c0,1.996-1.616,3.611-3.611,3.611s-3.611-1.615-3.611-3.611
			c0-1.994,1.616-3.611,3.611-3.611S795.038,879.289,795.038,881.283"/>
	</g>
	<g>
		<defs>
			<rect id="SVGID_83_" x="27.756" y="103.199" width="1210" height="1178"/>
		</defs>
		<clipPath id="SVGID_84_">
			<use xlink:href="#SVGID_83_"  overflow="visible"/>
		</clipPath>
		<path clip-path="url(#SVGID_84_)" fill="#2C77BC" d="M814.547,881.283c0,1.996-1.617,3.611-3.611,3.611s-3.611-1.615-3.611-3.611
			c0-1.994,1.617-3.611,3.611-3.611S814.547,879.289,814.547,881.283"/>
	</g>
	<g>
		<defs>
			<rect id="SVGID_85_" x="27.756" y="103.199" width="1210" height="1178"/>
		</defs>
		<clipPath id="SVGID_86_">
			<use xlink:href="#SVGID_85_"  overflow="visible"/>
		</clipPath>
		<path clip-path="url(#SVGID_86_)" fill="#2C77BC" d="M834.056,881.283c0,1.996-1.616,3.611-3.611,3.611
			c-1.994,0-3.611-1.615-3.611-3.611c0-1.994,1.617-3.611,3.611-3.611C832.438,877.672,834.056,879.289,834.056,881.283"/>
	</g>
	<g>
		<defs>
			<rect id="SVGID_87_" x="27.756" y="103.199" width="1210" height="1178"/>
		</defs>
		<clipPath id="SVGID_88_">
			<use xlink:href="#SVGID_87_"  overflow="visible"/>
		</clipPath>
		<path clip-path="url(#SVGID_88_)" fill="#2C77BC" d="M853.564,881.283c0,1.996-1.617,3.611-3.612,3.611
			c-1.994,0-3.611-1.615-3.611-3.611c0-1.994,1.617-3.611,3.611-3.611C851.947,877.672,853.564,879.289,853.564,881.283"/>
	</g>
	<g>
		<defs>
			<rect id="SVGID_89_" x="27.756" y="103.199" width="1210" height="1178"/>
		</defs>
		<clipPath id="SVGID_90_">
			<use xlink:href="#SVGID_89_"  overflow="visible"/>
		</clipPath>
		<path clip-path="url(#SVGID_90_)" fill="#2C77BC" d="M873.073,881.283c0,1.996-1.617,3.611-3.612,3.611s-3.611-1.615-3.611-3.611
			c0-1.994,1.616-3.611,3.611-3.611S873.073,879.289,873.073,881.283"/>
	</g>
	<g>
		<defs>
			<rect id="SVGID_91_" x="27.756" y="103.199" width="1210" height="1178"/>
		</defs>
		<clipPath id="SVGID_92_">
			<use xlink:href="#SVGID_91_"  overflow="visible"/>
		</clipPath>
		<path clip-path="url(#SVGID_92_)" fill="#2C77BC" d="M892.582,881.283c0,1.996-1.617,3.611-3.612,3.611s-3.61-1.615-3.61-3.611
			c0-1.994,1.615-3.611,3.61-3.611S892.582,879.289,892.582,881.283"/>
	</g>
	<g>
		<defs>
			<rect id="SVGID_93_" x="27.756" y="103.199" width="1210" height="1178"/>
		</defs>
		<clipPath id="SVGID_94_">
			<use xlink:href="#SVGID_93_"  overflow="visible"/>
		</clipPath>
		<path clip-path="url(#SVGID_94_)" fill="#2C77BC" d="M697.495,901.031c0,1.994-1.617,3.61-3.612,3.61s-3.611-1.616-3.611-3.61
			c0-1.996,1.616-3.613,3.611-3.613S697.495,899.035,697.495,901.031"/>
	</g>
	<g>
		<defs>
			<rect id="SVGID_95_" x="27.756" y="103.199" width="1210" height="1178"/>
		</defs>
		<clipPath id="SVGID_96_">
			<use xlink:href="#SVGID_95_"  overflow="visible"/>
		</clipPath>
		<path clip-path="url(#SVGID_96_)" fill="#2C77BC" d="M717.004,901.031c0,1.994-1.617,3.61-3.612,3.61
			c-1.994,0-3.611-1.616-3.611-3.61c0-1.996,1.617-3.613,3.611-3.613C715.387,897.418,717.004,899.035,717.004,901.031"/>
	</g>
	<g>
		<defs>
			<rect id="SVGID_97_" x="27.756" y="103.199" width="1210" height="1178"/>
		</defs>
		<clipPath id="SVGID_98_">
			<use xlink:href="#SVGID_97_"  overflow="visible"/>
		</clipPath>
		<path clip-path="url(#SVGID_98_)" fill="#2C77BC" d="M736.513,901.031c0,1.994-1.616,3.61-3.611,3.61s-3.612-1.616-3.612-3.61
			c0-1.996,1.617-3.613,3.612-3.613S736.513,899.035,736.513,901.031"/>
	</g>
	<g>
		<defs>
			<rect id="SVGID_99_" x="27.756" y="103.199" width="1210" height="1178"/>
		</defs>
		<clipPath id="SVGID_100_">
			<use xlink:href="#SVGID_99_"  overflow="visible"/>
		</clipPath>
		<path clip-path="url(#SVGID_100_)" fill="#2C77BC" d="M756.021,901.031c0,1.994-1.616,3.61-3.611,3.61s-3.612-1.616-3.612-3.61
			c0-1.996,1.617-3.613,3.612-3.613S756.021,899.035,756.021,901.031"/>
	</g>
	<g>
		<defs>
			<rect id="SVGID_101_" x="27.756" y="103.199" width="1210" height="1178"/>
		</defs>
		<clipPath id="SVGID_102_">
			<use xlink:href="#SVGID_101_"  overflow="visible"/>
		</clipPath>
		<path clip-path="url(#SVGID_102_)" fill="#2C77BC" d="M775.529,901.031c0,1.994-1.616,3.61-3.611,3.61s-3.612-1.616-3.612-3.61
			c0-1.996,1.617-3.613,3.612-3.613S775.529,899.035,775.529,901.031"/>
	</g>
	<g>
		<defs>
			<rect id="SVGID_103_" x="27.756" y="103.199" width="1210" height="1178"/>
		</defs>
		<clipPath id="SVGID_104_">
			<use xlink:href="#SVGID_103_"  overflow="visible"/>
		</clipPath>
		<path clip-path="url(#SVGID_104_)" fill="#2C77BC" d="M795.038,901.031c0,1.994-1.616,3.61-3.611,3.61s-3.611-1.616-3.611-3.61
			c0-1.996,1.616-3.613,3.611-3.613S795.038,899.035,795.038,901.031"/>
	</g>
	<g>
		<defs>
			<rect id="SVGID_105_" x="27.756" y="103.199" width="1210" height="1178"/>
		</defs>
		<clipPath id="SVGID_106_">
			<use xlink:href="#SVGID_105_"  overflow="visible"/>
		</clipPath>
		<path clip-path="url(#SVGID_106_)" fill="#2C77BC" d="M814.547,901.031c0,1.994-1.617,3.61-3.611,3.61s-3.611-1.616-3.611-3.61
			c0-1.996,1.617-3.613,3.611-3.613S814.547,899.035,814.547,901.031"/>
	</g>
	<g>
		<defs>
			<rect id="SVGID_107_" x="27.756" y="103.199" width="1210" height="1178"/>
		</defs>
		<clipPath id="SVGID_108_">
			<use xlink:href="#SVGID_107_"  overflow="visible"/>
		</clipPath>
		<path clip-path="url(#SVGID_108_)" fill="#2C77BC" d="M834.056,901.031c0,1.994-1.616,3.61-3.611,3.61
			c-1.994,0-3.611-1.616-3.611-3.61c0-1.996,1.617-3.613,3.611-3.613C832.438,897.418,834.056,899.035,834.056,901.031"/>
	</g>
	<g>
		<defs>
			<rect id="SVGID_109_" x="27.756" y="103.199" width="1210" height="1178"/>
		</defs>
		<clipPath id="SVGID_110_">
			<use xlink:href="#SVGID_109_"  overflow="visible"/>
		</clipPath>
		<path clip-path="url(#SVGID_110_)" fill="#2C77BC" d="M853.564,901.031c0,1.994-1.617,3.61-3.612,3.61
			c-1.994,0-3.611-1.616-3.611-3.61c0-1.996,1.617-3.613,3.611-3.613C851.947,897.418,853.564,899.035,853.564,901.031"/>
	</g>
	<g>
		<defs>
			<rect id="SVGID_111_" x="27.756" y="103.199" width="1210" height="1178"/>
		</defs>
		<clipPath id="SVGID_112_">
			<use xlink:href="#SVGID_111_"  overflow="visible"/>
		</clipPath>
		<path clip-path="url(#SVGID_112_)" fill="#2C77BC" d="M873.073,901.031c0,1.994-1.617,3.61-3.612,3.61s-3.611-1.616-3.611-3.61
			c0-1.996,1.616-3.613,3.611-3.613S873.073,899.035,873.073,901.031"/>
	</g>
	<g>
		<defs>
			<rect id="SVGID_113_" x="27.756" y="103.199" width="1210" height="1178"/>
		</defs>
		<clipPath id="SVGID_114_">
			<use xlink:href="#SVGID_113_"  overflow="visible"/>
		</clipPath>
		<path clip-path="url(#SVGID_114_)" fill="#2C77BC" d="M892.582,901.031c0,1.994-1.617,3.61-3.612,3.61s-3.61-1.616-3.61-3.61
			c0-1.996,1.615-3.613,3.61-3.613S892.582,899.035,892.582,901.031"/>
	</g>
	<g>
		<defs>
			<rect id="SVGID_115_" x="27.756" y="103.199" width="1210" height="1178"/>
		</defs>
		<clipPath id="SVGID_116_">
			<use xlink:href="#SVGID_115_"  overflow="visible"/>
		</clipPath>
		
			<rect x="559.736" y="648.496" clip-path="url(#SVGID_116_)" fill="none" stroke="#2C77BC" stroke-width="4.455" stroke-miterlimit="10" width="15.677" height="234.799"/>
	</g>
	<g>
		<defs>
			<rect id="SVGID_117_" x="27.756" y="103.199" width="1210" height="1178"/>
		</defs>
		<clipPath id="SVGID_118_">
			<use xlink:href="#SVGID_117_"  overflow="visible"/>
		</clipPath>
		
			<rect x="559.736" y="610.779" clip-path="url(#SVGID_118_)" fill="none" stroke="#2C77BC" stroke-width="4.107" stroke-miterlimit="10" width="117.521" height="15.676"/>
	</g>
	<g>
		<defs>
			<rect id="SVGID_119_" x="27.756" y="103.199" width="1210" height="1178"/>
		</defs>
		<clipPath id="SVGID_120_">
			<use xlink:href="#SVGID_119_"  overflow="visible"/>
		</clipPath>
		
			<rect x="544.843" y="949.074" clip-path="url(#SVGID_120_)" fill="none" stroke="#2C77BC" stroke-width="4.455" stroke-miterlimit="10" width="78.122" height="15.678"/>
	</g>
	<g>
		<defs>
			<rect id="SVGID_121_" x="27.756" y="103.199" width="1210" height="1178"/>
		</defs>
		<clipPath id="SVGID_122_">
			<use xlink:href="#SVGID_121_"  overflow="visible"/>
		</clipPath>
		
			<rect x="726.344" y="610.779" clip-path="url(#SVGID_122_)" fill="none" stroke="#2C77BC" stroke-width="4.455" stroke-miterlimit="10" width="156.244" height="15.676"/>
	</g>
	<g>
		<defs>
			<rect id="SVGID_123_" x="27.756" y="103.199" width="1210" height="1178"/>
		</defs>
		<clipPath id="SVGID_124_">
			<use xlink:href="#SVGID_123_"  overflow="visible"/>
		</clipPath>
		
			<rect x="736.512" y="734.551" clip-path="url(#SVGID_124_)" fill="none" stroke="#2C77BC" stroke-width="4.455" stroke-miterlimit="10" width="35.405" height="35.404"/>
	</g>
	<g>
		<defs>
			<rect id="SVGID_125_" x="27.756" y="103.199" width="1210" height="1178"/>
		</defs>
		<clipPath id="SVGID_126_">
			<use xlink:href="#SVGID_125_"  overflow="visible"/>
		</clipPath>
		
			<rect x="837.668" y="699.82" clip-path="url(#SVGID_126_)" fill="none" stroke="#2C77BC" stroke-width="4.455" stroke-miterlimit="10" width="35.405" height="17.703"/>
	</g>
	<g>
		<defs>
			<rect id="SVGID_127_" x="27.756" y="103.199" width="1210" height="1178"/>
		</defs>
		<clipPath id="SVGID_128_">
			<use xlink:href="#SVGID_127_"  overflow="visible"/>
		</clipPath>
		
			<rect x="888.97" y="660.467" clip-path="url(#SVGID_128_)" fill="none" stroke="#2C77BC" stroke-width="4.455" stroke-miterlimit="10" width="35.406" height="17.703"/>
	</g>
	<g>
		<defs>
			<rect id="SVGID_129_" x="27.756" y="103.199" width="1210" height="1178"/>
		</defs>
		<clipPath id="SVGID_130_">
			<use xlink:href="#SVGID_129_"  overflow="visible"/>
		</clipPath>
		
			<rect x="888.97" y="739.184" clip-path="url(#SVGID_130_)" fill="none" stroke="#2C77BC" stroke-width="4.455" stroke-miterlimit="10" width="35.406" height="17.701"/>
	</g>
	<g>
		<defs>
			<rect id="SVGID_131_" x="27.756" y="103.199" width="1210" height="1178"/>
		</defs>
		<clipPath id="SVGID_132_">
			<use xlink:href="#SVGID_131_"  overflow="visible"/>
		</clipPath>
		
			<rect x="637.336" y="951.27" clip-path="url(#SVGID_132_)" fill="none" stroke="#2C77BC" stroke-width="4.455" stroke-miterlimit="10" width="106.602" height="40.98"/>
	</g>
	<g>
		<defs>
			<rect id="SVGID_133_" x="27.756" y="103.199" width="1210" height="1178"/>
		</defs>
		<clipPath id="SVGID_134_">
			<use xlink:href="#SVGID_133_"  overflow="visible"/>
		</clipPath>
		
			<rect x="778.354" y="951.27" clip-path="url(#SVGID_134_)" fill="none" stroke="#2C77BC" stroke-width="4.455" stroke-miterlimit="10" width="106.602" height="40.98"/>
	</g>
	<g>
		<defs>
			<rect id="SVGID_135_" x="27.756" y="103.199" width="1210" height="1178"/>
		</defs>
		<clipPath id="SVGID_136_">
			<use xlink:href="#SVGID_135_"  overflow="visible"/>
		</clipPath>
		
			<rect x="937.999" y="699.82" clip-path="url(#SVGID_136_)" fill="none" stroke="#2C77BC" stroke-width="4.455" stroke-miterlimit="10" width="35.405" height="17.703"/>
	</g>
	<g>
		<defs>
			<rect id="SVGID_137_" x="27.756" y="103.199" width="1210" height="1178"/>
		</defs>
		<clipPath id="SVGID_138_">
			<use xlink:href="#SVGID_137_"  overflow="visible"/>
		</clipPath>
		<rect x="652.006" y="973.959" clip-path="url(#SVGID_138_)" fill="#2C77BC" width="4.703" height="4.703"/>
	</g>
	<g>
		<defs>
			<rect id="SVGID_139_" x="27.756" y="103.199" width="1210" height="1178"/>
		</defs>
		<clipPath id="SVGID_140_">
			<use xlink:href="#SVGID_139_"  overflow="visible"/>
		</clipPath>
		<rect x="670.035" y="973.959" clip-path="url(#SVGID_140_)" fill="#2C77BC" width="4.703" height="4.703"/>
	</g>
	<g>
		<defs>
			<rect id="SVGID_141_" x="27.756" y="103.199" width="1210" height="1178"/>
		</defs>
		<clipPath id="SVGID_142_">
			<use xlink:href="#SVGID_141_"  overflow="visible"/>
		</clipPath>
		<rect x="688.063" y="973.959" clip-path="url(#SVGID_142_)" fill="#2C77BC" width="4.703" height="4.703"/>
	</g>
	<g>
		<defs>
			<rect id="SVGID_143_" x="27.756" y="103.199" width="1210" height="1178"/>
		</defs>
		<clipPath id="SVGID_144_">
			<use xlink:href="#SVGID_143_"  overflow="visible"/>
		</clipPath>
		<rect x="706.091" y="973.959" clip-path="url(#SVGID_144_)" fill="#2C77BC" width="4.703" height="4.703"/>
	</g>
	<g>
		<defs>
			<rect id="SVGID_145_" x="27.756" y="103.199" width="1210" height="1178"/>
		</defs>
		<clipPath id="SVGID_146_">
			<use xlink:href="#SVGID_145_"  overflow="visible"/>
		</clipPath>
		<rect x="724.119" y="973.959" clip-path="url(#SVGID_146_)" fill="#2C77BC" width="4.703" height="4.703"/>
	</g>
	<g>
		<defs>
			<rect id="SVGID_147_" x="27.756" y="103.199" width="1210" height="1178"/>
		</defs>
		<clipPath id="SVGID_148_">
			<use xlink:href="#SVGID_147_"  overflow="visible"/>
		</clipPath>
		<rect x="792.84" y="973.959" clip-path="url(#SVGID_148_)" fill="#2C77BC" width="4.703" height="4.703"/>
	</g>
	<g>
		<defs>
			<rect id="SVGID_149_" x="27.756" y="103.199" width="1210" height="1178"/>
		</defs>
		<clipPath id="SVGID_150_">
			<use xlink:href="#SVGID_149_"  overflow="visible"/>
		</clipPath>
		<rect x="810.868" y="973.959" clip-path="url(#SVGID_150_)" fill="#2C77BC" width="4.703" height="4.703"/>
	</g>
	<g>
		<defs>
			<rect id="SVGID_151_" x="27.756" y="103.199" width="1210" height="1178"/>
		</defs>
		<clipPath id="SVGID_152_">
			<use xlink:href="#SVGID_151_"  overflow="visible"/>
		</clipPath>
		<rect x="828.896" y="973.959" clip-path="url(#SVGID_152_)" fill="#2C77BC" width="4.702" height="4.703"/>
	</g>
	<g>
		<defs>
			<rect id="SVGID_153_" x="27.756" y="103.199" width="1210" height="1178"/>
		</defs>
		<clipPath id="SVGID_154_">
			<use xlink:href="#SVGID_153_"  overflow="visible"/>
		</clipPath>
		<rect x="846.924" y="973.959" clip-path="url(#SVGID_154_)" fill="#2C77BC" width="4.703" height="4.703"/>
	</g>
	<g>
		<defs>
			<rect id="SVGID_155_" x="27.756" y="103.199" width="1210" height="1178"/>
		</defs>
		<clipPath id="SVGID_156_">
			<use xlink:href="#SVGID_155_"  overflow="visible"/>
		</clipPath>
		<rect x="864.952" y="973.959" clip-path="url(#SVGID_156_)" fill="#2C77BC" width="4.703" height="4.703"/>
	</g>
	<g>
		<defs>
			<rect id="SVGID_157_" x="27.756" y="103.199" width="1210" height="1178"/>
		</defs>
		<clipPath id="SVGID_158_">
			<use xlink:href="#SVGID_157_"  overflow="visible"/>
		</clipPath>
		<rect x="905.537" y="954.033" clip-path="url(#SVGID_158_)" fill="#2C77BC" width="4.703" height="4.703"/>
	</g>
	<g>
		<defs>
			<rect id="SVGID_159_" x="27.756" y="103.199" width="1210" height="1178"/>
		</defs>
		<clipPath id="SVGID_160_">
			<use xlink:href="#SVGID_159_"  overflow="visible"/>
		</clipPath>
		<rect x="926.631" y="954.033" clip-path="url(#SVGID_160_)" fill="#2C77BC" width="4.703" height="4.703"/>
	</g>
	<g>
		<defs>
			<rect id="SVGID_161_" x="27.756" y="103.199" width="1210" height="1178"/>
		</defs>
		<clipPath id="SVGID_162_">
			<use xlink:href="#SVGID_161_"  overflow="visible"/>
		</clipPath>
		<rect x="551.195" y="914.18" clip-path="url(#SVGID_162_)" fill="#2C77BC" width="4.703" height="4.703"/>
	</g>
	<g>
		<defs>
			<rect id="SVGID_163_" x="27.756" y="103.199" width="1210" height="1178"/>
		</defs>
		<clipPath id="SVGID_164_">
			<use xlink:href="#SVGID_163_"  overflow="visible"/>
		</clipPath>
		<rect x="572.289" y="914.18" clip-path="url(#SVGID_164_)" fill="#2C77BC" width="4.703" height="4.703"/>
	</g>
	<g>
		<defs>
			<rect id="SVGID_165_" x="27.756" y="103.199" width="1210" height="1178"/>
		</defs>
		<clipPath id="SVGID_166_">
			<use xlink:href="#SVGID_165_"  overflow="visible"/>
		</clipPath>
		<rect x="946.191" y="954.033" clip-path="url(#SVGID_166_)" fill="#2C77BC" width="4.702" height="4.703"/>
	</g>
	<g>
		<defs>
			<rect id="SVGID_167_" x="27.756" y="103.199" width="1210" height="1178"/>
		</defs>
		<clipPath id="SVGID_168_">
			<use xlink:href="#SVGID_167_"  overflow="visible"/>
		</clipPath>
		
			<line clip-path="url(#SVGID_168_)" fill="none" stroke="#2C77BC" stroke-width="4.455" stroke-miterlimit="10" x1="564.374" y1="949.074" x2="564.374" y2="964.752"/>
	</g>
	<g>
		<defs>
			<rect id="SVGID_169_" x="27.756" y="103.199" width="1210" height="1178"/>
		</defs>
		<clipPath id="SVGID_170_">
			<use xlink:href="#SVGID_169_"  overflow="visible"/>
		</clipPath>
		
			<line clip-path="url(#SVGID_170_)" fill="none" stroke="#2C77BC" stroke-width="4.455" stroke-miterlimit="10" x1="583.904" y1="949.074" x2="583.904" y2="964.752"/>
	</g>
	<g>
		<defs>
			<rect id="SVGID_171_" x="27.756" y="103.199" width="1210" height="1178"/>
		</defs>
		<clipPath id="SVGID_172_">
			<use xlink:href="#SVGID_171_"  overflow="visible"/>
		</clipPath>
		
			<line clip-path="url(#SVGID_172_)" fill="none" stroke="#2C77BC" stroke-width="4.455" stroke-miterlimit="10" x1="603.435" y1="949.074" x2="603.435" y2="964.752"/>
	</g>
	<g>
		<defs>
			<rect id="SVGID_173_" x="27.756" y="103.199" width="1210" height="1178"/>
		</defs>
		<clipPath id="SVGID_174_">
			<use xlink:href="#SVGID_173_"  overflow="visible"/>
		</clipPath>
		
			<rect x="898.924" y="949.074" clip-path="url(#SVGID_174_)" fill="none" stroke="#2C77BC" stroke-width="3.866" stroke-miterlimit="10" width="58.839" height="15.678"/>
	</g>
	<g>
		<defs>
			<rect id="SVGID_175_" x="27.756" y="103.199" width="1210" height="1178"/>
		</defs>
		<clipPath id="SVGID_176_">
			<use xlink:href="#SVGID_175_"  overflow="visible"/>
		</clipPath>
		
			<line clip-path="url(#SVGID_176_)" fill="none" stroke="#2C77BC" stroke-width="4.455" stroke-miterlimit="10" x1="918.454" y1="949.074" x2="918.454" y2="964.752"/>
	</g>
	<g>
		<defs>
			<rect id="SVGID_177_" x="27.756" y="103.199" width="1210" height="1178"/>
		</defs>
		<clipPath id="SVGID_178_">
			<use xlink:href="#SVGID_177_"  overflow="visible"/>
		</clipPath>
		
			<line clip-path="url(#SVGID_178_)" fill="none" stroke="#2C77BC" stroke-width="4.455" stroke-miterlimit="10" x1="937.984" y1="949.074" x2="937.984" y2="964.752"/>
	</g>
	<g>
		<defs>
			<rect id="SVGID_179_" x="27.756" y="103.199" width="1210" height="1178"/>
		</defs>
		<clipPath id="SVGID_180_">
			<use xlink:href="#SVGID_179_"  overflow="visible"/>
		</clipPath>
		
			<rect x="544.09" y="908.098" clip-path="url(#SVGID_180_)" fill="none" stroke="#2C77BC" stroke-width="4.455" stroke-miterlimit="10" width="39.062" height="15.679"/>
	</g>
	<g>
		<defs>
			<rect id="SVGID_181_" x="27.756" y="103.199" width="1210" height="1178"/>
		</defs>
		<clipPath id="SVGID_182_">
			<use xlink:href="#SVGID_181_"  overflow="visible"/>
		</clipPath>
		
			<line clip-path="url(#SVGID_182_)" fill="none" stroke="#2C77BC" stroke-width="4.455" stroke-miterlimit="10" x1="563.621" y1="908.098" x2="563.621" y2="923.775"/>
	</g>
	<g>
		<defs>
			<rect id="SVGID_183_" x="27.756" y="103.199" width="1210" height="1178"/>
		</defs>
		<clipPath id="SVGID_184_">
			<use xlink:href="#SVGID_183_"  overflow="visible"/>
		</clipPath>
		
			<line clip-path="url(#SVGID_184_)" fill="none" stroke="#2C77BC" stroke-width="4.455" stroke-miterlimit="10" x1="575.413" y1="863.832" x2="559.735" y2="863.832"/>
	</g>
	<g>
		<defs>
			<rect id="SVGID_185_" x="27.756" y="103.199" width="1210" height="1178"/>
		</defs>
		<clipPath id="SVGID_186_">
			<use xlink:href="#SVGID_185_"  overflow="visible"/>
		</clipPath>
		
			<line clip-path="url(#SVGID_186_)" fill="none" stroke="#2C77BC" stroke-width="4.455" stroke-miterlimit="10" x1="575.413" y1="843.803" x2="559.735" y2="843.803"/>
	</g>
	<g>
		<defs>
			<rect id="SVGID_187_" x="27.756" y="103.199" width="1210" height="1178"/>
		</defs>
		<clipPath id="SVGID_188_">
			<use xlink:href="#SVGID_187_"  overflow="visible"/>
		</clipPath>
		
			<line clip-path="url(#SVGID_188_)" fill="none" stroke="#2C77BC" stroke-width="4.455" stroke-miterlimit="10" x1="575.413" y1="824.271" x2="559.735" y2="824.271"/>
	</g>
	<g>
		<defs>
			<rect id="SVGID_189_" x="27.756" y="103.199" width="1210" height="1178"/>
		</defs>
		<clipPath id="SVGID_190_">
			<use xlink:href="#SVGID_189_"  overflow="visible"/>
		</clipPath>
		
			<line clip-path="url(#SVGID_190_)" fill="none" stroke="#2C77BC" stroke-width="4.455" stroke-miterlimit="10" x1="575.413" y1="804.742" x2="559.735" y2="804.742"/>
	</g>
	<g>
		<defs>
			<rect id="SVGID_191_" x="27.756" y="103.199" width="1210" height="1178"/>
		</defs>
		<clipPath id="SVGID_192_">
			<use xlink:href="#SVGID_191_"  overflow="visible"/>
		</clipPath>
		
			<line clip-path="url(#SVGID_192_)" fill="none" stroke="#2C77BC" stroke-width="4.455" stroke-miterlimit="10" x1="575.413" y1="785.211" x2="559.735" y2="785.211"/>
	</g>
	<g>
		<defs>
			<rect id="SVGID_193_" x="27.756" y="103.199" width="1210" height="1178"/>
		</defs>
		<clipPath id="SVGID_194_">
			<use xlink:href="#SVGID_193_"  overflow="visible"/>
		</clipPath>
		
			<line clip-path="url(#SVGID_194_)" fill="none" stroke="#2C77BC" stroke-width="4.455" stroke-miterlimit="10" x1="575.413" y1="765.68" x2="559.735" y2="765.68"/>
	</g>
	<g>
		<defs>
			<rect id="SVGID_195_" x="27.756" y="103.199" width="1210" height="1178"/>
		</defs>
		<clipPath id="SVGID_196_">
			<use xlink:href="#SVGID_195_"  overflow="visible"/>
		</clipPath>
		
			<line clip-path="url(#SVGID_196_)" fill="none" stroke="#2C77BC" stroke-width="4.455" stroke-miterlimit="10" x1="575.413" y1="746.15" x2="559.735" y2="746.15"/>
	</g>
	<g>
		<defs>
			<rect id="SVGID_197_" x="27.756" y="103.199" width="1210" height="1178"/>
		</defs>
		<clipPath id="SVGID_198_">
			<use xlink:href="#SVGID_197_"  overflow="visible"/>
		</clipPath>
		
			<line clip-path="url(#SVGID_198_)" fill="none" stroke="#2C77BC" stroke-width="4.455" stroke-miterlimit="10" x1="575.413" y1="726.619" x2="559.735" y2="726.619"/>
	</g>
	<g>
		<defs>
			<rect id="SVGID_199_" x="27.756" y="103.199" width="1210" height="1178"/>
		</defs>
		<clipPath id="SVGID_200_">
			<use xlink:href="#SVGID_199_"  overflow="visible"/>
		</clipPath>
		
			<line clip-path="url(#SVGID_200_)" fill="none" stroke="#2C77BC" stroke-width="4.455" stroke-miterlimit="10" x1="575.413" y1="707.09" x2="559.735" y2="707.09"/>
	</g>
	<g>
		<defs>
			<rect id="SVGID_201_" x="27.756" y="103.199" width="1210" height="1178"/>
		</defs>
		<clipPath id="SVGID_202_">
			<use xlink:href="#SVGID_201_"  overflow="visible"/>
		</clipPath>
		
			<line clip-path="url(#SVGID_202_)" fill="none" stroke="#2C77BC" stroke-width="4.455" stroke-miterlimit="10" x1="575.413" y1="687.559" x2="559.735" y2="687.559"/>
	</g>
	<g>
		<defs>
			<rect id="SVGID_203_" x="27.756" y="103.199" width="1210" height="1178"/>
		</defs>
		<clipPath id="SVGID_204_">
			<use xlink:href="#SVGID_203_"  overflow="visible"/>
		</clipPath>
		
			<line clip-path="url(#SVGID_204_)" fill="none" stroke="#2C77BC" stroke-width="4.455" stroke-miterlimit="10" x1="575.413" y1="668.027" x2="559.735" y2="668.027"/>
	</g>
	<g>
		<defs>
			<rect id="SVGID_205_" x="27.756" y="103.199" width="1210" height="1178"/>
		</defs>
		<clipPath id="SVGID_206_">
			<use xlink:href="#SVGID_205_"  overflow="visible"/>
		</clipPath>
		
			<line clip-path="url(#SVGID_206_)" fill="none" stroke="#2C77BC" stroke-width="4.455" stroke-miterlimit="10" x1="745.874" y1="626.455" x2="745.874" y2="610.779"/>
	</g>
	<g>
		<defs>
			<rect id="SVGID_207_" x="27.756" y="103.199" width="1210" height="1178"/>
		</defs>
		<clipPath id="SVGID_208_">
			<use xlink:href="#SVGID_207_"  overflow="visible"/>
		</clipPath>
		
			<line clip-path="url(#SVGID_208_)" fill="none" stroke="#2C77BC" stroke-width="4.455" stroke-miterlimit="10" x1="657.389" y1="626.455" x2="657.389" y2="610.779"/>
	</g>
	<g>
		<defs>
			<rect id="SVGID_209_" x="27.756" y="103.199" width="1210" height="1178"/>
		</defs>
		<clipPath id="SVGID_210_">
			<use xlink:href="#SVGID_209_"  overflow="visible"/>
		</clipPath>
		
			<line clip-path="url(#SVGID_210_)" fill="none" stroke="#2C77BC" stroke-width="4.455" stroke-miterlimit="10" x1="637.858" y1="626.455" x2="637.858" y2="610.779"/>
	</g>
	<g>
		<defs>
			<rect id="SVGID_211_" x="27.756" y="103.199" width="1210" height="1178"/>
		</defs>
		<clipPath id="SVGID_212_">
			<use xlink:href="#SVGID_211_"  overflow="visible"/>
		</clipPath>
		
			<line clip-path="url(#SVGID_212_)" fill="none" stroke="#2C77BC" stroke-width="4.455" stroke-miterlimit="10" x1="618.327" y1="626.455" x2="618.327" y2="610.779"/>
	</g>
	<g>
		<defs>
			<rect id="SVGID_213_" x="27.756" y="103.199" width="1210" height="1178"/>
		</defs>
		<clipPath id="SVGID_214_">
			<use xlink:href="#SVGID_213_"  overflow="visible"/>
		</clipPath>
		
			<line clip-path="url(#SVGID_214_)" fill="none" stroke="#2C77BC" stroke-width="4.455" stroke-miterlimit="10" x1="598.797" y1="626.455" x2="598.797" y2="610.779"/>
	</g>
	<g>
		<defs>
			<rect id="SVGID_215_" x="27.756" y="103.199" width="1210" height="1178"/>
		</defs>
		<clipPath id="SVGID_216_">
			<use xlink:href="#SVGID_215_"  overflow="visible"/>
		</clipPath>
		
			<line clip-path="url(#SVGID_216_)" fill="none" stroke="#2C77BC" stroke-width="4.455" stroke-miterlimit="10" x1="579.267" y1="626.455" x2="579.267" y2="610.779"/>
	</g>
	<g>
		<defs>
			<rect id="SVGID_217_" x="27.756" y="103.199" width="1210" height="1178"/>
		</defs>
		<clipPath id="SVGID_218_">
			<use xlink:href="#SVGID_217_"  overflow="visible"/>
		</clipPath>
		
			<line clip-path="url(#SVGID_218_)" fill="none" stroke="#2C77BC" stroke-width="4.455" stroke-miterlimit="10" x1="765.405" y1="626.455" x2="765.405" y2="610.779"/>
	</g>
	<g>
		<defs>
			<rect id="SVGID_219_" x="27.756" y="103.199" width="1210" height="1178"/>
		</defs>
		<clipPath id="SVGID_220_">
			<use xlink:href="#SVGID_219_"  overflow="visible"/>
		</clipPath>
		
			<line clip-path="url(#SVGID_220_)" fill="none" stroke="#2C77BC" stroke-width="4.455" stroke-miterlimit="10" x1="784.936" y1="626.455" x2="784.936" y2="610.779"/>
	</g>
	<g>
		<defs>
			<rect id="SVGID_221_" x="27.756" y="103.199" width="1210" height="1178"/>
		</defs>
		<clipPath id="SVGID_222_">
			<use xlink:href="#SVGID_221_"  overflow="visible"/>
		</clipPath>
		
			<line clip-path="url(#SVGID_222_)" fill="none" stroke="#2C77BC" stroke-width="4.455" stroke-miterlimit="10" x1="804.466" y1="626.455" x2="804.466" y2="610.779"/>
	</g>
	<g>
		<defs>
			<rect id="SVGID_223_" x="27.756" y="103.199" width="1210" height="1178"/>
		</defs>
		<clipPath id="SVGID_224_">
			<use xlink:href="#SVGID_223_"  overflow="visible"/>
		</clipPath>
		
			<line clip-path="url(#SVGID_224_)" fill="none" stroke="#2C77BC" stroke-width="4.455" stroke-miterlimit="10" x1="823.996" y1="626.455" x2="823.996" y2="610.779"/>
	</g>
	<g>
		<defs>
			<rect id="SVGID_225_" x="27.756" y="103.199" width="1210" height="1178"/>
		</defs>
		<clipPath id="SVGID_226_">
			<use xlink:href="#SVGID_225_"  overflow="visible"/>
		</clipPath>
		
			<line clip-path="url(#SVGID_226_)" fill="none" stroke="#2C77BC" stroke-width="4.455" stroke-miterlimit="10" x1="843.527" y1="626.455" x2="843.527" y2="610.779"/>
	</g>
	<g>
		<defs>
			<rect id="SVGID_227_" x="27.756" y="103.199" width="1210" height="1178"/>
		</defs>
		<clipPath id="SVGID_228_">
			<use xlink:href="#SVGID_227_"  overflow="visible"/>
		</clipPath>
		
			<line clip-path="url(#SVGID_228_)" fill="none" stroke="#2C77BC" stroke-width="4.455" stroke-miterlimit="10" x1="863.058" y1="626.455" x2="863.058" y2="610.779"/>
	</g>
</g>
<path fill="#2A77BC" d="M597.768,595.938v6.028h-2.126v-13.761h4c2.437,0,3.783,1.307,3.783,3.689c0,2.012-1.046,2.877-1.804,3.16
	c1.137,0.483,1.604,1.465,1.604,3.461v0.55c0,1.467,0.063,2.161,0.189,2.899h-2.082c-0.197-0.629-0.226-1.766-0.226-2.926v-0.49
	c0-1.882-0.414-2.611-2.073-2.611H597.768L597.768,595.938z M597.768,594.188h1.361c1.551,0,2.15-0.744,2.15-2.206
	c0-1.253-0.591-2.022-1.941-2.022h-1.57V594.188L597.768,594.188z M613.686,594.976c0,4.917-1.281,7.217-4.388,7.217
	c-2.919,0-4.271-2.25-4.271-7.227c0-4.871,1.576-6.971,4.367-6.971C612.343,587.995,613.686,590.237,613.686,594.976z
	 M607.223,594.938c0,3.491,0.599,5.444,2.131,5.444c1.603,0,2.138-1.84,2.138-5.433c0-3.474-0.574-5.132-2.145-5.132
	C607.803,589.818,607.223,591.64,607.223,594.938z M615.691,588.206h3.985c2.275,0,3.571,1.292,3.571,3.44
	c0,1.772-0.849,2.603-1.624,2.886c0.996,0.389,2.04,1.305,2.04,3.394c0,2.566-1.631,4.041-4.059,4.041h-3.916v-13.761H615.691z
	 M619.111,593.78c1.598,0,2.076-0.651,2.076-1.938c0-1.262-0.664-1.919-1.955-1.919h-1.443v3.856L619.111,593.78L619.111,593.78z
	 M617.789,600.277h1.6c1.363,0,2.13-0.748,2.13-2.384c0-1.563-0.708-2.425-2.404-2.425h-1.324L617.789,600.277L617.789,600.277z
	 M633.73,594.976c0,4.917-1.282,7.217-4.39,7.217c-2.918,0-4.27-2.25-4.27-7.227c0-4.871,1.575-6.971,4.366-6.971
	C632.387,587.995,633.73,590.237,633.73,594.976z M627.268,594.938c0,3.491,0.598,5.444,2.131,5.444c1.602,0,2.138-1.84,2.138-5.433
	c0-3.474-0.574-5.132-2.146-5.132C627.848,589.818,627.268,591.64,627.268,594.938z M637.278,590.087h-2.983v-1.881h8.107v1.881
	h-2.983v11.88h-2.141V590.087L637.278,590.087z M649.69,588.206v13.761h-2.142v-13.761H649.69z M652.241,601.967v-13.761h2.478
	c3.172,8.26,3.715,9.659,3.883,10.308h0.021c-0.109-1.722-0.122-3.763-0.122-6.011v-4.297h1.935v13.761h-2.375
	c-3.283-8.757-3.794-10.149-3.965-10.751h-0.021c0.102,1.703,0.106,3.808,0.106,6.276v4.475H652.241z M667.761,601.967h-2.141
	l3.231-13.761h2.775l3.29,13.761h-2.251l-0.797-3.771h-3.318L667.761,601.967z M671.476,596.328c-0.61-2.889-1.058-4.891-1.263-6.13
	h-0.055c-0.175,1.243-0.654,3.448-1.218,6.13H671.476z M687.821,598.027c-0.062,0.731-0.354,4.164-4.006,4.164
	c-3.827,0-4.218-3.586-4.218-7.151c0-4.3,1.222-7.045,4.371-7.045c3.534,0,3.784,3.121,3.833,4.133h-2.124
	c-0.034-0.467-0.085-2.297-1.743-2.297c-1.76,0-2.12,2.258-2.12,5.246c0,2.702,0.278,5.308,2.042,5.308
	c1.593,0,1.766-1.771,1.825-2.356L687.821,598.027L687.821,598.027z M690.811,601.967h-2.141l3.233-13.761h2.773l3.29,13.761h-2.25
	l-0.798-3.771h-3.317L690.811,601.967z M694.525,596.328c-0.61-2.889-1.058-4.891-1.263-6.13h-0.056
	c-0.174,1.243-0.653,3.448-1.218,6.13H694.525z M699.253,601.967v-13.761h2.479c3.173,8.26,3.715,9.659,3.884,10.308h0.021
	c-0.109-1.722-0.122-3.763-0.122-6.011v-4.297h1.934v13.761h-2.374c-3.284-8.757-3.794-10.149-3.964-10.751h-0.021
	c0.102,1.703,0.107,3.808,0.107,6.276v4.475H699.253z"/>
<path fill="#2A77BC" d="M666.949,748.826v-1.644c0.408-0.055,0.753-0.096,1.277-0.108c-1.044-0.562-1.504-1.424-1.504-2.74
	c0-2.91,2.734-3.861,7.043-3.861c4.927,0,7.153,1.613,7.153,4.515c0,3.582-3.104,3.791-3.923,3.83V746.7
	c0.532-0.041,2.1-0.156,2.1-1.775c0-1.711-2.175-2.236-5.317-2.236c-3.287,0-5.246,0.427-5.246,2.119
	c0,1.494,1.188,1.898,3.509,1.898h0.737v-2.035h1.838v4.156C674.615,748.826,666.949,748.826,666.949,748.826z M673.939,773.398
	c-4.916,0-7.217-1.281-7.217-4.388c0-2.92,2.249-4.271,7.227-4.271c4.871,0,6.971,1.578,6.971,4.369
	C680.92,772.057,678.678,773.398,673.939,773.398z M680.708,755.006c0,2.234-1.36,3.865-4.003,3.865c-2.586,0-4.04-1.475-4.04-4.066
	v-1.596h-5.716v-2.141h13.759V755.006z M680.708,762.693h-13.759v-2.142h13.759V762.693z M673.976,766.936
	c-3.488,0-5.442,0.599-5.442,2.132c0,1.602,1.84,2.137,5.432,2.137c3.474,0,5.133-0.574,5.133-2.144
	C679.097,767.518,677.274,766.936,673.976,766.936z M674.403,753.209v1.359c0,1.463,0.744,2.149,2.33,2.149
	c1.425,0,2.223-0.737,2.223-2.006v-1.504L674.403,753.209L674.403,753.209z"/>
<path fill="#2A77BC" d="M680.982,645.771h1.293v7.2h2.887l-0.141,1.109h-4.039V645.771L680.982,645.771z M687.229,645.771v8.311
	h-1.293v-8.311H687.229z M693.511,654.082h-0.992c-0.032-0.246-0.058-0.455-0.065-0.771c-0.338,0.632-0.859,0.908-1.655,0.908
	c-1.758,0-2.332-1.651-2.332-4.254c0-2.977,0.976-4.322,2.728-4.322c2.163,0,2.289,1.875,2.313,2.371h-1.278
	c-0.025-0.322-0.096-1.27-1.073-1.27c-1.032,0-1.352,1.313-1.352,3.213c0,1.986,0.257,3.17,1.28,3.17
	c0.902,0,1.146-0.719,1.146-2.121v-0.445H691v-1.108h2.511V654.082z M694.863,645.771h1.293v3.36h2.24v-3.36h1.293v8.311h-1.293
	v-3.822h-2.24v3.822h-1.293V645.771z M702.31,646.906h-1.802v-1.135h4.897v1.135h-1.804v7.176h-1.293L702.31,646.906L702.31,646.906
	z"/>
<path fill="#2A77BC" d="M738.98,724.018v3.642h-1.284v-8.313h2.416c1.472,0,2.284,0.789,2.284,2.229c0,1.215-0.632,1.737-1.09,1.91
	c0.688,0.291,0.971,0.885,0.971,2.09v0.332c0,0.885,0.037,1.307,0.113,1.752h-1.258c-0.119-0.381-0.136-1.066-0.136-1.769v-0.297
	c0-1.135-0.251-1.576-1.253-1.576H738.98z M738.98,722.959h0.821c0.938,0,1.299-0.451,1.299-1.334c0-0.756-0.355-1.221-1.172-1.221
	h-0.948V722.959L738.98,722.959z M748.41,727.658h-0.992c-0.033-0.248-0.058-0.455-0.066-0.773
	c-0.338,0.631-0.858,0.908-1.654,0.908c-1.758,0-2.332-1.65-2.332-4.254c0-2.975,0.974-4.32,2.727-4.32
	c2.163,0,2.289,1.875,2.313,2.369h-1.279c-0.024-0.322-0.094-1.268-1.072-1.268c-1.033,0-1.351,1.313-1.351,3.211
	c0,1.985,0.257,3.17,1.28,3.17c0.901,0,1.146-0.719,1.146-2.119v-0.445H745.9v-1.11h2.511L748.41,727.658L748.41,727.658z
	 M749.754,719.346h2.408c1.374,0,2.157,0.781,2.157,2.078c0,1.072-0.514,1.572-0.981,1.744c0.603,0.234,1.232,0.787,1.232,2.049
	c0,1.551-0.985,2.441-2.451,2.441h-2.365V719.346z M751.819,722.713c0.965,0,1.255-0.393,1.255-1.17c0-0.762-0.401-1.16-1.183-1.16
	h-0.87v2.33H751.819L751.819,722.713z M751.021,726.637h0.966c0.822,0,1.286-0.451,1.286-1.438c0-0.943-0.429-1.463-1.453-1.463
	h-0.799V726.637z M758.051,719.346h1.293v7.201h2.888l-0.142,1.111h-4.039V719.346L758.051,719.346z M766.984,723.863h-2.704v2.676
	h3.023l-0.163,1.119h-4.137v-8.313h4.109v1.138h-2.834v2.252h2.704L766.984,723.863L766.984,723.863z M768.241,719.346h2.057
	c2.063,0,2.903,1.359,2.903,3.97c0,2.813-0.791,4.344-3.025,4.344h-1.935V719.346z M769.542,726.59h0.611
	c1.284,0,1.713-0.988,1.713-3.26c0-2.014-0.428-2.9-1.701-2.9h-0.623V726.59L769.542,726.59z"/>
<path fill="#2A77BC" d="M815.861,769.93h2.406c1.375,0,2.157,0.779,2.157,2.078c0,1.07-0.513,1.57-0.98,1.742
	c0.603,0.234,1.232,0.787,1.232,2.049c0,1.551-0.984,2.441-2.452,2.441h-2.363V769.93L815.861,769.93z M817.927,773.297
	c0.965,0,1.254-0.395,1.254-1.172c0-0.762-0.399-1.158-1.181-1.158h-0.872v2.33H817.927z M817.128,777.221h0.967
	c0.822,0,1.286-0.453,1.286-1.438c0-0.945-0.428-1.465-1.453-1.465h-0.8V777.221z M823.027,774.6v3.642h-1.284v-8.312h2.417
	c1.471,0,2.284,0.787,2.284,2.228c0,1.217-0.633,1.737-1.089,1.91c0.687,0.293,0.969,0.885,0.969,2.092v0.33
	c0,0.887,0.038,1.307,0.113,1.752h-1.258c-0.117-0.381-0.136-1.066-0.136-1.769v-0.295c0-1.137-0.25-1.578-1.252-1.578H823.027z
	 M823.027,773.541h0.822c0.938,0,1.3-0.449,1.3-1.332c0-0.758-0.357-1.223-1.174-1.223h-0.948V773.541L823.027,773.541z
	 M831.621,774.445h-2.703v2.676h3.023l-0.163,1.119h-4.138v-8.312h4.109v1.136h-2.833v2.254h2.703L831.621,774.445L831.621,774.445z
	 M833.824,778.24h-1.293l1.953-8.312h1.677l1.987,8.312h-1.359l-0.482-2.277h-2.004L833.824,778.24z M836.068,774.834
	c-0.368-1.744-0.64-2.953-0.764-3.701h-0.031c-0.105,0.75-0.396,2.084-0.736,3.701H836.068z M838.922,769.93h2.057
	c2.063,0,2.903,1.359,2.903,3.97c0,2.811-0.79,4.342-3.023,4.342h-1.937V769.93L838.922,769.93z M840.224,777.174h0.61
	c1.285,0,1.713-0.988,1.713-3.262c0-2.012-0.428-2.898-1.7-2.898h-0.623V777.174z M845.081,769.93h2.408
	c1.374,0,2.157,0.779,2.157,2.078c0,1.07-0.514,1.57-0.981,1.742c0.603,0.234,1.231,0.787,1.231,2.049
	c0,1.551-0.984,2.441-2.45,2.441h-2.365V769.93z M847.146,773.297c0.966,0,1.255-0.395,1.255-1.172c0-0.762-0.401-1.158-1.182-1.158
	h-0.872v2.33H847.146z M846.349,777.221h0.967c0.822,0,1.286-0.453,1.286-1.438c0-0.945-0.428-1.465-1.452-1.465h-0.801V777.221z
	 M855.976,774.018c0,2.97-0.773,4.359-2.65,4.359c-1.763,0-2.579-1.359-2.579-4.365c0-2.94,0.953-4.211,2.639-4.211
	C855.164,769.801,855.976,771.156,855.976,774.018z M852.071,773.996c0,2.106,0.359,3.287,1.286,3.287
	c0.968,0,1.292-1.111,1.292-3.281c0-2.098-0.348-3.1-1.296-3.1C852.422,770.902,852.071,772.002,852.071,773.996z M857.761,778.24
	h-1.293l1.953-8.312h1.677l1.986,8.312h-1.358l-0.481-2.277h-2.004L857.761,778.24z M860.005,774.834
	c-0.368-1.744-0.639-2.953-0.763-3.701h-0.033c-0.105,0.75-0.395,2.084-0.735,3.701H860.005z M864.143,774.6v3.642h-1.283v-8.312
	h2.417c1.471,0,2.283,0.787,2.283,2.228c0,1.217-0.632,1.737-1.089,1.91c0.688,0.293,0.97,0.885,0.97,2.092v0.33
	c0,0.887,0.038,1.307,0.113,1.752h-1.258c-0.119-0.381-0.136-1.066-0.136-1.769v-0.295c0-1.137-0.25-1.578-1.252-1.578H864.143z
	 M864.143,773.541h0.823c0.938,0,1.299-0.449,1.299-1.332c0-0.758-0.356-1.223-1.173-1.223h-0.949V773.541L864.143,773.541z
	 M868.757,769.93h2.058c2.063,0,2.902,1.359,2.902,3.97c0,2.811-0.79,4.342-3.023,4.342h-1.937V769.93L868.757,769.93z
	 M870.059,777.174h0.61c1.285,0,1.713-0.988,1.713-3.262c0-2.012-0.428-2.898-1.7-2.898h-0.623V777.174z"/>
<path fill="#2A77BC" d="M677.197,702.387c0.068,0.746,0.393,1.379,1.204,1.379c0.779,0,1.107-0.465,1.107-1.198
	c0-0.748-0.342-1.168-1.421-1.687c-1.381-0.658-1.944-1.248-1.944-2.473c0-1.269,0.813-2.178,2.268-2.178
	c1.779,0,2.229,1.225,2.255,2.271h-1.267c-0.047-0.451-0.169-1.24-1.018-1.24c-0.661,0-0.95,0.439-0.95,1.037
	c0,0.666,0.297,0.979,1.294,1.447c1.479,0.689,2.102,1.367,2.102,2.705c0,1.309-0.785,2.346-2.464,2.346
	c-1.827,0-2.397-1.178-2.454-2.41L677.197,702.387L677.197,702.387z M685.894,700.871h-2.703v2.676h3.023l-0.163,1.119h-4.137
	v-8.313h4.109v1.137h-2.834v2.252h2.703L685.894,700.871L685.894,700.871z M687.15,704.666v-8.313h1.496
	c1.916,4.989,2.243,5.834,2.346,6.225h0.013c-0.065-1.037-0.073-2.271-0.073-3.629v-2.597h1.167v8.313h-1.434
	c-1.983-5.289-2.292-6.131-2.396-6.494h-0.012c0.063,1.029,0.064,2.299,0.064,3.791v2.703H687.15L687.15,704.666z M694.389,702.387
	c0.07,0.746,0.394,1.379,1.204,1.379c0.78,0,1.108-0.465,1.108-1.198c0-0.748-0.342-1.168-1.42-1.687
	c-1.383-0.658-1.945-1.248-1.945-2.473c0-1.269,0.814-2.178,2.267-2.178c1.78,0,2.231,1.225,2.257,2.271h-1.269
	c-0.045-0.451-0.168-1.24-1.017-1.24c-0.66,0-0.949,0.439-0.949,1.037c0,0.666,0.296,0.979,1.293,1.447
	c1.479,0.689,2.102,1.367,2.102,2.705c0,1.309-0.785,2.346-2.465,2.346c-1.827,0-2.396-1.178-2.454-2.41L694.389,702.387
	L694.389,702.387z M704.068,700.443c0,2.969-0.774,4.356-2.65,4.356c-1.763,0-2.579-1.356-2.579-4.365
	c0-2.94,0.952-4.209,2.638-4.209C703.257,696.227,704.068,697.58,704.068,700.443z M700.165,700.42c0,2.109,0.36,3.289,1.286,3.289
	c0.968,0,1.291-1.111,1.291-3.281c0-2.098-0.348-3.1-1.295-3.1C700.516,697.328,700.165,698.428,700.165,700.42z M706.569,701.025
	v3.641h-1.284v-8.313h2.416c1.472,0,2.285,0.788,2.285,2.229c0,1.215-0.633,1.738-1.09,1.91c0.688,0.291,0.97,0.885,0.97,2.09v0.332
	c0,0.885,0.038,1.307,0.114,1.752h-1.259c-0.119-0.381-0.136-1.066-0.136-1.768v-0.298c0-1.135-0.251-1.575-1.253-1.575H706.569z
	 M706.569,699.967h0.822c0.938,0,1.3-0.451,1.3-1.334c0-0.756-0.357-1.221-1.174-1.221h-0.948V699.967L706.569,699.967z"/>
<text transform="matrix(1 0 0 1 583.6572 666.0469)" fill="#2A77BC" font-family="'OCRAStd'" font-size="15.3282">3.3 </text>
<text transform="matrix(1 0 0 1 624.7969 666.0469)" fill="#2A77BC" font-family="'OCRAStd'" font-size="15.3282">V</text>
<text transform="matrix(1 0 0 1 583.6572 685.3613)" fill="#2A77BC" font-family="'OCRAStd'" font-size="15.3282">GN</text>
<text transform="matrix(1 0 0 1 604.2271 685.3613)" fill="#2A77BC" font-family="'OCRAStd'" font-size="15.3282">D</text>
<text transform="matrix(1 0 0 1 583.6572 723.9883)" fill="#2A77BC" font-family="'OCRAStd'" font-size="15.3282">4 (IO</text>
<text transform="matrix(1 0 0 1 635.082 723.9883)" fill="#2A77BC" font-family="'OCRAStd'" font-size="15.3282">)</text>
<text transform="matrix(1 0 0 1 583.6572 743.3008)" fill="#2A77BC" font-family="'OCRAStd'" font-size="15.3282">5 (PW</text>
<text transform="matrix(1 0 0 1 635.082 743.3008)" fill="#2A77BC" font-family="'OCRAStd'" font-size="15.3282">)</text>
<text transform="matrix(1 0 0 1 583.6572 762.6152)" fill="#2A77BC" font-family="'OCRAStd'" font-size="15.3282">10 (PW</text>
<text transform="matrix(1 0 0 1 645.3672 762.6152)" fill="#2A77BC" font-family="'OCRAStd'" font-size="15.3282">)</text>
<text transform="matrix(1 0 0 1 583.6572 781.9277)" fill="#2A77BC" font-family="'OCRAStd'" font-size="15.3282">16 (PW</text>
<text transform="matrix(1 0 0 1 645.3672 781.9277)" fill="#2A77BC" font-family="'OCRAStd'" font-size="15.3282">)</text>
<text transform="matrix(1 0 0 1 583.6572 801.2422)" fill="#2A77BC" font-family="'OCRAStd'" font-size="15.3282">14 (L</text>
<text transform="matrix(1 0 0 1 635.082 801.2422)" fill="#2A77BC" font-family="'OCRAStd'" font-size="15.3282">)</text>
<text transform="matrix(1 0 0 1 583.6572 820.5547)" fill="#2A77BC" font-family="'OCRAStd'" font-size="15.3282">12 (D</text>
<text transform="matrix(1 0 0 1 635.082 820.5547)" fill="#2A77BC" font-family="'OCRAStd'" font-size="15.3282">)</text>
<text transform="matrix(1 0 0 1 583.6572 839.8691)" fill="#2A77BC" font-family="'OCRAStd'" font-size="15.3282">13 (C</text>
<text transform="matrix(1 0 0 1 635.082 839.8691)" fill="#2A77BC" font-family="'OCRAStd'" font-size="15.3282">)</text>
<text transform="matrix(1 0 0 1 896.3525 653.7852)" fill="#2A77BC" font-family="'OCRAStd'" font-size="15.3282">S</text>
<text transform="matrix(1 0 0 1 906.6377 653.7852)" fill="#2A77BC" font-family="'OCRAStd'" font-size="15.3282">1</text>
<text transform="matrix(1 0 0 1 896.3525 774.877)" fill="#2A77BC" font-family="'OCRAStd'" font-size="15.3282">S</text>
<text transform="matrix(1 0 0 1 906.6377 774.877)" fill="#2A77BC" font-family="'OCRAStd'" font-size="15.3282">3</text>
<text transform="matrix(1 0 0 1 845.7695 735.0234)" fill="#2A77BC" font-family="'OCRAStd'" font-size="15.3282">S</text>
<text transform="matrix(1 0 0 1 856.0547 735.0234)" fill="#2A77BC" font-family="'OCRAStd'" font-size="15.3282">4</text>
<text transform="matrix(1 0 0 1 946.9355 735.0234)" fill="#2A77BC" font-family="'OCRAStd'" font-size="15.3282">S</text>
<text transform="matrix(1 0 0 1 957.2207 735.0234)" fill="#2A77BC" font-family="'OCRAStd'" font-size="15.3282">2</text>
<text transform="matrix(1 0 0 1 585.189 859.1816)" fill="#2A77BC" font-family="'OCRAStd'" font-size="10.7297">0 (12C-D</text>
<text transform="matrix(1 0 0 1 642.7852 859.1816)" fill="#2A77BC" font-family="'OCRAStd'" font-size="10.7297">)</text>
<text transform="matrix(1 0 0 1 585.189 878.4941)" fill="#2A77BC" font-family="'OCRAStd'" font-size="10.7297">2 (12C-D</text>
<text transform="matrix(1 0 0 1 642.7852 878.4941)" fill="#2A77BC" font-family="'OCRAStd'" font-size="10.7297">)</text>
<text transform="matrix(1 0 0 1 543.5469 900.5664)" fill="#2A77BC" font-family="'OCRAStd'" font-size="10.7297">V + GN</text>
<text transform="matrix(1 0 0 1 586.7437 900.5664)" fill="#2A77BC" font-family="'OCRAStd'" font-size="10.7297">D</text>
<text transform="matrix(1 0 0 1 545.3389 943.4844)" fill="#2A77BC" font-family="'OCRAStd'" font-size="10.7297">C</text>
<text transform="matrix(1 0 0 1 552.5391 943.4844)" fill="#2A77BC" font-family="'OCRAStd'" font-size="10.7297">K</text>
<text transform="matrix(1 0 0 1 606.6484 943.4844)" fill="#2A77BC" font-family="'OCRAStd'" font-size="10.7297">C</text>
<text transform="matrix(1 0 0 1 613.8477 943.4844)" fill="#2A77BC" font-family="'OCRAStd'" font-size="10.7297">O</text>
<text transform="matrix(1 0 0 1 586.7231 943.4844)" fill="#2A77BC" font-family="'OCRAStd'" font-size="10.7297">M</text>
<text transform="matrix(1 0 0 1 593.9229 943.4844)" fill="#2A77BC" font-family="'OCRAStd'" font-size="10.7297">I</text>
<text transform="matrix(1 0 0 1 566.7983 943.4844)" fill="#2A77BC" font-family="'OCRAStd'" font-size="10.7297">M</text>
<text transform="matrix(1 0 0 1 573.998 943.4844)" fill="#2A77BC" font-family="'OCRAStd'" font-size="10.7297">O</text>
<g>
	<g>
		<defs>
			<rect id="SVGID_229_" x="27.756" y="103.199" width="1210" height="1178"/>
		</defs>
		<clipPath id="SVGID_230_">
			<use xlink:href="#SVGID_229_"  overflow="visible"/>
		</clipPath>
		
			<rect x="967.429" y="845.402" clip-path="url(#SVGID_230_)" fill="none" stroke="#2C77BC" stroke-width="4.455" stroke-miterlimit="10" width="19.509" height="45.905"/>
	</g>
	<g>
		<defs>
			<rect id="SVGID_231_" x="27.756" y="103.199" width="1210" height="1178"/>
		</defs>
		<clipPath id="SVGID_232_">
			<use xlink:href="#SVGID_231_"  overflow="visible"/>
		</clipPath>
		<rect x="986.938" y="849.613" clip-path="url(#SVGID_232_)" fill="#2C77BC" width="8.188" height="8.188"/>
	</g>
</g>
<text transform="matrix(1 0 0 1 977.1914 909.9941)" fill="#2C77BC" font-family="'NunitoSans-Regular'" font-size="21.384">0</text>
<text transform="matrix(1 0 0 1 977.1914 835.8555)" fill="#2C77BC" font-family="'NunitoSans-Regular'" font-size="21.384">1</text>
<g>
	<g>
		<defs>
			<rect id="SVGID_233_" x="27.756" y="103.199" width="1210" height="1178"/>
		</defs>
		<clipPath id="SVGID_234_">
			<use xlink:href="#SVGID_233_"  overflow="visible"/>
		</clipPath>
		<path clip-path="url(#SVGID_234_)" fill="none" stroke="#2A77BC" stroke-width="1.895" stroke-miterlimit="10" d="M558.975,646.32
			h80.984c12.506,0,22.736,10.231,22.736,22.735v193.646c0,12.506-10.23,22.736-22.736,22.736h-80.984"/>
	</g>
	<g>
		<defs>
			<rect id="SVGID_235_" x="27.756" y="103.199" width="1210" height="1178"/>
		</defs>
		<clipPath id="SVGID_236_">
			<use xlink:href="#SVGID_235_"  overflow="visible"/>
		</clipPath>
		<rect x="576.091" y="687.707" clip-path="url(#SVGID_236_)" fill="#2A77BC" width="85.838" height="19.926"/>
	</g>
</g>
<text transform="matrix(1 0 0 1 608.1816 704.3672)" fill="#FFFFFF" font-family="'OCRAStd'" font-size="16.3571">A</text>
<text transform="matrix(1 0 0 1 619.1563 704.3672)" fill="#FFFFFF" font-family="'OCRAStd'" font-size="16.3571">O</text>
<g>
	<g>
		<defs>
			<rect id="SVGID_237_" x="27.756" y="103.199" width="1210" height="1178"/>
		</defs>
		<clipPath id="SVGID_238_">
			<use xlink:href="#SVGID_237_"  overflow="visible"/>
		</clipPath>
		
			<line clip-path="url(#SVGID_238_)" fill="none" stroke="#2A77BC" stroke-width="1.533" stroke-miterlimit="10" x1="575.325" y1="785.041" x2="662.695" y2="785.041"/>
	</g>
	<g>
		<defs>
			<rect id="SVGID_239_" x="27.756" y="103.199" width="1210" height="1178"/>
		</defs>
		<clipPath id="SVGID_240_">
			<use xlink:href="#SVGID_239_"  overflow="visible"/>
		</clipPath>
		
			<line clip-path="url(#SVGID_240_)" fill="none" stroke="#2A77BC" stroke-width="1.533" stroke-miterlimit="10" x1="575.325" y1="842.521" x2="662.695" y2="842.521"/>
	</g>
	<g>
		<defs>
			<rect id="SVGID_241_" x="27.756" y="103.199" width="1210" height="1178"/>
		</defs>
		<clipPath id="SVGID_242_">
			<use xlink:href="#SVGID_241_"  overflow="visible"/>
		</clipPath>
		<path clip-path="url(#SVGID_242_)" fill="none" stroke="#2C77BC" stroke-width="4.455" stroke-miterlimit="10" d="
			M711.684,675.596c0-6.451-3.345-12.153-8.38-15.479h-20.331c-5.034,3.326-8.381,9.028-8.381,15.479
			c0,5.806,2.708,11.004,6.918,14.41h23.256C708.976,686.6,711.684,681.4,711.684,675.596z"/>
	</g>
</g>
<rect x="27.756" y="103.199" fill="none" width="1210" height="1178"/>
<path fill="none" stroke="#010101" stroke-width="6.7365" stroke-miterlimit="10" d="M181.189,129.136"/>
<path fill="none" d="M599.597,440.123c-1.546-4.374-2.796-8.814-4.522-13.091c-0.756-1.892-1.646-3.225-2.466-4.721v45.031
	C600.156,461.06,603.083,449.991,599.597,440.123z"/>
<path d="M592.608,381.113v-18.749h-2.566c0.576,2.86,1.25,5.723,1.513,8.731C591.851,374.452,592.246,377.757,592.608,381.113z"/>
<path fill="#FF9425" d="M591.555,383.926c1.825,4.424,3.486,8.471,5.346,12.992c-3.8,2.088-7.647,3.93-11.48,5.855h18.635
	c4.31-2.682,8.486-5.478,12.631-8.355v-13.271C610.863,385.932,602.394,387.971,591.555,383.926z"/>
<path fill="#FF9425" d="M214.222,320.623h0.691c1.743,0,4.037-0.363,6.866-1.119c7.138-1.81,12.277-2.697,15.394-2.697
	c2.557,0,4.004,0.46,4.391,1.447c0.354,0.954,1.587,2.796,3.643,5.559c2.072,2.764,3.248,5.082,3.569,6.941v0.97
	c0,1.826-0.773,3.24-2.344,4.211c-1.916,1.167-8.568,4.243-19.99,9.243c-9.934,4.228-15.123,6.349-15.592,6.349
	c-0.131,0.247-1.11,6.892-2.943,19.884c14.736-9.802,25.007-14.704,30.812-14.704c1.521,0,2.681,0.444,3.503,1.348
	c1.974,1.925,3.824,4.573,5.559,7.994c1.735,3.421,2.829,6.381,3.306,8.947c0.049,0.378,0.083,0.69,0.132,0.954
	c0.033,0.494,0.065,0.921,0.065,1.15c0,1.35-0.354,2.418-1.094,3.175c-1.431,1.66-9.275,5.839-23.56,12.482
	c-13.511,6.43-21.561,9.604-24.185,9.604c-0.403,0-0.756-0.033-1.028-0.197c-9.432-3.453-14.604-7.795-15.525-12.96l-0.066-0.493
	c-0.058-0.527-0.074-1.02-0.074-1.547c0.46-10.887,2.105-28.041,4.934-51.444c3.856-30.755,7.664-47.003,11.472-48.747
	c3.725-1.595,9.851-3.438,18.412-5.493c9.695-2.303,16.857-3.421,21.487-3.421c3.249,0,5.205,0.79,5.847,2.384
	c1.628,3.175,2.813,6.547,3.487,10.181c0.099,0.641,0.164,1.25,0.214,1.825c0.033,0.773,0.066,1.448,0.066,2.024
	c0,2.598-0.617,4.572-1.851,5.871c-1.299,1.333-7.713,2.912-19.3,4.704c-9.802,1.595-14.703,2.55-14.736,2.878
	c-0.017,0.328-0.37,3.256-1.061,8.849L214.222,320.623z"/>
<path fill="#FF9425" d="M303.716,254.278c11.85,0,20.188,1.233,24.991,3.75c6.734,3.421,10.739,8.453,12.022,15.098
	c0.083,0.575,0.156,1.184,0.206,1.842c0.082,0.871,0.131,1.809,0.131,2.78c0,9.341-4.325,19.801-12.984,31.331
	c2.697,2.499,5.798,7.598,9.26,15.394c3.947,8.389,6.924,17.631,8.93,27.68l0.132,0.444c0.123,0.493,0.238,0.971,0.271,1.48
	c0.033,0.724,0.065,1.381,0.065,2.006c0,9.966-7.59,19.851-22.803,29.718c-13.963,9.045-27.383,14.655-40.245,16.842
	c-1.233,0.279-2.516,0.379-3.84,0.379c-6.406,0-12.212-2.468-17.384-7.336c-5.172-4.852-8.486-11.479-9.95-19.802
	c-0.223-1.201-0.403-2.435-0.56-3.65c-0.131-1.3-0.197-2.6-0.197-3.947c4.581-33.42,9.243-65.342,14.004-95.653
	C269.54,260.412,282.188,254.278,303.716,254.278z M291.62,372.462c3.166,0,8.47-2.401,15.937-7.237
	c2.64-1.727,5.255-4.556,7.763-8.553c2.64-4.045,3.972-7.696,3.972-10.953c0-0.361-0.016-0.724-0.05-1.053
	c-0.033-0.263-0.098-0.591-0.156-0.97c-0.501-3.042-2.492-5.478-5.962-7.385c-1.546-0.971-3.585-1.447-6.11-1.447
	c-6.924,0-15.493,2.73-25.747,8.157c-1.299,6.218-1.924,11.447-1.924,15.69c0,1.135,0.033,2.205,0.14,3.158
	c0.049,0.46,0.082,0.873,0.131,1.25c0.239,1.134,0.535,2.006,0.888,2.599C283.553,370.226,287.262,372.462,291.62,372.462z
	 M303.025,299.669c7.138-4.604,10.707-10.986,10.707-19.127v-0.181l-0.066-0.673c-0.32-1.925-2.648-2.912-6.94-2.912
	c-5.592,0-11.348,1.612-17.293,4.835l-3.66,24.505C292.056,305.212,297.803,303.09,303.025,299.669z"/>
<path fill="#FF9425" d="M389.707,353.039c17.021,9.819,26.792,20.344,29.258,31.659l0.198,0.542v0.872
	c0.049,0.345,0.082,0.657,0.082,1.067c0,2.237-0.822,4.655-2.483,7.204c-2.318,3.355-4.671,5.018-7.006,5.018
	c-1.743,0-2.977-1.054-3.717-3.158c-2.566-9.474-12.984-20.904-31.24-34.226c-3.298,1.529-6.586,2.483-9.884,2.895
	c0.049,0,0.082,0.017,0.082,0.066c0,0.807-0.921,5.049-2.746,12.813c-2.476,10.559-4.104,16.661-4.901,18.288
	c-1.949,4.178-4.564,6.315-7.813,6.315c-3.117,0-6.233-1.956-9.342-5.871c-2.648-3.174-4.251-6.331-4.802-9.407v-0.972
	c0-1.149,0.337-2.037,1.028-2.598c3.889-3.174,7.647-14.604,11.249-34.406c1.751-11.035,3.438-22.055,5.082-33.024
	c0.107-0.478,0.156-1.118,0.156-1.874c0-0.987-0.066-2.089-0.222-3.372c-0.083-0.954-0.255-2.121-0.469-3.454
	c-0.419-2.483-0.707-4.621-0.896-6.364c-0.131-1.414-0.197-2.565-0.197-3.453v-0.773c0.181-5.839,8.265-11.266,24.234-16.348
	c1.545-0.444,3.684-0.691,6.381-0.691c6.833,0,13.239,1.497,19.233,4.44c8.225,4.112,14.095,10.345,17.581,18.766
	c0.347,0.889,0.658,1.81,0.889,2.779c0.05,0.313,0.114,0.675,0.147,1.07c0.065,0.575,0.131,1.201,0.131,1.908
	c0,6.102-2.96,13.437-8.864,22.039C404.36,340.079,397.297,347.529,389.707,353.039z M401.713,305.937
	c-1.103-2.007-5.173-2.977-12.211-2.977c-7.796,0-12.795,1.874-14.992,5.657c-0.501,0.839-1.693,5.708-3.568,14.621
	c-1.563,7.615-2.335,12.516-2.335,14.704c2.105,0,5.435-1.185,10.016-3.569c4.564-2.369,7.779-4.638,9.622-6.825
	c2.845-3.24,5.625-6.924,8.379-10.937c3.396-5,5.074-8.421,5.074-10.296v-0.377L401.713,305.937L401.713,305.937z"/>
<path fill="#FF9425" d="M434.688,402.46c-8.931-1.217-14.013-5.164-15.245-11.825c-0.05-0.279-0.082-0.576-0.132-0.971
	c-0.032-0.591-0.049-1.15-0.049-1.743c0-0.953,0.033-1.957,0.115-2.977c1.892-11.874,9.951-30.805,24.193-56.822
	c14.274-26.15,23.945-39.241,29.044-39.241h0.263c0.362,0.082,0.691,0.115,0.889,0.115c0.526,0,1.069-0.115,1.728-0.313
	c1.332-0.099,2.138-0.197,2.417-0.197c2.386,0,5.329,2.237,8.849,6.661c1.431,1.825,2.73,6.102,3.93,12.779
	c0.904,4.935,1.729,10.673,2.451,17.203c1.021,9.802,1.843,21.528,2.483,35.195c0.543,10.838,0.822,19.062,0.822,24.703
	c0,6.363-0.526,9.884-1.595,10.591c-1.514,1.348-3.717,2.022-6.661,2.022c-3.8,0-6.382-1.282-7.763-3.864
	c-0.412-0.972-0.772-2.204-1.102-3.652c-0.033-0.591-0.101-1.184-0.197-1.842c-0.198-1.71-0.297-3.617-0.297-5.755
	c0-1.351,0.033-2.287,0.065-2.764c-2.614-0.938-5.821-1.381-9.671-1.381c-5.64,0-11.232,1.233-16.774,3.65
	c-4.771,2.006-8.19,4.11-10.229,6.348L434.688,402.46z M474.768,328.994c-0.641-0.378-1.232-0.561-1.825-0.561
	c-2.895,0-6.118,3.521-9.702,10.576c-2.007,4.096-4.311,9.786-6.925,17.104l17.17-1.546c2.154-1.94,3.24-3.142,3.24-3.65v-0.082
	c-0.065-0.132-0.329-3.109-0.757-8.963c-0.229-2.928-0.461-5.346-0.69-7.287c-0.23-2.006-0.444-3.535-0.625-4.622v-0.46
	C474.653,329.158,474.703,328.994,474.768,328.994z"/>
<path fill="#FF9425" d="M517.563,282.204c2.385,0,5.313,2.022,8.766,6.135c3.175,3.7,4.968,6.595,5.461,8.667v0.362
	c0,1.333-0.626,2.023-1.793,2.023h-0.213c-0.625,0-2.271,11.595-4.902,34.75c-2.631,23.157-5.146,42.531-7.532,58.105l-2.96,9.424
	c-1.232,0.445-2.435,0.691-3.553,0.691c-2.796,0-5.395-0.789-7.763-2.319c-3.256-1.859-5.395-4.72-6.38-8.651
	c-0.117-0.443-0.198-0.903-0.298-1.25c-0.049-0.51-0.131-1.102-0.262-1.76c-0.066-0.477-0.066-0.921-0.066-1.232
	c0-0.972,0.066-1.975,0.197-3.076c0.362-3.783,2.928-19.703,7.697-47.76c5.263-31.364,8.618-48.633,10.082-51.774
	C514.799,282.993,515.967,282.204,517.563,282.204z"/>
<path fill="#FF9425" d="M579.646,355.522c0.493-4.968,1.859-16.316,4.079-33.946c3.059-24.505,5.542-37.004,7.468-37.399
	c0.771-0.115,1.578-0.181,2.4-0.181c1.975,0,4.178,0.444,6.66,1.348c4.557,1.661,7.156,4.161,7.748,7.483v0.56
	c0,3.338-2.764,19.965-8.257,49.816c-5.114,27.481-7.696,43.04-7.696,46.626c0.197,0.213,0.295,0.723,0.295,1.562v0.378
	c0,1.185-0.576,2.386-1.727,3.453c-1.135,1.218-2.647,1.826-4.557,1.826c-4.408,0-8.289-3.536-11.578-10.591
	c-0.739-1.529-4.703-11.891-11.891-31.068c-5.214-13.813-8.239-20.737-9.062-20.737c-0.725,0.064-1.316,0.903-1.71,2.482
	c-0.362,1.545-0.691,3.174-0.955,4.901c-0.297,1.085-1.349,10.394-3.174,27.893c-1.563,15.361-2.353,24.67-2.353,27.86v1.25
	c0,2.17-1.48,3.257-4.473,3.257c-3.061,0-5.954-1.086-8.651-3.257c-3.339-2.763-5.411-6.48-6.184-11.15l-0.197-0.954
	c1.775-15.92,3.568-31.709,5.361-47.416c4.243-31.922,8.42-48.253,12.467-49.025c0.428-0.067,1.349-0.708,2.796-1.909
	c1.446-1.217,2.763-1.809,3.946-1.809c1.465,0,2.797,0.806,3.98,2.5c2.895,3.65,7.138,13.354,12.762,29.11
	C571.852,330.918,575.996,343.319,579.646,355.522z"/>
<path fill="none" d="M228.366,255.758c-1.973-4.211-4.35-9.243-6.973-14.835c-16.372,5.723-31.462,21.299-34.521,35.475h32.285
	C222.454,269.77,225.151,262.666,228.366,255.758z"/>
<path fill="none" d="M502.809,424.614c-6.053-6.728-7.138-13.963-6.446-21.562h-59.503c2.27,7.385,4.111,14.95,6.611,22.252
	c0.756,2.221,4.111,4.95,6.315,4.983c16.743,0.362,33.452,0.198,50.178-0.132c1.974-0.049,3.898-1.908,5.839-2.944
	c3.173,0.345,6.447,1.348,9.539,0.971c4.276-0.493,8.47-1.939,12.663-3.141c19.638-5.641,38.616-12.878,57.038-22.021h-85.112
	C498.862,410.158,499.75,417.394,502.809,424.614z"/>
<path fill="none" d="M186.888,282.27v-5.855C186.477,278.223,186.535,280.263,186.888,282.27z"/>
<path fill="none" d="M390.323,426.999c2.549,3.767,5.428,7.566,8.905,10.395c3.093,2.533,32.581-6.596,34.67-10.163
	c3.52-6.054,3.684-11.94-0.23-18.107c-1.283-1.991-2.369-4.03-3.421-6.102H374.92C380.39,410.75,385.003,419.137,390.323,426.999z"
	/>
<path fill="none" d="M552.314,266.909c-2.683,3.223-5.231,6.282-7.896,9.489h19.703C561.112,272.468,557.543,268.98,552.314,266.909
	z"/>
<path fill="none" d="M545.636,264.737c1.267-1.775,1.233-5.279,0.46-7.565c-5.278-15.723-19.078-17.729-32.729-19.769
	c-1.021-0.148-2.057-0.065-3.093-0.148c-1.002-0.082-1.989-0.214-2.96-1.003c6.58,0,13.287-0.823,19.638,0.28
	c4.687,0.806,6.282-0.576,8.141-4.276c2.665-5.247,6.069-10.099,9.177-15.115c0.543,0.329,1.069,0.625,1.598,0.971
	c-1.351,2.351-3.027,4.556-4.047,7.039c-2.861,7.006-6.677,14.259,2.895,19.588c1.216,0.674,1.81,2.434,2.729,3.684
	c6.513,8.684,12.894,17.483,19.638,25.986c1.069,1.348,4.046,2.105,5.838,1.743c4.853-1.069,9.523-2.895,14.869-3.404
	c-2.073,1.2-4.26,2.483-6.349,3.7h23.337c-3.06-12.582-8.602-24.078-19.062-33.7c-9.622-8.831-19.489-17.811-27.187-28.238
	c-11.545-15.723-26.019-19.473-44.043-15.986c-4.557,0.888-5.691,2.615-5.822,7.006c-0.296,8.404-1.415,16.809-2.17,25.212
	c-1.711-8.602-2.401-16.989-2.977-25.36c-0.725-10.46-6.202-17.878-15.017-22.779c-15.214-8.421-31.495-10.575-48.518-7.252
	c-8.289,1.628-13.88,6.315-16.249,14.571c-1.693,5.822-3.322,11.661-4.967,17.515c-0.362-5.755-0.099-11.38,0.789-16.907
	c1.021-6.15-1.546-9.868-6.906-12.203c-12.978-5.625-25.862-3.634-39.702,0.066c10.189,13.617,8.083,28.091,4.835,43.369
	c5.066,0,8.873,0,13.354,0c-1.027,1.217-1.299,1.875-1.653,1.925c-4.547,0.74-9.111,1.332-13.675,2.088
	c-11.2,1.825-13.889,4.868-13.824,16.348c0.033,6.743,0.757,13.503,1.176,20.246c-5.51-6.989-7.475-14.868-7.055-23.305
	c0.353-7.812,3.618-13.7,11.331-16.792c2.007-0.806,4.548-3.026,4.852-4.918c1.193-7.319,2.394-14.769,2.04-22.121
	c-0.469-9.571-5.37-14.275-14.925-15.788c-13.215-2.105-23.46,3.454-31.207,12.779c-2.607-0.345-4.745-1.25-6.595-0.822
	c-16.273,3.684-32.827,6.579-48.574,11.841c-12.245,4.062-24.234,10.099-34.908,17.351c-12.614,8.552-13.338,19.769-4.26,31.149
	c9.111-7.746,18.199-15.969,32.901-9.209c-17.68-0.231-34.71,15.164-43.345,33.863h27.285c-0.658-0.28-1.283-0.576-1.924-0.871
	c0.337-0.725,0.657-1.432,0.995-2.171c2.171,1.036,4.325,2.04,6.496,3.042h18.059c4.58-5.477,9.349-11.2,14.226-17.038
	c0.427,0.411,0.863,0.822,1.283,1.233c-3.167,5.263-6.184,10.592-9.416,15.805h28.921c-2.532-4.276-3.421-10.839-2.278-15.641
	c6.365-26.709-13.116-47.99-39.356-42.136c-0.436,0.099-0.962-0.197-1.48-0.295c21.676-10.46,38.041-1.02,47.152,29.571
	c11.858-12.599,15.986-23.24,17.737-42.548c0.568,2.582,1.48,5.164,1.612,7.779c0.641,12.877-3.783,24.127-11.2,34.472
	c-10.386,14.538-13.001,20.097-7.171,28.797h91.714c-0.033-0.411,0.032-0.806-0.017-1.25c-0.806-6.415-1.233-12.911-1.857-19.358
	c0.689-0.131,1.381-0.23,2.04-0.345c1.282,6.924,2.582,13.881,3.896,20.953h52.187c2.993-5.822,6.38-11.463,9.588-17.187
	c-1.53,5.904-3.586,11.579-5.691,17.187h70.704C539.814,272.5,542.84,268.701,545.636,264.737z M451.759,234.673
	c-1.842,8.947-3.567,17.598-5.329,26.249c-0.821-0.066-1.677-0.149-2.532-0.231c0-17.252,0-34.538,0-53.171
	c1.94,5.575,4.014,10.147,5.065,14.95c0.987,4.571,3.092,7.006,7.763,7.927c8.718,1.678,17.317,3.832,25.805,7.006
	C472.121,236.465,461.726,235.561,451.759,234.673z"/>
<path fill="none" d="M358.179,453.444c4.071-0.69,8.198-1.81,12.343-3.289c14.571-5.231,19.769-24.966,9.448-36.348
	c-3.388-3.75-7.006-7.302-10.731-10.755h-11.077v50.392H358.179L358.179,453.444z"/>
<path fill="none" d="M186.888,374.139v-36.1c-2.055-1.875-3.823-3.865-4.596-6.15c-3.15-9.293-0.189-17.286,4.596-24.226v-14.489
	c-2.516-3.109-5.024-6.217-7.631-9.424c-14.571,6.102-19.3,19.324-20.476,33.748c-1.118,13.569,2.829,25.459,17.746,30.688
	c-2.895,0-5.789,0-9.416,0c0.691,8.157,1.11,15.839,2.072,23.47c0.806,6.497,5.354,9.325,11.472,8.833
	c1.719-0.149,3.454-0.46,5.172-0.725v-5.625L186.888,374.139L186.888,374.139z"/>
<path fill="none" d="M551.869,423.743c4.343,2.187,7.451,3.783,10.559,5.328c-14.259-2.27-24.752-1.118-47.975,5.954
	c-9.62,2.96-18.682,6.446-20.147,18.731c-0.641-0.362-1.282-0.708-1.924-1.068c1.48-5.214,2.994-10.428,4.737-16.513
	c-11.924,0-23.749,0.378-35.525-0.164c-7.564-0.345-9.999,4.029-11.314,9.868c-2.877,12.746,6.678,27.269,20,30.41
	c18.058,4.243,36.248,3.833,54.272,0.147c8.617-1.743,14.538-7.368,16.809-16.217c0.772-3.059,1.333-6.15,2.006-9.242
	c0.658,0.146,1.283,0.313,1.94,0.46c-1.546,7.22-3.108,14.439-5.065,23.567c11.563-5.51,23.223-9.67,33.321-16.217
	c16.891-10.904,19.998-29.34,9.159-47.761C572.707,415.141,562.642,419.302,551.869,423.743z"/>
<path fill="#FF9425" d="M462.319,301.996h3.914c2.104-13.99,4.16-28.1,5.69-42.784C468.732,273.486,465.313,287.513,462.319,301.996
	z"/>
<path fill="#FF9425" d="M251.761,430.493c-27.621-9.952-81.771-52.358-82.593-58.838c-0.962-7.614-1.381-15.294-2.073-23.47
	c3.627,0,6.521,0,9.416,0c-14.917-5.246-18.881-17.137-17.754-30.688c1.184-14.407,5.913-27.646,20.484-33.748
	c2.606,3.19,5.115,6.315,7.63,9.424v-10.872c-0.353-2.006-0.395-4.046,0-5.871c3.06-14.194,18.149-29.752,34.521-35.475
	c2.623,5.591,4.983,10.625,6.973,14.834c-3.215,6.907-5.929,14.013-9.209,20.657h4.276c8.634-18.684,25.648-34.078,43.345-33.864
	c-14.719-6.76-23.815,1.463-32.901,9.209c-9.062-11.38-8.338-22.58,4.26-31.165c10.657-7.253,22.663-13.256,34.908-17.335
	c15.748-5.263,32.301-8.157,48.575-11.841c1.833-0.428,3.988,0.46,6.595,0.823c7.755-9.326,17.993-14.884,31.208-12.779
	c9.556,1.512,14.457,6.2,14.925,15.805c0.354,7.335-0.839,14.802-2.04,22.104c-0.304,1.874-2.845,4.111-4.852,4.917
	c-7.713,3.109-10.962,8.996-11.332,16.792c-0.403,8.436,1.546,16.314,7.056,23.304c-0.403-6.726-1.127-13.501-1.176-20.245
	c-0.049-11.48,2.64-14.506,13.824-16.349c4.563-0.756,9.127-1.348,13.675-2.088c0.353-0.049,0.625-0.707,1.652-1.924
	c-4.481,0-8.289,0-13.354,0c3.265-15.262,5.37-29.768-4.835-43.386c13.839-3.684,26.709-5.657,39.718-0.032
	c5.346,2.302,7.911,6.02,6.908,12.187c-0.921,5.509-1.168,11.134-0.823,16.907c1.646-5.839,3.29-11.694,4.968-17.516
	c2.369-8.255,8.01-12.959,16.281-14.571c17.006-3.322,33.288-1.184,48.485,7.269c8.814,4.869,14.309,12.287,15.033,22.762
	c0.575,8.372,1.266,16.759,2.993,25.361c0.757-8.404,1.857-16.809,2.138-25.213c0.164-4.392,1.299-6.102,5.854-7.007
	c18.025-3.486,32.481,0.28,44.044,15.986c7.664,10.428,17.531,19.391,27.17,28.239c10.476,9.621,16.018,21.117,19.078,33.698h8.914
	c-2.962-15.032-9.852-28.403-21.578-39.554c-10.56-10.065-20.641-20.723-30.163-31.808c-9.014-10.459-19.637-16.365-33.519-15.789
	c-5.132,0.231-10.229,1.053-15.36,1.053c-2.139,0-5.279-0.822-6.232-2.335c-14.03-22.466-61.922-29.045-80.803-16.15
	c-1.612,1.085-4.935,1.266-6.646,0.362c-11.938-6.348-24.415-6.924-37.481-4.868c-9.802,1.545-19.859,1.594-29.546,3.486
	c-7.376,1.48-14.432,4.737-21.553,7.384c-4.005,1.497-7.697,4.029-11.792,5.016c-23.691,5.69-48.048,8.98-70.145,20.147
	c-11.866,6.003-22.729,13.091-28.321,26.051c-0.773,1.809-2.969,3.388-4.868,4.26c-17.047,7.96-29.628,20.081-36.512,37.826
	c-0.707,1.842-2.491,3.948-4.292,4.622c-18.987,7.104-31.026,37.416-21.997,58.796c4.778,11.348,6.833,22.252,7.138,34.159
	c0.271,11.117,5.057,16.431,15.188,19.588c2.007,0.626,32.374,31.871,76.426,49.091c28.585,11.174,104.608,20.317,106.524,23.375
	v-7.763C356.533,453.609,298.761,447.428,251.761,430.493z"/>
<path fill="#FF9425" d="M628.395,343.352c-7.202-15.46-12.809-50.312-14.668-66.857l-8.949-0.046
	c0.823,1.48,13.239,62.759,14.013,64.635c1.743,4.276,2.993,8.749,4.539,13.091c3.487,9.869,0.56,20.954-6.99,27.203v13.289
	c1.103-0.757,2.254-1.447,3.339-2.236c9.045-6.646,13.914-15.985,12.96-27.335C631.996,357.743,631.422,349.831,628.395,343.352z"/>
<path fill="#FF9425" d="M404.229,256.023c0.593,10.812,1.036,21.682,1.843,32.385c0.049,0.743-0.017,1.403,0.017,2.091h4.063
	c-1.316-11.829-2.6-23.47-3.882-35.054C405.578,255.691,404.887,255.804,404.229,256.023z"/>
<path fill="#FF9425" d="M528.021,425.042c-4.193,1.201-8.389,2.614-12.663,3.141c-3.109,0.377-6.365-0.592-9.523-0.971
	c-1.973,1.036-3.881,2.896-5.854,2.944c-16.726,0.33-33.452,0.477-50.162,0.132c-2.204-0.033-5.593-2.763-6.315-4.983
	c-2.517-7.318-4.375-14.868-6.628-22.252h-6.627c1.069,2.071,2.138,4.111,3.421,6.085c3.898,6.167,3.75,12.038,0.23,18.107
	c-2.09,3.567-31.578,12.696-34.67,10.181c-3.478-2.862-6.339-6.661-8.906-10.428c-5.32-7.862-9.934-16.216-15.418-23.945h-5.65
	c3.725,3.453,7.343,7.006,10.731,10.755c10.32,11.381,5.123,31.134-9.449,36.348c-4.161,1.479-8.264,2.599-12.343,3.289v7.763
	c2.508-0.378,5-0.56,7.541-1.25c10.764-2.896,21.29-6.727,30.673-9.753c6.569,5.971,12.063,11.792,18.346,16.513
	c14.802,11.117,30.163,21.512,44.965,32.629c8.798,6.629,17.91,13.454,17.334,26.364c22.203-2.252,29.785-9.342,33.222-30.525
	c0.23-1.513,1.315-3.65,2.532-4.095c7.896-2.977,15.772-6.184,23.913-8.141c15.592-3.767,30.82-8.06,43.715-18.124
	c12.253-9.588,18.586-21.907,16.496-37.613c-0.789-6.003-2.582-11.874-3.864-17.433c3.553-2.287,7.104-4.49,10.625-6.694h-18.65
	C566.638,412.164,547.659,419.401,528.021,425.042z M573.563,458.79c-10.131,6.562-21.759,10.707-33.32,16.217
	c1.958-9.128,3.52-16.365,5.065-23.567c-0.658-0.165-1.283-0.33-1.94-0.46c-0.674,3.091-1.216,6.184-2.006,9.242
	c-2.253,8.815-8.191,14.474-16.809,16.217c-18.024,3.685-36.215,4.095-54.272-0.147c-13.322-3.142-22.895-17.664-20-30.41
	c1.315-5.839,3.75-10.213,11.314-9.868c11.776,0.542,23.602,0.164,35.525,0.164c-1.743,6.085-3.257,11.315-4.737,16.513
	c0.642,0.36,1.283,0.708,1.924,1.068c1.466-12.286,10.527-15.805,20.147-18.731c23.223-7.072,33.715-8.191,47.975-5.954
	c-3.107-1.579-6.216-3.158-10.559-5.328c10.772-4.44,20.87-8.603,30.87-12.714C593.594,429.449,590.469,447.885,573.563,458.79z"/>
<path fill="#FF9425" d="M572.954,276.118c-1.76,0.362-4.77-0.378-5.838-1.743c-6.761-8.503-13.142-17.302-19.638-25.986
	c-0.921-1.249-1.514-3.009-2.729-3.684c-9.572-5.328-5.756-12.582-2.896-19.588c1.021-2.45,2.699-4.704,4.048-7.039
	c-0.527-0.345-1.054-0.642-1.597-0.97c-3.091,5.032-6.513,9.9-9.176,15.114c-1.892,3.7-3.455,5.082-8.141,4.276
	c-6.384-1.07-13.076-0.28-19.639-0.28c0.972,0.789,1.974,0.921,2.96,1.003c1.036,0.082,2.073,0,3.092,0.148
	c13.684,2.04,27.449,4.046,32.744,19.77c0.758,2.286,0.79,5.789-0.476,7.565c-2.796,3.964-5.839,7.763-8.717,11.677h7.499
	c2.647-3.19,5.197-6.266,7.895-9.506c5.229,2.072,8.782,5.559,11.81,9.506h17.351c2.088-1.216,4.292-2.5,6.348-3.701
	C582.476,273.224,577.822,275.05,572.954,276.118z"/>
<path fill="#FF9425" d="M502.809,424.614c-3.059-7.221-3.946-14.424-2.861-21.562h-3.585
	C495.671,410.65,496.756,417.854,502.809,424.614z"/>
<path fill="#FF9425" d="M321.544,247.617c7.4-10.345,11.825-21.595,11.2-34.472c-0.131-2.615-1.061-5.181-1.612-7.779
	c-1.751,19.308-5.896,29.966-17.737,42.563c-9.111-30.59-25.476-40.063-47.152-29.571c0.518,0.099,1.044,0.362,1.48,0.28
	c26.241-5.871,45.721,15.41,39.356,42.136c-1.144,4.786-0.255,11.365,2.277,15.641h5.017
	C308.543,267.731,311.158,262.155,321.544,247.617z"/>
<path fill="#FF9425" d="M448.931,222.47c-1.036-4.802-3.107-9.375-5.049-14.95c0,18.633,0,35.919,0,53.171
	c0.872,0.082,1.693,0.165,2.549,0.231c1.744-8.651,3.487-17.269,5.296-26.249c9.967,0.888,20.396,1.775,30.771,2.697
	c-8.471-3.157-17.088-5.312-25.805-7.006C452.023,229.476,449.917,227.042,448.931,222.47z"/>
<polygon points="194.701,344.799 194.881,344.98 194.767,344.799 194.684,344.766 "/>
<polygon points="553.662,323.896 553.729,323.649 553.694,323.714 "/>
<path fill="#FF9425" d="M303.359,380.802c-12.547,2.083-23.632,6.909-32.295,16.456c-1.757,1.942-2.914,4.414-4.36,6.641
	c14.891-12.414,25.357-17.02,42.639-17.555c-15.189,28.073-10.315,46.343,12.431,54.251c-0.296-0.437-0.482-0.994-0.848-1.245
	c-22.707-14.403-21.433-43.226,1.965-57.623c4.193-2.576,8.217-7.856,9.451-12.67l-3.548-3.548
	C326.775,375.773,320.982,377.867,303.359,380.802z"/>
</svg>
