<?xml version="1.0" encoding="utf-8"?>
<!-- Generator: Adobe Illustrator 16.0.0, SVG Export Plug-In . SVG Version: 6.00 Build 0)  -->
<!DOCTYPE svg PUBLIC "-//W3C//DTD SVG 1.1//EN" "http://www.w3.org/Graphics/SVG/1.1/DTD/svg11.dtd">
<svg version="1.1" xmlns="http://www.w3.org/2000/svg" xmlns:xlink="http://www.w3.org/1999/xlink" x="0px" y="0px"
	 width="1209.969px" height="1177.965px" viewBox="0 0 1209.969 1177.965" enable-background="new 0 0 1209.969 1177.965"
	 xml:space="preserve">
<g id="Page_1_1_">
</g>
<g id="Page_2_1_">
</g>
<g id="Page_3_1_">
</g>
<g id="Page_4_1_">
</g>
<g id="Page_5_1_">
</g>
<g id="Page_6_1_">
</g>
<g id="Page_7_1_">
</g>
<g id="Page_8_1_">
</g>
<g id="Page_9_1_">
</g>
<g id="Page_10_1_">
</g>
<g id="Page_11_1_">
</g>
<g id="Page_12_1_">
</g>
<g id="Page_13_1_">
</g>
<g id="Page_14_1_">
</g>
<g id="Page_15_1_">
</g>
<g id="Page_16_1_">
</g>
<g id="Page_17_1_">
</g>
<g id="Page_18_1_">
</g>
<g id="Page_19_1_">
</g>
<g id="Page_20_1_">
</g>
<g id="Page_21_1_">
</g>
<g id="Page_22_1_">
</g>
<g id="Page_23_1_">
</g>
<g id="Page_24_1_">
</g>
<g id="Page_25_1_">
</g>
<g id="Page_26_1_">
</g>
<g id="Page_27_1_">
</g>
<g id="Page_28_1_">
</g>
<g id="Page_29_1_">
</g>
<g id="Page_30_1_">
</g>
<g id="Page_31_1_">
	<g id="Page_31">
		<g enable-background="new    ">
			<g>
				<defs>
					<rect id="SVGID_69_" y="-0.035" width="1210" height="1178"/>
				</defs>
				<clipPath id="SVGID_2_">
					<use xlink:href="#SVGID_69_"  overflow="visible"/>
				</clipPath>
				
					<rect y="0.065" clip-path="url(#SVGID_2_)" fill-rule="evenodd" clip-rule="evenodd" fill="#FFFFFF" width="1210" height="1177.999"/>
				<path clip-path="url(#SVGID_2_)" fill-rule="evenodd" clip-rule="evenodd" fill="#FFFFFF" d="M604.3,477.365
					c46,79.7,43.5,185-5.3,234.1c-48.6,48.4-125.2,22.201-171.1-57.299c-46.2-78.801-44.301-181,4.399-229.601
					C481.1,375.365,558.2,398.365,604.3,477.365z"/>
				<path clip-path="url(#SVGID_2_)" fill="none" stroke="#1A77BC" stroke-width="1.9244" stroke-miterlimit="7.6613" d="
					M604.3,477.365c46,79.7,43.5,185-5.3,234.1c-48.6,48.4-125.2,22.201-171.1-57.299c-46.2-78.801-44.301-181,4.399-229.601
					C481.1,375.365,558.2,398.365,604.3,477.365z"/>
				
					<rect x="834.8" y="874.465" clip-path="url(#SVGID_2_)" fill-rule="evenodd" clip-rule="evenodd" fill="#FFFFFF" width="26.4" height="148.4"/>
				
					<rect x="834.8" y="874.465" clip-path="url(#SVGID_2_)" fill="none" stroke="#1A77BC" stroke-width="0.9905" stroke-miterlimit="7.6613" width="26.4" height="148.4"/>
				
					<rect x="835.7" y="1034.465" clip-path="url(#SVGID_2_)" fill-rule="evenodd" clip-rule="evenodd" fill="#FFFFFF" width="24.7" height="7"/>
				
					<rect x="835.7" y="1034.465" clip-path="url(#SVGID_2_)" fill="none" stroke="#1A77BC" stroke-width="0.9905" stroke-miterlimit="7.6613" width="24.7" height="7"/>
				
					<rect x="837.8" y="1041.865" clip-path="url(#SVGID_2_)" fill-rule="evenodd" clip-rule="evenodd" fill="#FFFFFF" width="20.7" height="7"/>
				
					<rect x="837.8" y="1041.865" clip-path="url(#SVGID_2_)" fill="none" stroke="#06EEF4" stroke-width="0.9056" stroke-miterlimit="7.6613" width="20.7" height="7"/>
				<polygon clip-path="url(#SVGID_2_)" fill-rule="evenodd" clip-rule="evenodd" fill="#FFFFFF" points="855.9,1065.865 
					839.8,1065.865 838.5,1049.064 857.3,1049.064 				"/>
				<polygon clip-path="url(#SVGID_2_)" fill="none" stroke="#06EEF4" stroke-width="0.8773" stroke-miterlimit="7.6613" points="
					855.9,1065.865 839.8,1065.865 838.5,1049.064 857.3,1049.064 				"/>
				
					<rect x="834.8" y="788.064" clip-path="url(#SVGID_2_)" fill-rule="evenodd" clip-rule="evenodd" fill="#06EEF4" width="26.4" height="86.4"/>
				
					<rect x="834.8" y="893.166" clip-path="url(#SVGID_2_)" fill-rule="evenodd" clip-rule="evenodd" fill="#1A77BC" width="26.4" height="11.699"/>
				
					<rect x="834.8" y="1022.865" clip-path="url(#SVGID_2_)" fill-rule="evenodd" clip-rule="evenodd" fill="#1A77BC" width="26.4" height="11.699"/>
				<polygon clip-path="url(#SVGID_2_)" fill-rule="evenodd" clip-rule="evenodd" fill="#06EEF4" points="840.4,1065.766 
					840.4,1069.865 847.6,1081.064 855,1070.166 855.2,1065.766 				"/>
				
					<rect x="734.7" y="855.564" clip-path="url(#SVGID_2_)" fill-rule="evenodd" clip-rule="evenodd" fill="#FFFFFF" width="226.3" height="189.9"/>
				
					<rect x="734.7" y="855.564" clip-path="url(#SVGID_2_)" fill="none" stroke="#2C77BC" stroke-width="1.8395" stroke-miterlimit="7.6613" width="226.3" height="189.9"/>
				<path clip-path="url(#SVGID_2_)" fill="none" stroke="#2C77BC" stroke-width="1.8395" stroke-miterlimit="7.6613" d="
					M936.3,926.064l-5.6-1.1c2.5,12.9-4.9,25.6-17.2,29.9l3.7,4.199C930.2,953.564,937.9,940.064,936.3,926.064z"/>
				<path clip-path="url(#SVGID_2_)" fill="none" stroke="#2C77BC" stroke-width="1.8395" stroke-miterlimit="7.6613" d="
					M892.3,959.064l3.8-4.199c-12.399-4.301-19.699-17-17.3-29.9l-5.5,1.1C871.6,940.064,879.4,953.564,892.3,959.064z"/>
				<path clip-path="url(#SVGID_2_)" fill="none" stroke="#2C77BC" stroke-width="1.8395" stroke-miterlimit="7.6613" d="
					M885.7,904.564l1.8,5.301c9.9-8.6,24.6-8.6,34.5,0l1.8-5.301C912.5,896.064,897,896.064,885.7,904.564z"/>
				<path clip-path="url(#SVGID_2_)" fill="none" stroke="#2C77BC" stroke-width="1.8395" stroke-miterlimit="7.6613" d="
					M762.3,926.064l5.5-1.1c-2.399,12.9,5,25.6,17.3,29.9l-3.699,4.199C768.4,953.564,760.6,940.064,762.3,926.064z"/>
				<path clip-path="url(#SVGID_2_)" fill="none" stroke="#2C77BC" stroke-width="1.8395" stroke-miterlimit="7.6613" d="
					M806.2,959.064l-3.7-4.199c12.3-4.301,19.7-17,17.3-29.9l5.5,1.1C827,940.064,819.2,953.564,806.2,959.064z"/>
				<path clip-path="url(#SVGID_2_)" fill="none" stroke="#2C77BC" stroke-width="1.8395" stroke-miterlimit="7.6613" d="
					M812.8,904.564l-1.8,5.301c-9.9-8.6-24.5-8.6-34.5,0l-1.7-5.301C786,896.064,801.6,896.064,812.8,904.564z"/>
				<polygon clip-path="url(#SVGID_2_)" fill-rule="evenodd" clip-rule="evenodd" fill="#FFFFFF" points="394.1,860.064 
					634.3,734.564 634.3,483.266 394.1,601.766 				"/>
				<polyline clip-path="url(#SVGID_2_)" fill="none" stroke="#1A77BC" stroke-width="1.7263" stroke-miterlimit="7.6613" points="
					394.1,860.064 634.3,734.564 634.3,483.266 394.1,601.766 				"/>
				<polygon clip-path="url(#SVGID_2_)" fill-rule="evenodd" clip-rule="evenodd" fill="#FFFFFF" points="152.1,489.766 
					394.2,392.465 634.3,483.266 				"/>
				<polyline clip-path="url(#SVGID_2_)" fill="none" stroke="#1A77BC" stroke-width="1.7263" stroke-miterlimit="7.6613" points="
					152.1,489.766 394.2,392.465 634.3,483.266 				"/>
				<path clip-path="url(#SVGID_2_)" fill="none" stroke="#1A77BC" stroke-width="2.6602" stroke-miterlimit="7.6613" d="
					M604.4,596.766l-6.601,1.299c8.5,13.102,6.2,30.602-5.5,40.9l6,3C610.2,629.965,612.7,611.564,604.4,596.766z"/>
				<path clip-path="url(#SVGID_2_)" fill="none" stroke="#1A77BC" stroke-width="2.6602" stroke-miterlimit="7.6613" d="
					M570.8,653.266l2.2-6.4c-15.6,0.9-29.6-9.801-32.7-25.199l-5.6,3.799C539.2,641.766,553.9,653.064,570.8,653.266z"/>
				<path clip-path="url(#SVGID_2_)" fill="none" stroke="#1A77BC" stroke-width="2.6602" stroke-miterlimit="7.6613" d="
					M538.7,595.865l4.399,5.1c7-13.899,23.301-20.6,38.2-15.6l-0.5-6.8C564.5,574.365,547.3,581.465,538.7,595.865z"/>
				<path clip-path="url(#SVGID_2_)" fill="none" stroke="#1A77BC" stroke-width="2.6602" stroke-miterlimit="7.6613" d="
					M431.3,673.166l6.3-2.5c-0.199,15.699,11.101,29.199,26.5,31.699l-3.5,5.699C444.2,704.266,432.2,690.064,431.3,673.166z"/>
				<path clip-path="url(#SVGID_2_)" fill="none" stroke="#1A77BC" stroke-width="2.6602" stroke-miterlimit="7.6613" d="
					M490,702.865l-5.3-4.199c13.6-7.701,19.6-24.201,14-38.801l6.8,0.1C510.4,676.166,504.1,693.666,490,702.865z"/>
				<path clip-path="url(#SVGID_2_)" fill="none" stroke="#1A77BC" stroke-width="2.6602" stroke-miterlimit="7.6613" d="
					M486.3,637.166l-1,6.699c-13.399-8-30.8-4.9-40.7,7.301l-3.199-6C452.9,632.865,471.2,629.564,486.3,637.166z"/>
				<polygon clip-path="url(#SVGID_2_)" fill-rule="evenodd" clip-rule="evenodd" fill="#FFFFFF" points="261.6,540.465 
					427.9,470.766 446.1,478.565 404.4,498.166 495.9,534.965 534.7,516.465 553.9,523.065 394.1,601.766 				"/>
				<polyline clip-path="url(#SVGID_2_)" fill="none" stroke="#1A77BC" stroke-width="1.7263" stroke-miterlimit="7.6613" points="
					261.6,540.465 427.9,470.766 446.1,478.565 404.4,498.166 495.9,534.965 534.7,516.465 553.9,523.065 394.1,601.766 				"/>
				
					<line clip-path="url(#SVGID_2_)" fill="none" stroke="#1A77BC" stroke-width="1.7263" stroke-miterlimit="7.6613" x1="394.1" y1="392.465" x2="394.1" y2="484.965"/>
				<path clip-path="url(#SVGID_2_)" fill="none" stroke="#1A77BC" stroke-width="1.7263" stroke-miterlimit="7.6613" d="
					M422.2,558.965c0,10.201-12.8,18.4-28.601,18.4c-15.8,0-28.6-8.199-28.6-18.4c0-10.299,12.8-18.5,28.6-18.5
					C409.4,540.465,422.2,548.666,422.2,558.965z"/>
				
					<rect x="372.8" y="182.065" clip-path="url(#SVGID_2_)" fill-rule="evenodd" clip-rule="evenodd" fill="#FFFFFF" width="39.9" height="224.101"/>
				
					<rect x="372.8" y="182.065" clip-path="url(#SVGID_2_)" fill="none" stroke="#06EEF4" stroke-width="1.4999" stroke-miterlimit="7.6613" width="39.9" height="224.101"/>
				
					<rect x="374.2" y="423.766" clip-path="url(#SVGID_2_)" fill-rule="evenodd" clip-rule="evenodd" fill="#FFFFFF" width="37.2" height="10.6"/>
				
					<rect x="374.2" y="423.766" clip-path="url(#SVGID_2_)" fill="none" stroke="#06EEF4" stroke-width="1.4999" stroke-miterlimit="7.6613" width="37.2" height="10.6"/>
				
					<rect x="377.3" y="434.965" clip-path="url(#SVGID_2_)" fill-rule="evenodd" clip-rule="evenodd" fill="#FFFFFF" width="31.2" height="10.5"/>
				
					<rect x="377.3" y="434.965" clip-path="url(#SVGID_2_)" fill="none" stroke="#06EEF4" stroke-width="1.3867" stroke-miterlimit="7.6613" width="31.2" height="10.5"/>
				<polygon clip-path="url(#SVGID_2_)" fill-rule="evenodd" clip-rule="evenodd" fill="#FFFFFF" points="404.7,471.065 
					380.4,471.065 378.5,445.766 406.8,445.766 				"/>
				<polygon clip-path="url(#SVGID_2_)" fill="none" stroke="#06EEF4" stroke-width="1.3018" stroke-miterlimit="7.6613" points="
					404.7,471.065 380.4,471.065 378.5,445.766 406.8,445.766 				"/>
				
					<rect x="372.8" y="51.565" clip-path="url(#SVGID_2_)" fill-rule="evenodd" clip-rule="evenodd" fill="#06EEF4" width="39.9" height="130.601"/>
				
					<rect x="372.8" y="210.266" clip-path="url(#SVGID_2_)" fill-rule="evenodd" clip-rule="evenodd" fill="#06EEF4" width="39.9" height="17.699"/>
				
					<rect x="372.8" y="406.166" clip-path="url(#SVGID_2_)" fill-rule="evenodd" clip-rule="evenodd" fill="#06EEF4" width="39.9" height="17.6"/>
				<polygon clip-path="url(#SVGID_2_)" fill-rule="evenodd" clip-rule="evenodd" fill="#06EEF4" points="381.2,470.965 
					381.2,477.266 392.2,494.166 403.3,477.666 403.7,470.965 				"/>
				<path clip-path="url(#SVGID_2_)" fill="none" stroke="#06EEF4" stroke-width="3.9903" stroke-miterlimit="7.6613" d="
					M395.5,534.266c-0.7,3.199-1.4,6.5-1.9,9.8"/>
				<path clip-path="url(#SVGID_2_)" fill-rule="evenodd" clip-rule="evenodd" fill="#06EEF4" d="M393.6,568.166
					c-4.1-11.4-11.1-25.601-18.5-34.5l18.9,7.199l19.1-6.6C405.4,542.865,398,556.865,393.6,568.166z"/>
				
					<line clip-path="url(#SVGID_2_)" fill="none" stroke="#06EEF4" stroke-width="8.9711" stroke-miterlimit="7.6613" x1="392.7" y1="500.666" x2="392.7" y2="542.266"/>
				<polygon clip-path="url(#SVGID_2_)" fill="none" stroke="#1A77BC" stroke-width="1.7263" stroke-miterlimit="7.6613" points="
					394.2,601.766 152.1,489.766 152.1,736.064 394.2,860.064 				"/>
				<path clip-path="url(#SVGID_2_)" fill-rule="evenodd" clip-rule="evenodd" fill="#FFFFFF" d="M348.3,601.965
					c48.9,72.701,46.7,176.9-4.399,229.1c-50.9,50.102-131.5,29.201-180.3-42.898c-49.1-69.9-47.8-164.602,3.2-215.301
					C217.9,520.166,299.4,531.465,348.3,601.965z"/>
				<path clip-path="url(#SVGID_2_)" fill="none" stroke="#1A77BC" stroke-width="1.9244" stroke-miterlimit="7.6613" d="
					M348.3,601.965c48.9,72.701,46.7,176.9-4.399,229.1c-50.9,50.102-131.5,29.201-180.3-42.898
					c-49.1-69.9-47.8-164.602,3.2-215.301C217.9,520.166,299.4,531.465,348.3,601.965z"/>
				<polygon clip-path="url(#SVGID_2_)" fill-rule="evenodd" clip-rule="evenodd" fill="#FFFFFF" points="274.1,661.166 
					237,656.666 218.6,693.365 237.3,735.064 274.3,740.465 292.6,703.266 				"/>
				<polygon clip-path="url(#SVGID_2_)" fill="none" stroke="#1A77BC" stroke-width="1.9244" stroke-miterlimit="7.6613" points="
					274.1,661.166 237,656.666 218.6,693.365 237.3,735.064 274.3,740.465 292.6,703.266 				"/>
				
					<rect x="715.5" y="941.465" clip-path="url(#SVGID_2_)" fill-rule="evenodd" clip-rule="evenodd" fill="#FFFFFF" width="19.2" height="14.5"/>
				
					<rect x="715.5" y="941.465" clip-path="url(#SVGID_2_)" fill="none" stroke="#2C77BC" stroke-width="1.8395" stroke-miterlimit="7.6613" width="19.2" height="14.5"/>
				
					<rect x="961" y="941.465" clip-path="url(#SVGID_2_)" fill-rule="evenodd" clip-rule="evenodd" fill="#FFFFFF" width="19.1" height="14.5"/>
				
					<rect x="961" y="941.465" clip-path="url(#SVGID_2_)" fill="none" stroke="#2C77BC" stroke-width="1.8395" stroke-miterlimit="7.6613" width="19.1" height="14.5"/>
				
					<rect x="702.2" y="825.064" clip-path="url(#SVGID_2_)" fill-rule="evenodd" clip-rule="evenodd" fill="#FFFFFF" width="18" height="251.701"/>
				
					<rect x="702.2" y="825.064" clip-path="url(#SVGID_2_)" fill="none" stroke="#2C77BC" stroke-width="1.8395" stroke-miterlimit="7.6613" width="18" height="251.701"/>
				
					<rect x="975.4" y="825.064" clip-path="url(#SVGID_2_)" fill-rule="evenodd" clip-rule="evenodd" fill="#06EEF4" width="18" height="251.701"/>
				<path clip-path="url(#SVGID_2_)" fill="none" stroke="#06EEF4" stroke-width="3.2545" stroke-miterlimit="7.6613" d="
					M1080.6,1040.766c0-35.5-28.899-64.301-64.399-64.301"/>
				
					<line clip-path="url(#SVGID_2_)" fill="none" stroke="#B7B6B6" stroke-width="3.2262" stroke-miterlimit="7.6613" x1="1016.2" y1="1041.465" x2="1016.6" y2="953.965"/>
				<path clip-path="url(#SVGID_2_)" fill-rule="evenodd" clip-rule="evenodd" fill="#B7B6B6" d="M1016.6,934.365
					c3.4,9.199,9.301,20.699,15.4,27.9l-15.4-5.701l-15.6,5.602C1007.3,955.064,1013.2,943.564,1016.6,934.365z"/>
				
					<line clip-path="url(#SVGID_2_)" fill="none" stroke="#B7B6B6" stroke-width="3.2262" stroke-miterlimit="7.6613" x1="1016.2" y1="1041.465" x2="1098.5" y2="1041.166"/>
				<path clip-path="url(#SVGID_2_)" fill-rule="evenodd" clip-rule="evenodd" fill="#B7B6B6" d="M1118.2,1041.166
					c-9.3,3.398-20.7,9.299-27.8,15.6l5.5-15.5l-5.601-15.5C1097.4,1031.865,1108.9,1037.766,1118.2,1041.166z"/>
				<polygon clip-path="url(#SVGID_2_)" fill-rule="evenodd" clip-rule="evenodd" fill="#FFFFFF" points="629,485.065 565,514.065 
					496,471.065 				"/>
				<path clip-path="url(#SVGID_2_)" fill="#06EEF4" d="M1080.153,989.957v-4.244c0.943,0.441,1.846,0.771,2.707,0.992
					s1.712,0.33,2.553,0.33c1.764,0,3.138-0.49,4.122-1.469s1.563-2.432,1.738-4.361c-0.697,0.514-1.44,0.898-2.23,1.154
					c-0.789,0.256-1.646,0.385-2.568,0.385c-2.349,0-4.242-0.684-5.684-2.053c-1.44-1.369-2.16-3.172-2.16-5.406
					c0-2.473,0.802-4.451,2.406-5.938c1.605-1.486,3.756-2.23,6.453-2.23c2.993,0,5.311,1.01,6.951,3.029
					c1.641,2.021,2.461,4.877,2.461,8.568c0,3.793-0.958,6.775-2.876,8.943c-1.917,2.168-4.548,3.254-7.89,3.254
					c-1.077,0-2.107-0.08-3.092-0.238C1082.061,990.514,1081.097,990.275,1080.153,989.957z M1087.459,978.898
					c1.035,0,1.814-0.336,2.338-1.008c0.523-0.67,0.784-1.678,0.784-3.021c0-1.332-0.261-2.338-0.784-3.016
					c-0.523-0.676-1.303-1.014-2.338-1.014c-1.036,0-1.814,0.338-2.338,1.014c-0.523,0.678-0.784,1.684-0.784,3.016
					c0,1.344,0.261,2.352,0.784,3.021C1085.645,978.563,1086.423,978.898,1087.459,978.898z M1119.303,979.006
					c0,3.805-0.82,6.74-2.461,8.807s-3.968,3.1-6.982,3.1c-3.025,0-5.357-1.033-6.998-3.1s-2.461-5.002-2.461-8.807
					c0-3.814,0.82-6.754,2.461-8.82s3.973-3.1,6.998-3.1c3.015,0,5.342,1.033,6.982,3.1S1119.303,975.191,1119.303,979.006z
					 M1113.382,978.961c0-2.871-0.27-4.895-0.808-6.068c-0.539-1.174-1.443-1.762-2.715-1.762s-2.18,0.588-2.723,1.762
					s-0.815,3.197-0.815,6.068c0,2.902,0.272,4.947,0.815,6.137s1.451,1.783,2.723,1.783c1.261,0,2.163-0.594,2.707-1.783
					C1113.109,983.908,1113.382,981.863,1113.382,978.961z M1128.724,966.871c0.677,0,1.327,0.131,1.953,0.393
					s1.185,0.633,1.677,1.115c0.481,0.492,0.849,1.045,1.1,1.66s0.377,1.271,0.377,1.969c0,0.688-0.126,1.342-0.377,1.961
					c-0.251,0.621-0.607,1.162-1.069,1.623c-0.492,0.492-1.056,0.869-1.691,1.131s-1.303,0.393-2,0.393
					c-1.445,0-2.658-0.49-3.638-1.469c-0.979-0.98-1.469-2.193-1.469-3.639s0.495-2.662,1.484-3.652
					S1127.277,966.871,1128.724,966.871z M1128.724,969.363c-0.738,0-1.364,0.256-1.877,0.768c-0.513,0.514-0.769,1.139-0.769,1.877
					s0.254,1.359,0.762,1.861c0.507,0.502,1.135,0.754,1.884,0.754c0.738,0,1.363-0.254,1.876-0.762s0.77-1.125,0.77-1.854
					c0-0.738-0.259-1.363-0.777-1.877C1130.074,969.619,1129.451,969.363,1128.724,969.363z"/>
			</g>
		</g>
	</g>
</g>
<g id="Page_32_1_">
</g>
<g id="Page_33_1_">
</g>
<g id="Page_34_1_">
</g>
<g id="Page_35_1_">
</g>
<g id="Page_36_1_">
</g>
<g id="Page_37_1_">
</g>
<g id="Page_38_1_">
</g>
</svg>
