<?xml version="1.0" encoding="utf-8"?>
<!-- Generator: Adobe Illustrator 16.0.0, SVG Export Plug-In . SVG Version: 6.00 Build 0)  -->
<!DOCTYPE svg PUBLIC "-//W3C//DTD SVG 1.1//EN" "http://www.w3.org/Graphics/SVG/1.1/DTD/svg11.dtd">
<svg version="1.1" xmlns="http://www.w3.org/2000/svg" xmlns:xlink="http://www.w3.org/1999/xlink" x="0px" y="0px"
	 width="1209.969px" height="1177.966px" viewBox="0 0 1209.969 1177.966" enable-background="new 0 0 1209.969 1177.966"
	 xml:space="preserve">
<g id="Page_1_1_">
</g>
<g id="Page_2_1_">
</g>
<g id="Page_3_1_">
</g>
<g id="Page_4_1_">
</g>
<g id="Page_5_1_">
</g>
<g id="Page_6_1_">
</g>
<g id="Page_7_1_">
</g>
<g id="Page_8_1_">
</g>
<g id="Page_9_1_">
</g>
<g id="Page_10_1_">
</g>
<g id="Page_11_1_">
</g>
<g id="Page_12_1_">
</g>
<g id="Page_13_1_">
</g>
<g id="Page_14_1_">
</g>
<g id="Page_15_1_">
</g>
<g id="Page_16_1_">
</g>
<g id="Page_17_1_">
</g>
<g id="Page_18_1_">
</g>
<g id="Page_19_1_">
</g>
<g id="Page_20_1_">
</g>
<g id="Page_21_1_">
</g>
<g id="Page_22_1_">
</g>
<g id="Page_23_1_">
	<g id="Page_23">
		<g enable-background="new    ">
			<g>
				<defs>
					<rect id="SVGID_49_" y="-0.034" width="1210" height="1178"/>
				</defs>
				<clipPath id="SVGID_2_">
					<use xlink:href="#SVGID_49_"  overflow="visible"/>
				</clipPath>
				
					<rect y="0.065" clip-path="url(#SVGID_2_)" fill-rule="evenodd" clip-rule="evenodd" fill="#FFFFFF" width="1210" height="1178"/>
				<path clip-path="url(#SVGID_2_)" fill-rule="evenodd" clip-rule="evenodd" fill="#2A77BC" d="M350,580.165
					c14.3,10.6,14.2,10.201,28.1,2c28.5-16.9,57.301-33.3,86-49.8c2-1.2,3.9-2.399,7-4.399c-14.3-8.4-27.899-15.9-40.8-24.301
					c-3.7-2.3-5.5-7.5-8.399-11.199c-2.2-2.801-4.7-5.4-7.2-7.9c-4.101-4.301-10-7.801-12.101-12.9c-2.199-5.5-1.3-12.5,5.4-16.5
					c6.7-4.1,13.2-7,20.4-1.1c4.1,3.3,8.399,4,13,0.6c4.699-3.6,9.6-3.5,14.899-0.4c2.601,1.5,7.101,2.601,9.2,1.4
					c7.2-4.4,12.7-1.6,19,2c67.4,39.1,135,78,202.6,116.9c27.9,16,56,31.9,83.801,48.301c5,3,8.6,2.5,13-0.102
					c24.3-14.1,48.6-28.199,72.899-42.299c7.2-4.201,14.7-8.101,21.601-12.701c6.699-4.5,12.199-5.199,19.399-0.199
					c5.3,3.6,7.101,7,7,13c-0.1,65.801,0,131.5,0,197.199c0,20.4-0.3,40.801,0.101,61.201c0.1,6-1.9,9.6-6.801,12.4
					c-29.3,16.799-58.6,33.6-87.8,50.398c-34.2,19.602-68.3,39.4-102.5,59c-4.7,2.701-10.1,4.4-14.1,7.801c-7.5,6.4-13.7,5.5-21.4,0
					c-4.899-3.5-5.5-7.1-5.5-12c0.101-67.9,0.101-135.699,0.101-203.5c0-17.4,0.399-34.9-0.2-52.199
					c-0.4-8.201,2.899-12.602,9.7-16.201c10.199-5.4,20.1-11.4,30.1-17.199c-6.7-11-15.1-13.201-25.1-7.4
					c-30.2,17.5-60.5,35-90.7,52.5c-1.5,0.9-2.9,2-5.3,3.699c2.199,1.801,3.8,3.4,5.699,4.5c12.101,7.102,24.4,13.9,36.4,21.102
					c2.1,1.299,5.1,3.898,4.9,5.6c-1,9.5,5.899,12.1,12.3,15.4c7.899,4.1,11.399,10.398,7.3,20c-2.3,5.199-9.7,8.6-15.4,11.799
					c-1.5,0.9-5.399-1.699-7.8-3.299c-5.6-3.602-11.1-4.701-16.5-0.201c-4.3,3.6-7.8,2.1-12-0.199c-3.1-1.6-8.1-3-10.6-1.6
					c-6.601,3.5-11.2,2-17.2-1.5c-76.4-44.5-153-88.701-229.5-133c-16.5-9.602-32.8-19.5-49-29.602c-7.5-4.6-13.6-5.699-22-0.398
					c-27.7,17.1-56,33.199-84.2,49.5c-14.1,8.299-27,0.699-27-15.5c0-84.4,0-168.701-0.2-253.001c0-7.601,2.4-11.899,9.2-15.601
					c33.9-18.899,67.5-38.399,101.101-57.799c19.1-10.9,38.1-21.801,57.1-33c14.6-8.601,29-17.601,43.6-26.201
					c6.101-3.5,12.101-3.799,18.7,0c5.2,3,6.7,6.5,6.7,12.201c-0.1,85.899-0.2,171.699,0.1,257.5c0,7.299-3,11.1-8.6,14.199
					c-9.4,5.2-18.8,10.5-28.1,16C356.9,575.165,353.7,577.665,350,580.165z M629.9,747.765
					c-23.801-13.799-45.301-26.398-65.7-38.299c41.6-24.1,83.2-48.1,124.399-72c1.9,5.199,2.101,10.799,5,13.5
					c12.9,12.299,18.5,12.5,34,3.6c2.5-1.5,5.4-2.6,7.9-4.1c11.8-6.9,23.6-13.801,36.7-21.4c-3.5-2.5-5.5-4.1-7.7-5.4
					c-42.7-24.699-85.5-49.4-128.3-74c-51.9-29.9-103.8-59.699-155.601-89.8c-4.899-2.8-8.699-3.601-13.899-0.3
					c-2.5,1.6-7,0.199-10.5-0.301c-3.9-0.399-9.2-3.299-11.4-1.699c-7.5,5.699-13.1,2.9-20.3-0.6c-3.7-1.9-10.6-0.301-14.4,2.299
					c-2.6,1.701-3.6,8.201-2.699,11.9c0.899,3.5,5.1,6.301,8.699,10.2c2.2-5.7,3.4-8.899,4.601-12.101c0.6,0.101,1.3,0.301,2,0.4
					c0.7,2.7,1.399,5.5,2.2,8.6c3.899-1.399,7.5-2.6,11-3.899c-0.101,2.8-1.101,3.8-2.101,4.5c-10.6,6.7-10.6,16.3,0,22.7
					c11.5,7,22.8,14.3,34.7,20.4c3.7,1.899,9.4,0.6,14-0.201c3.2-0.5,6.1-2.699,9.2-4.1c0.3,0.7,0.6,1.5,1,2.2
					c-1.7,1.2-3.2,2.3-5,3.3c-37.8,21.9-75.8,43.5-113.4,65.801c-7.399,4.4-12.7,4.199-19.5-0.101
					c-15.2-9.601-30.5-18.899-46.1-27.7c-3.3-1.9-8.4-3-11.5-1.699c-6,2.299-10.3,0.699-15-2.4s-9.4-7.301-14.601-8.4
					c-4.899-1.1-11.199,0.1-15.399,2.7c-2.601,1.601-2.2,7.8-3.601,13.399c7.2-2.399,11.801-4,16.4-5.5
					c-4.1,6.601-15.5,6.801-11.1,18.4c4.1-1.1,7.899-2.199,11.699-3.3c-1.199,3.2-2.899,4.2-4.6,5.2c-9.1,5.3-9.5,17.1-0.7,22.4
					c36,21.4,71.9,43,108.101,64c67.3,39,134.899,77.699,202.3,116.4c3.2,1.898,6.7,3.1,10.899,5c0.601-8.701,0.7-16.5,11-17.301
					c1.301,13.9,3.2,16.301,14.601,17.4c-1-8.801,2.1-14.9,12.899-17.1c-2.5,12.398,5.301,16.398,16.4,19.699
					c-3.6-11.199,5-15,11.9-20.4c-10.4-6.1-20-11.6-31.2-18.1C622,750.065,624.4,749.366,629.9,747.765z M683.1,704.065h0.601v265.1
					c4.1-2,7.3-3.199,10.3-4.9c36.2-20.898,72.4-42,108.6-62.898c30.601-17.602,61.2-35.301,91.9-52.701
					c4.6-2.699,6.7-5.699,6.7-11.4c-0.2-84.898-0.2-169.799-0.2-254.699c0-11.6-8.5-16.801-18.7-12c-2.399,1.1-4.8,2.4-7.1,3.699
					c-33.4,19.301-66.8,38.701-100.2,58c-32.3,18.701-64.8,37.301-97,56.102c-2.5,1.5-5.4,4.398-5.8,7c-1.101,8.199-1.5,16.6-1.5,25
					c-0.101,78.299-0.101,156.6-0.101,234.898c0,6.201,2.301,10.9,8.5,11.4c1,0.1,3.801-7,3.801-10.9
					C683.1,871.866,683.1,787.966,683.1,704.065z M299.1,549.966c11.5,7.1,22.801,14.299,34.301,21.1c4.899,3,9.3,8.1,16.199,3.9
					c12.301-7.4,25.101-14.101,37.101-21.9c3.1-2,6.2-6.9,6.2-10.5c0.3-85.9,0.199-171.7,0.199-257.6
					c0-8.201-10.199-14.4-17.399-10.4c-14,7.8-27.8,16-41.601,24.1c-26.1,15.301-52.1,30.801-78.3,46
					c-27.6,16.1-55.5,31.7-83.1,47.9c-2.8,1.699-5.8,5.5-6.101,8.699c-1.3,12.101-2,24.4-2,36.701c-0.1,71.1-0.1,142.199,0,213.4
					c0,4.1,0.7,8.299,1.601,12.398c2.2,9.701,9.2,12.602,18,7.5c20.7-11.799,41.5-23.799,62.2-35.799
					c9.8-5.6,19.399-11.4,30.699-18.201c-8-4.898-14.8-8.5-20.899-13c-3-2.299-6-6-6.9-9.5c-1.6-6.699-1.2-13.699-2.3-20.5
					c-0.6-3.899-1.4-9.199-4.1-11.199c-21.5-16-22.4-38.5-17.7-61c4.3-20.301,12.1-39.9,18.8-59.7c5.6-16.601,15.6-31.8,14.3-50.5
					c-0.1-2.3,3.101-5.601,5.5-7.101c11.2-6.899,22.601-13.5,34-19.899c6.8-3.899,13.9-7.3,20.9-11c-9.3,16.601-3.7,28.7,9,39.3
					c3.2,2.6,6.2,5.4,9.399,8.1c-1.1,0.5-2.199,1-3.3,1.5c0.601,3.601-0.1,9,2,10.601c12.3,9.3,14.601,22.8,13.9,36.101
					c-1.4,24.199-9.7,46.899-22.7,67.1C319.2,528.765,308.4,538.966,299.1,549.966z M301,368.765c-3.8,1.9-7.1,3.201-10.1,5.101
					c-13.7,9-29.9,12.8-30.801,36.3c-0.8,19.5-12.5,38.5-19.3,57.801c-3.7,10.399-7.899,20.6-10.7,31.199c-4.3,16-4.1,32,4,47.1
					c4.301,8.101,6.301,7.801,14.101,2.801c5.1-3.2,11.899-6.5,17.3-5.7c5.9,0.8,10.4,0.899,14.9-2.8
					c28.699-23.2,49-51.1,51.699-89.5c1.2-17.7,4.101-35.301-10.6-49.4c-0.8-0.8-1.5-2.5-1.2-3.199c3.3-6.301-1.7-9.301-4.899-13
					C310.7,380.065,306.1,374.665,301,368.765z"/>
				
					<path clip-path="url(#SVGID_2_)" fill="none" stroke="#2A77BC" stroke-width="2.5187" stroke-linejoin="round" stroke-miterlimit="10" d="
					M564.2,611.665c-11.5,5.201-22.3,0-25.4-10.699c-0.6-2.301-3.5-5-5.8-5.701c-15-4-28.9-2.299-40.6,9.201
					c-9.2,9.1-8.7,16.799,2.5,24c18.899,12.1,38.399,11.5,57.899,1.5C559.8,626.366,563.1,620.466,564.2,611.665z"/>
				
					<path clip-path="url(#SVGID_2_)" fill="none" stroke="#2A77BC" stroke-width="2.5187" stroke-linejoin="round" stroke-miterlimit="10" d="
					M629.9,747.866c-5.5,1.6-7.9,2.299-12.7,3.699c11.2,6.5,20.8,12,31.2,18.1c-6.9,5.5-15.5,9.201-11.9,20.4
					c-11.1-3.301-18.9-7.301-16.4-19.699c-10.8,2.299-13.899,8.398-12.899,17.1c-11.4-1.1-13.3-3.5-14.601-17.301
					c-10.3,0.801-10.399,8.6-11,17.301c-4.199-1.9-7.699-3.201-10.899-5c-67.4-38.801-135-77.5-202.3-116.5
					c-36.2-21-72.101-42.6-108.101-64c-8.8-5.301-8.399-17.101,0.7-22.4c1.7-1,3.5-2,4.6-5.1c-3.8,1-7.6,2.1-11.699,3.199
					c-4.4-11.6,7-11.699,11.1-18.4c-4.6,1.5-9.2,3.101-16.4,5.5c1.4-5.6,1-11.799,3.601-13.399c4.2-2.601,10.6-3.7,15.399-2.7
					c5.2,1.2,9.9,5.4,14.601,8.5c4.7,3,9,4.7,15,2.301c3.2-1.301,8.3-0.101,11.5,1.699c15.6,8.9,31,18.1,46.1,27.7
					c6.9,4.3,12.2,4.501,19.5,0.2c37.601-22.4,75.601-44,113.4-65.801c1.8-1,3.3-2.199,5-3.299c-0.4-0.801-0.7-1.5-1-2.301
					c-3.101,1.5-6,3.6-9.2,4.1c-4.6,0.801-10.3,2.101-14,0.201c-11.9-6-23.2-13.4-34.7-20.301c-10.6-6.5-10.6-16.1,0-22.8
					c1-0.7,2-1.7,2.101-4.5c-3.5,1.3-7.101,2.5-11,3.899c-0.801-3.1-1.5-5.899-2.2-8.6c-0.7-0.1-1.4-0.3-2-0.4
					c-1.2,3.201-2.4,6.4-4.601,12.101c-3.6-3.899-7.8-6.7-8.699-10.2c-0.9-3.699,0.1-10.199,2.699-11.9
					c3.801-2.6,10.7-4.199,14.4-2.299c7.2,3.5,12.8,6.299,20.3,0.6c2.2-1.6,7.5,1.3,11.4,1.699c3.5,0.5,8,1.9,10.5,0.301
					c5.2-3.301,9-2.5,13.899,0.3c51.801,30.101,103.7,59.899,155.601,89.8c42.8,24.7,85.6,49.301,128.3,74
					c2.2,1.301,4.2,2.9,7.7,5.4c-13.101,7.699-24.9,14.6-36.7,21.4c-2.5,1.5-5.4,2.699-7.9,4.199c-15.5,8.801-21.1,8.6-34-3.699
					c-2.899-2.701-3.1-8.201-5-13.4c-41.199,23.801-82.8,47.801-124.399,71.9C584.6,721.366,606.1,733.966,629.9,747.866z"/>
				
					<path clip-path="url(#SVGID_2_)" fill="none" stroke="#2A77BC" stroke-width="2.5187" stroke-linejoin="round" stroke-miterlimit="10" d="
					M693.6,843.765c5-3.6,8.9-8.1,13.9-9.898c11.4-4,15.1-11.9,14.4-23.201c-0.9,0.1-1.801-0.1-2.5,0.201c-6,3.299-12,6.5-17.9,10
					C691.1,826.966,689.9,830.665,693.6,843.765z"/>
				
					<path clip-path="url(#SVGID_2_)" fill="none" stroke="#2A77BC" stroke-width="2.5187" stroke-linejoin="round" stroke-miterlimit="10" d="
					M894.7,710.165c-7.3,4-14.5,8-21.601,12c-9,5-10.8,11.701-5.8,21.6c2.7-2.199,5-5.1,8-6.6
					C886.3,732.065,897.1,726.966,894.7,710.165z"/>
				
					<path clip-path="url(#SVGID_2_)" fill="none" stroke="#2A77BC" stroke-width="2.5187" stroke-linejoin="round" stroke-miterlimit="10" d="
					M824.2,649.265c-2.3,0.801-4.3,1.301-5.9,2.201c-11.1,6.5-21.899,13.6-33.399,19.4c-12.801,6.699-19.9,14.5-23.2,30.6
					c-5.4,26-17.4,50.699-26.2,76c-5.9,17.1-9.6,34.5-5.7,52.9c3.4,15.6,11.3,23.299,25.9,26.6c15.5,3.4,28.899-0.201,41.5-8.801
					c32.8-22.199,51.5-53.799,58.399-91.9c3.4-19,2-38.6-16.3-51.799c-0.3-0.201-0.2-1-0.399-1.5c1.8-1.801,3.5-3.6,5.199-5.4
					C817.9,671.866,817.5,670.866,824.2,649.265z"/>
				
					<path clip-path="url(#SVGID_2_)" fill="none" stroke="#2A77BC" stroke-width="2.5187" stroke-linejoin="round" stroke-miterlimit="10" d="
					M683.1,704.065c0,83.9,0,167.801-0.199,251.699c0,3.9-2.801,11-3.801,10.9c-6.199-0.5-8.5-5.199-8.5-11.4
					c0-78.299,0-156.6,0.101-234.898c0-8.4,0.399-16.701,1.5-25c0.399-2.602,3.2-5.5,5.7-7c32.3-18.801,64.699-37.4,97.1-56.102
					c33.4-19.299,66.8-38.699,100.2-58c2.3-1.399,4.7-2.6,7.1-3.799c10.2-4.801,18.7,0.5,18.7,12c0,85,0,169.9,0.2,254.799
					c0,5.701-2.101,8.701-6.7,11.4c-30.7,17.4-61.3,35.1-91.9,52.701c-36.3,20.898-72.399,42-108.699,62.898
					c-2.9,1.701-6.101,2.9-10.2,4.9v-265.1H683.1z"/>
				
					<path clip-path="url(#SVGID_2_)" fill="none" stroke="#2A77BC" stroke-width="2.5187" stroke-linejoin="round" stroke-miterlimit="10" d="
					M217.8,513.365c-7.2,4.2-13.3,7.8-19.5,11.2c-12.1,6.699-13.399,9.9-9.3,23c6.8-4.4,14-8.9,20.9-13.801c2.1-1.6,4-4.1,4.899-6.6
					C216.2,523.466,216.6,519.365,217.8,513.365z"/>
				
					<path clip-path="url(#SVGID_2_)" fill="none" stroke="#2A77BC" stroke-width="2.5187" stroke-linejoin="round" stroke-miterlimit="10" d="
					M359.2,450.466c9-13,31.5-13.301,28.399-35.5c-6.6,3.6-13.199,7.199-19.899,10.699C356.3,431.466,354.6,436.065,359.2,450.466z"
					/>
				
					<path clip-path="url(#SVGID_2_)" fill="none" stroke="#2A77BC" stroke-width="2.5187" stroke-linejoin="round" stroke-miterlimit="10" d="
					M299.1,549.966c9.4-11,20.101-21.201,28-33.4c13-20.2,21.301-42.9,22.601-67.1c0.8-13.301-1.5-26.801-13.8-36.101
					c-2.101-1.601-1.4-7-2.101-10.601c1.101-0.5,2.2-1,3.4-1.5c-3.2-2.699-6.2-5.5-9.4-8.1c-12.7-10.6-18.3-22.699-9-39.3
					c-7,3.7-14.1,7.101-20.899,11c-11.5,6.399-22.801,13-34,19.899c-2.4,1.5-5.601,4.801-5.5,7.101c1.3,18.7-8.7,33.899-14.301,50.5
					c-6.699,19.8-14.5,39.399-18.8,59.7c-4.7,22.5-3.8,45,17.7,61c2.7,2,3.5,7.3,4.1,11.199c1.101,6.801,0.7,13.801,2.301,20.5
					c0.8,3.5,3.8,7.301,6.899,9.5c6.101,4.602,12.9,8.102,20.9,13.102c-11.3,6.699-20.9,12.5-30.7,18.199
					c-20.7,12-41.5,23.9-62.2,35.801c-8.8,5-15.8,2.1-18-7.602c-1-4-1.6-8.199-1.6-12.398c-0.101-71.201-0.101-142.301,0-213.4
					c0-12.301,0.7-24.601,1.899-36.701c0.4-3.199,3.4-7.1,6.2-8.699c27.601-16.2,55.4-31.801,83.101-47.801
					c26.1-15.199,52.1-30.699,78.199-46.1c13.9-8.1,27.7-16.3,41.7-24.1c7.2-4,17.4,2.199,17.4,10.4c0,85.899,0.1,171.699-0.3,257.6
					c0,3.6-3,8.5-6.101,10.5c-12.1,7.8-24.8,14.5-37.1,21.9c-7,4.199-11.3-0.9-16.2-3.9C322,564.265,310.6,557.065,299.1,549.966z"
					/>
				<path clip-path="url(#SVGID_2_)" fill-rule="evenodd" clip-rule="evenodd" fill="#FFFFFF" d="M301.1,368.765
					c5,5.9,9.601,11.301,14.301,16.701c3.3,3.699,8.199,6.6,5,12.899c-0.4,0.7,0.399,2.5,1.1,3.2c14.8,14.1,11.9,31.8,10.7,49.5
					c-2.7,38.4-23.101,66.3-51.7,89.5c-4.5,3.699-9,3.6-14.9,2.8c-5.5-0.8-12.3,2.5-17.399,5.7c-7.8,5-9.8,5.3-14.101-2.801
					c-8-15.1-8.3-31.1-4-47.1c2.9-10.6,7-20.8,10.7-31.199c6.8-19.301,18.5-38.301,19.3-57.801c0.9-23.5,17.2-27.3,30.9-36.3
					C293.9,371.966,297.3,370.665,301.1,368.765z"/>
				<path clip-path="url(#SVGID_2_)" fill-rule="evenodd" clip-rule="evenodd" fill="#2A77BC" d="M564.2,611.565
					c-1.101,8.9-4.4,14.801-11.4,18.4c-19.5,9.9-39,10.6-57.899-1.5c-11.2-7.201-11.7-15-2.5-24c11.699-11.5,25.6-13.301,40.6-9.201
					c2.4,0.602,5.2,3.4,5.9,5.701C541.9,611.565,552.7,616.866,564.2,611.565z M494.9,622.165c12.5,14.801,47.3,14.701,59.6,0
					C542,607.265,507.3,607.265,494.9,622.165z"/>
				
					<path clip-path="url(#SVGID_2_)" fill="none" stroke="#2A77BC" stroke-width="2.5187" stroke-linejoin="round" stroke-miterlimit="10" d="
					M768.6,689.366c-0.5,5.799,0.101,10.5-1.3,14.5c-7.2,20.799-14.3,41.699-22.7,62c-7.6,18.398-12.199,36.898-10.899,56.799
					c1.6,24.1,11.399,30.9,34.1,23c2-0.699,4-1.4,5.8-2.4c38-21.398,58.101-55.199,65.7-96.799c2.8-15.5,2-31.801-8.7-45.6
					c-2.5-3.301-3.199-8-5.3-11.602c-2.899-5-6.399-9.6-9.6-14.398c-0.9,0.5-1.9,1-2.8,1.5c0,2.898,0,5.898,0,8.799
					c-0.301,13.701-12.601,21.201-24.801,14.9C781.9,696.765,775.7,693.265,768.6,689.366z"/>
				
					<path clip-path="url(#SVGID_2_)" fill="none" stroke="#2A77BC" stroke-width="2.5187" stroke-linejoin="round" stroke-miterlimit="10" d="
					M824.2,649.265c-6.7,21.602-6.3,22.5,19.899,48.201c-1.699,1.799-3.399,3.6-5.1,5.5c0.1,0.5,0,1.299,0.4,1.5
					c18.199,13.199,19.6,32.799,16.199,51.799c-6.899,38.102-25.6,69.701-58.3,91.9c-12.7,8.6-26.1,12.201-41.6,8.801
					c-14.5-3.301-22.5-11-25.8-26.6c-3.9-18.4-0.301-35.801,5.699-52.9c8.7-25.301,20.801-50,26.101-76
					c3.3-16.1,10.399-23.9,23.3-30.6c11.4-5.801,22.2-12.9,33.3-19.4C819.9,650.466,821.9,650.065,824.2,649.265z"/>
				
					<path clip-path="url(#SVGID_2_)" fill="none" stroke="#2A77BC" stroke-width="2.5187" stroke-linejoin="round" stroke-miterlimit="10" d="
					M894.7,710.065c2.399,16.9-8.4,22-19.4,27.1c-3.1,1.5-5.399,4.4-8.1,6.6c-5-9.898-3.101-16.6,5.8-21.699
					C880.2,718.065,887.4,714.065,894.7,710.065z"/>
				
					<path clip-path="url(#SVGID_2_)" fill="none" stroke="#2A77BC" stroke-width="2.5187" stroke-linejoin="round" stroke-miterlimit="10" d="
					M693.6,843.765c-3.699-13.1-2.5-16.799,7.9-22.898c5.9-3.5,12-6.701,18-10c0.6-0.4,1.6-0.201,2.4-0.301
					c0.699,11.4-3,19.301-14.4,23.301C702.5,835.665,698.6,840.165,693.6,843.765z"/>
				
					<path clip-path="url(#SVGID_2_)" fill="none" stroke="#2A77BC" stroke-width="2.5187" stroke-linejoin="round" stroke-miterlimit="10" d="
					M359.1,450.466c-4.699-14.4-2.899-19.101,8.5-24.9c6.7-3.4,13.301-7.1,19.9-10.6C390.6,437.165,368.1,437.365,359.1,450.466z"/>
				
					<path clip-path="url(#SVGID_2_)" fill="none" stroke="#2A77BC" stroke-width="2.5187" stroke-linejoin="round" stroke-miterlimit="10" d="
					M217.8,513.365c-1.3,6-1.7,10-3,13.8c-1,2.5-2.8,5-5,6.6c-6.8,4.9-14.1,9.4-20.899,13.801c-4.101-13.1-2.801-16.301,9.399-23
					C204.4,521.165,210.5,517.565,217.8,513.365z"/>
				<path clip-path="url(#SVGID_2_)" fill-rule="evenodd" clip-rule="evenodd" fill="#FFFFFF" d="M494.8,622.065
					c12.5-14.9,47.2-14.9,59.7,0C542.1,636.866,507.4,636.966,494.8,622.065z"/>
				<path clip-path="url(#SVGID_2_)" fill-rule="evenodd" clip-rule="evenodd" fill="#FFFFFF" d="M768.6,689.366
					c7.101,3.898,13.301,7.398,19.5,10.699c12.2,6.301,24.601-1.199,24.801-14.9c0-2.9,0-5.9,0-8.799c1-0.5,1.899-1,2.8-1.5
					c3.3,4.799,6.7,9.398,9.6,14.398c2.101,3.602,2.8,8.301,5.4,11.602c10.6,13.799,11.399,30.1,8.6,45.6
					c-7.6,41.6-27.7,75.4-65.7,96.799c-1.8,1-3.8,1.701-5.8,2.4c-22.7,7.9-32.5,1.1-34.1-23c-1.3-19.9,3.3-38.4,10.899-56.799
					c8.4-20.301,15.5-41.201,22.7-62C768.7,699.866,768.1,695.165,768.6,689.366z"/>
				<polygon clip-path="url(#SVGID_2_)" fill="none" stroke="#1A77BC" stroke-width="1.981" stroke-miterlimit="7.6613" points="
					268.1,1067.866 267.1,1066.665 266.2,1065.366 265.4,1064.065 264.6,1062.665 263.9,1061.265 263.3,1059.866 262.7,1058.366 
					262.2,1056.866 261.8,1055.466 261.5,1054.165 261.2,1052.565 261,1051.065 260.9,1049.466 260.8,1047.565 260.8,1045.966 
					261,1044.366 261.2,1042.765 261.4,1041.265 261.8,1039.565 262.2,1038.165 262.7,1036.665 263.3,1035.165 263.9,1033.765 
					264.6,1032.366 265.4,1030.966 266.2,1029.665 267.1,1028.366 268.1,1027.065 268.9,1026.165 266.9,1026.165 278.3,1007.366 
					278.4,999.065 307.6,999.065 307.6,1007.366 319.3,1025.265 317,1026.165 318.5,1028.065 319.5,1029.265 320.3,1030.565 
					321.3,1032.366 322,1033.765 322.7,1035.265 323.3,1036.665 323.9,1038.866 324.3,1040.065 324.5,1041.265 324.8,1042.765 
					325,1044.366 325.1,1045.966 325.1,1047.565 325.1,1049.065 325,1050.265 324.8,1051.866 324.6,1053.466 324.3,1054.966 
					323.7,1056.866 323.3,1058.366 322.7,1059.866 322,1061.265 321.3,1062.665 320.6,1064.065 319.7,1065.366 318.8,1066.665 
					317.8,1067.866 316.8,1069.065 315.7,1070.265 314.6,1071.366 313.4,1072.366 312.1,1073.366 310.8,1074.265 309.5,1075.065 
					308.1,1075.866 306.7,1076.565 305.3,1077.165 303.8,1077.765 302.3,1078.265 300.8,1078.665 299.3,1079.065 297.7,1079.366 
					296.1,1079.466 294.5,1079.565 293,1079.665 291.4,1079.565 289.8,1079.466 288.2,1079.366 286.7,1079.065 285.1,1078.665 
					283.6,1078.265 282.1,1077.765 280.7,1077.165 279.2,1076.565 277.8,1075.866 276.4,1075.065 275.1,1074.265 273.8,1073.366 
					272.6,1072.366 271.4,1071.366 270.2,1070.265 269.1,1069.065 				"/>
				
					<rect x="329.8" y="1043.765" clip-path="url(#SVGID_2_)" fill="none" stroke="#1A77BC" stroke-width="1.981" stroke-miterlimit="7.6613" width="7.2" height="6.701"/>
				
					<rect x="249.3" y="1043.966" clip-path="url(#SVGID_2_)" fill="none" stroke="#1A77BC" stroke-width="1.981" stroke-miterlimit="7.6613" width="7" height="6.699"/>
				
					<rect x="238.3" y="982.565" clip-path="url(#SVGID_2_)" fill="none" stroke="#1A77BC" stroke-width="3.0281" stroke-miterlimit="7.6613" width="109.9" height="112.5"/>
				<polygon clip-path="url(#SVGID_2_)" fill="none" stroke="#1A77BC" stroke-width="1.981" stroke-miterlimit="7.6613" points="
					267.8,887.366 266.9,886.165 265.9,884.765 265.1,883.466 264.3,882.165 263.6,880.665 263,879.265 262.4,877.765 
					261.9,876.265 261.6,874.966 261.2,873.565 260.9,872.065 260.7,870.466 260.6,868.866 260.5,866.966 260.6,865.366 
					260.7,863.765 260.9,862.265 261.2,860.665 261.6,858.966 261.9,857.665 262.4,856.165 263,854.665 263.6,853.165 
					264.3,851.765 265.1,850.466 265.9,849.065 266.9,847.765 267.8,846.565 268.6,845.565 266.6,845.565 278,826.765 
					278.2,818.466 307.3,818.466 307.3,826.765 319,844.665 316.8,845.565 318.3,847.466 319.2,848.765 320.1,850.065 
					321.1,851.765 321.8,853.165 322.4,854.665 323,856.165 323.6,858.265 324,859.466 324.3,860.665 324.5,862.265 324.7,863.765 
					324.8,865.366 324.9,866.966 324.8,868.565 324.7,869.765 324.6,871.265 324.3,872.866 324,874.366 323.5,876.265 323,877.765 
					322.4,879.265 321.8,880.665 321.1,882.165 320.3,883.466 319.4,884.765 318.5,886.165 317.6,887.366 316.5,888.565 
					315.4,889.665 314.3,890.765 313.1,891.866 311.9,892.765 310.6,893.665 309.2,894.565 307.9,895.265 306.5,895.966 
					305,896.665 303.5,897.265 302,897.665 300.5,898.165 299,898.466 297.4,898.765 295.9,898.966 294.3,899.065 292.7,899.065 
					291.1,899.065 289.6,898.966 288,898.765 286.4,898.466 284.9,898.165 283.4,897.765 281.8,897.265 280.4,896.665 
					278.9,895.966 277.5,895.265 276.2,894.565 274.8,893.665 273.5,892.765 272.3,891.866 271.1,890.765 269.9,889.665 
					268.9,888.565 				"/>
				
					<rect x="329.5" y="863.165" clip-path="url(#SVGID_2_)" fill="none" stroke="#1A77BC" stroke-width="1.981" stroke-miterlimit="7.6613" width="7.2" height="6.701"/>
				
					<rect x="249" y="863.366" clip-path="url(#SVGID_2_)" fill="none" stroke="#1A77BC" stroke-width="1.981" stroke-miterlimit="7.6613" width="7.1" height="6.699"/>
				
					<rect x="238" y="801.966" clip-path="url(#SVGID_2_)" fill="none" stroke="#1A77BC" stroke-width="3.0281" stroke-miterlimit="7.6613" width="109.9" height="112.6"/>
				<polygon clip-path="url(#SVGID_2_)" fill="none" stroke="#1A77BC" stroke-width="1.981" stroke-miterlimit="7.6613" points="
					188.7,829.165 189.7,830.366 190.6,831.665 191.4,833.065 192.2,834.366 192.9,835.765 193.5,837.265 194.1,838.765 
					194.6,840.165 195,841.565 195.3,842.966 195.6,844.466 195.8,845.966 195.9,847.665 196,849.565 196,851.165 195.8,852.765 
					195.6,854.265 195.4,855.866 195,857.565 194.6,858.866 194.1,860.366 193.5,861.866 192.9,863.366 192.2,864.765 
					191.4,866.065 190.6,867.466 189.7,868.665 188.7,869.966 187.9,870.866 189.9,870.866 178.5,889.665 178.4,898.065 
					149.2,898.065 149.2,889.665 137.5,871.866 139.7,870.866 138.2,869.065 137.3,867.765 136.5,866.466 135.4,864.765 
					134.7,863.366 134.1,861.866 133.5,860.366 132.9,858.265 132.5,856.966 132.3,855.866 132,854.265 131.8,852.765 
					131.7,851.165 131.7,849.565 131.7,847.966 131.8,846.765 132,845.165 132.2,843.665 132.5,842.065 133,840.165 133.5,838.765 
					134.1,837.265 134.7,835.765 135.4,834.366 136.2,833.065 137.1,831.665 138,830.366 139,829.165 140,827.966 141.1,826.866 
					142.2,825.665 143.4,824.665 144.7,823.765 146,822.866 147.3,821.966 148.6,821.165 150.1,820.466 151.5,819.866 153,819.265 
					154.5,818.765 156,818.366 157.5,817.966 159.1,817.765 160.7,817.565 162.3,817.466 163.8,817.366 165.4,817.466 167,817.565 
					168.5,817.765 170.1,817.966 171.6,818.366 173.2,818.765 174.7,819.265 176.1,819.866 177.6,820.466 179,821.165 
					180.4,821.966 181.7,822.866 183,823.765 184.2,824.665 185.4,825.665 186.6,826.866 187.7,827.966 				"/>
				
					<rect x="119.8" y="846.565" clip-path="url(#SVGID_2_)" fill="none" stroke="#1A77BC" stroke-width="1.981" stroke-miterlimit="7.6613" width="7.2" height="6.801"/>
				
					<rect x="200.5" y="846.366" clip-path="url(#SVGID_2_)" fill="none" stroke="#1A77BC" stroke-width="1.981" stroke-miterlimit="7.6613" width="7" height="6.799"/>
				
					<rect x="108.6" y="801.966" clip-path="url(#SVGID_2_)" fill="none" stroke="#1A77BC" stroke-width="3.0281" stroke-miterlimit="7.6613" width="109.9" height="112.6"/>
				<polygon clip-path="url(#SVGID_2_)" fill="none" stroke="#1A77BC" stroke-width="1.981" stroke-miterlimit="7.6613" points="
					138.4,1067.866 137.4,1066.665 136.5,1065.366 135.7,1064.065 134.9,1062.665 134.2,1061.265 133.6,1059.866 133,1058.366 
					132.5,1056.866 132.1,1055.466 131.8,1054.165 131.5,1052.565 131.3,1051.065 131.2,1049.466 131.1,1047.565 131.2,1045.966 
					131.3,1044.366 131.5,1042.765 131.7,1041.265 132.1,1039.565 132.5,1038.165 133,1036.665 133.6,1035.165 134.2,1033.765 
					134.9,1032.366 135.7,1030.966 136.5,1029.665 137.4,1028.366 138.4,1027.065 139.2,1026.165 137.2,1026.165 148.6,1007.366 
					148.7,999.065 177.9,999.065 177.9,1007.366 189.6,1025.265 187.3,1026.165 188.8,1028.065 189.8,1029.265 190.6,1030.565 
					191.7,1032.366 192.4,1033.765 193,1035.265 193.5,1036.665 194.2,1038.866 194.6,1040.065 194.8,1041.265 195.1,1042.765 
					195.3,1044.366 195.4,1045.966 195.4,1047.565 195.4,1049.065 195.3,1050.265 195.1,1051.866 194.9,1053.466 194.6,1054.966 
					194.1,1056.866 193.5,1058.366 193,1059.866 192.4,1061.265 191.7,1062.665 190.9,1064.065 190,1065.366 189.1,1066.665 
					188.1,1067.866 187.1,1069.065 186,1070.265 184.9,1071.366 183.7,1072.366 182.4,1073.366 181.2,1074.265 179.8,1075.065 
					178.4,1075.866 177,1076.565 175.6,1077.165 174.1,1077.765 172.6,1078.265 171.1,1078.665 169.6,1079.065 168,1079.366 
					166.5,1079.466 164.9,1079.565 163.3,1079.665 161.7,1079.565 160.1,1079.466 158.5,1079.366 157,1079.065 155.5,1078.665 
					153.9,1078.265 152.4,1077.765 150.9,1077.165 149.5,1076.565 148.1,1075.866 146.7,1075.065 145.4,1074.265 144.1,1073.366 
					142.9,1072.366 141.7,1071.366 140.5,1070.265 139.4,1069.065 				"/>
				
					<rect x="200.1" y="1043.765" clip-path="url(#SVGID_2_)" fill="none" stroke="#1A77BC" stroke-width="1.981" stroke-miterlimit="7.6613" width="7.2" height="6.701"/>
				
					<rect x="119.6" y="1043.966" clip-path="url(#SVGID_2_)" fill="none" stroke="#1A77BC" stroke-width="1.981" stroke-miterlimit="7.6613" width="7.101" height="6.699"/>
				
					<rect x="108.6" y="982.565" clip-path="url(#SVGID_2_)" fill="none" stroke="#1A77BC" stroke-width="3.0281" stroke-miterlimit="7.6613" width="109.9" height="112.5"/>
				<path clip-path="url(#SVGID_2_)" fill-rule="evenodd" clip-rule="evenodd" fill="#B9F9F7" d="M63.2,828.065c3.6,0,3.6-5.6,0-5.6
					C59.6,822.466,59.6,828.065,63.2,828.065z"/>
				
					<line clip-path="url(#SVGID_2_)" fill="none" stroke="#FF1762" stroke-width="6.9618" stroke-miterlimit="7.6613" x1="400.6" y1="940.565" x2="55.6" y2="773.765"/>
				
					<rect x="81.9" y="957.265" clip-path="url(#SVGID_2_)" fill="none" stroke="#00FF00" stroke-width="9.4805" stroke-miterlimit="7.6613" width="289.8" height="163.701"/>
				
					<path clip-path="url(#SVGID_2_)" fill="none" stroke="#2A77BC" stroke-width="2.5187" stroke-linejoin="round" stroke-miterlimit="10" d="
					M594,190.765c0,0,22.8,31.4,39.9,33.5c17.1,2.201,42.1,7.9,68.5-28.5c26.399-36.399-17.801-50.899-34.2-55.799
					c-16.5-4.801-68.5-16.301-97-37.601c-28.601-21.399-64.9,9.2-56.4,34.2c8.601,25,27.8,30.699,51.4,37.1
					C589.7,180.065,594,190.765,594,190.765z"/>
				
					<path clip-path="url(#SVGID_2_)" fill="none" stroke="#2A77BC" stroke-width="2.5187" stroke-linejoin="round" stroke-miterlimit="10" d="
					M631.6,225.966l23,9.6c0,0,41.801,2.1,53-17.2c11.2-19.2,29.4-52.101-18.6-70.399"/>
				
					<path clip-path="url(#SVGID_2_)" fill="none" stroke="#2A77BC" stroke-width="2.5187" stroke-linejoin="round" stroke-miterlimit="10" d="
					M708.9,166.265c0,0-47.9-5.6-88.5-26.299c-40.7-20.5-50.7-41-78.101-30.101c-27.399,10.8-20,41.101-20,41.101"/>
				
					<path clip-path="url(#SVGID_2_)" fill="none" stroke="#2A77BC" stroke-width="2.5187" stroke-linejoin="round" stroke-miterlimit="10" d="
					M525.1,154.265c14.5,21.601,58.5,31.5,74.2,43.201"/>
				<path clip-path="url(#SVGID_2_)" fill="none" stroke="#1A77BC" stroke-width="3.2262" stroke-miterlimit="7.6613" d="
					M1117.1,437.065c0,67.6-54.899,122.4-122.6,122.4c-67.6,0-122.4-54.801-122.4-122.4c0-67.7,54.801-122.6,122.4-122.6
					C1062.2,314.466,1117.1,369.365,1117.1,437.065z"/>
				<path clip-path="url(#SVGID_2_)" fill="none" stroke="#B9F9F7" stroke-width="15.3952" stroke-miterlimit="7.6613" d="
					M1135.6,437.065c0,77.8-63.199,140.9-141,140.9c-77.899,0-141-63.101-141-140.9c0-77.9,63.101-141.1,141-141.1
					C1072.4,295.966,1135.6,359.165,1135.6,437.065z"/>
				<polygon clip-path="url(#SVGID_2_)" fill="none" stroke="#1A77BC" stroke-width="2.1225" stroke-miterlimit="7.6613" points="
					1011.5,408.466 976.2,408.466 958.5,439.165 976.2,469.765 1011.5,469.765 1029.2,439.165 				"/>
				
					<line clip-path="url(#SVGID_2_)" fill="none" stroke="#06EEF4" stroke-width="19.3006" stroke-miterlimit="7.6613" x1="763.1" y1="212.365" x2="821.4" y2="269.365"/>
				<path clip-path="url(#SVGID_2_)" fill-rule="evenodd" clip-rule="evenodd" fill="#06EEF4" d="M854.8,302.365
					c-23.1-10.399-54.7-20.3-78.899-21.8l38.199-18.301l17.7-38.5C833.6,247.966,844.1,279.466,854.8,302.365z"/>
				
					<line clip-path="url(#SVGID_2_)" fill="none" stroke="#06EEF4" stroke-width="10.5842" stroke-miterlimit="7.6613" x1="270.5" y1="391.765" x2="307.6" y2="416.665"/>
				<path clip-path="url(#SVGID_2_)" fill-rule="evenodd" clip-rule="evenodd" fill="#06EEF4" d="M334.2,433.466
					c-16.601-3.601-38.7-5.601-54.7-3.201l22.4-17.299l6.1-27.701C312.6,400.865,323.9,419.966,334.2,433.466z"/>
				
					<line clip-path="url(#SVGID_2_)" fill="none" stroke="#06EEF4" stroke-width="12.9048" stroke-miterlimit="7.6613" x1="966.6" y1="782.866" x2="922" y2="751.565"/>
				<path clip-path="url(#SVGID_2_)" fill-rule="evenodd" clip-rule="evenodd" fill="#06EEF4" d="M896.3,733.466
					c16.5,4.299,38.4,7.5,54.5,5.799l-23.2,16.201l-7.5,27.4C916.2,767.065,906,747.466,896.3,733.466z"/>
				
					<line clip-path="url(#SVGID_2_)" fill="none" stroke="#06EEF4" stroke-width="12.9048" stroke-miterlimit="7.6613" x1="783.5" y1="895.866" x2="743.5" y2="858.966"/>
				<path clip-path="url(#SVGID_2_)" fill-rule="evenodd" clip-rule="evenodd" fill="#06EEF4" d="M720.5,837.565
					c15.7,6.5,36.9,12.5,53.2,13l-25.2,13l-11.1,26.1C735.7,873.466,728.1,852.665,720.5,837.565z"/>
				
					<line clip-path="url(#SVGID_2_)" fill="none" stroke="#06EEF4" stroke-width="12.9048" stroke-miterlimit="7.6613" x1="88.8" y1="464.865" x2="132.3" y2="497.665"/>
				<path clip-path="url(#SVGID_2_)" fill-rule="evenodd" clip-rule="evenodd" fill="#06EEF4" d="M157.4,516.665
					c-16.301-4.9-38.101-8.8-54.301-7.699l23.801-15.4l8.399-27C138.6,482.466,148.3,502.365,157.4,516.665z"/>
			</g>
		</g>
	</g>
</g>
<g id="Page_24_1_">
</g>
<g id="Page_25_1_">
</g>
<g id="Page_26_1_">
</g>
<g id="Page_27_1_">
</g>
<g id="Page_28_1_">
</g>
<g id="Page_29_1_">
</g>
<g id="Page_30_1_">
</g>
<g id="Page_31_1_">
</g>
<g id="Page_32_1_">
</g>
<g id="Page_33_1_">
</g>
<g id="Page_34_1_">
</g>
<g id="Page_35_1_">
</g>
<g id="Page_36_1_">
</g>
<g id="Page_37_1_">
</g>
<g id="Page_38_1_">
</g>
</svg>
