<?xml version="1.0" encoding="utf-8"?>
<!-- Generator: Adobe Illustrator 16.0.0, SVG Export Plug-In . SVG Version: 6.00 Build 0)  -->
<!DOCTYPE svg PUBLIC "-//W3C//DTD SVG 1.1//EN" "http://www.w3.org/Graphics/SVG/1.1/DTD/svg11.dtd">
<svg version="1.1" xmlns="http://www.w3.org/2000/svg" xmlns:xlink="http://www.w3.org/1999/xlink" x="0px" y="0px"
	 width="1209.969px" height="1177.966px" viewBox="0 0 1209.969 1177.966" enable-background="new 0 0 1209.969 1177.966"
	 xml:space="preserve">
<g id="Page_1_1_">
</g>
<g id="Page_2_1_">
</g>
<g id="Page_3_1_">
</g>
<g id="Page_4_1_">
</g>
<g id="Page_5_1_">
</g>
<g id="Page_6_1_">
</g>
<g id="Page_7_1_">
</g>
<g id="Page_8_1_">
</g>
<g id="Page_9_1_">
</g>
<g id="Page_10_1_">
</g>
<g id="Page_11_1_">
</g>
<g id="Page_12_1_">
</g>
<g id="Page_13_1_">
</g>
<g id="Page_14_1_">
</g>
<g id="Page_15_1_">
</g>
<g id="Page_16_1_">
</g>
<g id="Page_17_1_">
</g>
<g id="Page_18_1_">
</g>
<g id="Page_19_1_">
</g>
<g id="Page_20_1_">
	<g id="Page_20">
		<g enable-background="new    ">
			<g>
				<defs>
					<rect id="SVGID_43_" y="-0.034" width="1210" height="1178"/>
				</defs>
				<clipPath id="SVGID_2_">
					<use xlink:href="#SVGID_43_"  overflow="visible"/>
				</clipPath>
				
					<rect y="0.065" clip-path="url(#SVGID_2_)" fill-rule="evenodd" clip-rule="evenodd" fill="#FFFFFF" width="1210" height="1178"/>
				<path clip-path="url(#SVGID_2_)" fill="none" stroke="#2A77BC" stroke-width="1.3584" stroke-miterlimit="7.6613" d="
					M443.4,659.866l6.5,3.299c0,0-3.2,3.5,2.899,7c6.2,3.6,12.7,7.5,16.601,9.5c3.899,1.9,7.5,0,7.5,0l39.899,20.801
					c0,0-1.899,4.199,4.601,8.1s13.3,7.1,17.6,9.1c4.2,1.9,3.2-3.9,7.4-2.6l6.399,4.199c-2.3,5-59.3,115.701-61,118.701
					c-1.6,2.9-5.5,1.299-7.399,0c-2-1.301,3.5-4.6-3-8.301c-6.5-3.799-14.301-7.299-17.9-9.6c-3.5-2.301-5.5-3.301-7.7,0l-41.7-23.1
					c0,0,2.601-4,0-5.6c-2.6-1.602-20.5-10-22.399-11.301c-2-1.301-5.5,1.301-5.5,1.301l-5.601-1.9L443.4,659.866z"/>
				<polygon clip-path="url(#SVGID_2_)" fill="none" stroke="#1A77BC" stroke-width="2.4621" stroke-miterlimit="7.6613" points="
					440.8,654.966 557.8,718.065 491.8,845.165 374.5,778.765 				"/>
				
					<line clip-path="url(#SVGID_2_)" fill="none" stroke="#2A77BC" stroke-width="1.3584" stroke-miterlimit="7.6613" x1="428.3" y1="689.165" x2="538.2" y2="749.165"/>
				
					<line clip-path="url(#SVGID_2_)" fill="none" stroke="#2A77BC" stroke-width="1.3584" stroke-miterlimit="7.6613" x1="414.1" y1="719.165" x2="518.5" y2="776.866"/>
				
					<line clip-path="url(#SVGID_2_)" fill="none" stroke="#2A77BC" stroke-width="1.3584" stroke-miterlimit="7.6613" x1="399.2" y1="749.165" x2="502.2" y2="807.065"/>
				<path clip-path="url(#SVGID_2_)" fill="none" stroke="#2A77BC" stroke-width="1.3584" stroke-miterlimit="7.6613" d="
					M541.6,721.765c0,0-13.3,16.5-7.199,18.602c7.699,2.6,16.399-24.5,3-18.602c-7.7,3.4-9.7,11.602-8.101,13.9
					c1,1.301,4.2-1.1,5.601-5.699c3.1-9.701-1.5-12.201-5.601-9.301c-4,2.9-7.399,10.301-6.2,11c1.2,0.6,7-7.1,3.2-13.699
					c-3.7-6.6-10.399,7.699-9.3,9.4c1,1.6,8.3-7.4,5-10.201c-3-2.5-6.6,9.201-6.6,9.201"/>
				<path clip-path="url(#SVGID_2_)" fill="none" stroke="#2A77BC" stroke-width="1.3584" stroke-miterlimit="7.6613" d="
					M511.1,780.765c0,0-13.3,16.5-7.199,18.602c7.8,2.6,16.399-24.5,3-18.602c-7.601,3.4-9.601,11.602-8,13.9
					c0.899,1.301,4.199-1.1,5.6-5.699c3-9.701-1.6-12.201-5.6-9.301c-4.101,2.9-7.5,10.301-6.301,11c1.2,0.6,7-7.1,3.301-13.699
					c-3.801-6.6-10.4,7.699-9.4,9.299c1.1,1.701,8.4-7.398,5-10.199c-2.9-2.5-6.6,9.301-6.6,9.301"/>
				<path clip-path="url(#SVGID_2_)" fill="none" stroke="#2A77BC" stroke-width="1.3584" stroke-miterlimit="7.6613" d="
					M526.6,755.565c1.2,0.699,0.9,3.6-0.699,6.5c-1.601,2.9-3.801,4.801-5,4.1c-1.2-0.6-0.9-3.5,0.6-6.4
					C523.2,756.765,525.4,754.966,526.6,755.565z"/>
				<path clip-path="url(#SVGID_2_)" fill="none" stroke="#2A77BC" stroke-width="1.3584" stroke-miterlimit="7.6613" d="
					M525.4,757.765c0.699,0.301,0.5,2.102-0.4,3.801c-1,1.801-2.3,2.9-3,2.5s-0.6-2.1,0.4-3.9
					C523.3,758.466,524.7,757.366,525.4,757.765z"/>
				<path clip-path="url(#SVGID_2_)" fill="none" stroke="#2A77BC" stroke-width="1.3584" stroke-miterlimit="7.6613" d="
					M495.9,815.265c1.199,0.701,0.899,3.602-0.601,6.5c-1.6,2.9-3.899,4.801-5.1,4.102c-1.2-0.602-0.9-3.5,0.7-6.4
					C492.5,816.565,494.8,814.665,495.9,815.265z"/>
				<path clip-path="url(#SVGID_2_)" fill="none" stroke="#2A77BC" stroke-width="1.3584" stroke-miterlimit="7.6613" d="
					M494.8,817.366c0.7,0.398,0.5,2.1-0.399,3.898c-0.9,1.801-2.301,2.9-3,2.5c-0.7-0.398-0.601-2.1,0.399-3.898
					C492.7,818.165,494.1,817.065,494.8,817.366z"/>
				<path clip-path="url(#SVGID_2_)" fill="none" stroke="#2A77BC" stroke-width="1.3584" stroke-miterlimit="7.6613" d="
					M426.7,698.165c0,0-4.3,8.801-5,11.701c-0.8,2.898,0.5,4.199,3.7,0.6c3.1-3.5,9.3-13.301,7.699-8.9
					c-1.6,4.5-6.699,18.1-3.399,14.301c3.399-3.9,9.7-12.5,8.6-8.602c-1.1,4-3.5,11.602-2.3,10.301s4.5-8.199,4.5-8.199"/>
				<path clip-path="url(#SVGID_2_)" fill="none" stroke="#2A77BC" stroke-width="1.3584" stroke-miterlimit="7.6613" d="
					M394.9,760.265c0,0-4.301,8.801-5,11.701c-0.801,3,0.5,4.299,3.699,0.699c3.101-3.6,9.301-13.4,7.7-8.9
					c-1.6,4.4-6.7,18-3.399,14.201c3.399-3.801,9.699-12.5,8.6-8.5c-1.1,3.9-3.5,11.5-2.3,10.199c1.2-1.299,4.5-8.199,4.5-8.199"/>
				<path clip-path="url(#SVGID_2_)" fill="none" stroke="#2C77BC" stroke-width="2.4904" stroke-miterlimit="7.6613" d="
					M422.5,689.165c0,0-45.9-18.6-26.8-69.9c19.2-51.399-141.101-72.699-58.601,40.801"/>
				<path clip-path="url(#SVGID_2_)" fill="none" stroke="#2C77BC" stroke-width="2.4904" stroke-miterlimit="7.6613" d="
					M425.3,683.866c0,0-43-18.5-30.6-51c12.3-32.5-11.3-77.501-55.7-55.602c-53.8,26.602-4.9,85.701-4.9,85.701"/>
				<polygon clip-path="url(#SVGID_2_)" fill="none" stroke="#2A77BC" stroke-width="1.3584" stroke-miterlimit="7.6613" points="
					329.4,667.665 341.7,655.165 343.5,657.165 342.8,658.866 352.8,669.366 342.9,679.165 333.3,668.665 331.5,669.966 				"/>
				<polygon clip-path="url(#SVGID_2_)" fill="none" stroke="#2A77BC" stroke-width="1.3584" stroke-miterlimit="7.6613" points="
					332.8,664.165 340.5,671.966 343.6,672.866 334,662.966 				"/>
				<polygon clip-path="url(#SVGID_2_)" fill="none" stroke="#2A77BC" stroke-width="1.3584" stroke-miterlimit="7.6613" points="
					338.3,658.966 345.8,666.866 346.6,669.966 337,660.065 				"/>
				<path clip-path="url(#SVGID_2_)" fill="none" stroke="#1A77BC" stroke-width="3.2262" stroke-miterlimit="7.6613" d="
					M230.9,630.665H117.5c-14.1,0-25.5-11.5-25.5-25.5v-98.4c0-14.1,11.4-25.6,25.5-25.6h113.4c14,0,25.6,11.5,25.6,25.6v98.4
					C256.5,619.165,244.9,630.665,230.9,630.665z"/>
				<polygon clip-path="url(#SVGID_2_)" fill="none" stroke="#2C77BC" stroke-width="1.6414" stroke-miterlimit="7.6613" points="
					151.4,557.365 151.4,551.765 215.3,552.265 215.3,557.365 223.5,557.365 223.5,599.466 215.7,599.466 215.7,604.765 
					151.4,604.765 151.4,600.165 143.2,600.165 143.2,557.365 				"/>
				<path clip-path="url(#SVGID_2_)" fill-rule="evenodd" clip-rule="evenodd" fill="#2C77BC" d="M151.5,564.966
					c0,0.699-0.5,1.299-1.2,1.299s-1.3-0.6-1.3-1.299c0-0.601,0.6-1.201,1.3-1.201S151.5,564.365,151.5,564.966z"/>
				<path clip-path="url(#SVGID_2_)" fill-rule="evenodd" clip-rule="evenodd" fill="#2C77BC" d="M158.2,564.966
					c0,0.699-0.601,1.299-1.2,1.299c-0.8,0-1.3-0.6-1.3-1.299c0-0.601,0.5-1.201,1.3-1.201
					C157.6,563.765,158.2,564.365,158.2,564.966z"/>
				<path clip-path="url(#SVGID_2_)" fill-rule="evenodd" clip-rule="evenodd" fill="#2C77BC" d="M164.9,564.966
					c0,0.699-0.601,1.299-1.301,1.299c-0.699,0-1.199-0.6-1.199-1.299c0-0.601,0.5-1.201,1.199-1.201
					C164.3,563.765,164.9,564.365,164.9,564.966z"/>
				<path clip-path="url(#SVGID_2_)" fill-rule="evenodd" clip-rule="evenodd" fill="#2C77BC" d="M171.5,564.966
					c0,0.699-0.6,1.299-1.3,1.299c-0.601,0-1.2-0.6-1.2-1.299c0-0.601,0.6-1.201,1.2-1.201
					C170.9,563.765,171.5,564.365,171.5,564.966z"/>
				<path clip-path="url(#SVGID_2_)" fill-rule="evenodd" clip-rule="evenodd" fill="#2C77BC" d="M178.2,564.966
					c0,0.699-0.601,1.299-1.3,1.299c-0.7,0-1.2-0.6-1.2-1.299c0-0.601,0.5-1.201,1.2-1.201
					C177.6,563.765,178.2,564.365,178.2,564.966z"/>
				<path clip-path="url(#SVGID_2_)" fill-rule="evenodd" clip-rule="evenodd" fill="#2C77BC" d="M184.8,564.966
					c0,0.699-0.5,1.299-1.2,1.299c-0.699,0-1.199-0.6-1.199-1.299c0-0.601,0.5-1.201,1.199-1.201
					C184.3,563.765,184.8,564.365,184.8,564.966z"/>
				<path clip-path="url(#SVGID_2_)" fill-rule="evenodd" clip-rule="evenodd" fill="#2C77BC" d="M191.5,564.966
					c0,0.699-0.6,1.299-1.2,1.299c-0.7,0-1.3-0.6-1.3-1.299c0-0.601,0.6-1.201,1.3-1.201C190.9,563.765,191.5,564.365,191.5,564.966
					z"/>
				<path clip-path="url(#SVGID_2_)" fill-rule="evenodd" clip-rule="evenodd" fill="#2C77BC" d="M198.2,564.966
					c0,0.699-0.601,1.299-1.2,1.299c-0.7,0-1.3-0.6-1.3-1.299c0-0.601,0.6-1.201,1.3-1.201
					C197.6,563.765,198.2,564.365,198.2,564.966z"/>
				<path clip-path="url(#SVGID_2_)" fill-rule="evenodd" clip-rule="evenodd" fill="#2C77BC" d="M204.9,564.966
					c0,0.699-0.601,1.299-1.301,1.299c-0.699,0-1.199-0.6-1.199-1.299c0-0.601,0.5-1.201,1.199-1.201
					C204.3,563.765,204.9,564.365,204.9,564.966z"/>
				<path clip-path="url(#SVGID_2_)" fill-rule="evenodd" clip-rule="evenodd" fill="#2C77BC" d="M211.5,564.966
					c0,0.699-0.5,1.299-1.3,1.299c-0.601,0-1.2-0.6-1.2-1.299c0-0.601,0.6-1.201,1.2-1.201C211,563.765,211.5,564.365,211.5,564.966
					z"/>
				<path clip-path="url(#SVGID_2_)" fill-rule="evenodd" clip-rule="evenodd" fill="#2C77BC" d="M218.2,564.966
					c0,0.699-0.601,1.299-1.2,1.299c-0.7,0-1.3-0.6-1.3-1.299c0-0.601,0.6-1.201,1.3-1.201
					C217.6,563.765,218.2,564.365,218.2,564.966z"/>
				<path clip-path="url(#SVGID_2_)" fill-rule="evenodd" clip-rule="evenodd" fill="#2C77BC" d="M151.5,571.765
					c0,0.701-0.5,1.301-1.2,1.301s-1.3-0.6-1.3-1.301c0-0.699,0.6-1.199,1.3-1.199S151.5,571.065,151.5,571.765z"/>
				<path clip-path="url(#SVGID_2_)" fill-rule="evenodd" clip-rule="evenodd" fill="#2C77BC" d="M158.2,571.765
					c0,0.701-0.601,1.301-1.2,1.301c-0.8,0-1.3-0.6-1.3-1.301c0-0.699,0.5-1.199,1.3-1.199
					C157.6,570.565,158.2,571.065,158.2,571.765z"/>
				<path clip-path="url(#SVGID_2_)" fill-rule="evenodd" clip-rule="evenodd" fill="#2C77BC" d="M164.9,571.765
					c0,0.701-0.601,1.301-1.301,1.301c-0.699,0-1.199-0.6-1.199-1.301c0-0.699,0.5-1.199,1.199-1.199
					C164.3,570.565,164.9,571.065,164.9,571.765z"/>
				<path clip-path="url(#SVGID_2_)" fill-rule="evenodd" clip-rule="evenodd" fill="#2C77BC" d="M171.5,571.765
					c0,0.701-0.6,1.301-1.3,1.301c-0.601,0-1.2-0.6-1.2-1.301c0-0.699,0.6-1.199,1.2-1.199
					C170.9,570.565,171.5,571.065,171.5,571.765z"/>
				<path clip-path="url(#SVGID_2_)" fill-rule="evenodd" clip-rule="evenodd" fill="#2C77BC" d="M178.2,571.765
					c0,0.701-0.601,1.301-1.3,1.301c-0.7,0-1.2-0.6-1.2-1.301c0-0.699,0.5-1.199,1.2-1.199
					C177.6,570.565,178.2,571.065,178.2,571.765z"/>
				<path clip-path="url(#SVGID_2_)" fill-rule="evenodd" clip-rule="evenodd" fill="#2C77BC" d="M184.8,571.765
					c0,0.701-0.5,1.301-1.2,1.301c-0.699,0-1.199-0.6-1.199-1.301c0-0.699,0.5-1.199,1.199-1.199
					C184.3,570.565,184.8,571.065,184.8,571.765z"/>
				<path clip-path="url(#SVGID_2_)" fill-rule="evenodd" clip-rule="evenodd" fill="#2C77BC" d="M191.5,571.765
					c0,0.701-0.6,1.301-1.2,1.301c-0.7,0-1.3-0.6-1.3-1.301c0-0.699,0.6-1.199,1.3-1.199C190.9,570.565,191.5,571.065,191.5,571.765
					z"/>
				<path clip-path="url(#SVGID_2_)" fill-rule="evenodd" clip-rule="evenodd" fill="#2C77BC" d="M198.2,571.765
					c0,0.701-0.601,1.301-1.2,1.301c-0.7,0-1.3-0.6-1.3-1.301c0-0.699,0.6-1.199,1.3-1.199
					C197.6,570.565,198.2,571.065,198.2,571.765z"/>
				<path clip-path="url(#SVGID_2_)" fill-rule="evenodd" clip-rule="evenodd" fill="#2C77BC" d="M204.9,571.765
					c0,0.701-0.601,1.301-1.301,1.301c-0.699,0-1.199-0.6-1.199-1.301c0-0.699,0.5-1.199,1.199-1.199
					C204.3,570.565,204.9,571.065,204.9,571.765z"/>
				<path clip-path="url(#SVGID_2_)" fill-rule="evenodd" clip-rule="evenodd" fill="#2C77BC" d="M211.5,571.765
					c0,0.701-0.5,1.301-1.3,1.301c-0.601,0-1.2-0.6-1.2-1.301c0-0.699,0.6-1.199,1.2-1.199C211,570.565,211.5,571.065,211.5,571.765
					z"/>
				<path clip-path="url(#SVGID_2_)" fill-rule="evenodd" clip-rule="evenodd" fill="#2C77BC" d="M218.2,571.765
					c0,0.701-0.601,1.301-1.2,1.301c-0.7,0-1.3-0.6-1.3-1.301c0-0.699,0.6-1.199,1.3-1.199
					C217.6,570.565,218.2,571.065,218.2,571.765z"/>
				<path clip-path="url(#SVGID_2_)" fill-rule="evenodd" clip-rule="evenodd" fill="#2C77BC" d="M151.5,578.565
					c0,0.699-0.5,1.199-1.2,1.199s-1.3-0.5-1.3-1.199c0-0.7,0.6-1.301,1.3-1.301S151.5,577.865,151.5,578.565z"/>
				<path clip-path="url(#SVGID_2_)" fill-rule="evenodd" clip-rule="evenodd" fill="#2C77BC" d="M158.2,578.565
					c0,0.699-0.601,1.199-1.2,1.199c-0.8,0-1.3-0.5-1.3-1.199c0-0.7,0.5-1.301,1.3-1.301C157.6,577.265,158.2,577.865,158.2,578.565
					z"/>
				<path clip-path="url(#SVGID_2_)" fill-rule="evenodd" clip-rule="evenodd" fill="#2C77BC" d="M164.9,578.565
					c0,0.699-0.601,1.199-1.301,1.199c-0.699,0-1.199-0.5-1.199-1.199c0-0.7,0.5-1.301,1.199-1.301
					C164.3,577.265,164.9,577.865,164.9,578.565z"/>
				<path clip-path="url(#SVGID_2_)" fill-rule="evenodd" clip-rule="evenodd" fill="#2C77BC" d="M171.5,578.565
					c0,0.699-0.6,1.199-1.3,1.199c-0.601,0-1.2-0.5-1.2-1.199c0-0.7,0.6-1.301,1.2-1.301C170.9,577.265,171.5,577.865,171.5,578.565
					z"/>
				<path clip-path="url(#SVGID_2_)" fill-rule="evenodd" clip-rule="evenodd" fill="#2C77BC" d="M178.2,578.565
					c0,0.699-0.601,1.199-1.3,1.199c-0.7,0-1.2-0.5-1.2-1.199c0-0.7,0.5-1.301,1.2-1.301C177.6,577.265,178.2,577.865,178.2,578.565
					z"/>
				<path clip-path="url(#SVGID_2_)" fill-rule="evenodd" clip-rule="evenodd" fill="#2C77BC" d="M184.8,578.565
					c0,0.699-0.5,1.199-1.2,1.199c-0.699,0-1.199-0.5-1.199-1.199c0-0.7,0.5-1.301,1.199-1.301
					C184.3,577.265,184.8,577.865,184.8,578.565z"/>
				<path clip-path="url(#SVGID_2_)" fill-rule="evenodd" clip-rule="evenodd" fill="#2C77BC" d="M191.5,578.565
					c0,0.699-0.6,1.199-1.2,1.199c-0.7,0-1.3-0.5-1.3-1.199c0-0.7,0.6-1.301,1.3-1.301C190.9,577.265,191.5,577.865,191.5,578.565z"
					/>
				<path clip-path="url(#SVGID_2_)" fill-rule="evenodd" clip-rule="evenodd" fill="#2C77BC" d="M198.2,578.565
					c0,0.699-0.601,1.199-1.2,1.199c-0.7,0-1.3-0.5-1.3-1.199c0-0.7,0.6-1.301,1.3-1.301C197.6,577.265,198.2,577.865,198.2,578.565
					z"/>
				<path clip-path="url(#SVGID_2_)" fill-rule="evenodd" clip-rule="evenodd" fill="#2C77BC" d="M204.9,578.565
					c0,0.699-0.601,1.199-1.301,1.199c-0.699,0-1.199-0.5-1.199-1.199c0-0.7,0.5-1.301,1.199-1.301
					C204.3,577.265,204.9,577.865,204.9,578.565z"/>
				<path clip-path="url(#SVGID_2_)" fill-rule="evenodd" clip-rule="evenodd" fill="#2C77BC" d="M211.5,578.565
					c0,0.699-0.5,1.199-1.3,1.199c-0.601,0-1.2-0.5-1.2-1.199c0-0.7,0.6-1.301,1.2-1.301C211,577.265,211.5,577.865,211.5,578.565z"
					/>
				<path clip-path="url(#SVGID_2_)" fill-rule="evenodd" clip-rule="evenodd" fill="#2C77BC" d="M218.2,578.565
					c0,0.699-0.601,1.199-1.2,1.199c-0.7,0-1.3-0.5-1.3-1.199c0-0.7,0.6-1.301,1.3-1.301C217.6,577.265,218.2,577.865,218.2,578.565
					z"/>
				<path clip-path="url(#SVGID_2_)" fill-rule="evenodd" clip-rule="evenodd" fill="#2C77BC" d="M151.5,585.265
					c0,0.701-0.5,1.301-1.2,1.301s-1.3-0.6-1.3-1.301c0-0.699,0.6-1.199,1.3-1.199S151.5,584.565,151.5,585.265z"/>
				<path clip-path="url(#SVGID_2_)" fill-rule="evenodd" clip-rule="evenodd" fill="#2C77BC" d="M158.2,585.265
					c0,0.701-0.601,1.301-1.2,1.301c-0.8,0-1.3-0.6-1.3-1.301c0-0.699,0.5-1.199,1.3-1.199
					C157.6,584.065,158.2,584.565,158.2,585.265z"/>
				<path clip-path="url(#SVGID_2_)" fill-rule="evenodd" clip-rule="evenodd" fill="#2C77BC" d="M164.9,585.265
					c0,0.701-0.601,1.301-1.301,1.301c-0.699,0-1.199-0.6-1.199-1.301c0-0.699,0.5-1.199,1.199-1.199
					C164.3,584.065,164.9,584.565,164.9,585.265z"/>
				<path clip-path="url(#SVGID_2_)" fill-rule="evenodd" clip-rule="evenodd" fill="#2C77BC" d="M171.5,585.265
					c0,0.701-0.6,1.301-1.3,1.301c-0.601,0-1.2-0.6-1.2-1.301c0-0.699,0.6-1.199,1.2-1.199
					C170.9,584.065,171.5,584.565,171.5,585.265z"/>
				<path clip-path="url(#SVGID_2_)" fill-rule="evenodd" clip-rule="evenodd" fill="#2C77BC" d="M178.2,585.265
					c0,0.701-0.601,1.301-1.3,1.301c-0.7,0-1.2-0.6-1.2-1.301c0-0.699,0.5-1.199,1.2-1.199
					C177.6,584.065,178.2,584.565,178.2,585.265z"/>
				<path clip-path="url(#SVGID_2_)" fill-rule="evenodd" clip-rule="evenodd" fill="#2C77BC" d="M184.8,585.265
					c0,0.701-0.5,1.301-1.2,1.301c-0.699,0-1.199-0.6-1.199-1.301c0-0.699,0.5-1.199,1.199-1.199
					C184.3,584.065,184.8,584.565,184.8,585.265z"/>
				<path clip-path="url(#SVGID_2_)" fill-rule="evenodd" clip-rule="evenodd" fill="#2C77BC" d="M191.5,585.265
					c0,0.701-0.6,1.301-1.2,1.301c-0.7,0-1.3-0.6-1.3-1.301c0-0.699,0.6-1.199,1.3-1.199C190.9,584.065,191.5,584.565,191.5,585.265
					z"/>
				<path clip-path="url(#SVGID_2_)" fill-rule="evenodd" clip-rule="evenodd" fill="#2C77BC" d="M198.2,585.265
					c0,0.701-0.601,1.301-1.2,1.301c-0.7,0-1.3-0.6-1.3-1.301c0-0.699,0.6-1.199,1.3-1.199
					C197.6,584.065,198.2,584.565,198.2,585.265z"/>
				<path clip-path="url(#SVGID_2_)" fill-rule="evenodd" clip-rule="evenodd" fill="#2C77BC" d="M204.9,585.265
					c0,0.701-0.601,1.301-1.301,1.301c-0.699,0-1.199-0.6-1.199-1.301c0-0.699,0.5-1.199,1.199-1.199
					C204.3,584.065,204.9,584.565,204.9,585.265z"/>
				<path clip-path="url(#SVGID_2_)" fill-rule="evenodd" clip-rule="evenodd" fill="#2C77BC" d="M211.5,585.265
					c0,0.701-0.5,1.301-1.3,1.301c-0.601,0-1.2-0.6-1.2-1.301c0-0.699,0.6-1.199,1.2-1.199C211,584.065,211.5,584.565,211.5,585.265
					z"/>
				<path clip-path="url(#SVGID_2_)" fill-rule="evenodd" clip-rule="evenodd" fill="#2C77BC" d="M218.2,585.265
					c0,0.701-0.601,1.301-1.2,1.301c-0.7,0-1.3-0.6-1.3-1.301c0-0.699,0.6-1.199,1.3-1.199
					C217.6,584.065,218.2,584.565,218.2,585.265z"/>
				<path clip-path="url(#SVGID_2_)" fill-rule="evenodd" clip-rule="evenodd" fill="#2C77BC" d="M151.5,592.065
					c0,0.6-0.5,1.199-1.2,1.199s-1.3-0.6-1.3-1.199c0-0.699,0.6-1.301,1.3-1.301S151.5,591.366,151.5,592.065z"/>
				<path clip-path="url(#SVGID_2_)" fill-rule="evenodd" clip-rule="evenodd" fill="#2C77BC" d="M158.2,592.065
					c0,0.6-0.601,1.199-1.2,1.199c-0.8,0-1.3-0.6-1.3-1.199c0-0.699,0.5-1.301,1.3-1.301C157.6,590.765,158.2,591.366,158.2,592.065
					z"/>
				<path clip-path="url(#SVGID_2_)" fill-rule="evenodd" clip-rule="evenodd" fill="#2C77BC" d="M164.9,592.065
					c0,0.6-0.601,1.199-1.301,1.199c-0.699,0-1.199-0.6-1.199-1.199c0-0.699,0.5-1.301,1.199-1.301
					C164.3,590.765,164.9,591.366,164.9,592.065z"/>
				<path clip-path="url(#SVGID_2_)" fill-rule="evenodd" clip-rule="evenodd" fill="#2C77BC" d="M171.5,592.065
					c0,0.6-0.6,1.199-1.3,1.199c-0.601,0-1.2-0.6-1.2-1.199c0-0.699,0.6-1.301,1.2-1.301C170.9,590.765,171.5,591.366,171.5,592.065
					z"/>
				<path clip-path="url(#SVGID_2_)" fill-rule="evenodd" clip-rule="evenodd" fill="#2C77BC" d="M178.2,592.065
					c0,0.6-0.601,1.199-1.3,1.199c-0.7,0-1.2-0.6-1.2-1.199c0-0.699,0.5-1.301,1.2-1.301C177.6,590.765,178.2,591.366,178.2,592.065
					z"/>
				<path clip-path="url(#SVGID_2_)" fill-rule="evenodd" clip-rule="evenodd" fill="#2C77BC" d="M184.8,592.065
					c0,0.6-0.5,1.199-1.2,1.199c-0.699,0-1.199-0.6-1.199-1.199c0-0.699,0.5-1.301,1.199-1.301
					C184.3,590.765,184.8,591.366,184.8,592.065z"/>
				<path clip-path="url(#SVGID_2_)" fill-rule="evenodd" clip-rule="evenodd" fill="#2C77BC" d="M191.5,592.065
					c0,0.6-0.6,1.199-1.2,1.199c-0.7,0-1.3-0.6-1.3-1.199c0-0.699,0.6-1.301,1.3-1.301C190.9,590.765,191.5,591.366,191.5,592.065z"
					/>
				<path clip-path="url(#SVGID_2_)" fill-rule="evenodd" clip-rule="evenodd" fill="#2C77BC" d="M198.2,592.065
					c0,0.6-0.601,1.199-1.2,1.199c-0.7,0-1.3-0.6-1.3-1.199c0-0.699,0.6-1.301,1.3-1.301C197.6,590.765,198.2,591.366,198.2,592.065
					z"/>
				<path clip-path="url(#SVGID_2_)" fill-rule="evenodd" clip-rule="evenodd" fill="#2C77BC" d="M204.9,592.065
					c0,0.6-0.601,1.199-1.301,1.199c-0.699,0-1.199-0.6-1.199-1.199c0-0.699,0.5-1.301,1.199-1.301
					C204.3,590.765,204.9,591.366,204.9,592.065z"/>
				<path clip-path="url(#SVGID_2_)" fill-rule="evenodd" clip-rule="evenodd" fill="#2C77BC" d="M211.5,592.065
					c0,0.6-0.5,1.199-1.3,1.199c-0.601,0-1.2-0.6-1.2-1.199c0-0.699,0.6-1.301,1.2-1.301C211,590.765,211.5,591.366,211.5,592.065z"
					/>
				<path clip-path="url(#SVGID_2_)" fill-rule="evenodd" clip-rule="evenodd" fill="#2C77BC" d="M218.2,592.065
					c0,0.6-0.601,1.199-1.2,1.199c-0.7,0-1.3-0.6-1.3-1.199c0-0.699,0.6-1.301,1.3-1.301C217.6,590.765,218.2,591.366,218.2,592.065
					z"/>
				
					<rect x="104.4" y="505.665" clip-path="url(#SVGID_2_)" fill="none" stroke="#2C77BC" stroke-width="1.6414" stroke-miterlimit="7.6613" width="5.399" height="80.301"/>
				
					<rect x="104.4" y="492.865" clip-path="url(#SVGID_2_)" fill="none" stroke="#2C77BC" stroke-width="1.6414" stroke-miterlimit="7.6613" width="47.3" height="5.399"/>
				
					<rect x="99.3" y="608.466" clip-path="url(#SVGID_2_)" fill="none" stroke="#2C77BC" stroke-width="1.6414" stroke-miterlimit="7.6613" width="26.8" height="5.4"/>
				
					<rect x="164" y="492.865" clip-path="url(#SVGID_2_)" fill="none" stroke="#2C77BC" stroke-width="1.6414" stroke-miterlimit="7.6613" width="53.4" height="5.399"/>
				
					<rect x="164.8" y="535.165" clip-path="url(#SVGID_2_)" fill="none" stroke="#2C77BC" stroke-width="1.6414" stroke-miterlimit="7.6613" width="12.101" height="12.1"/>
				
					<rect x="199.4" y="523.265" clip-path="url(#SVGID_2_)" fill="none" stroke="#2C77BC" stroke-width="1.6414" stroke-miterlimit="7.6613" width="12.1" height="6.101"/>
				
					<rect x="216.9" y="509.865" clip-path="url(#SVGID_2_)" fill="none" stroke="#2C77BC" stroke-width="1.6414" stroke-miterlimit="7.6613" width="12.1" height="6"/>
				
					<rect x="216.9" y="536.665" clip-path="url(#SVGID_2_)" fill="none" stroke="#2C77BC" stroke-width="1.6414" stroke-miterlimit="7.6613" width="12.1" height="6.1"/>
				
					<rect x="130.9" y="609.165" clip-path="url(#SVGID_2_)" fill="none" stroke="#2C77BC" stroke-width="1.6414" stroke-miterlimit="7.6613" width="36.5" height="14"/>
				
					<rect x="179.1" y="609.165" clip-path="url(#SVGID_2_)" fill="none" stroke="#2C77BC" stroke-width="1.6414" stroke-miterlimit="7.6613" width="36.5" height="14"/>
				
					<rect x="233.7" y="523.265" clip-path="url(#SVGID_2_)" fill="none" stroke="#2C77BC" stroke-width="1.6414" stroke-miterlimit="7.6613" width="12.1" height="6.101"/>
				
					<rect x="135.9" y="616.966" clip-path="url(#SVGID_2_)" fill-rule="evenodd" clip-rule="evenodd" fill="#2C77BC" width="1.699" height="1.6"/>
				
					<rect x="142.1" y="616.966" clip-path="url(#SVGID_2_)" fill-rule="evenodd" clip-rule="evenodd" fill="#2C77BC" width="1.601" height="1.6"/>
				
					<rect x="148.3" y="616.966" clip-path="url(#SVGID_2_)" fill-rule="evenodd" clip-rule="evenodd" fill="#2C77BC" width="1.601" height="1.6"/>
				
					<rect x="154.4" y="616.966" clip-path="url(#SVGID_2_)" fill-rule="evenodd" clip-rule="evenodd" fill="#2C77BC" width="1.699" height="1.6"/>
				
					<rect x="160.6" y="616.966" clip-path="url(#SVGID_2_)" fill-rule="evenodd" clip-rule="evenodd" fill="#2C77BC" width="1.601" height="1.6"/>
				
					<rect x="184.1" y="616.966" clip-path="url(#SVGID_2_)" fill-rule="evenodd" clip-rule="evenodd" fill="#2C77BC" width="1.601" height="1.6"/>
				
					<rect x="190.2" y="616.966" clip-path="url(#SVGID_2_)" fill-rule="evenodd" clip-rule="evenodd" fill="#2C77BC" width="1.7" height="1.6"/>
				
					<rect x="196.4" y="616.966" clip-path="url(#SVGID_2_)" fill-rule="evenodd" clip-rule="evenodd" fill="#2C77BC" width="1.6" height="1.6"/>
				
					<rect x="202.6" y="616.966" clip-path="url(#SVGID_2_)" fill-rule="evenodd" clip-rule="evenodd" fill="#2C77BC" width="1.601" height="1.6"/>
				
					<rect x="208.7" y="616.966" clip-path="url(#SVGID_2_)" fill-rule="evenodd" clip-rule="evenodd" fill="#2C77BC" width="1.7" height="1.6"/>
				
					<line clip-path="url(#SVGID_2_)" fill="none" stroke="#2C77BC" stroke-width="1.6414" stroke-miterlimit="7.6613" x1="106" y1="608.466" x2="106" y2="613.765"/>
				
					<line clip-path="url(#SVGID_2_)" fill="none" stroke="#2C77BC" stroke-width="1.6414" stroke-miterlimit="7.6613" x1="112.7" y1="608.466" x2="112.7" y2="613.765"/>
				
					<line clip-path="url(#SVGID_2_)" fill="none" stroke="#2C77BC" stroke-width="1.6414" stroke-miterlimit="7.6613" x1="119.3" y1="608.466" x2="119.3" y2="613.765"/>
				
					<rect x="101.3" y="594.466" clip-path="url(#SVGID_2_)" fill="none" stroke="#2C77BC" stroke-width="1.6414" stroke-miterlimit="7.6613" width="13.3" height="5.4"/>
				
					<line clip-path="url(#SVGID_2_)" fill="none" stroke="#2C77BC" stroke-width="1.6414" stroke-miterlimit="7.6613" x1="107.9" y1="594.466" x2="107.9" y2="599.765"/>
				
					<line clip-path="url(#SVGID_2_)" fill="none" stroke="#2C77BC" stroke-width="1.6414" stroke-miterlimit="7.6613" x1="109.8" y1="579.265" x2="104.4" y2="579.265"/>
				
					<line clip-path="url(#SVGID_2_)" fill="none" stroke="#2C77BC" stroke-width="1.6414" stroke-miterlimit="7.6613" x1="109.8" y1="572.466" x2="104.4" y2="572.466"/>
				
					<line clip-path="url(#SVGID_2_)" fill="none" stroke="#2C77BC" stroke-width="1.6414" stroke-miterlimit="7.6613" x1="109.8" y1="565.765" x2="104.4" y2="565.765"/>
				
					<line clip-path="url(#SVGID_2_)" fill="none" stroke="#2C77BC" stroke-width="1.6414" stroke-miterlimit="7.6613" x1="109.8" y1="559.065" x2="104.4" y2="559.065"/>
				
					<line clip-path="url(#SVGID_2_)" fill="none" stroke="#2C77BC" stroke-width="1.6414" stroke-miterlimit="7.6613" x1="109.8" y1="552.466" x2="104.4" y2="552.466"/>
				
					<line clip-path="url(#SVGID_2_)" fill="none" stroke="#2C77BC" stroke-width="1.6414" stroke-miterlimit="7.6613" x1="109.8" y1="545.765" x2="104.4" y2="545.765"/>
				
					<line clip-path="url(#SVGID_2_)" fill="none" stroke="#2C77BC" stroke-width="1.6414" stroke-miterlimit="7.6613" x1="109.8" y1="539.065" x2="104.4" y2="539.065"/>
				
					<line clip-path="url(#SVGID_2_)" fill="none" stroke="#2C77BC" stroke-width="1.6414" stroke-miterlimit="7.6613" x1="109.8" y1="532.365" x2="104.4" y2="532.365"/>
				
					<line clip-path="url(#SVGID_2_)" fill="none" stroke="#2C77BC" stroke-width="1.6414" stroke-miterlimit="7.6613" x1="109.8" y1="525.765" x2="104.4" y2="525.765"/>
				
					<line clip-path="url(#SVGID_2_)" fill="none" stroke="#2C77BC" stroke-width="1.6414" stroke-miterlimit="7.6613" x1="109.8" y1="519.065" x2="104.4" y2="519.065"/>
				
					<line clip-path="url(#SVGID_2_)" fill="none" stroke="#2C77BC" stroke-width="1.6414" stroke-miterlimit="7.6613" x1="109.8" y1="512.365" x2="104.4" y2="512.365"/>
				
					<line clip-path="url(#SVGID_2_)" fill="none" stroke="#2C77BC" stroke-width="1.6414" stroke-miterlimit="7.6613" x1="170.6" y1="498.165" x2="170.6" y2="492.865"/>
				
					<line clip-path="url(#SVGID_2_)" fill="none" stroke="#2C77BC" stroke-width="1.6414" stroke-miterlimit="7.6613" x1="144.8" y1="498.165" x2="144.8" y2="492.865"/>
				
					<line clip-path="url(#SVGID_2_)" fill="none" stroke="#2C77BC" stroke-width="1.6414" stroke-miterlimit="7.6613" x1="137.8" y1="498.165" x2="137.8" y2="492.865"/>
				
					<line clip-path="url(#SVGID_2_)" fill="none" stroke="#2C77BC" stroke-width="1.6414" stroke-miterlimit="7.6613" x1="131.1" y1="498.165" x2="131.1" y2="492.865"/>
				
					<line clip-path="url(#SVGID_2_)" fill="none" stroke="#2C77BC" stroke-width="1.6414" stroke-miterlimit="7.6613" x1="124.4" y1="498.165" x2="124.4" y2="492.865"/>
				
					<line clip-path="url(#SVGID_2_)" fill="none" stroke="#2C77BC" stroke-width="1.6414" stroke-miterlimit="7.6613" x1="117.8" y1="498.165" x2="117.8" y2="492.865"/>
				
					<line clip-path="url(#SVGID_2_)" fill="none" stroke="#2C77BC" stroke-width="1.6414" stroke-miterlimit="7.6613" x1="111.1" y1="498.165" x2="111.1" y2="492.865"/>
				
					<line clip-path="url(#SVGID_2_)" fill="none" stroke="#2C77BC" stroke-width="1.6414" stroke-miterlimit="7.6613" x1="177.3" y1="498.165" x2="177.3" y2="492.865"/>
				
					<line clip-path="url(#SVGID_2_)" fill="none" stroke="#2C77BC" stroke-width="1.6414" stroke-miterlimit="7.6613" x1="184" y1="498.165" x2="184" y2="492.865"/>
				
					<line clip-path="url(#SVGID_2_)" fill="none" stroke="#2C77BC" stroke-width="1.6414" stroke-miterlimit="7.6613" x1="190.7" y1="498.165" x2="190.7" y2="492.865"/>
				
					<line clip-path="url(#SVGID_2_)" fill="none" stroke="#2C77BC" stroke-width="1.6414" stroke-miterlimit="7.6613" x1="197.3" y1="498.165" x2="197.3" y2="492.865"/>
				
					<line clip-path="url(#SVGID_2_)" fill="none" stroke="#2C77BC" stroke-width="1.6414" stroke-miterlimit="7.6613" x1="204" y1="498.165" x2="204" y2="492.865"/>
				
					<line clip-path="url(#SVGID_2_)" fill="none" stroke="#2C77BC" stroke-width="1.6414" stroke-miterlimit="7.6613" x1="210.7" y1="498.165" x2="210.7" y2="492.865"/>
				
					<rect x="243.7" y="572.966" clip-path="url(#SVGID_2_)" fill="none" stroke="#2C77BC" stroke-width="1.6414" stroke-miterlimit="7.6613" width="6.7" height="15.699"/>
				
					<rect x="250.4" y="584.466" clip-path="url(#SVGID_2_)" fill-rule="evenodd" clip-rule="evenodd" fill="#2C77BC" width="2.8" height="2.899"/>
				<path clip-path="url(#SVGID_2_)" fill="none" stroke="#2C77BC" stroke-width="1.6414" stroke-miterlimit="7.6613" d="
					M152,520.265h-3.9c-1.8,0-3.3-1.5-3.3-3.299v-3.9c0-1.801,1.5-3.2,3.3-3.2h3.9c1.8,0,3.3,1.399,3.3,3.2v3.9
					C155.3,518.765,153.8,520.265,152,520.265z"/>
				<path clip-path="url(#SVGID_2_)" fill="#2C77BC" d="M251.83,592.409c0,0.883-0.19,1.563-0.57,2.041
					c-0.381,0.479-0.92,0.719-1.618,0.719c-0.701,0-1.241-0.24-1.622-0.719c-0.38-0.479-0.57-1.158-0.57-2.041
					s0.19-1.564,0.57-2.043c0.381-0.479,0.921-0.719,1.622-0.719c0.698,0,1.237,0.239,1.618,0.719
					C251.64,590.845,251.83,591.526,251.83,592.409z M250.457,592.399c0-0.666-0.062-1.135-0.187-1.406
					c-0.124-0.271-0.335-0.408-0.629-0.408c-0.295,0-0.505,0.137-0.631,0.408s-0.188,0.74-0.188,1.406
					c0,0.672,0.063,1.146,0.188,1.422s0.336,0.414,0.631,0.414c0.292,0,0.501-0.139,0.627-0.414S250.457,593.071,250.457,592.399z"
					/>
				
					<line clip-path="url(#SVGID_2_)" fill="none" stroke="#1A77BC" stroke-width="1.6414" stroke-linecap="round" stroke-linejoin="round" stroke-miterlimit="10" x1="573.8" y1="469.966" x2="422.4" y2="469.966"/>
				
					<line clip-path="url(#SVGID_2_)" fill="none" stroke="#1A77BC" stroke-width="1.6414" stroke-linecap="round" stroke-linejoin="round" stroke-miterlimit="10" x1="571.6" y1="350.065" x2="427.8" y2="350.065"/>
				
					<line clip-path="url(#SVGID_2_)" fill="none" stroke="#1A77BC" stroke-width="1.6414" stroke-linecap="round" stroke-linejoin="round" stroke-miterlimit="10" x1="426.2" y1="351.665" x2="426.2" y2="468.365"/>
				
					<line clip-path="url(#SVGID_2_)" fill="none" stroke="#1A77BC" stroke-width="1.6414" stroke-linecap="round" stroke-linejoin="round" stroke-miterlimit="10" x1="573.1" y1="468.365" x2="573.1" y2="351.665"/>
				
					<line clip-path="url(#SVGID_2_)" fill="none" stroke="#1A77BC" stroke-width="1.6414" stroke-linecap="round" stroke-linejoin="round" stroke-miterlimit="10" x1="571.6" y1="203.165" x2="427.8" y2="203.165"/>
				
					<line clip-path="url(#SVGID_2_)" fill="none" stroke="#1A77BC" stroke-width="1.6414" stroke-linecap="round" stroke-linejoin="round" stroke-miterlimit="10" x1="426.2" y1="204.765" x2="426.2" y2="235.665"/>
				
					<line clip-path="url(#SVGID_2_)" fill="none" stroke="#1A77BC" stroke-width="1.6414" stroke-linecap="round" stroke-linejoin="round" stroke-miterlimit="10" x1="573.1" y1="235.665" x2="573.1" y2="204.765"/>
				
					<line clip-path="url(#SVGID_2_)" fill="none" stroke="#1A77BC" stroke-width="1.6414" stroke-linecap="round" stroke-linejoin="round" stroke-miterlimit="10" x1="426.2" y1="83.565" x2="426.2" y2="201.665"/>
				
					<line clip-path="url(#SVGID_2_)" fill="none" stroke="#1A77BC" stroke-width="1.6414" stroke-linecap="round" stroke-linejoin="round" stroke-miterlimit="10" x1="573.1" y1="201.665" x2="573.1" y2="83.565"/>
				
					<line clip-path="url(#SVGID_2_)" fill="none" stroke="#1A77BC" stroke-width="1.6414" stroke-linecap="round" stroke-linejoin="round" stroke-miterlimit="10" x1="303.4" y1="203.165" x2="303.4" y2="350.065"/>
				
					<line clip-path="url(#SVGID_2_)" fill="none" stroke="#1A77BC" stroke-width="1.6414" stroke-linecap="round" stroke-linejoin="round" stroke-miterlimit="10" x1="300.5" y1="347.165" x2="300.5" y2="206.165"/>
				
					<line clip-path="url(#SVGID_2_)" fill="none" stroke="#1A77BC" stroke-width="1.6414" stroke-linecap="round" stroke-linejoin="round" stroke-miterlimit="10" x1="693.3" y1="203.165" x2="693.3" y2="350.065"/>
				
					<line clip-path="url(#SVGID_2_)" fill="none" stroke="#1A77BC" stroke-width="1.6414" stroke-linecap="round" stroke-linejoin="round" stroke-miterlimit="10" x1="696.3" y1="347.165" x2="696.3" y2="206.165"/>
				
					<line clip-path="url(#SVGID_2_)" fill="none" stroke="#1A77BC" stroke-width="1.6414" stroke-linecap="round" stroke-linejoin="round" stroke-miterlimit="10" x1="426.2" y1="348.565" x2="426.2" y2="317.565"/>
				
					<line clip-path="url(#SVGID_2_)" fill="none" stroke="#1A77BC" stroke-width="1.6414" stroke-linecap="round" stroke-linejoin="round" stroke-miterlimit="10" x1="573.1" y1="317.565" x2="573.1" y2="348.565"/>
				
					<line clip-path="url(#SVGID_2_)" fill="none" stroke="#1A77BC" stroke-width="1.6414" stroke-linecap="round" stroke-linejoin="round" stroke-miterlimit="10" x1="573.1" y1="263.466" x2="573.1" y2="289.765"/>
				
					<line clip-path="url(#SVGID_2_)" fill="none" stroke="#1A77BC" stroke-width="1.6414" stroke-linecap="round" stroke-linejoin="round" stroke-miterlimit="10" x1="426.2" y1="263.466" x2="426.2" y2="289.765"/>
				<path clip-path="url(#SVGID_2_)" fill="none" stroke="#1A77BC" stroke-width="1.6414" stroke-miterlimit="7.6613" d="
					M490.4,261.665c0,5.2,4.199,9.4,9.3,9.4c5.2,0,9.3-4.2,9.3-9.4c0-5.1-4.1-9.3-9.3-9.3
					C494.6,252.365,490.4,256.565,490.4,261.665z"/>
				<path clip-path="url(#SVGID_2_)" fill="none" stroke="#1A77BC" stroke-width="1.6414" stroke-miterlimit="7.6613" d="
					M491.4,324.565c0,4.5,3.699,8.199,8.3,8.199c4.6,0,8.2-3.699,8.2-8.199c0-4.6-3.601-8.301-8.2-8.301
					C495.1,316.265,491.4,319.966,491.4,324.565z"/>
				
					<rect x="572.2" y="291.365" clip-path="url(#SVGID_2_)" fill="none" stroke="#1A77BC" stroke-width="1.6414" stroke-miterlimit="7.6613" width="1" height="24.7"/>
				
					<rect x="572.2" y="237.165" clip-path="url(#SVGID_2_)" fill="none" stroke="#1A77BC" stroke-width="1.6414" stroke-miterlimit="7.6613" width="1" height="24.801"/>
				
					<line clip-path="url(#SVGID_2_)" fill="none" stroke="#1A77BC" stroke-width="2.4621" stroke-miterlimit="7.6613" x1="426.2" y1="81.966" x2="573.1" y2="81.966"/>
				<path clip-path="url(#SVGID_2_)" fill="none" stroke="#1A77BC" stroke-width="2.4621" stroke-miterlimit="7.6613" d="
					M495.3,469.966H626.9c2.5,0,4.6-2.101,4.6-4.601v-76.7c0-14.699-2.6-27.4-17-30.3l-41.3-8.2h120.2l2.899-3H818l-0.1-31.1h1.6
					c1.7,0,6.1-1.4,6.1-3.1l0.101-18.5c0.1-1.701-4.4-3.101-6.101-3.101H818v-29.399h1.6c1.7,0,6.101-1.4,6.101-3.101l-0.101-18.601
					c0-1.699-4.399-3-6.1-3h-1.4l-0.1-31.1H696.3l-2.899-3H573.2l24.1-7.699c1.4-0.301,5.601-2.9,5.601-4.301c0,0,3.8-47.1,3.6-47.4
					c0,0-0.1-9.899-0.1-10.699v-42c0-1.801-1.4-3.1-3.101-3.1l-30.1-6"/>
				<path clip-path="url(#SVGID_2_)" fill="none" stroke="#1A77BC" stroke-width="2.4621" stroke-miterlimit="7.6613" d="
					M495.3,469.966H371.8c-2.5,0-4.6-2.101-4.6-4.601v-76.7c0-14.699,2.6-27.4,17.1-30.3l41.3-8.2H302.7l-2.9-3H178.3v-31.1h-1.5
					c-1.7,0-6.2-1.4-6.2-3.1l-0.1-18.5c0-1.701,4.4-3.101,6.1-3.101h0.101h1.6v-29.399h-1.6c-1.7,0-6.2-1.4-6.2-3.101l0.1-18.601
					c0-1.699,4.5-3,6.2-3h1.3l0.2-31.1h121.5l2.9-3H425.6l-24.199-7.699c-1.4-0.301-5.601-2.9-5.601-4.301c0,0-3.8-47.1-3.6-47.4
					c0,0,0.1-9.899,0.1-10.699v-42c0-1.801,1.4-3.1,3.101-3.1l30.199-6"/>
				<polygon clip-path="url(#SVGID_2_)" fill="none" stroke="#1A77BC" stroke-width="1.6414" stroke-miterlimit="7.6613" points="
					770.4,283.966 769.4,284.765 768.3,285.466 767.2,286.165 766.1,286.865 765,287.365 763.8,287.966 762.6,288.365 
					761.3,288.765 760.2,289.065 759.1,289.365 757.8,289.665 756.5,289.765 755.3,289.865 753.7,289.966 752.4,289.966 
					751.1,289.865 749.8,289.665 748.5,289.466 747.1,289.065 746,288.765 744.8,288.365 743.6,287.966 742.4,287.365 
					741.3,286.865 740.1,286.165 739,285.466 738,284.765 737,283.966 736.2,283.265 736.2,284.966 720.8,275.565 714,275.466 
					714,251.665 720.8,251.665 735.4,242.065 736.2,243.865 737.7,242.665 738.7,241.966 739.8,241.165 741.3,240.365 
					742.4,239.765 743.6,239.265 744.8,238.865 746.5,238.265 747.6,237.966 748.5,237.765 749.8,237.565 751.1,237.365 
					752.4,237.265 753.7,237.265 755,237.265 755.9,237.365 757.2,237.565 758.5,237.765 759.8,237.966 761.3,238.365 
					762.6,238.865 763.8,239.265 765,239.765 766.1,240.365 767.2,240.966 768.3,241.765 769.4,242.466 770.4,243.265 
					771.4,244.065 772.3,244.966 773.2,245.865 774.1,246.865 774.9,247.966 775.6,248.966 776.3,250.065 776.9,251.165 
					777.5,252.365 778,253.565 778.5,254.765 778.9,255.966 779.2,257.165 779.5,258.466 779.7,259.765 779.9,261.065 780,262.265 
					780,263.565 780,264.865 779.9,266.165 779.7,267.466 779.5,268.765 779.2,269.966 778.9,271.265 778.5,272.466 778,273.665 
					777.5,274.865 776.9,276.065 776.3,277.165 775.6,278.265 774.9,279.265 774.1,280.265 773.2,281.265 772.3,282.265 
					771.4,283.065 				"/>
				<polygon clip-path="url(#SVGID_2_)" fill="none" stroke="#1A77BC" stroke-width="1.6414" stroke-miterlimit="7.6613" points="
					620.6,243.165 621.6,242.365 622.6,241.565 623.7,240.865 624.8,240.265 626,239.665 627.2,239.165 628.4,238.665 
					629.7,238.265 630.7,237.966 631.8,237.765 633.1,237.466 634.4,237.365 635.7,237.165 637.3,237.165 638.6,237.165 
					639.9,237.265 641.1,237.466 642.4,237.665 643.8,237.966 644.9,238.265 646.2,238.665 647.4,239.165 648.5,239.665 
					649.7,240.265 650.8,240.865 651.9,241.565 653,242.365 654,243.165 654.7,243.765 654.7,242.165 670.1,251.466 677,251.565 
					677,275.466 670.1,275.466 655.5,285.065 654.7,283.165 653.2,284.365 652.2,285.165 651.1,285.865 649.7,286.665 
					648.5,287.265 647.3,287.765 646.2,288.265 644.4,288.765 643.4,289.065 642.4,289.265 641.1,289.565 639.9,289.665 
					638.6,289.765 637.3,289.865 636,289.765 635,289.765 633.7,289.565 632.4,289.365 631.2,289.065 629.7,288.665 628.4,288.265 
					627.2,287.765 626,287.265 624.8,286.665 623.7,286.065 622.6,285.365 621.6,284.665 620.6,283.865 619.6,282.966 
					618.6,282.065 617.8,281.165 616.9,280.165 616.1,279.165 615.4,278.165 614.7,276.966 614,275.865 613.5,274.765 
					612.9,273.565 612.5,272.365 612.1,271.065 611.7,269.865 611.4,268.665 611.2,267.365 611.1,266.065 611,264.765 
					610.9,263.466 611,262.165 611.1,260.865 611.2,259.665 611.4,258.365 611.7,257.065 612.1,255.865 612.5,254.665 
					612.9,253.365 613.5,252.265 614,251.065 614.7,249.966 615.4,248.865 616.1,247.765 616.9,246.765 617.8,245.765 
					618.6,244.865 619.6,243.966 				"/>
				<polygon clip-path="url(#SVGID_2_)" fill="none" stroke="#1A77BC" stroke-width="1.6414" stroke-miterlimit="7.6613" points="
					378.5,284.865 377.5,285.665 376.4,286.365 375.3,287.065 374.2,287.665 373,288.265 371.8,288.765 370.7,289.265 
					369.4,289.665 368.3,289.966 367.2,290.265 366,290.466 364.7,290.665 363.4,290.765 361.8,290.765 360.5,290.765 
					359.2,290.665 357.9,290.565 356.6,290.365 355.2,289.966 354.1,289.665 352.9,289.265 351.7,288.765 350.5,288.265 
					349.3,287.665 348.2,287.065 347.1,286.365 346.1,285.665 345.1,284.865 344.3,284.165 344.3,285.865 328.9,276.466 
					322.1,276.365 322.1,252.565 328.9,252.565 343.5,242.966 344.3,244.765 345.8,243.565 346.8,242.765 347.9,242.065 
					349.3,241.265 350.5,240.665 351.7,240.165 352.9,239.665 354.6,239.165 355.7,238.865 356.6,238.665 357.9,238.466 
					359.2,238.265 360.5,238.165 361.8,238.165 363.1,238.165 364.1,238.265 365.3,238.365 366.6,238.565 367.9,238.865 
					369.4,239.265 370.7,239.665 371.8,240.165 373,240.665 374.2,241.265 375.3,241.865 376.4,242.565 377.5,243.365 
					378.5,244.165 379.5,244.966 380.4,245.865 381.3,246.765 382.1,247.765 382.9,248.765 383.7,249.865 384.4,250.966 
					385,252.065 385.6,253.265 386.1,254.365 386.6,255.565 387,256.865 387.3,258.065 387.6,259.365 387.8,260.565 388,261.865 
					388.1,263.165 388.1,264.466 388.1,265.765 388,267.065 387.8,268.365 387.6,269.565 387.3,270.865 387,272.065 386.6,273.365 
					386.1,274.565 385.6,275.765 385,276.865 384.4,277.966 383.7,279.065 382.9,280.165 382.1,281.165 381.3,282.165 
					380.4,283.065 379.5,283.966 				"/>
				<polygon clip-path="url(#SVGID_2_)" fill="none" stroke="#1A77BC" stroke-width="1.6414" stroke-miterlimit="7.6613" points="
					226.2,243.966 227.2,243.265 228.2,242.466 229.3,241.765 230.5,241.165 231.6,240.565 232.8,240.065 234,239.565 
					235.2,239.165 236.4,238.865 237.5,238.565 238.7,238.365 240,238.165 241.3,238.065 242.9,238.065 244.2,238.065 
					245.5,238.165 246.8,238.365 248,238.565 249.4,238.865 250.5,239.165 251.8,239.565 253,240.065 254.2,240.565 255.3,241.165 
					256.4,241.765 257.5,242.466 258.6,243.265 259.6,243.966 260.4,244.665 260.4,242.966 275.8,252.365 282.6,252.466 
					282.6,276.265 275.8,276.265 261.1,285.865 260.4,284.065 258.9,285.265 257.8,286.065 256.7,286.765 255.3,287.565 
					254.2,288.165 253,288.665 251.8,289.165 250,289.665 249,289.966 248,290.165 246.8,290.466 245.5,290.565 244.2,290.665 
					242.9,290.665 241.6,290.665 240.6,290.665 239.3,290.466 238.1,290.265 236.8,289.966 235.2,289.565 234,289.165 
					232.8,288.665 231.6,288.165 230.5,287.565 229.3,286.966 228.2,286.265 227.2,285.466 226.2,284.765 225.2,283.865 
					224.2,282.966 223.4,282.065 222.5,281.065 221.7,280.065 221,278.966 220.3,277.865 219.7,276.765 219.1,275.665 
					218.6,274.466 218.1,273.265 217.7,271.966 217.3,270.765 217,269.466 216.8,268.265 216.7,266.966 216.6,265.665 
					216.5,264.365 216.6,263.065 216.7,261.765 216.8,260.466 217,259.165 217.3,257.966 217.7,256.665 218.1,255.466 
					218.6,254.265 219.1,253.065 219.7,251.966 220.3,250.865 221,249.765 221.7,248.665 222.5,247.665 223.4,246.665 
					224.2,245.765 225.2,244.865 				"/>
				
					<rect x="750.6" y="227.565" clip-path="url(#SVGID_2_)" fill="none" stroke="#1A77BC" stroke-width="1.6414" stroke-miterlimit="7.6613" width="5.5" height="5.9"/>
				
					<rect x="750.8" y="293.665" clip-path="url(#SVGID_2_)" fill="none" stroke="#1A77BC" stroke-width="1.6414" stroke-miterlimit="7.6613" width="5.5" height="5.7"/>
				
					<rect x="633.7" y="293.065" clip-path="url(#SVGID_2_)" fill="none" stroke="#1A77BC" stroke-width="1.6414" stroke-miterlimit="7.6613" width="5.5" height="5.9"/>
				
					<rect x="633.5" y="227.165" clip-path="url(#SVGID_2_)" fill="none" stroke="#1A77BC" stroke-width="1.6414" stroke-miterlimit="7.6613" width="5.5" height="5.801"/>
				
					<rect x="358.7" y="228.466" clip-path="url(#SVGID_2_)" fill="none" stroke="#1A77BC" stroke-width="1.6414" stroke-miterlimit="7.6613" width="5.5" height="5.899"/>
				
					<rect x="358.8" y="294.466" clip-path="url(#SVGID_2_)" fill="none" stroke="#1A77BC" stroke-width="1.6414" stroke-miterlimit="7.6613" width="5.5" height="5.799"/>
				
					<rect x="240.5" y="294.466" clip-path="url(#SVGID_2_)" fill="none" stroke="#1A77BC" stroke-width="1.6414" stroke-miterlimit="7.6613" width="5.5" height="5.899"/>
				
					<rect x="240.3" y="228.565" clip-path="url(#SVGID_2_)" fill="none" stroke="#1A77BC" stroke-width="1.6414" stroke-miterlimit="7.6613" width="5.5" height="5.8"/>
				
					<rect x="425.7" y="291.365" clip-path="url(#SVGID_2_)" fill="none" stroke="#1A77BC" stroke-width="1.6414" stroke-miterlimit="7.6613" width="1" height="24.7"/>
				
					<rect x="425.7" y="237.165" clip-path="url(#SVGID_2_)" fill="none" stroke="#1A77BC" stroke-width="1.6414" stroke-miterlimit="7.6613" width="1" height="24.801"/>
				<path clip-path="url(#SVGID_2_)" fill="none" stroke="#1A77BC" stroke-width="1.6414" stroke-miterlimit="7.6613" d="
					M563.6,125.565l-4.1-0.801c1.8,9.4-3.6,18.701-12.6,21.9l2.699,3C559.1,145.665,564.8,135.765,563.6,125.565z"/>
				<path clip-path="url(#SVGID_2_)" fill="none" stroke="#1A77BC" stroke-width="1.6414" stroke-miterlimit="7.6613" d="
					M531.4,149.665l2.8-3c-9.101-3.199-14.5-12.5-12.7-21.9l-4,0.801C516.2,135.765,521.9,145.665,531.4,149.665z"/>
				<path clip-path="url(#SVGID_2_)" fill="none" stroke="#1A77BC" stroke-width="1.6414" stroke-miterlimit="7.6613" d="
					M526.6,109.765l1.301,3.9c7.3-6.199,18-6.199,25.3,0l1.3-3.9C546.2,103.565,534.8,103.565,526.6,109.765z"/>
				<path clip-path="url(#SVGID_2_)" fill="none" stroke="#1A77BC" stroke-width="1.6414" stroke-miterlimit="7.6613" d="
					M436.3,125.565l4-0.801c-1.8,9.4,3.601,18.701,12.7,21.9l-2.7,3C440.7,145.665,435.1,135.765,436.3,125.565z"/>
				<path clip-path="url(#SVGID_2_)" fill="none" stroke="#1A77BC" stroke-width="1.6414" stroke-miterlimit="7.6613" d="
					M468.5,149.665l-2.8-3c9-3.199,14.399-12.5,12.6-21.9l4.101,0.801C483.6,135.765,477.9,145.665,468.5,149.665z"/>
				<path clip-path="url(#SVGID_2_)" fill="none" stroke="#1A77BC" stroke-width="1.6414" stroke-miterlimit="7.6613" d="
					M473.3,109.765l-1.3,3.9c-7.3-6.199-18-6.199-25.3,0l-1.3-3.9C453.7,103.565,465,103.565,473.3,109.765z"/>
				
					<rect x="624.3" y="411.565" clip-path="url(#SVGID_2_)" fill="none" stroke="#1A77BC" stroke-width="1.6414" stroke-miterlimit="7.6613" width="5.9" height="5.5"/>
				
					<rect x="597.1" y="137.265" clip-path="url(#SVGID_2_)" fill="none" stroke="#1A77BC" stroke-width="1.6414" stroke-miterlimit="7.6613" width="5.801" height="5.5"/>
				
					<rect x="369.2" y="411.565" clip-path="url(#SVGID_2_)" fill="none" stroke="#1A77BC" stroke-width="1.6414" stroke-miterlimit="7.6613" width="5.899" height="5.5"/>
				
					<rect x="396.5" y="137.265" clip-path="url(#SVGID_2_)" fill="none" stroke="#1A77BC" stroke-width="1.6414" stroke-miterlimit="7.6613" width="5.8" height="5.5"/>
				<polygon clip-path="url(#SVGID_2_)" fill="none" stroke="#1A77BC" stroke-width="2.4621" stroke-miterlimit="7.6613" points="
					918.4,842.466 918.4,839.165 932.7,839.165 932.7,831.565 918.4,831.565 918.4,820.565 846,820.565 773.6,820.565 
					773.6,831.565 759.3,831.565 759.3,839.165 773.6,839.165 773.6,842.466 802.1,842.466 802.1,899.565 773.6,899.565 
					773.6,903.966 759.3,903.966 759.3,910.565 773.6,910.565 773.6,920.466 846,920.466 918.4,920.466 918.4,910.565 
					932.7,910.565 932.7,903.966 918.4,903.966 918.4,899.565 889.9,899.565 889.9,842.466 				"/>
				<path clip-path="url(#SVGID_2_)" fill="none" stroke="#1A77BC" stroke-width="1.6414" stroke-miterlimit="7.6613" d="
					M859.2,871.565c0,7-5.7,12.699-12.601,12.699c-7,0-12.699-5.699-12.699-12.699s5.699-12.6,12.699-12.6
					C853.5,858.966,859.2,864.565,859.2,871.565z"/>
				<path clip-path="url(#SVGID_2_)" fill="none" stroke="#1A77BC" stroke-width="2.4621" stroke-miterlimit="7.6613" d="
					M293.9,919.966c0,52.1-42.301,94.299-94.4,94.299s-94.4-42.199-94.4-94.299s42.301-94.4,94.4-94.4S293.9,867.866,293.9,919.966z
					"/>
				<polygon clip-path="url(#SVGID_2_)" fill="none" stroke="#1A77BC" stroke-width="1.6414" stroke-miterlimit="7.6613" points="
					212.6,897.966 185.3,897.966 171.7,921.565 185.3,945.165 212.6,945.165 226.2,921.565 				"/>
				<path clip-path="url(#SVGID_2_)" fill-rule="evenodd" clip-rule="evenodd" fill="#FFFFFF" d="M384.9,968.165
					c0,52.1-42.2,94.4-94.301,94.4c-52.1,0-94.399-42.301-94.399-94.4s42.3-94.299,94.399-94.299
					C342.7,873.866,384.9,916.065,384.9,968.165z"/>
				<path clip-path="url(#SVGID_2_)" fill="none" stroke="#1A77BC" stroke-width="2.4621" stroke-miterlimit="7.6613" d="
					M384.9,968.165c0,52.1-42.2,94.4-94.301,94.4c-52.1,0-94.399-42.301-94.399-94.4s42.3-94.299,94.399-94.299
					C342.7,873.866,384.9,916.065,384.9,968.165z"/>
				<polygon clip-path="url(#SVGID_2_)" fill="none" stroke="#1A77BC" stroke-width="1.6414" stroke-miterlimit="7.6613" points="
					303.6,946.265 276.4,946.265 262.8,969.866 276.4,993.466 303.6,993.466 317.3,969.866 				"/>
				<polygon clip-path="url(#SVGID_2_)" fill="none" stroke="#1A77BC" stroke-width="1.6414" stroke-miterlimit="7.6613" points="
					1080,515.065 1080.8,516.065 1081.6,517.065 1082.3,518.165 1082.9,519.365 1083.5,520.466 1084,521.665 1084.5,522.865 
					1084.9,524.065 1085.2,525.165 1085.4,526.265 1085.7,527.565 1085.8,528.865 1086,530.165 1086,531.765 1086,533.065 
					1085.9,534.265 1085.7,535.565 1085.5,536.865 1085.2,538.265 1084.9,539.365 1084.5,540.565 1084,541.865 1083.5,542.966 
					1082.9,544.165 1082.3,545.265 1081.6,546.365 1080.8,547.365 1080,548.466 1079.4,549.165 1081,549.165 1071.6,564.565 
					1071.6,571.466 1047.7,571.466 1047.7,564.565 1038.1,549.966 1039.9,549.165 1038.7,547.665 1038,546.665 1037.3,545.565 
					1036.4,544.165 1035.9,542.966 1035.3,541.865 1034.9,540.565 1034.3,538.865 1034.1,537.865 1033.8,536.865 1033.6,535.565 
					1033.5,534.265 1033.4,533.065 1033.3,531.765 1033.4,530.466 1033.4,529.466 1033.6,528.165 1033.8,526.865 1034.1,525.665 
					1034.4,524.065 1034.9,522.865 1035.3,521.665 1035.9,520.466 1036.4,519.365 1037.1,518.165 1037.8,517.065 1038.5,516.065 
					1039.3,515.065 1040.1,514.065 1041,513.065 1042,512.265 1043,511.365 1044,510.565 1045,509.865 1046.1,509.165 
					1047.2,508.565 1048.4,507.966 1049.6,507.365 1050.8,506.966 1052,506.565 1053.2,506.165 1054.5,505.865 1055.8,505.665 
					1057.1,505.565 1058.4,505.466 1059.6,505.365 1061,505.466 1062.2,505.565 1063.5,505.665 1064.8,505.865 1066.1,506.165 
					1067.3,506.565 1068.5,506.966 1069.7,507.365 1070.9,507.966 1072.1,508.565 1073.2,509.165 1074.3,509.865 1075.3,510.565 
					1076.3,511.365 1077.3,512.265 1078.3,513.065 1079.2,514.065 				"/>
				
					<rect x="1023.6" y="529.365" clip-path="url(#SVGID_2_)" fill="none" stroke="#1A77BC" stroke-width="1.6414" stroke-miterlimit="7.6613" width="5.9" height="5.5"/>
				
					<rect x="1089.7" y="529.165" clip-path="url(#SVGID_2_)" fill="none" stroke="#1A77BC" stroke-width="1.6414" stroke-miterlimit="7.6613" width="5.8" height="5.5"/>
				
					<rect x="1014.4" y="492.765" clip-path="url(#SVGID_2_)" fill="none" stroke="#1A77BC" stroke-width="2.4621" stroke-miterlimit="7.6613" width="90" height="92.201"/>
				
					<rect x="950.8" y="462.065" clip-path="url(#SVGID_2_)" fill-rule="evenodd" clip-rule="evenodd" fill="#FFFFFF" width="90" height="92.199"/>
				
					<rect x="950.8" y="462.065" clip-path="url(#SVGID_2_)" fill="none" stroke="#1A77BC" stroke-width="2.4621" stroke-miterlimit="7.6613" width="90" height="92.199"/>
				<polygon clip-path="url(#SVGID_2_)" fill="none" stroke="#1A77BC" stroke-width="1.6414" stroke-miterlimit="7.6613" points="
					1016.4,484.265 1017.2,485.365 1017.9,486.365 1018.6,487.466 1019.3,488.665 1019.8,489.765 1020.4,490.966 1020.8,492.165 
					1021.2,493.365 1021.5,494.466 1021.8,495.665 1022,496.865 1022.2,498.165 1022.3,499.466 1022.4,501.065 1022.3,502.365 
					1022.3,503.665 1022.1,504.966 1021.9,506.165 1021.5,507.565 1021.2,508.665 1020.8,509.865 1020.4,511.165 1019.8,512.265 
					1019.3,513.466 1018.6,514.565 1017.9,515.665 1017.2,516.765 1016.4,517.765 1015.7,518.466 1017.4,518.466 1008,533.865 
					1007.9,540.765 984.1,540.765 984.1,533.865 974.5,519.265 976.3,518.466 975.1,517.065 974.4,515.966 973.6,514.865 
					972.8,513.466 972.2,512.265 971.7,511.165 971.2,509.865 970.7,508.165 970.4,507.165 970.2,506.165 970,504.966 
					969.8,503.565 969.7,502.365 969.7,501.065 969.7,499.765 969.8,498.765 969.9,497.466 970.2,496.165 970.4,494.865 
					970.8,493.365 971.2,492.165 971.7,490.966 972.2,489.765 972.8,488.665 973.4,487.466 974.2,486.365 974.9,485.365 
					975.7,484.265 976.5,483.365 977.4,482.365 978.4,481.466 979.3,480.665 980.4,479.865 981.4,479.165 982.5,478.466 
					983.7,477.765 984.8,477.265 986,476.665 987.2,476.265 988.4,475.865 989.7,475.466 990.9,475.165 992.2,474.966 
					993.5,474.765 994.8,474.765 996,474.665 997.3,474.765 998.6,474.765 999.9,474.966 1001.2,475.165 1002.4,475.466 
					1003.7,475.865 1004.9,476.265 1006.1,476.665 1007.3,477.265 1008.5,477.765 1009.6,478.466 1010.7,479.165 1011.7,479.865 
					1012.8,480.665 1013.7,481.466 1014.7,482.365 1015.6,483.365 				"/>
				
					<rect x="960" y="498.565" clip-path="url(#SVGID_2_)" fill="none" stroke="#1A77BC" stroke-width="1.6414" stroke-miterlimit="7.6613" width="5.9" height="5.5"/>
				
					<rect x="1026" y="498.466" clip-path="url(#SVGID_2_)" fill="none" stroke="#1A77BC" stroke-width="1.6414" stroke-miterlimit="7.6613" width="5.8" height="5.5"/>
				<path clip-path="url(#SVGID_2_)" fill="none" stroke="#1A77BC" stroke-width="2.4621" stroke-miterlimit="7.6613" d="
					M703.6,583.765c-2.5,0-4.399-1.899-4.399-4.399c0-2.399,1.899-4.3,4.399-4.3c2.4,0,4.4,1.9,4.4,4.3
					C708,581.865,706,583.765,703.6,583.765z"/>
				<path clip-path="url(#SVGID_2_)" fill="none" stroke="#1A77BC" stroke-width="1.6414" stroke-miterlimit="7.6613" d="
					M672.7,591.165c-1.8,0-3.4-1.6-3.4-3.4c0-1.899,1.601-3.5,3.4-3.5c2,0,3.5,1.601,3.5,3.5
					C676.2,589.565,674.7,591.165,672.7,591.165z"/>
				<path clip-path="url(#SVGID_2_)" fill="none" stroke="#1A77BC" stroke-width="1.6414" stroke-miterlimit="7.6613" d="
					M735.1,591.165c-2,0-3.5-1.6-3.5-3.4c0-1.899,1.5-3.5,3.5-3.5c1.9,0,3.4,1.601,3.4,3.5C738.5,589.565,737,591.165,735.1,591.165
					z"/>
				<path clip-path="url(#SVGID_2_)" fill="none" stroke="#1A77BC" stroke-width="2.4621" stroke-miterlimit="7.6613" d="
					M736,581.165h-6.4l-0.3-0.5l-0.3-1.1l-0.4-1.2l-0.5-1.2l-0.5-1.199l-0.6-1.101l-0.7-1.2l-0.6-1.1l-0.8-1l-0.801-1l-0.8-1
					l-0.899-1l-1-0.801l-0.9-0.899l-1-0.8l-1.1-0.7l-1.101-0.7l-1.1-0.6l-1.2-0.6l-1.2-0.601l-1.2-0.399l-1.199-0.4l-1.2-0.4
					l-1.3-0.3l-1.301-0.2l-1.3-0.199l-1.2-0.101h-1.3h-1.3l-1.3,0.101l-1.3,0.199l-1.301,0.2l-1.199,0.3l-1.301,0.4l-1.199,0.4
					l-1.2,0.399l-1.2,0.601l-1.1,0.6l-1.2,0.6l-1.101,0.7l-1,0.7l-1,0.8l-1,0.899l-0.899,0.801l-0.9,1l-0.899,1l-0.801,1l-0.699,1
					l-0.7,1.1l-0.7,1.2l-0.5,1.101l-0.6,1.199l-0.4,1.2l-0.4,1.2l-0.399,1.6h-0.7h-6.4c-5,0-6.6,3.1-6.6,6.4c0,3.4,1.6,6.5,6.6,6.5
					c1.801,0,3.601,0.1,7.301,0.1v0.201l0.6,1.699l0.4,1.199l0.6,1.201l0.5,1.199l0.9,1.4l0.699,1.1l0.7,1l1.3,1.5l7.7,15.4v6.9
					h23.9v-6.9l7.8-15.4l0.6-0.699l0.801-1.1l0.8-1l0.6-1.102l0.7-1.1l0.6-1.199l0.5-1.201l0.5-1.199l0.4-1.199l0.2-0.701
					c3.5,0,5.1-0.1,6.8-0.1c4.9,0,6.6-3.1,6.6-6.5C742.6,584.265,740.9,581.165,736,581.165z"/>
				<path clip-path="url(#SVGID_2_)" fill="none" stroke="#1A77BC" stroke-width="2.4621" stroke-miterlimit="7.6613" d="
					M699.2,626.866v69c0,20.699,20.8,35.5,41.2,25c20.5-10.5,18.1-42.701,18.1-42.701"/>
				<path clip-path="url(#SVGID_2_)" fill="none" stroke="#1A77BC" stroke-width="2.4621" stroke-miterlimit="7.6613" d="
					M703,626.866v69c0,20.699,20.8,35.5,41.3,25c20.4-10.5,18-42.701,18-42.701"/>
				<path clip-path="url(#SVGID_2_)" fill="none" stroke="#1A77BC" stroke-width="2.4621" stroke-miterlimit="7.6613" d="
					M707.4,626.866v69c0,20.699,20.8,35.5,41.3,25c20.399-10.5,18-42.701,18-42.701"/>
				
					<rect x="753.1" y="667.265" clip-path="url(#SVGID_2_)" fill="none" stroke="#2A77BC" stroke-width="1.4716" stroke-miterlimit="7.6613" width="19.601" height="10.9"/>
				<path clip-path="url(#SVGID_2_)" fill="none" stroke="#1A77BC" stroke-width="2.4621" stroke-miterlimit="7.6613" d="
					M793,608.565c2.4,0,4.4-2,4.4-4.4s-2-4.4-4.4-4.4s-4.4,2-4.4,4.4S790.6,608.565,793,608.565z"/>
				<path clip-path="url(#SVGID_2_)" fill="none" stroke="#1A77BC" stroke-width="1.6414" stroke-miterlimit="7.6613" d="
					M823.8,615.866c1.9,0,3.5-1.5,3.5-3.4s-1.6-3.5-3.5-3.5c-1.899,0-3.399,1.6-3.399,3.5S821.9,615.866,823.8,615.866z"/>
				<path clip-path="url(#SVGID_2_)" fill="none" stroke="#1A77BC" stroke-width="1.6414" stroke-miterlimit="7.6613" d="
					M761.5,615.866c2,0,3.5-1.5,3.5-3.4s-1.5-3.5-3.5-3.5c-1.9,0-3.4,1.6-3.4,3.5S759.6,615.866,761.5,615.866z"/>
				<path clip-path="url(#SVGID_2_)" fill="none" stroke="#1A77BC" stroke-width="2.4621" stroke-miterlimit="7.6613" d="
					M760.6,605.866h6.4l0.3-0.5l0.3-1.102l0.4-1.199l0.4-1.199l0.6-1.201l0.5-1.199l0.7-1.1l0.7-1.102l0.699-1l0.801-1l0.899-1
					l0.9-1l0.899-0.799l1-0.9l1-0.801l1.101-0.699l1-0.7l1.2-0.7l1.1-0.5l1.2-0.6l1.2-0.4l1.199-0.4l1.301-0.399l1.199-0.3
					l1.301-0.2l1.3-0.101l1.3-0.1l1.3-0.1l1.3,0.1l1.301,0.1l1.199,0.101l1.301,0.2l1.3,0.3l1.2,0.399l1.199,0.4l1.301,0.4l1.1,0.6
					l1.2,0.5l1.1,0.7l1.101,0.7l1.1,0.699l1,0.801l1,0.9l0.9,0.799l0.899,1l0.8,1l0.801,1l0.8,1l0.7,1.102l0.6,1.1l0.6,1.199
					l0.5,1.201l0.5,1.199l0.4,1.199l0.4,1.602h0.6h6.4c5,0,6.699,3.1,6.699,6.5c0,3.299-1.699,6.398-6.699,6.398
					c-1.7,0-3.5,0.102-7.301,0.102v0.199l-0.5,1.699l-0.5,1.201l-0.5,1.199l-0.6,1.201l-0.8,1.398l-0.7,1.102l-0.8,1l-1.2,1.5
					l-7.8,15.398v6.9h-23.8l-0.101-6.9l-7.7-15.398l-0.699-0.701l-0.801-1l-0.699-1.1l-0.7-1.1l-0.7-1.1l-0.5-1.201l-0.6-1.199
					l-0.4-1.201l-0.4-1.199l-0.199-0.699c-3.601-0.102-5.101-0.102-6.801-0.102c-5,0-6.6-3.1-6.6-6.398
					C754,608.966,755.6,605.866,760.6,605.866z"/>
				<path clip-path="url(#SVGID_2_)" fill="none" stroke="#1A77BC" stroke-width="2.4621" stroke-miterlimit="7.6613" d="
					M797.4,651.565v69c0,20.699-20.801,35.5-41.301,25c-20.399-10.5-18-42.699-18-42.699"/>
				<path clip-path="url(#SVGID_2_)" fill="none" stroke="#1A77BC" stroke-width="2.4621" stroke-miterlimit="7.6613" d="
					M793.6,651.565v69c0,20.699-20.8,35.5-41.199,25c-20.5-10.5-18.101-42.699-18.101-42.699"/>
				<path clip-path="url(#SVGID_2_)" fill="none" stroke="#1A77BC" stroke-width="2.4621" stroke-miterlimit="7.6613" d="
					M789.2,651.565v69c0,20.699-20.8,35.5-41.3,25c-20.4-10.5-18-42.699-18-42.699"/>
				
					<rect x="723.9" y="692.065" clip-path="url(#SVGID_2_)" fill="none" stroke="#2A77BC" stroke-width="1.4716" stroke-miterlimit="7.6613" width="19.6" height="10.9"/>
				<path clip-path="url(#SVGID_2_)" fill="none" stroke="#1A77BC" stroke-width="2.4621" stroke-miterlimit="7.6613" d="
					M1038.4,1051.966c0,0-5.301-26.5-10.301-33.801c-5-7.299-13.199-10.4-19.3-13.5c-6.1-3.1,2.5-13.199,7.5-14.9
					c5-1.699,14.3,0.701,14.3,3.801c0,3-3.5,13.801,2.301,20.699c5.899,6.9,23.699,30.102,23.699,30.102s0.801,2.199,3.7,0.898"/>
				
					<path clip-path="url(#SVGID_2_)" fill="none" stroke="#2A77BC" stroke-width="1.3018" stroke-linejoin="round" stroke-miterlimit="10" d="
					M1029.3,1058.665c0,0,1.4-2.799,3.7,0c2.2,2.9-0.1,5-1.3,4.301c-0.3-0.201-11.5-20.1-12.9-22.6c-1.899-3.4-3.6-3.602-4.1,0
					c-0.4,3.6,1,4.299-2.3,6.699c-3.4,2.4,2.1,5,5,6.9c2.8,1.9,9.699,6.1,9.699,6.1s4.301,1.9,4.601,4.9
					c0.2,2.9-1.7,2.199-2.601,1.5c-0.699-0.701-3.8-3.201-0.699-5"/>
				
					<path clip-path="url(#SVGID_2_)" fill="none" stroke="#2A77BC" stroke-width="1.3018" stroke-linejoin="round" stroke-miterlimit="10" d="
					M1015.9,1037.765c0,0,34-18,35.6-18.699c1.7-0.699,2.3,1,3.3,2.6c1.101,1.6,8.5,16.1,8.5,16.1"/>
				
					<path clip-path="url(#SVGID_2_)" fill="none" stroke="#2A77BC" stroke-width="1.3018" stroke-linejoin="round" stroke-miterlimit="10" d="
					M1029.9,1057.866c0,0,7.8-5,9.3-6s5.5,1.398,3.2,5.299l-9.4,5.701"/>
				
					<path clip-path="url(#SVGID_2_)" fill="none" stroke="#2A77BC" stroke-width="1.3018" stroke-linejoin="round" stroke-miterlimit="10" d="
					M1056.6,1042.065c0,0,6.801-4.5,8.101-4.9c1.399-0.4,4.3,0.301,4,4.9l-8.7,5.199C1060,1047.265,1060.4,1042.366,1056.6,1042.065
					z"/>
				
					<path clip-path="url(#SVGID_2_)" fill="none" stroke="#2A77BC" stroke-width="1.3018" stroke-linejoin="round" stroke-miterlimit="10" d="
					M1043.6,1055.165c0,0,3.601,0.4,4.2-0.699c0.5-1,1.101-4.9,1.101-4.9l4.899-2.301c0,0,1.8,1,0.8,3.102l-6.8,4.1"/>
				
					<polyline clip-path="url(#SVGID_2_)" fill="none" stroke="#2A77BC" stroke-width="1.3018" stroke-linejoin="round" stroke-miterlimit="10" points="
					1031,1066.966 1040.7,1061.466 1039.1,1059.065 				"/>
				
					<polyline clip-path="url(#SVGID_2_)" fill="none" stroke="#2A77BC" stroke-width="1.3018" stroke-linejoin="round" stroke-miterlimit="10" points="
					1066.3,1043.466 1066.3,1046.165 1056.6,1051.966 1053.5,1051.165 1053.5,1053.565 1046.2,1057.265 1044,1055.866 				"/>
				<path clip-path="url(#SVGID_2_)" fill="none" stroke="#1A77BC" stroke-width="2.4621" stroke-miterlimit="7.6613" d="
					M1023,1034.065c0,0-5-0.6-4.4-4.6c0.7-4.1-2.3-7.9-11.399-3.1c-9.101,4.898-9.8,8.199-5.4,9.398c4.3,1.201,11.8-1.199,14.101,2"
					/>
				<path clip-path="url(#SVGID_2_)" fill-rule="evenodd" clip-rule="evenodd" fill="#B9F9F7" d="M361.2,179.765
					c0,13.701-11.101,24.701-24.8,24.701c-13.601,0-24.7-11-24.7-24.701c0-13.699,11.1-24.799,24.7-24.799
					C350.1,154.966,361.2,166.065,361.2,179.765z"/>
				<polygon clip-path="url(#SVGID_2_)" fill="#2C77BC" points="247.955,568.718 249.168,568.718 249.168,565.277 247.924,565.534 
					247.924,564.601 249.16,564.344 250.465,564.344 250.465,568.718 251.677,568.718 251.677,569.665 247.955,569.665 				"/>
				<path clip-path="url(#SVGID_2_)" fill-rule="evenodd" clip-rule="evenodd" fill="#B9F9F7" d="M264.5,466.265
					c0,13.701-11.1,24.801-24.7,24.801c-13.7,0-24.8-11.1-24.8-24.801c0-13.6,11.1-24.699,24.8-24.699
					C253.4,441.565,264.5,452.665,264.5,466.265z"/>
				<polygon clip-path="url(#SVGID_2_)" fill="#1A303A" points="331.864,184.358 336.347,184.358 336.347,171.636 331.746,172.585 
					331.746,169.132 336.32,168.183 341.146,168.183 341.146,184.358 345.628,184.358 345.628,187.865 331.864,187.865 				"/>
				<path clip-path="url(#SVGID_2_)" fill-rule="evenodd" clip-rule="evenodd" fill="#B9F9F7" d="M469.2,630.665
					c0,13.701-11.101,24.801-24.7,24.801c-13.7,0-24.8-11.1-24.8-24.801c0-13.699,11.1-24.799,24.8-24.799
					C458.1,605.866,469.2,616.966,469.2,630.665z"/>
				<path clip-path="url(#SVGID_2_)" fill="#1A303A" d="M239.778,470.734h8.661v3.731h-14.304v-3.731l7.185-6.341
					c0.643-0.58,1.117-1.147,1.424-1.701c0.309-0.554,0.462-1.129,0.462-1.727c0-0.924-0.31-1.666-0.93-2.229
					c-0.619-0.563-1.443-0.844-2.472-0.844c-0.791,0-1.656,0.17-2.598,0.508c-0.939,0.338-1.946,0.842-3.019,1.51v-4.324
					c1.143-0.379,2.272-0.666,3.388-0.863c1.117-0.199,2.211-0.297,3.283-0.297c2.355,0,4.186,0.518,5.491,1.555
					c1.305,1.037,1.958,2.483,1.958,4.338c0,1.072-0.277,2.072-0.831,3c-0.554,0.927-1.718,2.168-3.493,3.724L239.778,470.734z"/>
				<path clip-path="url(#SVGID_2_)" fill-rule="evenodd" clip-rule="evenodd" fill="#B9F9F7" d="M863.3,639.366
					c0,13.699-11.1,24.699-24.8,24.699c-13.6,0-24.8-11-24.8-24.699c0-13.701,11.2-24.801,24.8-24.801
					C852.2,614.565,863.3,625.665,863.3,639.366z"/>
				<path clip-path="url(#SVGID_2_)" fill="#1A303A" d="M449.277,628.253c1.326,0.342,2.336,0.938,3.025,1.785
					c0.689,0.85,1.035,1.928,1.035,3.238c0,1.951-0.747,3.434-2.241,4.449c-1.495,1.014-3.674,1.521-6.539,1.521
					c-1.011,0-2.024-0.08-3.039-0.244c-1.015-0.162-2.02-0.406-3.013-0.73v-3.916c0.949,0.475,1.893,0.832,2.828,1.074
					s1.856,0.363,2.762,0.363c1.346,0,2.375-0.232,3.092-0.699c0.717-0.465,1.074-1.133,1.074-2.004
					c0-0.896-0.367-1.576-1.101-2.037s-1.817-0.691-3.249-0.691h-2.031v-3.27h2.137c1.273,0,2.223-0.199,2.848-0.6
					c0.623-0.4,0.936-1.01,0.936-1.826c0-0.756-0.303-1.34-0.91-1.754c-0.605-0.412-1.463-0.619-2.57-0.619
					c-0.817,0-1.644,0.092-2.479,0.277c-0.836,0.184-1.666,0.457-2.492,0.816v-3.717c1.002-0.281,1.995-0.492,2.98-0.633
					c0.983-0.141,1.951-0.211,2.9-0.211c2.557,0,4.471,0.42,5.74,1.258c1.271,0.84,1.906,2.104,1.906,3.791
					c0,1.15-0.304,2.094-0.91,2.828C451.36,627.437,450.464,627.954,449.277,628.253z"/>
				<path clip-path="url(#SVGID_2_)" fill-rule="evenodd" clip-rule="evenodd" fill="#B9F9F7" d="M1129.2,466.265
					c0,13.701-11.101,24.801-24.8,24.801c-13.7,0-24.7-11.1-24.7-24.801c0-13.6,11-24.699,24.7-24.699
					C1118.1,441.565,1129.2,452.665,1129.2,466.265z"/>
				<path clip-path="url(#SVGID_2_)" fill="#1A303A" d="M839.797,627.782h5.643v12.42h2.808v3.678h-2.808v3.586h-4.799v-3.586
					h-8.728v-4.352L839.797,627.782z M840.641,631.962l-5.563,8.24h5.563V631.962z"/>
				<path clip-path="url(#SVGID_2_)" fill-rule="evenodd" clip-rule="evenodd" fill="#B9F9F7" d="M423,1006.366
					c0,13.699-11.2,24.699-24.8,24.699c-13.7,0-24.8-11-24.8-24.699c0-13.701,11.1-24.801,24.8-24.801
					C411.8,981.565,423,992.665,423,1006.366z"/>
				<path clip-path="url(#SVGID_2_)" fill="#1A303A" d="M1099.561,454.782h12.617v3.73h-8.569v3.046
					c0.387-0.105,0.775-0.187,1.167-0.243c0.391-0.058,0.797-0.086,1.219-0.086c2.399,0,4.268,0.6,5.604,1.799
					s2.004,2.872,2.004,5.017c0,2.127-0.728,3.792-2.182,4.997c-1.455,1.203-3.475,1.806-6.059,1.806
					c-1.116,0-2.221-0.108-3.315-0.323s-2.182-0.543-3.263-0.982v-3.994c1.072,0.615,2.09,1.076,3.052,1.385
					c0.962,0.307,1.87,0.461,2.723,0.461c1.23,0,2.199-0.301,2.907-0.902c0.707-0.603,1.061-1.418,1.061-2.446
					c0-1.037-0.354-1.854-1.061-2.452c-0.708-0.598-1.677-0.896-2.907-0.896c-0.729,0-1.508,0.095-2.334,0.283
					c-0.826,0.189-1.714,0.481-2.663,0.877V454.782z"/>
				<path clip-path="url(#SVGID_2_)" fill-rule="evenodd" clip-rule="evenodd" fill="#B9F9F7" d="M928.6,799.466
					c0,13.699-11.1,24.799-24.8,24.799s-24.7-11.1-24.7-24.799c0-13.701,11-24.801,24.7-24.801S928.6,785.765,928.6,799.466z"/>
				<path clip-path="url(#SVGID_2_)" fill="#1A303A" d="M406.444,995.296v3.639c-0.835-0.395-1.622-0.688-2.36-0.877
					c-0.738-0.188-1.459-0.283-2.162-0.283c-1.512,0-2.689,0.42-3.533,1.26s-1.336,2.086-1.477,3.738
					c0.58-0.432,1.209-0.754,1.886-0.971c0.677-0.215,1.415-0.322,2.215-0.322c2.013,0,3.637,0.59,4.872,1.768
					c1.234,1.178,1.852,2.719,1.852,4.627c0,2.109-0.689,3.799-2.07,5.068c-1.379,1.27-3.229,1.906-5.55,1.906
					c-2.558,0-4.537-0.865-5.938-2.592c-1.402-1.727-2.104-4.176-2.104-7.35c0-3.252,0.819-5.807,2.459-7.666
					c1.639-1.859,3.887-2.789,6.743-2.789c0.905,0,1.784,0.07,2.637,0.211S405.609,995.015,406.444,995.296z M400.169,1004.749
					c-0.888,0-1.554,0.287-1.997,0.863s-0.666,1.439-0.666,2.592c0,1.15,0.223,2.014,0.666,2.59s1.109,0.863,1.997,0.863
					c0.896,0,1.567-0.287,2.011-0.863s0.666-1.439,0.666-2.59c0-1.152-0.223-2.016-0.666-2.592S401.065,1004.749,400.169,1004.749z"
					/>
				<path clip-path="url(#SVGID_2_)" fill-rule="evenodd" clip-rule="evenodd" fill="#B9F9F7" d="M685.5,944.966
					c0,13.699-11.1,24.799-24.8,24.799s-24.8-11.1-24.8-24.799c0-13.701,11.1-24.701,24.8-24.701S685.5,931.265,685.5,944.966z"/>
				<polygon clip-path="url(#SVGID_2_)" fill="#1A303A" points="897.906,787.882 912.737,787.882 912.737,790.743 905.064,807.565 
					900.121,807.565 907.385,791.612 897.906,791.612 				"/>
				<path clip-path="url(#SVGID_2_)" fill-rule="evenodd" clip-rule="evenodd" fill="#B9F9F7" d="M1093.5,995.265
					c0,13.701-11.1,24.801-24.8,24.801s-24.8-11.1-24.8-24.801c0-13.6,11.1-24.699,24.8-24.699S1093.5,981.665,1093.5,995.265z"/>
				<path clip-path="url(#SVGID_2_)" fill="#1A303A" d="M658.596,942.685c-1.195-0.361-2.097-0.914-2.703-1.662
					c-0.606-0.746-0.909-1.678-0.909-2.795c0-1.66,0.619-2.926,1.858-3.797c1.239-0.869,3.059-1.305,5.458-1.305
					c2.382,0,4.192,0.434,5.432,1.299s1.859,2.133,1.859,3.803c0,1.117-0.306,2.049-0.917,2.795
					c-0.61,0.748-1.514,1.301-2.709,1.662c1.336,0.369,2.345,0.969,3.025,1.799c0.682,0.832,1.022,1.879,1.022,3.145
					c0,1.951-0.648,3.426-1.945,4.424c-1.296,0.998-3.219,1.496-5.768,1.496c-2.558,0-4.489-0.498-5.794-1.496
					c-1.306-0.998-1.958-2.473-1.958-4.424c0-1.266,0.341-2.313,1.021-3.145C656.251,943.653,657.26,943.054,658.596,942.685z
					 M662.3,944.358c-0.949,0-1.679,0.26-2.188,0.777c-0.51,0.52-0.765,1.262-0.765,2.229s0.255,1.707,0.765,2.223
					c0.51,0.514,1.239,0.77,2.188,0.77c0.94,0,1.661-0.256,2.162-0.77c0.501-0.516,0.752-1.256,0.752-2.223
					c0-0.975-0.251-1.721-0.752-2.234S663.24,944.358,662.3,944.358z M659.782,938.743c0,0.781,0.217,1.383,0.652,1.805
					c0.435,0.422,1.057,0.633,1.865,0.633c0.791,0,1.402-0.211,1.833-0.633c0.43-0.422,0.646-1.023,0.646-1.805
					c0-0.783-0.216-1.383-0.646-1.801c-0.431-0.416-1.042-0.625-1.833-0.625c-0.809,0-1.431,0.211-1.865,0.633
					C659.999,937.372,659.782,937.97,659.782,938.743z"/>
				
					<path clip-path="url(#SVGID_2_)" fill="none" stroke="#2A77BC" stroke-width="1.9244" stroke-linejoin="round" stroke-miterlimit="10" d="
					M619.4,1011.765c0,0,17.5,24.102,30.699,25.801c13.2,1.6,32.4,6,52.801-22c20.3-28-13.7-39.199-26.4-42.9
					c-12.7-3.799-52.7-12.6-74.7-29.1s-50,7.199-43.399,26.4c6.6,19.199,21.399,23.6,39.5,28.6
					C616.1,1003.466,619.4,1011.765,619.4,1011.765z"/>
				
					<path clip-path="url(#SVGID_2_)" fill="none" stroke="#2A77BC" stroke-width="1.9244" stroke-linejoin="round" stroke-miterlimit="10" d="
					M648.3,1038.765l17.8,7.4c0,0,32.101,1.701,40.801-13.199c8.6-14.801,22.699-40.201-14.301-54.301"/>
				
					<path clip-path="url(#SVGID_2_)" fill="none" stroke="#2A77BC" stroke-width="1.9244" stroke-linejoin="round" stroke-miterlimit="10" d="
					M707.9,992.765c0,0-36.9-4.299-68.2-20.199s-39-31.6-60.101-23.301c-21.1,8.4-15.399,31.701-15.399,31.701"/>
				
					<path clip-path="url(#SVGID_2_)" fill="none" stroke="#2A77BC" stroke-width="1.9244" stroke-linejoin="round" stroke-miterlimit="10" d="
					M566.4,983.565c11.1,16.6,44.899,24.301,57.1,33.301"/>
				
					<path clip-path="url(#SVGID_2_)" fill="none" stroke="#2A77BC" stroke-width="1.9244" stroke-linejoin="round" stroke-miterlimit="10" d="
					M562.5,994.565c0,0,20.6-32.6,51.9-27.301c31.3,5.4,36.3,31.801,40.8,41.701s18.899,28,0,37.1c-19,9-89.4,17.301-124,32.5
					c-34.7,15.301-18.5-31.5,10.6-61.801c2.5-2.6,6-6.299,9.4-10C557,1000.565,562.5,994.565,562.5,994.565z"/>
				
					<path clip-path="url(#SVGID_2_)" fill="none" stroke="#2A77BC" stroke-width="1.9244" stroke-linejoin="round" stroke-miterlimit="10" d="
					M541.7,1016.765c0,0,34-39.6,54.5-40c20.7-0.398,39.6,2.9,45,25.602c5.399,22.6,20.5,38.6,7.2,46.299"/>
				
					<path clip-path="url(#SVGID_2_)" fill="none" stroke="#2A77BC" stroke-width="1.9244" stroke-linejoin="round" stroke-miterlimit="10" d="
					M663.8,1037.866l-13.1,25.299c0,0-82,24.9-103,25.301c-21.101,0.4-31.4,0.799-36.101-5.4c-4.699-6.1-2-33.1,18.101-51.9"/>
				<path clip-path="url(#SVGID_2_)" fill="#1A303A" d="M1063.603,1003.03v-3.639c0.809,0.379,1.582,0.662,2.32,0.85
					c0.738,0.189,1.468,0.285,2.188,0.285c1.512,0,2.689-0.42,3.533-1.26s1.34-2.086,1.49-3.738c-0.598,0.439-1.235,0.77-1.912,0.99
					c-0.677,0.219-1.41,0.328-2.201,0.328c-2.014,0-3.637-0.586-4.872-1.76c-1.234-1.174-1.852-2.717-1.852-4.633
					c0-2.119,0.688-3.814,2.063-5.09c1.376-1.273,3.22-1.912,5.531-1.912c2.565,0,4.552,0.867,5.959,2.598
					c1.405,1.732,2.109,4.18,2.109,7.344c0,3.252-0.822,5.807-2.466,7.666s-3.898,2.789-6.763,2.789
					c-0.923,0-1.807-0.068-2.65-0.205S1064.411,1003.304,1063.603,1003.03z M1069.865,993.552c0.887,0,1.556-0.289,2.004-0.863
					c0.448-0.576,0.672-1.439,0.672-2.592c0-1.143-0.224-2.004-0.672-2.584s-1.117-0.869-2.004-0.869
					c-0.889,0-1.556,0.289-2.004,0.869s-0.673,1.441-0.673,2.584c0,1.152,0.225,2.016,0.673,2.592
					C1068.31,993.263,1068.977,993.552,1069.865,993.552z"/>
			</g>
		</g>
	</g>
</g>
<g id="Page_21_1_">
</g>
<g id="Page_22_1_">
</g>
<g id="Page_23_1_">
</g>
<g id="Page_24_1_">
</g>
<g id="Page_25_1_">
</g>
<g id="Page_26_1_">
</g>
<g id="Page_27_1_">
</g>
<g id="Page_28_1_">
</g>
<g id="Page_29_1_">
</g>
<g id="Page_30_1_">
</g>
<g id="Page_31_1_">
</g>
<g id="Page_32_1_">
</g>
<g id="Page_33_1_">
</g>
<g id="Page_34_1_">
</g>
<g id="Page_35_1_">
</g>
<g id="Page_36_1_">
</g>
<g id="Page_37_1_">
</g>
<g id="Page_38_1_">
</g>
</svg>
