<?xml version="1.0" encoding="utf-8"?>
<!-- Generator: Adobe Illustrator 16.0.0, SVG Export Plug-In . SVG Version: 6.00 Build 0)  -->
<!DOCTYPE svg PUBLIC "-//W3C//DTD SVG 1.1//EN" "http://www.w3.org/Graphics/SVG/1.1/DTD/svg11.dtd">
<svg version="1.1" xmlns="http://www.w3.org/2000/svg" xmlns:xlink="http://www.w3.org/1999/xlink" x="0px" y="0px"
	 width="1209.969px" height="1177.966px" viewBox="0 0 1209.969 1177.966" enable-background="new 0 0 1209.969 1177.966"
	 xml:space="preserve">
<g id="Page_1_1_">
</g>
<g id="Page_2_1_">
</g>
<g id="Page_3_1_">
</g>
<g id="Page_4_1_">
</g>
<g id="Page_5_1_">
</g>
<g id="Page_6_1_">
</g>
<g id="Page_7_1_">
</g>
<g id="Page_8_1_">
</g>
<g id="Page_9_1_">
</g>
<g id="Page_10_1_">
</g>
<g id="Page_11_1_">
</g>
<g id="Page_12_1_">
</g>
<g id="Page_13_1_">
</g>
<g id="Page_14_1_">
</g>
<g id="Page_15_1_">
</g>
<g id="Page_16_1_">
</g>
<g id="Page_17_1_">
</g>
<g id="Page_18_1_">
</g>
<g id="Page_19_1_">
</g>
<g id="Page_20_1_">
</g>
<g id="Page_21_1_">
	<g id="Page_21">
		<g enable-background="new    ">
			<g>
				<defs>
					<rect id="SVGID_45_" y="-0.034" width="1210" height="1178"/>
				</defs>
				<clipPath id="SVGID_2_">
					<use xlink:href="#SVGID_45_"  overflow="visible"/>
				</clipPath>
				
					<rect y="0.065" clip-path="url(#SVGID_2_)" fill-rule="evenodd" clip-rule="evenodd" fill="#FFFFFF" width="1210" height="1178"/>
				<path clip-path="url(#SVGID_2_)" fill-rule="evenodd" clip-rule="evenodd" fill="#B9F9F7" d="M180.2,416.265
					c0,13.701-11.101,24.801-24.8,24.801c-13.7,0-24.801-11.1-24.801-24.801c0-13.699,11.101-24.699,24.801-24.699
					C169.1,391.565,180.2,402.565,180.2,416.265z"/>
				<path clip-path="url(#SVGID_2_)" fill-rule="evenodd" clip-rule="evenodd" fill="#B9F9F7" d="M654.2,795.265
					c0,13.701-11.101,24.801-24.8,24.801c-13.7,0-24.7-11.1-24.7-24.801c0-13.6,11-24.699,24.7-24.699
					C643.1,770.565,654.2,781.665,654.2,795.265z"/>
				<path clip-path="url(#SVGID_2_)" fill="#1A303A" d="M160.277,413.853c1.326,0.343,2.336,0.938,3.025,1.787
					c0.689,0.848,1.035,1.926,1.035,3.236c0,1.951-0.748,3.434-2.241,4.449c-1.495,1.016-3.675,1.522-6.539,1.522
					c-1.011,0-2.024-0.081-3.039-0.243c-1.015-0.163-2.02-0.407-3.013-0.732v-3.916c0.949,0.475,1.893,0.834,2.828,1.074
					c0.936,0.242,1.856,0.363,2.762,0.363c1.346,0,2.375-0.232,3.092-0.699c0.717-0.465,1.074-1.133,1.074-2.004
					c0-0.896-0.367-1.574-1.101-2.037c-0.733-0.461-1.817-0.691-3.249-0.691h-2.031v-3.27h2.137c1.273,0,2.223-0.199,2.848-0.6
					c0.623-0.4,0.936-1.009,0.936-1.826c0-0.756-0.303-1.34-0.91-1.754c-0.605-0.412-1.463-0.619-2.57-0.619
					c-0.817,0-1.645,0.092-2.479,0.277c-0.836,0.184-1.666,0.457-2.492,0.816v-3.717c1.002-0.281,1.995-0.492,2.98-0.633
					c0.983-0.141,1.951-0.211,2.9-0.211c2.557,0,4.471,0.42,5.74,1.258c1.271,0.84,1.906,2.104,1.906,3.791
					c0,1.151-0.304,2.094-0.91,2.828S161.464,413.554,160.277,413.853z"/>
				<path clip-path="url(#SVGID_2_)" fill-rule="evenodd" clip-rule="evenodd" fill="#B9F9F7" d="M949.2,773.366
					c0,13.6-11.101,24.699-24.8,24.699c-13.7,0-24.7-11.1-24.7-24.699c0-13.701,11-24.801,24.7-24.801
					C938.1,748.565,949.2,759.665,949.2,773.366z"/>
				<path clip-path="url(#SVGID_2_)" fill="#1A303A" d="M617.764,799.958h4.482v-12.721l-4.601,0.949v-3.455l4.574-0.949h4.825
					v16.176h4.482v3.508h-13.764V799.958z M649.57,795.042v8.424h-4.76v-2.189c-0.633,0.896-1.344,1.549-2.135,1.959
					c-0.791,0.408-1.754,0.613-2.888,0.613c-1.529,0-2.771-0.447-3.725-1.34c-0.953-0.891-1.431-2.049-1.431-3.473
					c0-1.732,0.596-3.002,1.787-3.811c1.19-0.809,3.061-1.213,5.609-1.213h2.781v-0.369c0-0.746-0.294-1.295-0.883-1.641
					c-0.589-0.348-1.508-0.521-2.756-0.521c-1.011,0-1.951,0.102-2.82,0.303c-0.871,0.203-1.68,0.506-2.426,0.91v-3.6
					c1.01-0.246,2.025-0.432,3.045-0.561c1.02-0.127,2.039-0.189,3.059-0.189c2.663,0,4.586,0.523,5.768,1.574
					C648.979,790.97,649.57,792.677,649.57,795.042z M642.359,796.821c-0.985,0-1.726,0.166-2.222,0.5
					c-0.497,0.334-0.745,0.826-0.745,1.477c0,0.598,0.2,1.066,0.6,1.404c0.4,0.338,0.956,0.508,1.668,0.508
					c0.888,0,1.635-0.318,2.241-0.955c0.606-0.639,0.909-1.436,0.909-2.393v-0.541H642.359z"/>
				<path clip-path="url(#SVGID_2_)" fill-rule="evenodd" clip-rule="evenodd" fill="#B9F9F7" d="M745.2,186.365
					c0,13.601-11.101,24.7-24.8,24.7c-13.7,0-24.7-11.1-24.7-24.7c0-13.8,11-24.8,24.7-24.8
					C734.1,161.565,745.2,172.565,745.2,186.365z"/>
				<path clip-path="url(#SVGID_2_)" fill="#1A303A" d="M911.864,777.958h4.482v-12.721l-4.602,0.949v-3.455l4.575-0.949h4.825
					v16.176h4.482v3.508h-13.764V777.958z M934.561,768.862c0.65-0.861,1.371-1.496,2.162-1.906c0.791-0.408,1.7-0.611,2.729-0.611
					c1.819,0,3.313,0.723,4.482,2.168s1.754,3.307,1.754,5.584c0,2.275-0.585,4.137-1.754,5.582s-2.663,2.17-4.482,2.17
					c-1.028,0-1.938-0.205-2.729-0.613c-0.791-0.41-1.512-1.045-2.162-1.906v2.137h-4.72v-20.514h4.72V768.862z M937.698,778.421
					c1.011,0,1.782-0.369,2.313-1.107c0.532-0.738,0.798-1.811,0.798-3.217s-0.266-2.479-0.798-3.217
					c-0.531-0.738-1.303-1.107-2.313-1.107s-1.786,0.371-2.327,1.113c-0.54,0.742-0.811,1.813-0.811,3.211
					c0,1.396,0.271,2.467,0.811,3.209C935.912,778.048,936.688,778.421,937.698,778.421z"/>
				<polyline clip-path="url(#SVGID_2_)" fill="none" stroke="#1A78BB" stroke-width="3.3394" stroke-miterlimit="7.6613" points="
					421.4,750.165 671.6,892.065 374.4,883.866 497.6,533.565 437.4,505.966 441.1,495.365 393.8,474.466 388.5,482.165 
					342.3,460.165 344.8,449.765 296.3,424.165 289.6,432.765 232.5,401.065 139.3,708.366 374.4,883.866 				"/>
				<path clip-path="url(#SVGID_2_)" fill="none" stroke="#1A78BB" stroke-width="3.3394" stroke-miterlimit="7.6613" d="
					M476.3,523.865c0.3-11.399,0.3-18.7-0.3-20c-9.5-21.899-72.7-66.601-72.7-66.601l299.4-64.699c0,0,42.8,46,48.8,64.9
					c2.5,7.899-2.9,70.1-2.9,70.1l-2.6,62.5"/>
				<path clip-path="url(#SVGID_2_)" fill="none" stroke="#1A78BB" stroke-width="3.3394" stroke-miterlimit="7.6613" d="
					M422.7,746.466c0,0,43.7,15.4,45.5,5c4.8-27.801,4.8-148.201,4.8-148.201"/>
				
					<line clip-path="url(#SVGID_2_)" fill="none" stroke="#1A78BB" stroke-width="3.3394" stroke-miterlimit="7.6613" x1="696.6" y1="581.565" x2="702.7" y2="372.565"/>
				
					<line clip-path="url(#SVGID_2_)" fill="none" stroke="#1A78BB" stroke-width="3.3394" stroke-miterlimit="7.6613" x1="469.4" y1="724.665" x2="592.3" y2="689.866"/>
				<path clip-path="url(#SVGID_2_)" fill="none" stroke="#1A78BB" stroke-width="3.3394" stroke-miterlimit="7.6613" d="
					M671.7,892.065c0,0-59.9-35.199-68-54c-15-34.5-10.7-153.4-10.7-153.4s-0.1-60,12.1-71.299c10.2-9.5,62.9-25.201,62.9-25.201
					l297.1-69c0,0-64.6,6.1-70.1,10.6c-3.9,3.201-2.6,6.301-2.6,6.301"/>
				
					<line clip-path="url(#SVGID_2_)" fill="none" stroke="#1A78BB" stroke-width="3.3394" stroke-miterlimit="7.6613" x1="403.3" y1="437.265" x2="403.3" y2="478.665"/>
				<polyline clip-path="url(#SVGID_2_)" fill="none" stroke="#1A78BB" stroke-width="3.3394" stroke-miterlimit="7.6613" points="
					667.9,587.265 671.6,892.065 948.3,790.265 964.9,519.165 				"/>
				<polyline clip-path="url(#SVGID_2_)" fill="none" stroke="#1A78BB" stroke-width="3.3394" stroke-miterlimit="7.6613" points="
					948.3,790.265 1058.4,437.265 805,347.466 748.5,507.565 				"/>
				<polyline clip-path="url(#SVGID_2_)" fill="none" stroke="#1A78BB" stroke-width="3.3394" stroke-miterlimit="7.6613" points="
					1058.4,437.265 976.2,117.365 923.4,110.665 916.5,97.966 876.2,94.665 867.3,103.565 824.5,98.265 819.1,87.466 775.1,82.466 
					770.2,91.365 719.5,84.966 805,347.565 				"/>
				<polygon clip-path="url(#SVGID_2_)" fill="none" stroke="#1A78BB" stroke-width="3.3394" stroke-miterlimit="7.6613" points="
					275.9,549.365 273.5,550.365 271.1,551.466 268.9,552.765 266.7,554.165 264.6,555.765 262.6,557.466 260.8,559.265 
					259,561.265 257.5,563.065 256.1,564.966 254.6,567.265 253.3,569.765 252.1,572.165 250.7,575.466 249.8,578.165 249,580.966 
					248.3,583.765 247.8,586.765 247.4,590.165 247.1,592.866 247,595.966 247.1,599.165 247.2,602.265 247.5,605.565 248,608.765 
					248.6,612.065 249.4,615.265 250.2,618.565 251,621.065 247.5,618.665 255.4,664.165 250.4,678.466 301,713.765 306,699.466 
					336.8,682.665 333.6,678.366 337.2,676.966 339.6,675.866 341.8,674.565 344.6,672.765 346.6,671.165 348.5,669.466 
					350.4,667.565 352.7,664.665 354.1,662.866 355.2,661.065 356.6,658.765 357.8,656.265 358.9,653.665 359.9,650.966 
					360.8,648.165 361.3,645.966 361.9,642.966 362.4,639.966 362.7,636.866 363,633.065 363,629.866 362.9,626.565 362.7,623.366 
					362.3,620.065 361.8,616.765 361.2,613.466 360.4,610.165 359.5,606.866 358.4,603.565 357.3,600.366 356,597.065 
					354.6,593.966 353.1,590.765 351.4,587.765 349.7,584.665 347.9,581.765 345.9,578.865 343.9,576.165 341.8,573.466 
					339.5,570.865 337.2,568.365 334.9,566.065 332.4,563.765 329.9,561.665 327.4,559.665 324.8,557.765 322.1,556.065 
					319.4,554.365 316.7,552.966 313.9,551.665 311.1,550.466 308.3,549.466 305.5,548.565 302.7,547.865 299.9,547.265 
					297.1,546.865 294.3,546.665 291.6,546.565 288.8,546.665 286.1,546.865 283.5,547.265 280.9,547.765 278.4,548.466 				"/>
				<polygon clip-path="url(#SVGID_2_)" fill="none" stroke="#1A78BB" stroke-width="3.3394" stroke-miterlimit="7.6613" points="
					365.6,662.966 377.9,671.366 381.7,659.665 369.5,651.265 				"/>
				<polygon clip-path="url(#SVGID_2_)" fill="none" stroke="#1A78BB" stroke-width="3.3394" stroke-miterlimit="7.6613" points="
					228.8,567.865 240.8,576.165 245.1,564.865 233.1,556.665 				"/>
				<polygon clip-path="url(#SVGID_2_)" fill="none" stroke="#1A78BB" stroke-width="3.3394" stroke-miterlimit="7.6613" points="
					833.2,193.165 831.9,194.865 830.7,196.665 829.5,198.466 828.5,200.365 827.5,202.265 826.7,204.265 826,206.365 
					825.4,208.466 824.9,210.365 824.5,212.265 824.2,214.466 824,216.765 823.9,219.065 824,221.966 824.2,224.265 824.5,226.665 
					824.9,229.065 825.5,231.466 826.2,234.165 827,236.365 827.9,238.765 828.9,241.265 830,243.665 831.3,246.165 832.6,248.565 
					834.1,250.966 835.7,253.365 837.3,255.765 838.7,257.565 835.4,256.565 856.1,292.265 857.4,305.665 906.2,325.765 
					904.5,310.865 919.8,284.865 916,281.865 917.9,279.265 919.1,277.265 920.2,275.265 921.4,272.466 922.2,270.065 
					922.8,267.665 923.4,265.065 923.9,261.265 924.1,259.065 924.2,256.865 924.3,253.966 924.2,251.065 924,248.065 
					923.6,245.065 923.2,242.065 922.7,239.665 922.1,236.565 921.3,233.565 920.4,230.466 919.2,226.665 918,223.665 
					916.8,220.665 915.5,217.765 914.1,214.865 912.6,212.065 911,209.365 909.3,206.665 907.5,204.065 905.7,201.565 
					903.9,199.265 901.9,196.966 899.9,194.865 897.8,192.865 895.7,190.966 893.6,189.165 891.4,187.466 889.1,185.966 
					886.9,184.565 884.6,183.365 882.3,182.265 880,181.265 877.7,180.365 875.4,179.765 873,179.165 870.7,178.765 868.4,178.466 
					866.1,178.265 863.8,178.265 861.6,178.365 859.3,178.565 857.1,178.966 854.9,179.466 852.8,179.966 850.7,180.765 
					848.7,181.565 846.7,182.466 844.8,183.466 842.9,184.565 841.1,185.765 839.4,187.065 837.7,188.466 836.1,189.966 
					834.6,191.565 				"/>
				<polygon clip-path="url(#SVGID_2_)" fill="none" stroke="#1A78BB" stroke-width="3.3394" stroke-miterlimit="7.6613" points="
					931.8,254.065 943.1,256.966 941.2,243.565 930.1,240.966 				"/>
				<polygon clip-path="url(#SVGID_2_)" fill="none" stroke="#1A78BB" stroke-width="3.3394" stroke-miterlimit="7.6613" points="
					806.4,222.966 817.3,225.565 816.9,215.765 806,213.466 				"/>
				<path clip-path="url(#SVGID_2_)" fill="none" stroke="#1A78BB" stroke-width="3.3394" stroke-miterlimit="7.6613" d="
					M683.3,499.966l-6.6,3c4.2-15.601-3.2-28.101-17.4-29.4l4.8-6C678.9,470.065,686.7,483.265,683.3,499.966z"/>
				<path clip-path="url(#SVGID_2_)" fill="none" stroke="#1A78BB" stroke-width="3.3394" stroke-miterlimit="7.6613" d="
					M634.9,475.065l4,3.8c-14.9,8.7-24.5,25.601-22.801,39.7l-6.3,0.3C609,503.265,619.2,485.365,634.9,475.065z"/>
				<path clip-path="url(#SVGID_2_)" fill="none" stroke="#1A78BB" stroke-width="3.3394" stroke-miterlimit="7.6613" d="
					M622.3,540.065l2.5-6.7c10.7,6.8,27.8,2.399,40.2-10.399l1.5,5.6C652.5,541.765,634.5,546.365,622.3,540.065z"/>
				<path clip-path="url(#SVGID_2_)" fill="none" stroke="#1A78BB" stroke-width="3.3394" stroke-miterlimit="7.6613" d="
					M495.3,526.466c3.8-5.701,9-10.801,15.101-14.5l-4.101-3.701c-6.7,4.5-11.6,8.601-15.7,15.201"/>
				<path clip-path="url(#SVGID_2_)" fill="none" stroke="#1A78BB" stroke-width="3.3394" stroke-miterlimit="7.6613" d="
					M535.2,500.765l-4.7,6c14.1,1.301,21.7,13.701,18,29.301l6.4-2.9C557.9,516.466,549.9,503.265,535.2,500.765z"/>
				<path clip-path="url(#SVGID_2_)" fill="none" stroke="#1A78BB" stroke-width="3.3394" stroke-miterlimit="7.6613" d="
					M539,561.765l-1.6-5.699c-12,12.9-28.801,17.3-39.601,10.4l-2.399,6.699C507.8,579.565,525.5,574.865,539,561.765z"/>
				<polygon clip-path="url(#SVGID_2_)" fill="none" stroke="#1A78BB" stroke-width="3.3394" stroke-miterlimit="7.6613" points="
					893.2,594.866 895.5,593.665 897.7,592.366 899.8,590.966 901.9,589.565 903.9,587.966 905.7,586.265 907.5,584.466 
					909.2,582.565 910.5,580.865 911.8,579.065 913.2,576.966 914.4,574.765 915.5,572.565 916.8,569.765 917.6,567.365 
					918.3,564.966 918.9,562.466 919.4,559.966 919.7,557.165 919.9,554.966 920,552.365 919.9,549.765 919.8,547.165 
					919.4,544.665 919,542.065 918.5,539.565 917.8,536.966 917,534.466 916.3,532.565 919.4,533.966 912.6,498.365 917,485.865 
					874,467.165 869,479.466 840.8,498.065 843.5,500.865 840.1,502.565 837.9,503.865 835.8,505.265 833.2,507.065 831.2,508.665 
					829.3,510.365 827.5,512.165 825.1,514.765 823.8,516.365 822.6,517.966 821.2,519.966 819.9,522.165 818.7,524.365 
					817.6,526.565 816.6,528.966 815.9,530.665 815.1,533.065 814.5,535.466 813.9,537.966 813.5,541.065 813.2,543.466 
					813.1,546.065 813.1,548.466 813.2,551.065 813.5,553.565 813.9,556.065 814.5,558.466 815.1,560.966 815.9,563.365 
					816.8,565.765 817.9,568.065 819,570.365 820.3,572.665 821.7,574.865 823.3,576.966 824.9,578.966 826.6,580.966 
					828.5,582.865 830.4,584.665 832.5,586.466 834.5,588.065 836.8,589.665 839.1,591.165 841.4,592.466 843.8,593.765 
					846.3,594.866 848.8,595.866 851.4,596.765 854,597.665 856.7,598.366 859.3,598.866 862,599.366 864.7,599.665 867.4,599.866 
					870.2,599.866 872.8,599.866 875.5,599.665 878.2,599.265 880.8,598.866 883.4,598.366 885.9,597.665 888.4,596.765 
					890.8,595.866 				"/>
				<polygon clip-path="url(#SVGID_2_)" fill="none" stroke="#1A78BB" stroke-width="3.3394" stroke-miterlimit="7.6613" points="
					813,518.165 802.3,513.466 797.7,523.065 808.6,527.865 				"/>
				<polygon clip-path="url(#SVGID_2_)" fill="none" stroke="#1A78BB" stroke-width="3.3394" stroke-miterlimit="7.6613" points="
					937,572.365 925.8,567.466 922.1,577.466 933.3,582.265 				"/>
				<polygon clip-path="url(#SVGID_2_)" fill="none" stroke="#1A78BB" stroke-width="3.3394" stroke-miterlimit="7.6613" points="
					471.6,764.466 475.9,763.165 510.4,782.065 506.3,783.565 				"/>
				<polygon clip-path="url(#SVGID_2_)" fill="none" stroke="#1A78BB" stroke-width="3.3394" stroke-miterlimit="7.6613" points="
					557.1,816.765 561.4,815.466 595.8,834.466 591.8,835.966 				"/>
				<polygon clip-path="url(#SVGID_2_)" fill="none" stroke="#1A78BB" stroke-width="3.3394" stroke-miterlimit="7.6613" points="
					442,780.866 439.7,780.265 437.2,779.866 434.8,779.366 432.4,779.065 429.9,778.866 427.4,778.665 424.9,778.665 
					422.4,778.665 420.3,778.866 418.1,779.065 415.7,779.366 413.3,779.765 410.9,780.265 408,780.966 405.7,781.665 
					403.4,782.366 401.2,783.265 399.1,784.165 396.7,785.366 395,786.265 393,787.466 391.2,788.665 389.4,789.966 387.7,791.366 
					386.1,792.765 384.5,794.265 383.1,795.765 381.9,797.366 380.9,798.665 379.7,796.366 357.8,816.565 345.1,819.665 
					362.7,853.466 375.6,850.466 410.5,857.765 410.5,854.665 414.3,855.765 416.8,856.366 419.4,856.966 422.7,857.466 
					425.3,857.765 427.9,857.966 430.5,858.065 434.2,858.065 436.3,857.966 438.2,857.866 440.7,857.565 443.2,857.165 
					445.7,856.765 448,856.165 450.4,855.466 452.1,854.866 454.3,854.065 456.5,853.165 458.6,852.165 461,850.765 462.9,849.565 
					464.7,848.366 466.4,846.966 468.1,845.565 469.6,844.065 471,842.565 472.3,840.966 473.4,839.265 474.5,837.565 
					475.5,835.765 476.3,833.966 477,832.065 477.6,830.165 478.1,828.265 478.4,826.366 478.6,824.366 478.7,822.466 
					478.7,820.466 478.6,818.466 478.3,816.466 478,814.466 477.5,812.565 476.9,810.565 476.1,808.665 475.3,806.765 
					474.3,804.866 473.3,803.065 472.1,801.265 470.9,799.466 469.5,797.765 468.1,796.165 466.5,794.565 464.8,792.966 
					463.1,791.466 461.3,790.065 459.4,788.765 457.4,787.466 455.4,786.265 453.3,785.165 451.2,784.165 449,783.265 
					446.7,782.366 444.4,781.565 				"/>
				<polygon clip-path="url(#SVGID_2_)" fill="none" stroke="#1A78BB" stroke-width="3.3394" stroke-miterlimit="7.6613" points="
					445.6,863.165 450.4,871.765 460.5,869.265 455.6,860.565 				"/>
				<polygon clip-path="url(#SVGID_2_)" fill="none" stroke="#1A78BB" stroke-width="3.3394" stroke-miterlimit="7.6613" points="
					396.1,769.265 400.1,777.366 410,774.565 405.9,766.565 				"/>
				<path clip-path="url(#SVGID_2_)" fill="none" stroke="#06EEF4" stroke-width="9.9616" stroke-miterlimit="7.6613" d="
					M714.5,152.165c0,0-66.9-88.6-81.4,19.6c-14.5,108.201,17.601,146,17.601,146"/>
				<path clip-path="url(#SVGID_2_)" fill="none" stroke="#06EEF4" stroke-width="9.9616" stroke-miterlimit="7.6613" d="
					M163.6,372.765c0,0,7.801-89.199,101.4-94.799c93.7-5.5,138.3,94.799,138.3,94.799"/>
				<path clip-path="url(#SVGID_2_)" fill="none" stroke="#06EEF4" stroke-width="9.9616" stroke-miterlimit="7.6613" d="
					M965.3,763.165c0,0,66.601,10.201,18.101-47.799"/>
				<path clip-path="url(#SVGID_2_)" fill="none" stroke="#06EEF4" stroke-width="9.9616" stroke-miterlimit="7.6613" d="
					M903.5,742.366c0,0-41.6-49.5,41-38.801"/>
				<path clip-path="url(#SVGID_2_)" fill-rule="evenodd" clip-rule="evenodd" fill="#FFFFFF" d="M974,924.065
					c0,38.9-31.6,70.5-70.5,70.5c-39,0-70.5-31.6-70.5-70.5c0-39,31.5-70.5,70.5-70.5C942.4,853.565,974,885.065,974,924.065z"/>
				<polygon clip-path="url(#SVGID_2_)" fill-rule="evenodd" clip-rule="evenodd" fill="#FFFFFF" points="828.2,865.565 
					828.2,886.565 953.6,957.966 1031.6,911.966 				"/>
				<polyline clip-path="url(#SVGID_2_)" fill="none" stroke="#1A78BB" stroke-width="2.2074" stroke-miterlimit="7.6613" points="
					828.2,865.565 828.2,886.565 953.6,957.966 1031.6,911.966 				"/>
				
					<line clip-path="url(#SVGID_2_)" fill="none" stroke="#1A78BB" stroke-width="2.2074" stroke-miterlimit="7.6613" x1="953.5" y1="957.966" x2="953.5" y2="865.565"/>
				<polygon clip-path="url(#SVGID_2_)" fill-rule="evenodd" clip-rule="evenodd" fill="#FFFFFF" points="848.6,898.165 
					850.8,905.466 866.4,914.765 869.2,909.866 				"/>
				<polyline clip-path="url(#SVGID_2_)" fill="none" stroke="#1A78BB" stroke-width="2.2074" stroke-miterlimit="7.6613" points="
					848.6,898.165 850.8,905.466 866.4,914.765 869.2,909.866 				"/>
				<polygon clip-path="url(#SVGID_2_)" fill-rule="evenodd" clip-rule="evenodd" fill="#FFFFFF" points="893.2,924.065 
					895.4,931.265 911,940.565 913.7,935.765 				"/>
				<polyline clip-path="url(#SVGID_2_)" fill="none" stroke="#1A78BB" stroke-width="2.2074" stroke-miterlimit="7.6613" points="
					893.2,924.065 895.4,931.265 911,940.565 913.7,935.765 				"/>
				<path clip-path="url(#SVGID_2_)" fill="none" stroke="#1A78BB" stroke-width="2.2074" stroke-miterlimit="7.6613" d="
					M974,924.065c0,38.9-31.6,70.5-70.5,70.5c-39,0-70.5-31.6-70.5-70.5c0-39,31.5-70.5,70.5-70.5
					C942.4,853.565,974,885.065,974,924.065z"/>
				
					<line clip-path="url(#SVGID_2_)" fill="none" stroke="#06EEF4" stroke-width="5.9713" stroke-miterlimit="7.6613" x1="648.4" y1="312.265" x2="655.3" y2="323.065"/>
				<path clip-path="url(#SVGID_2_)" fill-rule="evenodd" clip-rule="evenodd" fill="#06EEF4" d="M674.6,353.665
					c-14.399-11.1-34.899-23.1-51.5-28.1l29.601-6.6l18.6-24C668.7,312.165,670.9,335.865,674.6,353.665z"/>
				
					<line clip-path="url(#SVGID_2_)" fill="none" stroke="#06EEF4" stroke-width="5.9713" stroke-miterlimit="7.6613" x1="390.4" y1="352.165" x2="397.3" y2="363.065"/>
				<path clip-path="url(#SVGID_2_)" fill-rule="evenodd" clip-rule="evenodd" fill="#06EEF4" d="M416.6,393.665
					c-14.399-11-34.899-23.199-51.5-28.1l29.601-6.6l18.6-24C410.7,352.165,412.9,375.865,416.6,393.665z"/>
				
					<line clip-path="url(#SVGID_2_)" fill="none" stroke="#06EEF4" stroke-width="5.9713" stroke-miterlimit="7.6613" x1="602.6" y1="732.966" x2="614.1" y2="727.165"/>
				<path clip-path="url(#SVGID_2_)" fill-rule="evenodd" clip-rule="evenodd" fill="#06EEF4" d="M646.4,710.866
					c-12.301,13.299-26.4,32.5-33,48.6l-3.601-30.201l-22-20.799C604.6,712.765,628.4,712.966,646.4,710.866z"/>
				<path clip-path="url(#SVGID_2_)" fill="none" stroke="#06EEF4" stroke-width="9.9616" stroke-miterlimit="7.6613" d="
					M495,859.065c0,0,52-99,119-128"/>
				<path clip-path="url(#SVGID_2_)" fill="#1A303A" d="M721.797,174.782h5.643v12.419h2.808v3.679h-2.808v3.586h-4.799v-3.586
					h-8.728v-4.352L721.797,174.782z M722.641,178.962l-5.563,8.239h5.563V178.962z"/>
			</g>
		</g>
	</g>
</g>
<g id="Page_22_1_">
</g>
<g id="Page_23_1_">
</g>
<g id="Page_24_1_">
</g>
<g id="Page_25_1_">
</g>
<g id="Page_26_1_">
</g>
<g id="Page_27_1_">
	<g id="Page_27">
		<g enable-background="new    ">
			<g>
				<defs>
					<rect id="SVGID_57_" y="1187.931" width="1210" height="1178"/>
				</defs>
				<clipPath id="SVGID_4_">
					<use xlink:href="#SVGID_57_"  overflow="visible"/>
				</clipPath>
				
					<line clip-path="url(#SVGID_4_)" fill="none" stroke="#06EEF4" stroke-width="8.8013" stroke-miterlimit="7.6613" x1="622.4" y1="1255.031" x2="622.4" y2="1154.331"/>
			</g>
		</g>
	</g>
</g>
<g id="Page_28_1_">
</g>
<g id="Page_29_1_">
</g>
<g id="Page_30_1_">
</g>
<g id="Page_31_1_">
</g>
<g id="Page_32_1_">
</g>
<g id="Page_33_1_">
</g>
<g id="Page_34_1_">
</g>
<g id="Page_35_1_">
</g>
<g id="Page_36_1_">
</g>
<g id="Page_37_1_">
</g>
<g id="Page_38_1_">
</g>
</svg>
