<?xml version="1.0" encoding="utf-8"?>
<!-- Generator: Adobe Illustrator 16.0.0, SVG Export Plug-In . SVG Version: 6.00 Build 0)  -->
<!DOCTYPE svg PUBLIC "-//W3C//DTD SVG 1.1//EN" "http://www.w3.org/Graphics/SVG/1.1/DTD/svg11.dtd">
<svg version="1.1" id="Layer_1" xmlns="http://www.w3.org/2000/svg" xmlns:xlink="http://www.w3.org/1999/xlink" x="0px" y="0px"
	 width="1210px" height="1178px" viewBox="0 0 1210 1178" enable-background="new 0 0 1210 1178" xml:space="preserve">
<g>
	<defs>
		<rect id="SVGID_1_" width="1210" height="1178"/>
	</defs>
	<clipPath id="SVGID_2_">
		<use xlink:href="#SVGID_1_"  overflow="visible"/>
	</clipPath>
	<g clip-path="url(#SVGID_2_)">
		<defs>
			<rect id="SVGID_3_" y="0.001" width="1210" height="1177.999"/>
		</defs>
		<clipPath id="SVGID_4_">
			<use xlink:href="#SVGID_3_"  overflow="visible"/>
		</clipPath>
	</g>
	<g clip-path="url(#SVGID_2_)">
		<defs>
			<rect id="SVGID_5_" width="1210" height="1178"/>
		</defs>
		<clipPath id="SVGID_6_">
			<use xlink:href="#SVGID_5_"  overflow="visible"/>
		</clipPath>
		<path clip-path="url(#SVGID_6_)" fill="#FF9425" d="M342.468,314.945c-34.552,0-67.305,14.553-89.859,39.926
			c-6.308,7.571-3.222,16.046,2.342,20.683c2.856,2.379,6.249,3.646,9.493,3.582c3.598-0.075,6.925-1.825,9.619-5.057
			c16.144-19.08,41.711-30.461,68.405-30.461c26.693,0,52.26,11.381,68.389,30.443c2.709,3.25,6.036,5,9.635,5.075
			c3.289,0.061,6.636-1.203,9.493-3.582c5.563-4.637,8.649-13.112,2.274-20.762C409.772,329.498,377.021,314.945,342.468,314.945"/>
		<path clip-path="url(#SVGID_6_)" fill="#FF9425" d="M543.883,218.882c-56.496-52.15-126.141-79.711-201.415-79.711
			c-75.273,0-144.919,27.561-201.406,79.704c-3.263,2.99-4.975,6.495-4.961,10.142c0.011,3.255,1.373,6.526,3.834,9.211
			c5.103,5.566,14.175,7.62,21.639,0.777c48.84-45.879,113.094-71.161,180.894-71.161c67.802,0,132.055,25.282,180.922,71.188
			c7.439,6.818,16.509,4.761,21.612-0.804c2.46-2.685,3.822-5.956,3.834-9.211C548.849,225.37,547.137,221.865,543.883,218.882"/>
		<path clip-path="url(#SVGID_6_)" fill="#FF9425" d="M342.468,227.059c-55.81,0-107.536,20.991-145.651,59.106
			c-3.986,3.985-5.471,8.41-4.296,12.795c1.338,4.991,5.985,9.348,11.563,10.843c2.869,0.768,8.372,1.358,13.05-3.32
			c33.202-33.202,76.542-50.752,125.334-50.752c48.791,0,92.131,17.55,125.333,50.752c4.68,4.678,10.183,4.088,13.051,3.32
			c5.578-1.495,10.224-5.852,11.562-10.843c1.176-4.385-0.31-8.81-4.295-12.795C450.003,248.049,398.277,227.059,342.468,227.059"/>
		<path clip-path="url(#SVGID_6_)" fill="#FF9425" d="M342.468,402.832c-17.299,0-31.914,14.615-31.914,31.914
			c0,17.299,14.615,31.914,31.914,31.914s31.913-14.615,31.913-31.914C374.381,417.446,359.767,402.832,342.468,402.832"/>
		<path clip-path="url(#SVGID_6_)" fill="none" stroke="#2C77BC" stroke-width="4.455" stroke-miterlimit="10" d="M904.059,910.934
			H572.215c-41.093,0-74.715-33.622-74.715-74.716V548.27c0-41.094,33.622-74.716,74.715-74.716h331.844
			c41.094,0,74.715,33.622,74.715,74.716v287.948C978.773,877.312,945.152,910.934,904.059,910.934z"/>
		<polygon clip-path="url(#SVGID_6_)" fill="none" stroke="#2C77BC" stroke-width="4.455" stroke-miterlimit="10" points="
			671.412,696.33 671.412,680.171 858.487,681.494 858.487,696.33 882.524,696.33 882.524,819.412 859.532,819.412 859.532,835.089 
			671.412,835.089 671.412,821.502 647.374,821.502 647.374,696.33 		"/>
		<path clip-path="url(#SVGID_6_)" fill-rule="evenodd" clip-rule="evenodd" fill="#2C77BC" d="M671.739,718.843
			c0,1.995-1.617,3.612-3.612,3.612s-3.611-1.617-3.611-3.612s1.616-3.611,3.611-3.611S671.739,716.848,671.739,718.843"/>
		<path clip-path="url(#SVGID_6_)" fill-rule="evenodd" clip-rule="evenodd" fill="#2C77BC" d="M691.248,718.843
			c0,1.995-1.617,3.612-3.612,3.612s-3.612-1.617-3.612-3.612s1.617-3.611,3.612-3.611S691.248,716.848,691.248,718.843"/>
		<path clip-path="url(#SVGID_6_)" fill-rule="evenodd" clip-rule="evenodd" fill="#2C77BC" d="M710.756,718.843
			c0,1.995-1.616,3.612-3.611,3.612s-3.612-1.617-3.612-3.612s1.617-3.611,3.612-3.611S710.756,716.848,710.756,718.843"/>
		<path clip-path="url(#SVGID_6_)" fill-rule="evenodd" clip-rule="evenodd" fill="#2C77BC" d="M730.265,718.843
			c0,1.995-1.616,3.612-3.611,3.612s-3.612-1.617-3.612-3.612s1.617-3.611,3.612-3.611S730.265,716.848,730.265,718.843"/>
		<path clip-path="url(#SVGID_6_)" fill-rule="evenodd" clip-rule="evenodd" fill="#2C77BC" d="M749.773,718.843
			c0,1.995-1.616,3.612-3.611,3.612s-3.612-1.617-3.612-3.612s1.617-3.611,3.612-3.611S749.773,716.848,749.773,718.843"/>
		<path clip-path="url(#SVGID_6_)" fill-rule="evenodd" clip-rule="evenodd" fill="#2C77BC" d="M769.283,718.843
			c0,1.995-1.617,3.612-3.612,3.612s-3.612-1.617-3.612-3.612s1.617-3.611,3.612-3.611S769.283,716.848,769.283,718.843"/>
		<path clip-path="url(#SVGID_6_)" fill-rule="evenodd" clip-rule="evenodd" fill="#2C77BC" d="M788.791,718.843
			c0,1.995-1.616,3.612-3.611,3.612s-3.612-1.617-3.612-3.612s1.617-3.611,3.612-3.611S788.791,716.848,788.791,718.843"/>
		<path clip-path="url(#SVGID_6_)" fill-rule="evenodd" clip-rule="evenodd" fill="#2C77BC" d="M808.3,718.843
			c0,1.995-1.617,3.612-3.612,3.612c-1.994,0-3.611-1.617-3.611-3.612s1.617-3.611,3.611-3.611
			C806.683,715.231,808.3,716.848,808.3,718.843"/>
		<path clip-path="url(#SVGID_6_)" fill-rule="evenodd" clip-rule="evenodd" fill="#2C77BC" d="M827.809,718.843
			c0,1.995-1.617,3.612-3.612,3.612s-3.611-1.617-3.611-3.612s1.616-3.611,3.611-3.611S827.809,716.848,827.809,718.843"/>
		<path clip-path="url(#SVGID_6_)" fill-rule="evenodd" clip-rule="evenodd" fill="#2C77BC" d="M847.317,718.843
			c0,1.995-1.617,3.612-3.612,3.612s-3.611-1.617-3.611-3.612s1.616-3.611,3.611-3.611S847.317,716.848,847.317,718.843"/>
		<path clip-path="url(#SVGID_6_)" fill-rule="evenodd" clip-rule="evenodd" fill="#2C77BC" d="M866.826,718.843
			c0,1.995-1.617,3.612-3.612,3.612s-3.611-1.617-3.611-3.612s1.616-3.611,3.611-3.611S866.826,716.848,866.826,718.843"/>
		<path clip-path="url(#SVGID_6_)" fill-rule="evenodd" clip-rule="evenodd" fill="#2C77BC" d="M671.739,738.59
			c0,1.995-1.617,3.612-3.612,3.612s-3.611-1.617-3.611-3.612s1.616-3.612,3.611-3.612S671.739,736.595,671.739,738.59"/>
		<path clip-path="url(#SVGID_6_)" fill-rule="evenodd" clip-rule="evenodd" fill="#2C77BC" d="M691.248,738.59
			c0,1.995-1.617,3.612-3.612,3.612s-3.612-1.617-3.612-3.612s1.617-3.612,3.612-3.612S691.248,736.595,691.248,738.59"/>
		<path clip-path="url(#SVGID_6_)" fill-rule="evenodd" clip-rule="evenodd" fill="#2C77BC" d="M710.756,738.59
			c0,1.995-1.616,3.612-3.611,3.612s-3.612-1.617-3.612-3.612s1.617-3.612,3.612-3.612S710.756,736.595,710.756,738.59"/>
		<path clip-path="url(#SVGID_6_)" fill-rule="evenodd" clip-rule="evenodd" fill="#2C77BC" d="M730.265,738.59
			c0,1.995-1.616,3.612-3.611,3.612s-3.612-1.617-3.612-3.612s1.617-3.612,3.612-3.612S730.265,736.595,730.265,738.59"/>
		<path clip-path="url(#SVGID_6_)" fill-rule="evenodd" clip-rule="evenodd" fill="#2C77BC" d="M749.773,738.59
			c0,1.995-1.616,3.612-3.611,3.612s-3.612-1.617-3.612-3.612s1.617-3.612,3.612-3.612S749.773,736.595,749.773,738.59"/>
		<path clip-path="url(#SVGID_6_)" fill-rule="evenodd" clip-rule="evenodd" fill="#2C77BC" d="M769.283,738.59
			c0,1.995-1.617,3.612-3.612,3.612s-3.612-1.617-3.612-3.612s1.617-3.612,3.612-3.612S769.283,736.595,769.283,738.59"/>
		<path clip-path="url(#SVGID_6_)" fill-rule="evenodd" clip-rule="evenodd" fill="#2C77BC" d="M788.791,738.59
			c0,1.995-1.616,3.612-3.611,3.612s-3.612-1.617-3.612-3.612s1.617-3.612,3.612-3.612S788.791,736.595,788.791,738.59"/>
		<path clip-path="url(#SVGID_6_)" fill-rule="evenodd" clip-rule="evenodd" fill="#2C77BC" d="M808.3,738.59
			c0,1.995-1.617,3.612-3.612,3.612c-1.994,0-3.611-1.617-3.611-3.612s1.617-3.612,3.611-3.612
			C806.683,734.978,808.3,736.595,808.3,738.59"/>
		<path clip-path="url(#SVGID_6_)" fill-rule="evenodd" clip-rule="evenodd" fill="#2C77BC" d="M827.809,738.59
			c0,1.995-1.617,3.612-3.612,3.612s-3.611-1.617-3.611-3.612s1.616-3.612,3.611-3.612S827.809,736.595,827.809,738.59"/>
		<path clip-path="url(#SVGID_6_)" fill-rule="evenodd" clip-rule="evenodd" fill="#2C77BC" d="M847.317,738.59
			c0,1.995-1.617,3.612-3.612,3.612s-3.611-1.617-3.611-3.612s1.616-3.612,3.611-3.612S847.317,736.595,847.317,738.59"/>
		<path clip-path="url(#SVGID_6_)" fill-rule="evenodd" clip-rule="evenodd" fill="#2C77BC" d="M866.826,738.59
			c0,1.995-1.617,3.612-3.612,3.612s-3.611-1.617-3.611-3.612s1.616-3.612,3.611-3.612S866.826,736.595,866.826,738.59"/>
		<path clip-path="url(#SVGID_6_)" fill-rule="evenodd" clip-rule="evenodd" fill="#2C77BC" d="M671.739,758.337
			c0,1.995-1.617,3.612-3.612,3.612s-3.611-1.617-3.611-3.612s1.616-3.612,3.611-3.612S671.739,756.342,671.739,758.337"/>
		<path clip-path="url(#SVGID_6_)" fill-rule="evenodd" clip-rule="evenodd" fill="#2C77BC" d="M691.248,758.337
			c0,1.995-1.617,3.612-3.612,3.612s-3.612-1.617-3.612-3.612s1.617-3.612,3.612-3.612S691.248,756.342,691.248,758.337"/>
		<path clip-path="url(#SVGID_6_)" fill-rule="evenodd" clip-rule="evenodd" fill="#2C77BC" d="M710.756,758.337
			c0,1.995-1.616,3.612-3.611,3.612s-3.612-1.617-3.612-3.612s1.617-3.612,3.612-3.612S710.756,756.342,710.756,758.337"/>
		<path clip-path="url(#SVGID_6_)" fill-rule="evenodd" clip-rule="evenodd" fill="#2C77BC" d="M730.265,758.337
			c0,1.995-1.616,3.612-3.611,3.612s-3.612-1.617-3.612-3.612s1.617-3.612,3.612-3.612S730.265,756.342,730.265,758.337"/>
		<path clip-path="url(#SVGID_6_)" fill-rule="evenodd" clip-rule="evenodd" fill="#2C77BC" d="M749.773,758.337
			c0,1.995-1.616,3.612-3.611,3.612s-3.612-1.617-3.612-3.612s1.617-3.612,3.612-3.612S749.773,756.342,749.773,758.337"/>
		<path clip-path="url(#SVGID_6_)" fill-rule="evenodd" clip-rule="evenodd" fill="#2C77BC" d="M769.283,758.337
			c0,1.995-1.617,3.612-3.612,3.612s-3.612-1.617-3.612-3.612s1.617-3.612,3.612-3.612S769.283,756.342,769.283,758.337"/>
		<path clip-path="url(#SVGID_6_)" fill-rule="evenodd" clip-rule="evenodd" fill="#2C77BC" d="M788.791,758.337
			c0,1.995-1.616,3.612-3.611,3.612s-3.612-1.617-3.612-3.612s1.617-3.612,3.612-3.612S788.791,756.342,788.791,758.337"/>
		<path clip-path="url(#SVGID_6_)" fill-rule="evenodd" clip-rule="evenodd" fill="#2C77BC" d="M808.3,758.337
			c0,1.995-1.617,3.612-3.612,3.612c-1.994,0-3.611-1.617-3.611-3.612s1.617-3.612,3.611-3.612
			C806.683,754.725,808.3,756.342,808.3,758.337"/>
		<path clip-path="url(#SVGID_6_)" fill-rule="evenodd" clip-rule="evenodd" fill="#2C77BC" d="M827.809,758.337
			c0,1.995-1.617,3.612-3.612,3.612s-3.611-1.617-3.611-3.612s1.616-3.612,3.611-3.612S827.809,756.342,827.809,758.337"/>
		<path clip-path="url(#SVGID_6_)" fill-rule="evenodd" clip-rule="evenodd" fill="#2C77BC" d="M847.317,758.337
			c0,1.995-1.617,3.612-3.612,3.612s-3.611-1.617-3.611-3.612s1.616-3.612,3.611-3.612S847.317,756.342,847.317,758.337"/>
		<path clip-path="url(#SVGID_6_)" fill-rule="evenodd" clip-rule="evenodd" fill="#2C77BC" d="M866.826,758.337
			c0,1.995-1.617,3.612-3.612,3.612s-3.611-1.617-3.611-3.612s1.616-3.612,3.611-3.612S866.826,756.342,866.826,758.337"/>
		<path clip-path="url(#SVGID_6_)" fill-rule="evenodd" clip-rule="evenodd" fill="#2C77BC" d="M671.739,778.084
			c0,1.995-1.617,3.611-3.612,3.611s-3.611-1.616-3.611-3.611s1.616-3.612,3.611-3.612S671.739,776.089,671.739,778.084"/>
		<path clip-path="url(#SVGID_6_)" fill-rule="evenodd" clip-rule="evenodd" fill="#2C77BC" d="M691.248,778.084
			c0,1.995-1.617,3.611-3.612,3.611s-3.612-1.616-3.612-3.611s1.617-3.612,3.612-3.612S691.248,776.089,691.248,778.084"/>
		<path clip-path="url(#SVGID_6_)" fill-rule="evenodd" clip-rule="evenodd" fill="#2C77BC" d="M710.756,778.084
			c0,1.995-1.616,3.611-3.611,3.611s-3.612-1.616-3.612-3.611s1.617-3.612,3.612-3.612S710.756,776.089,710.756,778.084"/>
		<path clip-path="url(#SVGID_6_)" fill-rule="evenodd" clip-rule="evenodd" fill="#2C77BC" d="M730.265,778.084
			c0,1.995-1.616,3.611-3.611,3.611s-3.612-1.616-3.612-3.611s1.617-3.612,3.612-3.612S730.265,776.089,730.265,778.084"/>
		<path clip-path="url(#SVGID_6_)" fill-rule="evenodd" clip-rule="evenodd" fill="#2C77BC" d="M749.773,778.084
			c0,1.995-1.616,3.611-3.611,3.611s-3.612-1.616-3.612-3.611s1.617-3.612,3.612-3.612S749.773,776.089,749.773,778.084"/>
		<path clip-path="url(#SVGID_6_)" fill-rule="evenodd" clip-rule="evenodd" fill="#2C77BC" d="M769.283,778.084
			c0,1.995-1.617,3.611-3.612,3.611s-3.612-1.616-3.612-3.611s1.617-3.612,3.612-3.612S769.283,776.089,769.283,778.084"/>
		<path clip-path="url(#SVGID_6_)" fill-rule="evenodd" clip-rule="evenodd" fill="#2C77BC" d="M788.791,778.084
			c0,1.995-1.616,3.611-3.611,3.611s-3.612-1.616-3.612-3.611s1.617-3.612,3.612-3.612S788.791,776.089,788.791,778.084"/>
		<path clip-path="url(#SVGID_6_)" fill-rule="evenodd" clip-rule="evenodd" fill="#2C77BC" d="M808.3,778.084
			c0,1.995-1.617,3.611-3.612,3.611c-1.994,0-3.611-1.616-3.611-3.611s1.617-3.612,3.611-3.612
			C806.683,774.472,808.3,776.089,808.3,778.084"/>
		<path clip-path="url(#SVGID_6_)" fill-rule="evenodd" clip-rule="evenodd" fill="#2C77BC" d="M827.809,778.084
			c0,1.995-1.617,3.611-3.612,3.611s-3.611-1.616-3.611-3.611s1.616-3.612,3.611-3.612S827.809,776.089,827.809,778.084"/>
		<path clip-path="url(#SVGID_6_)" fill-rule="evenodd" clip-rule="evenodd" fill="#2C77BC" d="M847.317,778.084
			c0,1.995-1.617,3.611-3.612,3.611s-3.611-1.616-3.611-3.611s1.616-3.612,3.611-3.612S847.317,776.089,847.317,778.084"/>
		<path clip-path="url(#SVGID_6_)" fill-rule="evenodd" clip-rule="evenodd" fill="#2C77BC" d="M866.826,778.084
			c0,1.995-1.617,3.611-3.612,3.611s-3.611-1.616-3.611-3.611s1.616-3.612,3.611-3.612S866.826,776.089,866.826,778.084"/>
		<path clip-path="url(#SVGID_6_)" fill-rule="evenodd" clip-rule="evenodd" fill="#2C77BC" d="M671.739,797.831
			c0,1.994-1.617,3.611-3.612,3.611s-3.611-1.617-3.611-3.611c0-1.995,1.616-3.612,3.611-3.612S671.739,795.836,671.739,797.831"/>
		<path clip-path="url(#SVGID_6_)" fill-rule="evenodd" clip-rule="evenodd" fill="#2C77BC" d="M691.248,797.831
			c0,1.994-1.617,3.611-3.612,3.611s-3.612-1.617-3.612-3.611c0-1.995,1.617-3.612,3.612-3.612S691.248,795.836,691.248,797.831"/>
		<path clip-path="url(#SVGID_6_)" fill-rule="evenodd" clip-rule="evenodd" fill="#2C77BC" d="M710.756,797.831
			c0,1.994-1.616,3.611-3.611,3.611s-3.612-1.617-3.612-3.611c0-1.995,1.617-3.612,3.612-3.612S710.756,795.836,710.756,797.831"/>
		<path clip-path="url(#SVGID_6_)" fill-rule="evenodd" clip-rule="evenodd" fill="#2C77BC" d="M730.265,797.831
			c0,1.994-1.616,3.611-3.611,3.611s-3.612-1.617-3.612-3.611c0-1.995,1.617-3.612,3.612-3.612S730.265,795.836,730.265,797.831"/>
		<path clip-path="url(#SVGID_6_)" fill-rule="evenodd" clip-rule="evenodd" fill="#2C77BC" d="M749.773,797.831
			c0,1.994-1.616,3.611-3.611,3.611s-3.612-1.617-3.612-3.611c0-1.995,1.617-3.612,3.612-3.612S749.773,795.836,749.773,797.831"/>
		<path clip-path="url(#SVGID_6_)" fill-rule="evenodd" clip-rule="evenodd" fill="#2C77BC" d="M769.283,797.831
			c0,1.994-1.617,3.611-3.612,3.611s-3.612-1.617-3.612-3.611c0-1.995,1.617-3.612,3.612-3.612S769.283,795.836,769.283,797.831"/>
		<path clip-path="url(#SVGID_6_)" fill-rule="evenodd" clip-rule="evenodd" fill="#2C77BC" d="M788.791,797.831
			c0,1.994-1.616,3.611-3.611,3.611s-3.612-1.617-3.612-3.611c0-1.995,1.617-3.612,3.612-3.612S788.791,795.836,788.791,797.831"/>
		<path clip-path="url(#SVGID_6_)" fill-rule="evenodd" clip-rule="evenodd" fill="#2C77BC" d="M808.3,797.831
			c0,1.994-1.617,3.611-3.612,3.611c-1.994,0-3.611-1.617-3.611-3.611c0-1.995,1.617-3.612,3.611-3.612
			C806.683,794.219,808.3,795.836,808.3,797.831"/>
		<path clip-path="url(#SVGID_6_)" fill-rule="evenodd" clip-rule="evenodd" fill="#2C77BC" d="M827.809,797.831
			c0,1.994-1.617,3.611-3.612,3.611s-3.611-1.617-3.611-3.611c0-1.995,1.616-3.612,3.611-3.612S827.809,795.836,827.809,797.831"/>
		<path clip-path="url(#SVGID_6_)" fill-rule="evenodd" clip-rule="evenodd" fill="#2C77BC" d="M847.317,797.831
			c0,1.994-1.617,3.611-3.612,3.611s-3.611-1.617-3.611-3.611c0-1.995,1.616-3.612,3.611-3.612S847.317,795.836,847.317,797.831"/>
		<path clip-path="url(#SVGID_6_)" fill-rule="evenodd" clip-rule="evenodd" fill="#2C77BC" d="M866.826,797.831
			c0,1.994-1.617,3.611-3.612,3.611s-3.611-1.617-3.611-3.611c0-1.995,1.616-3.612,3.611-3.612S866.826,795.836,866.826,797.831"/>
		
			<rect x="533.98" y="545.297" clip-path="url(#SVGID_6_)" fill="none" stroke="#2C77BC" stroke-width="4.455" stroke-miterlimit="10" width="15.677" height="234.799"/>
		
			<rect x="533.98" y="507.579" clip-path="url(#SVGID_6_)" fill="none" stroke="#2C77BC" stroke-width="4.107" stroke-miterlimit="10" width="117.521" height="15.677"/>
		
			<rect x="519.087" y="845.875" clip-path="url(#SVGID_6_)" fill="none" stroke="#2C77BC" stroke-width="4.455" stroke-miterlimit="10" width="78.122" height="15.677"/>
		
			<rect x="700.588" y="507.579" clip-path="url(#SVGID_6_)" fill="none" stroke="#2C77BC" stroke-width="4.455" stroke-miterlimit="10" width="156.244" height="15.677"/>
		
			<rect x="710.756" y="631.351" clip-path="url(#SVGID_6_)" fill="none" stroke="#2C77BC" stroke-width="4.455" stroke-miterlimit="10" width="35.405" height="35.405"/>
		
			<rect x="811.912" y="596.621" clip-path="url(#SVGID_6_)" fill="none" stroke="#2C77BC" stroke-width="4.455" stroke-miterlimit="10" width="35.405" height="17.703"/>
		
			<rect x="863.214" y="557.267" clip-path="url(#SVGID_6_)" fill="none" stroke="#2C77BC" stroke-width="4.455" stroke-miterlimit="10" width="35.405" height="17.703"/>
		
			<rect x="863.214" y="635.983" clip-path="url(#SVGID_6_)" fill="none" stroke="#2C77BC" stroke-width="4.455" stroke-miterlimit="10" width="35.405" height="17.702"/>
		
			<rect x="611.58" y="848.069" clip-path="url(#SVGID_6_)" fill="none" stroke="#2C77BC" stroke-width="4.455" stroke-miterlimit="10" width="106.601" height="40.98"/>
		
			<rect x="752.597" y="848.069" clip-path="url(#SVGID_6_)" fill="none" stroke="#2C77BC" stroke-width="4.455" stroke-miterlimit="10" width="106.602" height="40.98"/>
		
			<rect x="912.243" y="596.621" clip-path="url(#SVGID_6_)" fill="none" stroke="#2C77BC" stroke-width="4.455" stroke-miterlimit="10" width="35.405" height="17.703"/>
		
			<rect x="626.251" y="870.76" clip-path="url(#SVGID_6_)" fill-rule="evenodd" clip-rule="evenodd" fill="#2C77BC" width="4.703" height="4.703"/>
		
			<rect x="644.278" y="870.76" clip-path="url(#SVGID_6_)" fill-rule="evenodd" clip-rule="evenodd" fill="#2C77BC" width="4.703" height="4.703"/>
		
			<rect x="662.307" y="870.76" clip-path="url(#SVGID_6_)" fill-rule="evenodd" clip-rule="evenodd" fill="#2C77BC" width="4.703" height="4.703"/>
		
			<rect x="680.335" y="870.76" clip-path="url(#SVGID_6_)" fill-rule="evenodd" clip-rule="evenodd" fill="#2C77BC" width="4.703" height="4.703"/>
		
			<rect x="698.363" y="870.76" clip-path="url(#SVGID_6_)" fill-rule="evenodd" clip-rule="evenodd" fill="#2C77BC" width="4.703" height="4.703"/>
		
			<rect x="767.084" y="870.76" clip-path="url(#SVGID_6_)" fill-rule="evenodd" clip-rule="evenodd" fill="#2C77BC" width="4.703" height="4.703"/>
		
			<rect x="785.112" y="870.76" clip-path="url(#SVGID_6_)" fill-rule="evenodd" clip-rule="evenodd" fill="#2C77BC" width="4.703" height="4.703"/>
		
			<rect x="803.14" y="870.76" clip-path="url(#SVGID_6_)" fill-rule="evenodd" clip-rule="evenodd" fill="#2C77BC" width="4.703" height="4.703"/>
		
			<rect x="821.168" y="870.76" clip-path="url(#SVGID_6_)" fill-rule="evenodd" clip-rule="evenodd" fill="#2C77BC" width="4.703" height="4.703"/>
		
			<rect x="839.196" y="870.76" clip-path="url(#SVGID_6_)" fill-rule="evenodd" clip-rule="evenodd" fill="#2C77BC" width="4.703" height="4.703"/>
		
			<rect x="879.781" y="850.833" clip-path="url(#SVGID_6_)" fill-rule="evenodd" clip-rule="evenodd" fill="#2C77BC" width="4.703" height="4.703"/>
		
			<rect x="900.875" y="850.833" clip-path="url(#SVGID_6_)" fill-rule="evenodd" clip-rule="evenodd" fill="#2C77BC" width="4.703" height="4.703"/>
		
			<rect x="525.44" y="810.98" clip-path="url(#SVGID_6_)" fill-rule="evenodd" clip-rule="evenodd" fill="#2C77BC" width="4.703" height="4.702"/>
		
			<rect x="546.533" y="810.98" clip-path="url(#SVGID_6_)" fill-rule="evenodd" clip-rule="evenodd" fill="#2C77BC" width="4.703" height="4.702"/>
		
			<rect x="920.436" y="850.833" clip-path="url(#SVGID_6_)" fill-rule="evenodd" clip-rule="evenodd" fill="#2C77BC" width="4.703" height="4.703"/>
		
			<line clip-path="url(#SVGID_6_)" fill="none" stroke="#2C77BC" stroke-width="4.455" stroke-miterlimit="10" x1="538.618" y1="845.875" x2="538.618" y2="861.552"/>
		
			<line clip-path="url(#SVGID_6_)" fill="none" stroke="#2C77BC" stroke-width="4.455" stroke-miterlimit="10" x1="558.148" y1="845.875" x2="558.148" y2="861.552"/>
		
			<line clip-path="url(#SVGID_6_)" fill="none" stroke="#2C77BC" stroke-width="4.455" stroke-miterlimit="10" x1="577.679" y1="845.875" x2="577.679" y2="861.552"/>
		
			<rect x="873.168" y="845.875" clip-path="url(#SVGID_6_)" fill="none" stroke="#2C77BC" stroke-width="3.866" stroke-miterlimit="10" width="58.839" height="15.677"/>
		
			<line clip-path="url(#SVGID_6_)" fill="none" stroke="#2C77BC" stroke-width="4.455" stroke-miterlimit="10" x1="892.698" y1="845.875" x2="892.698" y2="861.552"/>
		
			<line clip-path="url(#SVGID_6_)" fill="none" stroke="#2C77BC" stroke-width="4.455" stroke-miterlimit="10" x1="912.229" y1="845.875" x2="912.229" y2="861.552"/>
		
			<rect x="518.334" y="804.898" clip-path="url(#SVGID_6_)" fill="none" stroke="#2C77BC" stroke-width="4.455" stroke-miterlimit="10" width="39.061" height="15.677"/>
		
			<line clip-path="url(#SVGID_6_)" fill="none" stroke="#2C77BC" stroke-width="4.455" stroke-miterlimit="10" x1="537.865" y1="804.898" x2="537.865" y2="820.575"/>
		
			<line clip-path="url(#SVGID_6_)" fill="none" stroke="#2C77BC" stroke-width="4.455" stroke-miterlimit="10" x1="549.657" y1="760.632" x2="533.979" y2="760.632"/>
		
			<line clip-path="url(#SVGID_6_)" fill="none" stroke="#2C77BC" stroke-width="4.455" stroke-miterlimit="10" x1="549.657" y1="740.603" x2="533.979" y2="740.603"/>
		
			<line clip-path="url(#SVGID_6_)" fill="none" stroke="#2C77BC" stroke-width="4.455" stroke-miterlimit="10" x1="549.657" y1="721.072" x2="533.979" y2="721.072"/>
		
			<line clip-path="url(#SVGID_6_)" fill="none" stroke="#2C77BC" stroke-width="4.455" stroke-miterlimit="10" x1="549.657" y1="701.542" x2="533.979" y2="701.542"/>
		
			<line clip-path="url(#SVGID_6_)" fill="none" stroke="#2C77BC" stroke-width="4.455" stroke-miterlimit="10" x1="549.657" y1="682.011" x2="533.979" y2="682.011"/>
		
			<line clip-path="url(#SVGID_6_)" fill="none" stroke="#2C77BC" stroke-width="4.455" stroke-miterlimit="10" x1="549.657" y1="662.48" x2="533.979" y2="662.48"/>
		
			<line clip-path="url(#SVGID_6_)" fill="none" stroke="#2C77BC" stroke-width="4.455" stroke-miterlimit="10" x1="549.657" y1="642.95" x2="533.979" y2="642.95"/>
		
			<line clip-path="url(#SVGID_6_)" fill="none" stroke="#2C77BC" stroke-width="4.455" stroke-miterlimit="10" x1="549.657" y1="623.42" x2="533.979" y2="623.42"/>
		
			<line clip-path="url(#SVGID_6_)" fill="none" stroke="#2C77BC" stroke-width="4.455" stroke-miterlimit="10" x1="549.657" y1="603.89" x2="533.979" y2="603.89"/>
		
			<line clip-path="url(#SVGID_6_)" fill="none" stroke="#2C77BC" stroke-width="4.455" stroke-miterlimit="10" x1="549.657" y1="584.359" x2="533.979" y2="584.359"/>
		
			<line clip-path="url(#SVGID_6_)" fill="none" stroke="#2C77BC" stroke-width="4.455" stroke-miterlimit="10" x1="549.657" y1="564.828" x2="533.979" y2="564.828"/>
		
			<line clip-path="url(#SVGID_6_)" fill="none" stroke="#2C77BC" stroke-width="4.455" stroke-miterlimit="10" x1="720.119" y1="523.256" x2="720.119" y2="507.579"/>
		
			<line clip-path="url(#SVGID_6_)" fill="none" stroke="#2C77BC" stroke-width="4.455" stroke-miterlimit="10" x1="631.633" y1="523.256" x2="631.633" y2="507.579"/>
		
			<line clip-path="url(#SVGID_6_)" fill="none" stroke="#2C77BC" stroke-width="4.455" stroke-miterlimit="10" x1="612.103" y1="523.256" x2="612.103" y2="507.579"/>
		
			<line clip-path="url(#SVGID_6_)" fill="none" stroke="#2C77BC" stroke-width="4.455" stroke-miterlimit="10" x1="592.572" y1="523.256" x2="592.572" y2="507.579"/>
		
			<line clip-path="url(#SVGID_6_)" fill="none" stroke="#2C77BC" stroke-width="4.455" stroke-miterlimit="10" x1="573.041" y1="523.256" x2="573.041" y2="507.579"/>
		
			<line clip-path="url(#SVGID_6_)" fill="none" stroke="#2C77BC" stroke-width="4.455" stroke-miterlimit="10" x1="553.511" y1="523.256" x2="553.511" y2="507.579"/>
		
			<line clip-path="url(#SVGID_6_)" fill="none" stroke="#2C77BC" stroke-width="4.455" stroke-miterlimit="10" x1="739.648" y1="523.256" x2="739.648" y2="507.579"/>
		
			<line clip-path="url(#SVGID_6_)" fill="none" stroke="#2C77BC" stroke-width="4.455" stroke-miterlimit="10" x1="759.18" y1="523.256" x2="759.18" y2="507.579"/>
		
			<line clip-path="url(#SVGID_6_)" fill="none" stroke="#2C77BC" stroke-width="4.455" stroke-miterlimit="10" x1="778.71" y1="523.256" x2="778.71" y2="507.579"/>
		
			<line clip-path="url(#SVGID_6_)" fill="none" stroke="#2C77BC" stroke-width="4.455" stroke-miterlimit="10" x1="798.24" y1="523.256" x2="798.24" y2="507.579"/>
		
			<line clip-path="url(#SVGID_6_)" fill="none" stroke="#2C77BC" stroke-width="4.455" stroke-miterlimit="10" x1="817.771" y1="523.256" x2="817.771" y2="507.579"/>
		
			<line clip-path="url(#SVGID_6_)" fill="none" stroke="#2C77BC" stroke-width="4.455" stroke-miterlimit="10" x1="837.301" y1="523.256" x2="837.301" y2="507.579"/>
	</g>
	<path clip-path="url(#SVGID_2_)" fill="#2A77BC" d="M572.012,492.74v6.027h-2.126v-13.759h4c2.436,0,3.783,1.306,3.783,3.688
		c0,2.012-1.046,2.877-1.804,3.162c1.137,0.484,1.604,1.464,1.604,3.461v0.548c0,1.467,0.063,2.163,0.189,2.9h-2.082
		c-0.197-0.629-0.226-1.765-0.226-2.926v-0.49c0-1.88-0.414-2.611-2.073-2.611H572.012z M572.012,490.988h1.361
		c1.551,0,2.15-0.745,2.15-2.207c0-1.253-0.591-2.022-1.941-2.022h-1.571V490.988z M587.93,491.777c0,4.916-1.282,7.216-4.388,7.216
		c-2.919,0-4.27-2.25-4.27-7.226c0-4.871,1.577-6.97,4.368-6.97C586.587,484.796,587.93,487.038,587.93,491.777z M581.467,491.74
		c0,3.49,0.597,5.443,2.129,5.443c1.602,0,2.138-1.84,2.138-5.432c0-3.473-0.574-5.132-2.144-5.132
		C582.047,486.62,581.467,488.441,581.467,491.74z M589.936,485.008h3.986c2.275,0,3.571,1.292,3.571,3.44
		c0,1.773-0.849,2.602-1.625,2.886c0.997,0.388,2.041,1.304,2.041,3.392c0,2.567-1.631,4.042-4.058,4.042h-3.915V485.008z
		 M593.355,490.582c1.598,0,2.077-0.652,2.077-1.938c0-1.261-0.664-1.918-1.956-1.918h-1.443v3.857H593.355z M592.034,497.078h1.6
		c1.362,0,2.129-0.749,2.129-2.383c0-1.563-0.708-2.424-2.405-2.424h-1.324V497.078z M607.975,491.777
		c0,4.916-1.282,7.216-4.388,7.216c-2.918,0-4.27-2.25-4.27-7.226c0-4.871,1.577-6.97,4.368-6.97
		C606.631,484.796,607.975,487.038,607.975,491.777z M601.512,491.74c0,3.49,0.597,5.443,2.13,5.443c1.602,0,2.138-1.84,2.138-5.432
		c0-3.473-0.574-5.132-2.144-5.132C602.092,486.62,601.512,488.441,601.512,491.74z M611.522,486.888h-2.983v-1.88h8.107v1.88
		h-2.983v11.879h-2.141V486.888z M623.935,485.008v13.759h-2.141v-13.759H623.935z M626.485,498.767v-13.76h2.478
		c3.172,8.26,3.715,9.658,3.883,10.306h0.021c-0.109-1.72-0.122-3.761-0.122-6.009v-4.297h1.934v13.76h-2.374
		c-3.284-8.755-3.794-10.149-3.965-10.75h-0.021c0.102,1.704,0.107,3.808,0.107,6.277v4.474H626.485z M642.005,498.767h-2.141
		l3.232-13.759h2.775l3.29,13.759h-2.251l-0.797-3.771h-3.318L642.005,498.767z M645.72,493.129
		c-0.611-2.889-1.058-4.891-1.263-6.13h-0.055c-0.175,1.243-0.654,3.45-1.218,6.13H645.72z M662.065,494.829
		c-0.061,0.731-0.354,4.164-4.006,4.164c-3.827,0-4.217-3.586-4.217-7.151c0-4.3,1.221-7.045,4.371-7.045
		c3.534,0,3.784,3.122,3.833,4.133h-2.124c-0.034-0.467-0.085-2.298-1.743-2.298c-1.76,0-2.121,2.258-2.121,5.247
		c0,2.701,0.279,5.307,2.042,5.307c1.593,0,1.766-1.772,1.826-2.357H662.065z M665.055,498.767h-2.141l3.233-13.759h2.774
		l3.29,13.759h-2.25l-0.798-3.771h-3.317L665.055,498.767z M668.77,493.129c-0.61-2.889-1.057-4.891-1.262-6.13h-0.056
		c-0.174,1.243-0.653,3.45-1.218,6.13H668.77z M673.497,498.767v-13.76h2.478c3.173,8.26,3.715,9.658,3.884,10.306h0.021
		c-0.11-1.72-0.122-3.761-0.122-6.009v-4.297h1.933v13.76h-2.374c-3.284-8.755-3.794-10.149-3.964-10.75h-0.021
		c0.102,1.704,0.107,3.808,0.107,6.277v4.474H673.497z"/>
	<path clip-path="url(#SVGID_2_)" fill="#2A77BC" d="M641.193,645.626v-1.643c0.408-0.055,0.753-0.096,1.278-0.109
		c-1.044-0.56-1.504-1.423-1.504-2.74c0-2.91,2.734-3.861,7.043-3.861c4.926,0,7.153,1.613,7.153,4.514
		c0,3.582-3.104,3.791-3.923,3.831V643.5c0.532-0.041,2.1-0.157,2.1-1.776c0-1.71-2.175-2.235-5.318-2.235
		c-3.287,0-5.246,0.425-5.246,2.119c0,1.494,1.189,1.898,3.509,1.898h0.737v-2.036h1.838v4.156
		C648.859,645.626,641.193,645.626,641.193,645.626z M648.184,670.199c-4.916,0-7.216-1.282-7.216-4.388
		c0-2.919,2.249-4.271,7.226-4.271c4.871,0,6.971,1.577,6.971,4.368C655.164,668.856,652.922,670.199,648.184,670.199z
		 M654.952,651.807c0,2.234-1.36,3.865-4.003,3.865c-2.586,0-4.04-1.475-4.04-4.066v-1.596h-5.716v-2.141h13.759V651.807z
		 M654.952,659.494h-13.759v-2.141h13.759V659.494z M648.22,663.736c-3.489,0-5.443,0.597-5.443,2.13
		c0,1.602,1.84,2.138,5.432,2.138c3.473,0,5.133-0.574,5.133-2.144C653.341,664.317,651.519,663.736,648.22,663.736z
		 M648.647,650.01v1.358c0,1.464,0.744,2.151,2.33,2.151c1.425,0,2.223-0.739,2.223-2.006v-1.504H648.647z"/>
	<path clip-path="url(#SVGID_2_)" fill="#2A77BC" d="M655.227,542.571h1.293v7.202h2.887l-0.141,1.11h-4.039V542.571z
		 M661.474,542.571v8.312h-1.293v-8.312H661.474z M667.755,550.883h-0.992c-0.033-0.247-0.058-0.455-0.066-0.772
		c-0.338,0.631-0.859,0.909-1.655,0.909c-1.758,0-2.332-1.652-2.332-4.254c0-2.976,0.975-4.321,2.727-4.321
		c2.163,0,2.289,1.875,2.314,2.37h-1.279c-0.025-0.322-0.095-1.268-1.073-1.268c-1.032,0-1.351,1.314-1.351,3.212
		c0,1.986,0.257,3.169,1.28,3.169c0.902,0,1.146-0.718,1.146-2.12v-0.445h-1.229v-1.11h2.511V550.883z M669.107,542.571h1.293v3.362
		h2.24v-3.362h1.293v8.312h-1.293v-3.822h-2.24v3.822h-1.293V542.571z M676.554,543.707h-1.802v-1.136h4.897v1.136h-1.803v7.176
		h-1.293V543.707z"/>
	<path clip-path="url(#SVGID_2_)" fill="#2A77BC" d="M713.225,620.817v3.641h-1.284v-8.312h2.416c1.472,0,2.285,0.789,2.285,2.228
		c0,1.216-0.632,1.738-1.09,1.91c0.688,0.292,0.97,0.885,0.97,2.091v0.331c0,0.886,0.038,1.307,0.114,1.752h-1.258
		c-0.119-0.381-0.136-1.066-0.136-1.768v-0.296c0-1.136-0.251-1.577-1.253-1.577H713.225z M713.225,619.759h0.822
		c0.938,0,1.299-0.45,1.299-1.333c0-0.757-0.356-1.221-1.172-1.221h-0.949V619.759z M722.654,624.458h-0.992
		c-0.033-0.247-0.058-0.455-0.066-0.772c-0.338,0.631-0.859,0.908-1.655,0.908c-1.758,0-2.332-1.651-2.332-4.254
		c0-2.976,0.974-4.321,2.727-4.321c2.163,0,2.289,1.875,2.313,2.369h-1.279c-0.024-0.321-0.094-1.268-1.072-1.268
		c-1.033,0-1.351,1.313-1.351,3.212c0,1.986,0.257,3.169,1.28,3.169c0.902,0,1.146-0.718,1.146-2.119v-0.445h-1.229v-1.11h2.511
		V624.458z M723.998,616.146h2.408c1.374,0,2.157,0.78,2.157,2.078c0,1.071-0.513,1.571-0.981,1.743
		c0.602,0.234,1.232,0.788,1.232,2.049c0,1.551-0.985,2.441-2.451,2.441h-2.365V616.146z M726.063,619.514
		c0.965,0,1.255-0.394,1.255-1.171c0-0.762-0.401-1.159-1.182-1.159h-0.871v2.33H726.063z M725.266,623.438h0.966
		c0.823,0,1.286-0.452,1.286-1.439c0-0.944-0.428-1.464-1.453-1.464h-0.799V623.438z M732.295,616.146h1.293v7.201h2.887
		l-0.141,1.11h-4.039V616.146z M741.229,620.663h-2.704v2.676h3.024l-0.163,1.119h-4.137v-8.312h4.109v1.136h-2.834v2.253h2.704
		V620.663z M742.485,616.146h2.057c2.063,0,2.903,1.359,2.903,3.969c0,2.812-0.791,4.343-3.025,4.343h-1.935V616.146z
		 M743.786,623.391h0.611c1.284,0,1.713-0.988,1.713-3.261c0-2.013-0.428-2.899-1.701-2.899h-0.623V623.391z"/>
	<path clip-path="url(#SVGID_2_)" fill="#2A77BC" d="M790.105,666.729h2.407c1.375,0,2.157,0.78,2.157,2.078
		c0,1.07-0.513,1.571-0.981,1.743c0.603,0.234,1.233,0.787,1.233,2.049c0,1.551-0.985,2.441-2.452,2.441h-2.364V666.729z
		 M792.171,670.097c0.965,0,1.254-0.394,1.254-1.171c0-0.762-0.4-1.159-1.181-1.159h-0.872v2.33H792.171z M791.372,674.021h0.967
		c0.822,0,1.286-0.452,1.286-1.439c0-0.944-0.428-1.465-1.453-1.465h-0.8V674.021z M797.271,671.4v3.641h-1.284v-8.312h2.417
		c1.471,0,2.284,0.788,2.284,2.228c0,1.216-0.632,1.738-1.089,1.91c0.687,0.292,0.969,0.885,0.969,2.091v0.331
		c0,0.886,0.038,1.307,0.114,1.752h-1.258c-0.118-0.381-0.136-1.066-0.136-1.769v-0.295c0-1.136-0.25-1.577-1.252-1.577H797.271z
		 M797.271,670.342h0.823c0.937,0,1.299-0.45,1.299-1.333c0-0.757-0.357-1.222-1.173-1.222h-0.949V670.342z M805.865,671.245h-2.703
		v2.677h3.023l-0.163,1.119h-4.137v-8.312h4.109v1.136h-2.833v2.253h2.703V671.245z M808.068,675.041h-1.293l1.953-8.312h1.677
		l1.987,8.312h-1.359l-0.482-2.278h-2.004L808.068,675.041z M810.313,671.635c-0.368-1.744-0.639-2.954-0.763-3.702h-0.032
		c-0.105,0.751-0.396,2.084-0.736,3.702H810.313z M813.166,666.729h2.057c2.063,0,2.903,1.359,2.903,3.969
		c0,2.812-0.79,4.343-3.024,4.343h-1.936V666.729z M814.468,673.974h0.61c1.285,0,1.713-0.988,1.713-3.261
		c0-2.013-0.428-2.899-1.7-2.899h-0.623V673.974z M819.325,666.729h2.408c1.374,0,2.157,0.78,2.157,2.078
		c0,1.07-0.513,1.571-0.981,1.743c0.603,0.234,1.232,0.787,1.232,2.049c0,1.551-0.985,2.441-2.451,2.441h-2.365V666.729z
		 M821.391,670.097c0.966,0,1.255-0.394,1.255-1.171c0-0.762-0.401-1.159-1.181-1.159h-0.872v2.33H821.391z M820.593,674.021h0.966
		c0.823,0,1.287-0.452,1.287-1.439c0-0.944-0.428-1.465-1.453-1.465h-0.8V674.021z M830.22,670.818c0,2.969-0.774,4.358-2.651,4.358
		c-1.763,0-2.579-1.358-2.579-4.365c0-2.941,0.953-4.21,2.639-4.21C829.408,666.602,830.22,667.956,830.22,670.818z
		 M826.315,670.796c0,2.108,0.36,3.288,1.286,3.288c0.968,0,1.292-1.111,1.292-3.281c0-2.098-0.347-3.1-1.295-3.1
		C826.666,667.703,826.315,668.803,826.315,670.796z M832.005,675.041h-1.293l1.953-8.312h1.677l1.986,8.312h-1.358l-0.482-2.278
		h-2.004L832.005,675.041z M834.249,671.635c-0.368-1.744-0.639-2.954-0.763-3.702h-0.033c-0.105,0.751-0.395,2.084-0.735,3.702
		H834.249z M838.387,671.4v3.641h-1.284v-8.312h2.417c1.471,0,2.284,0.788,2.284,2.228c0,1.216-0.632,1.738-1.089,1.91
		c0.687,0.292,0.969,0.885,0.969,2.091v0.331c0,0.886,0.038,1.307,0.114,1.752h-1.258c-0.119-0.381-0.136-1.066-0.136-1.769v-0.295
		c0-1.136-0.25-1.577-1.252-1.577H838.387z M838.387,670.342h0.823c0.937,0,1.299-0.45,1.299-1.333c0-0.757-0.357-1.222-1.173-1.222
		h-0.949V670.342z M843.001,666.729h2.057c2.063,0,2.903,1.359,2.903,3.969c0,2.812-0.79,4.343-3.024,4.343h-1.936V666.729z
		 M844.303,673.974h0.61c1.285,0,1.713-0.988,1.713-3.261c0-2.013-0.428-2.899-1.7-2.899h-0.623V673.974z"/>
	<path clip-path="url(#SVGID_2_)" fill="#2A77BC" d="M651.441,599.188c0.069,0.745,0.393,1.378,1.204,1.378
		c0.78,0,1.108-0.465,1.108-1.199c0-0.748-0.342-1.168-1.421-1.685c-1.381-0.658-1.944-1.248-1.944-2.473
		c0-1.268,0.813-2.179,2.267-2.179c1.779,0,2.23,1.226,2.255,2.271h-1.267c-0.046-0.451-0.168-1.239-1.017-1.239
		c-0.661,0-0.95,0.439-0.95,1.037c0,0.666,0.297,0.979,1.294,1.446c1.479,0.69,2.101,1.368,2.101,2.706
		c0,1.309-0.785,2.346-2.464,2.346c-1.827,0-2.397-1.178-2.454-2.41H651.441z M660.138,597.671h-2.704v2.676h3.024l-0.163,1.119
		h-4.137v-8.312h4.109v1.136h-2.834v2.253h2.704V597.671z M661.395,601.466v-8.312h1.496c1.917,4.989,2.244,5.834,2.346,6.225h0.013
		c-0.066-1.038-0.073-2.271-0.073-3.63v-2.595h1.167v8.312h-1.434c-1.983-5.289-2.292-6.131-2.396-6.494h-0.012
		c0.062,1.029,0.064,2.3,0.064,3.792v2.702H661.395z M668.633,599.188c0.07,0.745,0.393,1.378,1.204,1.378
		c0.78,0,1.108-0.465,1.108-1.199c0-0.748-0.342-1.168-1.42-1.685c-1.382-0.658-1.945-1.248-1.945-2.473
		c0-1.268,0.814-2.179,2.267-2.179c1.78,0,2.231,1.226,2.256,2.271h-1.268c-0.045-0.451-0.168-1.239-1.017-1.239
		c-0.66,0-0.949,0.439-0.949,1.037c0,0.666,0.296,0.979,1.293,1.446c1.479,0.69,2.102,1.368,2.102,2.706
		c0,1.309-0.786,2.346-2.465,2.346c-1.827,0-2.397-1.178-2.454-2.41H668.633z M678.313,597.243c0,2.969-0.774,4.358-2.65,4.358
		c-1.763,0-2.579-1.358-2.579-4.365c0-2.941,0.952-4.21,2.638-4.21C677.501,593.026,678.313,594.381,678.313,597.243z
		 M674.409,597.221c0,2.108,0.36,3.288,1.286,3.288c0.968,0,1.291-1.111,1.291-3.28c0-2.099-0.347-3.101-1.295-3.101
		C674.76,594.128,674.409,595.229,674.409,597.221z M680.813,597.825v3.641h-1.284v-8.312h2.416c1.472,0,2.285,0.789,2.285,2.228
		c0,1.216-0.632,1.738-1.089,1.91c0.687,0.292,0.969,0.885,0.969,2.091v0.331c0,0.886,0.038,1.307,0.114,1.752h-1.258
		c-0.119-0.381-0.136-1.066-0.136-1.768v-0.296c0-1.136-0.251-1.577-1.253-1.577H680.813z M680.813,596.767h0.823
		c0.937,0,1.299-0.45,1.299-1.333c0-0.757-0.357-1.221-1.173-1.221h-0.949V596.767z"/>
	<g clip-path="url(#SVGID_2_)">
		<text transform="matrix(1 0 0 1 557.9014 562.8486)"><tspan x="0" y="0" fill="#2A77BC" font-family="'OCRAStd'" font-size="15.3282">3.3 </tspan><tspan x="41.14" y="0" fill="#2A77BC" font-family="'OCRAStd'" font-size="15.3282">V</tspan></text>
	</g>
	<g clip-path="url(#SVGID_2_)">
		<text transform="matrix(1 0 0 1 557.9014 582.1621)"><tspan x="0" y="0" fill="#2A77BC" font-family="'OCRAStd'" font-size="15.3282">GN</tspan><tspan x="20.57" y="0" fill="#2A77BC" font-family="'OCRAStd'" font-size="15.3282">D</tspan></text>
	</g>
	<g clip-path="url(#SVGID_2_)">
		<text transform="matrix(1 0 0 1 557.9014 620.7891)"><tspan x="0" y="0" fill="#2A77BC" font-family="'OCRAStd'" font-size="15.3282">4 (IO</tspan><tspan x="51.425" y="0" fill="#2A77BC" font-family="'OCRAStd'" font-size="15.3282">)</tspan></text>
	</g>
	<g clip-path="url(#SVGID_2_)">
		<text transform="matrix(1 0 0 1 557.9014 640.1025)"><tspan x="0" y="0" fill="#2A77BC" font-family="'OCRAStd'" font-size="15.3282">5 (PW</tspan><tspan x="51.425" y="0" fill="#2A77BC" font-family="'OCRAStd'" font-size="15.3282">)</tspan></text>
	</g>
	<g clip-path="url(#SVGID_2_)">
		<text transform="matrix(1 0 0 1 557.9014 659.416)"><tspan x="0" y="0" fill="#2A77BC" font-family="'OCRAStd'" font-size="15.3282">10 (PW</tspan><tspan x="61.71" y="0" fill="#2A77BC" font-family="'OCRAStd'" font-size="15.3282">)</tspan></text>
	</g>
	<g clip-path="url(#SVGID_2_)">
		<text transform="matrix(1 0 0 1 557.9014 678.7295)"><tspan x="0" y="0" fill="#2A77BC" font-family="'OCRAStd'" font-size="15.3282">16 (PW</tspan><tspan x="61.71" y="0" fill="#2A77BC" font-family="'OCRAStd'" font-size="15.3282">)</tspan></text>
	</g>
	<g clip-path="url(#SVGID_2_)">
		<text transform="matrix(1 0 0 1 557.9014 698.043)"><tspan x="0" y="0" fill="#2A77BC" font-family="'OCRAStd'" font-size="15.3282">14 (L</tspan><tspan x="51.425" y="0" fill="#2A77BC" font-family="'OCRAStd'" font-size="15.3282">)</tspan></text>
	</g>
	<g clip-path="url(#SVGID_2_)">
		<text transform="matrix(1 0 0 1 557.9014 717.3564)"><tspan x="0" y="0" fill="#2A77BC" font-family="'OCRAStd'" font-size="15.3282">12 (D</tspan><tspan x="51.425" y="0" fill="#2A77BC" font-family="'OCRAStd'" font-size="15.3282">)</tspan></text>
	</g>
	<g clip-path="url(#SVGID_2_)">
		<text transform="matrix(1 0 0 1 557.9014 736.6699)"><tspan x="0" y="0" fill="#2A77BC" font-family="'OCRAStd'" font-size="15.3282">13 (C</tspan><tspan x="51.425" y="0" fill="#2A77BC" font-family="'OCRAStd'" font-size="15.3282">)</tspan></text>
	</g>
	<g clip-path="url(#SVGID_2_)">
		<text transform="matrix(1 0 0 1 870.5967 550.5859)"><tspan x="0" y="0" fill="#2A77BC" font-family="'OCRAStd'" font-size="15.3282">S</tspan><tspan x="10.285" y="0" fill="#2A77BC" font-family="'OCRAStd'" font-size="15.3282">1</tspan></text>
	</g>
	<g clip-path="url(#SVGID_2_)">
		<text transform="matrix(1 0 0 1 870.5967 671.6787)"><tspan x="0" y="0" fill="#2A77BC" font-family="'OCRAStd'" font-size="15.3282">S</tspan><tspan x="10.285" y="0" fill="#2A77BC" font-family="'OCRAStd'" font-size="15.3282">3</tspan></text>
	</g>
	<g clip-path="url(#SVGID_2_)">
		<text transform="matrix(1 0 0 1 820.0137 631.8252)"><tspan x="0" y="0" fill="#2A77BC" font-family="'OCRAStd'" font-size="15.3282">S</tspan><tspan x="10.285" y="0" fill="#2A77BC" font-family="'OCRAStd'" font-size="15.3282">4</tspan></text>
	</g>
	<g clip-path="url(#SVGID_2_)">
		<text transform="matrix(1 0 0 1 921.1797 631.8252)"><tspan x="0" y="0" fill="#2A77BC" font-family="'OCRAStd'" font-size="15.3282">S</tspan><tspan x="10.285" y="0" fill="#2A77BC" font-family="'OCRAStd'" font-size="15.3282">2</tspan></text>
	</g>
	<g clip-path="url(#SVGID_2_)">
		<text transform="matrix(1 0 0 1 559.4331 755.9824)"><tspan x="0" y="0" fill="#2A77BC" font-family="'OCRAStd'" font-size="10.7297">0 (12C-D</tspan><tspan x="57.596" y="0" fill="#2A77BC" font-family="'OCRAStd'" font-size="10.7297">)</tspan></text>
	</g>
	<g clip-path="url(#SVGID_2_)">
		<text transform="matrix(1 0 0 1 559.4331 775.2959)"><tspan x="0" y="0" fill="#2A77BC" font-family="'OCRAStd'" font-size="10.7297">2 (12C-D</tspan><tspan x="57.596" y="0" fill="#2A77BC" font-family="'OCRAStd'" font-size="10.7297">)</tspan></text>
	</g>
	<g clip-path="url(#SVGID_2_)">
		<text transform="matrix(1 0 0 1 517.791 797.3672)"><tspan x="0" y="0" fill="#2A77BC" font-family="'OCRAStd'" font-size="10.7297">V + GN</tspan><tspan x="43.197" y="0" fill="#2A77BC" font-family="'OCRAStd'" font-size="10.7297">D</tspan></text>
	</g>
	<g clip-path="url(#SVGID_2_)">
		<text transform="matrix(1 0 0 1 519.583 840.2852)"><tspan x="0" y="0" fill="#2A77BC" font-family="'OCRAStd'" font-size="10.7297">C</tspan><tspan x="7.2" y="0" fill="#2A77BC" font-family="'OCRAStd'" font-size="10.7297">K</tspan></text>
	</g>
	<g clip-path="url(#SVGID_2_)">
		<text transform="matrix(1 0 0 1 580.8926 840.2852)"><tspan x="0" y="0" fill="#2A77BC" font-family="'OCRAStd'" font-size="10.7297">C</tspan><tspan x="7.2" y="0" fill="#2A77BC" font-family="'OCRAStd'" font-size="10.7297">O</tspan></text>
	</g>
	<g clip-path="url(#SVGID_2_)">
		<text transform="matrix(1 0 0 1 560.9673 840.2852)"><tspan x="0" y="0" fill="#2A77BC" font-family="'OCRAStd'" font-size="10.7297">M</tspan><tspan x="7.2" y="0" fill="#2A77BC" font-family="'OCRAStd'" font-size="10.7297">I</tspan></text>
	</g>
	<g clip-path="url(#SVGID_2_)">
		<text transform="matrix(1 0 0 1 541.0425 840.2852)"><tspan x="0" y="0" fill="#2A77BC" font-family="'OCRAStd'" font-size="10.7297">M</tspan><tspan x="7.2" y="0" fill="#2A77BC" font-family="'OCRAStd'" font-size="10.7297">O</tspan></text>
	</g>
	<g clip-path="url(#SVGID_2_)">
		<defs>
			<rect id="SVGID_7_" width="1210" height="1178"/>
		</defs>
		<clipPath id="SVGID_8_">
			<use xlink:href="#SVGID_7_"  overflow="visible"/>
		</clipPath>
		
			<rect x="941.674" y="742.202" clip-path="url(#SVGID_8_)" fill="none" stroke="#2C77BC" stroke-width="4.455" stroke-miterlimit="10" width="19.508" height="45.907"/>
		
			<rect x="961.182" y="746.414" clip-path="url(#SVGID_8_)" fill-rule="evenodd" clip-rule="evenodd" fill="#2C77BC" width="8.188" height="8.187"/>
	</g>
	<g clip-path="url(#SVGID_2_)">
		<text transform="matrix(1 0 0 1 951.4355 806.7949)" fill="#2C77BC" font-family="'Nunito-ExtraBold'" font-size="21.384">0</text>
	</g>
	<g clip-path="url(#SVGID_2_)">
		<text transform="matrix(1 0 0 1 951.4355 732.6572)" fill="#2C77BC" font-family="'Nunito-ExtraBold'" font-size="21.384">1</text>
	</g>
	<g clip-path="url(#SVGID_2_)">
		<defs>
			<rect id="SVGID_9_" width="1210" height="1178"/>
		</defs>
		<clipPath id="SVGID_10_">
			<use xlink:href="#SVGID_9_"  overflow="visible"/>
		</clipPath>
		<path clip-path="url(#SVGID_10_)" fill="none" stroke="#2A77BC" stroke-width="1.895" stroke-miterlimit="10" d="M533.219,543.121
			h80.984c12.506,0,22.736,10.231,22.736,22.736v193.647c0,12.505-10.23,22.736-22.736,22.736h-80.984"/>
		<rect x="550.335" y="584.507" clip-path="url(#SVGID_10_)" fill="#2A77BC" width="85.838" height="19.927"/>
	</g>
	<g clip-path="url(#SVGID_2_)">
		<text transform="matrix(1 0 0 1 582.4253 601.1689)"><tspan x="0" y="0" fill="#FFFFFF" font-family="'OCRAStd'" font-size="16.3571">A</tspan><tspan x="10.976" y="0" fill="#FFFFFF" font-family="'OCRAStd'" font-size="16.3571">O</tspan></text>
	</g>
	<g clip-path="url(#SVGID_2_)">
		<defs>
			<rect id="SVGID_11_" width="1210" height="1178"/>
		</defs>
		<clipPath id="SVGID_12_">
			<use xlink:href="#SVGID_11_"  overflow="visible"/>
		</clipPath>
		
			<line clip-path="url(#SVGID_12_)" fill="none" stroke="#2A77BC" stroke-width="1.533" stroke-miterlimit="10" x1="549.569" y1="681.841" x2="636.94" y2="681.841"/>
		
			<line clip-path="url(#SVGID_12_)" fill="none" stroke="#2A77BC" stroke-width="1.533" stroke-miterlimit="10" x1="549.569" y1="739.321" x2="636.94" y2="739.321"/>
		<path clip-path="url(#SVGID_12_)" fill="none" stroke="#2C77BC" stroke-width="4.455" stroke-miterlimit="10" d="M685.927,572.396
			c0-6.452-3.344-12.155-8.38-15.48h-20.33c-5.035,3.325-8.381,9.028-8.381,15.48c0,5.805,2.709,11.003,6.918,14.41h23.256
			C683.219,583.399,685.927,578.201,685.927,572.396z"/>
	</g>
</g>
</svg>
