<?xml version="1.0" encoding="utf-8"?>
<!-- Generator: Adobe Illustrator 16.0.0, SVG Export Plug-In . SVG Version: 6.00 Build 0)  -->
<!DOCTYPE svg PUBLIC "-//W3C//DTD SVG 1.1//EN" "http://www.w3.org/Graphics/SVG/1.1/DTD/svg11.dtd">
<svg version="1.1" id="Layer_1" xmlns="http://www.w3.org/2000/svg" xmlns:xlink="http://www.w3.org/1999/xlink" x="0px" y="0px"
	 width="1210px" height="1178px" viewBox="0 0 1210 1178" enable-background="new 0 0 1210 1178" xml:space="preserve">
<g>
	<defs>
		<rect id="SVGID_1_" width="1210" height="1178"/>
	</defs>
	<clipPath id="SVGID_2_">
		<use xlink:href="#SVGID_1_"  overflow="visible"/>
	</clipPath>
	<g clip-path="url(#SVGID_2_)">
		<g>
			<defs>
				<rect id="SVGID_3_" x="436" y="429.945" width="422.5" height="271.555"/>
			</defs>
			<clipPath id="SVGID_4_">
				<use xlink:href="#SVGID_3_"  overflow="visible"/>
			</clipPath>
			
				<rect x="438" y="431.945" clip-path="url(#SVGID_4_)" fill-rule="evenodd" clip-rule="evenodd" fill="#FFEAB6" width="418.5" height="267.555"/>
			
				<rect x="438" y="431.945" clip-path="url(#SVGID_4_)" fill="none" stroke="#FF9425" stroke-width="4" stroke-miterlimit="10" width="418.5" height="267.555"/>
		</g>
	</g>
	<g clip-path="url(#SVGID_2_)">
		<defs>
			<rect id="SVGID_5_" y="0.001" width="1210" height="1177.999"/>
		</defs>
		<clipPath id="SVGID_6_">
			<use xlink:href="#SVGID_5_"  overflow="visible"/>
		</clipPath>
	</g>
	<g clip-path="url(#SVGID_2_)">
		<defs>
			<rect id="SVGID_7_" width="1210" height="1178"/>
		</defs>
		<clipPath id="SVGID_8_">
			<use xlink:href="#SVGID_7_"  overflow="visible"/>
		</clipPath>
		<path clip-path="url(#SVGID_8_)" fill="none" stroke="#2C77BC" stroke-width="7.153" stroke-miterlimit="10" d="M871.037,813.949
			H338.231c-65.979,0-119.962-53.983-119.962-119.962V231.658c0-65.98,53.983-119.963,119.962-119.963h532.806
			c65.979,0,119.963,53.983,119.963,119.963v462.329C991,759.966,937.016,813.949,871.037,813.949z"/>
		<polygon clip-path="url(#SVGID_8_)" fill="none" stroke="#2C77BC" stroke-width="7.153" stroke-miterlimit="10" points="
			497.501,469.383 497.501,443.438 797.868,445.562 797.868,469.383 836.463,469.383 836.463,667.003 799.546,667.003 
			799.546,692.173 497.501,692.173 497.501,670.358 458.906,670.358 458.906,469.383 		"/>
		<path clip-path="url(#SVGID_8_)" fill-rule="evenodd" clip-rule="evenodd" fill="#2C77BC" d="M498.026,505.53
			c0,3.203-2.597,5.8-5.8,5.8c-3.203,0-5.799-2.597-5.799-5.8c0-3.203,2.596-5.799,5.799-5.799
			C495.429,499.731,498.026,502.327,498.026,505.53"/>
		<path clip-path="url(#SVGID_8_)" fill-rule="evenodd" clip-rule="evenodd" fill="#2C77BC" d="M529.35,505.53
			c0,3.203-2.597,5.8-5.8,5.8c-3.203,0-5.8-2.597-5.8-5.8c0-3.203,2.597-5.799,5.8-5.799
			C526.752,499.731,529.35,502.327,529.35,505.53"/>
		<path clip-path="url(#SVGID_8_)" fill-rule="evenodd" clip-rule="evenodd" fill="#2C77BC" d="M560.673,505.53
			c0,3.203-2.597,5.8-5.8,5.8c-3.203,0-5.8-2.597-5.8-5.8c0-3.203,2.597-5.799,5.8-5.799
			C558.076,499.731,560.673,502.327,560.673,505.53"/>
		<path clip-path="url(#SVGID_8_)" fill-rule="evenodd" clip-rule="evenodd" fill="#2C77BC" d="M591.996,505.53
			c0,3.203-2.597,5.8-5.8,5.8c-3.203,0-5.8-2.597-5.8-5.8c0-3.203,2.597-5.799,5.8-5.799
			C589.399,499.731,591.996,502.327,591.996,505.53"/>
		<path clip-path="url(#SVGID_8_)" fill-rule="evenodd" clip-rule="evenodd" fill="#2C77BC" d="M623.318,505.53
			c0,3.203-2.596,5.8-5.799,5.8s-5.8-2.597-5.8-5.8c0-3.203,2.597-5.799,5.8-5.799S623.318,502.327,623.318,505.53"/>
		<path clip-path="url(#SVGID_8_)" fill-rule="evenodd" clip-rule="evenodd" fill="#2C77BC" d="M654.642,505.53
			c0,3.203-2.596,5.8-5.799,5.8s-5.8-2.597-5.8-5.8c0-3.203,2.597-5.799,5.8-5.799S654.642,502.327,654.642,505.53"/>
		<path clip-path="url(#SVGID_8_)" fill-rule="evenodd" clip-rule="evenodd" fill="#2C77BC" d="M685.965,505.53
			c0,3.203-2.597,5.8-5.799,5.8c-3.203,0-5.801-2.597-5.801-5.8c0-3.203,2.598-5.799,5.801-5.799
			C683.368,499.731,685.965,502.327,685.965,505.53"/>
		<path clip-path="url(#SVGID_8_)" fill-rule="evenodd" clip-rule="evenodd" fill="#2C77BC" d="M717.288,505.53
			c0,3.203-2.597,5.8-5.799,5.8c-3.203,0-5.8-2.597-5.8-5.8c0-3.203,2.597-5.799,5.8-5.799
			C714.691,499.731,717.288,502.327,717.288,505.53"/>
		<path clip-path="url(#SVGID_8_)" fill-rule="evenodd" clip-rule="evenodd" fill="#2C77BC" d="M748.611,505.53
			c0,3.203-2.597,5.8-5.8,5.8c-3.202,0-5.799-2.597-5.799-5.8c0-3.203,2.597-5.799,5.799-5.799
			C746.015,499.731,748.611,502.327,748.611,505.53"/>
		<path clip-path="url(#SVGID_8_)" fill-rule="evenodd" clip-rule="evenodd" fill="#2C77BC" d="M779.935,505.53
			c0,3.203-2.597,5.8-5.8,5.8c-3.202,0-5.799-2.597-5.799-5.8c0-3.203,2.597-5.799,5.799-5.799
			C777.338,499.731,779.935,502.327,779.935,505.53"/>
		<path clip-path="url(#SVGID_8_)" fill-rule="evenodd" clip-rule="evenodd" fill="#2C77BC" d="M811.258,505.53
			c0,3.203-2.597,5.8-5.8,5.8s-5.799-2.597-5.799-5.8c0-3.203,2.596-5.799,5.799-5.799S811.258,502.327,811.258,505.53"/>
		<path clip-path="url(#SVGID_8_)" fill-rule="evenodd" clip-rule="evenodd" fill="#2C77BC" d="M498.026,537.235
			c0,3.203-2.597,5.8-5.8,5.8c-3.203,0-5.799-2.597-5.799-5.8c0-3.203,2.596-5.799,5.799-5.799
			C495.429,531.437,498.026,534.033,498.026,537.235"/>
		<path clip-path="url(#SVGID_8_)" fill-rule="evenodd" clip-rule="evenodd" fill="#2C77BC" d="M529.35,537.235
			c0,3.203-2.597,5.8-5.8,5.8c-3.203,0-5.8-2.597-5.8-5.8c0-3.203,2.597-5.799,5.8-5.799
			C526.752,531.437,529.35,534.033,529.35,537.235"/>
		<path clip-path="url(#SVGID_8_)" fill-rule="evenodd" clip-rule="evenodd" fill="#2C77BC" d="M560.673,537.235
			c0,3.203-2.597,5.8-5.8,5.8c-3.203,0-5.8-2.597-5.8-5.8c0-3.203,2.597-5.799,5.8-5.799
			C558.076,531.437,560.673,534.033,560.673,537.235"/>
		<path clip-path="url(#SVGID_8_)" fill-rule="evenodd" clip-rule="evenodd" fill="#2C77BC" d="M591.996,537.235
			c0,3.203-2.597,5.8-5.8,5.8c-3.203,0-5.8-2.597-5.8-5.8c0-3.203,2.597-5.799,5.8-5.799
			C589.399,531.437,591.996,534.033,591.996,537.235"/>
		<path clip-path="url(#SVGID_8_)" fill-rule="evenodd" clip-rule="evenodd" fill="#2C77BC" d="M623.318,537.235
			c0,3.203-2.596,5.8-5.799,5.8s-5.8-2.597-5.8-5.8c0-3.203,2.597-5.799,5.8-5.799S623.318,534.033,623.318,537.235"/>
		<path clip-path="url(#SVGID_8_)" fill-rule="evenodd" clip-rule="evenodd" fill="#2C77BC" d="M654.642,537.235
			c0,3.203-2.596,5.8-5.799,5.8s-5.8-2.597-5.8-5.8c0-3.203,2.597-5.799,5.8-5.799S654.642,534.033,654.642,537.235"/>
		<path clip-path="url(#SVGID_8_)" fill-rule="evenodd" clip-rule="evenodd" fill="#2C77BC" d="M685.965,537.235
			c0,3.203-2.597,5.8-5.799,5.8c-3.203,0-5.801-2.597-5.801-5.8c0-3.203,2.598-5.799,5.801-5.799
			C683.368,531.437,685.965,534.033,685.965,537.235"/>
		<path clip-path="url(#SVGID_8_)" fill-rule="evenodd" clip-rule="evenodd" fill="#2C77BC" d="M717.288,537.235
			c0,3.203-2.597,5.8-5.799,5.8c-3.203,0-5.8-2.597-5.8-5.8c0-3.203,2.597-5.799,5.8-5.799
			C714.691,531.437,717.288,534.033,717.288,537.235"/>
		<path clip-path="url(#SVGID_8_)" fill-rule="evenodd" clip-rule="evenodd" fill="#2C77BC" d="M748.611,537.235
			c0,3.203-2.597,5.8-5.8,5.8c-3.202,0-5.799-2.597-5.799-5.8c0-3.203,2.597-5.799,5.799-5.799
			C746.015,531.437,748.611,534.033,748.611,537.235"/>
		<path clip-path="url(#SVGID_8_)" fill-rule="evenodd" clip-rule="evenodd" fill="#2C77BC" d="M779.935,537.235
			c0,3.203-2.597,5.8-5.8,5.8c-3.202,0-5.799-2.597-5.799-5.8c0-3.203,2.597-5.799,5.799-5.799
			C777.338,531.437,779.935,534.033,779.935,537.235"/>
		<path clip-path="url(#SVGID_8_)" fill-rule="evenodd" clip-rule="evenodd" fill="#2C77BC" d="M811.258,537.235
			c0,3.203-2.597,5.8-5.8,5.8s-5.799-2.597-5.799-5.8c0-3.203,2.596-5.799,5.799-5.799S811.258,534.033,811.258,537.235"/>
		<path clip-path="url(#SVGID_8_)" fill-rule="evenodd" clip-rule="evenodd" fill="#2C77BC" d="M498.026,568.941
			c0,3.203-2.597,5.8-5.8,5.8c-3.203,0-5.799-2.597-5.799-5.8c0-3.203,2.596-5.799,5.799-5.799
			C495.429,563.142,498.026,565.738,498.026,568.941"/>
		<path clip-path="url(#SVGID_8_)" fill-rule="evenodd" clip-rule="evenodd" fill="#2C77BC" d="M529.35,568.941
			c0,3.203-2.597,5.8-5.8,5.8c-3.203,0-5.8-2.597-5.8-5.8c0-3.203,2.597-5.799,5.8-5.799
			C526.752,563.142,529.35,565.738,529.35,568.941"/>
		<path clip-path="url(#SVGID_8_)" fill-rule="evenodd" clip-rule="evenodd" fill="#2C77BC" d="M560.673,568.941
			c0,3.203-2.597,5.8-5.8,5.8c-3.203,0-5.8-2.597-5.8-5.8c0-3.203,2.597-5.799,5.8-5.799
			C558.076,563.142,560.673,565.738,560.673,568.941"/>
		<path clip-path="url(#SVGID_8_)" fill-rule="evenodd" clip-rule="evenodd" fill="#2C77BC" d="M591.996,568.941
			c0,3.203-2.597,5.8-5.8,5.8c-3.203,0-5.8-2.597-5.8-5.8c0-3.203,2.597-5.799,5.8-5.799
			C589.399,563.142,591.996,565.738,591.996,568.941"/>
		<path clip-path="url(#SVGID_8_)" fill-rule="evenodd" clip-rule="evenodd" fill="#2C77BC" d="M623.318,568.941
			c0,3.203-2.596,5.8-5.799,5.8s-5.8-2.597-5.8-5.8c0-3.203,2.597-5.799,5.8-5.799S623.318,565.738,623.318,568.941"/>
		<path clip-path="url(#SVGID_8_)" fill-rule="evenodd" clip-rule="evenodd" fill="#2C77BC" d="M654.642,568.941
			c0,3.203-2.596,5.8-5.799,5.8s-5.8-2.597-5.8-5.8c0-3.203,2.597-5.799,5.8-5.799S654.642,565.738,654.642,568.941"/>
		<path clip-path="url(#SVGID_8_)" fill-rule="evenodd" clip-rule="evenodd" fill="#2C77BC" d="M685.965,568.941
			c0,3.203-2.597,5.8-5.799,5.8c-3.203,0-5.801-2.597-5.801-5.8c0-3.203,2.598-5.799,5.801-5.799
			C683.368,563.142,685.965,565.738,685.965,568.941"/>
		<path clip-path="url(#SVGID_8_)" fill-rule="evenodd" clip-rule="evenodd" fill="#2C77BC" d="M717.288,568.941
			c0,3.203-2.597,5.8-5.799,5.8c-3.203,0-5.8-2.597-5.8-5.8c0-3.203,2.597-5.799,5.8-5.799
			C714.691,563.142,717.288,565.738,717.288,568.941"/>
		<path clip-path="url(#SVGID_8_)" fill-rule="evenodd" clip-rule="evenodd" fill="#2C77BC" d="M748.611,568.941
			c0,3.203-2.597,5.8-5.8,5.8c-3.202,0-5.799-2.597-5.799-5.8c0-3.203,2.597-5.799,5.799-5.799
			C746.015,563.142,748.611,565.738,748.611,568.941"/>
		<path clip-path="url(#SVGID_8_)" fill-rule="evenodd" clip-rule="evenodd" fill="#2C77BC" d="M779.935,568.941
			c0,3.203-2.597,5.8-5.8,5.8c-3.202,0-5.799-2.597-5.799-5.8c0-3.203,2.597-5.799,5.799-5.799
			C777.338,563.142,779.935,565.738,779.935,568.941"/>
		<path clip-path="url(#SVGID_8_)" fill-rule="evenodd" clip-rule="evenodd" fill="#2C77BC" d="M811.258,568.941
			c0,3.203-2.597,5.8-5.8,5.8s-5.799-2.597-5.799-5.8c0-3.203,2.596-5.799,5.799-5.799S811.258,565.738,811.258,568.941"/>
		<path clip-path="url(#SVGID_8_)" fill-rule="evenodd" clip-rule="evenodd" fill="#2C77BC" d="M498.026,600.646
			c0,3.203-2.597,5.799-5.8,5.799c-3.203,0-5.799-2.596-5.799-5.799s2.596-5.8,5.799-5.8
			C495.429,594.847,498.026,597.443,498.026,600.646"/>
		<path clip-path="url(#SVGID_8_)" fill-rule="evenodd" clip-rule="evenodd" fill="#2C77BC" d="M529.35,600.646
			c0,3.203-2.597,5.799-5.8,5.799c-3.203,0-5.8-2.596-5.8-5.799s2.597-5.8,5.8-5.8C526.752,594.847,529.35,597.443,529.35,600.646"
			/>
		<path clip-path="url(#SVGID_8_)" fill-rule="evenodd" clip-rule="evenodd" fill="#2C77BC" d="M560.673,600.646
			c0,3.203-2.597,5.799-5.8,5.799c-3.203,0-5.8-2.596-5.8-5.799s2.597-5.8,5.8-5.8C558.076,594.847,560.673,597.443,560.673,600.646
			"/>
		<path clip-path="url(#SVGID_8_)" fill-rule="evenodd" clip-rule="evenodd" fill="#2C77BC" d="M591.996,600.646
			c0,3.203-2.597,5.799-5.8,5.799c-3.203,0-5.8-2.596-5.8-5.799s2.597-5.8,5.8-5.8C589.399,594.847,591.996,597.443,591.996,600.646
			"/>
		<path clip-path="url(#SVGID_8_)" fill-rule="evenodd" clip-rule="evenodd" fill="#2C77BC" d="M623.318,600.646
			c0,3.203-2.596,5.799-5.799,5.799s-5.8-2.596-5.8-5.799s2.597-5.8,5.8-5.8S623.318,597.443,623.318,600.646"/>
		<path clip-path="url(#SVGID_8_)" fill-rule="evenodd" clip-rule="evenodd" fill="#2C77BC" d="M654.642,600.646
			c0,3.203-2.596,5.799-5.799,5.799s-5.8-2.596-5.8-5.799s2.597-5.8,5.8-5.8S654.642,597.443,654.642,600.646"/>
		<path clip-path="url(#SVGID_8_)" fill-rule="evenodd" clip-rule="evenodd" fill="#2C77BC" d="M685.965,600.646
			c0,3.203-2.597,5.799-5.799,5.799c-3.203,0-5.801-2.596-5.801-5.799s2.598-5.8,5.801-5.8
			C683.368,594.847,685.965,597.443,685.965,600.646"/>
		<path clip-path="url(#SVGID_8_)" fill-rule="evenodd" clip-rule="evenodd" fill="#2C77BC" d="M717.288,600.646
			c0,3.203-2.597,5.799-5.799,5.799c-3.203,0-5.8-2.596-5.8-5.799s2.597-5.8,5.8-5.8
			C714.691,594.847,717.288,597.443,717.288,600.646"/>
		<path clip-path="url(#SVGID_8_)" fill-rule="evenodd" clip-rule="evenodd" fill="#2C77BC" d="M748.611,600.646
			c0,3.203-2.597,5.799-5.8,5.799c-3.202,0-5.799-2.596-5.799-5.799s2.597-5.8,5.799-5.8
			C746.015,594.847,748.611,597.443,748.611,600.646"/>
		<path clip-path="url(#SVGID_8_)" fill-rule="evenodd" clip-rule="evenodd" fill="#2C77BC" d="M779.935,600.646
			c0,3.203-2.597,5.799-5.8,5.799c-3.202,0-5.799-2.596-5.799-5.799s2.597-5.8,5.799-5.8
			C777.338,594.847,779.935,597.443,779.935,600.646"/>
		<path clip-path="url(#SVGID_8_)" fill-rule="evenodd" clip-rule="evenodd" fill="#2C77BC" d="M811.258,600.646
			c0,3.203-2.597,5.799-5.8,5.799s-5.799-2.596-5.799-5.799s2.596-5.8,5.799-5.8S811.258,597.443,811.258,600.646"/>
		<path clip-path="url(#SVGID_8_)" fill-rule="evenodd" clip-rule="evenodd" fill="#2C77BC" d="M498.026,632.353
			c0,3.203-2.597,5.799-5.8,5.799c-3.203,0-5.799-2.596-5.799-5.799s2.596-5.8,5.799-5.8
			C495.429,626.553,498.026,629.149,498.026,632.353"/>
		<path clip-path="url(#SVGID_8_)" fill-rule="evenodd" clip-rule="evenodd" fill="#2C77BC" d="M529.35,632.353
			c0,3.203-2.597,5.799-5.8,5.799c-3.203,0-5.8-2.596-5.8-5.799s2.597-5.8,5.8-5.8C526.752,626.553,529.35,629.149,529.35,632.353"
			/>
		<path clip-path="url(#SVGID_8_)" fill-rule="evenodd" clip-rule="evenodd" fill="#2C77BC" d="M560.673,632.353
			c0,3.203-2.597,5.799-5.8,5.799c-3.203,0-5.8-2.596-5.8-5.799s2.597-5.8,5.8-5.8C558.076,626.553,560.673,629.149,560.673,632.353
			"/>
		<path clip-path="url(#SVGID_8_)" fill-rule="evenodd" clip-rule="evenodd" fill="#2C77BC" d="M591.996,632.353
			c0,3.203-2.597,5.799-5.8,5.799c-3.203,0-5.8-2.596-5.8-5.799s2.597-5.8,5.8-5.8C589.399,626.553,591.996,629.149,591.996,632.353
			"/>
		<path clip-path="url(#SVGID_8_)" fill-rule="evenodd" clip-rule="evenodd" fill="#2C77BC" d="M623.318,632.353
			c0,3.203-2.596,5.799-5.799,5.799s-5.8-2.596-5.8-5.799s2.597-5.8,5.8-5.8S623.318,629.149,623.318,632.353"/>
		<path clip-path="url(#SVGID_8_)" fill-rule="evenodd" clip-rule="evenodd" fill="#2C77BC" d="M654.642,632.353
			c0,3.203-2.596,5.799-5.799,5.799s-5.8-2.596-5.8-5.799s2.597-5.8,5.8-5.8S654.642,629.149,654.642,632.353"/>
		<path clip-path="url(#SVGID_8_)" fill-rule="evenodd" clip-rule="evenodd" fill="#2C77BC" d="M685.965,632.353
			c0,3.203-2.597,5.799-5.799,5.799c-3.203,0-5.801-2.596-5.801-5.799s2.598-5.8,5.801-5.8
			C683.368,626.553,685.965,629.149,685.965,632.353"/>
		<path clip-path="url(#SVGID_8_)" fill-rule="evenodd" clip-rule="evenodd" fill="#2C77BC" d="M717.288,632.353
			c0,3.203-2.597,5.799-5.799,5.799c-3.203,0-5.8-2.596-5.8-5.799s2.597-5.8,5.8-5.8
			C714.691,626.553,717.288,629.149,717.288,632.353"/>
		<path clip-path="url(#SVGID_8_)" fill-rule="evenodd" clip-rule="evenodd" fill="#2C77BC" d="M748.611,632.353
			c0,3.203-2.597,5.799-5.8,5.799c-3.202,0-5.799-2.596-5.799-5.799s2.597-5.8,5.799-5.8
			C746.015,626.553,748.611,629.149,748.611,632.353"/>
		<path clip-path="url(#SVGID_8_)" fill-rule="evenodd" clip-rule="evenodd" fill="#2C77BC" d="M779.935,632.353
			c0,3.203-2.597,5.799-5.8,5.799c-3.202,0-5.799-2.596-5.799-5.799s2.597-5.8,5.799-5.8
			C777.338,626.553,779.935,629.149,779.935,632.353"/>
		<path clip-path="url(#SVGID_8_)" fill-rule="evenodd" clip-rule="evenodd" fill="#2C77BC" d="M811.258,632.353
			c0,3.203-2.597,5.799-5.8,5.799s-5.799-2.596-5.799-5.799s2.596-5.8,5.799-5.8S811.258,629.149,811.258,632.353"/>
		
			<rect x="276.841" y="226.886" clip-path="url(#SVGID_8_)" fill="none" stroke="#2C77BC" stroke-width="7.153" stroke-miterlimit="10" width="25.171" height="376.992"/>
		
			<rect x="276.841" y="166.326" clip-path="url(#SVGID_8_)" fill="none" stroke="#2C77BC" stroke-width="6.594" stroke-miterlimit="10" width="188.692" height="25.17"/>
		
			<rect x="252.929" y="709.492" clip-path="url(#SVGID_8_)" fill="none" stroke="#2C77BC" stroke-width="7.153" stroke-miterlimit="10" width="125.433" height="25.17"/>
		
			<rect x="544.347" y="166.326" clip-path="url(#SVGID_8_)" fill="none" stroke="#2C77BC" stroke-width="7.153" stroke-miterlimit="10" width="250.864" height="25.17"/>
		
			<rect x="560.673" y="365.054" clip-path="url(#SVGID_8_)" fill="none" stroke="#2C77BC" stroke-width="7.153" stroke-miterlimit="10" width="56.847" height="56.847"/>
		
			<rect x="723.088" y="309.291" clip-path="url(#SVGID_8_)" fill="none" stroke="#2C77BC" stroke-width="7.153" stroke-miterlimit="10" width="56.847" height="28.423"/>
		
			<rect x="805.458" y="246.104" clip-path="url(#SVGID_8_)" fill="none" stroke="#2C77BC" stroke-width="7.153" stroke-miterlimit="10" width="56.847" height="28.423"/>
		
			<rect x="805.458" y="372.49" clip-path="url(#SVGID_8_)" fill="none" stroke="#2C77BC" stroke-width="7.153" stroke-miterlimit="10" width="56.847" height="28.423"/>
		
			<rect x="401.435" y="713.014" clip-path="url(#SVGID_8_)" fill="none" stroke="#2C77BC" stroke-width="7.153" stroke-miterlimit="10" width="171.158" height="65.799"/>
		
			<rect x="627.851" y="713.014" clip-path="url(#SVGID_8_)" fill="none" stroke="#2C77BC" stroke-width="7.153" stroke-miterlimit="10" width="171.159" height="65.799"/>
		
			<rect x="884.179" y="309.291" clip-path="url(#SVGID_8_)" fill="none" stroke="#2C77BC" stroke-width="7.153" stroke-miterlimit="10" width="56.848" height="28.423"/>
		
			<rect x="424.99" y="749.448" clip-path="url(#SVGID_8_)" fill-rule="evenodd" clip-rule="evenodd" fill="#2C77BC" width="7.551" height="7.551"/>
		
			<rect x="453.935" y="749.448" clip-path="url(#SVGID_8_)" fill-rule="evenodd" clip-rule="evenodd" fill="#2C77BC" width="7.552" height="7.551"/>
		
			<rect x="482.882" y="749.448" clip-path="url(#SVGID_8_)" fill-rule="evenodd" clip-rule="evenodd" fill="#2C77BC" width="7.551" height="7.551"/>
		
			<rect x="511.828" y="749.448" clip-path="url(#SVGID_8_)" fill-rule="evenodd" clip-rule="evenodd" fill="#2C77BC" width="7.551" height="7.551"/>
		
			<rect x="540.773" y="749.448" clip-path="url(#SVGID_8_)" fill-rule="evenodd" clip-rule="evenodd" fill="#2C77BC" width="7.552" height="7.551"/>
		
			<rect x="651.111" y="749.448" clip-path="url(#SVGID_8_)" fill-rule="evenodd" clip-rule="evenodd" fill="#2C77BC" width="7.552" height="7.551"/>
		
			<rect x="680.057" y="749.448" clip-path="url(#SVGID_8_)" fill-rule="evenodd" clip-rule="evenodd" fill="#2C77BC" width="7.552" height="7.551"/>
		
			<rect x="709.003" y="749.448" clip-path="url(#SVGID_8_)" fill-rule="evenodd" clip-rule="evenodd" fill="#2C77BC" width="7.552" height="7.551"/>
		
			<rect x="737.949" y="749.448" clip-path="url(#SVGID_8_)" fill-rule="evenodd" clip-rule="evenodd" fill="#2C77BC" width="7.551" height="7.551"/>
		
			<rect x="766.895" y="749.448" clip-path="url(#SVGID_8_)" fill-rule="evenodd" clip-rule="evenodd" fill="#2C77BC" width="7.552" height="7.551"/>
		
			<rect x="832.057" y="717.454" clip-path="url(#SVGID_8_)" fill-rule="evenodd" clip-rule="evenodd" fill="#2C77BC" width="7.552" height="7.551"/>
		
			<rect x="865.926" y="717.454" clip-path="url(#SVGID_8_)" fill-rule="evenodd" clip-rule="evenodd" fill="#2C77BC" width="7.551" height="7.551"/>
		
			<rect x="263.128" y="653.465" clip-path="url(#SVGID_8_)" fill-rule="evenodd" clip-rule="evenodd" fill="#2C77BC" width="7.551" height="7.551"/>
		
			<rect x="296.996" y="653.465" clip-path="url(#SVGID_8_)" fill-rule="evenodd" clip-rule="evenodd" fill="#2C77BC" width="7.551" height="7.551"/>
		
			<rect x="897.333" y="717.454" clip-path="url(#SVGID_8_)" fill-rule="evenodd" clip-rule="evenodd" fill="#2C77BC" width="7.551" height="7.551"/>
		
			<line clip-path="url(#SVGID_8_)" fill="none" stroke="#2C77BC" stroke-width="7.153" stroke-miterlimit="10" x1="284.287" y1="709.492" x2="284.287" y2="734.662"/>
		
			<line clip-path="url(#SVGID_8_)" fill="none" stroke="#2C77BC" stroke-width="7.153" stroke-miterlimit="10" x1="315.646" y1="709.492" x2="315.646" y2="734.662"/>
		
			<line clip-path="url(#SVGID_8_)" fill="none" stroke="#2C77BC" stroke-width="7.153" stroke-miterlimit="10" x1="347.003" y1="709.492" x2="347.003" y2="734.662"/>
		
			<rect x="821.439" y="709.492" clip-path="url(#SVGID_8_)" fill="none" stroke="#2C77BC" stroke-width="6.208" stroke-miterlimit="10" width="94.473" height="25.17"/>
		
			<line clip-path="url(#SVGID_8_)" fill="none" stroke="#2C77BC" stroke-width="7.153" stroke-miterlimit="10" x1="852.798" y1="709.492" x2="852.798" y2="734.662"/>
		
			<line clip-path="url(#SVGID_8_)" fill="none" stroke="#2C77BC" stroke-width="7.153" stroke-miterlimit="10" x1="884.156" y1="709.492" x2="884.156" y2="734.662"/>
		
			<rect x="251.72" y="643.7" clip-path="url(#SVGID_8_)" fill="none" stroke="#2C77BC" stroke-width="7.153" stroke-miterlimit="10" width="62.717" height="25.17"/>
		
			<line clip-path="url(#SVGID_8_)" fill="none" stroke="#2C77BC" stroke-width="7.153" stroke-miterlimit="10" x1="283.078" y1="643.7" x2="283.078" y2="668.87"/>
		
			<line clip-path="url(#SVGID_8_)" fill="none" stroke="#2C77BC" stroke-width="7.153" stroke-miterlimit="10" x1="302.012" y1="572.625" x2="276.841" y2="572.625"/>
		
			<line clip-path="url(#SVGID_8_)" fill="none" stroke="#2C77BC" stroke-width="7.153" stroke-miterlimit="10" x1="302.012" y1="540.467" x2="276.841" y2="540.467"/>
		
			<line clip-path="url(#SVGID_8_)" fill="none" stroke="#2C77BC" stroke-width="7.153" stroke-miterlimit="10" x1="302.012" y1="509.109" x2="276.841" y2="509.109"/>
		
			<line clip-path="url(#SVGID_8_)" fill="none" stroke="#2C77BC" stroke-width="7.153" stroke-miterlimit="10" x1="302.012" y1="477.751" x2="276.841" y2="477.751"/>
		
			<line clip-path="url(#SVGID_8_)" fill="none" stroke="#2C77BC" stroke-width="7.153" stroke-miterlimit="10" x1="302.012" y1="446.393" x2="276.841" y2="446.393"/>
		
			<line clip-path="url(#SVGID_8_)" fill="none" stroke="#2C77BC" stroke-width="7.153" stroke-miterlimit="10" x1="302.012" y1="415.035" x2="276.841" y2="415.035"/>
		
			<line clip-path="url(#SVGID_8_)" fill="none" stroke="#2C77BC" stroke-width="7.153" stroke-miterlimit="10" x1="302.012" y1="383.677" x2="276.841" y2="383.677"/>
		
			<line clip-path="url(#SVGID_8_)" fill="none" stroke="#2C77BC" stroke-width="7.153" stroke-miterlimit="10" x1="302.012" y1="352.318" x2="276.841" y2="352.318"/>
		
			<line clip-path="url(#SVGID_8_)" fill="none" stroke="#2C77BC" stroke-width="7.153" stroke-miterlimit="10" x1="302.012" y1="320.96" x2="276.841" y2="320.96"/>
		
			<line clip-path="url(#SVGID_8_)" fill="none" stroke="#2C77BC" stroke-width="7.153" stroke-miterlimit="10" x1="302.012" y1="289.603" x2="276.841" y2="289.603"/>
		
			<line clip-path="url(#SVGID_8_)" fill="none" stroke="#2C77BC" stroke-width="7.153" stroke-miterlimit="10" x1="302.012" y1="258.244" x2="276.841" y2="258.244"/>
		
			<line clip-path="url(#SVGID_8_)" fill="none" stroke="#2C77BC" stroke-width="7.153" stroke-miterlimit="10" x1="575.704" y1="191.496" x2="575.704" y2="166.326"/>
		
			<line clip-path="url(#SVGID_8_)" fill="none" stroke="#2C77BC" stroke-width="7.153" stroke-miterlimit="10" x1="433.632" y1="191.496" x2="433.632" y2="166.326"/>
		
			<line clip-path="url(#SVGID_8_)" fill="none" stroke="#2C77BC" stroke-width="7.153" stroke-miterlimit="10" x1="402.273" y1="191.496" x2="402.273" y2="166.326"/>
		
			<line clip-path="url(#SVGID_8_)" fill="none" stroke="#2C77BC" stroke-width="7.153" stroke-miterlimit="10" x1="370.915" y1="191.496" x2="370.915" y2="166.326"/>
		
			<line clip-path="url(#SVGID_8_)" fill="none" stroke="#2C77BC" stroke-width="7.153" stroke-miterlimit="10" x1="339.557" y1="191.496" x2="339.557" y2="166.326"/>
		
			<line clip-path="url(#SVGID_8_)" fill="none" stroke="#2C77BC" stroke-width="7.153" stroke-miterlimit="10" x1="308.199" y1="191.496" x2="308.199" y2="166.326"/>
		
			<line clip-path="url(#SVGID_8_)" fill="none" stroke="#2C77BC" stroke-width="7.153" stroke-miterlimit="10" x1="607.063" y1="191.496" x2="607.063" y2="166.326"/>
		
			<line clip-path="url(#SVGID_8_)" fill="none" stroke="#2C77BC" stroke-width="7.153" stroke-miterlimit="10" x1="638.421" y1="191.496" x2="638.421" y2="166.326"/>
		
			<line clip-path="url(#SVGID_8_)" fill="none" stroke="#2C77BC" stroke-width="7.153" stroke-miterlimit="10" x1="669.778" y1="191.496" x2="669.778" y2="166.326"/>
		
			<line clip-path="url(#SVGID_8_)" fill="none" stroke="#2C77BC" stroke-width="7.153" stroke-miterlimit="10" x1="701.137" y1="191.496" x2="701.137" y2="166.326"/>
		
			<line clip-path="url(#SVGID_8_)" fill="none" stroke="#2C77BC" stroke-width="7.153" stroke-miterlimit="10" x1="732.495" y1="191.496" x2="732.495" y2="166.326"/>
		
			<line clip-path="url(#SVGID_8_)" fill="none" stroke="#2C77BC" stroke-width="7.153" stroke-miterlimit="10" x1="763.853" y1="191.496" x2="763.853" y2="166.326"/>
	</g>
	<path clip-path="url(#SVGID_2_)" fill="#2A77BC" d="M337.903,142.5v9.677h-3.414v-22.092h6.422c3.911,0,6.073,2.097,6.073,5.922
		c0,3.231-1.68,4.62-2.896,5.077c1.825,0.776,2.576,2.351,2.576,5.556v0.88c0,2.355,0.101,3.473,0.303,4.656h-3.342
		c-0.316-1.011-0.362-2.833-0.362-4.699v-0.786c0-3.02-0.665-4.192-3.328-4.192H337.903z M337.903,139.687h2.187
		c2.49,0,3.452-1.196,3.452-3.542c0-2.012-0.949-3.247-3.116-3.247h-2.522V139.687z M363.46,140.953
		c0,7.892-2.059,11.586-7.045,11.586c-4.687,0-6.855-3.612-6.855-11.603c0-7.82,2.531-11.191,7.012-11.191
		C361.304,129.746,363.46,133.346,363.46,140.953z M353.084,140.895c0,5.603,0.958,8.74,3.419,8.74c2.572,0,3.432-2.954,3.432-8.72
		c0-5.577-0.922-8.241-3.442-8.241C354.016,132.673,353.084,135.598,353.084,140.895z M366.68,130.085h6.4
		c3.653,0,5.733,2.074,5.733,5.524c0,2.846-1.363,4.177-2.608,4.633c1.601,0.623,3.277,2.093,3.277,5.445
		c0,4.122-2.619,6.489-6.516,6.489h-6.286V130.085z M372.169,139.035c2.565,0,3.334-1.046,3.334-3.113
		c0-2.024-1.066-3.08-3.139-3.08h-2.317v6.192H372.169z M370.048,149.465h2.568c2.187,0,3.419-1.202,3.419-3.826
		c0-2.509-1.137-3.892-3.862-3.892h-2.125V149.465z M395.64,140.953c0,7.892-2.058,11.586-7.045,11.586
		c-4.686,0-6.855-3.612-6.855-11.603c0-7.82,2.531-11.191,7.012-11.191C393.483,129.746,395.64,133.346,395.64,140.953z
		 M385.264,140.895c0,5.603,0.958,8.74,3.419,8.74c2.572,0,3.432-2.954,3.432-8.72c0-5.577-0.922-8.241-3.442-8.241
		C386.196,132.673,385.264,135.598,385.264,140.895z M401.335,133.104h-4.79v-3.019h13.016v3.019h-4.79v19.073h-3.437V133.104z
		 M421.262,130.085v22.092h-3.437v-22.092H421.262z M425.356,152.177v-22.092h3.978c5.094,13.262,5.965,15.506,6.235,16.546h0.033
		c-0.176-2.761-0.196-6.038-0.196-9.648v-6.898h3.104v22.092h-3.812c-5.273-14.058-6.091-16.295-6.366-17.261H428.3
		c0.163,2.736,0.172,6.113,0.172,10.078v7.183H425.356z M450.272,152.177h-3.437l5.191-22.092h4.455l5.282,22.092h-3.613
		l-1.28-6.056h-5.327L450.272,152.177z M456.236,143.125c-0.98-4.638-1.697-7.852-2.027-9.842h-0.088
		c-0.28,1.996-1.049,5.539-1.955,9.842H456.236z M482.479,145.854c-0.098,1.174-0.567,6.686-6.432,6.686
		c-6.144,0-6.771-5.757-6.771-11.481c0-6.904,1.96-11.312,7.019-11.312c5.675,0,6.077,5.012,6.155,6.637h-3.411
		c-0.055-0.75-0.137-3.69-2.799-3.69c-2.825,0-3.406,3.626-3.406,8.424c0,4.335,0.45,8.521,3.278,8.521
		c2.559,0,2.835-2.846,2.934-3.784H482.479z M487.277,152.177h-3.437c0,0,5.191-22.092,5.191-22.092h4.455l5.282,22.092h-3.613
		l-1.28-6.056h-5.327L487.277,152.177z M493.242,143.125c-0.981-4.638-1.698-7.852-2.027-9.842h-0.088
		c-0.281,1.996-1.05,5.539-1.956,9.842H493.242z M500.831,152.177v-22.092h3.978c5.094,13.262,5.964,15.506,6.235,16.546h0.033
		c-0.176-2.761-0.196-6.038-0.196-9.648v-6.898h3.104v22.092h-3.812c-5.272-14.058-6.091-16.295-6.365-17.261h-0.033
		c0.163,2.736,0.173,6.113,0.173,10.078v7.183H500.831z"/>
	<path clip-path="url(#SVGID_2_)" fill="#2A77BC" d="M448.981,387.973v-2.637c0.655-0.088,1.209-0.153,2.053-0.176
		c-1.677-0.897-2.416-2.284-2.416-4.399c0-4.672,4.391-6.199,11.309-6.199c7.908,0,11.484,2.59,11.484,7.247
		c0,5.75-4.983,6.086-6.297,6.151v-3.401c0.854-0.065,3.37-0.251,3.37-2.852c0-2.745-3.492-3.588-8.538-3.588
		c-5.279,0-8.423,0.681-8.423,3.403c0,2.398,1.909,3.047,5.633,3.047h1.184V381.3h2.95v6.673
		C461.291,387.973,448.981,387.973,448.981,387.973z M460.205,427.423c-7.892,0-11.586-2.058-11.586-7.045
		c0-4.686,3.612-6.855,11.602-6.855c7.82,0,11.191,2.531,11.191,7.012C471.412,425.267,467.813,427.423,460.205,427.423z
		 M471.073,397.896c0,3.587-2.185,6.207-6.428,6.207c-4.152,0-6.486-2.368-6.486-6.529v-2.562h-9.178v-3.437h22.092V397.896z
		 M471.073,410.237h-22.092V406.8h22.092V410.237z M460.264,417.048c-5.603,0-8.74,0.958-8.74,3.419c0,2.572,2.954,3.432,8.72,3.432
		c5.577,0,8.241-0.921,8.241-3.441C468.485,417.979,465.56,417.048,460.264,417.048z M460.949,395.011v2.18
		c0,2.35,1.196,3.455,3.742,3.455c2.289,0,3.569-1.187,3.569-3.22v-2.415H460.949z"/>
	<path clip-path="url(#SVGID_2_)" fill="#2A77BC" d="M471.512,222.518h2.075v11.555h4.631l-0.225,1.781h-6.481V222.518z
		 M481.54,222.518v13.336h-2.074v-13.336H481.54z M491.621,235.854h-1.592c-0.053-0.396-0.093-0.73-0.106-1.239
		c-0.542,1.012-1.379,1.458-2.655,1.458c-2.82,0-3.742-2.65-3.742-6.826c0-4.774,1.563-6.933,4.375-6.933
		c3.471,0,3.674,3.008,3.713,3.801h-2.053c-0.039-0.516-0.151-2.034-1.721-2.034c-1.657,0-2.166,2.108-2.166,5.154
		c0,3.187,0.411,5.085,2.054,5.085c1.448,0,1.84-1.152,1.84-3.401v-0.714h-1.974v-1.781h4.028
		C491.621,228.423,491.621,235.854,491.621,235.854z M493.797,222.518h2.075v5.395h3.594v-5.395h2.074v13.336h-2.074v-6.133h-3.594
		v6.133h-2.075V222.518z M505.751,224.34h-2.891v-1.822h7.857v1.822h-2.892v11.514h-2.075V224.34z"/>
	<path clip-path="url(#SVGID_2_)" fill="#2A77BC" d="M564.623,348.151v5.841h-2.061v-13.336h3.877c2.36,0,3.666,1.266,3.666,3.575
		c0,1.951-1.014,2.789-1.748,3.064c1.102,0.469,1.555,1.419,1.555,3.354v0.532c0,1.421,0.062,2.096,0.183,2.811h-2.017
		c-0.191-0.61-0.219-1.71-0.219-2.836v-0.474c0-1.823-0.401-2.531-2.009-2.531H564.623z M564.623,346.453h1.32
		c1.503,0,2.084-0.722,2.084-2.139c0-1.214-0.573-1.96-1.881-1.96h-1.522V346.453z M579.757,353.992h-1.592
		c-0.053-0.396-0.092-0.73-0.106-1.239c-0.542,1.012-1.379,1.458-2.655,1.458c-2.821,0-3.743-2.65-3.743-6.826
		c0-4.774,1.563-6.933,4.375-6.933c3.471,0,3.674,3.008,3.713,3.801h-2.053c-0.04-0.516-0.152-2.034-1.722-2.034
		c-1.657,0-2.166,2.108-2.166,5.154c0,3.187,0.411,5.085,2.054,5.085c1.448,0,1.839-1.152,1.839-3.401v-0.714h-1.973v-1.781h4.028
		C579.757,346.562,579.757,353.992,579.757,353.992z M581.92,340.656h3.863c2.206,0,3.461,1.252,3.461,3.335
		c0,1.718-0.823,2.521-1.575,2.797c0.966,0.376,1.978,1.264,1.978,3.287c0,2.488-1.581,3.917-3.934,3.917h-3.794V340.656z
		 M585.234,346.059c1.549,0,2.013-0.631,2.013-1.879c0-1.222-0.644-1.859-1.895-1.859h-1.399v3.738H585.234z M583.953,352.355h1.551
		c1.32,0,2.063-0.726,2.063-2.31c0-1.515-0.686-2.349-2.331-2.349h-1.283V352.355z M595.24,340.656h2.075v11.555h4.631l-0.225,1.781
		h-6.481V340.656z M609.578,347.903h-4.338v4.294h4.852l-0.262,1.795h-6.637v-13.336h6.594v1.822h-4.547v3.616h4.338V347.903z
		 M611.6,340.656h3.3c3.31,0,4.658,2.181,4.658,6.368c0,4.511-1.268,6.968-4.853,6.968H611.6V340.656z M613.688,352.28h0.979
		c2.063,0,2.749-1.585,2.749-5.232c0-3.229-0.687-4.652-2.729-4.652h-1V352.28z"/>
	<path clip-path="url(#SVGID_2_)" fill="#2A77BC" d="M688.069,421.883h3.863c2.205,0,3.462,1.252,3.462,3.335
		c0,1.718-0.823,2.521-1.575,2.797c0.967,0.376,1.979,1.264,1.979,3.287c0,2.488-1.581,3.917-3.934,3.917h-3.795V421.883z
		 M691.384,427.286c1.549,0,2.013-0.631,2.013-1.879c0-1.222-0.644-1.859-1.895-1.859h-1.399v3.738H691.384z M690.103,433.582h1.551
		c1.32,0,2.063-0.726,2.063-2.31c0-1.515-0.687-2.349-2.331-2.349h-1.283V433.582z M699.574,429.377v5.841h-2.061v-13.336h3.877
		c2.36,0,3.666,1.266,3.666,3.575c0,1.95-1.015,2.789-1.748,3.064c1.102,0.469,1.555,1.419,1.555,3.354v0.532
		c0,1.421,0.061,2.096,0.183,2.811h-2.017c-0.191-0.61-0.219-1.71-0.219-2.836v-0.474c0-1.823-0.401-2.531-2.01-2.531H699.574z
		 M699.574,427.679h1.319c1.504,0,2.084-0.722,2.084-2.138c0-1.214-0.572-1.96-1.881-1.96h-1.522V427.679z M713.367,429.129h-4.338
		v4.294h4.853l-0.263,1.795h-6.637v-13.336h6.594v1.822h-4.547v3.616h4.338V429.129z M716.91,435.219h-2.074l3.133-13.336h2.689
		l3.188,13.336h-2.181l-0.773-3.655h-3.215L716.91,435.219z M720.511,429.755c-0.592-2.8-1.024-4.74-1.224-5.941h-0.053
		c-0.17,1.205-0.634,3.344-1.181,5.941H720.511z M725.092,421.883h3.301c3.31,0,4.657,2.181,4.657,6.368
		c0,4.511-1.268,6.968-4.853,6.968h-3.105V421.883z M727.181,433.507h0.979c2.062,0,2.748-1.585,2.748-5.232
		c0-3.229-0.686-4.652-2.729-4.652h-0.999V433.507z M734.98,421.883h3.863c2.205,0,3.461,1.252,3.461,3.335
		c0,1.718-0.822,2.521-1.574,2.797c0.967,0.376,1.979,1.264,1.979,3.287c0,2.488-1.582,3.917-3.934,3.917h-3.795V421.883z
		 M738.295,427.286c1.549,0,2.013-0.631,2.013-1.879c0-1.222-0.644-1.859-1.896-1.859h-1.398v3.738H738.295z M737.014,433.582h1.551
		c1.32,0,2.063-0.726,2.063-2.31c0-1.515-0.687-2.349-2.331-2.349h-1.283V433.582z M752.465,428.443
		c0,4.764-1.242,6.994-4.252,6.994c-2.829,0-4.139-2.181-4.139-7.004c0-4.721,1.528-6.755,4.232-6.755
		C751.163,421.678,752.465,423.851,752.465,428.443z M746.202,428.408c0,3.382,0.578,5.276,2.063,5.276
		c1.553,0,2.071-1.783,2.071-5.264c0-3.366-0.556-4.975-2.077-4.975C746.764,423.445,746.202,425.211,746.202,428.408z
		 M755.337,435.219h-2.075l3.134-13.336h2.689l3.188,13.336h-2.182l-0.772-3.655h-3.216L755.337,435.219z M758.938,429.755
		c-0.593-2.8-1.025-4.74-1.224-5.941h-0.054c-0.169,1.205-0.634,3.344-1.181,5.941H758.938z M765.581,429.377v5.841h-2.061v-13.336
		h3.877c2.36,0,3.666,1.266,3.666,3.575c0,1.95-1.014,2.789-1.748,3.064c1.102,0.469,1.555,1.419,1.555,3.354v0.532
		c0,1.421,0.062,2.096,0.184,2.811h-2.018c-0.191-0.61-0.219-1.71-0.219-2.836v-0.474c0-1.823-0.401-2.531-2.009-2.531H765.581z
		 M765.581,427.679h1.319c1.504,0,2.085-0.722,2.085-2.138c0-1.214-0.573-1.96-1.882-1.96h-1.522V427.679z M772.99,421.883h3.3
		c3.31,0,4.657,2.181,4.657,6.368c0,4.511-1.268,6.968-4.853,6.968h-3.104V421.883z M775.078,433.507h0.979
		c2.062,0,2.749-1.585,2.749-5.232c0-3.229-0.687-4.652-2.729-4.652h-0.999V433.507z"/>
	<path clip-path="url(#SVGID_2_)" fill="#2A77BC" d="M465.435,313.424c0.112,1.196,0.629,2.211,1.932,2.211
		c1.251,0,1.778-0.746,1.778-1.924c0-1.2-0.549-1.875-2.279-2.704c-2.217-1.055-3.12-2.002-3.12-3.966
		c0-2.034,1.306-3.497,3.637-3.497c2.855,0,3.579,1.967,3.619,3.644h-2.033c-0.073-0.723-0.27-1.987-1.631-1.987
		c-1.061,0-1.525,0.704-1.525,1.665c0,1.068,0.477,1.57,2.076,2.319c2.372,1.108,3.371,2.195,3.371,4.343
		c0,2.098-1.26,3.764-3.954,3.764c-2.932,0-3.847-1.89-3.938-3.868H465.435z M479.394,310.991h-4.338v4.294h4.852l-0.262,1.795
		h-6.637v-13.336h6.593v1.822h-4.546v3.616h4.338V310.991z M481.415,317.08v-13.336h2.401c3.075,8.006,3.6,9.36,3.764,9.988h0.02
		c-0.106-1.667-0.118-3.645-0.118-5.824v-4.165h1.874v13.336h-2.301c-3.183-8.486-3.677-9.837-3.842-10.419h-0.02
		c0.099,1.651,0.104,3.69,0.104,6.083v4.336H481.415z M493.035,313.424c0.112,1.196,0.629,2.211,1.932,2.211
		c1.251,0,1.778-0.746,1.778-1.924c0-1.2-0.549-1.875-2.279-2.704c-2.217-1.055-3.121-2.002-3.121-3.966
		c0-2.034,1.306-3.497,3.637-3.497c2.855,0,3.58,1.967,3.619,3.644h-2.033c-0.073-0.723-0.27-1.987-1.631-1.987
		c-1.06,0-1.524,0.704-1.524,1.665c0,1.068,0.476,1.57,2.076,2.319c2.372,1.108,3.371,2.195,3.371,4.343
		c0,2.098-1.26,3.764-3.954,3.764c-2.932,0-3.847-1.89-3.938-3.868H493.035z M508.571,310.305c0,4.764-1.243,6.994-4.252,6.994
		c-2.829,0-4.139-2.181-4.139-7.004c0-4.721,1.528-6.755,4.233-6.755C507.27,303.54,508.571,305.712,508.571,310.305z
		 M502.308,310.27c0,3.382,0.578,5.276,2.064,5.276c1.552,0,2.072-1.783,2.072-5.264c0-3.366-0.557-4.975-2.078-4.975
		C502.87,305.307,502.308,307.072,502.308,310.27z M512.592,311.239v5.841h-2.061v-13.336h3.877c2.36,0,3.666,1.266,3.666,3.575
		c0,1.95-1.014,2.789-1.748,3.064c1.102,0.469,1.555,1.419,1.555,3.354v0.532c0,1.421,0.061,2.096,0.183,2.811h-2.018
		c-0.191-0.61-0.218-1.71-0.218-2.836v-0.474c0-1.823-0.402-2.531-2.009-2.531H512.592z M512.592,309.541h1.319
		c1.504,0,2.084-0.722,2.084-2.138c0-1.214-0.573-1.96-1.881-1.96h-1.522V309.541z"/>
	<g clip-path="url(#SVGID_2_)">
		<text transform="matrix(1 0 0 1 315.2495 255.0654)"><tspan x="0" y="0" fill="#2A77BC" font-family="'OCRAStd'" font-size="24.6082" letter-spacing="-1">3.3 </tspan><tspan x="66.047" y="0" fill="#2A77BC" font-family="'OCRAStd'" font-size="24.6082">V</tspan></text>
	</g>
	<g clip-path="url(#SVGID_2_)">
		<text transform="matrix(1 0 0 1 315.2495 286.0718)"><tspan x="0" y="0" fill="#2A77BC" font-family="'OCRAStd'" font-size="24.6082" letter-spacing="-1">GN</tspan><tspan x="33.023" y="0" fill="#2A77BC" font-family="'OCRAStd'" font-size="24.6082">D</tspan></text>
	</g>
	<g clip-path="url(#SVGID_2_)">
		<text transform="matrix(1 0 0 1 315.2495 348.0845)"><tspan x="0" y="0" fill="#2A77BC" font-family="'OCRAStd'" font-size="24.6082" letter-spacing="-1">4 (IO</tspan><tspan x="82.559" y="0" fill="#2A77BC" font-family="'OCRAStd'" font-size="24.6082">)</tspan></text>
	</g>
	<g clip-path="url(#SVGID_2_)">
		<text transform="matrix(1 0 0 1 315.2495 379.0908)"><tspan x="0" y="0" fill="#2A77BC" font-family="'OCRAStd'" font-size="24.6082" letter-spacing="-1">5 (PW</tspan><tspan x="82.559" y="0" fill="#2A77BC" font-family="'OCRAStd'" font-size="24.6082">)</tspan></text>
	</g>
	<g clip-path="url(#SVGID_2_)">
		<text transform="matrix(1 0 0 1 315.2495 410.0972)"><tspan x="0" y="0" fill="#2A77BC" font-family="'OCRAStd'" font-size="24.6082" letter-spacing="-1">10 (PW</tspan><tspan x="99.07" y="0" fill="#2A77BC" font-family="'OCRAStd'" font-size="24.6082">)</tspan></text>
	</g>
	<g clip-path="url(#SVGID_2_)">
		<text transform="matrix(1 0 0 1 315.2495 441.1035)"><tspan x="0" y="0" fill="#2A77BC" font-family="'OCRAStd'" font-size="24.6082" letter-spacing="-1">16 (PW</tspan><tspan x="99.07" y="0" fill="#2A77BC" font-family="'OCRAStd'" font-size="24.6082">)</tspan></text>
	</g>
	<g clip-path="url(#SVGID_2_)">
		<text transform="matrix(1 0 0 1 315.2495 472.1099)"><tspan x="0" y="0" fill="#2A77BC" font-family="'OCRAStd'" font-size="24.6082" letter-spacing="-1">14 (L</tspan><tspan x="82.559" y="0" fill="#2A77BC" font-family="'OCRAStd'" font-size="24.6082">)</tspan></text>
	</g>
	<g clip-path="url(#SVGID_2_)">
		<text transform="matrix(1 0 0 1 315.2495 503.1162)"><tspan x="0" y="0" fill="#2A77BC" font-family="'OCRAStd'" font-size="24.6082" letter-spacing="-1">12 (D</tspan><tspan x="82.559" y="0" fill="#2A77BC" font-family="'OCRAStd'" font-size="24.6082">)</tspan></text>
	</g>
	<g clip-path="url(#SVGID_2_)">
		<text transform="matrix(1 0 0 1 315.2495 534.1226)"><tspan x="0" y="0" fill="#2A77BC" font-family="'OCRAStd'" font-size="24.6082" letter-spacing="-1">13 (C</tspan><tspan x="82.559" y="0" fill="#2A77BC" font-family="'OCRAStd'" font-size="24.6082">)</tspan></text>
	</g>
	<g clip-path="url(#SVGID_2_)">
		<text transform="matrix(1 0 0 1 817.3057 235.3789)"><tspan x="0" y="0" fill="#2A77BC" font-family="'OCRAStd'" font-size="24.6082" letter-spacing="-1">S</tspan><tspan x="16.512" y="0" fill="#2A77BC" font-family="'OCRAStd'" font-size="24.6082">1</tspan></text>
	</g>
	<g clip-path="url(#SVGID_2_)">
		<text transform="matrix(1 0 0 1 817.3057 429.8086)"><tspan x="0" y="0" fill="#2A77BC" font-family="'OCRAStd'" font-size="24.6082" letter-spacing="-1">S</tspan><tspan x="16.512" y="0" fill="#2A77BC" font-family="'OCRAStd'" font-size="24.6082">3</tspan></text>
	</g>
	<g clip-path="url(#SVGID_2_)">
		<text transform="matrix(1 0 0 1 736.0986 365.8271)"><tspan x="0" y="0" fill="#2A77BC" font-family="'OCRAStd'" font-size="24.6082" letter-spacing="-1">S</tspan><tspan x="16.512" y="0" fill="#2A77BC" font-family="'OCRAStd'" font-size="24.6082">4</tspan></text>
	</g>
	<g clip-path="url(#SVGID_2_)">
		<text transform="matrix(1 0 0 1 898.5381 365.8271)"><tspan x="0" y="0" fill="#2A77BC" font-family="'OCRAStd'" font-size="24.6082" letter-spacing="-1">S</tspan><tspan x="16.512" y="0" fill="#2A77BC" font-family="'OCRAStd'" font-size="24.6082">2</tspan></text>
	</g>
	<g clip-path="url(#SVGID_2_)">
		<text transform="matrix(1 0 0 1 317.7075 565.1611)"><tspan x="0" y="0" fill="#2A77BC" font-family="'OCRAStd'" font-size="17.2257">0 (12C-D</tspan><tspan x="92.466" y="0" fill="#2A77BC" font-family="'OCRAStd'" font-size="17.2257">)</tspan></text>
	</g>
	<g clip-path="url(#SVGID_2_)">
		<text transform="matrix(1 0 0 1 317.7075 596.167)"><tspan x="0" y="0" fill="#2A77BC" font-family="'OCRAStd'" font-size="17.2257">2 (12C-D</tspan><tspan x="92.466" y="0" fill="#2A77BC" font-family="'OCRAStd'" font-size="17.2257">)</tspan></text>
	</g>
	<g clip-path="url(#SVGID_2_)">
		<text transform="matrix(1 0 0 1 250.8374 631.6172)"><tspan x="0" y="0" fill="#2A77BC" font-family="'OCRAStd'" font-size="17.2257">V + GN</tspan><tspan x="69.349" y="0" fill="#2A77BC" font-family="'OCRAStd'" font-size="17.2257">D</tspan></text>
	</g>
	<g clip-path="url(#SVGID_2_)">
		<text transform="matrix(1 0 0 1 253.7144 700.5205)"><tspan x="0" y="0" fill="#2A77BC" font-family="'OCRAStd'" font-size="17.2257">C</tspan><tspan x="11.558" y="0" fill="#2A77BC" font-family="'OCRAStd'" font-size="17.2257">K</tspan></text>
	</g>
	<g clip-path="url(#SVGID_2_)">
		<text transform="matrix(1 0 0 1 352.1592 700.5205)"><tspan x="0" y="0" fill="#2A77BC" font-family="'OCRAStd'" font-size="17.2257">C</tspan><tspan x="11.558" y="0" fill="#2A77BC" font-family="'OCRAStd'" font-size="17.2257">O</tspan></text>
	</g>
	<g clip-path="url(#SVGID_2_)">
		<text transform="matrix(1 0 0 1 320.1709 700.5205)"><tspan x="0" y="0" fill="#2A77BC" font-family="'OCRAStd'" font-size="17.2257">M</tspan><tspan x="11.558" y="0" fill="#2A77BC" font-family="'OCRAStd'" font-size="17.2257">I</tspan></text>
	</g>
	<g clip-path="url(#SVGID_2_)">
		<text transform="matrix(1 0 0 1 288.1826 700.5205)"><tspan x="0" y="0" fill="#2A77BC" font-family="'OCRAStd'" font-size="17.2257">M</tspan><tspan x="11.558" y="0" fill="#2A77BC" font-family="'OCRAStd'" font-size="17.2257">O</tspan></text>
	</g>
	<g clip-path="url(#SVGID_2_)">
		<defs>
			<rect id="SVGID_9_" width="1210" height="1178"/>
		</defs>
		<clipPath id="SVGID_10_">
			<use xlink:href="#SVGID_9_"  overflow="visible"/>
		</clipPath>
		
			<rect x="931.433" y="543.035" clip-path="url(#SVGID_10_)" fill="none" stroke="#2C77BC" stroke-width="7.153" stroke-miterlimit="10" width="31.323" height="73.709"/>
		
			<rect x="962.755" y="549.798" clip-path="url(#SVGID_10_)" fill-rule="evenodd" clip-rule="evenodd" fill="#2C77BC" width="13.146" height="13.145"/>
	</g>
	<g clip-path="url(#SVGID_2_)">
		<text transform="matrix(1 0 0 1 947.1064 646.7461)" fill="#2C77BC" font-family="'Nunito-ExtraBold'" font-size="34.3303">0</text>
	</g>
	<g clip-path="url(#SVGID_2_)">
		<text transform="matrix(1 0 0 1 947.1064 527.688)" fill="#2C77BC" font-family="'Nunito-ExtraBold'" font-size="34.3303">1</text>
	</g>
	<g clip-path="url(#SVGID_2_)">
		<defs>
			<rect id="SVGID_11_" width="1210" height="1178"/>
		</defs>
		<clipPath id="SVGID_12_">
			<use xlink:href="#SVGID_11_"  overflow="visible"/>
		</clipPath>
		<path clip-path="url(#SVGID_12_)" fill="none" stroke="#2A77BC" stroke-width="3.042" stroke-miterlimit="10" d="M275.618,223.391
			h130.029c20.077,0,36.505,16.427,36.505,36.505v310.919c0,20.079-16.428,36.505-36.505,36.505H275.618"/>
		<rect x="303.102" y="289.841" clip-path="url(#SVGID_12_)" fill="#2A77BC" width="137.82" height="31.994"/>
	</g>
	<g clip-path="url(#SVGID_2_)">
		<text transform="matrix(1 0 0 1 354.6245 316.5933)"><tspan x="0" y="0" fill="#FFFFFF" font-family="'OCRAStd'" font-size="26.2601" letter-spacing="-1">A</tspan><tspan x="17.62" y="0" fill="#FFFFFF" font-family="'OCRAStd'" font-size="26.2601">O</tspan></text>
	</g>
	
		<line clip-path="url(#SVGID_2_)" fill="none" stroke="#2A77BC" stroke-width="2.461" stroke-miterlimit="10" x1="301.87" y1="446.119" x2="442.152" y2="446.119"/>
	
		<line clip-path="url(#SVGID_2_)" fill="none" stroke="#2A77BC" stroke-width="2.461" stroke-miterlimit="10" x1="301.87" y1="538.41" x2="442.152" y2="538.41"/>
	<path clip-path="url(#SVGID_2_)" fill="none" stroke="#2C77BC" stroke-width="7.153" stroke-miterlimit="10" d="M520.807,270.395
		c0-10.36-5.369-19.516-13.455-24.854h-32.643c-8.085,5.338-13.455,14.494-13.455,24.854c0,9.321,4.349,17.667,11.108,23.137h37.339
		C516.458,288.062,520.807,279.716,520.807,270.395z"/>
	<g clip-path="url(#SVGID_2_)">
		<g>
			<defs>
				<rect id="SVGID_13_" x="480.5" y="838.618" width="245" height="73.882"/>
			</defs>
			<clipPath id="SVGID_14_">
				<use xlink:href="#SVGID_13_"  overflow="visible"/>
			</clipPath>
			
				<rect x="482.5" y="840.618" clip-path="url(#SVGID_14_)" fill-rule="evenodd" clip-rule="evenodd" fill="#FFEAB6" width="241" height="69.882"/>
			
				<rect x="482.5" y="840.618" clip-path="url(#SVGID_14_)" fill="none" stroke="#FF9425" stroke-width="4" stroke-miterlimit="10" width="241" height="69.882"/>
		</g>
	</g>
	<rect clip-path="url(#SVGID_2_)" fill="none" width="1210" height="1178"/>
	<g clip-path="url(#SVGID_2_)">
		<path fill="#00426B" d="M522.584,878.728c0.805,1.085,1.207,2.42,1.207,4.005c0,1.414-0.372,2.651-1.115,3.712
			c-0.744,1.061-1.805,1.884-3.182,2.469s-2.993,0.878-4.846,0.878h-12.837v-25.784h12.471c2.707,0,4.858,0.604,6.455,1.811
			c1.597,1.207,2.396,2.835,2.396,4.883c0,1.316-0.354,2.481-1.061,3.492c-0.708,1.013-1.695,1.75-2.962,2.213
			C520.621,876.869,521.78,877.644,522.584,878.728z M508.357,874.138h4.791c1.268,0,2.194-0.194,2.779-0.585
			c0.585-0.39,0.878-1.012,0.878-1.865c0-0.901-0.292-1.56-0.878-1.975c-0.585-0.415-1.512-0.622-2.779-0.622h-4.791V874.138z
			 M516.678,884.067c0.573-0.427,0.859-1.128,0.859-2.103c0-0.976-0.287-1.677-0.859-2.104c-0.573-0.426-1.53-0.64-2.871-0.64
			h-5.449v5.485h5.449C515.147,884.707,516.104,884.494,516.678,884.067z"/>
		<path fill="#00426B" d="M540.651,876.661l-3.547,0.366c-1.415,0.146-2.402,0.524-2.962,1.134
			c-0.561,0.609-0.841,1.476-0.841,2.597v9.033h-6.51v-17.994h6.181v3.109c0.415-1.098,1.097-1.933,2.048-2.506
			c0.951-0.572,2.108-0.896,3.474-0.969l1.792-0.146L540.651,876.661z"/>
		<path fill="#00426B" d="M558.388,882.038H547.27c0.195,1.17,0.622,2.011,1.28,2.523c0.658,0.512,1.596,0.768,2.816,0.768
			c0.878,0,1.768-0.146,2.67-0.438c0.901-0.293,1.706-0.695,2.414-1.207l1.646,4.278c-0.902,0.659-1.988,1.177-3.255,1.555
			s-2.536,0.567-3.803,0.567c-2.073,0-3.865-0.378-5.376-1.134s-2.676-1.841-3.493-3.255s-1.225-3.072-1.225-4.975
			c0-1.804,0.384-3.419,1.152-4.846c0.768-1.426,1.84-2.535,3.218-3.328c1.377-0.792,2.932-1.188,4.663-1.188
			c2.584,0,4.632,0.823,6.144,2.469c1.512,1.646,2.268,3.895,2.268,6.747V882.038z M547.197,878.966h5.742
			c-0.146-2.146-1.073-3.219-2.78-3.219C548.428,875.747,547.44,876.82,547.197,878.966z"/>
		<path fill="#00426B" d="M575.851,873.315c1.353,1.305,2.03,3.334,2.03,6.089v10.387h-6.107v-2.523
			c-0.342,0.878-0.915,1.566-1.719,2.066c-0.805,0.499-1.768,0.75-2.889,0.75c-1.244,0-2.365-0.251-3.365-0.75
			c-1-0.5-1.786-1.194-2.359-2.085c-0.573-0.89-0.859-1.896-0.859-3.017c0-1.293,0.335-2.323,1.006-3.091
			c0.67-0.768,1.737-1.322,3.2-1.664c1.463-0.341,3.438-0.512,5.924-0.512h0.988v-0.439c0-0.901-0.208-1.529-0.622-1.883
			s-1.146-0.53-2.194-0.53c-0.829,0-1.786,0.164-2.871,0.493c-1.085,0.329-2.103,0.75-3.054,1.262l-1.646-4.279
			c1.048-0.633,2.359-1.164,3.932-1.591c1.573-0.426,3.017-0.64,4.334-0.64C572.407,871.358,574.498,872.011,575.851,873.315z
			 M570.859,884.799c0.561-0.622,0.841-1.42,0.841-2.396v-0.438h-0.585c-1.561,0-2.669,0.141-3.328,0.42
			c-0.658,0.281-0.987,0.75-0.987,1.408c0,0.562,0.177,1.024,0.53,1.39c0.353,0.366,0.811,0.549,1.372,0.549
			C569.579,885.731,570.298,885.421,570.859,884.799z"/>
		<path fill="#00426B" d="M600.592,864.007v25.784h-6.4v-2.45c-0.512,0.854-1.262,1.523-2.25,2.012
			c-0.987,0.487-2.079,0.731-3.273,0.731c-1.536,0-2.908-0.396-4.115-1.189c-1.207-0.792-2.152-1.907-2.834-3.346
			s-1.024-3.084-1.024-4.938c0-1.853,0.335-3.48,1.006-4.883c0.67-1.401,1.609-2.48,2.816-3.236c1.207-0.756,2.59-1.134,4.151-1.134
			c1.146,0,2.2,0.232,3.163,0.695c0.963,0.463,1.713,1.085,2.25,1.865v-9.912H600.592z M593.278,884.049
			c0.609-0.779,0.915-1.901,0.915-3.364c0-1.438-0.305-2.542-0.915-3.31c-0.61-0.769-1.487-1.152-2.633-1.152
			c-1.122,0-1.987,0.378-2.597,1.134c-0.61,0.756-0.914,1.841-0.914,3.255c0,1.463,0.311,2.597,0.933,3.401
			c0.622,0.805,1.481,1.207,2.578,1.207C591.791,885.22,592.668,884.83,593.278,884.049z"/>
		<path fill="#00426B" d="M620.451,872.492c1.194,0.756,2.127,1.835,2.798,3.236c0.671,1.402,1.006,3.03,1.006,4.883
			c0,1.854-0.335,3.499-1.006,4.938s-1.609,2.554-2.816,3.346c-1.206,0.793-2.578,1.189-4.114,1.189
			c-1.194,0-2.285-0.244-3.273-0.731c-0.987-0.488-1.736-1.158-2.249-2.012v2.45h-6.4v-25.784h6.511v9.912
			c0.535-0.78,1.285-1.402,2.249-1.865c0.963-0.463,2.017-0.695,3.163-0.695C617.879,871.358,619.257,871.736,620.451,872.492z
			 M616.903,884.031c0.609-0.792,0.915-1.933,0.915-3.42c0-1.414-0.299-2.499-0.896-3.255s-1.457-1.134-2.578-1.134
			c-1.146,0-2.024,0.384-2.633,1.152c-0.61,0.768-0.915,1.871-0.915,3.31c0,1.463,0.305,2.585,0.915,3.364
			c0.608,0.781,1.475,1.171,2.596,1.171C615.429,885.22,616.294,884.823,616.903,884.031z"/>
		<path fill="#00426B" d="M631.111,888.932c-1.499-0.769-2.657-1.859-3.474-3.273c-0.817-1.414-1.226-3.072-1.226-4.974
			c0-1.902,0.408-3.554,1.226-4.956c0.816-1.401,1.969-2.48,3.456-3.236c1.486-0.756,3.23-1.134,5.229-1.134s3.742,0.378,5.23,1.134
			c1.486,0.756,2.639,1.835,3.456,3.236c0.816,1.402,1.225,3.054,1.225,4.956c0,1.901-0.408,3.56-1.225,4.974
			c-0.817,1.414-1.97,2.505-3.456,3.273c-1.488,0.768-3.231,1.152-5.23,1.152C634.349,890.084,632.611,889.699,631.111,888.932z
			 M639.798,880.685c0-3.023-1.158-4.535-3.475-4.535s-3.475,1.512-3.475,4.535s1.158,4.535,3.475,4.535
			S639.798,883.708,639.798,880.685z"/>
		<path fill="#00426B" d="M663.698,873.315c1.353,1.305,2.029,3.334,2.029,6.089v10.387h-6.107v-2.523
			c-0.342,0.878-0.914,1.566-1.719,2.066c-0.805,0.499-1.769,0.75-2.89,0.75c-1.243,0-2.365-0.251-3.364-0.75
			c-1-0.5-1.787-1.194-2.359-2.085c-0.573-0.89-0.859-1.896-0.859-3.017c0-1.293,0.335-2.323,1.006-3.091
			c0.67-0.768,1.737-1.322,3.2-1.664c1.463-0.341,3.438-0.512,5.925-0.512h0.987v-0.439c0-0.901-0.208-1.529-0.622-1.883
			c-0.415-0.354-1.146-0.53-2.194-0.53c-0.829,0-1.786,0.164-2.871,0.493s-2.103,0.75-3.054,1.262l-1.646-4.279
			c1.048-0.633,2.359-1.164,3.932-1.591c1.572-0.426,3.018-0.64,4.334-0.64C660.254,871.358,662.345,872.011,663.698,873.315z
			 M658.706,884.799c0.561-0.622,0.841-1.42,0.841-2.396v-0.438h-0.585c-1.561,0-2.67,0.141-3.328,0.42
			c-0.658,0.281-0.987,0.75-0.987,1.408c0,0.562,0.176,1.024,0.53,1.39c0.353,0.366,0.81,0.549,1.371,0.549
			C657.426,885.731,658.145,885.421,658.706,884.799z"/>
		<path fill="#00426B" d="M683.245,876.661l-3.548,0.366c-1.414,0.146-2.401,0.524-2.962,1.134
			c-0.562,0.609-0.841,1.476-0.841,2.597v9.033h-6.511v-17.994h6.182v3.109c0.414-1.098,1.097-1.933,2.048-2.506
			c0.95-0.572,2.108-0.896,3.475-0.969l1.792-0.146L683.245,876.661z"/>
		<path fill="#00426B" d="M703.434,864.007v25.784h-6.4v-2.45c-0.512,0.854-1.262,1.523-2.249,2.012
			c-0.987,0.487-2.079,0.731-3.273,0.731c-1.536,0-2.907-0.396-4.114-1.189c-1.207-0.792-2.152-1.907-2.834-3.346
			c-0.684-1.438-1.024-3.084-1.024-4.938c0-1.853,0.335-3.48,1.006-4.883c0.67-1.401,1.609-2.48,2.816-3.236
			c1.206-0.756,2.59-1.134,4.15-1.134c1.146,0,2.2,0.232,3.164,0.695c0.963,0.463,1.712,1.085,2.249,1.865v-9.912H703.434z
			 M696.119,884.049c0.609-0.779,0.914-1.901,0.914-3.364c0-1.438-0.305-2.542-0.914-3.31c-0.609-0.769-1.487-1.152-2.633-1.152
			c-1.122,0-1.988,0.378-2.597,1.134c-0.61,0.756-0.915,1.841-0.915,3.255c0,1.463,0.312,2.597,0.933,3.401
			c0.622,0.805,1.481,1.207,2.579,1.207C694.632,885.22,695.51,884.83,696.119,884.049z"/>
	</g>
</g>
</svg>
