<?xml version="1.0" encoding="utf-8"?>
<!-- Generator: Adobe Illustrator 16.0.0, SVG Export Plug-In . SVG Version: 6.00 Build 0)  -->
<!DOCTYPE svg PUBLIC "-//W3C//DTD SVG 1.1//EN" "http://www.w3.org/Graphics/SVG/1.1/DTD/svg11.dtd">
<svg version="1.1" id="Layer_1" xmlns="http://www.w3.org/2000/svg" xmlns:xlink="http://www.w3.org/1999/xlink" x="0px" y="0px"
	 width="1210px" height="1178px" viewBox="0 0 1210 1178" enable-background="new 0 0 1210 1178" xml:space="preserve">
<g>
	<defs>
		<rect id="SVGID_1_" width="1210" height="1178"/>
	</defs>
	<clipPath id="SVGID_2_">
		<use xlink:href="#SVGID_1_"  overflow="visible"/>
	</clipPath>
	<g clip-path="url(#SVGID_2_)">
		<defs>
			<rect id="SVGID_3_" y="0.001" width="1210" height="1177.999"/>
		</defs>
		<clipPath id="SVGID_4_">
			<use xlink:href="#SVGID_3_"  overflow="visible"/>
		</clipPath>
	</g>
	<g clip-path="url(#SVGID_2_)">
		<defs>
			<rect id="SVGID_5_" width="1210" height="1178"/>
		</defs>
		<clipPath id="SVGID_6_">
			<use xlink:href="#SVGID_5_"  overflow="visible"/>
		</clipPath>
		<path clip-path="url(#SVGID_6_)" fill="#FF9425" d="M360.444,202.563c0-28.711-22.951-52.068-51.161-52.068
			s-51.161,23.357-51.161,52.068c0,28.211,22.951,51.161,51.161,51.161S360.444,230.773,360.444,202.563 M309.283,233.004
			c-16.786,0-30.443-13.657-30.443-30.442c0-16.993,13.942-31.349,30.443-31.349s30.442,14.355,30.442,31.349
			C339.725,219.348,326.069,233.004,309.283,233.004"/>
		<path clip-path="url(#SVGID_6_)" fill="#FF9425" d="M190.119,324.968v81.604c0,20.711,16.849,37.56,37.561,37.56
			c4.294,0,8.505-0.721,12.517-2.143l4.324-1.534v130.23c0,20.71,16.85,37.56,37.561,37.56c9.247,0,18.139-3.403,25.038-9.586
			l2.163-1.939l2.163,1.939c6.899,6.183,15.791,9.586,25.038,9.586c20.711,0,37.561-16.85,37.561-37.56V386.072l4.318,1.524
			c9.546,3.366,20.235,2.699,29.326-1.831l46.474-23.237h156.146c20.711,0,37.561-16.85,37.561-37.56V188.055
			c0-20.711-16.85-37.56-37.561-37.56H418.087c-20.712,0-37.561,16.849-37.561,37.56v100.64l-17.486-17.485
			c-7.095-7.097-16.526-11.004-26.557-11.004h-27.201h-54.402C219.17,260.206,190.119,289.258,190.119,324.968 M401.246,188.055
			c0-9.286,7.555-16.842,16.842-16.842h192.221c9.286,0,16.842,7.556,16.842,16.842v136.913c0,9.286-7.556,16.841-16.842,16.841
			H479.167l1.758-4.959c1.798-5.398,2.356-10.958,1.657-16.528l-0.287-2.275l76.43-38.216c2.475-1.238,4.32-3.365,5.195-5.99
			s0.676-5.433-0.562-7.909c-1.238-2.475-3.365-4.32-5.991-5.195s-5.433-0.675-7.907,0.563l-76.427,38.213l-1.65-1.596
			c-11.416-11.044-28.654-13.675-42.893-6.548l-27.245,13.622V188.055z M336.483,280.925c4.497,0,8.725,1.752,11.907,4.935
			l40.536,40.535c3.156,3.158,7.962,3.938,11.958,1.941l36.874-18.438c4.036-2.019,8.607-2.347,12.87-0.923
			c4.257,1.422,7.711,4.427,9.726,8.46c2.013,4.028,2.339,8.595,0.918,12.861c-1.422,4.265-4.423,7.723-8.452,9.737l-54.385,27.194
			c-6.511,3.243-14.329,1.976-19.457-3.152l-7.967-7.968c-3.596-3.595-8.212-3.504-11.332-2.215c-3.966,1.635-6.34,5.19-6.353,9.508
			l-0.002,0.147v207.137c0,9.287-7.555,16.842-16.841,16.842c-9.287,0-16.843-7.555-16.843-16.842V433.771
			c0-5.712-4.647-10.358-10.359-10.358s-10.359,4.646-10.359,10.358v136.913c0,9.287-7.555,16.842-16.842,16.842
			c-9.286,0-16.842-7.555-16.842-16.842V324.968c0-5.712-4.647-10.36-10.359-10.36c-5.712,0-10.359,4.648-10.359,10.36v81.604
			c0,9.286-7.556,16.842-16.842,16.842c-9.287,0-16.842-7.556-16.842-16.842l0.001-81.604c0-24.286,19.758-44.043,44.043-44.043
			H336.483z"/>
		<path clip-path="url(#SVGID_6_)" fill="none" stroke="#2C77BC" stroke-width="4.455" stroke-miterlimit="10" d="M903.059,910.934
			H571.215c-41.093,0-74.715-33.622-74.715-74.716V548.27c0-41.094,33.622-74.716,74.715-74.716h331.843
			c41.093,0,74.715,33.622,74.715,74.716v287.948C977.773,877.312,944.151,910.934,903.059,910.934z"/>
		<polygon clip-path="url(#SVGID_6_)" fill="none" stroke="#2C77BC" stroke-width="4.455" stroke-miterlimit="10" points="
			670.412,696.33 670.412,680.171 857.486,681.494 857.486,696.33 881.524,696.33 881.524,819.412 858.532,819.412 858.532,835.089 
			670.412,835.089 670.412,821.502 646.374,821.502 646.374,696.33 		"/>
		<path clip-path="url(#SVGID_6_)" fill-rule="evenodd" clip-rule="evenodd" fill="#2C77BC" d="M670.739,718.843
			c0,1.995-1.617,3.612-3.612,3.612s-3.612-1.617-3.612-3.612s1.617-3.611,3.612-3.611S670.739,716.848,670.739,718.843"/>
		<path clip-path="url(#SVGID_6_)" fill-rule="evenodd" clip-rule="evenodd" fill="#2C77BC" d="M690.248,718.843
			c0,1.995-1.617,3.612-3.612,3.612s-3.612-1.617-3.612-3.612s1.617-3.611,3.612-3.611S690.248,716.848,690.248,718.843"/>
		<path clip-path="url(#SVGID_6_)" fill-rule="evenodd" clip-rule="evenodd" fill="#2C77BC" d="M709.756,718.843
			c0,1.995-1.616,3.612-3.611,3.612s-3.612-1.617-3.612-3.612s1.617-3.611,3.612-3.611S709.756,716.848,709.756,718.843"/>
		<path clip-path="url(#SVGID_6_)" fill-rule="evenodd" clip-rule="evenodd" fill="#2C77BC" d="M729.265,718.843
			c0,1.995-1.616,3.612-3.611,3.612s-3.612-1.617-3.612-3.612s1.617-3.611,3.612-3.611S729.265,716.848,729.265,718.843"/>
		<path clip-path="url(#SVGID_6_)" fill-rule="evenodd" clip-rule="evenodd" fill="#2C77BC" d="M748.773,718.843
			c0,1.995-1.616,3.612-3.611,3.612s-3.612-1.617-3.612-3.612s1.617-3.611,3.612-3.611S748.773,716.848,748.773,718.843"/>
		<path clip-path="url(#SVGID_6_)" fill-rule="evenodd" clip-rule="evenodd" fill="#2C77BC" d="M768.283,718.843
			c0,1.995-1.617,3.612-3.612,3.612s-3.612-1.617-3.612-3.612s1.617-3.611,3.612-3.611S768.283,716.848,768.283,718.843"/>
		<path clip-path="url(#SVGID_6_)" fill-rule="evenodd" clip-rule="evenodd" fill="#2C77BC" d="M787.791,718.843
			c0,1.995-1.617,3.612-3.611,3.612c-1.995,0-3.612-1.617-3.612-3.612s1.617-3.611,3.612-3.611
			C786.174,715.231,787.791,716.848,787.791,718.843"/>
		<path clip-path="url(#SVGID_6_)" fill-rule="evenodd" clip-rule="evenodd" fill="#2C77BC" d="M807.3,718.843
			c0,1.995-1.617,3.612-3.612,3.612c-1.994,0-3.611-1.617-3.611-3.612s1.617-3.611,3.611-3.611
			C805.683,715.231,807.3,716.848,807.3,718.843"/>
		<path clip-path="url(#SVGID_6_)" fill-rule="evenodd" clip-rule="evenodd" fill="#2C77BC" d="M826.809,718.843
			c0,1.995-1.617,3.612-3.612,3.612c-1.994,0-3.611-1.617-3.611-3.612s1.617-3.611,3.611-3.611
			C825.191,715.231,826.809,716.848,826.809,718.843"/>
		<path clip-path="url(#SVGID_6_)" fill-rule="evenodd" clip-rule="evenodd" fill="#2C77BC" d="M846.317,718.843
			c0,1.995-1.617,3.612-3.612,3.612s-3.611-1.617-3.611-3.612s1.616-3.611,3.611-3.611S846.317,716.848,846.317,718.843"/>
		<path clip-path="url(#SVGID_6_)" fill-rule="evenodd" clip-rule="evenodd" fill="#2C77BC" d="M865.826,718.843
			c0,1.995-1.617,3.612-3.612,3.612s-3.611-1.617-3.611-3.612s1.616-3.611,3.611-3.611S865.826,716.848,865.826,718.843"/>
		<path clip-path="url(#SVGID_6_)" fill-rule="evenodd" clip-rule="evenodd" fill="#2C77BC" d="M670.739,738.59
			c0,1.995-1.617,3.612-3.612,3.612s-3.612-1.617-3.612-3.612s1.617-3.612,3.612-3.612S670.739,736.595,670.739,738.59"/>
		<path clip-path="url(#SVGID_6_)" fill-rule="evenodd" clip-rule="evenodd" fill="#2C77BC" d="M690.248,738.59
			c0,1.995-1.617,3.612-3.612,3.612s-3.612-1.617-3.612-3.612s1.617-3.612,3.612-3.612S690.248,736.595,690.248,738.59"/>
		<path clip-path="url(#SVGID_6_)" fill-rule="evenodd" clip-rule="evenodd" fill="#2C77BC" d="M709.756,738.59
			c0,1.995-1.616,3.612-3.611,3.612s-3.612-1.617-3.612-3.612s1.617-3.612,3.612-3.612S709.756,736.595,709.756,738.59"/>
		<path clip-path="url(#SVGID_6_)" fill-rule="evenodd" clip-rule="evenodd" fill="#2C77BC" d="M729.265,738.59
			c0,1.995-1.616,3.612-3.611,3.612s-3.612-1.617-3.612-3.612s1.617-3.612,3.612-3.612S729.265,736.595,729.265,738.59"/>
		<path clip-path="url(#SVGID_6_)" fill-rule="evenodd" clip-rule="evenodd" fill="#2C77BC" d="M748.773,738.59
			c0,1.995-1.616,3.612-3.611,3.612s-3.612-1.617-3.612-3.612s1.617-3.612,3.612-3.612S748.773,736.595,748.773,738.59"/>
		<path clip-path="url(#SVGID_6_)" fill-rule="evenodd" clip-rule="evenodd" fill="#2C77BC" d="M768.283,738.59
			c0,1.995-1.617,3.612-3.612,3.612s-3.612-1.617-3.612-3.612s1.617-3.612,3.612-3.612S768.283,736.595,768.283,738.59"/>
		<path clip-path="url(#SVGID_6_)" fill-rule="evenodd" clip-rule="evenodd" fill="#2C77BC" d="M787.791,738.59
			c0,1.995-1.617,3.612-3.611,3.612c-1.995,0-3.612-1.617-3.612-3.612s1.617-3.612,3.612-3.612
			C786.174,734.978,787.791,736.595,787.791,738.59"/>
		<path clip-path="url(#SVGID_6_)" fill-rule="evenodd" clip-rule="evenodd" fill="#2C77BC" d="M807.3,738.59
			c0,1.995-1.617,3.612-3.612,3.612c-1.994,0-3.611-1.617-3.611-3.612s1.617-3.612,3.611-3.612
			C805.683,734.978,807.3,736.595,807.3,738.59"/>
		<path clip-path="url(#SVGID_6_)" fill-rule="evenodd" clip-rule="evenodd" fill="#2C77BC" d="M826.809,738.59
			c0,1.995-1.617,3.612-3.612,3.612c-1.994,0-3.611-1.617-3.611-3.612s1.617-3.612,3.611-3.612
			C825.191,734.978,826.809,736.595,826.809,738.59"/>
		<path clip-path="url(#SVGID_6_)" fill-rule="evenodd" clip-rule="evenodd" fill="#2C77BC" d="M846.317,738.59
			c0,1.995-1.617,3.612-3.612,3.612s-3.611-1.617-3.611-3.612s1.616-3.612,3.611-3.612S846.317,736.595,846.317,738.59"/>
		<path clip-path="url(#SVGID_6_)" fill-rule="evenodd" clip-rule="evenodd" fill="#2C77BC" d="M865.826,738.59
			c0,1.995-1.617,3.612-3.612,3.612s-3.611-1.617-3.611-3.612s1.616-3.612,3.611-3.612S865.826,736.595,865.826,738.59"/>
		<path clip-path="url(#SVGID_6_)" fill-rule="evenodd" clip-rule="evenodd" fill="#2C77BC" d="M670.739,758.337
			c0,1.995-1.617,3.612-3.612,3.612s-3.612-1.617-3.612-3.612s1.617-3.612,3.612-3.612S670.739,756.342,670.739,758.337"/>
		<path clip-path="url(#SVGID_6_)" fill-rule="evenodd" clip-rule="evenodd" fill="#2C77BC" d="M690.248,758.337
			c0,1.995-1.617,3.612-3.612,3.612s-3.612-1.617-3.612-3.612s1.617-3.612,3.612-3.612S690.248,756.342,690.248,758.337"/>
		<path clip-path="url(#SVGID_6_)" fill-rule="evenodd" clip-rule="evenodd" fill="#2C77BC" d="M709.756,758.337
			c0,1.995-1.616,3.612-3.611,3.612s-3.612-1.617-3.612-3.612s1.617-3.612,3.612-3.612S709.756,756.342,709.756,758.337"/>
		<path clip-path="url(#SVGID_6_)" fill-rule="evenodd" clip-rule="evenodd" fill="#2C77BC" d="M729.265,758.337
			c0,1.995-1.616,3.612-3.611,3.612s-3.612-1.617-3.612-3.612s1.617-3.612,3.612-3.612S729.265,756.342,729.265,758.337"/>
		<path clip-path="url(#SVGID_6_)" fill-rule="evenodd" clip-rule="evenodd" fill="#2C77BC" d="M748.773,758.337
			c0,1.995-1.616,3.612-3.611,3.612s-3.612-1.617-3.612-3.612s1.617-3.612,3.612-3.612S748.773,756.342,748.773,758.337"/>
		<path clip-path="url(#SVGID_6_)" fill-rule="evenodd" clip-rule="evenodd" fill="#2C77BC" d="M768.283,758.337
			c0,1.995-1.617,3.612-3.612,3.612s-3.612-1.617-3.612-3.612s1.617-3.612,3.612-3.612S768.283,756.342,768.283,758.337"/>
		<path clip-path="url(#SVGID_6_)" fill-rule="evenodd" clip-rule="evenodd" fill="#2C77BC" d="M787.791,758.337
			c0,1.995-1.617,3.612-3.611,3.612c-1.995,0-3.612-1.617-3.612-3.612s1.617-3.612,3.612-3.612
			C786.174,754.725,787.791,756.342,787.791,758.337"/>
		<path clip-path="url(#SVGID_6_)" fill-rule="evenodd" clip-rule="evenodd" fill="#2C77BC" d="M807.3,758.337
			c0,1.995-1.617,3.612-3.612,3.612c-1.994,0-3.611-1.617-3.611-3.612s1.617-3.612,3.611-3.612
			C805.683,754.725,807.3,756.342,807.3,758.337"/>
		<path clip-path="url(#SVGID_6_)" fill-rule="evenodd" clip-rule="evenodd" fill="#2C77BC" d="M826.809,758.337
			c0,1.995-1.617,3.612-3.612,3.612c-1.994,0-3.611-1.617-3.611-3.612s1.617-3.612,3.611-3.612
			C825.191,754.725,826.809,756.342,826.809,758.337"/>
		<path clip-path="url(#SVGID_6_)" fill-rule="evenodd" clip-rule="evenodd" fill="#2C77BC" d="M846.317,758.337
			c0,1.995-1.617,3.612-3.612,3.612s-3.611-1.617-3.611-3.612s1.616-3.612,3.611-3.612S846.317,756.342,846.317,758.337"/>
		<path clip-path="url(#SVGID_6_)" fill-rule="evenodd" clip-rule="evenodd" fill="#2C77BC" d="M865.826,758.337
			c0,1.995-1.617,3.612-3.612,3.612s-3.611-1.617-3.611-3.612s1.616-3.612,3.611-3.612S865.826,756.342,865.826,758.337"/>
		<path clip-path="url(#SVGID_6_)" fill-rule="evenodd" clip-rule="evenodd" fill="#2C77BC" d="M670.739,778.084
			c0,1.995-1.617,3.611-3.612,3.611s-3.612-1.616-3.612-3.611s1.617-3.612,3.612-3.612S670.739,776.089,670.739,778.084"/>
		<path clip-path="url(#SVGID_6_)" fill-rule="evenodd" clip-rule="evenodd" fill="#2C77BC" d="M690.248,778.084
			c0,1.995-1.617,3.611-3.612,3.611s-3.612-1.616-3.612-3.611s1.617-3.612,3.612-3.612S690.248,776.089,690.248,778.084"/>
		<path clip-path="url(#SVGID_6_)" fill-rule="evenodd" clip-rule="evenodd" fill="#2C77BC" d="M709.756,778.084
			c0,1.995-1.616,3.611-3.611,3.611s-3.612-1.616-3.612-3.611s1.617-3.612,3.612-3.612S709.756,776.089,709.756,778.084"/>
		<path clip-path="url(#SVGID_6_)" fill-rule="evenodd" clip-rule="evenodd" fill="#2C77BC" d="M729.265,778.084
			c0,1.995-1.616,3.611-3.611,3.611s-3.612-1.616-3.612-3.611s1.617-3.612,3.612-3.612S729.265,776.089,729.265,778.084"/>
		<path clip-path="url(#SVGID_6_)" fill-rule="evenodd" clip-rule="evenodd" fill="#2C77BC" d="M748.773,778.084
			c0,1.995-1.616,3.611-3.611,3.611s-3.612-1.616-3.612-3.611s1.617-3.612,3.612-3.612S748.773,776.089,748.773,778.084"/>
		<path clip-path="url(#SVGID_6_)" fill-rule="evenodd" clip-rule="evenodd" fill="#2C77BC" d="M768.283,778.084
			c0,1.995-1.617,3.611-3.612,3.611s-3.612-1.616-3.612-3.611s1.617-3.612,3.612-3.612S768.283,776.089,768.283,778.084"/>
		<path clip-path="url(#SVGID_6_)" fill-rule="evenodd" clip-rule="evenodd" fill="#2C77BC" d="M787.791,778.084
			c0,1.995-1.617,3.611-3.611,3.611c-1.995,0-3.612-1.616-3.612-3.611s1.617-3.612,3.612-3.612
			C786.174,774.472,787.791,776.089,787.791,778.084"/>
		<path clip-path="url(#SVGID_6_)" fill-rule="evenodd" clip-rule="evenodd" fill="#2C77BC" d="M807.3,778.084
			c0,1.995-1.617,3.611-3.612,3.611c-1.994,0-3.611-1.616-3.611-3.611s1.617-3.612,3.611-3.612
			C805.683,774.472,807.3,776.089,807.3,778.084"/>
		<path clip-path="url(#SVGID_6_)" fill-rule="evenodd" clip-rule="evenodd" fill="#2C77BC" d="M826.809,778.084
			c0,1.995-1.617,3.611-3.612,3.611c-1.994,0-3.611-1.616-3.611-3.611s1.617-3.612,3.611-3.612
			C825.191,774.472,826.809,776.089,826.809,778.084"/>
		<path clip-path="url(#SVGID_6_)" fill-rule="evenodd" clip-rule="evenodd" fill="#2C77BC" d="M846.317,778.084
			c0,1.995-1.617,3.611-3.612,3.611s-3.611-1.616-3.611-3.611s1.616-3.612,3.611-3.612S846.317,776.089,846.317,778.084"/>
		<path clip-path="url(#SVGID_6_)" fill-rule="evenodd" clip-rule="evenodd" fill="#2C77BC" d="M865.826,778.084
			c0,1.995-1.617,3.611-3.612,3.611s-3.611-1.616-3.611-3.611s1.616-3.612,3.611-3.612S865.826,776.089,865.826,778.084"/>
		<path clip-path="url(#SVGID_6_)" fill-rule="evenodd" clip-rule="evenodd" fill="#2C77BC" d="M670.739,797.831
			c0,1.994-1.617,3.611-3.612,3.611s-3.612-1.617-3.612-3.611c0-1.995,1.617-3.612,3.612-3.612S670.739,795.836,670.739,797.831"/>
		<path clip-path="url(#SVGID_6_)" fill-rule="evenodd" clip-rule="evenodd" fill="#2C77BC" d="M690.248,797.831
			c0,1.994-1.617,3.611-3.612,3.611s-3.612-1.617-3.612-3.611c0-1.995,1.617-3.612,3.612-3.612S690.248,795.836,690.248,797.831"/>
		<path clip-path="url(#SVGID_6_)" fill-rule="evenodd" clip-rule="evenodd" fill="#2C77BC" d="M709.756,797.831
			c0,1.994-1.616,3.611-3.611,3.611s-3.612-1.617-3.612-3.611c0-1.995,1.617-3.612,3.612-3.612S709.756,795.836,709.756,797.831"/>
		<path clip-path="url(#SVGID_6_)" fill-rule="evenodd" clip-rule="evenodd" fill="#2C77BC" d="M729.265,797.831
			c0,1.994-1.616,3.611-3.611,3.611s-3.612-1.617-3.612-3.611c0-1.995,1.617-3.612,3.612-3.612S729.265,795.836,729.265,797.831"/>
		<path clip-path="url(#SVGID_6_)" fill-rule="evenodd" clip-rule="evenodd" fill="#2C77BC" d="M748.773,797.831
			c0,1.994-1.616,3.611-3.611,3.611s-3.612-1.617-3.612-3.611c0-1.995,1.617-3.612,3.612-3.612S748.773,795.836,748.773,797.831"/>
		<path clip-path="url(#SVGID_6_)" fill-rule="evenodd" clip-rule="evenodd" fill="#2C77BC" d="M768.283,797.831
			c0,1.994-1.617,3.611-3.612,3.611s-3.612-1.617-3.612-3.611c0-1.995,1.617-3.612,3.612-3.612S768.283,795.836,768.283,797.831"/>
		<path clip-path="url(#SVGID_6_)" fill-rule="evenodd" clip-rule="evenodd" fill="#2C77BC" d="M787.791,797.831
			c0,1.994-1.617,3.611-3.611,3.611c-1.995,0-3.612-1.617-3.612-3.611c0-1.995,1.617-3.612,3.612-3.612
			C786.174,794.219,787.791,795.836,787.791,797.831"/>
		<path clip-path="url(#SVGID_6_)" fill-rule="evenodd" clip-rule="evenodd" fill="#2C77BC" d="M807.3,797.831
			c0,1.994-1.617,3.611-3.612,3.611c-1.994,0-3.611-1.617-3.611-3.611c0-1.995,1.617-3.612,3.611-3.612
			C805.683,794.219,807.3,795.836,807.3,797.831"/>
		<path clip-path="url(#SVGID_6_)" fill-rule="evenodd" clip-rule="evenodd" fill="#2C77BC" d="M826.809,797.831
			c0,1.994-1.617,3.611-3.612,3.611c-1.994,0-3.611-1.617-3.611-3.611c0-1.995,1.617-3.612,3.611-3.612
			C825.191,794.219,826.809,795.836,826.809,797.831"/>
		<path clip-path="url(#SVGID_6_)" fill-rule="evenodd" clip-rule="evenodd" fill="#2C77BC" d="M846.317,797.831
			c0,1.994-1.617,3.611-3.612,3.611s-3.611-1.617-3.611-3.611c0-1.995,1.616-3.612,3.611-3.612S846.317,795.836,846.317,797.831"/>
		<path clip-path="url(#SVGID_6_)" fill-rule="evenodd" clip-rule="evenodd" fill="#2C77BC" d="M865.826,797.831
			c0,1.994-1.617,3.611-3.612,3.611s-3.611-1.617-3.611-3.611c0-1.995,1.616-3.612,3.611-3.612S865.826,795.836,865.826,797.831"/>
		
			<rect x="532.98" y="545.297" clip-path="url(#SVGID_6_)" fill="none" stroke="#2C77BC" stroke-width="4.455" stroke-miterlimit="10" width="15.677" height="234.799"/>
		
			<rect x="532.98" y="507.579" clip-path="url(#SVGID_6_)" fill="none" stroke="#2C77BC" stroke-width="4.107" stroke-miterlimit="10" width="117.521" height="15.677"/>
		
			<rect x="518.087" y="845.875" clip-path="url(#SVGID_6_)" fill="none" stroke="#2C77BC" stroke-width="4.455" stroke-miterlimit="10" width="78.122" height="15.677"/>
		
			<rect x="699.588" y="507.579" clip-path="url(#SVGID_6_)" fill="none" stroke="#2C77BC" stroke-width="4.455" stroke-miterlimit="10" width="156.244" height="15.677"/>
		
			<rect x="709.756" y="631.351" clip-path="url(#SVGID_6_)" fill="none" stroke="#2C77BC" stroke-width="4.455" stroke-miterlimit="10" width="35.406" height="35.405"/>
		
			<rect x="810.912" y="596.621" clip-path="url(#SVGID_6_)" fill="none" stroke="#2C77BC" stroke-width="4.455" stroke-miterlimit="10" width="35.405" height="17.703"/>
		
			<rect x="862.214" y="557.267" clip-path="url(#SVGID_6_)" fill="none" stroke="#2C77BC" stroke-width="4.455" stroke-miterlimit="10" width="35.406" height="17.703"/>
		
			<rect x="862.214" y="635.983" clip-path="url(#SVGID_6_)" fill="none" stroke="#2C77BC" stroke-width="4.455" stroke-miterlimit="10" width="35.406" height="17.702"/>
		
			<rect x="610.58" y="848.069" clip-path="url(#SVGID_6_)" fill="none" stroke="#2C77BC" stroke-width="4.455" stroke-miterlimit="10" width="106.601" height="40.98"/>
		
			<rect x="751.597" y="848.069" clip-path="url(#SVGID_6_)" fill="none" stroke="#2C77BC" stroke-width="4.455" stroke-miterlimit="10" width="106.602" height="40.98"/>
		
			<rect x="911.243" y="596.621" clip-path="url(#SVGID_6_)" fill="none" stroke="#2C77BC" stroke-width="4.455" stroke-miterlimit="10" width="35.405" height="17.703"/>
		
			<rect x="625.25" y="870.76" clip-path="url(#SVGID_6_)" fill-rule="evenodd" clip-rule="evenodd" fill="#2C77BC" width="4.703" height="4.703"/>
		
			<rect x="643.279" y="870.76" clip-path="url(#SVGID_6_)" fill-rule="evenodd" clip-rule="evenodd" fill="#2C77BC" width="4.703" height="4.703"/>
		
			<rect x="661.307" y="870.76" clip-path="url(#SVGID_6_)" fill-rule="evenodd" clip-rule="evenodd" fill="#2C77BC" width="4.703" height="4.703"/>
		
			<rect x="679.335" y="870.76" clip-path="url(#SVGID_6_)" fill-rule="evenodd" clip-rule="evenodd" fill="#2C77BC" width="4.703" height="4.703"/>
		
			<rect x="697.363" y="870.76" clip-path="url(#SVGID_6_)" fill-rule="evenodd" clip-rule="evenodd" fill="#2C77BC" width="4.703" height="4.703"/>
		
			<rect x="766.084" y="870.76" clip-path="url(#SVGID_6_)" fill-rule="evenodd" clip-rule="evenodd" fill="#2C77BC" width="4.703" height="4.703"/>
		
			<rect x="784.112" y="870.76" clip-path="url(#SVGID_6_)" fill-rule="evenodd" clip-rule="evenodd" fill="#2C77BC" width="4.703" height="4.703"/>
		
			<rect x="802.14" y="870.76" clip-path="url(#SVGID_6_)" fill-rule="evenodd" clip-rule="evenodd" fill="#2C77BC" width="4.703" height="4.703"/>
		
			<rect x="820.168" y="870.76" clip-path="url(#SVGID_6_)" fill-rule="evenodd" clip-rule="evenodd" fill="#2C77BC" width="4.703" height="4.703"/>
		
			<rect x="838.196" y="870.76" clip-path="url(#SVGID_6_)" fill-rule="evenodd" clip-rule="evenodd" fill="#2C77BC" width="4.703" height="4.703"/>
		
			<rect x="878.781" y="850.833" clip-path="url(#SVGID_6_)" fill-rule="evenodd" clip-rule="evenodd" fill="#2C77BC" width="4.703" height="4.703"/>
		
			<rect x="899.875" y="850.833" clip-path="url(#SVGID_6_)" fill-rule="evenodd" clip-rule="evenodd" fill="#2C77BC" width="4.703" height="4.703"/>
		
			<rect x="524.439" y="810.98" clip-path="url(#SVGID_6_)" fill-rule="evenodd" clip-rule="evenodd" fill="#2C77BC" width="4.703" height="4.702"/>
		
			<rect x="545.533" y="810.98" clip-path="url(#SVGID_6_)" fill-rule="evenodd" clip-rule="evenodd" fill="#2C77BC" width="4.703" height="4.702"/>
		
			<rect x="919.436" y="850.833" clip-path="url(#SVGID_6_)" fill-rule="evenodd" clip-rule="evenodd" fill="#2C77BC" width="4.703" height="4.703"/>
		
			<line clip-path="url(#SVGID_6_)" fill="none" stroke="#2C77BC" stroke-width="4.455" stroke-miterlimit="10" x1="537.618" y1="845.875" x2="537.618" y2="861.552"/>
		
			<line clip-path="url(#SVGID_6_)" fill="none" stroke="#2C77BC" stroke-width="4.455" stroke-miterlimit="10" x1="557.148" y1="845.875" x2="557.148" y2="861.552"/>
		
			<line clip-path="url(#SVGID_6_)" fill="none" stroke="#2C77BC" stroke-width="4.455" stroke-miterlimit="10" x1="576.679" y1="845.875" x2="576.679" y2="861.552"/>
		
			<rect x="872.168" y="845.875" clip-path="url(#SVGID_6_)" fill="none" stroke="#2C77BC" stroke-width="3.866" stroke-miterlimit="10" width="58.839" height="15.677"/>
		
			<line clip-path="url(#SVGID_6_)" fill="none" stroke="#2C77BC" stroke-width="4.455" stroke-miterlimit="10" x1="891.698" y1="845.875" x2="891.698" y2="861.552"/>
		
			<line clip-path="url(#SVGID_6_)" fill="none" stroke="#2C77BC" stroke-width="4.455" stroke-miterlimit="10" x1="911.229" y1="845.875" x2="911.229" y2="861.552"/>
		
			<rect x="517.334" y="804.898" clip-path="url(#SVGID_6_)" fill="none" stroke="#2C77BC" stroke-width="4.455" stroke-miterlimit="10" width="39.061" height="15.677"/>
		
			<line clip-path="url(#SVGID_6_)" fill="none" stroke="#2C77BC" stroke-width="4.455" stroke-miterlimit="10" x1="536.865" y1="804.898" x2="536.865" y2="820.575"/>
		
			<line clip-path="url(#SVGID_6_)" fill="none" stroke="#2C77BC" stroke-width="4.455" stroke-miterlimit="10" x1="548.657" y1="760.632" x2="532.979" y2="760.632"/>
		
			<line clip-path="url(#SVGID_6_)" fill="none" stroke="#2C77BC" stroke-width="4.455" stroke-miterlimit="10" x1="548.657" y1="740.603" x2="532.979" y2="740.603"/>
		
			<line clip-path="url(#SVGID_6_)" fill="none" stroke="#2C77BC" stroke-width="4.455" stroke-miterlimit="10" x1="548.657" y1="721.072" x2="532.979" y2="721.072"/>
		
			<line clip-path="url(#SVGID_6_)" fill="none" stroke="#2C77BC" stroke-width="4.455" stroke-miterlimit="10" x1="548.657" y1="701.542" x2="532.979" y2="701.542"/>
		
			<line clip-path="url(#SVGID_6_)" fill="none" stroke="#2C77BC" stroke-width="4.455" stroke-miterlimit="10" x1="548.657" y1="682.011" x2="532.979" y2="682.011"/>
		
			<line clip-path="url(#SVGID_6_)" fill="none" stroke="#2C77BC" stroke-width="4.455" stroke-miterlimit="10" x1="548.657" y1="662.48" x2="532.979" y2="662.48"/>
		
			<line clip-path="url(#SVGID_6_)" fill="none" stroke="#2C77BC" stroke-width="4.455" stroke-miterlimit="10" x1="548.657" y1="642.95" x2="532.979" y2="642.95"/>
		
			<line clip-path="url(#SVGID_6_)" fill="none" stroke="#2C77BC" stroke-width="4.455" stroke-miterlimit="10" x1="548.657" y1="623.42" x2="532.979" y2="623.42"/>
		
			<line clip-path="url(#SVGID_6_)" fill="none" stroke="#2C77BC" stroke-width="4.455" stroke-miterlimit="10" x1="548.657" y1="603.89" x2="532.979" y2="603.89"/>
		
			<line clip-path="url(#SVGID_6_)" fill="none" stroke="#2C77BC" stroke-width="4.455" stroke-miterlimit="10" x1="548.657" y1="584.359" x2="532.979" y2="584.359"/>
		
			<line clip-path="url(#SVGID_6_)" fill="none" stroke="#2C77BC" stroke-width="4.455" stroke-miterlimit="10" x1="548.657" y1="564.828" x2="532.979" y2="564.828"/>
		
			<line clip-path="url(#SVGID_6_)" fill="none" stroke="#2C77BC" stroke-width="4.455" stroke-miterlimit="10" x1="719.119" y1="523.256" x2="719.119" y2="507.579"/>
		
			<line clip-path="url(#SVGID_6_)" fill="none" stroke="#2C77BC" stroke-width="4.455" stroke-miterlimit="10" x1="630.633" y1="523.256" x2="630.633" y2="507.579"/>
		
			<line clip-path="url(#SVGID_6_)" fill="none" stroke="#2C77BC" stroke-width="4.455" stroke-miterlimit="10" x1="611.103" y1="523.256" x2="611.103" y2="507.579"/>
		
			<line clip-path="url(#SVGID_6_)" fill="none" stroke="#2C77BC" stroke-width="4.455" stroke-miterlimit="10" x1="591.571" y1="523.256" x2="591.571" y2="507.579"/>
		
			<line clip-path="url(#SVGID_6_)" fill="none" stroke="#2C77BC" stroke-width="4.455" stroke-miterlimit="10" x1="572.041" y1="523.256" x2="572.041" y2="507.579"/>
		
			<line clip-path="url(#SVGID_6_)" fill="none" stroke="#2C77BC" stroke-width="4.455" stroke-miterlimit="10" x1="552.511" y1="523.256" x2="552.511" y2="507.579"/>
		
			<line clip-path="url(#SVGID_6_)" fill="none" stroke="#2C77BC" stroke-width="4.455" stroke-miterlimit="10" x1="738.649" y1="523.256" x2="738.649" y2="507.579"/>
		
			<line clip-path="url(#SVGID_6_)" fill="none" stroke="#2C77BC" stroke-width="4.455" stroke-miterlimit="10" x1="758.18" y1="523.256" x2="758.18" y2="507.579"/>
		
			<line clip-path="url(#SVGID_6_)" fill="none" stroke="#2C77BC" stroke-width="4.455" stroke-miterlimit="10" x1="777.71" y1="523.256" x2="777.71" y2="507.579"/>
		
			<line clip-path="url(#SVGID_6_)" fill="none" stroke="#2C77BC" stroke-width="4.455" stroke-miterlimit="10" x1="797.24" y1="523.256" x2="797.24" y2="507.579"/>
		
			<line clip-path="url(#SVGID_6_)" fill="none" stroke="#2C77BC" stroke-width="4.455" stroke-miterlimit="10" x1="816.771" y1="523.256" x2="816.771" y2="507.579"/>
		
			<line clip-path="url(#SVGID_6_)" fill="none" stroke="#2C77BC" stroke-width="4.455" stroke-miterlimit="10" x1="836.302" y1="523.256" x2="836.302" y2="507.579"/>
	</g>
	<path clip-path="url(#SVGID_2_)" fill="#2A77BC" d="M571.012,492.74v6.027h-2.126v-13.759h4c2.436,0,3.783,1.306,3.783,3.688
		c0,2.012-1.046,2.877-1.804,3.162c1.137,0.484,1.604,1.464,1.604,3.461v0.548c0,1.467,0.063,2.163,0.189,2.9h-2.082
		c-0.197-0.629-0.226-1.765-0.226-2.926v-0.49c0-1.88-0.414-2.611-2.073-2.611H571.012z M571.012,490.988h1.361
		c1.551,0,2.15-0.745,2.15-2.207c0-1.253-0.591-2.022-1.941-2.022h-1.571V490.988z M586.93,491.777c0,4.916-1.282,7.216-4.388,7.216
		c-2.919,0-4.27-2.25-4.27-7.226c0-4.871,1.577-6.97,4.368-6.97C585.587,484.796,586.93,487.038,586.93,491.777z M580.467,491.74
		c0,3.49,0.597,5.443,2.129,5.443c1.602,0,2.138-1.84,2.138-5.432c0-3.473-0.574-5.132-2.144-5.132
		C581.047,486.62,580.467,488.441,580.467,491.74z M588.936,485.008h3.986c2.275,0,3.571,1.292,3.571,3.44
		c0,1.773-0.849,2.602-1.625,2.886c0.997,0.388,2.041,1.304,2.041,3.392c0,2.567-1.631,4.042-4.058,4.042h-3.915V485.008z
		 M592.355,490.582c1.598,0,2.077-0.652,2.077-1.938c0-1.261-0.664-1.918-1.956-1.918h-1.443v3.857H592.355z M591.034,497.078h1.6
		c1.362,0,2.129-0.749,2.129-2.383c0-1.563-0.708-2.424-2.405-2.424h-1.324V497.078z M606.975,491.777
		c0,4.916-1.282,7.216-4.388,7.216c-2.918,0-4.27-2.25-4.27-7.226c0-4.871,1.577-6.97,4.368-6.97
		C605.631,484.796,606.975,487.038,606.975,491.777z M600.512,491.74c0,3.49,0.597,5.443,2.13,5.443c1.602,0,2.137-1.84,2.137-5.432
		c0-3.473-0.574-5.132-2.144-5.132C601.092,486.62,600.512,488.441,600.512,491.74z M610.522,486.888h-2.983v-1.88h8.107v1.88
		h-2.983v11.879h-2.141V486.888z M622.935,485.008v13.759h-2.141v-13.759H622.935z M625.485,498.767v-13.76h2.478
		c3.172,8.26,3.715,9.658,3.883,10.306h0.021c-0.109-1.72-0.122-3.761-0.122-6.009v-4.297h1.934v13.76h-2.374
		c-3.284-8.755-3.794-10.149-3.965-10.75h-0.021c0.102,1.704,0.107,3.808,0.107,6.277v4.474H625.485z M641.005,498.767h-2.141
		l3.232-13.759h2.775l3.29,13.759h-2.251l-0.797-3.771h-3.318L641.005,498.767z M644.72,493.129
		c-0.611-2.889-1.058-4.891-1.263-6.13h-0.055c-0.175,1.243-0.654,3.45-1.218,6.13H644.72z M661.065,494.829
		c-0.061,0.731-0.354,4.164-4.006,4.164c-3.827,0-4.217-3.586-4.217-7.151c0-4.3,1.221-7.045,4.371-7.045
		c3.534,0,3.784,3.122,3.833,4.133h-2.124c-0.034-0.467-0.085-2.298-1.743-2.298c-1.76,0-2.121,2.258-2.121,5.247
		c0,2.701,0.279,5.307,2.042,5.307c1.593,0,1.766-1.772,1.826-2.357H661.065z M664.055,498.767h-2.141l3.233-13.759h2.774
		l3.29,13.759h-2.25l-0.798-3.771h-3.317L664.055,498.767z M667.77,493.129c-0.61-2.889-1.057-4.891-1.262-6.13h-0.056
		c-0.174,1.243-0.653,3.45-1.218,6.13H667.77z M672.497,498.767v-13.76h2.478c3.173,8.26,3.715,9.658,3.884,10.306h0.021
		c-0.11-1.72-0.122-3.761-0.122-6.009v-4.297h1.933v13.76h-2.374c-3.284-8.755-3.794-10.149-3.964-10.75h-0.021
		c0.102,1.704,0.107,3.808,0.107,6.277v4.474H672.497z"/>
	<path clip-path="url(#SVGID_2_)" fill="#2A77BC" d="M640.193,645.626v-1.643c0.408-0.055,0.753-0.096,1.278-0.109
		c-1.044-0.56-1.504-1.423-1.504-2.74c0-2.91,2.734-3.861,7.043-3.861c4.926,0,7.153,1.613,7.153,4.514
		c0,3.582-3.104,3.791-3.923,3.831V643.5c0.532-0.041,2.1-0.157,2.1-1.776c0-1.71-2.175-2.235-5.318-2.235
		c-3.287,0-5.246,0.425-5.246,2.119c0,1.494,1.189,1.898,3.509,1.898h0.737v-2.036h1.838v4.156
		C647.859,645.626,640.193,645.626,640.193,645.626z M647.184,670.199c-4.916,0-7.216-1.282-7.216-4.388
		c0-2.919,2.249-4.271,7.226-4.271c4.871,0,6.971,1.577,6.971,4.368C654.164,668.856,651.922,670.199,647.184,670.199z
		 M653.952,651.807c0,2.234-1.36,3.865-4.003,3.865c-2.586,0-4.04-1.475-4.04-4.066v-1.596h-5.716v-2.141h13.759V651.807z
		 M653.952,659.494h-13.759v-2.141h13.759V659.494z M647.22,663.736c-3.489,0-5.443,0.597-5.443,2.13
		c0,1.602,1.84,2.138,5.432,2.138c3.473,0,5.133-0.574,5.133-2.144C652.341,664.317,650.519,663.736,647.22,663.736z
		 M647.647,650.01v1.358c0,1.464,0.744,2.151,2.33,2.151c1.425,0,2.223-0.739,2.223-2.006v-1.504H647.647z"/>
	<path clip-path="url(#SVGID_2_)" fill="#2A77BC" d="M654.227,542.571h1.293v7.202h2.887l-0.141,1.11h-4.039V542.571z
		 M660.474,542.571v8.312h-1.293v-8.312H660.474z M666.755,550.883h-0.992c-0.033-0.247-0.058-0.455-0.066-0.772
		c-0.338,0.631-0.859,0.909-1.655,0.909c-1.758,0-2.332-1.652-2.332-4.254c0-2.976,0.975-4.321,2.727-4.321
		c2.163,0,2.289,1.875,2.314,2.37h-1.279c-0.025-0.322-0.095-1.268-1.073-1.268c-1.032,0-1.351,1.314-1.351,3.212
		c0,1.986,0.257,3.169,1.28,3.169c0.902,0,1.146-0.718,1.146-2.12v-0.445h-1.229v-1.11h2.511V550.883z M668.107,542.571h1.293v3.362
		h2.24v-3.362h1.293v8.312h-1.293v-3.822h-2.24v3.822h-1.293V542.571z M675.554,543.707h-1.802v-1.136h4.897v1.136h-1.803v7.176
		h-1.293V543.707z"/>
	<path clip-path="url(#SVGID_2_)" fill="#2A77BC" d="M712.225,620.817v3.641h-1.284v-8.312h2.416c1.472,0,2.285,0.789,2.285,2.228
		c0,1.216-0.632,1.738-1.09,1.91c0.688,0.292,0.97,0.885,0.97,2.091v0.331c0,0.886,0.038,1.307,0.114,1.752h-1.258
		c-0.119-0.381-0.136-1.066-0.136-1.768v-0.296c0-1.136-0.251-1.577-1.253-1.577H712.225z M712.225,619.759h0.822
		c0.938,0,1.299-0.45,1.299-1.333c0-0.757-0.356-1.221-1.172-1.221h-0.949V619.759z M721.654,624.458h-0.992
		c-0.033-0.247-0.058-0.455-0.066-0.772c-0.338,0.631-0.859,0.908-1.655,0.908c-1.758,0-2.332-1.651-2.332-4.254
		c0-2.976,0.974-4.321,2.727-4.321c2.163,0,2.289,1.875,2.313,2.369h-1.279c-0.024-0.321-0.094-1.268-1.072-1.268
		c-1.033,0-1.351,1.313-1.351,3.212c0,1.986,0.257,3.169,1.28,3.169c0.902,0,1.146-0.718,1.146-2.119v-0.445h-1.229v-1.11h2.511
		V624.458z M722.998,616.146h2.408c1.374,0,2.157,0.78,2.157,2.078c0,1.071-0.513,1.571-0.981,1.743
		c0.602,0.234,1.232,0.788,1.232,2.049c0,1.551-0.985,2.441-2.451,2.441h-2.365V616.146z M725.063,619.514
		c0.965,0,1.255-0.394,1.255-1.171c0-0.762-0.401-1.159-1.182-1.159h-0.871v2.33H725.063z M724.266,623.438h0.966
		c0.823,0,1.286-0.452,1.286-1.439c0-0.944-0.428-1.464-1.453-1.464h-0.799V623.438z M731.295,616.146h1.293v7.201h2.887
		l-0.141,1.11h-4.039V616.146z M740.229,620.663h-2.704v2.676h3.024l-0.163,1.119h-4.137v-8.312h4.109v1.136h-2.834v2.253h2.704
		V620.663z M741.485,616.146h2.057c2.063,0,2.903,1.359,2.903,3.969c0,2.812-0.791,4.343-3.025,4.343h-1.935V616.146z
		 M742.786,623.391h0.611c1.284,0,1.713-0.988,1.713-3.261c0-2.013-0.428-2.899-1.701-2.899h-0.623V623.391z"/>
	<path clip-path="url(#SVGID_2_)" fill="#2A77BC" d="M789.105,666.729h2.407c1.375,0,2.157,0.78,2.157,2.078
		c0,1.07-0.513,1.571-0.981,1.743c0.603,0.234,1.233,0.787,1.233,2.049c0,1.551-0.985,2.441-2.452,2.441h-2.364V666.729z
		 M791.171,670.097c0.965,0,1.254-0.394,1.254-1.171c0-0.762-0.4-1.159-1.181-1.159h-0.872v2.33H791.171z M790.372,674.021h0.967
		c0.822,0,1.286-0.452,1.286-1.439c0-0.944-0.428-1.465-1.453-1.465h-0.8V674.021z M796.271,671.4v3.641h-1.284v-8.312h2.417
		c1.471,0,2.284,0.788,2.284,2.228c0,1.216-0.632,1.738-1.089,1.91c0.687,0.292,0.969,0.885,0.969,2.091v0.331
		c0,0.886,0.038,1.307,0.114,1.752h-1.258c-0.118-0.381-0.136-1.066-0.136-1.769v-0.295c0-1.136-0.25-1.577-1.252-1.577H796.271z
		 M796.271,670.342h0.823c0.937,0,1.299-0.45,1.299-1.333c0-0.757-0.357-1.222-1.173-1.222h-0.949V670.342z M804.865,671.245h-2.703
		v2.677h3.023l-0.163,1.119h-4.137v-8.312h4.109v1.136h-2.833v2.253h2.703V671.245z M807.068,675.041h-1.293l1.953-8.312h1.677
		l1.987,8.312h-1.359l-0.482-2.278h-2.004L807.068,675.041z M809.313,671.635c-0.368-1.744-0.639-2.954-0.763-3.702h-0.032
		c-0.105,0.751-0.396,2.084-0.736,3.702H809.313z M812.166,666.729h2.057c2.063,0,2.903,1.359,2.903,3.969
		c0,2.812-0.79,4.343-3.024,4.343h-1.936V666.729z M813.468,673.974h0.61c1.285,0,1.713-0.988,1.713-3.261
		c0-2.013-0.428-2.899-1.7-2.899h-0.623V673.974z M818.325,666.729h2.408c1.374,0,2.157,0.78,2.157,2.078
		c0,1.07-0.513,1.571-0.981,1.743c0.603,0.234,1.232,0.787,1.232,2.049c0,1.551-0.985,2.441-2.451,2.441h-2.365V666.729z
		 M820.391,670.097c0.966,0,1.255-0.394,1.255-1.171c0-0.762-0.401-1.159-1.181-1.159h-0.872v2.33H820.391z M819.593,674.021h0.966
		c0.823,0,1.287-0.452,1.287-1.439c0-0.944-0.428-1.465-1.453-1.465h-0.8V674.021z M829.22,670.818c0,2.969-0.774,4.358-2.651,4.358
		c-1.763,0-2.579-1.358-2.579-4.365c0-2.941,0.953-4.21,2.639-4.21C828.408,666.602,829.22,667.956,829.22,670.818z
		 M825.315,670.796c0,2.108,0.36,3.288,1.286,3.288c0.968,0,1.292-1.111,1.292-3.281c0-2.098-0.347-3.1-1.295-3.1
		C825.666,667.703,825.315,668.803,825.315,670.796z M831.005,675.041h-1.293l1.953-8.312h1.677l1.986,8.312h-1.358l-0.482-2.278
		h-2.004L831.005,675.041z M833.249,671.635c-0.368-1.744-0.639-2.954-0.763-3.702h-0.033c-0.105,0.751-0.395,2.084-0.735,3.702
		H833.249z M837.387,671.4v3.641h-1.284v-8.312h2.417c1.471,0,2.284,0.788,2.284,2.228c0,1.216-0.632,1.738-1.089,1.91
		c0.687,0.292,0.969,0.885,0.969,2.091v0.331c0,0.886,0.038,1.307,0.114,1.752h-1.258c-0.119-0.381-0.136-1.066-0.136-1.769v-0.295
		c0-1.136-0.25-1.577-1.252-1.577H837.387z M837.387,670.342h0.823c0.937,0,1.299-0.45,1.299-1.333c0-0.757-0.357-1.222-1.173-1.222
		h-0.949V670.342z M842.001,666.729h2.057c2.063,0,2.903,1.359,2.903,3.969c0,2.812-0.79,4.343-3.024,4.343h-1.936V666.729z
		 M843.303,673.974h0.61c1.285,0,1.713-0.988,1.713-3.261c0-2.013-0.428-2.899-1.7-2.899h-0.623V673.974z"/>
	<path clip-path="url(#SVGID_2_)" fill="#2A77BC" d="M650.441,599.188c0.069,0.745,0.393,1.378,1.204,1.378
		c0.78,0,1.108-0.465,1.108-1.199c0-0.748-0.342-1.168-1.421-1.685c-1.381-0.658-1.944-1.248-1.944-2.473
		c0-1.268,0.813-2.179,2.267-2.179c1.779,0,2.23,1.226,2.255,2.271h-1.267c-0.046-0.451-0.168-1.239-1.017-1.239
		c-0.661,0-0.95,0.439-0.95,1.037c0,0.666,0.297,0.979,1.294,1.446c1.479,0.69,2.101,1.368,2.101,2.706
		c0,1.309-0.785,2.346-2.464,2.346c-1.827,0-2.397-1.178-2.454-2.41H650.441z M659.138,597.671h-2.704v2.676h3.024l-0.163,1.119
		h-4.137v-8.312h4.109v1.136h-2.834v2.253h2.704V597.671z M660.395,601.466v-8.312h1.496c1.917,4.989,2.244,5.834,2.346,6.225h0.013
		c-0.066-1.038-0.073-2.271-0.073-3.63v-2.595h1.167v8.312h-1.434c-1.983-5.289-2.292-6.131-2.396-6.494h-0.012
		c0.062,1.029,0.064,2.3,0.064,3.792v2.702H660.395z M667.633,599.188c0.07,0.745,0.393,1.378,1.204,1.378
		c0.78,0,1.108-0.465,1.108-1.199c0-0.748-0.342-1.168-1.42-1.685c-1.382-0.658-1.945-1.248-1.945-2.473
		c0-1.268,0.814-2.179,2.267-2.179c1.78,0,2.231,1.226,2.256,2.271h-1.268c-0.045-0.451-0.168-1.239-1.017-1.239
		c-0.66,0-0.949,0.439-0.949,1.037c0,0.666,0.296,0.979,1.293,1.446c1.479,0.69,2.102,1.368,2.102,2.706
		c0,1.309-0.786,2.346-2.465,2.346c-1.827,0-2.397-1.178-2.454-2.41H667.633z M677.313,597.243c0,2.969-0.774,4.358-2.65,4.358
		c-1.763,0-2.579-1.358-2.579-4.365c0-2.941,0.952-4.21,2.638-4.21C676.501,593.026,677.313,594.381,677.313,597.243z
		 M673.409,597.221c0,2.108,0.36,3.288,1.286,3.288c0.968,0,1.291-1.111,1.291-3.28c0-2.099-0.347-3.101-1.295-3.101
		C673.76,594.128,673.409,595.229,673.409,597.221z M679.813,597.825v3.641h-1.284v-8.312h2.416c1.472,0,2.285,0.789,2.285,2.228
		c0,1.216-0.632,1.738-1.089,1.91c0.687,0.292,0.969,0.885,0.969,2.091v0.331c0,0.886,0.038,1.307,0.114,1.752h-1.258
		c-0.119-0.381-0.136-1.066-0.136-1.768v-0.296c0-1.136-0.251-1.577-1.253-1.577H679.813z M679.813,596.767h0.823
		c0.937,0,1.299-0.45,1.299-1.333c0-0.757-0.357-1.221-1.173-1.221h-0.949V596.767z"/>
	<g clip-path="url(#SVGID_2_)">
		<text transform="matrix(1 0 0 1 556.9014 562.8486)"><tspan x="0" y="0" fill="#2A77BC" font-family="'OCRAStd'" font-size="15.3282">3.3 </tspan><tspan x="41.14" y="0" fill="#2A77BC" font-family="'OCRAStd'" font-size="15.3282">V</tspan></text>
	</g>
	<g clip-path="url(#SVGID_2_)">
		<text transform="matrix(1 0 0 1 556.9014 582.1621)"><tspan x="0" y="0" fill="#2A77BC" font-family="'OCRAStd'" font-size="15.3282">GN</tspan><tspan x="20.57" y="0" fill="#2A77BC" font-family="'OCRAStd'" font-size="15.3282">D</tspan></text>
	</g>
	<g clip-path="url(#SVGID_2_)">
		<text transform="matrix(1 0 0 1 556.9014 620.7891)"><tspan x="0" y="0" fill="#2A77BC" font-family="'OCRAStd'" font-size="15.3282">4 (IO</tspan><tspan x="51.425" y="0" fill="#2A77BC" font-family="'OCRAStd'" font-size="15.3282">)</tspan></text>
	</g>
	<g clip-path="url(#SVGID_2_)">
		<text transform="matrix(1 0 0 1 556.9014 640.1025)"><tspan x="0" y="0" fill="#2A77BC" font-family="'OCRAStd'" font-size="15.3282">5 (PW</tspan><tspan x="51.425" y="0" fill="#2A77BC" font-family="'OCRAStd'" font-size="15.3282">)</tspan></text>
	</g>
	<g clip-path="url(#SVGID_2_)">
		<text transform="matrix(1 0 0 1 556.9014 659.416)"><tspan x="0" y="0" fill="#2A77BC" font-family="'OCRAStd'" font-size="15.3282">10 (PW</tspan><tspan x="61.71" y="0" fill="#2A77BC" font-family="'OCRAStd'" font-size="15.3282">)</tspan></text>
	</g>
	<g clip-path="url(#SVGID_2_)">
		<text transform="matrix(1 0 0 1 556.9014 678.7295)"><tspan x="0" y="0" fill="#2A77BC" font-family="'OCRAStd'" font-size="15.3282">16 (PW</tspan><tspan x="61.71" y="0" fill="#2A77BC" font-family="'OCRAStd'" font-size="15.3282">)</tspan></text>
	</g>
	<g clip-path="url(#SVGID_2_)">
		<text transform="matrix(1 0 0 1 556.9014 698.043)"><tspan x="0" y="0" fill="#2A77BC" font-family="'OCRAStd'" font-size="15.3282">14 (L</tspan><tspan x="51.425" y="0" fill="#2A77BC" font-family="'OCRAStd'" font-size="15.3282">)</tspan></text>
	</g>
	<g clip-path="url(#SVGID_2_)">
		<text transform="matrix(1 0 0 1 556.9014 717.3564)"><tspan x="0" y="0" fill="#2A77BC" font-family="'OCRAStd'" font-size="15.3282">12 (D</tspan><tspan x="51.425" y="0" fill="#2A77BC" font-family="'OCRAStd'" font-size="15.3282">)</tspan></text>
	</g>
	<g clip-path="url(#SVGID_2_)">
		<text transform="matrix(1 0 0 1 556.9014 736.6699)"><tspan x="0" y="0" fill="#2A77BC" font-family="'OCRAStd'" font-size="15.3282">13 (C</tspan><tspan x="51.425" y="0" fill="#2A77BC" font-family="'OCRAStd'" font-size="15.3282">)</tspan></text>
	</g>
	<g clip-path="url(#SVGID_2_)">
		<text transform="matrix(1 0 0 1 869.5967 550.5859)"><tspan x="0" y="0" fill="#2A77BC" font-family="'OCRAStd'" font-size="15.3282">S</tspan><tspan x="10.285" y="0" fill="#2A77BC" font-family="'OCRAStd'" font-size="15.3282">1</tspan></text>
	</g>
	<g clip-path="url(#SVGID_2_)">
		<text transform="matrix(1 0 0 1 869.5967 671.6787)"><tspan x="0" y="0" fill="#2A77BC" font-family="'OCRAStd'" font-size="15.3282">S</tspan><tspan x="10.285" y="0" fill="#2A77BC" font-family="'OCRAStd'" font-size="15.3282">3</tspan></text>
	</g>
	<g clip-path="url(#SVGID_2_)">
		<text transform="matrix(1 0 0 1 819.0137 631.8252)"><tspan x="0" y="0" fill="#2A77BC" font-family="'OCRAStd'" font-size="15.3282">S</tspan><tspan x="10.285" y="0" fill="#2A77BC" font-family="'OCRAStd'" font-size="15.3282">4</tspan></text>
	</g>
	<g clip-path="url(#SVGID_2_)">
		<text transform="matrix(1 0 0 1 920.1797 631.8252)"><tspan x="0" y="0" fill="#2A77BC" font-family="'OCRAStd'" font-size="15.3282">S</tspan><tspan x="10.285" y="0" fill="#2A77BC" font-family="'OCRAStd'" font-size="15.3282">2</tspan></text>
	</g>
	<g clip-path="url(#SVGID_2_)">
		<text transform="matrix(1 0 0 1 558.4331 755.9824)"><tspan x="0" y="0" fill="#2A77BC" font-family="'OCRAStd'" font-size="10.7297">0 (12C-D</tspan><tspan x="57.596" y="0" fill="#2A77BC" font-family="'OCRAStd'" font-size="10.7297">)</tspan></text>
	</g>
	<g clip-path="url(#SVGID_2_)">
		<text transform="matrix(1 0 0 1 558.4331 775.2959)"><tspan x="0" y="0" fill="#2A77BC" font-family="'OCRAStd'" font-size="10.7297">2 (12C-D</tspan><tspan x="57.596" y="0" fill="#2A77BC" font-family="'OCRAStd'" font-size="10.7297">)</tspan></text>
	</g>
	<g clip-path="url(#SVGID_2_)">
		<text transform="matrix(1 0 0 1 516.791 797.3672)"><tspan x="0" y="0" fill="#2A77BC" font-family="'OCRAStd'" font-size="10.7297">V + GN</tspan><tspan x="43.197" y="0" fill="#2A77BC" font-family="'OCRAStd'" font-size="10.7297">D</tspan></text>
	</g>
	<g clip-path="url(#SVGID_2_)">
		<text transform="matrix(1 0 0 1 518.583 840.2852)"><tspan x="0" y="0" fill="#2A77BC" font-family="'OCRAStd'" font-size="10.7297">C</tspan><tspan x="7.2" y="0" fill="#2A77BC" font-family="'OCRAStd'" font-size="10.7297">K</tspan></text>
	</g>
	<g clip-path="url(#SVGID_2_)">
		<text transform="matrix(1 0 0 1 579.8926 840.2852)"><tspan x="0" y="0" fill="#2A77BC" font-family="'OCRAStd'" font-size="10.7297">C</tspan><tspan x="7.2" y="0" fill="#2A77BC" font-family="'OCRAStd'" font-size="10.7297">O</tspan></text>
	</g>
	<g clip-path="url(#SVGID_2_)">
		<text transform="matrix(1 0 0 1 559.9673 840.2852)"><tspan x="0" y="0" fill="#2A77BC" font-family="'OCRAStd'" font-size="10.7297">M</tspan><tspan x="7.2" y="0" fill="#2A77BC" font-family="'OCRAStd'" font-size="10.7297">I</tspan></text>
	</g>
	<g clip-path="url(#SVGID_2_)">
		<text transform="matrix(1 0 0 1 540.0425 840.2852)"><tspan x="0" y="0" fill="#2A77BC" font-family="'OCRAStd'" font-size="10.7297">M</tspan><tspan x="7.2" y="0" fill="#2A77BC" font-family="'OCRAStd'" font-size="10.7297">O</tspan></text>
	</g>
	<g clip-path="url(#SVGID_2_)">
		<defs>
			<rect id="SVGID_7_" width="1210" height="1178"/>
		</defs>
		<clipPath id="SVGID_8_">
			<use xlink:href="#SVGID_7_"  overflow="visible"/>
		</clipPath>
		
			<rect x="940.673" y="742.202" clip-path="url(#SVGID_8_)" fill="none" stroke="#2C77BC" stroke-width="4.455" stroke-miterlimit="10" width="19.509" height="45.907"/>
		
			<rect x="960.182" y="746.414" clip-path="url(#SVGID_8_)" fill-rule="evenodd" clip-rule="evenodd" fill="#2C77BC" width="8.188" height="8.187"/>
	</g>
	<g clip-path="url(#SVGID_2_)">
		<text transform="matrix(1 0 0 1 950.4355 806.7949)" fill="#2C77BC" font-family="'Nunito-ExtraBold'" font-size="21.384">0</text>
	</g>
	<g clip-path="url(#SVGID_2_)">
		<text transform="matrix(1 0 0 1 950.4355 732.6572)" fill="#2C77BC" font-family="'Nunito-ExtraBold'" font-size="21.384">1</text>
	</g>
	<g clip-path="url(#SVGID_2_)">
		<defs>
			<rect id="SVGID_9_" width="1210" height="1178"/>
		</defs>
		<clipPath id="SVGID_10_">
			<use xlink:href="#SVGID_9_"  overflow="visible"/>
		</clipPath>
		<path clip-path="url(#SVGID_10_)" fill="none" stroke="#2A77BC" stroke-width="1.895" stroke-miterlimit="10" d="M532.219,543.121
			h80.985c12.505,0,22.735,10.231,22.735,22.736v193.647c0,12.505-10.23,22.736-22.735,22.736h-80.985"/>
		<rect x="549.335" y="584.507" clip-path="url(#SVGID_10_)" fill="#2A77BC" width="85.838" height="19.927"/>
	</g>
	<g clip-path="url(#SVGID_2_)">
		<text transform="matrix(1 0 0 1 581.4253 601.1689)"><tspan x="0" y="0" fill="#FFFFFF" font-family="'OCRAStd'" font-size="16.3571">A</tspan><tspan x="10.976" y="0" fill="#FFFFFF" font-family="'OCRAStd'" font-size="16.3571">O</tspan></text>
	</g>
	<g clip-path="url(#SVGID_2_)">
		<defs>
			<rect id="SVGID_11_" width="1210" height="1178"/>
		</defs>
		<clipPath id="SVGID_12_">
			<use xlink:href="#SVGID_11_"  overflow="visible"/>
		</clipPath>
		
			<line clip-path="url(#SVGID_12_)" fill="none" stroke="#2A77BC" stroke-width="1.533" stroke-miterlimit="10" x1="548.569" y1="681.841" x2="635.94" y2="681.841"/>
		
			<line clip-path="url(#SVGID_12_)" fill="none" stroke="#2A77BC" stroke-width="1.533" stroke-miterlimit="10" x1="548.569" y1="739.321" x2="635.94" y2="739.321"/>
		<path clip-path="url(#SVGID_12_)" fill="none" stroke="#2C77BC" stroke-width="4.455" stroke-miterlimit="10" d="M684.927,572.396
			c0-6.452-3.344-12.155-8.38-15.48h-20.33c-5.035,3.325-8.381,9.028-8.381,15.48c0,5.805,2.708,11.003,6.918,14.41h23.255
			C682.219,583.399,684.927,578.201,684.927,572.396z"/>
	</g>
</g>
</svg>
