<?xml version="1.0" encoding="utf-8"?>
<!-- Generator: Adobe Illustrator 16.0.0, SVG Export Plug-In . SVG Version: 6.00 Build 0)  -->
<!DOCTYPE svg PUBLIC "-//W3C//DTD SVG 1.1//EN" "http://www.w3.org/Graphics/SVG/1.1/DTD/svg11.dtd">
<svg version="1.1" id="Layer_1" xmlns="http://www.w3.org/2000/svg" xmlns:xlink="http://www.w3.org/1999/xlink" x="0px" y="0px"
	 width="1078.75px" height="1067.89px" viewBox="0 0 1078.75 1067.89" enable-background="new 0 0 1078.75 1067.89"
	 xml:space="preserve">
<rect x="199.345" y="345.855" fill="#333333" width="25.104" height="31.276"/>
<rect x="150.553" y="374.667" fill-rule="evenodd" clip-rule="evenodd" fill="#FFFFFF" width="46.458" height="31.497"/>
<rect x="142.169" y="374.667" fill="none" stroke="#000000" stroke-width="2.173" stroke-miterlimit="10" width="54.841" height="31.497"/>
<rect x="200.588" y="374.777" fill="#FBAF19" width="25.104" height="31.276"/>
<path fill="none" stroke="#2E78BC" stroke-width="7.134" stroke-miterlimit="10" d="M793.231,899.504H261.817
	c-65.807,0-119.648-53.842-119.648-119.647V318.735c0-65.807,53.841-119.648,119.648-119.648h531.414
	c65.807,0,119.647,53.841,119.647,119.648v461.122C912.879,845.663,859.038,899.504,793.231,899.504z"/>
<polygon fill="none" stroke="#2E78BC" stroke-width="7.134" stroke-miterlimit="10" points="420.671,555.839 420.671,529.962 
	720.252,532.08 720.252,555.839 758.746,555.839 758.746,752.942 721.926,752.942 721.926,778.045 420.671,778.045 420.671,756.29 
	382.177,756.29 382.177,555.839 "/>
<path fill-rule="evenodd" clip-rule="evenodd" fill="none" stroke="#333333" stroke-width="16" stroke-miterlimit="10" d="
	M421.194,591.891c0,3.195-2.59,5.784-5.784,5.784c-3.195,0-5.785-2.589-5.785-5.784c0-3.193,2.59-5.783,5.785-5.783
	C418.604,586.108,421.194,588.698,421.194,591.891"/>
<path fill-rule="evenodd" clip-rule="evenodd" fill="#2E78BC" d="M452.436,591.891c0,3.195-2.59,5.784-5.784,5.784
	c-3.194,0-5.784-2.589-5.784-5.784c0-3.193,2.59-5.783,5.784-5.783C449.846,586.108,452.436,588.698,452.436,591.891"/>
<path fill-rule="evenodd" clip-rule="evenodd" fill="#2E78BC" d="M483.677,591.891c0,3.195-2.589,5.784-5.784,5.784
	c-3.195,0-5.784-2.589-5.784-5.784c0-3.193,2.589-5.783,5.784-5.783C481.088,586.108,483.677,588.698,483.677,591.891"/>
<path fill-rule="evenodd" clip-rule="evenodd" fill="none" stroke="#FBAF19" stroke-width="16" stroke-miterlimit="10" d="
	M514.919,591.891c0,3.195-2.59,5.784-5.784,5.784c-3.195,0-5.784-2.589-5.784-5.784c0-3.193,2.589-5.783,5.784-5.783
	C512.329,586.108,514.919,588.698,514.919,591.891"/>
<path fill-rule="evenodd" clip-rule="evenodd" fill="#2E78BC" d="M546.159,591.891c0,3.195-2.589,5.784-5.783,5.784
	c-3.196,0-5.784-2.589-5.784-5.784c0-3.193,2.588-5.783,5.784-5.783C543.57,586.108,546.159,588.698,546.159,591.891"/>
<path fill-rule="evenodd" clip-rule="evenodd" fill="#2E78BC" d="M577.401,591.891c0,3.195-2.59,5.784-5.785,5.784
	c-3.192,0-5.784-2.589-5.784-5.784c0-3.193,2.592-5.783,5.784-5.783C574.812,586.108,577.401,588.698,577.401,591.891"/>
<path fill-rule="evenodd" clip-rule="evenodd" fill="#2E78BC" d="M608.643,591.891c0,3.195-2.59,5.784-5.785,5.784
	c-3.193,0-5.784-2.589-5.784-5.784c0-3.193,2.591-5.783,5.784-5.783C606.053,586.108,608.643,588.698,608.643,591.891"/>
<path fill-rule="evenodd" clip-rule="evenodd" fill="#2E78BC" d="M639.884,591.891c0,3.195-2.591,5.784-5.784,5.784
	c-3.195,0-5.785-2.589-5.785-5.784c0-3.193,2.59-5.783,5.785-5.783C637.293,586.108,639.884,588.698,639.884,591.891"/>
<path fill-rule="evenodd" clip-rule="evenodd" fill="#2E78BC" d="M671.125,591.891c0,3.195-2.59,5.784-5.784,5.784
	s-5.785-2.589-5.785-5.784c0-3.193,2.591-5.783,5.785-5.783S671.125,588.698,671.125,591.891"/>
<path fill-rule="evenodd" clip-rule="evenodd" fill="#2E78BC" d="M702.366,591.891c0,3.195-2.591,5.784-5.784,5.784
	c-3.196,0-5.785-2.589-5.785-5.784c0-3.193,2.589-5.783,5.785-5.783C699.775,586.108,702.366,588.698,702.366,591.891"/>
<path fill-rule="evenodd" clip-rule="evenodd" fill="#2E78BC" d="M733.607,591.891c0,3.195-2.59,5.784-5.784,5.784
	s-5.784-2.589-5.784-5.784c0-3.193,2.59-5.783,5.784-5.783S733.607,588.698,733.607,591.891"/>
<path fill-rule="evenodd" clip-rule="evenodd" fill="#2E78BC" d="M421.194,623.515c0,3.193-2.59,5.783-5.784,5.783
	c-3.195,0-5.785-2.59-5.785-5.783c0-3.195,2.59-5.784,5.785-5.784C418.604,617.731,421.194,620.32,421.194,623.515"/>
<path fill-rule="evenodd" clip-rule="evenodd" fill="#2E78BC" d="M452.436,623.515c0,3.193-2.59,5.783-5.784,5.783
	c-3.194,0-5.784-2.59-5.784-5.783c0-3.195,2.59-5.784,5.784-5.784C449.846,617.731,452.436,620.32,452.436,623.515"/>
<path fill-rule="evenodd" clip-rule="evenodd" fill="#2E78BC" d="M483.677,623.515c0,3.193-2.589,5.783-5.784,5.783
	c-3.195,0-5.784-2.59-5.784-5.783c0-3.195,2.589-5.784,5.784-5.784C481.088,617.731,483.677,620.32,483.677,623.515"/>
<path fill-rule="evenodd" clip-rule="evenodd" fill="#2E78BC" d="M514.919,623.515c0,3.193-2.59,5.783-5.784,5.783
	c-3.195,0-5.784-2.59-5.784-5.783c0-3.195,2.589-5.784,5.784-5.784C512.329,617.731,514.919,620.32,514.919,623.515"/>
<path fill-rule="evenodd" clip-rule="evenodd" fill="#2E78BC" d="M546.159,623.515c0,3.193-2.589,5.783-5.783,5.783
	c-3.196,0-5.784-2.59-5.784-5.783c0-3.195,2.588-5.784,5.784-5.784C543.57,617.731,546.159,620.32,546.159,623.515"/>
<path fill-rule="evenodd" clip-rule="evenodd" fill="#2E78BC" d="M577.401,623.515c0,3.193-2.59,5.783-5.785,5.783
	c-3.192,0-5.784-2.59-5.784-5.783c0-3.195,2.592-5.784,5.784-5.784C574.812,617.731,577.401,620.32,577.401,623.515"/>
<path fill-rule="evenodd" clip-rule="evenodd" fill="#2E78BC" d="M608.643,623.515c0,3.193-2.59,5.783-5.785,5.783
	c-3.193,0-5.784-2.59-5.784-5.783c0-3.195,2.591-5.784,5.784-5.784C606.053,617.731,608.643,620.32,608.643,623.515"/>
<path fill-rule="evenodd" clip-rule="evenodd" fill="#2E78BC" d="M639.884,623.515c0,3.193-2.591,5.783-5.784,5.783
	c-3.195,0-5.785-2.59-5.785-5.783c0-3.195,2.59-5.784,5.785-5.784C637.293,617.731,639.884,620.32,639.884,623.515"/>
<path fill-rule="evenodd" clip-rule="evenodd" fill="#2E78BC" d="M671.125,623.515c0,3.193-2.59,5.783-5.784,5.783
	s-5.785-2.59-5.785-5.783c0-3.195,2.591-5.784,5.785-5.784S671.125,620.32,671.125,623.515"/>
<path fill-rule="evenodd" clip-rule="evenodd" fill="#2E78BC" d="M702.366,623.515c0,3.193-2.591,5.783-5.784,5.783
	c-3.196,0-5.785-2.59-5.785-5.783c0-3.195,2.589-5.784,5.785-5.784C699.775,617.731,702.366,620.32,702.366,623.515"/>
<path fill-rule="evenodd" clip-rule="evenodd" fill="#2E78BC" d="M733.607,623.515c0,3.193-2.59,5.783-5.784,5.783
	s-5.784-2.59-5.784-5.783c0-3.195,2.59-5.784,5.784-5.784S733.607,620.32,733.607,623.515"/>
<path fill-rule="evenodd" clip-rule="evenodd" fill="#2E78BC" d="M421.194,655.136c0,3.195-2.59,5.784-5.784,5.784
	c-3.195,0-5.785-2.589-5.785-5.784c0-3.193,2.59-5.782,5.785-5.782C418.604,649.354,421.194,651.943,421.194,655.136"/>
<path fill-rule="evenodd" clip-rule="evenodd" fill="#2E78BC" d="M452.436,655.136c0,3.195-2.59,5.784-5.784,5.784
	c-3.194,0-5.784-2.589-5.784-5.784c0-3.193,2.59-5.782,5.784-5.782C449.846,649.354,452.436,651.943,452.436,655.136"/>
<path fill-rule="evenodd" clip-rule="evenodd" fill="#2E78BC" d="M483.677,655.136c0,3.195-2.589,5.784-5.784,5.784
	c-3.195,0-5.784-2.589-5.784-5.784c0-3.193,2.589-5.782,5.784-5.782C481.088,649.354,483.677,651.943,483.677,655.136"/>
<path fill-rule="evenodd" clip-rule="evenodd" fill="#2E78BC" d="M514.919,655.136c0,3.195-2.59,5.784-5.784,5.784
	c-3.195,0-5.784-2.589-5.784-5.784c0-3.193,2.589-5.782,5.784-5.782C512.329,649.354,514.919,651.943,514.919,655.136"/>
<path fill-rule="evenodd" clip-rule="evenodd" fill="#2E78BC" d="M546.159,655.136c0,3.195-2.589,5.784-5.783,5.784
	c-3.196,0-5.784-2.589-5.784-5.784c0-3.193,2.588-5.782,5.784-5.782C543.57,649.354,546.159,651.943,546.159,655.136"/>
<path fill-rule="evenodd" clip-rule="evenodd" fill="#2E78BC" d="M577.401,655.136c0,3.195-2.59,5.784-5.785,5.784
	c-3.192,0-5.784-2.589-5.784-5.784c0-3.193,2.592-5.782,5.784-5.782C574.812,649.354,577.401,651.943,577.401,655.136"/>
<path fill-rule="evenodd" clip-rule="evenodd" fill="#2E78BC" d="M608.643,655.136c0,3.195-2.59,5.784-5.785,5.784
	c-3.193,0-5.784-2.589-5.784-5.784c0-3.193,2.591-5.782,5.784-5.782C606.053,649.354,608.643,651.943,608.643,655.136"/>
<path fill-rule="evenodd" clip-rule="evenodd" fill="#2E78BC" d="M639.884,655.136c0,3.195-2.591,5.784-5.784,5.784
	c-3.195,0-5.785-2.589-5.785-5.784c0-3.193,2.59-5.782,5.785-5.782C637.293,649.354,639.884,651.943,639.884,655.136"/>
<path fill-rule="evenodd" clip-rule="evenodd" fill="#2E78BC" d="M671.125,655.136c0,3.195-2.59,5.784-5.784,5.784
	s-5.785-2.589-5.785-5.784c0-3.193,2.591-5.782,5.785-5.782S671.125,651.943,671.125,655.136"/>
<path fill-rule="evenodd" clip-rule="evenodd" fill="#2E78BC" d="M702.366,655.136c0,3.195-2.591,5.784-5.784,5.784
	c-3.196,0-5.785-2.589-5.785-5.784c0-3.193,2.589-5.782,5.785-5.782C699.775,649.354,702.366,651.943,702.366,655.136"/>
<path fill-rule="evenodd" clip-rule="evenodd" fill="#2E78BC" d="M733.607,655.136c0,3.195-2.59,5.784-5.784,5.784
	s-5.784-2.589-5.784-5.784c0-3.193,2.59-5.782,5.784-5.782S733.607,651.943,733.607,655.136"/>
<path fill-rule="evenodd" clip-rule="evenodd" fill="#2E78BC" d="M421.194,686.759c0,3.195-2.59,5.784-5.784,5.784
	c-3.195,0-5.785-2.589-5.785-5.784c0-3.194,2.59-5.783,5.785-5.783C418.604,680.976,421.194,683.565,421.194,686.759"/>
<path fill-rule="evenodd" clip-rule="evenodd" fill="#2E78BC" d="M452.436,686.759c0,3.195-2.59,5.784-5.784,5.784
	c-3.194,0-5.784-2.589-5.784-5.784c0-3.194,2.59-5.783,5.784-5.783C449.846,680.976,452.436,683.565,452.436,686.759"/>
<path fill-rule="evenodd" clip-rule="evenodd" fill="#2E78BC" d="M483.677,686.759c0,3.195-2.589,5.784-5.784,5.784
	c-3.195,0-5.784-2.589-5.784-5.784c0-3.194,2.589-5.783,5.784-5.783C481.088,680.976,483.677,683.565,483.677,686.759"/>
<path fill-rule="evenodd" clip-rule="evenodd" fill="#2E78BC" d="M514.919,686.759c0,3.195-2.59,5.784-5.784,5.784
	c-3.195,0-5.784-2.589-5.784-5.784c0-3.194,2.589-5.783,5.784-5.783C512.329,680.976,514.919,683.565,514.919,686.759"/>
<path fill-rule="evenodd" clip-rule="evenodd" fill="#2E78BC" d="M546.159,686.759c0,3.195-2.589,5.784-5.783,5.784
	c-3.196,0-5.784-2.589-5.784-5.784c0-3.194,2.588-5.783,5.784-5.783C543.57,680.976,546.159,683.565,546.159,686.759"/>
<path fill-rule="evenodd" clip-rule="evenodd" fill="#2E78BC" d="M577.401,686.759c0,3.195-2.59,5.784-5.785,5.784
	c-3.192,0-5.784-2.589-5.784-5.784c0-3.194,2.592-5.783,5.784-5.783C574.812,680.976,577.401,683.565,577.401,686.759"/>
<path fill-rule="evenodd" clip-rule="evenodd" fill="#2E78BC" d="M608.643,686.759c0,3.195-2.59,5.784-5.785,5.784
	c-3.193,0-5.784-2.589-5.784-5.784c0-3.194,2.591-5.783,5.784-5.783C606.053,680.976,608.643,683.565,608.643,686.759"/>
<path fill-rule="evenodd" clip-rule="evenodd" fill="#2E78BC" d="M639.884,686.759c0,3.195-2.591,5.784-5.784,5.784
	c-3.195,0-5.785-2.589-5.785-5.784c0-3.194,2.59-5.783,5.785-5.783C637.293,680.976,639.884,683.565,639.884,686.759"/>
<path fill-rule="evenodd" clip-rule="evenodd" fill="#2E78BC" d="M671.125,686.759c0,3.195-2.59,5.784-5.784,5.784
	s-5.785-2.589-5.785-5.784c0-3.194,2.591-5.783,5.785-5.783S671.125,683.565,671.125,686.759"/>
<path fill-rule="evenodd" clip-rule="evenodd" fill="#2E78BC" d="M702.366,686.759c0,3.195-2.591,5.784-5.784,5.784
	c-3.196,0-5.785-2.589-5.785-5.784c0-3.194,2.589-5.783,5.785-5.783C699.775,680.976,702.366,683.565,702.366,686.759"/>
<path fill-rule="evenodd" clip-rule="evenodd" fill="#2E78BC" d="M733.607,686.759c0,3.195-2.59,5.784-5.784,5.784
	s-5.784-2.589-5.784-5.784c0-3.194,2.59-5.783,5.784-5.783S733.607,683.565,733.607,686.759"/>
<path fill-rule="evenodd" clip-rule="evenodd" fill="none" stroke="#333333" stroke-width="16" stroke-miterlimit="10" d="
	M421.194,718.382c0,3.194-2.59,5.784-5.784,5.784c-3.195,0-5.785-2.59-5.785-5.784s2.59-5.783,5.785-5.783
	C418.604,712.599,421.194,715.188,421.194,718.382"/>
<path fill-rule="evenodd" clip-rule="evenodd" fill="#2E78BC" d="M452.436,718.382c0,3.194-2.59,5.784-5.784,5.784
	c-3.194,0-5.784-2.59-5.784-5.784s2.59-5.783,5.784-5.783C449.846,712.599,452.436,715.188,452.436,718.382"/>
<path fill-rule="evenodd" clip-rule="evenodd" fill="#2E78BC" d="M483.677,718.382c0,3.194-2.589,5.784-5.784,5.784
	c-3.195,0-5.784-2.59-5.784-5.784s2.589-5.783,5.784-5.783C481.088,712.599,483.677,715.188,483.677,718.382"/>
<path fill-rule="evenodd" clip-rule="evenodd" fill="#2E78BC" d="M514.919,718.382c0,3.194-2.59,5.784-5.784,5.784
	c-3.195,0-5.784-2.59-5.784-5.784s2.589-5.783,5.784-5.783C512.329,712.599,514.919,715.188,514.919,718.382"/>
<path fill-rule="evenodd" clip-rule="evenodd" fill="#2E78BC" d="M546.159,718.382c0,3.194-2.589,5.784-5.783,5.784
	c-3.196,0-5.784-2.59-5.784-5.784s2.588-5.783,5.784-5.783C543.57,712.599,546.159,715.188,546.159,718.382"/>
<path fill-rule="evenodd" clip-rule="evenodd" fill="#2E78BC" d="M577.401,718.382c0,3.194-2.59,5.784-5.785,5.784
	c-3.192,0-5.784-2.59-5.784-5.784s2.592-5.783,5.784-5.783C574.812,712.599,577.401,715.188,577.401,718.382"/>
<path fill-rule="evenodd" clip-rule="evenodd" fill="none" stroke="#E84125" stroke-width="16" stroke-miterlimit="10" d="
	M608.643,718.382c0,3.194-2.59,5.784-5.785,5.784c-3.193,0-5.784-2.59-5.784-5.784s2.591-5.783,5.784-5.783
	C606.053,712.599,608.643,715.188,608.643,718.382"/>
<path fill-rule="evenodd" clip-rule="evenodd" fill="#2E78BC" d="M639.884,718.382c0,3.194-2.591,5.784-5.784,5.784
	c-3.195,0-5.785-2.59-5.785-5.784s2.59-5.783,5.785-5.783C637.293,712.599,639.884,715.188,639.884,718.382"/>
<path fill-rule="evenodd" clip-rule="evenodd" fill="#2E78BC" d="M671.125,718.382c0,3.194-2.59,5.784-5.784,5.784
	s-5.785-2.59-5.785-5.784s2.591-5.783,5.785-5.783S671.125,715.188,671.125,718.382"/>
<path fill-rule="evenodd" clip-rule="evenodd" fill="#2E78BC" d="M702.366,718.382c0,3.194-2.591,5.784-5.784,5.784
	c-3.196,0-5.785-2.59-5.785-5.784s2.589-5.783,5.785-5.783C699.775,712.599,702.366,715.188,702.366,718.382"/>
<path fill-rule="evenodd" clip-rule="evenodd" fill="#2E78BC" d="M733.607,718.382c0,3.194-2.59,5.784-5.784,5.784
	s-5.784-2.59-5.784-5.784s2.59-5.783,5.784-5.783S733.607,715.188,733.607,718.382"/>
<rect x="200.588" y="313.976" fill="none" stroke="#2E78BC" stroke-width="7.134" stroke-miterlimit="10" width="25.104" height="376.007"/>
<rect x="200.588" y="253.574" fill="none" stroke="#2E78BC" stroke-width="6.576" stroke-miterlimit="10" width="188.199" height="25.105"/>
<rect x="176.737" y="795.321" fill="none" stroke="#2E78BC" stroke-width="7.134" stroke-miterlimit="10" width="125.104" height="25.106"/>
<rect x="467.394" y="253.574" fill="none" stroke="#2E78BC" stroke-width="7.134" stroke-miterlimit="10" width="250.207" height="25.105"/>
<rect x="483.676" y="451.782" fill="none" stroke="#2E78BC" stroke-width="7.134" stroke-miterlimit="10" width="56.698" height="56.698"/>
<rect x="645.668" y="396.165" fill="none" stroke="#2E78BC" stroke-width="7.134" stroke-miterlimit="10" width="56.698" height="28.349"/>
<rect x="727.823" y="333.144" fill="none" stroke="#2E78BC" stroke-width="7.134" stroke-miterlimit="10" width="56.694" height="28.349"/>
<rect x="727.823" y="459.199" fill="none" stroke="#2E78BC" stroke-width="7.134" stroke-miterlimit="10" width="56.694" height="28.349"/>
<rect x="324.856" y="798.834" fill="none" stroke="#2E78BC" stroke-width="7.134" stroke-miterlimit="10" width="170.711" height="65.626"/>
<rect x="550.68" y="798.834" fill="none" stroke="#2E78BC" stroke-width="7.134" stroke-miterlimit="10" width="170.711" height="65.626"/>
<rect x="806.338" y="396.165" fill="none" stroke="#2E78BC" stroke-width="7.134" stroke-miterlimit="10" width="56.698" height="28.349"/>
<rect x="348.35" y="835.173" fill-rule="evenodd" clip-rule="evenodd" fill="#2E78BC" width="7.531" height="7.531"/>
<rect x="377.22" y="835.173" fill-rule="evenodd" clip-rule="evenodd" fill="#2E78BC" width="7.531" height="7.531"/>
<rect x="406.09" y="835.173" fill-rule="evenodd" clip-rule="evenodd" fill="#2E78BC" width="7.532" height="7.531"/>
<rect x="434.96" y="835.173" fill-rule="evenodd" clip-rule="evenodd" fill="#2E78BC" width="7.531" height="7.531"/>
<rect x="463.83" y="835.173" fill-rule="evenodd" clip-rule="evenodd" fill="#2E78BC" width="7.531" height="7.531"/>
<rect x="573.88" y="835.173" fill-rule="evenodd" clip-rule="evenodd" fill="#2E78BC" width="7.531" height="7.531"/>
<rect x="602.75" y="835.173" fill-rule="evenodd" clip-rule="evenodd" fill="#2E78BC" width="7.532" height="7.531"/>
<rect x="631.621" y="835.173" fill-rule="evenodd" clip-rule="evenodd" fill="#2E78BC" width="7.53" height="7.531"/>
<rect x="660.492" y="835.173" fill-rule="evenodd" clip-rule="evenodd" fill="#2E78BC" width="7.529" height="7.531"/>
<rect x="689.363" y="835.173" fill-rule="evenodd" clip-rule="evenodd" fill="#2E78BC" width="7.528" height="7.531"/>
<rect x="754.352" y="803.263" fill-rule="evenodd" clip-rule="evenodd" fill="#2E78BC" width="7.531" height="7.529"/>
<rect x="788.133" y="803.263" fill-rule="evenodd" clip-rule="evenodd" fill="#2E78BC" width="7.531" height="7.529"/>
<rect x="186.911" y="739.442" fill-rule="evenodd" clip-rule="evenodd" fill="#2E78BC" width="7.531" height="7.531"/>
<rect x="220.689" y="739.442" fill-rule="evenodd" clip-rule="evenodd" fill="#2E78BC" width="7.532" height="7.531"/>
<rect x="819.458" y="803.263" fill-rule="evenodd" clip-rule="evenodd" fill="#2E78BC" width="7.531" height="7.529"/>
<line fill="none" stroke="#2E78BC" stroke-width="7.134" stroke-miterlimit="10" x1="208.015" y1="795.32" x2="208.015" y2="820.423"/>
<line fill="none" stroke="#2E78BC" stroke-width="7.134" stroke-miterlimit="10" x1="239.29" y1="795.32" x2="239.29" y2="820.423"/>
<line fill="none" stroke="#2E78BC" stroke-width="7.134" stroke-miterlimit="10" x1="270.566" y1="795.32" x2="270.566" y2="820.423"/>
<rect x="743.762" y="795.321" fill="none" stroke="#2E78BC" stroke-width="6.191" stroke-miterlimit="10" width="94.229" height="25.106"/>
<line fill="none" stroke="#2E78BC" stroke-width="7.134" stroke-miterlimit="10" x1="775.039" y1="795.32" x2="775.039" y2="820.423"/>
<line fill="none" stroke="#2E78BC" stroke-width="7.134" stroke-miterlimit="10" x1="806.315" y1="795.32" x2="806.315" y2="820.423"/>
<rect x="175.532" y="729.7" fill="none" stroke="#2E78BC" stroke-width="7.134" stroke-miterlimit="10" width="62.552" height="25.105"/>
<line fill="none" stroke="#2E78BC" stroke-width="7.134" stroke-miterlimit="10" x1="206.808" y1="729.7" x2="206.808" y2="754.805"/>
<line fill="none" stroke="#2E78BC" stroke-width="7.134" stroke-miterlimit="10" x1="225.692" y1="658.812" x2="200.588" y2="658.812"/>
<line fill="none" stroke="#2E78BC" stroke-width="7.134" stroke-miterlimit="10" x1="225.692" y1="626.737" x2="200.588" y2="626.737"/>
<line fill="none" stroke="#2E78BC" stroke-width="7.134" stroke-miterlimit="10" x1="225.692" y1="595.461" x2="200.588" y2="595.461"/>
<line fill="none" stroke="#2E78BC" stroke-width="7.134" stroke-miterlimit="10" x1="225.692" y1="564.185" x2="200.588" y2="564.185"/>
<line fill="none" stroke="#2E78BC" stroke-width="7.134" stroke-miterlimit="10" x1="225.692" y1="532.909" x2="200.588" y2="532.909"/>
<line fill="none" stroke="#2E78BC" stroke-width="7.134" stroke-miterlimit="10" x1="225.692" y1="501.634" x2="200.588" y2="501.634"/>
<line fill="none" stroke="#2E78BC" stroke-width="7.134" stroke-miterlimit="10" x1="225.692" y1="470.357" x2="200.588" y2="470.357"/>
<line fill="none" stroke="#2E78BC" stroke-width="7.134" stroke-miterlimit="10" x1="225.692" y1="439.081" x2="200.588" y2="439.081"/>
<line fill="none" stroke="#2E78BC" stroke-width="7.134" stroke-miterlimit="10" x1="225.692" y1="407.805" x2="200.588" y2="407.805"/>
<line fill="none" stroke="#2E78BC" stroke-width="7.134" stroke-miterlimit="10" x1="225.692" y1="376.529" x2="200.588" y2="376.529"/>
<line fill="none" stroke="#2E78BC" stroke-width="7.134" stroke-miterlimit="10" x1="225.692" y1="345.253" x2="200.588" y2="345.253"/>
<line fill="none" stroke="#2E78BC" stroke-width="7.134" stroke-miterlimit="10" x1="498.669" y1="278.679" x2="498.669" y2="253.575"/>
<line fill="none" stroke="#2E78BC" stroke-width="7.134" stroke-miterlimit="10" x1="356.968" y1="278.679" x2="356.968" y2="253.575"/>
<line fill="none" stroke="#2E78BC" stroke-width="7.134" stroke-miterlimit="10" x1="325.692" y1="278.679" x2="325.692" y2="253.575"/>
<line fill="none" stroke="#2E78BC" stroke-width="7.134" stroke-miterlimit="10" x1="294.416" y1="278.679" x2="294.416" y2="253.575"/>
<line fill="none" stroke="#2E78BC" stroke-width="7.134" stroke-miterlimit="10" x1="263.14" y1="278.679" x2="263.14" y2="253.575"/>
<line fill="none" stroke="#2E78BC" stroke-width="7.134" stroke-miterlimit="10" x1="231.863" y1="278.679" x2="231.863" y2="253.575"/>
<line fill="none" stroke="#2E78BC" stroke-width="7.134" stroke-miterlimit="10" x1="529.946" y1="278.679" x2="529.946" y2="253.575"/>
<line fill="none" stroke="#2E78BC" stroke-width="7.134" stroke-miterlimit="10" x1="561.222" y1="278.679" x2="561.222" y2="253.575"/>
<line fill="none" stroke="#2E78BC" stroke-width="7.134" stroke-miterlimit="10" x1="592.498" y1="278.679" x2="592.498" y2="253.575"/>
<line fill="none" stroke="#2E78BC" stroke-width="7.134" stroke-miterlimit="10" x1="623.774" y1="278.679" x2="623.774" y2="253.575"/>
<line fill="none" stroke="#2E78BC" stroke-width="7.134" stroke-miterlimit="10" x1="655.05" y1="278.679" x2="655.05" y2="253.575"/>
<line fill="none" stroke="#2E78BC" stroke-width="7.134" stroke-miterlimit="10" x1="686.327" y1="278.679" x2="686.327" y2="253.575"/>
<path fill="#2C78BC" d="M261.489,229.814v9.649h-3.404v-22.03h6.404c3.9,0,6.057,2.091,6.057,5.905c0,3.223-1.675,4.608-2.888,5.063
	c1.82,0.774,2.569,2.344,2.569,5.541v0.877c0,2.349,0.1,3.463,0.302,4.644h-3.332c-0.316-1.008-0.362-2.825-0.362-4.686v-0.783
	c0-3.011-0.663-4.18-3.319-4.18H261.489z M261.489,227.008h2.18c2.484,0,3.443-1.192,3.443-3.533c0-2.005-0.946-3.237-3.107-3.237
	h-2.516V227.008z M286.979,228.271c0,7.87-2.053,11.553-7.026,11.553c-4.673,0-6.836-3.602-6.836-11.57
	c0-7.798,2.524-11.159,6.993-11.159C284.828,217.095,286.979,220.684,286.979,228.271 M276.632,228.212
	c0,5.587,0.955,8.715,3.409,8.715c2.565,0,3.423-2.945,3.423-8.695c0-5.561-0.919-8.218-3.433-8.218
	C277.561,220.014,276.632,222.93,276.632,228.212 M290.194,217.433h6.382c3.643,0,5.718,2.068,5.718,5.509
	c0,2.838-1.359,4.165-2.601,4.62c1.596,0.621,3.267,2.088,3.267,5.43c0,4.111-2.612,6.471-6.497,6.471h-6.269V217.433z
	 M295.669,226.358c2.558,0,3.325-1.043,3.325-3.104c0-2.019-1.064-3.071-3.131-3.071h-2.31v6.175H295.669z M293.553,236.758h2.561
	c2.181,0,3.409-1.198,3.409-3.815c0-2.502-1.134-3.881-3.851-3.881h-2.119V236.758z M319.078,228.271
	c0,7.87-2.053,11.553-7.025,11.553c-4.673,0-6.836-3.602-6.836-11.57c0-7.798,2.524-11.159,6.992-11.159
	C316.928,217.095,319.078,220.684,319.078,228.271 M308.731,228.212c0,5.587,0.955,8.715,3.41,8.715
	c2.565,0,3.422-2.945,3.422-8.695c0-5.561-0.919-8.218-3.432-8.218C309.66,220.014,308.731,222.93,308.731,228.212 M324.762,220.443
	h-4.776v-3.01h12.98v3.01h-4.777v19.02h-3.427V220.443z M344.638,239.463h-3.427v-22.03h3.427V239.463z M348.724,239.463v-22.03
	h3.967c5.079,13.224,5.947,15.463,6.217,16.5h0.033c-0.176-2.754-0.196-6.021-0.196-9.621v-6.879h3.096v22.03h-3.801
	c-5.259-14.019-6.075-16.25-6.348-17.212h-0.033c0.163,2.728,0.173,6.096,0.173,10.049v7.163H348.724z M373.576,239.463h-3.427
	c0.001,0,5.176-22.03,5.177-22.03h4.442l5.267,22.03h-3.603l-1.277-6.039h-5.312L373.576,239.463z M379.525,230.437
	c-0.978-4.625-1.693-7.83-2.022-9.815h-0.088c-0.28,1.99-1.047,5.524-1.95,9.815H379.525z M405.7,233.157
	c-0.098,1.171-0.566,6.667-6.414,6.667c-6.127,0-6.752-5.741-6.752-11.449c0-6.885,1.955-11.28,6.999-11.28
	c5.659,0,6.059,4.997,6.138,6.618h-3.401c-0.056-0.748-0.137-3.68-2.792-3.68c-2.818,0-3.396,3.616-3.396,8.401
	c0,4.323,0.448,8.497,3.269,8.497c2.552,0,2.827-2.838,2.925-3.774H405.7z M410.489,239.463h-3.427l5.176-22.03h4.443l5.267,22.03
	h-3.603l-1.277-6.039h-5.311L410.489,239.463z M416.437,230.437c-0.978-4.625-1.693-7.83-2.021-9.815h-0.088
	c-0.28,1.99-1.047,5.524-1.95,9.815H416.437z M424.009,239.463v-22.03h3.967c5.079,13.224,5.948,15.463,6.217,16.5h0.033
	c-0.176-2.754-0.195-6.021-0.195-9.621v-6.879h3.095v22.03h-3.801c-5.258-14.019-6.075-16.25-6.348-17.212h-0.032
	c0.162,2.728,0.172,6.096,0.172,10.049v7.163H424.009z"/>
<path fill="#2C78BC" d="M372.277,474.64v-2.63c0.654-0.088,1.206-0.154,2.048-0.176c-1.672-0.895-2.409-2.277-2.409-4.387
	c0-4.659,4.379-6.181,11.277-6.181c7.886,0,11.453,2.583,11.453,7.226c0,5.733-4.97,6.069-6.28,6.134v-3.391
	c0.852-0.065,3.36-0.251,3.36-2.844c0-2.737-3.482-3.578-8.514-3.578c-5.263,0-8.399,0.679-8.399,3.393
	c0,2.392,1.903,3.039,5.617,3.039h1.181v-3.26h2.942v6.655H372.277z M383.469,513.991c-7.869,0-11.553-2.053-11.553-7.025
	c0-4.673,3.603-6.837,11.57-6.837c7.798,0,11.16,2.524,11.16,6.993C394.646,511.841,391.057,513.991,383.469,513.991
	 M394.308,484.539c0,3.577-2.178,6.188-6.409,6.188c-4.141,0-6.468-2.361-6.468-6.51v-2.555h-9.153v-3.427h22.03V484.539z
	 M394.308,496.85h-22.03v-3.428h22.03V496.85z M383.528,503.644c-5.587,0-8.715,0.955-8.715,3.41c0,2.564,2.945,3.421,8.696,3.421
	c5.56,0,8.217-0.918,8.217-3.431C391.727,504.573,388.811,503.644,383.528,503.644 M384.212,481.662v2.174
	c0,2.344,1.193,3.445,3.731,3.445c2.282,0,3.559-1.183,3.559-3.211v-2.408H384.212z"/>
<path fill="#2C78BC" d="M394.75,309.616h2.07v11.528h4.62l-0.224,1.777h-6.466V309.616z M404.753,322.921h-2.07v-13.305h2.07
	V322.921z M414.809,322.921h-1.588c-0.053-0.395-0.092-0.729-0.106-1.237c-0.54,1.01-1.376,1.455-2.649,1.455
	c-2.814,0-3.733-2.644-3.733-6.811c0-4.763,1.559-6.916,4.364-6.916c3.463,0,3.665,3.001,3.704,3.792h-2.047
	c-0.04-0.515-0.152-2.029-1.718-2.029c-1.653,0-2.161,2.102-2.161,5.141c0,3.18,0.41,5.074,2.049,5.074
	c1.444,0,1.835-1.15,1.835-3.394v-0.712h-1.968v-1.777h4.018V322.921z M416.979,309.616h2.07v5.382h3.585v-5.382h2.07v13.305h-2.07
	v-6.119h-3.585v6.119h-2.07V309.616z M428.903,311.434h-2.884v-1.818h7.839v1.818h-2.885v11.487h-2.07V311.434z"/>
<path fill="#2C78BC" d="M487.628,434.916v5.828h-2.056v-13.305h3.868c2.356,0,3.657,1.263,3.657,3.567
	c0,1.946-1.01,2.782-1.743,3.057c1.099,0.468,1.551,1.416,1.551,3.346v0.53c0,1.419,0.061,2.092,0.183,2.805h-2.013
	c-0.191-0.609-0.218-1.707-0.218-2.83v-0.473c0-1.819-0.401-2.525-2.005-2.525H487.628z M487.628,433.222h1.317
	c1.5,0,2.079-0.72,2.079-2.134c0-1.211-0.571-1.955-1.877-1.955h-1.519V433.222z M502.725,440.744h-1.588
	c-0.052-0.395-0.091-0.729-0.105-1.237c-0.541,1.01-1.376,1.455-2.649,1.455c-2.815,0-3.734-2.646-3.734-6.811
	c0-4.762,1.56-6.916,4.364-6.916c3.463,0,3.665,3.001,3.705,3.792h-2.048c-0.039-0.514-0.152-2.029-1.718-2.029
	c-1.652,0-2.161,2.102-2.161,5.142c0,3.179,0.411,5.073,2.05,5.073c1.444,0,1.835-1.15,1.835-3.393v-0.713h-1.969v-1.777h4.018
	V440.744z M504.882,427.439h3.854c2.2,0,3.453,1.249,3.453,3.327c0,1.714-0.821,2.516-1.571,2.791
	c0.964,0.375,1.974,1.26,1.974,3.279c0,2.482-1.578,3.908-3.925,3.908h-3.785V427.439z M508.188,432.829
	c1.546,0,2.009-0.63,2.009-1.875c0-1.219-0.643-1.854-1.891-1.854h-1.395v3.729H508.188z M506.91,439.11h1.547
	c1.317,0,2.058-0.723,2.058-2.304c0-1.511-0.684-2.344-2.325-2.344h-1.28V439.11z M518.17,427.439h2.07v11.528h4.62l-0.225,1.777
	h-6.465V427.439z M532.473,434.669h-4.328v4.284h4.841l-0.261,1.791h-6.622v-13.305h6.578v1.818h-4.536v3.607h4.328V434.669z
	 M534.488,427.439h3.293c3.302,0,4.645,2.176,4.645,6.353c0,4.501-1.263,6.952-4.838,6.952h-3.099V427.439z M536.572,439.036h0.978
	c2.056,0,2.742-1.582,2.742-5.221c0-3.221-0.686-4.64-2.723-4.64h-0.997V439.036z"/>
<path fill="#2C78BC" d="M388.688,400.277c0.112,1.193,0.628,2.206,1.928,2.206c1.248,0,1.774-0.744,1.774-1.919
	c0-1.198-0.548-1.871-2.274-2.698c-2.212-1.052-3.113-1.997-3.113-3.957c0-2.029,1.303-3.488,3.628-3.488
	c2.848,0,3.571,1.962,3.611,3.635h-2.029c-0.072-0.72-0.269-1.983-1.627-1.983c-1.058,0-1.521,0.703-1.521,1.661
	c0,1.066,0.475,1.566,2.071,2.314c2.367,1.106,3.363,2.19,3.363,4.333c0,2.093-1.257,3.755-3.944,3.755
	c-2.925,0-3.839-1.886-3.929-3.859H388.688z M402.613,397.849h-4.328v4.284h4.84l-0.261,1.791h-6.621V390.62h6.578v1.818h-4.536
	v3.608h4.328V397.849z M404.627,403.924V390.62h2.396c3.068,7.987,3.592,9.339,3.755,9.965h0.02
	c-0.106-1.663-0.118-3.637-0.118-5.81v-4.155h1.869v13.305h-2.296c-3.175-8.466-3.668-9.814-3.833-10.396h-0.02
	c0.098,1.648,0.104,3.682,0.104,6.07v4.326H404.627z M416.22,400.277c0.112,1.193,0.628,2.206,1.928,2.206
	c1.248,0,1.774-0.744,1.774-1.919c0-1.198-0.548-1.871-2.274-2.698c-2.212-1.052-3.113-1.997-3.113-3.957
	c0-2.029,1.302-3.488,3.629-3.488c2.848,0,3.57,1.962,3.61,3.635h-2.029c-0.073-0.72-0.269-1.983-1.627-1.983
	c-1.058,0-1.521,0.703-1.521,1.661c0,1.066,0.475,1.566,2.071,2.314c2.367,1.106,3.363,2.19,3.363,4.333
	c0,2.093-1.257,3.755-3.944,3.755c-2.925,0-3.838-1.886-3.929-3.859H416.22z M431.717,397.166c0,4.753-1.24,6.977-4.243,6.977
	c-2.822,0-4.128-2.176-4.128-6.988c0-4.709,1.524-6.739,4.223-6.739C430.418,390.416,431.717,392.583,431.717,397.166
	 M425.469,397.129c0,3.375,0.577,5.264,2.059,5.264c1.55,0,2.067-1.78,2.067-5.252c0-3.359-0.555-4.963-2.073-4.963
	C426.029,392.178,425.469,393.939,425.469,397.129 M435.728,398.096v5.828h-2.056V390.62h3.868c2.355,0,3.657,1.263,3.657,3.567
	c0,1.945-1.011,2.782-1.743,3.057c1.099,0.468,1.551,1.416,1.551,3.346v0.531c0,1.418,0.06,2.091,0.182,2.804h-2.012
	c-0.191-0.609-0.218-1.707-0.218-2.83v-0.473c0-1.819-0.401-2.525-2.005-2.525H435.728z M435.728,396.402h1.316
	c1.5,0,2.08-0.72,2.08-2.134c0-1.211-0.572-1.955-1.877-1.955h-1.519V396.402z"/>
<rect y="-0.005" fill="none" width="1078.75" height="1067.895"/>
<text transform="matrix(1 0 0 1 238.8955 342.0815)"><tspan x="0" y="0" fill="#2C78BC" font-family="'OCRAStd'" font-size="24.5465" letter-spacing="-1">3</tspan><tspan x="16.544" y="0" fill="#2C78BC" font-family="'OCRAStd'" font-size="24.5465">.</tspan></text>
<text transform="matrix(1 0 0 1 271.9351 342.0815)" fill="#2C78BC" font-family="'OCRAStd'" font-size="24.5465">3</text>
<text transform="matrix(1 0 0 1 288.3813 342.0815)" fill="#2C78BC" font-family="'OCRAStd'" font-size="24.5465"> </text>
<text transform="matrix(1 0 0 1 304.7783 342.0815)" fill="#2C78BC" font-family="'OCRAStd'" font-size="24.5465">V</text>
<text transform="matrix(1 0 0 1 238.8955 373.0103)" fill="#2C78BC" font-family="'OCRAStd'" font-size="24.5465">G</text>
<text transform="matrix(1 0 0 1 255.3906 373.0103)" fill="#2C78BC" font-family="'OCRAStd'" font-size="24.5465">N</text>
<text transform="matrix(1 0 0 1 271.8369 373.0103)" fill="#2C78BC" font-family="'OCRAStd'" font-size="24.5465">D</text>
<text transform="matrix(1 0 0 1 238.8955 434.8672)"><tspan x="0" y="0" fill="#2C78BC" font-family="'OCRAStd'" font-size="24.5465" letter-spacing="-1">4 </tspan><tspan x="33.088" y="0" fill="#2C78BC" font-family="'OCRAStd'" font-size="24.5465">(</tspan></text>
<text transform="matrix(1 0 0 1 288.4551 434.8672)" fill="#2C78BC" font-family="'OCRAStd'" font-size="24.5465">I</text>
<text transform="matrix(1 0 0 1 304.8765 434.8672)" fill="#2C78BC" font-family="'OCRAStd'" font-size="24.5465">O</text>
<text transform="matrix(1 0 0 1 321.249 434.8672)" fill="#2C78BC" font-family="'OCRAStd'" font-size="24.5465">)</text>
<text transform="matrix(1 0 0 1 238.8955 465.7959)"><tspan x="0" y="0" fill="#2C78BC" font-family="'OCRAStd'" font-size="24.5465" letter-spacing="-1">5 </tspan><tspan x="33.088" y="0" fill="#2C78BC" font-family="'OCRAStd'" font-size="24.5465">(</tspan></text>
<text transform="matrix(1 0 0 1 288.4551 465.7959)" fill="#2C78BC" font-family="'OCRAStd'" font-size="24.5465">P</text>
<text transform="matrix(1 0 0 1 304.8765 465.7959)" fill="#2C78BC" font-family="'OCRAStd'" font-size="24.5465">W</text>
<text transform="matrix(1 0 0 1 321.249 465.7959)" fill="#2C78BC" font-family="'OCRAStd'" font-size="24.5465">)</text>
<text transform="matrix(1 0 0 1 238.8955 496.7246)"><tspan x="0" y="0" fill="#2C78BC" font-family="'OCRAStd'" font-size="24.5465" letter-spacing="-1">10 </tspan><tspan x="49.633" y="0" fill="#2C78BC" font-family="'OCRAStd'" font-size="24.5465">(</tspan></text>
<text transform="matrix(1 0 0 1 304.9746 496.7246)" fill="#2C78BC" font-family="'OCRAStd'" font-size="24.5465">P</text>
<text transform="matrix(1 0 0 1 321.3716 496.7246)" fill="#2C78BC" font-family="'OCRAStd'" font-size="24.5465">W</text>
<text transform="matrix(1 0 0 1 337.7197 496.7246)" fill="#2C78BC" font-family="'OCRAStd'" font-size="24.5465">)</text>
<text transform="matrix(1 0 0 1 238.8955 527.6528)"><tspan x="0" y="0" fill="#2C78BC" font-family="'OCRAStd'" font-size="24.5465" letter-spacing="-1">16 </tspan><tspan x="49.633" y="0" fill="#2C78BC" font-family="'OCRAStd'" font-size="24.5465">(</tspan></text>
<text transform="matrix(1 0 0 1 304.9746 527.6528)" fill="#2C78BC" font-family="'OCRAStd'" font-size="24.5465">P</text>
<text transform="matrix(1 0 0 1 321.3716 527.6528)" fill="#2C78BC" font-family="'OCRAStd'" font-size="24.5465">W</text>
<text transform="matrix(1 0 0 1 337.7197 527.6528)" fill="#2C78BC" font-family="'OCRAStd'" font-size="24.5465">)</text>
<text transform="matrix(1 0 0 1 238.8955 558.5815)"><tspan x="0" y="0" fill="#2C78BC" font-family="'OCRAStd'" font-size="24.5465" letter-spacing="-1">14</tspan><tspan x="33.088" y="0" fill="#2C78BC" font-family="'OCRAStd'" font-size="24.5465"> </tspan></text>
<text transform="matrix(1 0 0 1 288.4551 558.5815)" fill="#2C78BC" font-family="'OCRAStd'" font-size="24.5465">(</text>
<text transform="matrix(1 0 0 1 304.8765 558.5815)" fill="#2C78BC" font-family="'OCRAStd'" font-size="24.5465">L</text>
<text transform="matrix(1 0 0 1 321.249 558.5815)" fill="#2C78BC" font-family="'OCRAStd'" font-size="24.5465">)</text>
<text transform="matrix(1 0 0 1 238.8955 589.5103)"><tspan x="0" y="0" fill="#2C78BC" font-family="'OCRAStd'" font-size="24.5465" letter-spacing="-1">12</tspan><tspan x="33.088" y="0" fill="#2C78BC" font-family="'OCRAStd'" font-size="24.5465"> </tspan></text>
<text transform="matrix(1 0 0 1 288.4551 589.5103)" fill="#2C78BC" font-family="'OCRAStd'" font-size="24.5465">(</text>
<text transform="matrix(1 0 0 1 304.8765 589.5103)" fill="#2C78BC" font-family="'OCRAStd'" font-size="24.5465">D</text>
<text transform="matrix(1 0 0 1 321.249 589.5103)" fill="#2C78BC" font-family="'OCRAStd'" font-size="24.5465">)</text>
<text transform="matrix(1 0 0 1 238.8955 620.439)"><tspan x="0" y="0" fill="#2C78BC" font-family="'OCRAStd'" font-size="24.5465" letter-spacing="-1">13</tspan><tspan x="33.088" y="0" fill="#2C78BC" font-family="'OCRAStd'" font-size="24.5465"> </tspan></text>
<text transform="matrix(1 0 0 1 288.4551 620.439)" fill="#2C78BC" font-family="'OCRAStd'" font-size="24.5465">(</text>
<text transform="matrix(1 0 0 1 304.8765 620.439)" fill="#2C78BC" font-family="'OCRAStd'" font-size="24.5465">C</text>
<text transform="matrix(1 0 0 1 321.249 620.439)" fill="#2C78BC" font-family="'OCRAStd'" font-size="24.5465">)</text>
<text transform="matrix(1 0 0 1 739.6445 322.4443)" fill="#2C78BC" font-family="'OCRAStd'" font-size="24.5465">S</text>
<text transform="matrix(1 0 0 1 756.1152 322.4443)" fill="#2C78BC" font-family="'OCRAStd'" font-size="24.5465">1</text>
<text transform="matrix(1 0 0 1 739.6445 516.3618)" fill="#2C78BC" font-family="'OCRAStd'" font-size="24.5465">S</text>
<text transform="matrix(1 0 0 1 756.1152 516.3618)" fill="#2C78BC" font-family="'OCRAStd'" font-size="24.5465">3</text>
<text transform="matrix(1 0 0 1 658.6406 452.5405)" fill="#2C78BC" font-family="'OCRAStd'" font-size="24.5465">S</text>
<text transform="matrix(1 0 0 1 675.1113 452.5405)" fill="#2C78BC" font-family="'OCRAStd'" font-size="24.5465">4</text>
<text transform="matrix(1 0 0 1 820.6475 452.5405)" fill="#2C78BC" font-family="'OCRAStd'" font-size="24.5465">S</text>
<text transform="matrix(1 0 0 1 837.1182 452.5405)" fill="#2C78BC" font-family="'OCRAStd'" font-size="24.5465">2</text>
<text transform="matrix(1 0 0 1 241.3481 651.3667)"><tspan x="0" y="0" fill="#2C78BC" font-family="'OCRAStd'" font-size="17.1826">0 (12</tspan><tspan x="57.903" y="0" fill="#2C78BC" font-family="'OCRAStd'" font-size="17.1826">C</tspan></text>
<text transform="matrix(1 0 0 1 310.7314 651.3667)" fill="#2C78BC" font-family="'OCRAStd'" font-size="17.1826">-</text>
<text transform="matrix(1 0 0 1 322.1748 651.3667)" fill="#2C78BC" font-family="'OCRAStd'" font-size="17.1826">D</text>
<text transform="matrix(1 0 0 1 333.5845 651.3667)" fill="#2C78BC" font-family="'OCRAStd'" font-size="17.1826">)</text>
<text transform="matrix(1 0 0 1 241.3481 682.2954)"><tspan x="0" y="0" fill="#2C78BC" font-family="'OCRAStd'" font-size="17.1826">2 (12</tspan><tspan x="57.903" y="0" fill="#2C78BC" font-family="'OCRAStd'" font-size="17.1826">C</tspan></text>
<text transform="matrix(1 0 0 1 310.7314 682.2954)" fill="#2C78BC" font-family="'OCRAStd'" font-size="17.1826">-</text>
<text transform="matrix(1 0 0 1 322.1748 682.2954)" fill="#2C78BC" font-family="'OCRAStd'" font-size="17.1826">D</text>
<text transform="matrix(1 0 0 1 333.5845 682.2954)" fill="#2C78BC" font-family="'OCRAStd'" font-size="17.1826">)</text>
<text transform="matrix(1 0 0 1 174.6626 717.6401)"><tspan x="0" y="0" fill="#2C78BC" font-family="'OCRAStd'" font-size="17.1826">V +</tspan><tspan x="34.742" y="0" fill="#2C78BC" font-family="'OCRAStd'" font-size="17.1826"> </tspan></text>
<text transform="matrix(1 0 0 1 220.918 717.6401)" fill="#2C78BC" font-family="'OCRAStd'" font-size="17.1826">G</text>
<text transform="matrix(1 0 0 1 232.396 717.6401)" fill="#2C78BC" font-family="'OCRAStd'" font-size="17.1826">N</text>
<text transform="matrix(1 0 0 1 243.8394 717.6401)" fill="#2C78BC" font-family="'OCRAStd'" font-size="17.1826">D</text>
<text transform="matrix(1 0 0 1 177.5317 786.3706)" fill="#2C78BC" font-family="'OCRAStd'" font-size="17.1826">C</text>
<text transform="matrix(1 0 0 1 189.0615 786.3706)" fill="#2C78BC" font-family="'OCRAStd'" font-size="17.1826">K</text>
<text transform="matrix(1 0 0 1 275.7134 786.3706)" fill="#2C78BC" font-family="'OCRAStd'" font-size="17.1826">C</text>
<text transform="matrix(1 0 0 1 287.2427 786.3706)" fill="#2C78BC" font-family="'OCRAStd'" font-size="17.1826">O</text>
<text transform="matrix(1 0 0 1 243.8052 786.3706)" fill="#2C78BC" font-family="'OCRAStd'" font-size="17.1826">M</text>
<text transform="matrix(1 0 0 1 255.335 786.3706)" fill="#2C78BC" font-family="'OCRAStd'" font-size="17.1826">I</text>
<text transform="matrix(1 0 0 1 211.897 786.3706)" fill="#2C78BC" font-family="'OCRAStd'" font-size="17.1826">M</text>
<text transform="matrix(1 0 0 1 223.4268 786.3706)" fill="#2C78BC" font-family="'OCRAStd'" font-size="17.1826">O</text>
<text transform="matrix(1 0 0 1 869.1006 732.7378)" fill="#2E78BC" font-family="'Nunito-ExtraBold'" font-size="34.2443">0</text>
<text transform="matrix(1 0 0 1 869.1006 614.0132)" fill="#2E78BC" font-family="'Nunito-ExtraBold'" font-size="34.2443">1</text>
<g>
	<defs>
		<rect id="SVGID_1_" y="96.192" width="1078.75" height="971.698"/>
	</defs>
	<clipPath id="SVGID_2_">
		<use xlink:href="#SVGID_1_"  overflow="visible"/>
	</clipPath>
	<path clip-path="url(#SVGID_2_)" fill="none" stroke="#2C78BC" stroke-width="3.034" stroke-miterlimit="10" d="M199.368,310.49
		h129.688c20.026,0,36.411,16.385,36.411,36.41v310.107c0,20.023-16.385,36.409-36.411,36.409H199.368"/>
	<rect x="226.78" y="376.766" clip-path="url(#SVGID_2_)" fill="#2C78BC" width="137.46" height="31.91"/>
</g>
<text transform="matrix(1 0 0 1 278.168 403.4487)" fill="#FFFFFF" font-family="'OCRAStd'" font-size="26.1943">A</text>
<text transform="matrix(1 0 0 1 295.7441 403.4487)" fill="#FFFFFF" font-family="'OCRAStd'" font-size="26.1943">O</text>
<g>
	<defs>
		<rect id="SVGID_3_" y="96.192" width="1078.75" height="971.698"/>
	</defs>
	<clipPath id="SVGID_4_">
		<use xlink:href="#SVGID_3_"  overflow="visible"/>
	</clipPath>
	
		<line clip-path="url(#SVGID_4_)" fill="none" stroke="#2C78BC" stroke-width="2.455" stroke-miterlimit="10" x1="225.551" y1="532.637" x2="365.467" y2="532.637"/>
	
		<line clip-path="url(#SVGID_4_)" fill="none" stroke="#2C78BC" stroke-width="2.455" stroke-miterlimit="10" x1="225.551" y1="624.686" x2="365.467" y2="624.686"/>
	<path clip-path="url(#SVGID_4_)" fill="none" stroke="#2E78BC" stroke-width="7.134" stroke-miterlimit="10" d="M443.916,357.372
		c0-10.333-5.356-19.464-13.42-24.789h-32.557c-8.065,5.325-13.42,14.456-13.42,24.789c0,9.296,4.336,17.62,11.078,23.076h37.241
		C439.579,374.992,443.916,366.667,443.916,357.372z"/>
</g>
<path fill="#2C78BC" d="M610.746,508.442h3.852c2.202,0,3.455,1.249,3.455,3.327c0,1.714-0.821,2.516-1.571,2.791
	c0.964,0.375,1.975,1.26,1.975,3.279c0,2.483-1.578,3.908-3.925,3.908h-3.785V508.442z M614.052,513.833
	c1.545,0,2.007-0.63,2.007-1.875c0-1.219-0.641-1.855-1.889-1.855h-1.396v3.73H614.052z M612.773,520.114h1.547
	c1.317,0,2.06-0.724,2.06-2.304c0-1.511-0.686-2.344-2.326-2.344h-1.28V520.114z M622.222,515.92v5.827h-2.056v-13.305h3.868
	c2.354,0,3.656,1.263,3.656,3.567c0,1.946-1.011,2.783-1.743,3.057c1.1,0.468,1.552,1.416,1.552,3.347v0.53
	c0,1.418,0.06,2.091,0.182,2.804h-2.012c-0.191-0.608-0.219-1.706-0.219-2.829v-0.474c0-1.818-0.4-2.524-2.005-2.524H622.222z
	 M622.222,514.225h1.316c1.5,0,2.079-0.719,2.079-2.133c0-1.211-0.571-1.955-1.876-1.955h-1.52V514.225z M635.98,515.672h-4.328
	v4.285h4.842l-0.263,1.79h-6.621v-13.305h6.578v1.819h-4.536v3.607h4.328V515.672z M639.514,521.747h-2.07l3.127-13.305h2.684
	l3.18,13.305h-2.175l-0.771-3.647h-3.21L639.514,521.747z M643.105,516.296c-0.592-2.793-1.021-4.729-1.22-5.927h-0.053
	c-0.169,1.202-0.633,3.336-1.179,5.927H643.105z M647.676,508.442h3.292c3.3,0,4.647,2.176,4.647,6.354
	c0,4.501-1.267,6.951-4.843,6.951h-3.097V508.442z M649.759,520.039h0.977c2.058,0,2.741-1.581,2.741-5.22
	c0-3.221-0.683-4.641-2.721-4.641h-0.997V520.039z M657.539,508.442h3.854c2.201,0,3.454,1.249,3.454,3.327
	c0,1.714-0.821,2.516-1.571,2.791c0.965,0.375,1.974,1.26,1.974,3.279c0,2.483-1.577,3.908-3.924,3.908h-3.786V508.442z
	 M660.846,513.833c1.543,0,2.006-0.63,2.006-1.875c0-1.219-0.64-1.855-1.889-1.855h-1.396v3.73H660.846z M659.566,520.114h1.547
	c1.317,0,2.061-0.724,2.061-2.304c0-1.511-0.686-2.344-2.326-2.344h-1.281V520.114z M674.982,514.988
	c0,4.753-1.238,6.978-4.242,6.978c-2.822,0-4.129-2.176-4.129-6.989c0-4.709,1.525-6.739,4.224-6.739
	C673.684,508.238,674.982,510.406,674.982,514.988 M668.733,514.952c0,3.375,0.577,5.264,2.061,5.264
	c1.549,0,2.065-1.779,2.065-5.252c0-3.359-0.554-4.963-2.071-4.963C669.296,510.001,668.733,511.763,668.733,514.952
	 M677.845,521.747h-2.071l3.126-13.305h2.685l3.18,13.305h-2.175l-0.772-3.647h-3.208L677.845,521.747z M681.436,516.296
	c-0.59-2.793-1.021-4.729-1.22-5.927h-0.053c-0.169,1.202-0.634,3.336-1.179,5.927H681.436z M688.063,515.92v5.827h-2.055v-13.305
	h3.868c2.354,0,3.657,1.263,3.657,3.567c0,1.946-1.013,2.783-1.744,3.057c1.1,0.468,1.552,1.416,1.552,3.347v0.53
	c0,1.418,0.06,2.091,0.182,2.804h-2.012c-0.191-0.608-0.219-1.706-0.219-2.829v-0.474c0-1.818-0.403-2.524-2.004-2.524H688.063z
	 M688.063,514.225h1.317c1.5,0,2.08-0.719,2.08-2.133c0-1.211-0.572-1.955-1.877-1.955h-1.521V514.225z M695.453,508.442h3.292
	c3.303,0,4.645,2.176,4.645,6.354c0,4.501-1.262,6.951-4.838,6.951h-3.099V508.442z M697.537,520.039h0.977
	c2.057,0,2.742-1.581,2.742-5.22c0-3.221-0.686-4.641-2.723-4.641h-0.996V520.039z"/>
<rect x="855.45" y="624.162" fill="none" stroke="#2E78BC" stroke-width="7.134" stroke-miterlimit="10" width="31.241" height="73.518"/>
<rect x="886.691" y="630.908" fill-rule="evenodd" clip-rule="evenodd" fill="#2E78BC" width="13.109" height="13.11"/>
<rect y="-0.005" fill="none" width="1078.75" height="1067.895"/>
<path fill="none" stroke="#FBAF19" stroke-width="16" stroke-miterlimit="10" d="M213.254,391.824
	c-21.554,2.962-64.375-3.56-78.424-18.53c-17.833-19.001-18.012-54.504-17.83-73.001c0.389-39.281,11.976-96.174,33.553-129
	c24.979-38,81.31-75.101,145.191-75.101c61.224,0,110.346,34.309,141.382,71.807c40.925,49.447,78.821,361.889,72.009,421.511"/>
<rect y="-0.005" fill="none" width="1078.75" height="1067.895"/>
<g>
	<defs>
		<path id="SVGID_5_" d="M411.761,657.59c0,0-1.525-1.886,0-4.894l8.838-0.457c0,0,1.681,0.126,3.762-2.161
			c2.08-2.298,2.647-10.13,10.461-10.599c7.821-0.469,10.542,1.646,14.709,1.727c4.167,0.092,30.081,0,30.081,0
			s8.398-2.858,12.594-2.813c4.196,0.045,9.341,4.161,10.107,9.249c0,0,1.715,5.282,5.528,5.088l3.539-0.491
			c0,0,3.676,1.806,0.257,5.351c-3.414,3.533-0.863,0-0.863,0h-3.888c0,0-4.024,1.841-4.493,8.221
			c-0.464,6.368-9.616,6.037-9.616,6.037s-10.142-1.189-14.698-2.527c-4.556-1.338-28.548,0.194-28.548,0.194
			s-6.506,1.99-12.229,2.333c-5.716,0.331-9.489-1.716-12.942-12.326l-1.567-1.932"/>
	</defs>
	<clipPath id="SVGID_6_">
		<use xlink:href="#SVGID_5_"  overflow="visible"/>
	</clipPath>
	<g clip-path="url(#SVGID_6_)">
		
			<image overflow="visible" width="318" height="159" xlink:href="7DF50E8A.jpg"  transform="matrix(0.7929 0 0 0.7929 343.9849 612.0171)">
		</image>
	</g>
	<use xlink:href="#SVGID_5_"  overflow="visible" fill="none" stroke="#898989" stroke-width="5.8539" stroke-miterlimit="10"/>
</g>
<rect x="435.743" y="641.435" fill="#E61E25" width="8.809" height="27.646"/>
<rect x="450.052" y="644.213" fill="#E61E25" width="7.048" height="22.135"/>
<rect x="462.96" y="644.213" fill="#8C6828" width="7.042" height="22.135"/>
<rect x="487.725" y="641.435" fill="#A39191" width="7.558" height="27.074"/>
<g>
	<defs>
		<path id="SVGID_7_" d="M512.703,689.213c0,0-1.525-1.886,0-4.894l8.838-0.457c0,0,1.681,0.126,3.762-2.161
			c2.08-2.298,2.646-10.13,10.461-10.599c7.821-0.469,10.542,1.646,14.709,1.727c4.168,0.092,30.081,0,30.081,0
			s8.398-2.858,12.595-2.813c4.195,0.045,9.341,4.161,10.106,9.249c0,0,1.715,5.282,5.528,5.088l3.539-0.491
			c0,0,3.676,1.806,0.257,5.351c-3.413,3.533-0.863,0-0.863,0h-3.888c0,0-4.024,1.841-4.492,8.221
			c-0.465,6.368-9.616,6.037-9.616,6.037s-10.142-1.189-14.698-2.527c-4.556-1.338-28.549,0.194-28.549,0.194
			s-6.506,1.99-12.229,2.333c-5.715,0.331-9.488-1.716-12.941-12.326l-1.566-1.932"/>
	</defs>
	<clipPath id="SVGID_8_">
		<use xlink:href="#SVGID_7_"  overflow="visible"/>
	</clipPath>
	<g transform="matrix(1 0 0 1 3.051758e-005 0)" clip-path="url(#SVGID_8_)">
		
			<image overflow="visible" width="318" height="159" xlink:href="7DF50E8E.jpg"  transform="matrix(0.7929 0 0 0.7929 444.9263 643.6401)">
		</image>
	</g>
	<use xlink:href="#SVGID_7_"  overflow="visible" fill="none" stroke="#898989" stroke-width="5.8539" stroke-miterlimit="10"/>
</g>
<rect x="536.685" y="673.058" fill="#E61E25" width="8.81" height="27.646"/>
<rect x="550.993" y="675.836" fill="#E61E25" width="7.048" height="22.135"/>
<rect x="563.902" y="675.836" fill="#8C6828" width="7.041" height="22.135"/>
<rect x="588.666" y="673.058" fill="#A39191" width="7.558" height="27.074"/>
<path fill-rule="evenodd" clip-rule="evenodd" fill="none" stroke="#333333" stroke-width="16" stroke-miterlimit="10" d="
	M213.14,359.39c0,0,208.681-146.995,202.271,232.22"/>
<path fill="none" stroke="#333333" stroke-width="16" stroke-miterlimit="10" d="M415.555,717.64c0,0,17.931,305.25-128.312,301.25"
	/>
<path fill="none" stroke="#E84125" stroke-width="16" stroke-miterlimit="10" d="M602.857,717.64c0,0-36.568,316.25,136.787,306.25"
	/>
</svg>
