<?xml version="1.0" encoding="utf-8"?>
<!-- Generator: Adobe Illustrator 16.0.0, SVG Export Plug-In . SVG Version: 6.00 Build 0)  -->
<!DOCTYPE svg PUBLIC "-//W3C//DTD SVG 1.1//EN" "http://www.w3.org/Graphics/SVG/1.1/DTD/svg11.dtd">
<svg version="1.1" id="Layer_1" xmlns="http://www.w3.org/2000/svg" xmlns:xlink="http://www.w3.org/1999/xlink" x="0px" y="0px"
	 width="1210px" height="1178px" viewBox="0 0 1210 1178" enable-background="new 0 0 1210 1178" xml:space="preserve">
<g>
	<g>
		<defs>
			<rect id="SVGID_1_" x="539.947" y="345.945" width="90.843" height="90.843"/>
		</defs>
		<clipPath id="SVGID_2_">
			<use xlink:href="#SVGID_1_"  overflow="visible"/>
		</clipPath>
		
			<rect x="541.947" y="347.945" clip-path="url(#SVGID_2_)" fill-rule="evenodd" clip-rule="evenodd" fill="#FFEAB6" width="86.843" height="86.843"/>
		
			<rect x="541.947" y="347.945" clip-path="url(#SVGID_2_)" fill="none" stroke="#FF9425" stroke-width="4" stroke-miterlimit="10" width="86.843" height="86.843"/>
	</g>
</g>
<g>
	<defs>
		<rect id="SVGID_3_" y="0.001" width="1210" height="1177.999"/>
	</defs>
	<clipPath id="SVGID_4_">
		<use xlink:href="#SVGID_3_"  overflow="visible"/>
	</clipPath>
</g>
<g>
	<defs>
		<rect id="SVGID_5_" width="1210" height="1178"/>
	</defs>
	<clipPath id="SVGID_6_">
		<use xlink:href="#SVGID_5_"  overflow="visible"/>
	</clipPath>
	<path clip-path="url(#SVGID_6_)" fill="none" stroke="#2C77BC" stroke-width="7.153" stroke-miterlimit="10" d="M870.037,812.949
		H337.231c-65.979,0-119.962-53.983-119.962-119.962V230.658c0-65.98,53.983-119.963,119.962-119.963h532.806
		c65.979,0,119.963,53.983,119.963,119.963v462.329C990,758.966,936.017,812.949,870.037,812.949z"/>
	<polygon clip-path="url(#SVGID_6_)" fill="none" stroke="#2C77BC" stroke-width="7.153" stroke-miterlimit="10" points="
		496.501,468.383 496.501,442.438 796.868,444.562 796.868,468.383 835.462,468.383 835.462,666.003 798.546,666.003 
		798.546,691.174 496.501,691.174 496.501,669.358 457.906,669.358 457.906,468.383 	"/>
	<path clip-path="url(#SVGID_6_)" fill-rule="evenodd" clip-rule="evenodd" fill="#2C77BC" d="M497.026,504.53
		c0,3.203-2.597,5.799-5.799,5.799c-3.203,0-5.8-2.596-5.8-5.799c0-3.203,2.597-5.8,5.8-5.8
		C494.429,498.73,497.026,501.327,497.026,504.53"/>
	<path clip-path="url(#SVGID_6_)" fill-rule="evenodd" clip-rule="evenodd" fill="#2C77BC" d="M528.35,504.53
		c0,3.203-2.596,5.799-5.799,5.799c-3.203,0-5.8-2.596-5.8-5.799c0-3.203,2.597-5.8,5.8-5.8
		C525.753,498.73,528.35,501.327,528.35,504.53"/>
	<path clip-path="url(#SVGID_6_)" fill-rule="evenodd" clip-rule="evenodd" fill="#2C77BC" d="M559.672,504.53
		c0,3.203-2.596,5.799-5.799,5.799s-5.8-2.596-5.8-5.799c0-3.203,2.597-5.8,5.8-5.8S559.672,501.327,559.672,504.53"/>
	<path clip-path="url(#SVGID_6_)" fill-rule="evenodd" clip-rule="evenodd" fill="#2C77BC" d="M590.996,504.53
		c0,3.203-2.597,5.799-5.8,5.799c-3.202,0-5.799-2.596-5.799-5.799c0-3.203,2.597-5.8,5.799-5.8
		C588.398,498.73,590.996,501.327,590.996,504.53"/>
	<path clip-path="url(#SVGID_6_)" fill-rule="evenodd" clip-rule="evenodd" fill="#2C77BC" d="M622.318,504.53
		c0,3.203-2.597,5.799-5.799,5.799c-3.203,0-5.8-2.596-5.8-5.799c0-3.203,2.597-5.8,5.8-5.8
		C619.722,498.73,622.318,501.327,622.318,504.53"/>
	<path clip-path="url(#SVGID_6_)" fill-rule="evenodd" clip-rule="evenodd" fill="#2C77BC" d="M653.642,504.53
		c0,3.203-2.597,5.799-5.799,5.799c-3.203,0-5.8-2.596-5.8-5.799c0-3.203,2.597-5.8,5.8-5.8
		C651.045,498.73,653.642,501.327,653.642,504.53"/>
	<path clip-path="url(#SVGID_6_)" fill-rule="evenodd" clip-rule="evenodd" fill="#2C77BC" d="M684.965,504.53
		c0,3.203-2.596,5.799-5.799,5.799s-5.8-2.596-5.8-5.799c0-3.203,2.597-5.8,5.8-5.8S684.965,501.327,684.965,504.53"/>
	<path clip-path="url(#SVGID_6_)" fill-rule="evenodd" clip-rule="evenodd" fill="#2C77BC" d="M716.288,504.53
		c0,3.203-2.597,5.799-5.8,5.799c-3.202,0-5.799-2.596-5.799-5.799c0-3.203,2.597-5.8,5.799-5.8
		C713.691,498.73,716.288,501.327,716.288,504.53"/>
	<path clip-path="url(#SVGID_6_)" fill-rule="evenodd" clip-rule="evenodd" fill="#2C77BC" d="M747.611,504.53
		c0,3.203-2.597,5.799-5.8,5.799c-3.202,0-5.799-2.596-5.799-5.799c0-3.203,2.597-5.8,5.799-5.8
		C745.015,498.73,747.611,501.327,747.611,504.53"/>
	<path clip-path="url(#SVGID_6_)" fill-rule="evenodd" clip-rule="evenodd" fill="#2C77BC" d="M778.935,504.53
		c0,3.203-2.597,5.799-5.799,5.799c-3.203,0-5.8-2.596-5.8-5.799c0-3.203,2.597-5.8,5.8-5.8
		C776.338,498.73,778.935,501.327,778.935,504.53"/>
	<path clip-path="url(#SVGID_6_)" fill-rule="evenodd" clip-rule="evenodd" fill="#2C77BC" d="M810.258,504.53
		c0,3.203-2.597,5.799-5.8,5.799s-5.799-2.596-5.799-5.799c0-3.203,2.596-5.8,5.799-5.8S810.258,501.327,810.258,504.53"/>
	<path clip-path="url(#SVGID_6_)" fill-rule="evenodd" clip-rule="evenodd" fill="#2C77BC" d="M497.026,536.235
		c0,3.203-2.597,5.799-5.799,5.799c-3.203,0-5.8-2.596-5.8-5.799c0-3.203,2.597-5.8,5.8-5.8
		C494.429,530.436,497.026,533.033,497.026,536.235"/>
	<path clip-path="url(#SVGID_6_)" fill-rule="evenodd" clip-rule="evenodd" fill="#2C77BC" d="M528.35,536.235
		c0,3.203-2.596,5.799-5.799,5.799c-3.203,0-5.8-2.596-5.8-5.799c0-3.203,2.597-5.8,5.8-5.8
		C525.753,530.436,528.35,533.033,528.35,536.235"/>
	<path clip-path="url(#SVGID_6_)" fill-rule="evenodd" clip-rule="evenodd" fill="#2C77BC" d="M559.672,536.235
		c0,3.203-2.596,5.799-5.799,5.799s-5.8-2.596-5.8-5.799c0-3.203,2.597-5.8,5.8-5.8S559.672,533.033,559.672,536.235"/>
	<path clip-path="url(#SVGID_6_)" fill-rule="evenodd" clip-rule="evenodd" fill="#2C77BC" d="M590.996,536.235
		c0,3.203-2.597,5.799-5.8,5.799c-3.202,0-5.799-2.596-5.799-5.799c0-3.203,2.597-5.8,5.799-5.8
		C588.398,530.436,590.996,533.033,590.996,536.235"/>
	<path clip-path="url(#SVGID_6_)" fill-rule="evenodd" clip-rule="evenodd" fill="#2C77BC" d="M622.318,536.235
		c0,3.203-2.597,5.799-5.799,5.799c-3.203,0-5.8-2.596-5.8-5.799c0-3.203,2.597-5.8,5.8-5.8
		C619.722,530.436,622.318,533.033,622.318,536.235"/>
	<path clip-path="url(#SVGID_6_)" fill-rule="evenodd" clip-rule="evenodd" fill="#2C77BC" d="M653.642,536.235
		c0,3.203-2.597,5.799-5.799,5.799c-3.203,0-5.8-2.596-5.8-5.799c0-3.203,2.597-5.8,5.8-5.8
		C651.045,530.436,653.642,533.033,653.642,536.235"/>
	<path clip-path="url(#SVGID_6_)" fill-rule="evenodd" clip-rule="evenodd" fill="#2C77BC" d="M684.965,536.235
		c0,3.203-2.596,5.799-5.799,5.799s-5.8-2.596-5.8-5.799c0-3.203,2.597-5.8,5.8-5.8S684.965,533.033,684.965,536.235"/>
	<path clip-path="url(#SVGID_6_)" fill-rule="evenodd" clip-rule="evenodd" fill="#2C77BC" d="M716.288,536.235
		c0,3.203-2.597,5.799-5.8,5.799c-3.202,0-5.799-2.596-5.799-5.799c0-3.203,2.597-5.8,5.799-5.8
		C713.691,530.436,716.288,533.033,716.288,536.235"/>
	<path clip-path="url(#SVGID_6_)" fill-rule="evenodd" clip-rule="evenodd" fill="#2C77BC" d="M747.611,536.235
		c0,3.203-2.597,5.799-5.8,5.799c-3.202,0-5.799-2.596-5.799-5.799c0-3.203,2.597-5.8,5.799-5.8
		C745.015,530.436,747.611,533.033,747.611,536.235"/>
	<path clip-path="url(#SVGID_6_)" fill-rule="evenodd" clip-rule="evenodd" fill="#2C77BC" d="M778.935,536.235
		c0,3.203-2.597,5.799-5.799,5.799c-3.203,0-5.8-2.596-5.8-5.799c0-3.203,2.597-5.8,5.8-5.8
		C776.338,530.436,778.935,533.033,778.935,536.235"/>
	<path clip-path="url(#SVGID_6_)" fill-rule="evenodd" clip-rule="evenodd" fill="#2C77BC" d="M810.258,536.235
		c0,3.203-2.597,5.799-5.8,5.799s-5.799-2.596-5.799-5.799c0-3.203,2.596-5.8,5.799-5.8S810.258,533.033,810.258,536.235"/>
	<path clip-path="url(#SVGID_6_)" fill-rule="evenodd" clip-rule="evenodd" fill="#2C77BC" d="M497.026,567.941
		c0,3.203-2.597,5.799-5.799,5.799c-3.203,0-5.8-2.596-5.8-5.799c0-3.203,2.597-5.8,5.8-5.8
		C494.429,562.141,497.026,564.738,497.026,567.941"/>
	<path clip-path="url(#SVGID_6_)" fill-rule="evenodd" clip-rule="evenodd" fill="#2C77BC" d="M528.35,567.941
		c0,3.203-2.596,5.799-5.799,5.799c-3.203,0-5.8-2.596-5.8-5.799c0-3.203,2.597-5.8,5.8-5.8
		C525.753,562.141,528.35,564.738,528.35,567.941"/>
	<path clip-path="url(#SVGID_6_)" fill-rule="evenodd" clip-rule="evenodd" fill="#2C77BC" d="M559.672,567.941
		c0,3.203-2.596,5.799-5.799,5.799s-5.8-2.596-5.8-5.799c0-3.203,2.597-5.8,5.8-5.8S559.672,564.738,559.672,567.941"/>
	<path clip-path="url(#SVGID_6_)" fill-rule="evenodd" clip-rule="evenodd" fill="#2C77BC" d="M590.996,567.941
		c0,3.203-2.597,5.799-5.8,5.799c-3.202,0-5.799-2.596-5.799-5.799c0-3.203,2.597-5.8,5.799-5.8
		C588.398,562.141,590.996,564.738,590.996,567.941"/>
	<path clip-path="url(#SVGID_6_)" fill-rule="evenodd" clip-rule="evenodd" fill="#2C77BC" d="M622.318,567.941
		c0,3.203-2.597,5.799-5.799,5.799c-3.203,0-5.8-2.596-5.8-5.799c0-3.203,2.597-5.8,5.8-5.8
		C619.722,562.141,622.318,564.738,622.318,567.941"/>
	<path clip-path="url(#SVGID_6_)" fill-rule="evenodd" clip-rule="evenodd" fill="#2C77BC" d="M653.642,567.941
		c0,3.203-2.597,5.799-5.799,5.799c-3.203,0-5.8-2.596-5.8-5.799c0-3.203,2.597-5.8,5.8-5.8
		C651.045,562.141,653.642,564.738,653.642,567.941"/>
	<path clip-path="url(#SVGID_6_)" fill-rule="evenodd" clip-rule="evenodd" fill="#2C77BC" d="M684.965,567.941
		c0,3.203-2.596,5.799-5.799,5.799s-5.8-2.596-5.8-5.799c0-3.203,2.597-5.8,5.8-5.8S684.965,564.738,684.965,567.941"/>
	<path clip-path="url(#SVGID_6_)" fill-rule="evenodd" clip-rule="evenodd" fill="#2C77BC" d="M716.288,567.941
		c0,3.203-2.597,5.799-5.8,5.799c-3.202,0-5.799-2.596-5.799-5.799c0-3.203,2.597-5.8,5.799-5.8
		C713.691,562.141,716.288,564.738,716.288,567.941"/>
	<path clip-path="url(#SVGID_6_)" fill-rule="evenodd" clip-rule="evenodd" fill="#2C77BC" d="M747.611,567.941
		c0,3.203-2.597,5.799-5.8,5.799c-3.202,0-5.799-2.596-5.799-5.799c0-3.203,2.597-5.8,5.799-5.8
		C745.015,562.141,747.611,564.738,747.611,567.941"/>
	<path clip-path="url(#SVGID_6_)" fill-rule="evenodd" clip-rule="evenodd" fill="#2C77BC" d="M778.935,567.941
		c0,3.203-2.597,5.799-5.799,5.799c-3.203,0-5.8-2.596-5.8-5.799c0-3.203,2.597-5.8,5.8-5.8
		C776.338,562.141,778.935,564.738,778.935,567.941"/>
	<path clip-path="url(#SVGID_6_)" fill-rule="evenodd" clip-rule="evenodd" fill="#2C77BC" d="M810.258,567.941
		c0,3.203-2.597,5.799-5.8,5.799s-5.799-2.596-5.799-5.799c0-3.203,2.596-5.8,5.799-5.8S810.258,564.738,810.258,567.941"/>
	<path clip-path="url(#SVGID_6_)" fill-rule="evenodd" clip-rule="evenodd" fill="#2C77BC" d="M497.026,599.646
		c0,3.203-2.597,5.799-5.799,5.799c-3.203,0-5.8-2.596-5.8-5.799s2.597-5.8,5.8-5.8
		C494.429,593.847,497.026,596.443,497.026,599.646"/>
	<path clip-path="url(#SVGID_6_)" fill-rule="evenodd" clip-rule="evenodd" fill="#2C77BC" d="M528.35,599.646
		c0,3.203-2.596,5.799-5.799,5.799c-3.203,0-5.8-2.596-5.8-5.799s2.597-5.8,5.8-5.8C525.753,593.847,528.35,596.443,528.35,599.646"
		/>
	<path clip-path="url(#SVGID_6_)" fill-rule="evenodd" clip-rule="evenodd" fill="#2C77BC" d="M559.672,599.646
		c0,3.203-2.596,5.799-5.799,5.799s-5.8-2.596-5.8-5.799s2.597-5.8,5.8-5.8S559.672,596.443,559.672,599.646"/>
	<path clip-path="url(#SVGID_6_)" fill-rule="evenodd" clip-rule="evenodd" fill="#2C77BC" d="M590.996,599.646
		c0,3.203-2.597,5.799-5.8,5.799c-3.202,0-5.799-2.596-5.799-5.799s2.597-5.8,5.799-5.8
		C588.398,593.847,590.996,596.443,590.996,599.646"/>
	<path clip-path="url(#SVGID_6_)" fill-rule="evenodd" clip-rule="evenodd" fill="#2C77BC" d="M622.318,599.646
		c0,3.203-2.597,5.799-5.799,5.799c-3.203,0-5.8-2.596-5.8-5.799s2.597-5.8,5.8-5.8
		C619.722,593.847,622.318,596.443,622.318,599.646"/>
	<path clip-path="url(#SVGID_6_)" fill-rule="evenodd" clip-rule="evenodd" fill="#2C77BC" d="M653.642,599.646
		c0,3.203-2.597,5.799-5.799,5.799c-3.203,0-5.8-2.596-5.8-5.799s2.597-5.8,5.8-5.8
		C651.045,593.847,653.642,596.443,653.642,599.646"/>
	<path clip-path="url(#SVGID_6_)" fill-rule="evenodd" clip-rule="evenodd" fill="#2C77BC" d="M684.965,599.646
		c0,3.203-2.596,5.799-5.799,5.799s-5.8-2.596-5.8-5.799s2.597-5.8,5.8-5.8S684.965,596.443,684.965,599.646"/>
	<path clip-path="url(#SVGID_6_)" fill-rule="evenodd" clip-rule="evenodd" fill="#2C77BC" d="M716.288,599.646
		c0,3.203-2.597,5.799-5.8,5.799c-3.202,0-5.799-2.596-5.799-5.799s2.597-5.8,5.799-5.8
		C713.691,593.847,716.288,596.443,716.288,599.646"/>
	<path clip-path="url(#SVGID_6_)" fill-rule="evenodd" clip-rule="evenodd" fill="#2C77BC" d="M747.611,599.646
		c0,3.203-2.597,5.799-5.8,5.799c-3.202,0-5.799-2.596-5.799-5.799s2.597-5.8,5.799-5.8
		C745.015,593.847,747.611,596.443,747.611,599.646"/>
	<path clip-path="url(#SVGID_6_)" fill-rule="evenodd" clip-rule="evenodd" fill="#2C77BC" d="M778.935,599.646
		c0,3.203-2.597,5.799-5.799,5.799c-3.203,0-5.8-2.596-5.8-5.799s2.597-5.8,5.8-5.8
		C776.338,593.847,778.935,596.443,778.935,599.646"/>
	<path clip-path="url(#SVGID_6_)" fill-rule="evenodd" clip-rule="evenodd" fill="#2C77BC" d="M810.258,599.646
		c0,3.203-2.597,5.799-5.8,5.799s-5.799-2.596-5.799-5.799s2.596-5.8,5.799-5.8S810.258,596.443,810.258,599.646"/>
	<path clip-path="url(#SVGID_6_)" fill-rule="evenodd" clip-rule="evenodd" fill="#2C77BC" d="M497.026,631.353
		c0,3.203-2.597,5.8-5.799,5.8c-3.203,0-5.8-2.597-5.8-5.8s2.597-5.8,5.8-5.8C494.429,625.553,497.026,628.149,497.026,631.353"/>
	<path clip-path="url(#SVGID_6_)" fill-rule="evenodd" clip-rule="evenodd" fill="#2C77BC" d="M528.35,631.353
		c0,3.203-2.596,5.8-5.799,5.8c-3.203,0-5.8-2.597-5.8-5.8s2.597-5.8,5.8-5.8C525.753,625.553,528.35,628.149,528.35,631.353"/>
	<path clip-path="url(#SVGID_6_)" fill-rule="evenodd" clip-rule="evenodd" fill="#2C77BC" d="M559.672,631.353
		c0,3.203-2.596,5.8-5.799,5.8s-5.8-2.597-5.8-5.8s2.597-5.8,5.8-5.8S559.672,628.149,559.672,631.353"/>
	<path clip-path="url(#SVGID_6_)" fill-rule="evenodd" clip-rule="evenodd" fill="#2C77BC" d="M590.996,631.353
		c0,3.203-2.597,5.8-5.8,5.8c-3.202,0-5.799-2.597-5.799-5.8s2.597-5.8,5.799-5.8C588.398,625.553,590.996,628.149,590.996,631.353"
		/>
	<path clip-path="url(#SVGID_6_)" fill-rule="evenodd" clip-rule="evenodd" fill="#2C77BC" d="M622.318,631.353
		c0,3.203-2.597,5.8-5.799,5.8c-3.203,0-5.8-2.597-5.8-5.8s2.597-5.8,5.8-5.8C619.722,625.553,622.318,628.149,622.318,631.353"/>
	<path clip-path="url(#SVGID_6_)" fill-rule="evenodd" clip-rule="evenodd" fill="#2C77BC" d="M653.642,631.353
		c0,3.203-2.597,5.8-5.799,5.8c-3.203,0-5.8-2.597-5.8-5.8s2.597-5.8,5.8-5.8C651.045,625.553,653.642,628.149,653.642,631.353"/>
	<path clip-path="url(#SVGID_6_)" fill-rule="evenodd" clip-rule="evenodd" fill="#2C77BC" d="M684.965,631.353
		c0,3.203-2.596,5.8-5.799,5.8s-5.8-2.597-5.8-5.8s2.597-5.8,5.8-5.8S684.965,628.149,684.965,631.353"/>
	<path clip-path="url(#SVGID_6_)" fill-rule="evenodd" clip-rule="evenodd" fill="#2C77BC" d="M716.288,631.353
		c0,3.203-2.597,5.8-5.8,5.8c-3.202,0-5.799-2.597-5.799-5.8s2.597-5.8,5.799-5.8C713.691,625.553,716.288,628.149,716.288,631.353"
		/>
	<path clip-path="url(#SVGID_6_)" fill-rule="evenodd" clip-rule="evenodd" fill="#2C77BC" d="M747.611,631.353
		c0,3.203-2.597,5.8-5.8,5.8c-3.202,0-5.799-2.597-5.799-5.8s2.597-5.8,5.799-5.8C745.015,625.553,747.611,628.149,747.611,631.353"
		/>
	<path clip-path="url(#SVGID_6_)" fill-rule="evenodd" clip-rule="evenodd" fill="#2C77BC" d="M778.935,631.353
		c0,3.203-2.597,5.8-5.799,5.8c-3.203,0-5.8-2.597-5.8-5.8s2.597-5.8,5.8-5.8C776.338,625.553,778.935,628.149,778.935,631.353"/>
	<path clip-path="url(#SVGID_6_)" fill-rule="evenodd" clip-rule="evenodd" fill="#2C77BC" d="M810.258,631.353
		c0,3.203-2.597,5.8-5.8,5.8s-5.799-2.597-5.799-5.8s2.596-5.8,5.799-5.8S810.258,628.149,810.258,631.353"/>
	
		<rect x="275.841" y="225.886" clip-path="url(#SVGID_6_)" fill="none" stroke="#2C77BC" stroke-width="7.153" stroke-miterlimit="10" width="25.17" height="376.992"/>
	
		<rect x="275.841" y="165.326" clip-path="url(#SVGID_6_)" fill="none" stroke="#2C77BC" stroke-width="6.594" stroke-miterlimit="10" width="188.692" height="25.17"/>
	
		<rect x="251.929" y="708.492" clip-path="url(#SVGID_6_)" fill="none" stroke="#2C77BC" stroke-width="7.153" stroke-miterlimit="10" width="125.432" height="25.17"/>
	
		<rect x="543.346" y="165.326" clip-path="url(#SVGID_6_)" fill="none" stroke="#2C77BC" stroke-width="7.153" stroke-miterlimit="10" width="250.865" height="25.17"/>
	
		<rect x="559.672" y="364.053" clip-path="url(#SVGID_6_)" fill="none" stroke="#2C77BC" stroke-width="7.153" stroke-miterlimit="10" width="56.847" height="56.847"/>
	
		<rect x="722.088" y="308.291" clip-path="url(#SVGID_6_)" fill="none" stroke="#2C77BC" stroke-width="7.153" stroke-miterlimit="10" width="56.847" height="28.423"/>
	
		<rect x="804.458" y="245.104" clip-path="url(#SVGID_6_)" fill="none" stroke="#2C77BC" stroke-width="7.153" stroke-miterlimit="10" width="56.847" height="28.424"/>
	
		<rect x="804.458" y="371.49" clip-path="url(#SVGID_6_)" fill="none" stroke="#2C77BC" stroke-width="7.153" stroke-miterlimit="10" width="56.847" height="28.423"/>
	
		<rect x="400.434" y="712.014" clip-path="url(#SVGID_6_)" fill="none" stroke="#2C77BC" stroke-width="7.153" stroke-miterlimit="10" width="171.159" height="65.799"/>
	
		<rect x="626.851" y="712.014" clip-path="url(#SVGID_6_)" fill="none" stroke="#2C77BC" stroke-width="7.153" stroke-miterlimit="10" width="171.159" height="65.799"/>
	
		<rect x="883.178" y="308.291" clip-path="url(#SVGID_6_)" fill="none" stroke="#2C77BC" stroke-width="7.153" stroke-miterlimit="10" width="56.848" height="28.423"/>
	
		<rect x="423.99" y="748.448" clip-path="url(#SVGID_6_)" fill-rule="evenodd" clip-rule="evenodd" fill="#2C77BC" width="7.551" height="7.551"/>
	
		<rect x="452.936" y="748.448" clip-path="url(#SVGID_6_)" fill-rule="evenodd" clip-rule="evenodd" fill="#2C77BC" width="7.551" height="7.551"/>
	
		<rect x="481.882" y="748.448" clip-path="url(#SVGID_6_)" fill-rule="evenodd" clip-rule="evenodd" fill="#2C77BC" width="7.551" height="7.551"/>
	
		<rect x="510.828" y="748.448" clip-path="url(#SVGID_6_)" fill-rule="evenodd" clip-rule="evenodd" fill="#2C77BC" width="7.551" height="7.551"/>
	
		<rect x="539.774" y="748.448" clip-path="url(#SVGID_6_)" fill-rule="evenodd" clip-rule="evenodd" fill="#2C77BC" width="7.551" height="7.551"/>
	
		<rect x="650.112" y="748.448" clip-path="url(#SVGID_6_)" fill-rule="evenodd" clip-rule="evenodd" fill="#2C77BC" width="7.551" height="7.551"/>
	
		<rect x="679.058" y="748.448" clip-path="url(#SVGID_6_)" fill-rule="evenodd" clip-rule="evenodd" fill="#2C77BC" width="7.552" height="7.551"/>
	
		<rect x="708.004" y="748.448" clip-path="url(#SVGID_6_)" fill-rule="evenodd" clip-rule="evenodd" fill="#2C77BC" width="7.551" height="7.551"/>
	
		<rect x="736.949" y="748.448" clip-path="url(#SVGID_6_)" fill-rule="evenodd" clip-rule="evenodd" fill="#2C77BC" width="7.551" height="7.551"/>
	
		<rect x="765.895" y="748.448" clip-path="url(#SVGID_6_)" fill-rule="evenodd" clip-rule="evenodd" fill="#2C77BC" width="7.552" height="7.551"/>
	
		<rect x="831.058" y="716.454" clip-path="url(#SVGID_6_)" fill-rule="evenodd" clip-rule="evenodd" fill="#2C77BC" width="7.552" height="7.551"/>
	
		<rect x="864.926" y="716.454" clip-path="url(#SVGID_6_)" fill-rule="evenodd" clip-rule="evenodd" fill="#2C77BC" width="7.551" height="7.551"/>
	
		<rect x="262.128" y="652.465" clip-path="url(#SVGID_6_)" fill-rule="evenodd" clip-rule="evenodd" fill="#2C77BC" width="7.551" height="7.551"/>
	
		<rect x="295.996" y="652.465" clip-path="url(#SVGID_6_)" fill-rule="evenodd" clip-rule="evenodd" fill="#2C77BC" width="7.551" height="7.551"/>
	
		<rect x="896.333" y="716.454" clip-path="url(#SVGID_6_)" fill-rule="evenodd" clip-rule="evenodd" fill="#2C77BC" width="7.551" height="7.551"/>
	
		<line clip-path="url(#SVGID_6_)" fill="none" stroke="#2C77BC" stroke-width="7.153" stroke-miterlimit="10" x1="283.287" y1="708.492" x2="283.287" y2="733.662"/>
	
		<line clip-path="url(#SVGID_6_)" fill="none" stroke="#2C77BC" stroke-width="7.153" stroke-miterlimit="10" x1="314.645" y1="708.492" x2="314.645" y2="733.662"/>
	
		<line clip-path="url(#SVGID_6_)" fill="none" stroke="#2C77BC" stroke-width="7.153" stroke-miterlimit="10" x1="346.003" y1="708.492" x2="346.003" y2="733.662"/>
	
		<rect x="820.44" y="708.492" clip-path="url(#SVGID_6_)" fill="none" stroke="#2C77BC" stroke-width="6.208" stroke-miterlimit="10" width="94.472" height="25.17"/>
	
		<line clip-path="url(#SVGID_6_)" fill="none" stroke="#2C77BC" stroke-width="7.153" stroke-miterlimit="10" x1="851.798" y1="708.492" x2="851.798" y2="733.662"/>
	
		<line clip-path="url(#SVGID_6_)" fill="none" stroke="#2C77BC" stroke-width="7.153" stroke-miterlimit="10" x1="883.156" y1="708.492" x2="883.156" y2="733.662"/>
	
		<rect x="250.72" y="642.7" clip-path="url(#SVGID_6_)" fill="none" stroke="#2C77BC" stroke-width="7.153" stroke-miterlimit="10" width="62.716" height="25.17"/>
	
		<line clip-path="url(#SVGID_6_)" fill="none" stroke="#2C77BC" stroke-width="7.153" stroke-miterlimit="10" x1="282.078" y1="642.7" x2="282.078" y2="667.87"/>
	
		<line clip-path="url(#SVGID_6_)" fill="none" stroke="#2C77BC" stroke-width="7.153" stroke-miterlimit="10" x1="301.011" y1="571.625" x2="275.841" y2="571.625"/>
	
		<line clip-path="url(#SVGID_6_)" fill="none" stroke="#2C77BC" stroke-width="7.153" stroke-miterlimit="10" x1="301.011" y1="539.467" x2="275.841" y2="539.467"/>
	
		<line clip-path="url(#SVGID_6_)" fill="none" stroke="#2C77BC" stroke-width="7.153" stroke-miterlimit="10" x1="301.011" y1="508.109" x2="275.841" y2="508.109"/>
	
		<line clip-path="url(#SVGID_6_)" fill="none" stroke="#2C77BC" stroke-width="7.153" stroke-miterlimit="10" x1="301.011" y1="476.751" x2="275.841" y2="476.751"/>
	
		<line clip-path="url(#SVGID_6_)" fill="none" stroke="#2C77BC" stroke-width="7.153" stroke-miterlimit="10" x1="301.011" y1="445.393" x2="275.841" y2="445.393"/>
	
		<line clip-path="url(#SVGID_6_)" fill="none" stroke="#2C77BC" stroke-width="7.153" stroke-miterlimit="10" x1="301.011" y1="414.035" x2="275.841" y2="414.035"/>
	
		<line clip-path="url(#SVGID_6_)" fill="none" stroke="#2C77BC" stroke-width="7.153" stroke-miterlimit="10" x1="301.011" y1="382.677" x2="275.841" y2="382.677"/>
	
		<line clip-path="url(#SVGID_6_)" fill="none" stroke="#2C77BC" stroke-width="7.153" stroke-miterlimit="10" x1="301.011" y1="351.318" x2="275.841" y2="351.318"/>
	
		<line clip-path="url(#SVGID_6_)" fill="none" stroke="#2C77BC" stroke-width="7.153" stroke-miterlimit="10" x1="301.011" y1="319.96" x2="275.841" y2="319.96"/>
	
		<line clip-path="url(#SVGID_6_)" fill="none" stroke="#2C77BC" stroke-width="7.153" stroke-miterlimit="10" x1="301.011" y1="288.603" x2="275.841" y2="288.603"/>
	
		<line clip-path="url(#SVGID_6_)" fill="none" stroke="#2C77BC" stroke-width="7.153" stroke-miterlimit="10" x1="301.011" y1="257.244" x2="275.841" y2="257.244"/>
	
		<line clip-path="url(#SVGID_6_)" fill="none" stroke="#2C77BC" stroke-width="7.153" stroke-miterlimit="10" x1="574.704" y1="190.496" x2="574.704" y2="165.326"/>
	
		<line clip-path="url(#SVGID_6_)" fill="none" stroke="#2C77BC" stroke-width="7.153" stroke-miterlimit="10" x1="432.631" y1="190.496" x2="432.631" y2="165.326"/>
	
		<line clip-path="url(#SVGID_6_)" fill="none" stroke="#2C77BC" stroke-width="7.153" stroke-miterlimit="10" x1="401.273" y1="190.496" x2="401.273" y2="165.326"/>
	
		<line clip-path="url(#SVGID_6_)" fill="none" stroke="#2C77BC" stroke-width="7.153" stroke-miterlimit="10" x1="369.915" y1="190.496" x2="369.915" y2="165.326"/>
	
		<line clip-path="url(#SVGID_6_)" fill="none" stroke="#2C77BC" stroke-width="7.153" stroke-miterlimit="10" x1="338.557" y1="190.496" x2="338.557" y2="165.326"/>
	
		<line clip-path="url(#SVGID_6_)" fill="none" stroke="#2C77BC" stroke-width="7.153" stroke-miterlimit="10" x1="307.199" y1="190.496" x2="307.199" y2="165.326"/>
	
		<line clip-path="url(#SVGID_6_)" fill="none" stroke="#2C77BC" stroke-width="7.153" stroke-miterlimit="10" x1="606.063" y1="190.496" x2="606.063" y2="165.326"/>
	
		<line clip-path="url(#SVGID_6_)" fill="none" stroke="#2C77BC" stroke-width="7.153" stroke-miterlimit="10" x1="637.421" y1="190.496" x2="637.421" y2="165.326"/>
	
		<line clip-path="url(#SVGID_6_)" fill="none" stroke="#2C77BC" stroke-width="7.153" stroke-miterlimit="10" x1="668.778" y1="190.496" x2="668.778" y2="165.326"/>
	
		<line clip-path="url(#SVGID_6_)" fill="none" stroke="#2C77BC" stroke-width="7.153" stroke-miterlimit="10" x1="700.137" y1="190.496" x2="700.137" y2="165.326"/>
	
		<line clip-path="url(#SVGID_6_)" fill="none" stroke="#2C77BC" stroke-width="7.153" stroke-miterlimit="10" x1="731.495" y1="190.496" x2="731.495" y2="165.326"/>
	
		<line clip-path="url(#SVGID_6_)" fill="none" stroke="#2C77BC" stroke-width="7.153" stroke-miterlimit="10" x1="762.853" y1="190.496" x2="762.853" y2="165.326"/>
</g>
<path fill="#2A77BC" d="M336.903,141.5v9.677h-3.414v-22.092h6.422c3.911,0,6.073,2.097,6.073,5.922c0,3.231-1.68,4.62-2.896,5.077
	c1.825,0.776,2.576,2.351,2.576,5.556v0.88c0,2.355,0.101,3.473,0.303,4.656h-3.342c-0.316-1.011-0.362-2.833-0.362-4.699v-0.786
	c0-3.02-0.665-4.192-3.328-4.192H336.903z M336.903,138.687h2.187c2.49,0,3.452-1.196,3.452-3.542c0-2.012-0.949-3.247-3.116-3.247
	h-2.522V138.687z M362.46,139.953c0,7.892-2.059,11.586-7.045,11.586c-4.687,0-6.855-3.612-6.855-11.603
	c0-7.82,2.531-11.191,7.012-11.191C360.304,128.746,362.46,132.346,362.46,139.953z M352.084,139.895c0,5.603,0.958,8.74,3.419,8.74
	c2.572,0,3.432-2.954,3.432-8.72c0-5.577-0.922-8.241-3.442-8.241C353.016,131.673,352.084,134.598,352.084,139.895z
	 M365.68,129.085h6.4c3.653,0,5.733,2.074,5.733,5.524c0,2.846-1.363,4.177-2.608,4.633c1.601,0.623,3.277,2.093,3.277,5.445
	c0,4.122-2.619,6.489-6.516,6.489h-6.286V129.085z M371.169,138.035c2.565,0,3.334-1.046,3.334-3.113c0-2.024-1.066-3.08-3.139-3.08
	h-2.317v6.192H371.169z M369.048,148.465h2.568c2.187,0,3.419-1.202,3.419-3.826c0-2.509-1.137-3.892-3.862-3.892h-2.125V148.465z
	 M394.64,139.953c0,7.892-2.058,11.586-7.045,11.586c-4.686,0-6.855-3.612-6.855-11.603c0-7.82,2.531-11.191,7.012-11.191
	C392.483,128.746,394.64,132.346,394.64,139.953z M384.264,139.895c0,5.603,0.958,8.74,3.419,8.74c2.572,0,3.432-2.954,3.432-8.72
	c0-5.577-0.922-8.241-3.442-8.241C385.196,131.673,384.264,134.598,384.264,139.895z M400.335,132.104h-4.79v-3.019h13.016v3.019
	h-4.79v19.073h-3.437V132.104z M420.262,129.085v22.092h-3.437v-22.092H420.262z M424.356,151.177v-22.092h3.978
	c5.094,13.262,5.965,15.506,6.235,16.546h0.033c-0.176-2.761-0.196-6.038-0.196-9.648v-6.898h3.104v22.092h-3.812
	c-5.273-14.058-6.091-16.295-6.366-17.261H427.3c0.163,2.736,0.172,6.113,0.172,10.078v7.183H424.356z M449.272,151.177h-3.437
	l5.191-22.092h4.455l5.282,22.092h-3.613l-1.28-6.056h-5.327L449.272,151.177z M455.236,142.125
	c-0.98-4.638-1.697-7.852-2.027-9.842h-0.088c-0.28,1.996-1.049,5.539-1.955,9.842H455.236z M481.479,144.854
	c-0.098,1.174-0.567,6.686-6.432,6.686c-6.144,0-6.771-5.757-6.771-11.481c0-6.904,1.96-11.312,7.019-11.312
	c5.675,0,6.077,5.012,6.155,6.637h-3.411c-0.055-0.75-0.137-3.69-2.799-3.69c-2.825,0-3.406,3.626-3.406,8.424
	c0,4.335,0.45,8.521,3.278,8.521c2.559,0,2.835-2.846,2.934-3.784H481.479z M486.277,151.177h-3.437c0,0,5.191-22.092,5.191-22.092
	h4.455l5.282,22.092h-3.613l-1.28-6.056h-5.327L486.277,151.177z M492.242,142.125c-0.981-4.638-1.698-7.852-2.027-9.842h-0.088
	c-0.281,1.996-1.05,5.539-1.956,9.842H492.242z M499.831,151.177v-22.092h3.978c5.094,13.262,5.964,15.506,6.235,16.546h0.033
	c-0.176-2.761-0.196-6.038-0.196-9.648v-6.898h3.104v22.092h-3.812c-5.272-14.058-6.091-16.295-6.365-17.261h-0.033
	c0.163,2.736,0.173,6.113,0.173,10.078v7.183H499.831z"/>
<path fill="#2A77BC" d="M447.981,386.973v-2.637c0.655-0.088,1.209-0.153,2.053-0.176c-1.677-0.897-2.416-2.284-2.416-4.399
	c0-4.672,4.391-6.199,11.309-6.199c7.908,0,11.484,2.59,11.484,7.247c0,5.75-4.983,6.086-6.297,6.151v-3.401
	c0.854-0.065,3.37-0.251,3.37-2.852c0-2.745-3.492-3.588-8.538-3.588c-5.279,0-8.423,0.681-8.423,3.403
	c0,2.398,1.909,3.047,5.633,3.047h1.184V380.3h2.95v6.673C460.291,386.973,447.981,386.973,447.981,386.973z M459.205,426.423
	c-7.892,0-11.586-2.058-11.586-7.045c0-4.686,3.612-6.855,11.602-6.855c7.82,0,11.191,2.531,11.191,7.012
	C470.412,424.267,466.813,426.423,459.205,426.423z M470.073,396.896c0,3.587-2.185,6.207-6.428,6.207
	c-4.152,0-6.486-2.368-6.486-6.529v-2.562h-9.178v-3.437h22.092V396.896z M470.073,409.237h-22.092V405.8h22.092V409.237z
	 M459.264,416.048c-5.603,0-8.74,0.958-8.74,3.419c0,2.572,2.954,3.432,8.72,3.432c5.577,0,8.241-0.921,8.241-3.441
	C467.485,416.979,464.56,416.048,459.264,416.048z M459.949,394.011v2.18c0,2.35,1.196,3.455,3.742,3.455
	c2.289,0,3.569-1.187,3.569-3.22v-2.415H459.949z"/>
<path fill="#2A77BC" d="M470.512,221.518h2.075v11.555h4.631l-0.225,1.781h-6.481V221.518z M480.54,221.518v13.336h-2.074v-13.336
	H480.54z M490.621,234.854h-1.592c-0.053-0.396-0.093-0.73-0.106-1.239c-0.542,1.012-1.379,1.458-2.655,1.458
	c-2.82,0-3.742-2.65-3.742-6.826c0-4.774,1.563-6.933,4.375-6.933c3.471,0,3.674,3.008,3.713,3.801h-2.053
	c-0.039-0.516-0.151-2.034-1.721-2.034c-1.657,0-2.166,2.108-2.166,5.154c0,3.187,0.411,5.085,2.054,5.085
	c1.448,0,1.84-1.152,1.84-3.401v-0.714h-1.974v-1.781h4.028C490.621,227.423,490.621,234.854,490.621,234.854z M492.797,221.518
	h2.075v5.395h3.594v-5.395h2.074v13.336h-2.074v-6.133h-3.594v6.133h-2.075V221.518z M504.751,223.34h-2.891v-1.822h7.857v1.822
	h-2.892v11.514h-2.075V223.34z"/>
<path fill="#2A77BC" d="M563.623,347.151v5.841h-2.061v-13.336h3.877c2.36,0,3.666,1.266,3.666,3.575
	c0,1.951-1.014,2.789-1.748,3.064c1.102,0.469,1.555,1.419,1.555,3.354v0.532c0,1.421,0.062,2.096,0.183,2.811h-2.017
	c-0.191-0.61-0.219-1.71-0.219-2.836v-0.474c0-1.823-0.401-2.531-2.009-2.531H563.623z M563.623,345.453h1.32
	c1.503,0,2.084-0.722,2.084-2.139c0-1.214-0.573-1.96-1.881-1.96h-1.522V345.453z M578.757,352.992h-1.592
	c-0.053-0.396-0.092-0.73-0.106-1.239c-0.542,1.012-1.379,1.458-2.655,1.458c-2.821,0-3.743-2.65-3.743-6.826
	c0-4.774,1.563-6.933,4.375-6.933c3.471,0,3.674,3.008,3.713,3.801h-2.053c-0.04-0.516-0.152-2.034-1.722-2.034
	c-1.657,0-2.166,2.108-2.166,5.154c0,3.187,0.411,5.085,2.054,5.085c1.448,0,1.839-1.152,1.839-3.401v-0.714h-1.973v-1.781h4.028
	C578.757,345.562,578.757,352.992,578.757,352.992z M580.92,339.656h3.863c2.206,0,3.461,1.252,3.461,3.335
	c0,1.718-0.823,2.521-1.575,2.797c0.966,0.376,1.978,1.264,1.978,3.287c0,2.488-1.581,3.917-3.934,3.917h-3.794V339.656z
	 M584.234,345.059c1.549,0,2.013-0.631,2.013-1.879c0-1.222-0.644-1.859-1.895-1.859h-1.399v3.738H584.234z M582.953,351.355h1.551
	c1.32,0,2.063-0.726,2.063-2.31c0-1.515-0.686-2.349-2.331-2.349h-1.283V351.355z M594.24,339.656h2.075v11.555h4.631l-0.225,1.781
	h-6.481V339.656z M608.578,346.903h-4.338v4.294h4.852l-0.262,1.795h-6.637v-13.336h6.594v1.822h-4.547v3.616h4.338V346.903z
	 M610.6,339.656h3.3c3.31,0,4.658,2.181,4.658,6.368c0,4.511-1.268,6.968-4.853,6.968H610.6V339.656z M612.688,351.28h0.979
	c2.063,0,2.749-1.585,2.749-5.232c0-3.229-0.687-4.652-2.729-4.652h-1V351.28z"/>
<path fill="#2A77BC" d="M687.069,420.883h3.863c2.205,0,3.462,1.252,3.462,3.335c0,1.718-0.823,2.521-1.575,2.797
	c0.967,0.376,1.979,1.264,1.979,3.287c0,2.488-1.581,3.917-3.934,3.917h-3.795V420.883z M690.384,426.286
	c1.549,0,2.013-0.631,2.013-1.879c0-1.222-0.644-1.859-1.895-1.859h-1.399v3.738H690.384z M689.103,432.582h1.551
	c1.32,0,2.063-0.726,2.063-2.31c0-1.515-0.687-2.349-2.331-2.349h-1.283V432.582z M698.574,428.377v5.841h-2.061v-13.336h3.877
	c2.36,0,3.666,1.266,3.666,3.575c0,1.95-1.015,2.789-1.748,3.064c1.102,0.469,1.555,1.419,1.555,3.354v0.532
	c0,1.421,0.061,2.096,0.183,2.811h-2.017c-0.191-0.61-0.219-1.71-0.219-2.836v-0.474c0-1.823-0.401-2.531-2.01-2.531H698.574z
	 M698.574,426.679h1.319c1.504,0,2.084-0.722,2.084-2.138c0-1.214-0.572-1.96-1.881-1.96h-1.522V426.679z M712.367,428.129h-4.338
	v4.294h4.853l-0.263,1.795h-6.637v-13.336h6.594v1.822h-4.547v3.616h4.338V428.129z M715.91,434.219h-2.074l3.133-13.336h2.689
	l3.188,13.336h-2.181l-0.773-3.655h-3.215L715.91,434.219z M719.511,428.755c-0.592-2.8-1.024-4.74-1.224-5.941h-0.053
	c-0.17,1.205-0.634,3.344-1.181,5.941H719.511z M724.092,420.883h3.301c3.31,0,4.657,2.181,4.657,6.368
	c0,4.511-1.268,6.968-4.853,6.968h-3.105V420.883z M726.181,432.507h0.979c2.062,0,2.748-1.585,2.748-5.232
	c0-3.229-0.686-4.652-2.729-4.652h-0.999V432.507z M733.98,420.883h3.863c2.205,0,3.461,1.252,3.461,3.335
	c0,1.718-0.822,2.521-1.574,2.797c0.967,0.376,1.979,1.264,1.979,3.287c0,2.488-1.582,3.917-3.934,3.917h-3.795V420.883z
	 M737.295,426.286c1.549,0,2.013-0.631,2.013-1.879c0-1.222-0.644-1.859-1.896-1.859h-1.398v3.738H737.295z M736.014,432.582h1.551
	c1.32,0,2.063-0.726,2.063-2.31c0-1.515-0.687-2.349-2.331-2.349h-1.283V432.582z M751.465,427.443c0,4.764-1.242,6.994-4.252,6.994
	c-2.829,0-4.139-2.181-4.139-7.004c0-4.721,1.528-6.755,4.232-6.755C750.163,420.678,751.465,422.851,751.465,427.443z
	 M745.202,427.408c0,3.382,0.578,5.276,2.063,5.276c1.553,0,2.071-1.783,2.071-5.264c0-3.366-0.556-4.975-2.077-4.975
	C745.764,422.445,745.202,424.211,745.202,427.408z M754.337,434.219h-2.075l3.134-13.336h2.689l3.188,13.336h-2.182l-0.772-3.655
	h-3.216L754.337,434.219z M757.938,428.755c-0.593-2.8-1.025-4.74-1.224-5.941h-0.054c-0.169,1.205-0.634,3.344-1.181,5.941H757.938
	z M764.581,428.377v5.841h-2.061v-13.336h3.877c2.36,0,3.666,1.266,3.666,3.575c0,1.95-1.014,2.789-1.748,3.064
	c1.102,0.469,1.555,1.419,1.555,3.354v0.532c0,1.421,0.062,2.096,0.184,2.811h-2.018c-0.191-0.61-0.219-1.71-0.219-2.836v-0.474
	c0-1.823-0.401-2.531-2.009-2.531H764.581z M764.581,426.679h1.319c1.504,0,2.085-0.722,2.085-2.138c0-1.214-0.573-1.96-1.882-1.96
	h-1.522V426.679z M771.99,420.883h3.3c3.31,0,4.657,2.181,4.657,6.368c0,4.511-1.268,6.968-4.853,6.968h-3.104V420.883z
	 M774.078,432.507h0.979c2.062,0,2.749-1.585,2.749-5.232c0-3.229-0.687-4.652-2.729-4.652h-0.999V432.507z"/>
<path fill="#2A77BC" d="M464.435,312.424c0.112,1.196,0.629,2.211,1.932,2.211c1.251,0,1.778-0.746,1.778-1.924
	c0-1.2-0.549-1.875-2.279-2.704c-2.217-1.055-3.12-2.002-3.12-3.966c0-2.034,1.306-3.497,3.637-3.497
	c2.855,0,3.579,1.967,3.619,3.644h-2.033c-0.073-0.723-0.27-1.987-1.631-1.987c-1.061,0-1.525,0.704-1.525,1.665
	c0,1.068,0.477,1.57,2.076,2.319c2.372,1.108,3.371,2.195,3.371,4.343c0,2.098-1.26,3.764-3.954,3.764
	c-2.932,0-3.847-1.89-3.938-3.868H464.435z M478.394,309.991h-4.338v4.294h4.852l-0.262,1.795h-6.637v-13.336h6.593v1.822h-4.546
	v3.616h4.338V309.991z M480.415,316.08v-13.336h2.401c3.075,8.006,3.6,9.36,3.764,9.988h0.02c-0.106-1.667-0.118-3.645-0.118-5.824
	v-4.165h1.874v13.336h-2.301c-3.183-8.486-3.677-9.837-3.842-10.419h-0.02c0.099,1.651,0.104,3.69,0.104,6.083v4.336H480.415z
	 M492.035,312.424c0.112,1.196,0.629,2.211,1.932,2.211c1.251,0,1.778-0.746,1.778-1.924c0-1.2-0.549-1.875-2.279-2.704
	c-2.217-1.055-3.121-2.002-3.121-3.966c0-2.034,1.306-3.497,3.637-3.497c2.855,0,3.58,1.967,3.619,3.644h-2.033
	c-0.073-0.723-0.27-1.987-1.631-1.987c-1.06,0-1.524,0.704-1.524,1.665c0,1.068,0.476,1.57,2.076,2.319
	c2.372,1.108,3.371,2.195,3.371,4.343c0,2.098-1.26,3.764-3.954,3.764c-2.932,0-3.847-1.89-3.938-3.868H492.035z M507.571,309.305
	c0,4.764-1.243,6.994-4.252,6.994c-2.829,0-4.139-2.181-4.139-7.004c0-4.721,1.528-6.755,4.233-6.755
	C506.27,302.54,507.571,304.712,507.571,309.305z M501.308,309.27c0,3.382,0.578,5.276,2.064,5.276c1.552,0,2.072-1.783,2.072-5.264
	c0-3.366-0.557-4.975-2.078-4.975C501.87,304.307,501.308,306.072,501.308,309.27z M511.592,310.239v5.841h-2.061v-13.336h3.877
	c2.36,0,3.666,1.266,3.666,3.575c0,1.95-1.014,2.789-1.748,3.064c1.102,0.469,1.555,1.419,1.555,3.354v0.532
	c0,1.421,0.061,2.096,0.183,2.811h-2.018c-0.191-0.61-0.218-1.71-0.218-2.836v-0.474c0-1.823-0.402-2.531-2.009-2.531H511.592z
	 M511.592,308.541h1.319c1.504,0,2.084-0.722,2.084-2.138c0-1.214-0.573-1.96-1.881-1.96h-1.522V308.541z"/>
<text transform="matrix(1 0 0 1 314.2495 254.0654)"><tspan x="0" y="0" fill="#2A77BC" font-family="'OCRAStd'" font-size="24.6082" letter-spacing="-1">3.3 </tspan><tspan x="66.047" y="0" fill="#2A77BC" font-family="'OCRAStd'" font-size="24.6082">V</tspan></text>
<text transform="matrix(1 0 0 1 314.2495 285.0718)"><tspan x="0" y="0" fill="#2A77BC" font-family="'OCRAStd'" font-size="24.6082" letter-spacing="-1">GN</tspan><tspan x="33.023" y="0" fill="#2A77BC" font-family="'OCRAStd'" font-size="24.6082">D</tspan></text>
<text transform="matrix(1 0 0 1 314.2495 347.0845)"><tspan x="0" y="0" fill="#2A77BC" font-family="'OCRAStd'" font-size="24.6082" letter-spacing="-1">4 (IO</tspan><tspan x="82.559" y="0" fill="#2A77BC" font-family="'OCRAStd'" font-size="24.6082">)</tspan></text>
<text transform="matrix(1 0 0 1 314.2495 378.0908)"><tspan x="0" y="0" fill="#2A77BC" font-family="'OCRAStd'" font-size="24.6082" letter-spacing="-1">5 (PW</tspan><tspan x="82.559" y="0" fill="#2A77BC" font-family="'OCRAStd'" font-size="24.6082">)</tspan></text>
<text transform="matrix(1 0 0 1 314.2495 409.0972)"><tspan x="0" y="0" fill="#2A77BC" font-family="'OCRAStd'" font-size="24.6082" letter-spacing="-1">10 (PW</tspan><tspan x="99.07" y="0" fill="#2A77BC" font-family="'OCRAStd'" font-size="24.6082">)</tspan></text>
<text transform="matrix(1 0 0 1 314.2495 440.1035)"><tspan x="0" y="0" fill="#2A77BC" font-family="'OCRAStd'" font-size="24.6082" letter-spacing="-1">16 (PW</tspan><tspan x="99.07" y="0" fill="#2A77BC" font-family="'OCRAStd'" font-size="24.6082">)</tspan></text>
<text transform="matrix(1 0 0 1 314.2495 471.1099)"><tspan x="0" y="0" fill="#2A77BC" font-family="'OCRAStd'" font-size="24.6082" letter-spacing="-1">14 (L</tspan><tspan x="82.559" y="0" fill="#2A77BC" font-family="'OCRAStd'" font-size="24.6082">)</tspan></text>
<text transform="matrix(1 0 0 1 314.2495 502.1162)"><tspan x="0" y="0" fill="#2A77BC" font-family="'OCRAStd'" font-size="24.6082" letter-spacing="-1">12 (D</tspan><tspan x="82.559" y="0" fill="#2A77BC" font-family="'OCRAStd'" font-size="24.6082">)</tspan></text>
<text transform="matrix(1 0 0 1 314.2495 533.1226)"><tspan x="0" y="0" fill="#2A77BC" font-family="'OCRAStd'" font-size="24.6082" letter-spacing="-1">13 (C</tspan><tspan x="82.559" y="0" fill="#2A77BC" font-family="'OCRAStd'" font-size="24.6082">)</tspan></text>
<text transform="matrix(1 0 0 1 816.3057 234.3789)"><tspan x="0" y="0" fill="#2A77BC" font-family="'OCRAStd'" font-size="24.6082" letter-spacing="-1">S</tspan><tspan x="16.512" y="0" fill="#2A77BC" font-family="'OCRAStd'" font-size="24.6082">1</tspan></text>
<text transform="matrix(1 0 0 1 816.3057 428.8086)"><tspan x="0" y="0" fill="#2A77BC" font-family="'OCRAStd'" font-size="24.6082" letter-spacing="-1">S</tspan><tspan x="16.512" y="0" fill="#2A77BC" font-family="'OCRAStd'" font-size="24.6082">3</tspan></text>
<text transform="matrix(1 0 0 1 735.0986 364.8271)"><tspan x="0" y="0" fill="#2A77BC" font-family="'OCRAStd'" font-size="24.6082" letter-spacing="-1">S</tspan><tspan x="16.512" y="0" fill="#2A77BC" font-family="'OCRAStd'" font-size="24.6082">4</tspan></text>
<text transform="matrix(1 0 0 1 897.5381 364.8271)"><tspan x="0" y="0" fill="#2A77BC" font-family="'OCRAStd'" font-size="24.6082" letter-spacing="-1">S</tspan><tspan x="16.512" y="0" fill="#2A77BC" font-family="'OCRAStd'" font-size="24.6082">2</tspan></text>
<text transform="matrix(1 0 0 1 316.7075 564.1611)"><tspan x="0" y="0" fill="#2A77BC" font-family="'OCRAStd'" font-size="17.2257">0 (12C-D</tspan><tspan x="92.466" y="0" fill="#2A77BC" font-family="'OCRAStd'" font-size="17.2257">)</tspan></text>
<text transform="matrix(1 0 0 1 316.7075 595.167)"><tspan x="0" y="0" fill="#2A77BC" font-family="'OCRAStd'" font-size="17.2257">2 (12C-D</tspan><tspan x="92.466" y="0" fill="#2A77BC" font-family="'OCRAStd'" font-size="17.2257">)</tspan></text>
<text transform="matrix(1 0 0 1 249.8374 630.6172)"><tspan x="0" y="0" fill="#2A77BC" font-family="'OCRAStd'" font-size="17.2257">V + GN</tspan><tspan x="69.349" y="0" fill="#2A77BC" font-family="'OCRAStd'" font-size="17.2257">D</tspan></text>
<text transform="matrix(1 0 0 1 252.7144 699.5205)"><tspan x="0" y="0" fill="#2A77BC" font-family="'OCRAStd'" font-size="17.2257">C</tspan><tspan x="11.558" y="0" fill="#2A77BC" font-family="'OCRAStd'" font-size="17.2257">K</tspan></text>
<text transform="matrix(1 0 0 1 351.1592 699.5205)"><tspan x="0" y="0" fill="#2A77BC" font-family="'OCRAStd'" font-size="17.2257">C</tspan><tspan x="11.558" y="0" fill="#2A77BC" font-family="'OCRAStd'" font-size="17.2257">O</tspan></text>
<text transform="matrix(1 0 0 1 319.1709 699.5205)"><tspan x="0" y="0" fill="#2A77BC" font-family="'OCRAStd'" font-size="17.2257">M</tspan><tspan x="11.558" y="0" fill="#2A77BC" font-family="'OCRAStd'" font-size="17.2257">I</tspan></text>
<text transform="matrix(1 0 0 1 287.1826 699.5205)"><tspan x="0" y="0" fill="#2A77BC" font-family="'OCRAStd'" font-size="17.2257">M</tspan><tspan x="11.558" y="0" fill="#2A77BC" font-family="'OCRAStd'" font-size="17.2257">O</tspan></text>
<g>
	<defs>
		<rect id="SVGID_7_" width="1210" height="1178"/>
	</defs>
	<clipPath id="SVGID_8_">
		<use xlink:href="#SVGID_7_"  overflow="visible"/>
	</clipPath>
	
		<rect x="930.433" y="542.035" clip-path="url(#SVGID_8_)" fill="none" stroke="#2C77BC" stroke-width="7.153" stroke-miterlimit="10" width="31.323" height="73.709"/>
	
		<rect x="961.755" y="548.797" clip-path="url(#SVGID_8_)" fill-rule="evenodd" clip-rule="evenodd" fill="#2C77BC" width="13.146" height="13.145"/>
</g>
<text transform="matrix(1 0 0 1 946.1064 645.7461)" fill="#2C77BC" font-family="'Nunito-ExtraBold'" font-size="34.3303">0</text>
<text transform="matrix(1 0 0 1 946.1064 526.688)" fill="#2C77BC" font-family="'Nunito-ExtraBold'" font-size="34.3303">1</text>
<g>
	<defs>
		<rect id="SVGID_9_" width="1210" height="1178"/>
	</defs>
	<clipPath id="SVGID_10_">
		<use xlink:href="#SVGID_9_"  overflow="visible"/>
	</clipPath>
	<path clip-path="url(#SVGID_10_)" fill="none" stroke="#2A77BC" stroke-width="3.042" stroke-miterlimit="10" d="M274.618,222.391
		h130.029c20.078,0,36.505,16.427,36.505,36.506v310.918c0,20.079-16.427,36.505-36.505,36.505H274.618"/>
	<rect x="302.101" y="288.84" clip-path="url(#SVGID_10_)" fill="#2A77BC" width="137.821" height="31.994"/>
</g>
<text transform="matrix(1 0 0 1 353.6245 315.5933)"><tspan x="0" y="0" fill="#FFFFFF" font-family="'OCRAStd'" font-size="26.2601" letter-spacing="-1">A</tspan><tspan x="17.62" y="0" fill="#FFFFFF" font-family="'OCRAStd'" font-size="26.2601">O</tspan></text>
<line fill="none" stroke="#2A77BC" stroke-width="2.461" stroke-miterlimit="10" x1="300.871" y1="445.119" x2="441.152" y2="445.119"/>
<line fill="none" stroke="#2A77BC" stroke-width="2.461" stroke-miterlimit="10" x1="300.871" y1="537.41" x2="441.152" y2="537.41"/>
<path fill="none" stroke="#2C77BC" stroke-width="7.153" stroke-miterlimit="10" d="M519.807,269.395
	c0-10.359-5.37-19.515-13.455-24.854h-32.643c-8.085,5.339-13.455,14.495-13.455,24.854c0,9.321,4.348,17.667,11.107,23.137H508.7
	C515.459,287.062,519.807,278.716,519.807,269.395z"/>
<rect x="563.263" y="369.26" fill-rule="evenodd" clip-rule="evenodd" fill="#FF0000" width="20.526" height="20.527"/>
<rect x="592.474" y="377.945" fill-rule="evenodd" clip-rule="evenodd" fill="#00FF00" width="20.526" height="20.527"/>
<rect x="568" y="394.524" fill-rule="evenodd" clip-rule="evenodd" fill="#0000FF" width="20.526" height="20.527"/>
<g>
	<g>
		<defs>
			<rect id="SVGID_11_" x="494.039" y="837.618" width="208.461" height="73.882"/>
		</defs>
		<clipPath id="SVGID_12_">
			<use xlink:href="#SVGID_11_"  overflow="visible"/>
		</clipPath>
		
			<rect x="496.039" y="839.618" clip-path="url(#SVGID_12_)" fill-rule="evenodd" clip-rule="evenodd" fill="#FFEAB6" width="204.461" height="69.882"/>
		
			<rect x="496.039" y="839.618" clip-path="url(#SVGID_12_)" fill="none" stroke="#FF9425" stroke-width="4" stroke-miterlimit="10" width="204.461" height="69.882"/>
	</g>
</g>
<rect fill="none" width="1210" height="1178"/>
<g>
	<path fill="#00426B" d="M547.073,888.791h-7.388l-4.462-8.229c-0.561-0.951-1.451-1.427-2.67-1.427h-2.048v9.655h-6.62v-25.784
		h12.288c3.121,0,5.468,0.677,7.041,2.03s2.359,3.31,2.359,5.87c0,1.95-0.537,3.603-1.609,4.955
		c-1.073,1.354-2.584,2.262-4.535,2.725c1.487,0.317,2.669,1.28,3.547,2.89L547.073,888.791z M538.313,873.394
		c0.646-0.463,0.969-1.219,0.969-2.268c0-1.072-0.323-1.847-0.969-2.322c-0.646-0.476-1.713-0.713-3.2-0.713h-4.681v5.998h4.681
		C536.6,874.089,537.667,873.857,538.313,873.394z"/>
	<path fill="#00426B" d="M572.417,874.235v12.91c-1.341,0.634-2.865,1.121-4.572,1.463c-1.707,0.341-3.45,0.512-5.23,0.512
		c-2.804,0-5.236-0.53-7.296-1.591c-2.061-1.061-3.639-2.584-4.736-4.571s-1.646-4.347-1.646-7.077c0-2.657,0.549-4.986,1.646-6.985
		s2.651-3.535,4.663-4.608c2.011-1.072,4.371-1.609,7.077-1.609c1.877,0,3.639,0.244,5.285,0.731
		c1.646,0.488,2.981,1.159,4.005,2.012l-2.084,4.755c-1.195-0.78-2.341-1.341-3.438-1.683c-1.097-0.341-2.268-0.512-3.511-0.512
		c-2.316,0-4.041,0.646-5.175,1.938s-1.701,3.279-1.701,5.961c0,2.756,0.591,4.797,1.774,6.126c1.182,1.329,2.993,1.993,5.431,1.993
		c1.17,0,2.328-0.122,3.474-0.366v-4.791h-4.535v-4.607H572.417z"/>
	<path fill="#00426B" d="M597.579,877.728c0.805,1.085,1.207,2.42,1.207,4.005c0,1.414-0.372,2.651-1.115,3.712
		c-0.744,1.061-1.805,1.884-3.182,2.469s-2.993,0.878-4.846,0.878h-12.837v-25.784h12.471c2.707,0,4.858,0.604,6.455,1.811
		c1.597,1.207,2.396,2.835,2.396,4.883c0,1.316-0.354,2.481-1.061,3.492c-0.708,1.013-1.695,1.75-2.962,2.213
		C595.616,875.869,596.774,876.644,597.579,877.728z M583.352,873.138h4.791c1.268,0,2.194-0.194,2.779-0.585
		c0.585-0.39,0.878-1.012,0.878-1.865c0-0.901-0.292-1.56-0.878-1.975c-0.585-0.415-1.512-0.622-2.779-0.622h-4.791V873.138z
		 M591.672,883.067c0.573-0.427,0.859-1.128,0.859-2.103c0-0.976-0.287-1.677-0.859-2.104c-0.573-0.426-1.53-0.64-2.871-0.64h-5.449
		v5.485h5.449C590.142,883.707,591.099,883.494,591.672,883.067z"/>
	<path fill="#00426B" d="M612.683,888.791v-25.784h6.729v20.335h10.972v5.449H612.683z"/>
	<path fill="#00426B" d="M633.603,888.791v-25.784h18.323v5.193h-11.777v4.901h11.045v5.156h-11.045v5.34h11.777v5.193H633.603z"/>
	<path fill="#00426B" d="M655.436,863.007h10.496c2.853,0,5.309,0.513,7.369,1.536c2.061,1.024,3.64,2.506,4.736,4.444
		c1.098,1.938,1.646,4.236,1.646,6.894c0,2.683-0.542,4.992-1.627,6.931s-2.658,3.419-4.718,4.443
		c-2.061,1.024-4.529,1.536-7.406,1.536h-10.496V863.007z M665.456,883.378c2.536,0,4.426-0.621,5.669-1.865
		c1.243-1.243,1.865-3.12,1.865-5.632c0-2.511-0.622-4.383-1.865-5.614c-1.243-1.23-3.133-1.847-5.669-1.847h-3.291v14.958H665.456z
		"/>
</g>
<rect fill="none" width="1210" height="1178"/>
</svg>
