<?xml version="1.0" encoding="utf-8"?>
<!-- Generator: Adobe Illustrator 16.0.0, SVG Export Plug-In . SVG Version: 6.00 Build 0)  -->
<!DOCTYPE svg PUBLIC "-//W3C//DTD SVG 1.1//EN" "http://www.w3.org/Graphics/SVG/1.1/DTD/svg11.dtd">
<svg version="1.1" xmlns="http://www.w3.org/2000/svg" xmlns:xlink="http://www.w3.org/1999/xlink" x="0px" y="0px"
	 width="1209.969px" height="1177.966px" viewBox="0 0 1209.969 1177.966" enable-background="new 0 0 1209.969 1177.966"
	 xml:space="preserve">
<g id="Page_1_1_">
</g>
<g id="Page_2_1_">
</g>
<g id="Page_3_1_">
</g>
<g id="Page_4_1_">
</g>
<g id="Page_5_1_">
</g>
<g id="Page_6_1_">
</g>
<g id="Page_7_1_">
</g>
<g id="Page_8_1_">
</g>
<g id="Page_9_1_">
</g>
<g id="Page_10_1_">
</g>
<g id="Page_11_1_">
</g>
<g id="Page_12_1_">
</g>
<g id="Page_13_1_">
</g>
<g id="Page_14_1_">
</g>
<g id="Page_15_1_">
</g>
<g id="Page_16_1_">
</g>
<g id="Page_17_1_">
</g>
<g id="Page_18_1_">
</g>
<g id="Page_19_1_">
</g>
<g id="Page_20_1_">
</g>
<g id="Page_21_1_">
</g>
<g id="Page_22_1_">
</g>
<g id="Page_23_1_">
</g>
<g id="Page_24_1_">
</g>
<g id="Page_25_1_">
</g>
<g id="Page_26_1_">
</g>
<g id="Page_27_1_">
</g>
<g id="Page_28_1_">
</g>
<g id="Page_29_1_">
</g>
<g id="Page_30_1_">
</g>
<g id="Page_31_1_">
</g>
<g id="Page_32_1_">
</g>
<g id="Page_33_1_">
</g>
<g id="Page_34_1_">
</g>
<g id="Page_35_1_">
</g>
<g id="Page_36_1_">
</g>
<g id="Page_37_1_">
	<g id="Page_37">
		<g enable-background="new    ">
			<g>
				<defs>
					<rect id="SVGID_81_" x="-1219.969" y="-0.035" width="1210" height="1178"/>
				</defs>
				<clipPath id="SVGID_2_">
					<use xlink:href="#SVGID_81_"  overflow="visible"/>
				</clipPath>
				
					<line clip-path="url(#SVGID_2_)" fill="none" stroke="#1A77BC" stroke-width="2.1791" stroke-linecap="round" stroke-linejoin="round" stroke-miterlimit="10" x1="-31.269" y1="640.965" x2="125.531" y2="640.965"/>
				
					<line clip-path="url(#SVGID_2_)" fill="none" stroke="#1A77BC" stroke-width="2.1791" stroke-linecap="round" stroke-linejoin="round" stroke-miterlimit="10" x1="125.531" y1="445.766" x2="-31.269" y2="445.766"/>
				<path clip-path="url(#SVGID_2_)" fill="none" stroke="#1A77BC" stroke-width="3.2828" stroke-miterlimit="7.6613" d="
					M481.932,549.166V374.465c0-3.399-2.7-6.199-6.101-6.199h-101.8c-19.6,0-36.4,3.5-40.3,22.699l-10.9,54.801v-159.6l-3.899-3.9
					v-161.6l-41.301,0.1v-2.1c0-2.301-1.899-8.201-4.1-8.201l-24.6-0.1c-2.301,0-4.2,5.9-4.2,8.1v2.201h-39v-2.101
					c0-2.3-1.9-8.2-4.101-8.2l-24.699,0.1c-2.2,0-4.101,5.9-4.101,8.201v1.799l-41.2,0.201v161.6l-4,3.9v159.6l-10.199-32
					c-0.4-1.9-3.801-7.4-5.801-7.4c0,0-62.5-5.1-62.899-4.8c0,0-13.101,0.101-14.2,0.101h-55.8c-2.3,0-4.2,1.899-4.2,4.199
					l-7.8,39.9"/>
				<path clip-path="url(#SVGID_2_)" fill="none" stroke="#1A77BC" stroke-width="3.2828" stroke-miterlimit="7.6613" d="
					M481.932,549.166v164c0,3.398-2.7,6.199-6.101,6.199h-101.8c-19.6,0-36.4-3.5-40.3-22.699l-10.9-54.9v163.199l-3.899,3.9v161.4
					l-41.301-0.1v2.1c0,2.299-1.899,8.199-4.1,8.199l-24.6,0.1c-2.301,0-4.2-5.898-4.2-8.1v-0.1v-2.1h-39v2.1
					c0,2.301-1.9,8.199-4.101,8.199l-24.699-0.1c-2.2,0-4.101-5.9-4.101-8.199v-1.801l-41.2-0.199v-161.4l-4-3.9V641.766
					l-10.199,32.1c-0.4,1.9-3.801,7.5-5.801,7.5c0,0-62.5,5.1-62.899,4.699c0,0-13.101-0.1-14.2-0.1h-55.8c-2.3,0-4.2-1.9-4.2-4.1
					l-7.8-40.1"/>
				
					<circle clip-path="url(#SVGID_2_)" fill-rule="evenodd" clip-rule="evenodd" fill="#FFFFFF" cx="-119.869" cy="1011.965" r="125.3"/>
				
					<circle clip-path="url(#SVGID_2_)" fill="none" stroke="#1A77BC" stroke-width="3.2828" stroke-miterlimit="7.6613" cx="-119.869" cy="1011.965" r="125.3"/>
			</g>
		</g>
	</g>
</g>
<g id="Page_38_1_">
	<g id="Page_38">
		<g enable-background="new    ">
			<g>
				<defs>
					<rect id="SVGID_83_" y="-0.035" width="1210" height="1178"/>
				</defs>
				<clipPath id="SVGID_4_">
					<use xlink:href="#SVGID_83_"  overflow="visible"/>
				</clipPath>
				
					<rect y="0.065" clip-path="url(#SVGID_4_)" fill-rule="evenodd" clip-rule="evenodd" fill="#FFFFFF" width="1210" height="1177.999"/>
				<path clip-path="url(#SVGID_4_)" fill="none" stroke="#2C77BC" stroke-width="4.9808" stroke-miterlimit="7.6613" d="
					M700.1,808.564H191.6c-63,0-114.5-51.6-114.5-114.5V252.865c0-63,51.5-114.5,114.5-114.5h508.5c63,0,114.5,51.5,114.5,114.5
					v441.199C814.6,756.965,763.1,808.564,700.1,808.564z"/>
				<polygon clip-path="url(#SVGID_4_)" fill="none" stroke="#2C77BC" stroke-width="4.9808" stroke-miterlimit="7.6613" points="
					343.6,479.666 343.6,454.865 630.3,456.965 630.3,479.666 667.1,479.666 667.1,668.266 631.9,668.266 631.9,692.266 
					343.6,692.266 343.6,671.465 306.8,671.465 306.8,479.666 				"/>
				<path clip-path="url(#SVGID_4_)" fill-rule="evenodd" clip-rule="evenodd" fill="#2C77BC" d="M344.1,514.166
					c0,3.1-2.399,5.6-5.5,5.6c-3.1,0-5.6-2.5-5.6-5.6c0-3,2.5-5.5,5.6-5.5C341.7,508.666,344.1,511.166,344.1,514.166z"/>
				<path clip-path="url(#SVGID_4_)" fill-rule="evenodd" clip-rule="evenodd" fill="#2C77BC" d="M374,514.166
					c0,3.1-2.5,5.6-5.6,5.6c-3,0-5.5-2.5-5.5-5.6c0-3,2.5-5.5,5.5-5.5C371.5,508.666,374,511.166,374,514.166z"/>
				<path clip-path="url(#SVGID_4_)" fill-rule="evenodd" clip-rule="evenodd" fill="#2C77BC" d="M403.9,514.166
					c0,3.1-2.5,5.6-5.5,5.6c-3.101,0-5.601-2.5-5.601-5.6c0-3,2.5-5.5,5.601-5.5C401.4,508.666,403.9,511.166,403.9,514.166z"/>
				<path clip-path="url(#SVGID_4_)" fill-rule="evenodd" clip-rule="evenodd" fill="#2C77BC" d="M433.8,514.166
					c0,3.1-2.5,5.6-5.5,5.6c-3.1,0-5.6-2.5-5.6-5.6c0-3,2.5-5.5,5.6-5.5C431.3,508.666,433.8,511.166,433.8,514.166z"/>
				<path clip-path="url(#SVGID_4_)" fill-rule="evenodd" clip-rule="evenodd" fill="#2C77BC" d="M463.7,514.166
					c0,3.1-2.5,5.6-5.601,5.6c-3,0-5.5-2.5-5.5-5.6c0-3,2.5-5.5,5.5-5.5C461.2,508.666,463.7,511.166,463.7,514.166z"/>
				<path clip-path="url(#SVGID_4_)" fill-rule="evenodd" clip-rule="evenodd" fill="#2C77BC" d="M493.6,514.166
					c0,3.1-2.5,5.6-5.6,5.6c-3,0-5.5-2.5-5.5-5.6c0-3,2.5-5.5,5.5-5.5C491.1,508.666,493.6,511.166,493.6,514.166z"/>
				<path clip-path="url(#SVGID_4_)" fill-rule="evenodd" clip-rule="evenodd" fill="#2C77BC" d="M523.5,514.166
					c0,3.1-2.5,5.6-5.6,5.6c-3,0-5.5-2.5-5.5-5.6c0-3,2.5-5.5,5.5-5.5C521,508.666,523.5,511.166,523.5,514.166z"/>
				<path clip-path="url(#SVGID_4_)" fill-rule="evenodd" clip-rule="evenodd" fill="#2C77BC" d="M553.4,514.166
					c0,3.1-2.5,5.6-5.601,5.6c-3.1,0-5.5-2.5-5.5-5.6c0-3,2.4-5.5,5.5-5.5C550.9,508.666,553.4,511.166,553.4,514.166z"/>
				<path clip-path="url(#SVGID_4_)" fill-rule="evenodd" clip-rule="evenodd" fill="#2C77BC" d="M583.3,514.166
					c0,3.1-2.5,5.6-5.6,5.6c-3.101,0-5.601-2.5-5.601-5.6c0-3,2.5-5.5,5.601-5.5C580.8,508.666,583.3,511.166,583.3,514.166z"/>
				<path clip-path="url(#SVGID_4_)" fill-rule="evenodd" clip-rule="evenodd" fill="#2C77BC" d="M613.1,514.166
					c0,3.1-2.399,5.6-5.5,5.6c-3.1,0-5.5-2.5-5.5-5.6c0-3,2.4-5.5,5.5-5.5C610.7,508.666,613.1,511.166,613.1,514.166z"/>
				<path clip-path="url(#SVGID_4_)" fill-rule="evenodd" clip-rule="evenodd" fill="#2C77BC" d="M643,514.166
					c0,3.1-2.4,5.6-5.5,5.6s-5.6-2.5-5.6-5.6c0-3,2.5-5.5,5.6-5.5S643,511.166,643,514.166z"/>
				<path clip-path="url(#SVGID_4_)" fill-rule="evenodd" clip-rule="evenodd" fill="#2C77BC" d="M344.1,544.465
					c0,3.101-2.399,5.5-5.5,5.5c-3.1,0-5.6-2.399-5.6-5.5c0-3.1,2.5-5.6,5.6-5.6C341.7,538.865,344.1,541.365,344.1,544.465z"/>
				<path clip-path="url(#SVGID_4_)" fill-rule="evenodd" clip-rule="evenodd" fill="#2C77BC" d="M374,544.465
					c0,3.101-2.5,5.5-5.6,5.5c-3,0-5.5-2.399-5.5-5.5c0-3.1,2.5-5.6,5.5-5.6C371.5,538.865,374,541.365,374,544.465z"/>
				<path clip-path="url(#SVGID_4_)" fill-rule="evenodd" clip-rule="evenodd" fill="#2C77BC" d="M403.9,544.465
					c0,3.101-2.5,5.5-5.5,5.5c-3.101,0-5.601-2.399-5.601-5.5c0-3.1,2.5-5.6,5.601-5.6C401.4,538.865,403.9,541.365,403.9,544.465z"
					/>
				<path clip-path="url(#SVGID_4_)" fill-rule="evenodd" clip-rule="evenodd" fill="#2C77BC" d="M433.8,544.465
					c0,3.101-2.5,5.5-5.5,5.5c-3.1,0-5.6-2.399-5.6-5.5c0-3.1,2.5-5.6,5.6-5.6C431.3,538.865,433.8,541.365,433.8,544.465z"/>
				<path clip-path="url(#SVGID_4_)" fill-rule="evenodd" clip-rule="evenodd" fill="#2C77BC" d="M463.7,544.465
					c0,3.101-2.5,5.5-5.601,5.5c-3,0-5.5-2.399-5.5-5.5c0-3.1,2.5-5.6,5.5-5.6C461.2,538.865,463.7,541.365,463.7,544.465z"/>
				<path clip-path="url(#SVGID_4_)" fill-rule="evenodd" clip-rule="evenodd" fill="#2C77BC" d="M493.6,544.465
					c0,3.101-2.5,5.5-5.6,5.5c-3,0-5.5-2.399-5.5-5.5c0-3.1,2.5-5.6,5.5-5.6C491.1,538.865,493.6,541.365,493.6,544.465z"/>
				<path clip-path="url(#SVGID_4_)" fill-rule="evenodd" clip-rule="evenodd" fill="#2C77BC" d="M523.5,544.465
					c0,3.101-2.5,5.5-5.6,5.5c-3,0-5.5-2.399-5.5-5.5c0-3.1,2.5-5.6,5.5-5.6C521,538.865,523.5,541.365,523.5,544.465z"/>
				<path clip-path="url(#SVGID_4_)" fill-rule="evenodd" clip-rule="evenodd" fill="#2C77BC" d="M553.4,544.465
					c0,3.101-2.5,5.5-5.601,5.5c-3.1,0-5.5-2.399-5.5-5.5c0-3.1,2.4-5.6,5.5-5.6C550.9,538.865,553.4,541.365,553.4,544.465z"/>
				<path clip-path="url(#SVGID_4_)" fill-rule="evenodd" clip-rule="evenodd" fill="#2C77BC" d="M583.3,544.465
					c0,3.101-2.5,5.5-5.6,5.5c-3.101,0-5.601-2.399-5.601-5.5c0-3.1,2.5-5.6,5.601-5.6C580.8,538.865,583.3,541.365,583.3,544.465z"
					/>
				<path clip-path="url(#SVGID_4_)" fill-rule="evenodd" clip-rule="evenodd" fill="#2C77BC" d="M613.1,544.465
					c0,3.101-2.399,5.5-5.5,5.5c-3.1,0-5.5-2.399-5.5-5.5c0-3.1,2.4-5.6,5.5-5.6C610.7,538.865,613.1,541.365,613.1,544.465z"/>
				<path clip-path="url(#SVGID_4_)" fill-rule="evenodd" clip-rule="evenodd" fill="#2C77BC" d="M643,544.465
					c0,3.101-2.4,5.5-5.5,5.5s-5.6-2.399-5.6-5.5c0-3.1,2.5-5.6,5.6-5.6S643,541.365,643,544.465z"/>
				<path clip-path="url(#SVGID_4_)" fill-rule="evenodd" clip-rule="evenodd" fill="#2C77BC" d="M344.1,574.666
					c0,3.1-2.399,5.6-5.5,5.6c-3.1,0-5.6-2.5-5.6-5.6c0-3,2.5-5.5,5.6-5.5C341.7,569.166,344.1,571.666,344.1,574.666z"/>
				<path clip-path="url(#SVGID_4_)" fill-rule="evenodd" clip-rule="evenodd" fill="#2C77BC" d="M374,574.666
					c0,3.1-2.5,5.6-5.6,5.6c-3,0-5.5-2.5-5.5-5.6c0-3,2.5-5.5,5.5-5.5C371.5,569.166,374,571.666,374,574.666z"/>
				<path clip-path="url(#SVGID_4_)" fill-rule="evenodd" clip-rule="evenodd" fill="#2C77BC" d="M403.9,574.666
					c0,3.1-2.5,5.6-5.5,5.6c-3.101,0-5.601-2.5-5.601-5.6c0-3,2.5-5.5,5.601-5.5C401.4,569.166,403.9,571.666,403.9,574.666z"/>
				<path clip-path="url(#SVGID_4_)" fill-rule="evenodd" clip-rule="evenodd" fill="#2C77BC" d="M433.8,574.666
					c0,3.1-2.5,5.6-5.5,5.6c-3.1,0-5.6-2.5-5.6-5.6c0-3,2.5-5.5,5.6-5.5C431.3,569.166,433.8,571.666,433.8,574.666z"/>
				<path clip-path="url(#SVGID_4_)" fill-rule="evenodd" clip-rule="evenodd" fill="#2C77BC" d="M463.7,574.666
					c0,3.1-2.5,5.6-5.601,5.6c-3,0-5.5-2.5-5.5-5.6c0-3,2.5-5.5,5.5-5.5C461.2,569.166,463.7,571.666,463.7,574.666z"/>
				<path clip-path="url(#SVGID_4_)" fill-rule="evenodd" clip-rule="evenodd" fill="#2C77BC" d="M493.6,574.666
					c0,3.1-2.5,5.6-5.6,5.6c-3,0-5.5-2.5-5.5-5.6c0-3,2.5-5.5,5.5-5.5C491.1,569.166,493.6,571.666,493.6,574.666z"/>
				<path clip-path="url(#SVGID_4_)" fill-rule="evenodd" clip-rule="evenodd" fill="#2C77BC" d="M523.5,574.666
					c0,3.1-2.5,5.6-5.6,5.6c-3,0-5.5-2.5-5.5-5.6c0-3,2.5-5.5,5.5-5.5C521,569.166,523.5,571.666,523.5,574.666z"/>
				<path clip-path="url(#SVGID_4_)" fill-rule="evenodd" clip-rule="evenodd" fill="#2C77BC" d="M553.4,574.666
					c0,3.1-2.5,5.6-5.601,5.6c-3.1,0-5.5-2.5-5.5-5.6c0-3,2.4-5.5,5.5-5.5C550.9,569.166,553.4,571.666,553.4,574.666z"/>
				<path clip-path="url(#SVGID_4_)" fill-rule="evenodd" clip-rule="evenodd" fill="#2C77BC" d="M583.3,574.666
					c0,3.1-2.5,5.6-5.6,5.6c-3.101,0-5.601-2.5-5.601-5.6c0-3,2.5-5.5,5.601-5.5C580.8,569.166,583.3,571.666,583.3,574.666z"/>
				<path clip-path="url(#SVGID_4_)" fill-rule="evenodd" clip-rule="evenodd" fill="#2C77BC" d="M613.1,574.666
					c0,3.1-2.399,5.6-5.5,5.6c-3.1,0-5.5-2.5-5.5-5.6c0-3,2.4-5.5,5.5-5.5C610.7,569.166,613.1,571.666,613.1,574.666z"/>
				<path clip-path="url(#SVGID_4_)" fill-rule="evenodd" clip-rule="evenodd" fill="#2C77BC" d="M643,574.666
					c0,3.1-2.4,5.6-5.5,5.6s-5.6-2.5-5.6-5.6c0-3,2.5-5.5,5.6-5.5S643,571.666,643,574.666z"/>
				<path clip-path="url(#SVGID_4_)" fill-rule="evenodd" clip-rule="evenodd" fill="#2C77BC" d="M344.1,604.965
					c0,3.1-2.399,5.5-5.5,5.5c-3.1,0-5.6-2.4-5.6-5.5s2.5-5.5,5.6-5.5C341.7,599.465,344.1,601.865,344.1,604.965z"/>
				<path clip-path="url(#SVGID_4_)" fill-rule="evenodd" clip-rule="evenodd" fill="#2C77BC" d="M374,604.965
					c0,3.1-2.5,5.5-5.6,5.5c-3,0-5.5-2.4-5.5-5.5s2.5-5.5,5.5-5.5C371.5,599.465,374,601.865,374,604.965z"/>
				<path clip-path="url(#SVGID_4_)" fill-rule="evenodd" clip-rule="evenodd" fill="#2C77BC" d="M403.9,604.965
					c0,3.1-2.5,5.5-5.5,5.5c-3.101,0-5.601-2.4-5.601-5.5s2.5-5.5,5.601-5.5C401.4,599.465,403.9,601.865,403.9,604.965z"/>
				<path clip-path="url(#SVGID_4_)" fill-rule="evenodd" clip-rule="evenodd" fill="#2C77BC" d="M433.8,604.965
					c0,3.1-2.5,5.5-5.5,5.5c-3.1,0-5.6-2.4-5.6-5.5s2.5-5.5,5.6-5.5C431.3,599.465,433.8,601.865,433.8,604.965z"/>
				<path clip-path="url(#SVGID_4_)" fill-rule="evenodd" clip-rule="evenodd" fill="#2C77BC" d="M463.7,604.965
					c0,3.1-2.5,5.5-5.601,5.5c-3,0-5.5-2.4-5.5-5.5s2.5-5.5,5.5-5.5C461.2,599.465,463.7,601.865,463.7,604.965z"/>
				<path clip-path="url(#SVGID_4_)" fill-rule="evenodd" clip-rule="evenodd" fill="#2C77BC" d="M493.6,604.965
					c0,3.1-2.5,5.5-5.6,5.5c-3,0-5.5-2.4-5.5-5.5s2.5-5.5,5.5-5.5C491.1,599.465,493.6,601.865,493.6,604.965z"/>
				<path clip-path="url(#SVGID_4_)" fill-rule="evenodd" clip-rule="evenodd" fill="#2C77BC" d="M523.5,604.965
					c0,3.1-2.5,5.5-5.6,5.5c-3,0-5.5-2.4-5.5-5.5s2.5-5.5,5.5-5.5C521,599.465,523.5,601.865,523.5,604.965z"/>
				<path clip-path="url(#SVGID_4_)" fill-rule="evenodd" clip-rule="evenodd" fill="#2C77BC" d="M553.4,604.965
					c0,3.1-2.5,5.5-5.601,5.5c-3.1,0-5.5-2.4-5.5-5.5s2.4-5.5,5.5-5.5C550.9,599.465,553.4,601.865,553.4,604.965z"/>
				<path clip-path="url(#SVGID_4_)" fill-rule="evenodd" clip-rule="evenodd" fill="#2C77BC" d="M583.3,604.965
					c0,3.1-2.5,5.5-5.6,5.5c-3.101,0-5.601-2.4-5.601-5.5s2.5-5.5,5.601-5.5C580.8,599.465,583.3,601.865,583.3,604.965z"/>
				<path clip-path="url(#SVGID_4_)" fill-rule="evenodd" clip-rule="evenodd" fill="#2C77BC" d="M613.1,604.965
					c0,3.1-2.399,5.5-5.5,5.5c-3.1,0-5.5-2.4-5.5-5.5s2.4-5.5,5.5-5.5C610.7,599.465,613.1,601.865,613.1,604.965z"/>
				<path clip-path="url(#SVGID_4_)" fill-rule="evenodd" clip-rule="evenodd" fill="#2C77BC" d="M643,604.965
					c0,3.1-2.4,5.5-5.5,5.5s-5.6-2.4-5.6-5.5s2.5-5.5,5.6-5.5S643,601.865,643,604.965z"/>
				<path clip-path="url(#SVGID_4_)" fill-rule="evenodd" clip-rule="evenodd" fill="#2C77BC" d="M344.1,635.166
					c0,3.1-2.399,5.6-5.5,5.6c-3.1,0-5.6-2.5-5.6-5.6c0-3,2.5-5.5,5.6-5.5C341.7,629.666,344.1,632.166,344.1,635.166z"/>
				<path clip-path="url(#SVGID_4_)" fill-rule="evenodd" clip-rule="evenodd" fill="#2C77BC" d="M374,635.166
					c0,3.1-2.5,5.6-5.6,5.6c-3,0-5.5-2.5-5.5-5.6c0-3,2.5-5.5,5.5-5.5C371.5,629.666,374,632.166,374,635.166z"/>
				<path clip-path="url(#SVGID_4_)" fill-rule="evenodd" clip-rule="evenodd" fill="#2C77BC" d="M403.9,635.166
					c0,3.1-2.5,5.6-5.5,5.6c-3.101,0-5.601-2.5-5.601-5.6c0-3,2.5-5.5,5.601-5.5C401.4,629.666,403.9,632.166,403.9,635.166z"/>
				<path clip-path="url(#SVGID_4_)" fill-rule="evenodd" clip-rule="evenodd" fill="#2C77BC" d="M433.8,635.166
					c0,3.1-2.5,5.6-5.5,5.6c-3.1,0-5.6-2.5-5.6-5.6c0-3,2.5-5.5,5.6-5.5C431.3,629.666,433.8,632.166,433.8,635.166z"/>
				<path clip-path="url(#SVGID_4_)" fill-rule="evenodd" clip-rule="evenodd" fill="#2C77BC" d="M463.7,635.166
					c0,3.1-2.5,5.6-5.601,5.6c-3,0-5.5-2.5-5.5-5.6c0-3,2.5-5.5,5.5-5.5C461.2,629.666,463.7,632.166,463.7,635.166z"/>
				<path clip-path="url(#SVGID_4_)" fill-rule="evenodd" clip-rule="evenodd" fill="#2C77BC" d="M493.6,635.166
					c0,3.1-2.5,5.6-5.6,5.6c-3,0-5.5-2.5-5.5-5.6c0-3,2.5-5.5,5.5-5.5C491.1,629.666,493.6,632.166,493.6,635.166z"/>
				<path clip-path="url(#SVGID_4_)" fill-rule="evenodd" clip-rule="evenodd" fill="#2C77BC" d="M523.5,635.166
					c0,3.1-2.5,5.6-5.6,5.6c-3,0-5.5-2.5-5.5-5.6c0-3,2.5-5.5,5.5-5.5C521,629.666,523.5,632.166,523.5,635.166z"/>
				<path clip-path="url(#SVGID_4_)" fill-rule="evenodd" clip-rule="evenodd" fill="#2C77BC" d="M553.4,635.166
					c0,3.1-2.5,5.6-5.601,5.6c-3.1,0-5.5-2.5-5.5-5.6c0-3,2.4-5.5,5.5-5.5C550.9,629.666,553.4,632.166,553.4,635.166z"/>
				<path clip-path="url(#SVGID_4_)" fill-rule="evenodd" clip-rule="evenodd" fill="#2C77BC" d="M583.3,635.166
					c0,3.1-2.5,5.6-5.6,5.6c-3.101,0-5.601-2.5-5.601-5.6c0-3,2.5-5.5,5.601-5.5C580.8,629.666,583.3,632.166,583.3,635.166z"/>
				<path clip-path="url(#SVGID_4_)" fill-rule="evenodd" clip-rule="evenodd" fill="#2C77BC" d="M613.1,635.166
					c0,3.1-2.399,5.6-5.5,5.6c-3.1,0-5.5-2.5-5.5-5.6c0-3,2.4-5.5,5.5-5.5C610.7,629.666,613.1,632.166,613.1,635.166z"/>
				<path clip-path="url(#SVGID_4_)" fill-rule="evenodd" clip-rule="evenodd" fill="#2C77BC" d="M643,635.166
					c0,3.1-2.4,5.6-5.5,5.6s-5.6-2.5-5.6-5.6c0-3,2.5-5.5,5.6-5.5S643,632.166,643,635.166z"/>
				
					<rect x="133" y="248.266" clip-path="url(#SVGID_4_)" fill="none" stroke="#2C77BC" stroke-width="4.9808" stroke-miterlimit="7.6613" width="24.1" height="359.799"/>
				
					<rect x="133" y="190.465" clip-path="url(#SVGID_4_)" fill="none" stroke="#2C77BC" stroke-width="4.9808" stroke-miterlimit="7.6613" width="180.1" height="24.101"/>
				
					<rect x="110.2" y="708.766" clip-path="url(#SVGID_4_)" fill="none" stroke="#2C77BC" stroke-width="4.9808" stroke-miterlimit="7.6613" width="119.7" height="24.1"/>
				
					<rect x="388.3" y="190.465" clip-path="url(#SVGID_4_)" fill="none" stroke="#2C77BC" stroke-width="4.9808" stroke-miterlimit="7.6613" width="239.4" height="24.101"/>
				
					<rect x="403.9" y="380.166" clip-path="url(#SVGID_4_)" fill="none" stroke="#2C77BC" stroke-width="4.9808" stroke-miterlimit="7.6613" width="54.3" height="54.199"/>
				
					<rect x="558.9" y="326.865" clip-path="url(#SVGID_4_)" fill="none" stroke="#2C77BC" stroke-width="4.9808" stroke-miterlimit="7.6613" width="54.199" height="27.2"/>
				
					<rect x="637.5" y="266.565" clip-path="url(#SVGID_4_)" fill="none" stroke="#2C77BC" stroke-width="4.9808" stroke-miterlimit="7.6613" width="54.2" height="27.2"/>
				
					<rect x="637.5" y="387.266" clip-path="url(#SVGID_4_)" fill="none" stroke="#2C77BC" stroke-width="4.9808" stroke-miterlimit="7.6613" width="54.2" height="27.1"/>
				
					<rect x="251.9" y="712.166" clip-path="url(#SVGID_4_)" fill="none" stroke="#2C77BC" stroke-width="4.9808" stroke-miterlimit="7.6613" width="163.399" height="62.799"/>
				
					<rect x="468" y="712.166" clip-path="url(#SVGID_4_)" fill="none" stroke="#2C77BC" stroke-width="4.9808" stroke-miterlimit="7.6613" width="163.4" height="62.799"/>
				
					<rect x="712.6" y="326.865" clip-path="url(#SVGID_4_)" fill="none" stroke="#2C77BC" stroke-width="4.9808" stroke-miterlimit="7.6613" width="54.301" height="27.2"/>
				
					<rect x="274.4" y="746.965" clip-path="url(#SVGID_4_)" fill-rule="evenodd" clip-rule="evenodd" fill="#2C77BC" width="7.199" height="7.201"/>
				
					<rect x="302" y="746.965" clip-path="url(#SVGID_4_)" fill-rule="evenodd" clip-rule="evenodd" fill="#2C77BC" width="7.3" height="7.201"/>
				
					<rect x="329.6" y="746.965" clip-path="url(#SVGID_4_)" fill-rule="evenodd" clip-rule="evenodd" fill="#2C77BC" width="7.301" height="7.201"/>
				
					<rect x="357.3" y="746.965" clip-path="url(#SVGID_4_)" fill-rule="evenodd" clip-rule="evenodd" fill="#2C77BC" width="7.2" height="7.201"/>
				
					<rect x="384.9" y="746.965" clip-path="url(#SVGID_4_)" fill-rule="evenodd" clip-rule="evenodd" fill="#2C77BC" width="7.199" height="7.201"/>
				
					<rect x="490.2" y="746.965" clip-path="url(#SVGID_4_)" fill-rule="evenodd" clip-rule="evenodd" fill="#2C77BC" width="7.2" height="7.201"/>
				
					<rect x="517.8" y="746.965" clip-path="url(#SVGID_4_)" fill-rule="evenodd" clip-rule="evenodd" fill="#2C77BC" width="7.2" height="7.201"/>
				
					<rect x="545.4" y="746.965" clip-path="url(#SVGID_4_)" fill-rule="evenodd" clip-rule="evenodd" fill="#2C77BC" width="7.3" height="7.201"/>
				
					<rect x="573.1" y="746.965" clip-path="url(#SVGID_4_)" fill-rule="evenodd" clip-rule="evenodd" fill="#2C77BC" width="7.2" height="7.201"/>
				
					<rect x="600.7" y="746.965" clip-path="url(#SVGID_4_)" fill-rule="evenodd" clip-rule="evenodd" fill="#2C77BC" width="7.2" height="7.201"/>
				
					<rect x="662.9" y="716.365" clip-path="url(#SVGID_4_)" fill-rule="evenodd" clip-rule="evenodd" fill="#2C77BC" width="7.199" height="7.301"/>
				
					<rect x="695.2" y="716.365" clip-path="url(#SVGID_4_)" fill-rule="evenodd" clip-rule="evenodd" fill="#2C77BC" width="7.2" height="7.301"/>
				
					<rect x="129.7" y="655.365" clip-path="url(#SVGID_4_)" fill-rule="evenodd" clip-rule="evenodd" fill="#2C77BC" width="7.3" height="7.199"/>
				
					<rect x="162.1" y="655.365" clip-path="url(#SVGID_4_)" fill-rule="evenodd" clip-rule="evenodd" fill="#2C77BC" width="7.2" height="7.199"/>
				
					<rect x="725.2" y="716.365" clip-path="url(#SVGID_4_)" fill-rule="evenodd" clip-rule="evenodd" fill="#2C77BC" width="7.2" height="7.301"/>
				
					<line clip-path="url(#SVGID_4_)" fill="none" stroke="#2C77BC" stroke-width="4.9808" stroke-miterlimit="7.6613" x1="140.1" y1="708.766" x2="140.1" y2="732.865"/>
				
					<line clip-path="url(#SVGID_4_)" fill="none" stroke="#2C77BC" stroke-width="4.9808" stroke-miterlimit="7.6613" x1="170.1" y1="708.766" x2="170.1" y2="732.865"/>
				
					<line clip-path="url(#SVGID_4_)" fill="none" stroke="#2C77BC" stroke-width="4.9808" stroke-miterlimit="7.6613" x1="200" y1="708.766" x2="200" y2="732.865"/>
				
					<rect x="652.7" y="708.766" clip-path="url(#SVGID_4_)" fill="none" stroke="#2C77BC" stroke-width="4.9808" stroke-miterlimit="7.6613" width="90.2" height="24.1"/>
				
					<line clip-path="url(#SVGID_4_)" fill="none" stroke="#2C77BC" stroke-width="4.9808" stroke-miterlimit="7.6613" x1="682.6" y1="708.766" x2="682.6" y2="732.865"/>
				
					<line clip-path="url(#SVGID_4_)" fill="none" stroke="#2C77BC" stroke-width="4.9808" stroke-miterlimit="7.6613" x1="712.6" y1="708.766" x2="712.6" y2="732.865"/>
				
					<rect x="118.9" y="646.064" clip-path="url(#SVGID_4_)" fill="none" stroke="#2C77BC" stroke-width="4.9808" stroke-miterlimit="7.6613" width="59.8" height="24"/>
				
					<line clip-path="url(#SVGID_4_)" fill="none" stroke="#2C77BC" stroke-width="4.9808" stroke-miterlimit="7.6613" x1="148.8" y1="646.064" x2="148.8" y2="670.064"/>
				
					<line clip-path="url(#SVGID_4_)" fill="none" stroke="#2C77BC" stroke-width="4.9808" stroke-miterlimit="7.6613" x1="157" y1="578.166" x2="133" y2="578.166"/>
				
					<line clip-path="url(#SVGID_4_)" fill="none" stroke="#2C77BC" stroke-width="4.9808" stroke-miterlimit="7.6613" x1="157" y1="547.565" x2="133" y2="547.565"/>
				
					<line clip-path="url(#SVGID_4_)" fill="none" stroke="#2C77BC" stroke-width="4.9808" stroke-miterlimit="7.6613" x1="157" y1="517.565" x2="133" y2="517.565"/>
				
					<line clip-path="url(#SVGID_4_)" fill="none" stroke="#2C77BC" stroke-width="4.9808" stroke-miterlimit="7.6613" x1="157" y1="487.666" x2="133" y2="487.666"/>
				
					<line clip-path="url(#SVGID_4_)" fill="none" stroke="#2C77BC" stroke-width="4.9808" stroke-miterlimit="7.6613" x1="157" y1="457.766" x2="133" y2="457.766"/>
				
					<line clip-path="url(#SVGID_4_)" fill="none" stroke="#2C77BC" stroke-width="4.9808" stroke-miterlimit="7.6613" x1="157" y1="427.766" x2="133" y2="427.766"/>
				
					<line clip-path="url(#SVGID_4_)" fill="none" stroke="#2C77BC" stroke-width="4.9808" stroke-miterlimit="7.6613" x1="157" y1="397.865" x2="133" y2="397.865"/>
				
					<line clip-path="url(#SVGID_4_)" fill="none" stroke="#2C77BC" stroke-width="4.9808" stroke-miterlimit="7.6613" x1="157" y1="367.965" x2="133" y2="367.965"/>
				
					<line clip-path="url(#SVGID_4_)" fill="none" stroke="#2C77BC" stroke-width="4.9808" stroke-miterlimit="7.6613" x1="157" y1="338.065" x2="133" y2="338.065"/>
				
					<line clip-path="url(#SVGID_4_)" fill="none" stroke="#2C77BC" stroke-width="4.9808" stroke-miterlimit="7.6613" x1="157" y1="308.166" x2="133" y2="308.166"/>
				
					<line clip-path="url(#SVGID_4_)" fill="none" stroke="#2C77BC" stroke-width="4.9808" stroke-miterlimit="7.6613" x1="157" y1="278.166" x2="133" y2="278.166"/>
				
					<line clip-path="url(#SVGID_4_)" fill="none" stroke="#2C77BC" stroke-width="4.9808" stroke-miterlimit="7.6613" x1="418.2" y1="214.465" x2="418.2" y2="190.465"/>
				
					<line clip-path="url(#SVGID_4_)" fill="none" stroke="#2C77BC" stroke-width="4.9808" stroke-miterlimit="7.6613" x1="282.6" y1="214.465" x2="282.6" y2="190.465"/>
				
					<line clip-path="url(#SVGID_4_)" fill="none" stroke="#2C77BC" stroke-width="4.9808" stroke-miterlimit="7.6613" x1="252.7" y1="214.465" x2="252.7" y2="190.465"/>
				
					<line clip-path="url(#SVGID_4_)" fill="none" stroke="#2C77BC" stroke-width="4.9808" stroke-miterlimit="7.6613" x1="222.8" y1="214.465" x2="222.8" y2="190.465"/>
				
					<line clip-path="url(#SVGID_4_)" fill="none" stroke="#2C77BC" stroke-width="4.9808" stroke-miterlimit="7.6613" x1="192.9" y1="214.465" x2="192.9" y2="190.465"/>
				
					<line clip-path="url(#SVGID_4_)" fill="none" stroke="#2C77BC" stroke-width="4.9808" stroke-miterlimit="7.6613" x1="163" y1="214.465" x2="163" y2="190.465"/>
				
					<line clip-path="url(#SVGID_4_)" fill="none" stroke="#2C77BC" stroke-width="4.9808" stroke-miterlimit="7.6613" x1="448.2" y1="214.465" x2="448.2" y2="190.465"/>
				
					<line clip-path="url(#SVGID_4_)" fill="none" stroke="#2C77BC" stroke-width="4.9808" stroke-miterlimit="7.6613" x1="478.1" y1="214.465" x2="478.1" y2="190.465"/>
				
					<line clip-path="url(#SVGID_4_)" fill="none" stroke="#2C77BC" stroke-width="4.9808" stroke-miterlimit="7.6613" x1="508" y1="214.465" x2="508" y2="190.465"/>
				
					<line clip-path="url(#SVGID_4_)" fill="none" stroke="#2C77BC" stroke-width="4.9808" stroke-miterlimit="7.6613" x1="537.9" y1="214.465" x2="537.9" y2="190.465"/>
				
					<line clip-path="url(#SVGID_4_)" fill="none" stroke="#2C77BC" stroke-width="4.9808" stroke-miterlimit="7.6613" x1="567.8" y1="214.465" x2="567.8" y2="190.465"/>
				
					<line clip-path="url(#SVGID_4_)" fill="none" stroke="#2C77BC" stroke-width="4.9808" stroke-miterlimit="7.6613" x1="597.8" y1="214.465" x2="597.8" y2="190.465"/>
				<path clip-path="url(#SVGID_4_)" fill="#2A77BC" d="M179.235,265.828c1.109,0.237,1.976,0.73,2.599,1.48
					c0.624,0.75,0.936,1.676,0.936,2.777c0,1.689-0.582,2.998-1.744,3.924s-2.814,1.389-4.957,1.389
					c-0.719,0-1.459-0.071-2.221-0.213c-0.761-0.141-1.547-0.354-2.357-0.637v-2.237c0.643,0.374,1.346,0.657,2.111,0.849
					c0.765,0.191,1.564,0.287,2.398,0.287c1.453,0,2.561-0.287,3.321-0.86s1.142-1.407,1.142-2.501c0-1.01-0.354-1.801-1.061-2.37
					c-0.708-0.569-1.693-0.854-2.955-0.854h-1.996v-1.905h2.088c1.14,0,2.012-0.228,2.616-0.683s0.906-1.111,0.906-1.968
					c0-0.88-0.312-1.556-0.935-2.025c-0.624-0.47-1.518-0.706-2.68-0.706c-0.635,0-1.316,0.069-2.043,0.207
					s-1.525,0.352-2.398,0.643v-2.065c0.881-0.245,1.705-0.429,2.473-0.551c0.77-0.122,1.494-0.184,2.176-0.184
					c1.759,0,3.15,0.399,4.176,1.198c1.025,0.801,1.538,1.881,1.538,3.242c0,0.949-0.272,1.75-0.815,2.404
					S180.237,265.576,179.235,265.828z M187.183,272.15h2.421v2.915h-2.421V272.15z M201.607,265.828
					c1.109,0.237,1.976,0.73,2.6,1.48c0.623,0.75,0.935,1.676,0.935,2.777c0,1.689-0.581,2.998-1.744,3.924
					s-2.815,1.389-4.957,1.389c-0.72,0-1.459-0.071-2.22-0.213c-0.762-0.141-1.548-0.354-2.358-0.637v-2.237
					c0.643,0.374,1.347,0.657,2.111,0.849s1.563,0.287,2.397,0.287c1.454,0,2.561-0.287,3.322-0.86s1.143-1.407,1.143-2.501
					c0-1.01-0.354-1.801-1.063-2.37c-0.707-0.569-1.691-0.854-2.954-0.854h-1.997v-1.905h2.089c1.14,0,2.012-0.228,2.616-0.683
					c0.604-0.455,0.906-1.111,0.906-1.968c0-0.88-0.312-1.556-0.936-2.025c-0.623-0.47-1.516-0.706-2.679-0.706
					c-0.636,0-1.315,0.069-2.042,0.207c-0.728,0.138-1.527,0.352-2.398,0.643v-2.065c0.879-0.245,1.703-0.429,2.473-0.551
					c0.769-0.122,1.493-0.184,2.174-0.184c1.76,0,3.152,0.399,4.178,1.198c1.024,0.801,1.537,1.881,1.537,3.242
					c0,0.949-0.271,1.75-0.814,2.404S202.609,265.576,201.607,265.828z M221.238,275.065l-6.54-17.132h2.421l5.428,14.424
					l5.439-14.424h2.409l-6.529,17.132H221.238z"/>
				<path clip-path="url(#SVGID_4_)" fill="#2A77BC" d="M183.688,302.221v-4.601H179.9v-1.905h6.082v7.355
					c-0.895,0.635-1.882,1.115-2.961,1.439c-1.078,0.326-2.229,0.488-3.453,0.488c-2.678,0-4.771-0.781-6.283-2.347
					c-1.51-1.563-2.266-3.742-2.266-6.534c0-2.801,0.756-4.982,2.266-6.547c1.512-1.564,3.605-2.346,6.283-2.346
					c1.117,0,2.178,0.137,3.184,0.412s1.934,0.682,2.783,1.217v2.467c-0.857-0.727-1.768-1.273-2.73-1.641
					c-0.965-0.367-1.979-0.551-3.041-0.551c-2.097,0-3.67,0.585-4.723,1.756c-1.051,1.17-1.577,2.914-1.577,5.232
					c0,2.311,0.526,4.051,1.577,5.221c1.053,1.17,2.626,1.756,4.723,1.756c0.818,0,1.549-0.07,2.191-0.213
					C182.598,302.74,183.175,302.52,183.688,302.221z M190.195,287.533h3.121l7.596,14.332v-14.332h2.25v17.133h-3.121
					l-7.597-14.332v14.332h-2.249V287.533z M207.867,287.533h4.762c3.32,0,5.757,0.691,7.311,2.072
					c1.553,1.381,2.328,3.539,2.328,6.477c0,2.953-0.779,5.122-2.34,6.506c-1.561,1.385-3.994,2.078-7.299,2.078h-4.762V287.533z
					 M210.186,289.438v13.322h2.8c2.364,0,4.095-0.536,5.192-1.606c1.098-1.071,1.646-2.762,1.646-5.072
					c0-2.295-0.549-3.976-1.646-5.043c-1.098-1.066-2.828-1.601-5.192-1.601H210.186z"/>
				<path clip-path="url(#SVGID_4_)" fill="#2A77BC" d="M177.973,346.734h2.915v11.164h2.444v1.928h-2.444v4.039h-2.306v-4.039
					h-7.734v-2.237L177.973,346.734z M178.582,348.754l-5.853,9.145h5.853V348.754z M199.358,346.033
					c-1.024,1.76-1.786,3.5-2.283,5.222s-0.746,3.466-0.746,5.232s0.251,3.517,0.751,5.249c0.502,1.732,1.261,3.475,2.278,5.227
					h-1.836c-1.147-1.797-2.007-3.564-2.576-5.301s-0.854-3.461-0.854-5.175c0-1.706,0.283-3.423,0.85-5.152
					c0.565-1.729,1.426-3.495,2.581-5.302H199.358z M203.473,346.734h2.318v17.131h-2.318V346.734z M217.406,346.424
					c2.402,0,4.322,0.805,5.76,2.416c1.438,1.609,2.158,3.77,2.158,6.477c0,2.701-0.72,4.855-2.158,6.467
					c-1.438,1.609-3.357,2.415-5.76,2.415c-2.41,0-4.336-0.804-5.777-2.409c-1.442-1.607-2.163-3.764-2.163-6.473
					c0-2.707,0.721-4.867,2.163-6.477C213.07,347.229,214.996,346.424,217.406,346.424z M217.406,348.306
					c-1.684,0-3.02,0.628-4.01,1.882c-0.991,1.255-1.486,2.965-1.486,5.129c0,2.158,0.495,3.863,1.486,5.118
					c0.99,1.255,2.326,1.882,4.01,1.882c1.683,0,3.016-0.627,3.999-1.882s1.474-2.96,1.474-5.118c0-2.164-0.49-3.874-1.474-5.129
					C220.422,348.934,219.089,348.306,217.406,348.306z M228.522,346.033h1.836c1.147,1.807,2.007,3.573,2.576,5.302
					c0.569,1.729,0.854,3.446,0.854,5.152c0,1.714-0.285,3.438-0.854,5.175s-1.429,3.504-2.576,5.301h-1.836
					c1.018-1.752,1.776-3.494,2.278-5.227c0.5-1.732,0.751-3.482,0.751-5.249s-0.251-3.511-0.751-5.232
					C230.299,349.533,229.54,347.793,228.522,346.033z"/>
				<path clip-path="url(#SVGID_4_)" fill="#2A77BC" d="M172.236,376.334h9.1v1.951h-6.977v4.199
					c0.336-0.115,0.672-0.201,1.01-0.258c0.336-0.059,0.672-0.086,1.01-0.086c1.912,0,3.426,0.523,4.543,1.571
					s1.676,2.468,1.676,4.257c0,1.844-0.574,3.276-1.721,4.297c-1.148,1.021-2.766,1.533-4.854,1.533
					c-0.72,0-1.452-0.063-2.197-0.184c-0.746-0.123-1.517-0.307-2.312-0.551v-2.33c0.688,0.375,1.399,0.654,2.134,0.838
					s1.511,0.275,2.329,0.275c1.323,0,2.371-0.348,3.145-1.045c0.771-0.695,1.158-1.641,1.158-2.834s-0.387-2.138-1.158-2.834
					c-0.773-0.695-1.821-1.045-3.145-1.045c-0.619,0-1.237,0.07-1.854,0.207c-0.615,0.139-1.244,0.352-1.887,0.643V376.334z
					 M199.358,375.634c-1.024,1.76-1.786,3.499-2.283,5.222c-0.497,1.721-0.746,3.465-0.746,5.232c0,1.766,0.251,3.516,0.751,5.249
					c0.502,1.732,1.261,3.475,2.278,5.227h-1.836c-1.147-1.798-2.007-3.564-2.576-5.302c-0.569-1.736-0.854-3.461-0.854-5.174
					c0-1.707,0.283-3.424,0.85-5.152c0.565-1.729,1.426-3.496,2.581-5.302H199.358z M203.473,376.334h5.232
					c1.92,0,3.372,0.434,4.355,1.303c0.982,0.867,1.475,2.139,1.475,3.814c0,1.691-0.492,2.969-1.475,3.832
					c-0.983,0.865-2.436,1.297-4.355,1.297h-2.914v6.885h-2.318V376.334z M205.791,378.238v6.438h2.914
					c1.079,0,1.912-0.279,2.502-0.838c0.589-0.559,0.883-1.354,0.883-2.387c0-1.025-0.294-1.816-0.883-2.375
					c-0.59-0.559-1.423-0.838-2.502-0.838H205.791z M216.117,376.334h2.341l3.603,14.48l3.592-14.48h2.605l3.603,14.48l3.592-14.48
					h2.353l-4.303,17.131h-2.915l-3.614-14.871l-3.649,14.871h-2.915L216.117,376.334z M240.484,375.634h1.836
					c1.146,1.806,2.006,3.573,2.576,5.302c0.569,1.729,0.854,3.445,0.854,5.152c0,1.713-0.285,3.438-0.854,5.174
					c-0.57,1.737-1.43,3.504-2.576,5.302h-1.836c1.018-1.752,1.776-3.494,2.277-5.227c0.501-1.733,0.752-3.483,0.752-5.249
					c0-1.768-0.251-3.512-0.752-5.232C242.261,379.133,241.502,377.394,240.484,375.634z"/>
				<path clip-path="url(#SVGID_4_)" fill="#2A77BC" d="M172.615,421.115h3.786v-13.07l-4.12,0.826v-2.111l4.098-0.826h2.317v15.182
					h3.786v1.95h-9.867V421.115z M192.14,405.624c1.92,0,3.387,0.759,4.4,2.278c1.014,1.518,1.521,3.723,1.521,6.614
					c0,2.884-0.507,5.085-1.521,6.604c-1.014,1.518-2.48,2.277-4.4,2.277c-1.921,0-3.388-0.76-4.401-2.277
					c-1.014-1.52-1.52-3.721-1.52-6.604c0-2.892,0.506-5.097,1.52-6.614C188.752,406.383,190.219,405.624,192.14,405.624z
					 M192.14,407.46c-1.193,0-2.091,0.587-2.69,1.761c-0.602,1.175-0.901,2.939-0.901,5.296c0,2.349,0.3,4.11,0.901,5.284
					c0.6,1.174,1.497,1.762,2.69,1.762c1.2,0,2.102-0.588,2.702-1.762s0.9-2.936,0.9-5.284c0-2.356-0.3-4.121-0.9-5.296
					C194.241,408.047,193.34,407.46,192.14,407.46z M214.328,405.234c-1.025,1.759-1.787,3.499-2.283,5.221
					c-0.498,1.721-0.746,3.465-0.746,5.232c0,1.767,0.25,3.517,0.752,5.25c0.5,1.732,1.26,3.475,2.277,5.227h-1.836
					c-1.147-1.799-2.006-3.565-2.576-5.302c-0.57-1.737-0.855-3.462-0.855-5.175c0-1.706,0.283-3.424,0.85-5.152
					s1.427-3.496,2.582-5.301H214.328z M218.514,405.934h5.232c1.92,0,3.371,0.435,4.354,1.303c0.983,0.868,1.475,2.14,1.475,3.814
					c0,1.691-0.491,2.969-1.475,3.833c-0.982,0.864-2.434,1.297-4.354,1.297h-2.915v6.885h-2.317V405.934z M220.831,407.838v6.438
					h2.915c1.078,0,1.912-0.279,2.501-0.838c0.589-0.558,0.884-1.354,0.884-2.387c0-1.024-0.295-1.816-0.884-2.375
					s-1.423-0.838-2.501-0.838H220.831z M231.087,405.934h2.341l3.604,14.48l3.591-14.48h2.604l3.604,14.48l3.592-14.48h2.352
					l-4.303,17.132h-2.914l-3.615-14.871l-3.648,14.871h-2.914L231.087,405.934z M255.453,405.234h1.836
					c1.148,1.805,2.006,3.572,2.576,5.301s0.855,3.446,0.855,5.152c0,1.713-0.285,3.438-0.855,5.175
					c-0.57,1.736-1.428,3.503-2.576,5.302h-1.836c1.018-1.752,1.777-3.494,2.278-5.227c0.501-1.733,0.751-3.483,0.751-5.25
					c0-1.768-0.25-3.512-0.751-5.232C257.23,408.733,256.471,406.993,255.453,405.234z"/>
				<path clip-path="url(#SVGID_4_)" fill="#2A77BC" d="M172.615,450.715h3.786v-13.07l-4.12,0.826v-2.111l4.098-0.826h2.317v15.182
					h3.786v1.951h-9.867V450.715z M197.027,435.912v2.111c-0.581-0.275-1.168-0.485-1.762-0.631
					c-0.592-0.145-1.18-0.218-1.761-0.218c-1.53,0-2.698,0.517-3.505,1.549c-0.808,1.032-1.269,2.593-1.383,4.682
					c0.451-0.665,1.018-1.177,1.697-1.532c0.682-0.355,1.432-0.533,2.25-0.533c1.721,0,3.08,0.521,4.078,1.566
					c0.999,1.044,1.498,2.465,1.498,4.263c0,1.76-0.52,3.171-1.561,4.234s-2.425,1.595-4.154,1.595c-1.98,0-3.496-0.76-4.543-2.277
					c-1.049-1.519-1.572-3.72-1.572-6.604c0-2.709,0.643-4.867,1.928-6.479c1.285-1.609,3.01-2.414,5.175-2.414
					c0.581,0,1.169,0.057,1.761,0.172C195.768,435.511,196.385,435.684,197.027,435.912z M192.426,443.176
					c-1.04,0-1.864,0.355-2.473,1.067c-0.607,0.712-0.912,1.687-0.912,2.926c0,1.231,0.305,2.205,0.912,2.921
					c0.608,0.715,1.433,1.072,2.473,1.072c1.041,0,1.865-0.357,2.473-1.072c0.609-0.716,0.913-1.689,0.913-2.921
					c0-1.239-0.304-2.214-0.913-2.926C194.291,443.531,193.467,443.176,192.426,443.176z M214.328,434.834
					c-1.025,1.76-1.787,3.5-2.283,5.221c-0.498,1.721-0.746,3.465-0.746,5.232s0.25,3.518,0.752,5.25
					c0.5,1.732,1.26,3.475,2.277,5.227h-1.836c-1.147-1.798-2.006-3.564-2.576-5.301c-0.57-1.737-0.855-3.462-0.855-5.176
					c0-1.705,0.283-3.424,0.85-5.152s1.427-3.496,2.582-5.301H214.328z M218.514,435.533h5.232c1.92,0,3.371,0.436,4.354,1.303
					c0.983,0.869,1.475,2.141,1.475,3.815c0,1.69-0.491,2.968-1.475,3.833c-0.982,0.864-2.434,1.297-4.354,1.297h-2.915v6.885
					h-2.317V435.533z M220.831,437.438v6.438h2.915c1.078,0,1.912-0.279,2.501-0.838c0.589-0.558,0.884-1.354,0.884-2.387
					c0-1.024-0.295-1.817-0.884-2.375c-0.589-0.559-1.423-0.838-2.501-0.838H220.831z M231.087,435.533h2.341l3.604,14.481
					l3.591-14.481h2.604l3.604,14.481l3.592-14.481h2.352l-4.303,17.133h-2.914l-3.615-14.871l-3.648,14.871h-2.914L231.087,435.533
					z M255.453,434.834h1.836c1.148,1.805,2.006,3.572,2.576,5.301s0.855,3.447,0.855,5.152c0,1.714-0.285,3.438-0.855,5.176
					c-0.57,1.736-1.428,3.503-2.576,5.301h-1.836c1.018-1.752,1.777-3.494,2.278-5.227s0.751-3.482,0.751-5.25
					s-0.25-3.512-0.751-5.232S256.471,436.594,255.453,434.834z"/>
				<path clip-path="url(#SVGID_4_)" fill="#2A77BC" d="M172.615,480.314h3.786v-13.069l-4.12,0.826v-2.111l4.098-0.826h2.317
					v15.181h3.786v1.951h-9.867V480.314z M192.943,465.134h2.914v11.165h2.443v1.928h-2.443v4.039h-2.307v-4.039h-7.734v-2.238
					L192.943,465.134z M193.551,467.153l-5.852,9.146h5.852V467.153z M214.328,464.434c-1.025,1.76-1.787,3.5-2.283,5.221
					c-0.498,1.722-0.746,3.466-0.746,5.232c0,1.768,0.25,3.518,0.752,5.25c0.5,1.732,1.26,3.475,2.277,5.227h-1.836
					c-1.147-1.797-2.006-3.564-2.576-5.301s-0.855-3.461-0.855-5.176c0-1.705,0.283-3.423,0.85-5.152
					c0.566-1.729,1.427-3.495,2.582-5.301H214.328z M218.514,465.134h2.317v15.181h8.342v1.951h-10.659V465.134z M231.084,464.434
					h1.836c1.147,1.806,2.006,3.572,2.576,5.301c0.57,1.729,0.855,3.447,0.855,5.152c0,1.715-0.285,3.439-0.855,5.176
					s-1.429,3.504-2.576,5.301h-1.836c1.018-1.752,1.777-3.494,2.277-5.227c0.502-1.732,0.752-3.482,0.752-5.25
					c0-1.767-0.25-3.511-0.752-5.232C232.861,467.934,232.102,466.193,231.084,464.434z"/>
				<path clip-path="url(#SVGID_4_)" fill="#2A77BC" d="M172.615,509.914h3.786v-13.068l-4.12,0.826v-2.111l4.098-0.826h2.317v15.18
					h3.786v1.951h-9.867V509.914z M189.18,509.914h8.089v1.951h-10.878v-1.951c0.88-0.91,2.078-2.132,3.598-3.666
					c1.518-1.533,2.473-2.521,2.863-2.966c0.741-0.833,1.26-1.539,1.555-2.116c0.294-0.578,0.441-1.146,0.441-1.705
					c0-0.91-0.32-1.652-0.959-2.226s-1.471-0.86-2.495-0.86c-0.727,0-1.493,0.126-2.301,0.379c-0.808,0.252-1.669,0.635-2.587,1.146
					v-2.34c0.933-0.375,1.805-0.658,2.615-0.85c0.812-0.191,1.553-0.287,2.227-0.287c1.775,0,3.189,0.443,4.246,1.331
					c1.055,0.888,1.583,2.073,1.583,3.558c0,0.703-0.132,1.371-0.396,2.002s-0.744,1.375-1.44,2.232
					c-0.191,0.221-0.8,0.861-1.824,1.922C192.491,506.527,191.045,508.01,189.18,509.914z M214.328,494.033
					c-1.025,1.76-1.787,3.5-2.283,5.222c-0.498,1.722-0.746,3.466-0.746,5.232s0.25,3.517,0.752,5.249
					c0.5,1.732,1.26,3.475,2.277,5.227h-1.836c-1.147-1.797-2.006-3.564-2.576-5.301s-0.855-3.461-0.855-5.175
					c0-1.706,0.283-3.423,0.85-5.152c0.566-1.729,1.427-3.495,2.582-5.302H214.328z M218.514,494.734h4.762
					c3.319,0,5.756,0.689,7.309,2.07s2.33,3.54,2.33,6.478c0,2.953-0.781,5.122-2.342,6.507s-3.992,2.076-7.297,2.076h-4.762
					V494.734z M220.831,496.639v13.322h2.8c2.363,0,4.094-0.535,5.191-1.607c1.098-1.07,1.647-2.761,1.647-5.071
					c0-2.295-0.55-3.976-1.647-5.043s-2.828-1.601-5.191-1.601H220.831z M236.184,494.033h1.836
					c1.147,1.807,2.006,3.573,2.576,5.302c0.57,1.729,0.854,3.446,0.854,5.152c0,1.714-0.284,3.438-0.854,5.175
					s-1.429,3.504-2.576,5.301h-1.836c1.018-1.752,1.776-3.494,2.277-5.227c0.502-1.732,0.752-3.482,0.752-5.249
					s-0.25-3.511-0.752-5.232C237.96,497.533,237.201,495.793,236.184,494.033z"/>
				<path clip-path="url(#SVGID_4_)" fill="#2A77BC" d="M172.615,539.515h3.786v-13.069l-4.12,0.826v-2.111l4.098-0.826h2.317
					v15.181h3.786v1.95h-9.867V539.515z M194.205,532.229c1.109,0.236,1.975,0.73,2.599,1.48s0.936,1.675,0.936,2.776
					c0,1.69-0.581,2.999-1.744,3.925s-2.815,1.389-4.957,1.389c-0.72,0-1.46-0.072-2.221-0.213
					c-0.761-0.142-1.547-0.354-2.358-0.637v-2.238c0.643,0.375,1.347,0.658,2.111,0.85c0.766,0.191,1.564,0.287,2.398,0.287
					c1.453,0,2.561-0.287,3.322-0.861c0.762-0.573,1.142-1.406,1.142-2.501c0-1.01-0.354-1.8-1.062-2.37
					c-0.707-0.569-1.692-0.854-2.955-0.854h-1.996v-1.906h2.088c1.141,0,2.012-0.227,2.617-0.682
					c0.604-0.455,0.906-1.111,0.906-1.969c0-0.879-0.313-1.555-0.936-2.025c-0.623-0.47-1.517-0.705-2.68-0.705
					c-0.635,0-1.315,0.068-2.042,0.207c-0.727,0.137-1.526,0.352-2.397,0.643v-2.066c0.879-0.244,1.703-0.428,2.473-0.551
					c0.768-0.121,1.493-0.184,2.174-0.184c1.76,0,3.152,0.4,4.177,1.199c1.024,0.8,1.538,1.881,1.538,3.242
					c0,0.948-0.271,1.75-0.814,2.404C195.979,531.522,195.207,531.977,194.205,532.229z M214.328,523.634
					c-1.025,1.76-1.787,3.499-2.283,5.222c-0.498,1.721-0.746,3.465-0.746,5.232c0,1.766,0.25,3.516,0.752,5.249
					c0.5,1.732,1.26,3.475,2.277,5.227h-1.836c-1.147-1.798-2.006-3.564-2.576-5.302c-0.57-1.736-0.855-3.461-0.855-5.174
					c0-1.707,0.283-3.424,0.85-5.152s1.427-3.496,2.582-5.302H214.328z M231.342,525.653v2.444c-0.78-0.727-1.612-1.27-2.496-1.629
					c-0.883-0.36-1.822-0.54-2.816-0.54c-1.959,0-3.458,0.599-4.498,1.796c-1.041,1.197-1.561,2.928-1.561,5.191
					c0,2.258,0.52,3.984,1.561,5.182c1.04,1.197,2.539,1.795,4.498,1.795c0.994,0,1.934-0.179,2.816-0.539
					c0.884-0.359,1.716-0.902,2.496-1.629v2.422c-0.811,0.551-1.67,0.963-2.576,1.238s-1.865,0.414-2.875,0.414
					c-2.593,0-4.635-0.795-6.127-2.382s-2.237-3.754-2.237-6.501c0-2.754,0.745-4.924,2.237-6.512
					c1.492-1.586,3.534-2.381,6.127-2.381c1.025,0,1.991,0.137,2.898,0.408C229.695,524.703,230.546,525.11,231.342,525.653z
					 M234.491,523.634h1.836c1.147,1.806,2.007,3.573,2.576,5.302s0.854,3.445,0.854,5.152c0,1.713-0.285,3.438-0.854,5.174
					c-0.569,1.737-1.429,3.504-2.576,5.302h-1.836c1.018-1.752,1.776-3.494,2.278-5.227c0.5-1.733,0.751-3.483,0.751-5.249
					c0-1.768-0.251-3.512-0.751-5.232C236.268,527.133,235.509,525.394,234.491,523.634z"/>
				<path clip-path="url(#SVGID_4_)" fill="#2A77BC" d="M661.376,239.796v2.261c-0.88-0.421-1.71-0.734-2.49-0.941
					c-0.78-0.206-1.533-0.31-2.26-0.31c-1.263,0-2.236,0.245-2.921,0.734s-1.026,1.187-1.026,2.089c0,0.757,0.228,1.329,0.683,1.715
					c0.455,0.387,1.317,0.698,2.587,0.936l1.4,0.287c1.729,0.328,3.004,0.908,3.827,1.738c0.822,0.83,1.233,1.941,1.233,3.333
					c0,1.66-0.557,2.919-1.67,3.775s-2.744,1.285-4.894,1.285c-0.812,0-1.674-0.092-2.588-0.275s-1.86-0.455-2.84-0.815v-2.387
					c0.94,0.528,1.862,0.926,2.766,1.193c0.902,0.269,1.79,0.402,2.662,0.402c1.323,0,2.345-0.26,3.063-0.78
					s1.078-1.263,1.078-2.226c0-0.842-0.258-1.5-0.774-1.975c-0.516-0.475-1.363-0.83-2.541-1.066l-1.412-0.275
					c-1.729-0.345-2.979-0.884-3.752-1.618s-1.159-1.756-1.159-3.063c0-1.516,0.534-2.709,1.602-3.58
					c1.066-0.873,2.537-1.309,4.411-1.309c0.804,0,1.622,0.072,2.456,0.219C659.651,239.287,660.504,239.506,661.376,239.796z
					 M666.613,254.414h3.787v-13.068l-4.119,0.826v-2.111l4.096-0.826h2.318v15.18h3.786v1.951h-9.868V254.414z"/>
				<path clip-path="url(#SVGID_4_)" fill="#2A77BC" d="M661.376,425.296v2.261c-0.88-0.421-1.71-0.734-2.49-0.941
					c-0.78-0.206-1.533-0.31-2.26-0.31c-1.263,0-2.236,0.245-2.921,0.734s-1.026,1.187-1.026,2.089c0,0.757,0.228,1.329,0.683,1.715
					c0.455,0.387,1.317,0.698,2.587,0.936l1.4,0.287c1.729,0.328,3.004,0.908,3.827,1.738c0.822,0.83,1.233,1.941,1.233,3.333
					c0,1.66-0.557,2.919-1.67,3.775s-2.744,1.285-4.894,1.285c-0.812,0-1.674-0.092-2.588-0.275s-1.86-0.455-2.84-0.815v-2.387
					c0.94,0.528,1.862,0.926,2.766,1.193c0.902,0.269,1.79,0.402,2.662,0.402c1.323,0,2.345-0.26,3.063-0.78
					s1.078-1.263,1.078-2.226c0-0.842-0.258-1.5-0.774-1.975c-0.516-0.475-1.363-0.83-2.541-1.066l-1.412-0.275
					c-1.729-0.345-2.979-0.884-3.752-1.618s-1.159-1.756-1.159-3.063c0-1.516,0.534-2.709,1.602-3.58
					c1.066-0.873,2.537-1.309,4.411-1.309c0.804,0,1.622,0.072,2.456,0.219C659.651,424.787,660.504,425.006,661.376,425.296z
					 M673.234,432.629c1.109,0.236,1.976,0.73,2.599,1.479c0.624,0.75,0.936,1.675,0.936,2.776c0,1.691-0.581,3-1.744,3.925
					c-1.163,0.926-2.815,1.389-4.957,1.389c-0.719,0-1.459-0.071-2.221-0.212c-0.761-0.143-1.547-0.354-2.357-0.637v-2.238
					c0.643,0.375,1.346,0.658,2.111,0.85c0.765,0.191,1.564,0.287,2.398,0.287c1.453,0,2.561-0.287,3.321-0.861
					c0.762-0.574,1.142-1.407,1.142-2.502c0-1.01-0.354-1.799-1.062-2.369c-0.707-0.569-1.692-0.854-2.954-0.854h-1.997v-1.905
					h2.089c1.14,0,2.012-0.227,2.616-0.682c0.604-0.455,0.906-1.111,0.906-1.969c0-0.879-0.312-1.555-0.936-2.025
					c-0.623-0.471-1.517-0.705-2.679-0.705c-0.636,0-1.316,0.068-2.043,0.206s-1.525,0.353-2.397,0.643v-2.065
					c0.879-0.244,1.703-0.428,2.473-0.551c0.769-0.122,1.493-0.184,2.174-0.184c1.76,0,3.152,0.4,4.177,1.199
					c1.025,0.799,1.538,1.88,1.538,3.242c0,0.947-0.271,1.75-0.814,2.403C675.009,431.922,674.236,432.376,673.234,432.629z"/>
				<path clip-path="url(#SVGID_4_)" fill="#2A77BC" d="M583.876,364.195v2.262c-0.88-0.422-1.71-0.734-2.489-0.941
					c-0.781-0.207-1.534-0.311-2.262-0.311c-1.262,0-2.235,0.246-2.92,0.734c-0.685,0.49-1.027,1.187-1.027,2.089
					c0,0.757,0.229,1.329,0.684,1.716s1.317,0.697,2.588,0.936l1.399,0.286c1.729,0.329,3.005,0.909,3.827,1.739
					s1.232,1.94,1.232,3.332c0,1.66-0.556,2.92-1.669,3.775c-1.112,0.857-2.744,1.285-4.894,1.285c-0.811,0-1.674-0.092-2.588-0.275
					s-1.861-0.455-2.84-0.814v-2.387c0.941,0.527,1.863,0.926,2.766,1.193s1.789,0.402,2.662,0.402c1.323,0,2.344-0.26,3.063-0.781
					c0.719-0.52,1.079-1.262,1.079-2.226c0-0.841-0.259-1.499-0.775-1.974c-0.516-0.475-1.363-0.83-2.541-1.067l-1.412-0.275
					c-1.729-0.345-2.979-0.884-3.752-1.618c-0.772-0.734-1.158-1.756-1.158-3.063c0-1.515,0.533-2.708,1.6-3.58
					c1.068-0.872,2.538-1.308,4.412-1.308c0.804,0,1.622,0.072,2.456,0.218C582.15,363.688,583.004,363.905,583.876,364.195z
					 M594.473,363.634h2.914v11.165h2.444v1.928h-2.444v4.039h-2.307v-4.039h-7.733v-2.238L594.473,363.634z M595.08,365.653
					l-5.852,9.146h5.852V365.653z"/>
				<path clip-path="url(#SVGID_4_)" fill="#2A77BC" d="M738.876,364.195v2.262c-0.88-0.422-1.71-0.734-2.49-0.941
					s-1.533-0.311-2.26-0.311c-1.263,0-2.236,0.246-2.921,0.734c-0.685,0.49-1.026,1.187-1.026,2.089
					c0,0.757,0.228,1.329,0.683,1.716s1.317,0.697,2.587,0.936l1.4,0.286c1.729,0.329,3.004,0.909,3.827,1.739
					c0.822,0.83,1.233,1.94,1.233,3.332c0,1.66-0.557,2.92-1.67,3.775c-1.113,0.857-2.744,1.285-4.894,1.285
					c-0.812,0-1.674-0.092-2.588-0.275s-1.86-0.455-2.84-0.814v-2.387c0.94,0.527,1.862,0.926,2.766,1.193
					c0.902,0.268,1.79,0.402,2.662,0.402c1.323,0,2.345-0.26,3.063-0.781c0.719-0.52,1.078-1.262,1.078-2.226
					c0-0.841-0.258-1.499-0.774-1.974c-0.516-0.475-1.363-0.83-2.541-1.067l-1.412-0.275c-1.729-0.345-2.979-0.884-3.752-1.618
					s-1.159-1.756-1.159-3.063c0-1.515,0.534-2.708,1.602-3.58c1.066-0.872,2.537-1.308,4.411-1.308
					c0.804,0,1.622,0.072,2.456,0.218S738.004,363.905,738.876,364.195z M745.709,378.814h8.089v1.951H742.92v-1.951
					c0.88-0.91,2.079-2.133,3.598-3.666s2.473-2.522,2.863-2.967c0.741-0.833,1.26-1.539,1.555-2.116
					c0.294-0.577,0.441-1.146,0.441-1.704c0-0.91-0.319-1.652-0.958-2.227c-0.639-0.573-1.471-0.86-2.496-0.86
					c-0.727,0-1.493,0.126-2.301,0.379c-0.807,0.253-1.669,0.636-2.587,1.147v-2.341c0.933-0.374,1.805-0.657,2.616-0.849
					c0.811-0.191,1.553-0.287,2.226-0.287c1.775,0,3.19,0.443,4.246,1.33c1.056,0.889,1.583,2.074,1.583,3.558
					c0,0.704-0.132,1.372-0.396,2.003s-0.744,1.375-1.44,2.231c-0.191,0.222-0.799,0.862-1.824,1.922
					S747.575,376.91,745.709,378.814z"/>
				<path clip-path="url(#SVGID_4_)" fill="#2A77BC" d="M177.213,558.894c1.34,0,2.363,0.53,3.071,1.589
					c0.707,1.061,1.062,2.6,1.062,4.617c0,2.013-0.354,3.549-1.062,4.608c-0.708,1.06-1.731,1.589-3.071,1.589
					s-2.363-0.529-3.07-1.589c-0.708-1.06-1.062-2.596-1.062-4.608c0-2.018,0.354-3.557,1.062-4.617
					C174.85,559.424,175.873,558.894,177.213,558.894z M177.213,560.175c-0.832,0-1.459,0.409-1.877,1.229
					c-0.42,0.819-0.629,2.051-0.629,3.695c0,1.639,0.209,2.868,0.629,3.688c0.418,0.819,1.045,1.229,1.877,1.229
					c0.838,0,1.467-0.409,1.887-1.229c0.418-0.819,0.628-2.049,0.628-3.688c0-1.645-0.21-2.876-0.628-3.695
					C178.68,560.584,178.051,560.175,177.213,560.175z M192.846,558.621c-0.716,1.229-1.247,2.442-1.594,3.644
					c-0.348,1.201-0.521,2.419-0.521,3.651c0,1.233,0.175,2.455,0.524,3.664s0.879,2.425,1.59,3.647h-1.281
					c-0.801-1.255-1.4-2.487-1.798-3.7c-0.397-1.211-0.597-2.415-0.597-3.611c0-1.189,0.197-2.389,0.592-3.596
					c0.396-1.206,0.996-2.439,1.803-3.699H192.846z M196.092,569.704h2.643v-9.121l-2.875,0.577v-1.475l2.859-0.576h1.617v10.595
					h2.643v1.361h-6.887V569.704z M207.603,569.704h5.646v1.361h-7.592v-1.361c0.614-0.636,1.451-1.488,2.512-2.559
					c1.059-1.07,1.725-1.761,1.997-2.069c0.519-0.582,0.88-1.075,1.085-1.479c0.205-0.402,0.309-0.799,0.309-1.189
					c0-0.635-0.223-1.152-0.668-1.553c-0.446-0.4-1.027-0.601-1.742-0.601c-0.508,0-1.043,0.088-1.605,0.265
					c-0.563,0.176-1.166,0.443-1.807,0.801v-1.635c0.652-0.261,1.26-0.459,1.826-0.592s1.084-0.2,1.554-0.2
					c1.238,0,2.226,0.31,2.963,0.929s1.104,1.447,1.104,2.482c0,0.491-0.092,0.957-0.275,1.397c-0.185,0.44-0.52,0.96-1.006,1.558
					c-0.133,0.154-0.557,0.602-1.272,1.342C209.914,567.34,208.905,568.375,207.603,569.704z M225.498,560.031v1.705
					c-0.545-0.508-1.125-0.887-1.742-1.137c-0.617-0.252-1.271-0.377-1.966-0.377c-1.366,0-2.413,0.418-3.14,1.254
					c-0.726,0.835-1.088,2.043-1.088,3.623c0,1.574,0.362,2.779,1.088,3.615c0.727,0.836,1.773,1.254,3.14,1.254
					c0.694,0,1.349-0.126,1.966-0.377s1.197-0.63,1.742-1.137v1.689c-0.566,0.385-1.166,0.672-1.799,0.865
					c-0.632,0.191-1.301,0.287-2.006,0.287c-1.809,0-3.234-0.553-4.275-1.661c-1.041-1.107-1.563-2.62-1.563-4.536
					c0-1.922,0.521-3.437,1.563-4.545c1.041-1.107,2.467-1.661,4.275-1.661c0.716,0,1.39,0.095,2.022,0.284
					S224.942,559.651,225.498,560.031z M227.216,565.916h4.316v1.313h-4.316V565.916z M233.929,559.109h3.323
					c2.316,0,4.018,0.482,5.102,1.445c1.083,0.964,1.625,2.471,1.625,4.521c0,2.061-0.545,3.574-1.633,4.539
					c-1.09,0.967-2.787,1.45-5.094,1.45h-3.323V559.109z M235.547,560.439v9.297h1.953c1.65,0,2.857-0.374,3.624-1.121
					c0.766-0.748,1.149-1.928,1.149-3.539c0-1.602-0.384-2.775-1.149-3.52c-0.767-0.746-1.974-1.117-3.624-1.117H235.547z
					 M246.229,558.621h1.281c0.801,1.26,1.399,2.493,1.797,3.699c0.398,1.207,0.597,2.406,0.597,3.596
					c0,1.196-0.198,2.4-0.597,3.611c-0.397,1.213-0.996,2.445-1.797,3.7h-1.281c0.709-1.223,1.239-2.438,1.589-3.647
					s0.524-2.431,0.524-3.664c0-1.232-0.175-2.45-0.524-3.651S246.938,559.85,246.229,558.621z"/>
				<path clip-path="url(#SVGID_4_)" fill="#2A77BC" d="M175.146,599.305h5.646v1.361h-7.592v-1.361
					c0.613-0.637,1.451-1.488,2.51-2.559c1.061-1.07,1.727-1.762,1.998-2.07c0.519-0.582,0.88-1.074,1.086-1.479
					c0.205-0.402,0.309-0.799,0.309-1.188c0-0.637-0.224-1.154-0.67-1.555c-0.445-0.4-1.025-0.6-1.741-0.6
					c-0.507,0-1.042,0.088-1.605,0.264s-1.165,0.443-1.806,0.801v-1.634c0.651-0.261,1.26-0.459,1.826-0.593
					c0.565-0.133,1.084-0.199,1.553-0.199c1.238,0,2.227,0.309,2.963,0.928c0.737,0.619,1.105,1.447,1.105,2.482
					c0,0.492-0.092,0.957-0.276,1.398c-0.185,0.439-0.519,0.959-1.005,1.557c-0.133,0.154-0.559,0.602-1.273,1.342
					S176.449,597.975,175.146,599.305z M192.846,588.221c-0.716,1.229-1.247,2.443-1.594,3.645c-0.348,1.201-0.521,2.418-0.521,3.65
					c0,1.234,0.175,2.455,0.524,3.664s0.879,2.426,1.59,3.648h-1.281c-0.801-1.256-1.4-2.488-1.798-3.701
					c-0.397-1.211-0.597-2.414-0.597-3.611c0-1.189,0.197-2.389,0.592-3.596c0.396-1.205,0.996-2.439,1.803-3.699H192.846z
					 M196.092,599.305h2.643v-9.121l-2.875,0.576v-1.474l2.859-0.577h1.617v10.596h2.643v1.361h-6.887V599.305z M207.603,599.305
					h5.646v1.361h-7.592v-1.361c0.614-0.637,1.451-1.488,2.512-2.559c1.059-1.07,1.725-1.762,1.997-2.07
					c0.519-0.582,0.88-1.074,1.085-1.479c0.205-0.402,0.309-0.799,0.309-1.188c0-0.637-0.223-1.154-0.668-1.555
					c-0.446-0.4-1.027-0.6-1.742-0.6c-0.508,0-1.043,0.088-1.605,0.264c-0.563,0.176-1.166,0.443-1.807,0.801v-1.634
					c0.652-0.261,1.26-0.459,1.826-0.593c0.566-0.133,1.084-0.199,1.554-0.199c1.238,0,2.226,0.309,2.963,0.928
					s1.104,1.447,1.104,2.482c0,0.492-0.092,0.957-0.275,1.398c-0.185,0.439-0.52,0.959-1.006,1.557
					c-0.133,0.154-0.557,0.602-1.272,1.342S208.905,597.975,207.603,599.305z M225.498,589.631v1.705
					c-0.545-0.508-1.125-0.887-1.742-1.137c-0.617-0.251-1.271-0.377-1.966-0.377c-1.366,0-2.413,0.418-3.14,1.254
					c-0.726,0.836-1.088,2.043-1.088,3.623c0,1.574,0.362,2.781,1.088,3.615c0.727,0.836,1.773,1.254,3.14,1.254
					c0.694,0,1.349-0.125,1.966-0.377c0.617-0.25,1.197-0.629,1.742-1.137v1.689c-0.566,0.385-1.166,0.674-1.799,0.865
					c-0.632,0.191-1.301,0.289-2.006,0.289c-1.809,0-3.234-0.555-4.275-1.662s-1.563-2.621-1.563-4.537
					c0-1.922,0.521-3.436,1.563-4.545c1.041-1.107,2.467-1.66,4.275-1.66c0.716,0,1.39,0.094,2.022,0.283
					S224.942,589.252,225.498,589.631z M227.216,595.516h4.316v1.314h-4.316V595.516z M233.929,588.709h3.323
					c2.316,0,4.018,0.482,5.102,1.445c1.083,0.965,1.625,2.471,1.625,4.521c0,2.061-0.545,3.574-1.633,4.541
					c-1.09,0.965-2.787,1.449-5.094,1.449h-3.323V588.709z M235.547,590.039v9.297h1.953c1.65,0,2.857-0.373,3.624-1.121
					c0.766-0.748,1.149-1.928,1.149-3.539c0-1.602-0.384-2.775-1.149-3.52c-0.767-0.744-1.974-1.117-3.624-1.117H235.547z
					 M246.229,588.221h1.281c0.801,1.26,1.399,2.494,1.797,3.699c0.398,1.207,0.597,2.406,0.597,3.596
					c0,1.197-0.198,2.4-0.597,3.611c-0.397,1.213-0.996,2.445-1.797,3.701h-1.281c0.709-1.223,1.239-2.439,1.589-3.648
					s0.524-2.43,0.524-3.664c0-1.232-0.175-2.449-0.524-3.65S246.938,589.449,246.229,588.221z"/>
				<path clip-path="url(#SVGID_4_)" fill="#2A77BC" d="M122.692,634.465l-4.564-11.955h1.69l3.787,10.066l3.796-10.066h1.682
					l-4.557,11.955H122.692z M142.107,624.184v4.461h4.461v1.361h-4.461v4.459h-1.346v-4.459h-4.46v-1.361h4.46v-4.461H142.107z
					 M163.301,632.76v-3.211h-2.643v-1.33h4.244v5.133c-0.625,0.443-1.313,0.779-2.066,1.006c-0.752,0.227-1.557,0.34-2.41,0.34
					c-1.869,0-3.33-0.545-4.385-1.637c-1.054-1.092-1.581-2.613-1.581-4.561c0-1.955,0.527-3.477,1.581-4.568
					c1.055-1.092,2.516-1.639,4.385-1.639c0.779,0,1.52,0.096,2.223,0.289c0.701,0.191,1.349,0.475,1.941,0.848v1.723
					c-0.598-0.508-1.233-0.889-1.906-1.145c-0.672-0.258-1.38-0.385-2.121-0.385c-1.463,0-2.563,0.408-3.296,1.225
					s-1.101,2.035-1.101,3.652c0,1.611,0.367,2.826,1.101,3.643s1.833,1.227,3.296,1.227c0.57,0,1.08-0.051,1.529-0.148
					C162.54,633.121,162.943,632.969,163.301,632.76z M167.924,622.51h2.179l5.301,10.002V622.51h1.569v11.955h-2.178l-5.301-10.002
					v10.002h-1.57V622.51z M180.126,622.51h3.323c2.316,0,4.018,0.482,5.102,1.445c1.083,0.963,1.625,2.471,1.625,4.52
					c0,2.063-0.545,3.574-1.634,4.541s-2.786,1.449-5.093,1.449h-3.323V622.51z M181.744,623.84v9.297h1.953
					c1.65,0,2.857-0.375,3.623-1.121c0.767-0.748,1.15-1.928,1.15-3.541c0-1.602-0.384-2.773-1.15-3.52
					c-0.766-0.744-1.973-1.115-3.623-1.115H181.744z"/>
				<path clip-path="url(#SVGID_4_)" fill="#2A77BC" d="M121.563,689.23v1.705c-0.545-0.506-1.125-0.885-1.742-1.137
					c-0.616-0.25-1.271-0.377-1.966-0.377c-1.366,0-2.413,0.418-3.139,1.254s-1.089,2.043-1.089,3.623
					c0,1.576,0.363,2.781,1.089,3.615c0.726,0.836,1.772,1.254,3.139,1.254c0.694,0,1.35-0.125,1.966-0.377
					c0.617-0.25,1.197-0.629,1.742-1.137v1.689c-0.566,0.385-1.166,0.674-1.798,0.865c-0.633,0.193-1.302,0.289-2.006,0.289
					c-1.81,0-3.235-0.555-4.276-1.662s-1.562-2.619-1.562-4.537c0-1.922,0.521-3.436,1.562-4.543
					c1.041-1.109,2.467-1.662,4.276-1.662c0.716,0,1.39,0.094,2.022,0.283C120.413,688.566,121.007,688.852,121.563,689.23z
					 M124.09,688.311h1.617v5.053l5.365-5.053h2.082l-5.934,5.572l6.357,6.383h-2.129l-5.742-5.758v5.758h-1.617V688.311z"/>
				<path clip-path="url(#SVGID_4_)" fill="#2A77BC" d="M215.463,689.23v1.705c-0.545-0.506-1.125-0.885-1.742-1.137
					c-0.617-0.25-1.271-0.377-1.966-0.377c-1.366,0-2.413,0.418-3.14,1.254c-0.726,0.836-1.089,2.043-1.089,3.623
					c0,1.576,0.363,2.781,1.089,3.615c0.727,0.836,1.773,1.254,3.14,1.254c0.694,0,1.349-0.125,1.966-0.377
					c0.617-0.25,1.197-0.629,1.742-1.137v1.689c-0.566,0.385-1.166,0.674-1.799,0.865c-0.633,0.193-1.301,0.289-2.006,0.289
					c-1.81,0-3.234-0.555-4.275-1.662s-1.563-2.619-1.563-4.537c0-1.922,0.521-3.436,1.563-4.543
					c1.041-1.109,2.466-1.662,4.275-1.662c0.716,0,1.39,0.094,2.022,0.283C214.313,688.566,214.907,688.852,215.463,689.23z
					 M222.842,688.094c1.677,0,3.017,0.563,4.021,1.686c1.003,1.123,1.505,2.631,1.505,4.52c0,1.885-0.502,3.389-1.505,4.514
					c-1.004,1.123-2.344,1.686-4.021,1.686c-1.682,0-3.025-0.561-4.031-1.682s-1.51-2.627-1.51-4.518c0-1.889,0.504-3.396,1.51-4.52
					S221.16,688.094,222.842,688.094z M222.842,689.406c-1.174,0-2.107,0.438-2.799,1.314c-0.691,0.875-1.037,2.068-1.037,3.578
					c0,1.506,0.346,2.697,1.037,3.572s1.625,1.313,2.799,1.313c1.175,0,2.105-0.438,2.791-1.313s1.029-2.066,1.029-3.572
					c0-1.51-0.344-2.703-1.029-3.578C224.947,689.844,224.017,689.406,222.842,689.406z"/>
				<path clip-path="url(#SVGID_4_)" fill="#2A77BC" d="M176.01,688.311h2.41l3.051,8.135l3.067-8.135h2.41v11.955h-1.577v-10.498
					l-3.084,8.199h-1.625l-3.083-8.199v10.498h-1.569V688.311z M190.195,688.311h1.617v11.955h-1.617V688.311z"/>
				
					<rect x="757.7" y="549.965" clip-path="url(#SVGID_4_)" fill="none" stroke="#2C77BC" stroke-width="4.9808" stroke-miterlimit="7.6613" width="29.899" height="70.4"/>
				
					<rect x="787.6" y="601.666" clip-path="url(#SVGID_4_)" fill-rule="evenodd" clip-rule="evenodd" fill="#2C77BC" width="12.601" height="12.5"/>
				<path clip-path="url(#SVGID_4_)" fill="#2A77BC" d="M145.51,688.311h2.41l3.051,8.135l3.067-8.135h2.41v11.955h-1.577v-10.498
					l-3.084,8.199h-1.625l-3.083-8.199v10.498h-1.569V688.311z M164.467,688.094c1.676,0,3.016,0.563,4.02,1.686
					s1.506,2.631,1.506,4.52c0,1.885-0.502,3.389-1.506,4.514c-1.004,1.123-2.344,1.686-4.02,1.686
					c-1.682,0-3.026-0.561-4.032-1.682c-1.007-1.121-1.51-2.627-1.51-4.518c0-1.889,0.503-3.396,1.51-4.52
					C161.44,688.656,162.785,688.094,164.467,688.094z M164.467,689.406c-1.175,0-2.107,0.438-2.799,1.314
					c-0.691,0.875-1.037,2.068-1.037,3.578c0,1.506,0.346,2.697,1.037,3.572s1.624,1.313,2.799,1.313
					c1.174,0,2.104-0.438,2.79-1.313s1.029-2.066,1.029-3.572c0-1.51-0.343-2.703-1.029-3.578
					C166.57,689.844,165.641,689.406,164.467,689.406z"/>
				<path clip-path="url(#SVGID_4_)" fill="#2C77BC" d="M793.888,636.971c0,3.949-0.852,6.996-2.555,9.141s-4.119,3.217-7.249,3.217
					c-3.14,0-5.562-1.072-7.265-3.217s-2.555-5.191-2.555-9.141c0-3.961,0.852-7.012,2.555-9.158
					c1.703-2.145,4.125-3.217,7.265-3.217c3.13,0,5.546,1.072,7.249,3.217C793.036,629.959,793.888,633.01,793.888,636.971z
					 M787.74,636.922c0-2.98-0.279-5.08-0.838-6.299s-1.498-1.828-2.818-1.828c-1.319,0-2.262,0.609-2.826,1.828
					c-0.563,1.219-0.846,3.318-0.846,6.299c0,3.014,0.282,5.137,0.846,6.371c0.564,1.234,1.507,1.852,2.826,1.852
					c1.31,0,2.246-0.617,2.811-1.852S787.74,639.936,787.74,636.922z"/>
				<path clip-path="url(#SVGID_4_)" fill="none" stroke="#2A77BC" stroke-width="2.8866" stroke-miterlimit="7.6613" d="
					M131.9,244.965H256c19.1,0,34.8,15.701,34.8,34.801v296.699c0,19.201-15.7,34.9-34.8,34.9H131.9"/>
				
					<rect x="158.1" y="308.365" clip-path="url(#SVGID_4_)" fill-rule="evenodd" clip-rule="evenodd" fill="#2A77BC" width="131.5" height="30.6"/>
				<polygon clip-path="url(#SVGID_4_)" fill="#2C77BC" points="776.532,531.018 781.961,531.018 781.961,515.61 776.389,516.76 
					776.389,512.576 781.929,511.427 787.772,511.427 787.772,531.018 793.201,531.018 793.201,535.266 776.532,535.266 				"/>
				
					<line clip-path="url(#SVGID_4_)" fill="none" stroke="#2A77BC" stroke-width="2.3206" stroke-miterlimit="7.6613" x1="156.9" y1="457.465" x2="290.8" y2="457.465"/>
				
					<line clip-path="url(#SVGID_4_)" fill="none" stroke="#2A77BC" stroke-width="2.3206" stroke-miterlimit="7.6613" x1="156.9" y1="545.565" x2="290.8" y2="545.565"/>
				<path clip-path="url(#SVGID_4_)" fill="none" stroke="#2C77BC" stroke-width="4.9808" stroke-miterlimit="7.6613" d="
					M365.9,289.766c0-9.9-5.2-18.6-12.9-23.7h-31.1c-7.7,5.101-12.9,13.8-12.9,23.7c0,9,4.2,16.9,10.6,22.1h35.7
					C361.7,306.666,365.9,298.766,365.9,289.766z"/>
				<path clip-path="url(#SVGID_4_)" fill-rule="evenodd" clip-rule="evenodd" fill="#FFFFFF" d="M1537.6,1099.064h-508.5
					c-62.899,0-114.399-51.5-114.399-114.5V543.365c0-63,51.5-114.5,114.399-114.5h508.5c63,0,114.5,51.5,114.5,114.5v441.199
					C1652.1,1047.564,1600.6,1099.064,1537.6,1099.064z"/>
				<path clip-path="url(#SVGID_4_)" fill="none" stroke="#2C77BC" stroke-width="4.9808" stroke-miterlimit="7.6613" d="
					M1537.6,1099.064h-508.5c-62.899,0-114.399-51.5-114.399-114.5V543.365c0-63,51.5-114.5,114.399-114.5h508.5
					c63,0,114.5,51.5,114.5,114.5v441.199C1652.1,1047.564,1600.6,1099.064,1537.6,1099.064z"/>
				<polygon clip-path="url(#SVGID_4_)" fill="none" stroke="#2C77BC" stroke-width="4.9808" stroke-miterlimit="7.6613" points="
					967.6,552.766 991.6,552.766 991.6,510.666 1031.3,510.666 1031.3,552.766 1057.7,552.766 1057.7,473.465 967.6,473.465 				"/>
				<path clip-path="url(#SVGID_4_)" fill-rule="evenodd" clip-rule="evenodd" fill="#2C77BC" d="M1118,508.166
					c0,4.799-3.9,8.699-8.7,8.699c-4.7,0-8.6-3.9-8.6-8.699c0-4.801,3.899-8.701,8.6-8.701
					C1114.1,499.465,1118,503.365,1118,508.166z"/>
				<path clip-path="url(#SVGID_4_)" fill-rule="evenodd" clip-rule="evenodd" fill="#2C77BC" d="M1148.3,508.166
					c0,4.799-3.899,8.699-8.7,8.699c-4.8,0-8.699-3.9-8.699-8.699c0-4.801,3.899-8.701,8.699-8.701
					C1144.4,499.465,1148.3,503.365,1148.3,508.166z"/>
				<path clip-path="url(#SVGID_4_)" fill-rule="evenodd" clip-rule="evenodd" fill="#2C77BC" d="M1178.5,508.166
					c0,4.799-3.9,8.699-8.7,8.699s-8.6-3.9-8.6-8.699c0-4.801,3.8-8.701,8.6-8.701S1178.5,503.365,1178.5,508.166z"/>
				<path clip-path="url(#SVGID_4_)" fill-rule="evenodd" clip-rule="evenodd" fill="#2C77BC" d="M1148.3,1037.266
					c0,4.799-3.899,8.699-8.7,8.699c-4.8,0-8.699-3.9-8.699-8.699c0-4.801,3.899-8.6,8.699-8.6
					C1144.4,1028.666,1148.3,1032.465,1148.3,1037.266z"/>
				<path clip-path="url(#SVGID_4_)" fill-rule="evenodd" clip-rule="evenodd" fill="#2C77BC" d="M1178.5,1037.266
					c0,4.799-3.9,8.699-8.7,8.699s-8.6-3.9-8.6-8.699c0-4.801,3.8-8.6,8.6-8.6S1178.5,1032.465,1178.5,1037.266z"/>
				<path clip-path="url(#SVGID_4_)" fill-rule="evenodd" clip-rule="evenodd" fill="#2C77BC" d="M1208.7,1037.266
					c0,4.799-3.9,8.699-8.7,8.699c-4.7,0-8.6-3.9-8.6-8.699c0-4.801,3.899-8.6,8.6-8.6
					C1204.8,1028.666,1208.7,1032.465,1208.7,1037.266z"/>
				
					<rect x="1200" y="827.666" clip-path="url(#SVGID_4_)" fill="none" stroke="#2C77BC" stroke-width="4.9808" stroke-miterlimit="7.6613" width="44.9" height="110.1"/>
				
					<rect x="1136.6" y="615.666" clip-path="url(#SVGID_4_)" fill="none" stroke="#2C77BC" stroke-width="4.9808" stroke-miterlimit="7.6613" width="74.301" height="39.5"/>
				
					<line clip-path="url(#SVGID_4_)" fill="none" stroke="#2C77BC" stroke-width="4.9808" stroke-miterlimit="7.6613" x1="1177.8" y1="833.166" x2="1198.1" y2="833.166"/>
				
					<line clip-path="url(#SVGID_4_)" fill="none" stroke="#2C77BC" stroke-width="4.9808" stroke-miterlimit="7.6613" x1="1177.8" y1="849.965" x2="1198.1" y2="849.965"/>
				
					<line clip-path="url(#SVGID_4_)" fill="none" stroke="#2C77BC" stroke-width="4.9808" stroke-miterlimit="7.6613" x1="1177.8" y1="866.666" x2="1198.1" y2="866.666"/>
				
					<line clip-path="url(#SVGID_4_)" fill="none" stroke="#2C77BC" stroke-width="4.9808" stroke-miterlimit="7.6613" x1="1177.8" y1="883.465" x2="1198.1" y2="883.465"/>
				
					<line clip-path="url(#SVGID_4_)" fill="none" stroke="#2C77BC" stroke-width="4.9808" stroke-miterlimit="7.6613" x1="1177.8" y1="900.166" x2="1198.1" y2="900.166"/>
				
					<line clip-path="url(#SVGID_4_)" fill="none" stroke="#2C77BC" stroke-width="4.9808" stroke-miterlimit="7.6613" x1="1177.8" y1="916.965" x2="1198.1" y2="916.965"/>
				
					<line clip-path="url(#SVGID_4_)" fill="none" stroke="#2C77BC" stroke-width="4.9808" stroke-miterlimit="7.6613" x1="1177.8" y1="933.666" x2="1198.1" y2="933.666"/>
				
					<line clip-path="url(#SVGID_4_)" fill="none" stroke="#2C77BC" stroke-width="4.9808" stroke-miterlimit="7.6613" x1="1149.8" y1="655.166" x2="1149.8" y2="684.266"/>
				
					<line clip-path="url(#SVGID_4_)" fill="none" stroke="#2C77BC" stroke-width="4.9808" stroke-miterlimit="7.6613" x1="1173.5" y1="655.166" x2="1173.5" y2="684.266"/>
				
					<line clip-path="url(#SVGID_4_)" fill="none" stroke="#2C77BC" stroke-width="4.9808" stroke-miterlimit="7.6613" x1="1197.2" y1="655.166" x2="1197.2" y2="684.266"/>
				
					<line clip-path="url(#SVGID_4_)" fill="none" stroke="#2C77BC" stroke-width="4.9808" stroke-miterlimit="7.6613" x1="1003.1" y1="511.766" x2="1003.1" y2="542.266"/>
				
					<line clip-path="url(#SVGID_4_)" fill="none" stroke="#2C77BC" stroke-width="4.9808" stroke-miterlimit="7.6613" x1="1020.7" y1="511.766" x2="1020.7" y2="542.266"/>
				<path clip-path="url(#SVGID_4_)" fill-rule="evenodd" clip-rule="evenodd" fill="#B9F9F7" d="M1007.1,574.365
					c0,18.699-15.1,33.801-33.8,33.801c-18.6,0-33.7-15.102-33.7-33.801c0-18.6,15.101-33.699,33.7-33.699
					C992,540.666,1007.1,555.766,1007.1,574.365z"/>
				<path clip-path="url(#SVGID_4_)" fill="#FFFFFF" d="M214.482,315.467h2.807l6.973,18.299h-2.573l-1.667-4.694h-8.248
					l-1.667,4.694h-2.61L214.482,315.467z M215.879,317.906l-3.357,9.105h6.729L215.879,317.906z M234.283,315.137
					c2.566,0,4.617,0.859,6.152,2.58c1.537,1.719,2.305,4.025,2.305,6.918c0,2.885-0.768,5.186-2.305,6.906
					c-1.535,1.72-3.586,2.58-6.152,2.58c-2.573,0-4.631-0.858-6.17-2.574c-1.541-1.716-2.311-4.02-2.311-6.912
					s0.77-5.199,2.311-6.918C229.652,315.996,231.71,315.137,234.283,315.137z M234.283,317.146c-1.797,0-3.225,0.67-4.283,2.01
					s-1.587,3.166-1.587,5.479c0,2.305,0.528,4.126,1.587,5.467c1.059,1.34,2.486,2.01,4.283,2.01c1.798,0,3.222-0.67,4.271-2.01
					c1.05-1.341,1.575-3.162,1.575-5.467c0-2.313-0.525-4.139-1.575-5.479S236.081,317.146,234.283,317.146z"/>
				<path clip-path="url(#SVGID_4_)" fill-rule="evenodd" clip-rule="evenodd" fill="#B9F9F7" d="M766.1,552.266
					c0,18.6-15.1,33.8-33.8,33.8c-18.6,0-33.8-15.2-33.8-33.8s15.2-33.7,33.8-33.7C751,518.565,766.1,533.666,766.1,552.266z"/>
				<path clip-path="url(#SVGID_4_)" fill="#1A303A" d="M956.424,580.673h6.126v-17.388l-6.288,1.298v-4.721l6.252-1.298h6.595
					v22.108h6.126v4.792h-18.811V580.673z M982.07,580.673h6.126v-17.388l-6.288,1.298v-4.721l6.252-1.298h6.594v22.108h6.126v4.792
					h-18.81V580.673z"/>
				<path clip-path="url(#SVGID_4_)" fill-rule="evenodd" clip-rule="evenodd" fill="#B9F9F7" d="M736.6,766.465
					c0,18.701-15.199,33.801-33.8,33.801c-18.7,0-33.8-15.1-33.8-33.801c0-18.6,15.1-33.799,33.8-33.799
					C721.4,732.666,736.6,747.865,736.6,766.465z"/>
				<polygon clip-path="url(#SVGID_4_)" fill="#1A303A" points="726.024,558.673 732.15,558.673 732.15,541.285 725.862,542.583 
					725.862,537.862 732.114,536.564 738.709,536.564 738.709,558.673 744.835,558.673 744.835,563.465 726.024,563.465 				"/>
				<path clip-path="url(#SVGID_4_)" fill-rule="evenodd" clip-rule="evenodd" fill="#B9F9F7" d="M472.8,766.465
					c0,18.701-15.1,33.801-33.7,33.801c-18.6,0-33.699-15.1-33.699-33.801c0-18.6,15.1-33.799,33.699-33.799
					C457.7,732.666,472.8,747.865,472.8,766.465z"/>
				<path clip-path="url(#SVGID_4_)" fill="#1A303A" d="M702.83,772.467h11.838v5.098h-19.549v-5.098l9.819-8.666
					c0.877-0.793,1.525-1.568,1.946-2.324c0.42-0.758,0.63-1.545,0.63-2.361c0-1.262-0.423-2.275-1.27-3.045
					c-0.848-0.768-1.974-1.152-3.379-1.152c-1.081,0-2.264,0.23-3.549,0.693c-1.286,0.463-2.661,1.15-4.126,2.063v-5.91
					c1.561-0.516,3.104-0.91,4.63-1.18s3.021-0.406,4.486-0.406c3.219,0,5.721,0.709,7.505,2.127
					c1.783,1.418,2.675,3.393,2.675,5.928c0,1.465-0.378,2.832-1.135,4.1s-2.349,2.963-4.774,5.09L702.83,772.467z"/>
				<path clip-path="url(#SVGID_4_)" fill-rule="evenodd" clip-rule="evenodd" fill="#B9F9F7" d="M144.5,414.266
					c0,18.6-15.2,33.8-33.8,33.8c-18.7,0-33.8-15.2-33.8-33.8c0-18.7,15.1-33.801,33.8-33.801
					C129.3,380.465,144.5,395.565,144.5,414.266z"/>
				<path clip-path="url(#SVGID_4_)" fill="#1A303A" d="M445.689,763.061c1.813,0.469,3.191,1.283,4.135,2.441
					c0.942,1.16,1.414,2.635,1.414,4.424c0,2.666-1.021,4.693-3.063,6.08c-2.043,1.389-5.021,2.082-8.938,2.082
					c-1.381,0-2.766-0.111-4.152-0.334c-1.388-0.221-2.76-0.555-4.117-1v-5.352c1.297,0.65,2.585,1.139,3.864,1.469
					c1.279,0.332,2.538,0.496,3.774,0.496c1.838,0,3.246-0.318,4.226-0.955s1.468-1.549,1.468-2.738
					c0-1.225-0.501-2.152-1.504-2.783s-2.483-0.947-4.441-0.947h-2.774v-4.467h2.919c1.741,0,3.039-0.273,3.892-0.82
					s1.279-1.379,1.279-2.496c0-1.033-0.415-1.832-1.243-2.396c-0.829-0.564-2-0.846-3.514-0.846c-1.117,0-2.246,0.125-3.387,0.377
					c-1.142,0.252-2.277,0.625-3.406,1.117v-5.08c1.369-0.385,2.727-0.674,4.072-0.865s2.667-0.289,3.964-0.289
					c3.495,0,6.11,0.574,7.847,1.721c1.736,1.148,2.604,2.875,2.604,5.182c0,1.572-0.414,2.861-1.243,3.863
					C448.535,761.947,447.311,762.652,445.689,763.061z"/>
				<path clip-path="url(#SVGID_4_)" fill-rule="evenodd" clip-rule="evenodd" fill="#B9F9F7" d="M192,166.766
					c0,18.6-15.1,33.699-33.7,33.699c-18.7,0-33.8-15.1-33.8-33.699s15.1-33.801,33.8-33.801C176.9,132.965,192,148.166,192,166.766
					z"/>
				<path clip-path="url(#SVGID_4_)" fill="#1A303A" d="M112.532,398.465h7.712v16.973h3.838v5.027h-3.838v4.9h-6.559v-4.9h-11.928
					v-5.945L112.532,398.465z M113.686,404.177l-7.604,11.261h7.604V404.177z"/>
				<path clip-path="url(#SVGID_4_)" fill-rule="evenodd" clip-rule="evenodd" fill="#B9F9F7" d="M541.4,166.766
					c0,18.6-15.101,33.699-33.7,33.699c-18.7,0-33.8-15.1-33.8-33.699s15.1-33.801,33.8-33.801
					C526.3,132.965,541.4,148.166,541.4,166.766z"/>
				<path clip-path="url(#SVGID_4_)" fill="#1A303A" d="M151.609,150.965h17.243v5.1h-11.712v4.162
					c0.529-0.145,1.061-0.256,1.596-0.334c0.533-0.078,1.09-0.117,1.666-0.117c3.279,0,5.832,0.82,7.658,2.459
					c1.825,1.641,2.738,3.926,2.738,6.856c0,2.907-0.994,5.183-2.982,6.829c-1.988,1.646-4.748,2.468-8.279,2.468
					c-1.525,0-3.035-0.147-4.531-0.441c-1.495-0.294-2.981-0.741-4.459-1.343v-5.459c1.465,0.842,2.855,1.472,4.171,1.893
					c1.315,0.42,2.556,0.631,3.721,0.631c1.682,0,3.006-0.412,3.973-1.234c0.967-0.823,1.45-1.938,1.45-3.343
					c0-1.417-0.483-2.534-1.45-3.351c-0.967-0.817-2.291-1.227-3.973-1.227c-0.997,0-2.06,0.13-3.188,0.389
					c-1.13,0.258-2.343,0.656-3.641,1.197V150.965z"/>
				<path clip-path="url(#SVGID_4_)" fill-rule="evenodd" clip-rule="evenodd" fill="#B9F9F7" d="M422.4,279.965
					c0,18.701-15.101,33.801-33.7,33.801c-18.7,0-33.8-15.1-33.8-33.801c0-18.6,15.1-33.699,33.8-33.699
					C407.3,246.266,422.4,261.365,422.4,279.965z"/>
				<path clip-path="url(#SVGID_4_)" fill="#1A303A" d="M519.027,151.668v4.973c-1.141-0.541-2.216-0.939-3.225-1.198
					c-1.01-0.259-1.994-0.388-2.955-0.388c-2.066,0-3.676,0.574-4.829,1.721c-1.153,1.147-1.825,2.85-2.019,5.108
					c0.793-0.589,1.652-1.03,2.577-1.324s1.934-0.441,3.026-0.441c2.751,0,4.971,0.805,6.658,2.414
					c1.688,1.61,2.531,3.718,2.531,6.324c0,2.883-0.943,5.192-2.828,6.928c-1.887,1.735-4.415,2.604-7.586,2.604
					c-3.495,0-6.201-1.181-8.117-3.54c-1.916-2.36-2.873-5.709-2.873-10.045c0-4.444,1.119-7.938,3.359-10.478
					s5.313-3.811,9.217-3.811c1.236,0,2.438,0.097,3.604,0.288C516.732,150.995,517.887,151.283,519.027,151.668z M510.451,164.586
					c-1.213,0-2.123,0.395-2.73,1.181c-0.605,0.786-0.909,1.967-0.909,3.54c0,1.574,0.304,2.754,0.909,3.541
					c0.607,0.787,1.518,1.18,2.73,1.18c1.225,0,2.141-0.393,2.748-1.18c0.605-0.787,0.909-1.967,0.909-3.541
					c0-1.573-0.304-2.754-0.909-3.54C512.592,164.98,511.676,164.586,510.451,164.586z"/>
				<path clip-path="url(#SVGID_4_)" fill-rule="evenodd" clip-rule="evenodd" fill="#B9F9F7" d="M516.6,413.266
					c0,18.699-15.1,33.8-33.699,33.8c-18.7,0-33.801-15.101-33.801-33.8c0-18.6,15.101-33.7,33.801-33.7
					C501.5,379.565,516.6,394.666,516.6,413.266z"/>
				<polygon clip-path="url(#SVGID_4_)" fill="#1A303A" points="380.568,264.266 400.838,264.266 400.838,268.175 390.352,291.166 
					383.596,291.166 393.523,269.364 380.568,269.364 				"/>
				<path clip-path="url(#SVGID_4_)" fill-rule="evenodd" clip-rule="evenodd" fill="#B9F9F7" d="M696.6,338.065
					c0,18.7-15.199,33.8-33.8,33.8c-18.6,0-33.8-15.1-33.8-33.8c0-18.601,15.2-33.7,33.8-33.7
					C681.4,304.365,696.6,319.465,696.6,338.065z"/>
				<path clip-path="url(#SVGID_4_)" fill="#1A303A" d="M480.084,410.141c-1.635-0.492-2.865-1.248-3.693-2.27
					c-0.83-1.021-1.244-2.294-1.244-3.82c0-2.27,0.848-4,2.541-5.188s4.18-1.784,7.459-1.784c3.255,0,5.729,0.592,7.424,1.775
					c1.693,1.184,2.54,2.916,2.54,5.197c0,1.526-0.417,2.799-1.253,3.82c-0.834,1.021-2.068,1.777-3.702,2.27
					c1.825,0.506,3.204,1.325,4.136,2.46c0.93,1.136,1.396,2.567,1.396,4.298c0,2.666-0.887,4.682-2.658,6.045
					s-4.399,2.045-7.883,2.045c-3.495,0-6.135-0.682-7.919-2.045s-2.675-3.379-2.675-6.045c0-1.73,0.465-3.162,1.396-4.298
					C476.879,411.466,478.258,410.646,480.084,410.141z M485.146,412.43c-1.297,0-2.295,0.354-2.99,1.063
					c-0.697,0.709-1.046,1.725-1.046,3.045c0,1.322,0.349,2.334,1.046,3.037c0.695,0.702,1.693,1.053,2.99,1.053
					c1.285,0,2.271-0.351,2.955-1.053c0.685-0.703,1.027-1.715,1.027-3.037c0-1.333-0.343-2.352-1.027-3.053
					C487.417,412.781,486.432,412.43,485.146,412.43z M481.705,404.754c0,1.069,0.297,1.893,0.893,2.469
					c0.594,0.576,1.443,0.865,2.549,0.865c1.081,0,1.916-0.289,2.504-0.865c0.589-0.576,0.883-1.399,0.883-2.469
					c0-1.068-0.294-1.889-0.883-2.459c-0.588-0.57-1.423-0.855-2.504-0.855c-1.105,0-1.955,0.287-2.549,0.864
					C482.002,402.881,481.705,403.697,481.705,404.754z"/>
				<path clip-path="url(#SVGID_4_)" fill-rule="evenodd" clip-rule="evenodd" fill="#B9F9F7" d="M518.5,487.565
					c0,18.601-15.1,33.7-33.7,33.7c-18.6,0-33.8-15.1-33.8-33.7s15.2-33.8,33.8-33.8C503.4,453.766,518.5,468.965,518.5,487.565z"/>
				<path clip-path="url(#SVGID_4_)" fill="#1A303A" d="M655.894,348.671v-4.974c1.105,0.518,2.162,0.904,3.171,1.162
					c1.009,0.26,2.006,0.389,2.991,0.389c2.065,0,3.676-0.574,4.829-1.721c1.152-1.147,1.831-2.85,2.035-5.108
					c-0.816,0.601-1.688,1.052-2.612,1.351c-0.925,0.301-1.928,0.451-3.009,0.451c-2.751,0-4.97-0.803-6.657-2.406
					c-1.688-1.604-2.532-3.714-2.532-6.332c0-2.895,0.94-5.213,2.82-6.955s4.399-2.613,7.559-2.613c3.507,0,6.222,1.184,8.144,3.551
					c1.922,2.365,2.883,5.711,2.883,10.035c0,4.444-1.123,7.937-3.369,10.477c-2.246,2.541-5.327,3.811-9.243,3.811
					c-1.261,0-2.469-0.092-3.621-0.279C658.128,349.322,656.999,349.043,655.894,348.671z M664.452,335.717
					c1.213,0,2.126-0.395,2.738-1.181s0.919-1.967,0.919-3.54c0-1.563-0.307-2.739-0.919-3.532
					c-0.612-0.792-1.525-1.188-2.738-1.188c-1.214,0-2.126,0.396-2.739,1.188c-0.612,0.793-0.919,1.97-0.919,3.532
					c0,1.573,0.307,2.754,0.919,3.54C662.326,335.322,663.238,335.717,664.452,335.717z"/>
				<path clip-path="url(#SVGID_4_)" fill="#1A303A" d="M467.924,493.873h6.127v-17.387l-6.289,1.297v-4.721l6.252-1.297h6.595
					v22.107h6.126v4.793h-18.811V493.873z M513.155,485.242c0,4.457-0.962,7.895-2.883,10.314c-1.922,2.422-4.648,3.631-8.181,3.631
					c-3.543,0-6.275-1.209-8.197-3.631c-1.922-2.42-2.883-5.857-2.883-10.314c0-4.469,0.961-7.912,2.883-10.333
					s4.654-3.63,8.197-3.63c3.532,0,6.259,1.209,8.181,3.63C512.193,477.33,513.155,480.773,513.155,485.242z M506.219,485.188
					c0-3.362-0.316-5.732-0.946-7.107c-0.631-1.375-1.69-2.063-3.181-2.063c-1.489,0-2.553,0.688-3.188,2.063
					c-0.637,1.375-0.955,3.745-0.955,7.107c0,3.4,0.318,5.797,0.955,7.189c0.636,1.395,1.699,2.09,3.188,2.09
					c1.479,0,2.535-0.695,3.172-2.09C505.9,490.984,506.219,488.588,506.219,485.188z"/>
				<path clip-path="url(#SVGID_4_)" fill="#2A77BC" d="M183.168,79.969H206.2v6.451h-14.498v6.162h13.634v6.451h-13.634v14.032
					h-8.534V79.969z M232.265,94.998c-0.694-0.324-1.386-0.564-2.073-0.721c-0.687-0.154-1.377-0.232-2.072-0.232
					c-2.039,0-3.609,0.654-4.711,1.963c-1.101,1.307-1.65,3.18-1.65,5.619v11.438h-7.937V88.237h7.937v4.079
					c1.02-1.626,2.19-2.813,3.514-3.559c1.322-0.746,2.906-1.119,4.754-1.119c0.267,0,0.555,0.012,0.865,0.033
					s0.761,0.07,1.352,0.145L232.265,94.998z M248.109,87.639c4.271,0,7.607,1.152,10.009,3.458s3.603,5.497,3.603,9.577
					c0,4.078-1.201,7.271-3.603,9.576c-2.401,2.305-5.737,3.458-10.009,3.458c-4.286,0-7.637-1.153-10.053-3.458
					c-2.416-2.306-3.625-5.498-3.625-9.576c0-4.08,1.209-7.271,3.625-9.577S243.823,87.639,248.109,87.639z M248.109,93.313
					c-1.759,0-3.1,0.632-4.023,1.896s-1.386,3.086-1.386,5.465s0.462,4.201,1.386,5.464c0.924,1.264,2.265,1.896,4.023,1.896
					c1.729,0,3.052-0.632,3.969-1.896c0.916-1.263,1.373-3.085,1.373-5.464s-0.457-4.201-1.373-5.465
					C251.161,93.945,249.838,93.313,248.109,93.313z M292.445,97.947v15.118h-7.98v-2.461v-9.11c0-2.143-0.049-3.621-0.145-4.434
					c-0.097-0.813-0.263-1.412-0.499-1.797c-0.311-0.516-0.731-0.92-1.264-1.207c-0.532-0.289-1.138-0.433-1.817-0.433
					c-1.656,0-2.956,0.64-3.902,1.917c-0.945,1.279-1.418,3.049-1.418,5.31v12.215h-7.937V88.237h7.937v3.636
					c1.197-1.449,2.468-2.516,3.813-3.203s2.83-1.031,4.456-1.031c2.866,0,5.043,0.879,6.528,2.639
					C291.702,92.035,292.445,94.592,292.445,97.947z M308.521,81.188v7.05h8.18v5.675h-8.18v10.529c0,1.153,0.229,1.934,0.688,2.34
					c0.457,0.406,1.366,0.609,2.727,0.609h4.078v5.675h-6.805c-3.134,0-5.354-0.653-6.662-1.962
					c-1.308-1.309-1.962-3.528-1.962-6.662V93.912h-3.946v-5.675h3.946v-7.05H308.521z"/>
				<path clip-path="url(#SVGID_4_)" fill="#2A77BC" d="M1033.049,381.753c1.832,0.532,3.251,1.515,4.256,2.948
					s1.508,3.192,1.508,5.276c0,3.192-1.079,5.571-3.237,7.138c-2.157,1.566-5.438,2.35-9.843,2.35h-14.165v-33.096h12.813
					c4.596,0,7.925,0.694,9.986,2.083c2.062,1.39,3.093,3.614,3.093,6.673c0,1.611-0.377,2.981-1.131,4.111
					C1035.575,380.367,1034.481,381.207,1033.049,381.753z M1024.824,379.182c1.345,0,2.364-0.295,3.059-0.887
					c0.695-0.591,1.042-1.463,1.042-2.615c0-1.139-0.347-2.007-1.042-2.605c-0.694-0.598-1.714-0.897-3.059-0.897h-4.722v7.005
					H1024.824z M1025.112,393.657c1.714,0,3.004-0.362,3.868-1.086s1.297-1.817,1.297-3.281c0-1.433-0.429-2.509-1.286-3.226
					c-0.856-0.717-2.149-1.074-3.879-1.074h-5.01v8.667H1025.112z M1069.107,385.3v14.165h-8.003v-3.68
					c-1.064,1.508-2.261,2.605-3.591,3.293c-1.33,0.687-2.949,1.03-4.855,1.03c-2.571,0-4.659-0.75-6.263-2.251
					c-1.604-1.499-2.405-3.446-2.405-5.84c0-2.912,1.002-5.047,3.004-6.407c2.003-1.359,5.146-2.04,9.433-2.04h4.678v-0.62
					c0-1.256-0.495-2.176-1.485-2.76s-2.535-0.876-4.633-0.876c-1.7,0-3.281,0.17-4.744,0.51s-2.823,0.85-4.079,1.529v-6.051
					c1.699-0.414,3.406-0.729,5.121-0.943c1.714-0.213,3.429-0.32,5.143-0.32c4.479,0,7.711,0.883,9.698,2.648
					C1068.113,378.454,1069.107,381.324,1069.107,385.3z M1056.981,388.293c-1.655,0-2.901,0.281-3.735,0.842
					c-0.835,0.563-1.253,1.39-1.253,2.482c0,1.006,0.336,1.793,1.009,2.361c0.672,0.569,1.607,0.854,2.805,0.854
					c1.492,0,2.748-0.535,3.769-1.607c1.02-1.07,1.529-2.412,1.529-4.023v-0.908H1056.981z M1096.56,375.413v6.474
					c-1.079-0.739-2.161-1.286-3.247-1.641c-1.087-0.355-2.214-0.532-3.381-0.532c-2.217,0-3.942,0.646-5.177,1.939
					c-1.233,1.294-1.851,3.101-1.851,5.42c0,2.321,0.617,4.128,1.851,5.421c1.234,1.293,2.96,1.939,5.177,1.939
					c1.241,0,2.42-0.186,3.535-0.555c1.116-0.369,2.146-0.916,3.093-1.641v6.496c-1.241,0.457-2.501,0.801-3.779,1.03
					s-2.561,0.344-3.847,0.344c-4.478,0-7.98-1.149-10.508-3.447c-2.526-2.298-3.79-5.493-3.79-9.588
					c0-4.093,1.264-7.289,3.79-9.587c2.527-2.299,6.03-3.447,10.508-3.447c1.301,0,2.583,0.114,3.847,0.344
					C1094.044,374.611,1095.304,374.955,1096.56,375.413z M1103.465,364.973h7.937v18.775l9.133-9.111h9.222l-12.125,11.395
					l13.078,13.434h-9.62l-9.688-10.352v10.352h-7.937V364.973z"/>
			</g>
		</g>
	</g>
</g>
</svg>
