<?xml version="1.0" encoding="UTF-8" standalone="no"?>
<!-- Created with Inkscape (http://www.inkscape.org/) -->

<svg
   width="210mm"
   height="150mm"
   viewBox="0 0 210 150"
   version="1.1"
   id="svg5"
   inkscape:version="1.2 (56b05e47e7, 2022-06-09, custom)"
   sodipodi:docname="fr_someone_typing.svg"
   xmlns:inkscape="http://www.inkscape.org/namespaces/inkscape"
   xmlns:sodipodi="http://sodipodi.sourceforge.net/DTD/sodipodi-0.dtd"
   xmlns="http://www.w3.org/2000/svg"
   xmlns:svg="http://www.w3.org/2000/svg">
  <sodipodi:namedview
     id="namedview7"
     pagecolor="#ffffff"
     bordercolor="#666666"
     borderopacity="1.0"
     inkscape:showpageshadow="2"
     inkscape:pageopacity="0.0"
     inkscape:pagecheckerboard="0"
     inkscape:deskcolor="#d1d1d1"
     inkscape:document-units="mm"
     showgrid="false"
     inkscape:zoom="1.1893044"
     inkscape:cx="345.58016"
     inkscape:cy="343.47809"
     inkscape:window-width="1608"
     inkscape:window-height="986"
     inkscape:window-x="72"
     inkscape:window-y="339"
     inkscape:window-maximized="1"
     inkscape:current-layer="layer1" />
  <defs
     id="defs2">
    <rect
       x="503.10907"
       y="349.7796"
       width="144.85046"
       height="159.82422"
       id="rect7675" />
    <rect
       x="181.65051"
       y="203.16031"
       width="240.28474"
       height="159.68587"
       id="rect2357" />
    <rect
       x="209.6304"
       y="178.52766"
       width="346.18118"
       height="245.32964"
       id="rect2351" />
    <rect
       x="181.65051"
       y="203.16031"
       width="240.28474"
       height="159.68587"
       id="rect2357-3" />
  </defs>
  <g
     inkscape:label="Calque 1"
     inkscape:groupmode="layer"
     id="layer1">
    <text
       xml:space="preserve"
       transform="scale(0.26458333)"
       id="text2349"
       style="font-style:normal;font-weight:normal;font-size:40px;line-height:1.25;font-family:sans-serif;white-space:pre;shape-inside:url(#rect2351);display:inline;fill:#000000;fill-opacity:1;stroke:none" />
    <text
       xml:space="preserve"
       transform="matrix(0.26458333,0,0,0.26458333,-20.385774,-21.984302)"
       id="text2355"
       style="font-style:normal;font-weight:normal;font-size:40px;line-height:1.25;font-family:sans-serif;white-space:pre;shape-inside:url(#rect2357);display:inline;fill:#2a77bc;fill-opacity:1;stroke:none"><tspan
         x="181.65039"
         y="238.55078"
         id="tspan8383">Vas-tu faire </tspan><tspan
         x="181.65039"
         y="288.55078"
         id="tspan8385">la </tspan><tspan
         x="181.65039"
         y="338.55078"
         id="tspan8387">robotique?</tspan></text>
    <path
       id="path2467"
       style="fill:none;fill-opacity:1;stroke:#ff9425;stroke-width:2.439;stroke-linecap:round;stroke-linejoin:round;stroke-dasharray:none;stroke-opacity:1"
       d="m 141.55021,63.434374 a 40.442123,29.764538 0 0 0 -40.44198,29.764592 40.442123,29.764538 0 0 0 40.44198,29.764594 40.442123,29.764538 0 0 0 27.74249,-8.13232 l 11.89333,6.83886 -8.27391,-9.70794 a 40.442123,29.764538 0 0 0 9.08006,-18.763194 40.442123,29.764538 0 0 0 -40.44197,-29.764592 z" />
    <path
       id="path2467-7"
       style="fill:none;fill-opacity:1;stroke:#ff9425;stroke-width:2.63304;stroke-linecap:round;stroke-linejoin:round;stroke-dasharray:none;stroke-opacity:1"
       d="M 57.836845,21.774126 A 47.287147,29.667518 0 0 1 105.12382,51.441699 47.287147,29.667518 0 0 1 57.836845,81.109287 47.287147,29.667518 0 0 1 25.398792,73.003472 l -13.906333,6.81656 9.674322,-9.676284 A 47.287147,29.667518 0 0 1 10.549861,51.441699 47.287147,29.667518 0 0 1 57.836845,21.774126 Z" />
    <text
       xml:space="preserve"
       transform="matrix(0.26458333,0,0,0.26458333,-9.0688084,-29.072908)"
       id="text7673"
       style="font-style:normal;font-weight:normal;font-size:133.333px;line-height:1.25;font-family:sans-serif;white-space:pre;shape-inside:url(#rect7675);shape-padding:2.65006;display:inline;fill:#2a77bc;fill-opacity:1;stroke:none"><tspan
         x="505.75977"
         y="470.39814"
         id="tspan8389">...</tspan></text>
  </g>
</svg>
