<?xml version="1.0" encoding="utf-8"?>
<!-- Generator: Adobe Illustrator 16.0.0, SVG Export Plug-In . SVG Version: 6.00 Build 0)  -->
<!DOCTYPE svg PUBLIC "-//W3C//DTD SVG 1.1//EN" "http://www.w3.org/Graphics/SVG/1.1/DTD/svg11.dtd">
<svg version="1.1" id="Layer_1" xmlns="http://www.w3.org/2000/svg" xmlns:xlink="http://www.w3.org/1999/xlink" x="0px" y="0px"
	 width="1732px" height="1178px" viewBox="0 0 1732 1178" enable-background="new 0 0 1732 1178" xml:space="preserve">
<g>
	<path fill="none" stroke="#2A77BC" stroke-width="3.2217" stroke-miterlimit="10" d="M1327.644,682.947l15.167,7.743
		c0,0-7.56,8.079,6.802,16.393c14.359,8.314,29.475,17.384,38.546,21.92c9.068,4.535,17.382,0,17.382,0l92.963,48.371
		c0,0-4.535,9.823,10.582,18.896c15.115,9.069,30.988,16.625,40.813,21.161c9.825,4.535,7.558-9.07,17.382-6.046l14.767,9.764
		c-5.288,11.634-137.961,269.125-141.739,275.927c-3.781,6.803-12.85,3.023-17.385,0c-4.533-3.024,8.315-10.717-6.8-19.34
		c-15.117-8.626-33.256-16.939-41.57-22.229c-8.313-5.288-12.849-7.558-18.139,0l-96.743-53.661c0,0,6.048-9.411,0-13.021
		c-6.046-3.607-47.613-23.258-52.147-26.28c-4.536-3.025-12.85,3.022-12.85,3.022l-12.85-4.534L1327.644,682.947z"/>
	<polygon fill="none" stroke="#1A77BC" stroke-width="5.7955" stroke-miterlimit="10" points="1321.647,671.562 1593.734,818.185 
		1440.306,1114.007 1167.468,959.52 	"/>
	
		<line fill="none" stroke="#2A77BC" stroke-width="3.2217" stroke-miterlimit="10" x1="1292.72" y1="751.124" x2="1548.065" y2="890.759"/>
	
		<line fill="none" stroke="#2A77BC" stroke-width="3.2217" stroke-miterlimit="10" x1="1259.671" y1="820.941" x2="1502.281" y2="954.983"/>
	
		<line fill="none" stroke="#2A77BC" stroke-width="3.2217" stroke-miterlimit="10" x1="1224.906" y1="890.759" x2="1464.493" y2="1025.272"/>
	<path fill="none" stroke="#2A77BC" stroke-width="3.2217" stroke-miterlimit="10" d="M1555.944,826.957
		c0,0-30.8,38.354-16.513,43.192c17.834,6.043,38.018-56.802,7.011-43.192c-17.896,7.856-22.566,26.952-18.839,32.23
		c2.267,3.212,9.76-2.384,13.037-13.037c6.952-22.598-3.591-28.531-13.037-21.728c-9.449,6.804-17.383,23.996-14.552,25.506
		c2.835,1.512,16.251-16.438,7.56-31.744c-8.691-15.305-24.185,17.951-21.729,21.729c2.457,3.779,19.462-17.194,11.688-23.736
		c-6.932-5.834-15.468,21.469-15.468,21.469"/>
	<path fill="none" stroke="#2A77BC" stroke-width="3.2217" stroke-miterlimit="10" d="M1485.089,964.051
		c0,0-30.802,38.353-16.513,43.193c17.834,6.041,38.018-56.804,7.011-43.193c-17.896,7.855-22.566,26.951-18.839,32.229
		c2.267,3.211,9.76-2.382,13.036-13.036c6.953-22.598-3.591-28.531-13.036-21.729c-9.449,6.802-17.383,23.996-14.552,25.506
		c2.835,1.512,16.251-16.438,7.56-31.744c-8.691-15.305-24.187,17.95-21.729,21.729c2.457,3.778,19.462-17.194,11.688-23.736
		c-6.932-5.834-15.47,21.467-15.47,21.467"/>
	
		<ellipse transform="matrix(-0.8806 -0.4739 0.4739 -0.8806 2413.0291 2443.8691)" fill="none" stroke="#2A77BC" stroke-width="3.2217" stroke-miterlimit="10" cx="1514.408" cy="917.926" rx="5.689" ry="13.95"/>
	
		<ellipse transform="matrix(-0.8806 -0.4739 0.4739 -0.8806 2412.8774 2444.0337)" fill="none" stroke="#2A77BC" stroke-width="3.2217" stroke-miterlimit="10" cx="1514.417" cy="917.965" rx="3.386" ry="8.308"/>
	
		<ellipse transform="matrix(-0.8806 -0.4739 0.4739 -0.8806 2213.5618 2671.3882)" fill="none" stroke="#2A77BC" stroke-width="3.2217" stroke-miterlimit="10" cx="1443.339" cy="1056.816" rx="5.689" ry="13.953"/>
	
		<ellipse transform="matrix(-0.8807 -0.4737 0.4737 -0.8807 2213.7781 2671.0229)" fill="none" stroke="#2A77BC" stroke-width="3.2217" stroke-miterlimit="10" cx="1443.234" cy="1056.744" rx="3.387" ry="8.307"/>
	<path fill="none" stroke="#2A77BC" stroke-width="3.2217" stroke-miterlimit="10" d="M1288.896,772.082
		c0,0-9.825,20.407-11.59,27.209c-1.763,6.802,1.26,9.825,8.566,1.512s21.668-30.988,17.887-20.659
		c-3.778,10.328-15.619,41.82-7.809,33.002c7.809-8.817,22.422-28.944,19.901-19.763c-2.519,9.183-8.061,26.818-5.29,23.795
		c2.771-3.022,10.331-19.147,10.331-19.147"/>
	<path fill="none" stroke="#2A77BC" stroke-width="3.2217" stroke-miterlimit="10" d="M1214.947,916.501
		c0,0-9.824,20.404-11.589,27.208c-1.764,6.803,1.262,9.824,8.566,1.51c7.306-8.313,21.667-30.985,17.887-20.657
		c-3.779,10.327-15.62,41.821-7.809,33.004c7.809-8.818,22.421-28.944,19.902-19.763c-2.521,9.182-8.062,26.815-5.292,23.793
		c2.771-3.024,10.331-19.147,10.331-19.147"/>
	<path fill="none" stroke="#2C77BC" stroke-width="5.8113" stroke-miterlimit="10" d="M1279.047,751.124
		c0,0-106.872-43.228-62.28-162.644c44.594-119.417-328.023-169.004-136.396,95.063"/>
	<path fill="none" stroke="#2C77BC" stroke-width="5.8113" stroke-miterlimit="10" d="M1285.63,738.826
		c0,0-100.027-43.078-71.307-118.66c28.72-75.578-26.262-180.251-129.338-129.323c-125.177,61.85-11.515,199.34-11.515,199.34"/>
	<polygon fill="none" stroke="#2A77BC" stroke-width="3.2217" stroke-miterlimit="10" points="1062.604,701.204 1091.264,672.135 
		1095.326,676.693 1093.723,680.588 1117.033,705.003 1093.953,727.832 1071.804,703.299 1067.579,706.576 	"/>
	<polygon fill="none" stroke="#2A77BC" stroke-width="3.2217" stroke-miterlimit="10" points="1070.645,693.048 1088.501,711.116 
		1095.554,713.233 1073.471,690.181 	"/>
	<polygon fill="none" stroke="#2A77BC" stroke-width="3.2217" stroke-miterlimit="10" points="1083.342,680.829 1100.709,699.367 
		1102.554,706.496 1080.37,683.544 	"/>
</g>
<g>
	<path fill="none" stroke="#1A77BC" stroke-width="9.6925" stroke-miterlimit="10" d="M533.494,540.612H195.582
		c-41.846,0-76.081-34.238-76.081-76.083V171.314c0-41.844,34.235-76.082,76.081-76.082h337.912
		c41.847,0,76.082,34.238,76.082,76.082v293.215C609.576,506.374,575.34,540.612,533.494,540.612z"/>
	<polygon fill="none" stroke="#2C77BC" stroke-width="4.9046" stroke-miterlimit="10" points="296.592,322.081 296.592,305.628 
		487.089,306.974 487.089,322.081 511.566,322.081 511.566,447.415 488.152,447.415 488.152,463.379 296.592,463.379 
		296.592,449.544 272.114,449.544 272.114,322.081 	"/>
	<path fill="#2C77BC" d="M296.925,345.006c0,2.033-1.647,3.68-3.677,3.68c-2.034,0-3.68-1.646-3.68-3.68
		c0-2.03,1.646-3.678,3.68-3.678C295.278,341.329,296.925,342.976,296.925,345.006"/>
	<path fill="#2C77BC" d="M316.792,345.006c0,2.033-1.646,3.68-3.677,3.68c-2.033,0-3.68-1.646-3.68-3.68
		c0-2.03,1.647-3.678,3.68-3.678C315.143,341.329,316.792,342.976,316.792,345.006"/>
	<path fill="#2C77BC" d="M336.657,345.006c0,2.033-1.647,3.68-3.677,3.68c-2.033,0-3.68-1.646-3.68-3.68
		c0-2.03,1.647-3.678,3.68-3.678C335.008,341.329,336.657,342.976,336.657,345.006"/>
	<path fill="#2C77BC" d="M356.522,345.006c0,2.033-1.646,3.68-3.677,3.68c-2.033,0-3.679-1.646-3.679-3.68
		c0-2.03,1.646-3.678,3.679-3.678C354.875,341.329,356.522,342.976,356.522,345.006"/>
	<path fill="#2C77BC" d="M376.387,345.006c0,2.033-1.646,3.68-3.676,3.68c-2.033,0-3.681-1.646-3.681-3.68
		c0-2.03,1.647-3.678,3.681-3.678C374.741,341.329,376.387,342.976,376.387,345.006"/>
	<path fill="#2C77BC" d="M396.252,345.006c0,2.033-1.646,3.68-3.676,3.68c-2.034,0-3.68-1.646-3.68-3.68
		c0-2.03,1.646-3.678,3.68-3.678C394.606,341.329,396.252,342.976,396.252,345.006"/>
	<path fill="#2C77BC" d="M416.117,345.006c0,2.033-1.646,3.68-3.676,3.68c-2.033,0-3.68-1.646-3.68-3.68
		c0-2.03,1.646-3.678,3.68-3.678C414.471,341.329,416.117,342.976,416.117,345.006"/>
	<path fill="#2C77BC" d="M435.985,345.006c0,2.033-1.646,3.68-3.676,3.68c-2.034,0-3.68-1.646-3.68-3.68
		c0-2.03,1.646-3.678,3.68-3.678C434.336,341.329,435.985,342.976,435.985,345.006"/>
	<path fill="#2C77BC" d="M455.851,345.006c0,2.033-1.647,3.68-3.677,3.68c-2.033,0-3.68-1.646-3.68-3.68
		c0-2.03,1.647-3.678,3.68-3.678C454.202,341.329,455.851,342.976,455.851,345.006"/>
	<path fill="#2C77BC" d="M475.715,345.006c0,2.033-1.646,3.68-3.676,3.68c-2.033,0-3.68-1.646-3.68-3.68
		c0-2.03,1.646-3.678,3.68-3.678C474.069,341.329,475.715,342.976,475.715,345.006"/>
	<path fill="#2C77BC" d="M495.581,345.006c0,2.033-1.646,3.68-3.676,3.68c-2.033,0-3.681-1.646-3.681-3.68
		c0-2.03,1.647-3.678,3.681-3.678C493.934,341.329,495.581,342.976,495.581,345.006"/>
	<path fill="#2C77BC" d="M296.925,365.116c0,2.031-1.647,3.678-3.677,3.678c-2.034,0-3.68-1.647-3.68-3.678
		c0-2.03,1.646-3.679,3.68-3.679C295.278,361.437,296.925,363.085,296.925,365.116"/>
	<path fill="#2C77BC" d="M316.792,365.116c0,2.031-1.646,3.678-3.677,3.678c-2.033,0-3.68-1.647-3.68-3.678
		c0-2.03,1.647-3.679,3.68-3.679C315.143,361.437,316.792,363.085,316.792,365.116"/>
	<path fill="#2C77BC" d="M336.657,365.116c0,2.031-1.647,3.678-3.677,3.678c-2.033,0-3.68-1.647-3.68-3.678
		c0-2.03,1.647-3.679,3.68-3.679C335.008,361.437,336.657,363.085,336.657,365.116"/>
	<path fill="#2C77BC" d="M356.522,365.116c0,2.031-1.646,3.678-3.677,3.678c-2.033,0-3.679-1.647-3.679-3.678
		c0-2.03,1.646-3.679,3.679-3.679C354.875,361.437,356.522,363.085,356.522,365.116"/>
	<path fill="#2C77BC" d="M376.387,365.116c0,2.031-1.646,3.678-3.676,3.678c-2.033,0-3.681-1.647-3.681-3.678
		c0-2.03,1.647-3.679,3.681-3.679C374.741,361.437,376.387,363.085,376.387,365.116"/>
	<path fill="#2C77BC" d="M396.252,365.116c0,2.031-1.646,3.678-3.676,3.678c-2.034,0-3.68-1.647-3.68-3.678
		c0-2.03,1.646-3.679,3.68-3.679C394.606,361.437,396.252,363.085,396.252,365.116"/>
	<path fill="#2C77BC" d="M416.117,365.116c0,2.031-1.646,3.678-3.676,3.678c-2.033,0-3.68-1.647-3.68-3.678
		c0-2.03,1.646-3.679,3.68-3.679C414.471,361.437,416.117,363.085,416.117,365.116"/>
	<path fill="#2C77BC" d="M435.985,365.116c0,2.031-1.646,3.678-3.676,3.678c-2.034,0-3.68-1.647-3.68-3.678
		c0-2.03,1.646-3.679,3.68-3.679C434.336,361.437,435.985,363.085,435.985,365.116"/>
	<path fill="#2C77BC" d="M455.851,365.116c0,2.031-1.647,3.678-3.677,3.678c-2.033,0-3.68-1.647-3.68-3.678
		c0-2.03,1.647-3.679,3.68-3.679C454.202,361.437,455.851,363.085,455.851,365.116"/>
	<path fill="#2C77BC" d="M475.715,365.116c0,2.031-1.646,3.678-3.676,3.678c-2.033,0-3.68-1.647-3.68-3.678
		c0-2.03,1.646-3.679,3.68-3.679C474.069,361.437,475.715,363.085,475.715,365.116"/>
	<path fill="#2C77BC" d="M495.581,365.116c0,2.031-1.646,3.678-3.676,3.678c-2.033,0-3.681-1.647-3.681-3.678
		c0-2.03,1.647-3.679,3.681-3.679C493.934,361.437,495.581,363.085,495.581,365.116"/>
	<path fill="#2C77BC" d="M296.925,385.224c0,2.03-1.647,3.679-3.677,3.679c-2.034,0-3.68-1.648-3.68-3.679
		c0-2.031,1.646-3.68,3.68-3.68C295.278,381.544,296.925,383.19,296.925,385.224"/>
	<path fill="#2C77BC" d="M316.792,385.224c0,2.03-1.646,3.679-3.677,3.679c-2.033,0-3.68-1.648-3.68-3.679
		c0-2.031,1.647-3.68,3.68-3.68C315.143,381.544,316.792,383.19,316.792,385.224"/>
	<path fill="#2C77BC" d="M336.657,385.224c0,2.03-1.647,3.679-3.677,3.679c-2.033,0-3.68-1.648-3.68-3.679
		c0-2.031,1.647-3.68,3.68-3.68C335.008,381.544,336.657,383.19,336.657,385.224"/>
	<path fill="#2C77BC" d="M356.522,385.224c0,2.03-1.646,3.679-3.677,3.679c-2.033,0-3.679-1.648-3.679-3.679
		c0-2.031,1.646-3.68,3.679-3.68C354.875,381.544,356.522,383.19,356.522,385.224"/>
	<path fill="#2C77BC" d="M376.387,385.224c0,2.03-1.646,3.679-3.676,3.679c-2.033,0-3.681-1.648-3.681-3.679
		c0-2.031,1.647-3.68,3.681-3.68C374.741,381.544,376.387,383.19,376.387,385.224"/>
	<path fill="#2C77BC" d="M396.252,385.224c0,2.03-1.646,3.679-3.676,3.679c-2.034,0-3.68-1.648-3.68-3.679
		c0-2.031,1.646-3.68,3.68-3.68C394.606,381.544,396.252,383.19,396.252,385.224"/>
	<path fill="#2C77BC" d="M416.117,385.224c0,2.03-1.646,3.679-3.676,3.679c-2.033,0-3.68-1.648-3.68-3.679
		c0-2.031,1.646-3.68,3.68-3.68C414.471,381.544,416.117,383.19,416.117,385.224"/>
	<path fill="#2C77BC" d="M435.985,385.224c0,2.03-1.646,3.679-3.676,3.679c-2.034,0-3.68-1.648-3.68-3.679
		c0-2.031,1.646-3.68,3.68-3.68C434.336,381.544,435.985,383.19,435.985,385.224"/>
	<path fill="#2C77BC" d="M455.851,385.224c0,2.03-1.647,3.679-3.677,3.679c-2.033,0-3.68-1.648-3.68-3.679
		c0-2.031,1.647-3.68,3.68-3.68C454.202,381.544,455.851,383.19,455.851,385.224"/>
	<path fill="#2C77BC" d="M475.715,385.224c0,2.03-1.646,3.679-3.676,3.679c-2.033,0-3.68-1.648-3.68-3.679
		c0-2.031,1.646-3.68,3.68-3.68C474.069,381.544,475.715,383.19,475.715,385.224"/>
	<path fill="#2C77BC" d="M495.581,385.224c0,2.03-1.646,3.679-3.676,3.679c-2.033,0-3.681-1.648-3.681-3.679
		c0-2.031,1.647-3.68,3.681-3.68C493.934,381.544,495.581,383.19,495.581,385.224"/>
	<path fill="#2C77BC" d="M296.925,405.331c0,2.033-1.647,3.679-3.677,3.679c-2.034,0-3.68-1.646-3.68-3.679
		c0-2.031,1.646-3.677,3.68-3.677C295.278,401.654,296.925,403.3,296.925,405.331"/>
	<path fill="#2C77BC" d="M316.792,405.331c0,2.033-1.646,3.679-3.677,3.679c-2.033,0-3.68-1.646-3.68-3.679
		c0-2.031,1.647-3.677,3.68-3.677C315.143,401.654,316.792,403.3,316.792,405.331"/>
	<path fill="#2C77BC" d="M336.657,405.331c0,2.033-1.647,3.679-3.677,3.679c-2.033,0-3.68-1.646-3.68-3.679
		c0-2.031,1.647-3.677,3.68-3.677C335.008,401.654,336.657,403.3,336.657,405.331"/>
	<path fill="#2C77BC" d="M356.522,405.331c0,2.033-1.646,3.679-3.677,3.679c-2.033,0-3.679-1.646-3.679-3.679
		c0-2.031,1.646-3.677,3.679-3.677C354.875,401.654,356.522,403.3,356.522,405.331"/>
	<path fill="#2C77BC" d="M376.387,405.331c0,2.033-1.646,3.679-3.676,3.679c-2.033,0-3.681-1.646-3.681-3.679
		c0-2.031,1.647-3.677,3.681-3.677C374.741,401.654,376.387,403.3,376.387,405.331"/>
	<path fill="#2C77BC" d="M396.252,405.331c0,2.033-1.646,3.679-3.676,3.679c-2.034,0-3.68-1.646-3.68-3.679
		c0-2.031,1.646-3.677,3.68-3.677C394.606,401.654,396.252,403.3,396.252,405.331"/>
	<path fill="#2C77BC" d="M416.117,405.331c0,2.033-1.646,3.679-3.676,3.679c-2.033,0-3.68-1.646-3.68-3.679
		c0-2.031,1.646-3.677,3.68-3.677C414.471,401.654,416.117,403.3,416.117,405.331"/>
	<path fill="#2C77BC" d="M435.985,405.331c0,2.033-1.646,3.679-3.676,3.679c-2.034,0-3.68-1.646-3.68-3.679
		c0-2.031,1.646-3.677,3.68-3.677C434.336,401.654,435.985,403.3,435.985,405.331"/>
	<path fill="#2C77BC" d="M455.851,405.331c0,2.033-1.647,3.679-3.677,3.679c-2.033,0-3.68-1.646-3.68-3.679
		c0-2.031,1.647-3.677,3.68-3.677C454.202,401.654,455.851,403.3,455.851,405.331"/>
	<path fill="#2C77BC" d="M475.715,405.331c0,2.033-1.646,3.679-3.676,3.679c-2.033,0-3.68-1.646-3.68-3.679
		c0-2.031,1.646-3.677,3.68-3.677C474.069,401.654,475.715,403.3,475.715,405.331"/>
	<path fill="#2C77BC" d="M495.581,405.331c0,2.033-1.646,3.679-3.676,3.679c-2.033,0-3.681-1.646-3.681-3.679
		c0-2.031,1.647-3.677,3.681-3.677C493.934,401.654,495.581,403.3,495.581,405.331"/>
	<path fill="#2C77BC" d="M296.925,425.441c0,2.03-1.647,3.68-3.677,3.68c-2.034,0-3.68-1.649-3.68-3.68c0-2.03,1.646-3.68,3.68-3.68
		C295.278,421.759,296.925,423.407,296.925,425.441"/>
	<path fill="#2C77BC" d="M316.792,425.441c0,2.03-1.646,3.68-3.677,3.68c-2.033,0-3.68-1.649-3.68-3.68c0-2.03,1.647-3.68,3.68-3.68
		C315.143,421.759,316.792,423.407,316.792,425.441"/>
	<path fill="#2C77BC" d="M336.657,425.441c0,2.03-1.647,3.68-3.677,3.68c-2.033,0-3.68-1.649-3.68-3.68c0-2.03,1.647-3.68,3.68-3.68
		C335.008,421.759,336.657,423.407,336.657,425.441"/>
	<path fill="#2C77BC" d="M356.522,425.441c0,2.03-1.646,3.68-3.677,3.68c-2.033,0-3.679-1.649-3.679-3.68
		c0-2.03,1.646-3.68,3.679-3.68C354.875,421.759,356.522,423.407,356.522,425.441"/>
	<path fill="#2C77BC" d="M376.387,425.441c0,2.03-1.646,3.68-3.676,3.68c-2.033,0-3.681-1.649-3.681-3.68
		c0-2.03,1.647-3.68,3.681-3.68C374.741,421.759,376.387,423.407,376.387,425.441"/>
	<path fill="#2C77BC" d="M396.252,425.441c0,2.03-1.646,3.68-3.676,3.68c-2.034,0-3.68-1.649-3.68-3.68c0-2.03,1.646-3.68,3.68-3.68
		C394.606,421.759,396.252,423.407,396.252,425.441"/>
	<path fill="#2C77BC" d="M416.117,425.441c0,2.03-1.646,3.68-3.676,3.68c-2.033,0-3.68-1.649-3.68-3.68c0-2.03,1.646-3.68,3.68-3.68
		C414.471,421.759,416.117,423.407,416.117,425.441"/>
	<path fill="#2C77BC" d="M435.985,425.441c0,2.03-1.646,3.68-3.676,3.68c-2.034,0-3.68-1.649-3.68-3.68c0-2.03,1.646-3.68,3.68-3.68
		C434.336,421.759,435.985,423.407,435.985,425.441"/>
	<path fill="#2C77BC" d="M455.851,425.441c0,2.03-1.647,3.68-3.677,3.68c-2.033,0-3.68-1.649-3.68-3.68c0-2.03,1.647-3.68,3.68-3.68
		C454.202,421.759,455.851,423.407,455.851,425.441"/>
	<path fill="#2C77BC" d="M475.715,425.441c0,2.03-1.646,3.68-3.676,3.68c-2.033,0-3.68-1.649-3.68-3.68c0-2.03,1.646-3.68,3.68-3.68
		C474.069,421.759,475.715,423.407,475.715,425.441"/>
	<path fill="#2C77BC" d="M495.581,425.441c0,2.03-1.646,3.68-3.676,3.68c-2.033,0-3.681-1.649-3.681-3.68
		c0-2.03,1.647-3.68,3.681-3.68C493.934,421.759,495.581,423.407,495.581,425.441"/>
	
		<rect x="156.647" y="168.288" fill="none" stroke="#2C77BC" stroke-width="4.9046" stroke-miterlimit="10" width="15.964" height="239.095"/>
	
		<rect x="156.647" y="129.88" fill="none" stroke="#2C77BC" stroke-width="4.9046" stroke-miterlimit="10" width="140.833" height="15.962"/>
	
		<rect x="141.481" y="474.361" fill="none" stroke="#2C77BC" stroke-width="4.9046" stroke-miterlimit="10" width="79.551" height="15.963"/>
	
		<rect x="334.106" y="129.88" fill="none" stroke="#2C77BC" stroke-width="4.9046" stroke-miterlimit="10" width="159.101" height="15.962"/>
	
		<rect x="336.657" y="255.916" fill="none" stroke="#2C77BC" stroke-width="4.9046" stroke-miterlimit="10" width="36.054" height="36.051"/>
	
		<rect x="439.663" y="220.55" fill="none" stroke="#2C77BC" stroke-width="4.9046" stroke-miterlimit="10" width="36.052" height="18.025"/>
	
		<rect x="491.904" y="180.476" fill="none" stroke="#2C77BC" stroke-width="4.9046" stroke-miterlimit="10" width="36.053" height="18.026"/>
	
		<rect x="491.904" y="260.63" fill="none" stroke="#2C77BC" stroke-width="4.9046" stroke-miterlimit="10" width="36.053" height="18.027"/>
	
		<rect x="235.665" y="476.596" fill="none" stroke="#2C77BC" stroke-width="4.9046" stroke-miterlimit="10" width="108.551" height="41.732"/>
	
		<rect x="379.262" y="476.596" fill="none" stroke="#2C77BC" stroke-width="4.9046" stroke-miterlimit="10" width="108.552" height="41.732"/>
	
		<rect x="541.829" y="220.55" fill="none" stroke="#2C77BC" stroke-width="4.9046" stroke-miterlimit="10" width="36.053" height="18.025"/>
	<rect x="250.606" y="499.703" fill="#2C77BC" width="4.789" height="4.788"/>
	<rect x="268.962" y="499.703" fill="#2C77BC" width="4.791" height="4.788"/>
	<rect x="287.322" y="499.703" fill="#2C77BC" width="4.788" height="4.788"/>
	<rect x="305.678" y="499.703" fill="#2C77BC" width="4.79" height="4.788"/>
	<rect x="324.037" y="499.703" fill="#2C77BC" width="4.788" height="4.788"/>
	<rect x="394.013" y="499.703" fill="#2C77BC" width="4.791" height="4.788"/>
	<rect x="412.371" y="499.703" fill="#2C77BC" width="4.791" height="4.788"/>
	<rect x="430.729" y="499.703" fill="#2C77BC" width="4.79" height="4.788"/>
	<rect x="449.086" y="499.703" fill="#2C77BC" width="4.79" height="4.788"/>
	<rect x="467.445" y="499.703" fill="#2C77BC" width="4.791" height="4.788"/>
	
		<line fill="none" stroke="#2C77BC" stroke-width="4.9046" stroke-miterlimit="10" x1="161.369" y1="474.361" x2="161.369" y2="490.324"/>
	
		<line fill="none" stroke="#2C77BC" stroke-width="4.9046" stroke-miterlimit="10" x1="181.259" y1="474.361" x2="181.259" y2="490.324"/>
	
		<line fill="none" stroke="#2C77BC" stroke-width="4.9046" stroke-miterlimit="10" x1="201.144" y1="474.361" x2="201.144" y2="490.324"/>
	
		<rect x="147.225" y="432.639" fill="none" stroke="#2C77BC" stroke-width="4.9046" stroke-miterlimit="10" width="39.775" height="15.96"/>
	
		<line fill="none" stroke="#2C77BC" stroke-width="4.9046" stroke-miterlimit="10" x1="167.112" y1="432.639" x2="167.112" y2="448.599"/>
	
		<line fill="none" stroke="#2C77BC" stroke-width="4.9046" stroke-miterlimit="10" x1="172.612" y1="387.562" x2="156.646" y2="387.562"/>
	
		<line fill="none" stroke="#2C77BC" stroke-width="4.9046" stroke-miterlimit="10" x1="172.612" y1="367.164" x2="156.646" y2="367.164"/>
	
		<line fill="none" stroke="#2C77BC" stroke-width="4.9046" stroke-miterlimit="10" x1="172.612" y1="347.277" x2="156.646" y2="347.277"/>
	
		<line fill="none" stroke="#2C77BC" stroke-width="4.9046" stroke-miterlimit="10" x1="172.612" y1="327.389" x2="156.646" y2="327.389"/>
	
		<line fill="none" stroke="#2C77BC" stroke-width="4.9046" stroke-miterlimit="10" x1="172.612" y1="307.502" x2="156.646" y2="307.502"/>
	
		<line fill="none" stroke="#2C77BC" stroke-width="4.9046" stroke-miterlimit="10" x1="172.612" y1="287.613" x2="156.646" y2="287.613"/>
	
		<line fill="none" stroke="#2C77BC" stroke-width="4.9046" stroke-miterlimit="10" x1="172.612" y1="267.727" x2="156.646" y2="267.727"/>
	
		<line fill="none" stroke="#2C77BC" stroke-width="4.9046" stroke-miterlimit="10" x1="172.612" y1="247.839" x2="156.646" y2="247.839"/>
	
		<line fill="none" stroke="#2C77BC" stroke-width="4.9046" stroke-miterlimit="10" x1="172.612" y1="227.951" x2="156.646" y2="227.951"/>
	
		<line fill="none" stroke="#2C77BC" stroke-width="4.9046" stroke-miterlimit="10" x1="172.612" y1="208.063" x2="156.646" y2="208.063"/>
	
		<line fill="none" stroke="#2C77BC" stroke-width="4.9046" stroke-miterlimit="10" x1="172.612" y1="188.176" x2="156.646" y2="188.176"/>
	
		<line fill="none" stroke="#2C77BC" stroke-width="4.9046" stroke-miterlimit="10" x1="353.993" y1="145.842" x2="353.993" y2="129.88"/>
	
		<line fill="none" stroke="#2C77BC" stroke-width="4.9046" stroke-miterlimit="10" x1="276.905" y1="145.842" x2="276.905" y2="129.88"/>
	
		<line fill="none" stroke="#2C77BC" stroke-width="4.9046" stroke-miterlimit="10" x1="256.086" y1="145.842" x2="256.086" y2="129.88"/>
	
		<line fill="none" stroke="#2C77BC" stroke-width="4.9046" stroke-miterlimit="10" x1="236.198" y1="145.842" x2="236.198" y2="129.88"/>
	
		<line fill="none" stroke="#2C77BC" stroke-width="4.9046" stroke-miterlimit="10" x1="216.312" y1="145.842" x2="216.312" y2="129.88"/>
	
		<line fill="none" stroke="#2C77BC" stroke-width="4.9046" stroke-miterlimit="10" x1="196.423" y1="145.842" x2="196.423" y2="129.88"/>
	
		<line fill="none" stroke="#2C77BC" stroke-width="4.9046" stroke-miterlimit="10" x1="176.536" y1="145.842" x2="176.536" y2="129.88"/>
	
		<line fill="none" stroke="#2C77BC" stroke-width="4.9046" stroke-miterlimit="10" x1="373.882" y1="145.842" x2="373.882" y2="129.88"/>
	
		<line fill="none" stroke="#2C77BC" stroke-width="4.9046" stroke-miterlimit="10" x1="393.77" y1="145.842" x2="393.77" y2="129.88"/>
	
		<line fill="none" stroke="#2C77BC" stroke-width="4.9046" stroke-miterlimit="10" x1="413.657" y1="145.842" x2="413.657" y2="129.88"/>
	
		<line fill="none" stroke="#2C77BC" stroke-width="4.9046" stroke-miterlimit="10" x1="433.544" y1="145.842" x2="433.544" y2="129.88"/>
	
		<line fill="none" stroke="#2C77BC" stroke-width="4.9046" stroke-miterlimit="10" x1="453.435" y1="145.842" x2="453.435" y2="129.88"/>
	
		<line fill="none" stroke="#2C77BC" stroke-width="4.9046" stroke-miterlimit="10" x1="473.319" y1="145.842" x2="473.319" y2="129.88"/>
	
		<rect x="571.797" y="368.791" fill="none" stroke="#2C77BC" stroke-width="4.9046" stroke-miterlimit="10" width="19.865" height="46.748"/>
	<rect x="591.663" y="403.123" fill="#2C77BC" width="8.337" height="8.338"/>
	<path fill="none" stroke="#2C77BC" stroke-width="4.9046" stroke-miterlimit="10" d="M298.255,211.645h-11.531
		c-5.4,0-9.82-4.42-9.82-9.82v-11.533c0-5.397,4.42-9.818,9.82-9.818h11.531c5.4,0,9.818,4.421,9.818,9.818v11.533
		C308.073,207.226,303.653,211.645,298.255,211.645z"/>
</g>
<path fill="none" stroke="#2C77BC" stroke-width="7.7708" stroke-miterlimit="10" d="M975.724,277.1
	c0,0,98.933-37.528,136.457-115.992c37.527-78.464,180.813-10.234,211.515,44.351c30.702,54.582,16.262,145.269-129.637,129.637
	c-95.521-10.234-129.637-10.234-156.93,10.234"/>
<path fill="none" stroke="#2C77BC" stroke-width="7.7708" stroke-miterlimit="10" d="M989.369,297.568
	c0,0,85.287-51.173,102.346-126.226c17.057-75.053,160.337-75.053,197.865-34.114c37.527,40.937,37.527,119.4-98.934,143.282
	c-136.459,23.88-160.341,47.762-160.341,47.762"/>
<path fill="none" stroke="#2C77BC" stroke-width="7.7708" stroke-miterlimit="10" d="M989.369,307.802
	c0,0,68.229-34.114,81.875-54.584c13.646-20.47,44.348-115.991,150.107-95.521c105.756,20.468,122.813,102.344,75.053,136.459
	c-47.764,34.116-252.453-13.646-283.156,27.291"/>
<polygon fill="none" stroke="#2A77BC" stroke-width="4.308" stroke-linejoin="round" stroke-miterlimit="10" points="
	922.845,285.628 926.256,295.862 977.427,282.217 972.313,270.275 "/>
<line fill="none" stroke="#2A77BC" stroke-width="4.308" stroke-linejoin="round" stroke-miterlimit="10" x1="924.365" y1="292.072" x2="897.074" y2="298.895"/>
<polygon fill="none" stroke="#2A77BC" stroke-width="4.308" stroke-linejoin="round" stroke-miterlimit="10" points="
	973.123,354.197 981.254,361.287 1018.439,323.577 1007.974,315.88 "/>
<line fill="none" stroke="#2A77BC" stroke-width="4.308" stroke-linejoin="round" stroke-miterlimit="10" x1="977.703" y1="358.978" x2="957.64" y2="378.698"/>
<polygon fill="#FFFFFF" points="943.276,312.128 946.121,322.536 997.966,311.714 993.51,299.512 "/>
<polygon fill="none" stroke="#2A77BC" stroke-width="4.308" stroke-linejoin="round" stroke-miterlimit="10" points="
	943.276,312.128 946.121,322.536 997.966,311.714 993.51,299.512 "/>
<line fill="none" stroke="#2A77BC" stroke-width="4.308" stroke-linejoin="round" stroke-miterlimit="10" x1="944.445" y1="318.645" x2="916.82" y2="323.96"/>
<polygon fill="#FFFFFF" points="943.668,311.806 948.678,321.361 996.999,299.683 990.029,288.717 "/>
<polygon fill="none" stroke="#2A77BC" stroke-width="4.308" stroke-linejoin="round" stroke-miterlimit="10" points="
	943.668,311.806 948.678,321.361 996.999,299.683 990.029,288.717 "/>
<line fill="none" stroke="#2A77BC" stroke-width="4.308" stroke-linejoin="round" stroke-miterlimit="10" x1="946.203" y1="317.922" x2="920.359" y2="329.034"/>
<polygon fill="#FFFFFF" points="989.439,356.417 996.844,364.262 1037.515,330.34 1027.846,321.663 "/>
<polygon fill="none" stroke="#2A77BC" stroke-width="4.308" stroke-linejoin="round" stroke-miterlimit="10" points="
	989.439,356.417 996.844,364.262 1037.515,330.34 1027.846,321.663 "/>
<line fill="none" x1="993.535" y1="361.619" x2="971.653" y2="379.297"/>
<line fill="none" stroke="#2A77BC" stroke-width="4.308" stroke-linejoin="round" stroke-miterlimit="10" x1="993.535" y1="361.619" x2="971.653" y2="379.297"/>
<polygon fill="#FFFFFF" points="996.265,373.474 1003.666,381.321 1044.338,347.397 1034.67,338.722 "/>
<polygon fill="none" stroke="#2A77BC" stroke-width="4.308" stroke-linejoin="round" stroke-miterlimit="10" points="
	996.265,373.474 1003.666,381.321 1044.338,347.397 1034.67,338.722 "/>
<line fill="none" x1="1000.357" y1="378.675" x2="978.477" y2="396.356"/>
<line fill="none" stroke="#2A77BC" stroke-width="4.308" stroke-linejoin="round" stroke-miterlimit="10" x1="1000.357" y1="378.675" x2="978.477" y2="396.356"/>
<g>
	<path fill="none" stroke="#2C77BC" stroke-width="8.1966" stroke-miterlimit="10" d="M1517.649,384.474
		c-11.69,0-12.286-67.167-39.136-58.516l-0.003-0.005c-0.01,0.005-0.017,0.01-0.028,0.012c-0.01,0.005-0.019,0.005-0.031,0.008
		l0.003,0.004c-26.673,9.185,13.143,63.281,3.791,70.295c-8.572,6.428,0.227,3.815,8.394,0.803
		c5.221-1.929,10.186-4.018,10.186-4.018l0.031-0.01C1500.855,393.045,1535.211,384.474,1517.649,384.474z"/>
	
		<line fill="none" stroke="#2A77BC" stroke-width="4.9244" stroke-miterlimit="10" x1="1538.12" y1="540.088" x2="1494.729" y2="397.073"/>
	
		<line fill="none" stroke="#2A77BC" stroke-width="4.9244" stroke-miterlimit="10" x1="1543.126" y1="502.549" x2="1509.301" y2="391.061"/>
</g>
<g>
	<path fill="none" stroke="#2A77BC" stroke-width="3.061" stroke-miterlimit="10" d="M137.198,812.49l185.159,214.721
		c0,0,18.126-4.459,36.997-20.93c18.869-16.471,22.584-31.432,22.584-31.432L197.132,758.563c0,0-18.527,17.865-31.81,30.004
		C152.044,800.705,137.198,812.49,137.198,812.49z"/>
	<polygon fill="none" stroke="#2A77BC" stroke-width="3.061" stroke-miterlimit="10" points="158.306,794.838 151.404,786.074 
		170.626,768.037 178.571,776.242 	"/>
	
		<line fill="none" stroke="#2A77BC" stroke-width="3.061" stroke-miterlimit="10" x1="162.544" y1="841.883" x2="222.465" y2="788.209"/>
	<path fill="none" stroke="#2A77BC" stroke-width="3.061" stroke-miterlimit="10" d="M137.198,812.49
		c0,0,9.525-16.393,17.046-22.811"/>
	<path fill="none" stroke="#2A77BC" stroke-width="3.061" stroke-miterlimit="10" d="M197.569,757.904
		c0,0-16.444,6.805-22.977,14.23"/>
</g>
<g>
	<path fill="none" stroke="#2A77BC" stroke-width="3.061" stroke-miterlimit="10" d="M252.628,799.949l185.158,214.721
		c0,0,18.127-4.459,36.998-20.93c18.869-16.473,22.584-31.434,22.584-31.434L312.562,746.02c0,0-18.527,17.867-31.809,30.004
		C267.474,788.164,252.628,799.949,252.628,799.949z"/>
	<polygon fill="none" stroke="#2A77BC" stroke-width="3.061" stroke-miterlimit="10" points="273.736,782.295 266.833,773.531 
		286.056,755.496 294.001,763.701 	"/>
	
		<line fill="none" stroke="#2A77BC" stroke-width="3.061" stroke-miterlimit="10" x1="277.974" y1="829.34" x2="337.896" y2="775.668"/>
	<path fill="none" stroke="#2A77BC" stroke-width="3.061" stroke-miterlimit="10" d="M252.628,799.949
		c0,0,9.525-16.393,17.045-22.813"/>
	<path fill="none" stroke="#2A77BC" stroke-width="3.061" stroke-miterlimit="10" d="M313,745.361c0,0-16.445,6.805-22.977,14.232"
		/>
</g>
<g>
	<path fill="none" stroke="#2A77BC" stroke-width="3.061" stroke-miterlimit="10" d="M367.244,781.039l185.16,214.721
		c0,0,18.125-4.459,36.996-20.93c18.869-16.473,22.584-31.434,22.584-31.434L427.179,727.109c0,0-18.527,17.867-31.811,30.004
		C382.091,769.254,367.244,781.039,367.244,781.039z"/>
	<polygon fill="none" stroke="#2A77BC" stroke-width="3.061" stroke-miterlimit="10" points="388.353,763.385 381.451,754.621 
		400.673,736.586 408.617,744.791 	"/>
	
		<line fill="none" stroke="#2A77BC" stroke-width="3.061" stroke-miterlimit="10" x1="392.591" y1="810.43" x2="452.511" y2="756.758"/>
	<path fill="none" stroke="#2A77BC" stroke-width="3.061" stroke-miterlimit="10" d="M367.244,781.039
		c0,0,9.525-16.393,17.047-22.813"/>
	<path fill="none" stroke="#2A77BC" stroke-width="3.061" stroke-miterlimit="10" d="M427.615,726.451
		c0,0-16.443,6.805-22.977,14.232"/>
</g>
<g>
	<path fill="none" stroke="#2A77BC" stroke-width="3.061" stroke-miterlimit="10" d="M482.675,768.496l185.158,214.721
		c0,0,18.127-4.459,36.998-20.93c18.869-16.471,22.584-31.432,22.584-31.432L542.609,714.568c0,0-18.527,17.865-31.809,30.004
		C497.521,756.711,482.675,768.496,482.675,768.496z"/>
	<polygon fill="none" stroke="#2A77BC" stroke-width="3.061" stroke-miterlimit="10" points="503.783,750.844 496.88,742.08 
		516.103,724.043 524.048,732.248 	"/>
	
		<line fill="none" stroke="#2A77BC" stroke-width="3.061" stroke-miterlimit="10" x1="508.021" y1="797.889" x2="567.943" y2="744.215"/>
	<path fill="none" stroke="#2A77BC" stroke-width="3.061" stroke-miterlimit="10" d="M482.675,768.496
		c0,0,9.525-16.393,17.045-22.811"/>
	<path fill="none" stroke="#2A77BC" stroke-width="3.061" stroke-miterlimit="10" d="M543.046,713.91c0,0-16.445,6.805-22.977,14.23
		"/>
</g>
</svg>
