<?xml version="1.0" encoding="utf-8"?>
<!-- Generator: Adobe Illustrator 16.0.0, SVG Export Plug-In . SVG Version: 6.00 Build 0)  -->
<!DOCTYPE svg PUBLIC "-//W3C//DTD SVG 1.1//EN" "http://www.w3.org/Graphics/SVG/1.1/DTD/svg11.dtd">
<svg version="1.1" id="Layer_1" xmlns="http://www.w3.org/2000/svg" xmlns:xlink="http://www.w3.org/1999/xlink" x="0px" y="0px"
	 width="829.793px" height="641.205px" viewBox="0 0 829.793 641.205" enable-background="new 0 0 829.793 641.205"
	 xml:space="preserve">
<path fill="#14384D" d="M154.625,386.287c-17.807-0.029-32.219,14.38-32.174,32.166c0.05,17.766,14.567,32.143,32.349,32.027
	c17.642-0.113,31.908-14.54,31.838-32.199C186.569,400.534,172.342,386.319,154.625,386.287 M155.635,448.045
	c-14.776-0.08-26.688-12.175-26.613-27.025c0.08-14.802,12.136-26.692,26.998-26.625c14.757,0.064,26.733,12.198,26.658,27.01
	C182.604,436.139,170.438,448.119,155.635,448.045"/>
<path fill="#14384D" d="M220.138,393.986c-14.545-0.09-26.473,11.665-26.585,26.201c-0.12,14.783,11.567,26.757,26.225,26.871
	c14.73,0.117,26.657-11.649,26.724-26.355C246.563,405.909,234.888,394.076,220.138,393.986 M217.618,443.275
	c-11.531,0.104-20.945-9.182-21.007-20.715c-0.061-11.605,9.152-20.917,20.73-20.947c11.532-0.03,20.914,9.313,20.904,20.821
	C238.24,433.79,228.955,443.172,217.618,443.275"/>
<path fill="#14384D" d="M160.291,405.178c-10.486,0.003-19.018,8.499-19.018,18.946c-0.004,10.404,8.592,19,19.013,19.011
	c10.461,0.01,18.927-8.487,18.933-19.003C179.219,413.591,170.817,405.175,160.291,405.178 M151.41,424.348
	c-2.971-0.066-5.53-2.807-5.37-5.739c0.154-2.896,2.684-5.241,5.585-5.189c3.08,0.056,5.426,2.577,5.296,5.703
	C156.801,422.053,154.306,424.417,151.41,424.348"/>
<path fill="#14384D" d="M214.605,409.77c-8.308-0.103-15.07,6.381-15.275,14.653c-0.206,8.142,6.525,15.103,14.725,15.222
	c8.313,0.124,15.033-6.354,15.203-14.668C229.433,416.689,222.862,409.873,214.605,409.77 M208.261,425.366
	c-2.73,0.104-4.946-2.044-4.926-4.778c0.021-2.622,2.077-4.669,4.704-4.689c2.597-0.016,4.731,2.041,4.792,4.616
	C212.888,423.086,210.831,425.265,208.261,425.366"/>
<path fill="#14384D" d="M312.124,561.706c-2.96-13.331-3.053-26.876-3.156-40.394c-0.313-40.934,0.303-81.86-0.18-122.798
	c-0.54-46.554-0.869-93.118-0.16-139.678c0.027-1.786,0.304-3.434,1.029-5.095c2.108-4.861,2.437-9.989,1.907-15.202
	c-0.555-5.422-2.874-9.594-7.542-12.82c-10.498-7.254-21.881-12.504-34.179-15.586c-26.39-6.616-53.268-9.482-80.44-8.868
	c-8.781,0.2-17.763-1.563-26.375,1.891c-1.393,0.556-3.141-0.39-3.989-1.778c-0.936-1.517,0.869-1.849,1.578-2.48
	c11.686-10.455,20-23.229,26.169-37.73c-2.673-0.37-4.154,1.077-5.445,2.918c-4.452,6.336-8.925,12.66-13.361,19.007
	c-1.261,1.802-2.762,3.31-4.916,4.573c-0.596-1.858,0.263-3.044,1.348-4.041c2.842-2.622,4.924-5.83,7.027-9.017
	c7.97-12.075,14.601-24.91,21.496-37.593c1.676-3.08,2.75-6.44,3.444-9.903c0.983-4.954,1.985-9.902,3.029-14.842
	c0.261-1.247,0.283-3.034,2.288-2.515c1.603,0.417,1.208,1.754,1.003,3.064c-0.458,2.988-1.153,5.977-0.792,9.538
	c1.475-1.445,1.994-2.905,2.308-4.337c4.586-20.938,3.779-41.619-3.188-61.954c-2.478-7.224-6.709-13.165-13.11-17.55
	c-2.933-2.013-5.855-4.036-8.829-5.98c-12.562-9.809-32.655-17.429-59.466-2.004c-0.006,0.003-0.012,0.007-0.018,0.01
	c-0.842,0.322-1.686,0.64-2.533,0.943c-0.641,0.23-1.186,0.636-1.22,1.288c-2.986,1.816-5.829,3.661-8.524,5.524
	c-1.731,0.381-3.211,1.518-4.683,2.972c-0.896,0.885-1.852,1.711-2.814,2.528c-4.496,3.5-8.512,7.019-12.115,10.483
	c-0.879-0.053-1.717,0.225-2.536,1.086c-0.873,0.917-1.378,1.904-1.493,2.946C65.079,77.687,59.634,94.332,59.634,94.332
	l0.001,0.004c-0.455,0.907-0.83,1.856-1.097,2.854c-1.481,5.493-3.753,10.683-5.969,15.904c-3.178,7.476-6.474,14.843-8.165,22.93
	c-3.568,17.012-6.92,33.951-5.697,51.51c1.163,16.676,5.075,32.349,14.807,46.231c0.895,1.274,1.784,2.686,0.731,4.266
	c-2.797,4.186-2.525,8.792-1.035,13.085c3.466,10.015,4.109,20.58,4.294,30.784c0.709,39.894,1.702,79.774,2.823,119.657
	c0.323,11.458,0.164,22.907-0.391,34.37c-0.386,7.931,0.241,15.905,0.395,23.861c0.591,30.074,1.296,60.144,3.358,90.16
	c0.365,5.305,0.247,10.496-0.52,15.741c-0.601,4.111-0.343,8.245,0.69,12.302c2.148,8.452,7.758,14.131,14.863,18.644
	c2.169,1.377,4.761,2.227,6.421,4.251c2.118,2.589,4.941,3.595,8,4.313c1.096,0.258,2.381,0.354,3.214,0.994
	c5.603,4.319,12.585,4.973,18.986,7.032c5.871,1.889,12.19,2.052,18.314,2.943c10.205,1.484,20.339,3.511,30.662,4.022
	c16.74,0.83,33.372,0.354,50.091-1.697c23.208-2.852,45.608-8.364,67.386-16.678c2.818-1.075,5.537-2.34,7.826-4.313
	c4.626-3.994,9.573-7.567,14.729-10.81c4.885-3.075,6.997-7.6,8.021-12.97C313.137,569.684,312.998,565.627,312.124,561.706
	 M251.586,271.992c7.476-2.47,15.239-3.264,23.018-3.953c0.236-0.021,0.504,0.275,1.567,0.907
	c-8.282,2.453-15.752,5.267-23.803,5.845c-1.008,0.072-1.882-0.194-2.051-1.359C250.177,272.517,250.851,272.235,251.586,271.992
	 M175.665,259.625c0.252-1.568,1.661-1.252,2.736-1.331c0.92-0.067,1.85-0.014,2.781-0.014v0.137c1.44,0,2.89-0.1,4.318,0.026
	c1.378,0.123,1.836,1.244,1.898,2.437c0.046,0.981-0.36,1.964-1.44,2.087c-2.853,0.319-5.763,0.761-8.452-0.753
	C176.503,261.65,175.455,260.954,175.665,259.625 M197.593,273.128c-8.967,2.21-17.074,2.948-26.148,0.405
	C180.374,270.854,188.508,271.016,197.593,273.128 M78.593,278.558c-0.488-1.381-0.786-3.031-0.493-4.445
	c0.545-2.609,5.079-5.666,7.753-5.601c4.041,0.239,7.912,1.326,11.758,2.471c3.264,0.968,6.519,1.984,9.928,2.195
	c1.913,0.118,1.789,1.208,1.13,2.21c-1.485,2.277-3.639,3.491-6.467,3.475c-6.905-0.041-13.809-0.004-20.719-0.025
	C80.475,278.834,78.732,278.945,78.593,278.558 M109.986,583.254c-0.38,2.41-2.293,2.241-4.108,2.146
	c-5.733-1.128-11.732-0.231-17.352-2.36c-2.534-0.955-5.223-1.604-5.188-5.146c0-0.375-0.549-0.811-0.924-1.121
	c-1.224-1.014-1.512-2.302-0.7-3.568c0.946-1.47,2.391-1.302,3.846-0.684c2.457,1.044,4.936,2.041,7.403,3.054
	c4.478,1.844,9.121,3.157,13.81,4.336C108.505,580.35,110.361,580.882,109.986,583.254 M252.414,427.957
	c0.134,4.624,2.175,7.934,6.601,9.914c3.918,1.753,4.983,4.307,4.345,8.578c-0.427,2.872-1.271,5.644-2.386,8.307
	c-1.763,4.199-4.041,5.389-8.58,4.696c-6.334-0.965-7.882-0.209-10.592,5.624c-0.868,1.862-2.266,3.48-2.586,5.595
	c-0.38,2.471,0.273,4.625,1.636,6.731c2.591,4.011,2.328,6.937-1.014,10.298c-2.03,2.041-4.272,3.918-6.616,5.586
	c-3.691,2.627-6.725,2.235-9.984-0.953c-4.489-4.39-4.705-4.376-10.273-1.25c-1.419,0.798-3.038,1.28-4.606,1.774
	c-2.967,0.937-4.334,2.978-4.406,6.003c-0.005,0.312,0.004,0.62,0,0.93c-0.129,7.654-2.355,9.932-10.078,9.926
	c-2.878,0-5.757-0.488-8.642-0.644c-1.377-0.07-2.051-0.848-2.498-1.948c-0.622-1.526-1.188-3.079-1.743-4.632
	c-1.635-4.561-3.26-5.63-8.19-5.441c-0.473,0.02-0.946-0.332-1.434-0.409c-5.712-0.896-8.591,0.499-11.533,5.561
	c-2.045,3.53-3.254,4.036-7.017,2.707c-2.622-0.927-5.198-1.995-7.789-3.013c-4.622-1.813-5.758-3.568-4.849-8.539
	c1.404-7.633-1.002-10.912-7.233-14.791c-2.972-1.852-6.067-2.006-9.481-0.886c-6.231,2.053-7.038,1.682-10.75-3.728
	c-1.398-2.035-2.447-4.309-3.804-6.373c-1.497-2.274-1.383-4.557,0.653-6.063c6.611-4.901,6.467-10.821,3.583-17.681
	c-1.578-3.764-2.797-5.192-6.9-5.438c-5.892-0.353-7.393-1.754-7.809-7.672c-0.222-3.186-0.433-6.385,0.211-9.572
	c0.632-3.162,2.518-4.813,5.681-5.189c7.151-0.855,7.609-1.288,9.469-8.346c0.345-1.293,0.813-2.551,1.153-3.847
	c0.981-3.821,0.288-5.702-2.89-8.011c-4.797-3.48-5.408-5.929-2.457-10.967c1.454-2.485,3.054-4.927,4.863-7.164
	c2.411-2.99,4.822-3.401,8.246-1.839c6.422,2.932,7.496,2.762,12.561-1.97c1.054-0.986,2.169-1.912,3.192-2.933
	c2.35-2.34,2.977-4.979,1.743-8.19c-2.267-5.895-1.296-8.038,4.494-10.671c2.256-1.021,4.503-2.068,6.792-3.013
	c3.666-1.509,6.041-0.761,8.215,2.535c0.848,1.29,1.537,2.698,2.453,3.938c1.316,1.784,3.135,2.726,5.393,2.315
	c3.043-0.55,6.076-1.164,9.089-1.849c3.064-0.696,4.699-2.807,5.342-5.778c1.681-7.721,2.236-8.309,9.979-6.899
	c2.654,0.483,5.373,1.188,7.98,2.01c3.964,1.256,4.077,4.74,4.025,8.153c-0.016,5.551,0.529,6.295,5.8,8.377
	c1.722,0.685,3.378,1.543,5.058,2.334c2.967,1.398,5.538,0.852,7.955-1.334c6.06-5.471,6.091-5.442,12.374-0.415
	c1.209,0.967,2.432,1.923,3.579,2.962c4.097,3.705,4.39,5.22,2.113,10.277c-3.26,7.227-1.841,12.587,4.39,17.49
	c2.313,1.819,4.853,1.979,7.584,1.948c6.154-0.063,6.622,0.321,8.565,6.178c1.013,3.041,1.558,6.191,2.216,9.317
	c0.37,1.753-0.242,2.773-1.589,3.613c-1.142,0.706-2.277,1.426-3.439,2.097C254.07,418.886,252.27,422.949,252.414,427.957
	 M266.717,277.503c1.115-0.28,2.031-1.689,3.604-0.522C269.185,278.205,267.91,277.629,266.717,277.503 M298.727,564.882
	c-5.275,4.874-10.967,9.044-18.123,10.745c-0.699,0.167-1.398,0.337-1.929,0.463c-1.717-0.104-2.724-0.883-2.986-2.392
	c-0.293-1.668,0.647-2.409,2.195-2.729c6.791-1.409,12.282-5.141,17.197-9.831c1.383-1.32,2.807-2.37,4.494-0.673
	C301.333,562.231,300.105,563.606,298.727,564.882"/>
<path fill="#14384D" d="M654.522,559.707c-0.75-0.936-0.951-2.982-3.057-1.893c-0.129,0.063-0.58-0.507-0.879-0.78
	c-0.453-1.066,0.049-2.289-0.104-3.224c-0.125-0.303-0.219-0.581-0.336-0.733c0.197,0.211,0.291,0.462,0.336,0.733
	c0.168,0.405,0.4,0.856,0.891,1.146c1.719-0.68,0.838-1.922,0.459-2.827c-1.645-3.892-2.221-8.071-3.162-12.123
	c-0.51-2.175,0.375-4.531-2.637-5.572c-1.055-0.361-0.742-1.995-0.469-2.836c1.449-4.46-4.252-7.352-2.516-11.832
	c0.021-0.048-0.785-0.277-0.977-0.57c-1.691-2.616-4.045-5.132-1.875-8.575c0.379-0.601,0.061-0.709-0.27-1.14
	c-1.859-2.408-2.854-5.134-2.598-8.233c0.063-0.767-0.008-1.486-1.09-1.445c-0.867,0.036-1.018,0.639-0.918,1.279
	c0.178,1.205-0.393,1.945-1.338,2.519c-0.563,0.343-0.689-0.188-0.869-0.479c-0.643-1.049-0.535-2.206-0.168-3.269
	c0.178-0.521,0.791-0.947,1.293-1.288c1.266-0.852,1.486-1.482,0.299-2.813c-1.383-1.543-2.467-3.473-1.922-5.771
	c0.145-0.611,1.373-1.082,0.549-1.756c-0.637-0.523-1.525-1.063-2.564-0.663c-0.826,0.315-1.518,1.085-2.305,0.904
	c-0.246-3.17-0.313-6.258-0.807-9.274c-0.219-1.361-0.344-2.272,0.797-3.252c1.02-0.867,2.248-2.082-0.43-2.521
	c-0.494-0.082-0.736-0.704-0.645-1.27c0.287-1.856-0.936-3.308-1.285-4.915c-0.598-2.71-2.674-4.677-2.771-7.724
	c-0.113-3.566-2.596-6.797-2.75-10.504c-0.063-1.508-2.016-1.021-2.16-2.624c-0.344-3.88-1.881-7.446-3.674-10.877
	c-1.383-2.644-2.943-5.179-3.867-8.07c-0.684-2.145-2.051-3.419-4.734-3.572c-3.766-0.217-7.461,0.536-11.215,0.229
	c-1.764-0.141-3.465,0.821-4.354,2.464c-1.857,3.429-3.881,6.739-4.914,10.615c-8.305,31.298-16.756,62.555-25.086,93.845
	c-1.963,7.372-4.791,14.6-5.553,22.186c-0.955,9.539-1.357,19.14-1.023,28.779c0.139,4.045,2.879,6.699,3.779,10.249
	c0.18,0.71,1.594,1.813,2.076,3.024c0.141,0.354,0.689,0.867,0.881,0.412c0.674-1.586,2.258-0.313,3.053-1.313
	c0.299,1.271-0.35,2.563,0.926,3.975c0.299-2.105,1.924-2.486,3.002-3.448c0.592,0.882-0.221,2.063,0.852,3.146
	c0.764-1.328,2.518-1.582,2.943-3.248c0.293-0.406,0.324-1.256,1.189-0.716c0.146,0.444,0.668,0.836,0.898,0.622
	c4.244-3.896,7.314-8.791,9.729-13.841c0.996-2.09,1.197-4.821,2.672-6.962c0.33-0.479,0.725-1.065,0.715-1.598
	c-0.02-1.425,1.125-7.327,1.301-8.324c0.438-2.535,3.297-2.298,4.406-4.148c0.627-1.049,1.271-3.641,3.646-1.554
	c0.518,0.455,0.621-0.457,0.848-0.879c0.334-0.622,0.627-0.707,1.305-0.036c1.789,1.765,3.918,1.408,5.23-0.646
	c1.209-1.894,3.111-1.964,4.123-0.057c0.463,0.87,0.863,0.94,1.676,0.594c1.418-0.604,2.879-1.104,4.324-1.647
	c0.271-1.048-0.582-0.992-1.193-1.192c-0.072-0.041-0.193,0.082-0.184-0.062c0-0.021,0.164-0.021,0.266-0.017
	c0.277,0.014,0.545,0.085,0.809,0.198c0.533,0.357,1.096,0.688,1.584,1.117c1.975,0.375,2.158-0.446,1.301-1.954
	c-0.824-1.433,0.307-2.375,1.213-2.184c1.367,0.293,2.863,0.624,3.896,2.059c1.898,2.624,1.609,5.89,2.68,8.527
	c3.484,8.58,5.549,17.757,10.404,25.741c0.604,0.992,0.301,4.83,3.482,2.169c2.184,1.896,2.41-0.034,2.703-1.758
	c1.758,2.688,3.209,2.857,3.887,0.394c1.547-5.622,6.422-8.567,9.646-12.805C656.633,572.212,657.409,563.306,654.522,559.707
	 M611.786,547.623c-0.355,0.014-0.93,0.066-0.822-0.499c0.082-0.448,0.375-1.066,0.727-1.199c0.621-0.229,0.574,0.605,0.889,0.883
	C612.87,547.648,612.243,547.602,611.786,547.623 M608.829,529.604c-3.865,0.615-7.752,1.085-11.633,1.599
	c-0.572,0.075-1.281,0.39-1.609-0.355c-0.145-0.319-0.113-0.985,0.098-1.149c3.203-2.431,1.096-6.181,2.258-9.147
	c0.439-1.128,0.258-2.653,0.719-3.894c2.016-5.381,2.135-11.205,4.041-17.344c1.543,3.545,3.213,6.416,4.051,9.516
	c1.369,5.051,3.826,9.635,5.574,14.511C613.817,527.494,613.098,528.918,608.829,529.604 M616.958,547.283
	c-0.592,0.452-1.182,0.242-1.572-0.283c-0.494-0.656,0.264-0.779,0.574-1.063c0.557-0.512,1.127-0.995,1.744-1.535
	C618.928,545.767,617.93,546.538,616.958,547.283 M635.266,505.516c-0.469,0.099-0.703-0.263-0.652-0.68
	c0.025-0.205,0.295-0.516,0.473-0.528c0.176-0.017,0.381,0.276,0.613,0.474C635.524,505.088,635.432,505.482,635.266,505.516
	 M637.262,514.497c-0.277-0.905-0.816-1.532-0.148-2.144c0.143-0.136,0.672-0.107,0.781,0.029
	C638.434,513.096,637.854,513.604,637.262,514.497 M639.946,524.816c-0.619-0.031-1.225,0.252-1.045-0.957
	c0.107-0.566,0.037-1.527,1.08-1.686c0.898-0.134,0.91,0.62,0.861,1.217C640.797,523.983,641.235,524.887,639.946,524.816
	 M644.614,538.946c-1.303-0.489-0.352,1.093-1.213,1.188c-0.48-1.659-0.951-3.22-1.385-4.797c-0.189-0.698-0.328-1.506,0.51-1.865
	c0.807-0.343,0.957,0.534,1.295,0.955c0.766,0.951,1.492,1.939,2.189,2.938c0.51,0.733,0.604,1.68,0.047,2.287
	C645.084,540.715,645.127,539.14,644.614,538.946 M646.346,541.479c1.795,2.077,1.795,2.077,2.346,6.983
	C645.899,546.512,646.299,544.07,646.346,541.479"/>
<path fill="#14384D" d="M773.993,572.753c0.771-2.633-1.027-1.965-2.34-2.184c-1.641-0.273-2.387-0.717-2.141-3.01
	c0.572-5.345,1.482-10.788,0.018-16.158c-0.451-1.651-0.633-3.201,0.135-4.818c0.287-0.597,0.59-1.264,0.287-2.065
	c-1.773-4.701-0.375-9.599-0.797-14.386c-0.041-0.463-0.164-1.099,0.568-1.217c0.705-0.112,0.893,0.396,0.871,0.935
	c-0.068,1.581,0.961,2.762,1.449,4.771c1.172-7.24-0.516-13.777-0.643-20.358c-0.076-3.964-2.406-7.947,0.926-11.627
	c0.064-0.073-0.252-0.438-0.305-0.682c-0.936-4.913-1.279-9.854,0.516-14.616c1.227-3.266-0.768-6.898,1.396-9.975
	c-2.041-4.652-0.385-9.541-0.904-14.292c-0.107-0.973,0.047-1.55,1.314-1.929c1.574-0.471,1.373-4.01-0.229-4.73
	c-0.639-0.281-1.051-0.437-1.096-1.176c-0.342-5.29,0.016-10.612,0.309-15.852c0.184-3.361-0.035-6.424-1.459-9.184
	c-0.777-1.501-1.455-4.215-4.727-3.229c-3.32,1-6.406-0.545-9.096-2.457c-2.035-1.449-6.371-1.184-7.229,0.888
	c-0.898,2.171-1.84,4.335-2.17,6.742c-2.82,20.56-5.859,41.094-6.518,61.887c-0.16,5.056-1.121,10.173-0.572,15.134
	c0.416,3.718-0.221,7.302,0.49,11.375c-1.41-1.179-0.953-2.424-1.477-3.422c-2.355-4.493-4.535-9.067-5.877-14.034
	c-0.387-1.435,0.932-2.556,0.063-3.801c-0.916-0.287-2.422,2.962-2.639-0.144c-0.129-1.906-0.277-3.01-1.691-4.589
	c-2.17-2.424-3.396-5.704-3.369-9.216c0.008-0.564,0.348-1.655-0.852-1.548c-0.324,0.026-0.586,0.699-1.254,1.568
	c0.938-4.093-3.959-6.391-2.852-8.797c1.596-3.471-1.26-5.299-1.787-7.606c-0.602-2.633-1.572-5.247-1.285-8.208
	c-3.473,1.278-2.838-2.449-4.58-3.373c-1.281-0.678,0.645-1.841,0.75-3.594c-1.939,0.756-2.232-0.251-2.873-1.801
	c-0.77-1.854,0.6-4.816-2.518-5.601c-0.051-0.014-0.051-0.367-0.02-0.553c0.555-3.455-2.133-5.54-3.824-7.717
	c-2.596-3.343-5.281-6.542-7.26-10.327c-1.543-2.944-4.998-3.961-7.723-2.326c-2.533,1.521-5.01,2.217-7.889,1.152
	c-0.703-0.263-1.711-0.818-2.357-0.155c-2.75,2.813-6.176,4.998-6.27,9.78c-0.873,44.841-1.973,89.683-2.77,134.527
	c-0.107,5.895,0.246,11.969,6.029,16.126c2.287,1.645,3.807,3.021,6.199,0.677c1.383-1.351,3.52,0.625,4.855-1.047
	c1.479,2.024,2.158,0.471,3.031-0.628c0.441-0.562,1.074-1.027,1.811-0.235c0.664,0.711,0.992,0.277,1.285-0.4
	c1.393-3.264,4.166-5.612,5.811-8.713c0.42-0.8,1.223-1.493,0.795-2.537c-1.428-3.495-0.486-7.156-0.738-10.734
	c-0.041-0.594-0.025-1.65,0.227-1.738c2.711-0.939,1.27-2.684,0.992-4.276c-0.334-1.917-0.662-3.943,0.207-5.748
	c0.688-1.438,2.508-2.405-0.568-3.532c-2.826-1.035,2.701-2.278,0.32-3.823c-0.082-0.056-0.15-0.143-0.232-0.203
	c-0.709-0.516-0.621-1.081-0.375-1.879c0.457-1.477,2.059-3.153-0.504-4.434c-0.303-0.15-0.324-1.942,0.098-2.304
	c2.182-1.85,0.541-4.024,0.727-6.016c0.098-1.018-0.791-1.829-0.678-2.955c0.492-4.818,1.021-9.633,0.82-14.496
	c-0.041-1.063-0.469-2.263,0.494-3.313c0.205,0.271,0.434,0.468,0.529,0.72c6.432,16.658,15.295,32.164,22.791,48.313
	c4.963,10.695,10.875,20.562,19.703,28.505c0.6,0.545,1.057,1.248,1.551,1.906c0.35,0.471,0.484,0.937,1.379,0.726
	c1.896-0.441,3.793,0.165,5.83-1c2.041-1.167,4.205-1.91,5.557-4.005c0.488-0.762,1.285-2.063,1.748-1.987
	c2.916,0.488,5.174-2.416,8.141-1.403c0.787,0.271,1.295-0.474,1.648-1.131c1.158-2.119,2.885-3.723,4.662-5.084
	C775.555,572.958,773.747,573.586,773.993,572.753 M724.307,492.229c-0.688-0.46-1.25-1.031-0.719-1.982
	c0.859,0.237,1.393,0.757,1.393,1.656C724.981,492.02,724.42,492.303,724.307,492.229 M738.235,520.888
	c-1.002-0.005-1.604-0.419-1.729-1.196c-0.113-0.7,0.494-1.181,1.09-1.252c0.926-0.114,1.137,0.673,1.244,1.399
	C738.924,520.409,738.713,520.831,738.235,520.888 M768.745,486.022c1.598,1.328,1.016,2.809,0.76,4.211
	C768.76,489.013,768.42,487.717,768.745,486.022 M766.118,453.335c0.492,0.032,0.76,0.32,0.684,0.782
	c-0.072,0.407-0.289,0.792-0.818,0.724c-0.482-0.063-0.643-0.422-0.709-0.85C765.35,453.515,765.633,453.301,766.118,453.335
	 M765.432,462.568c0.777-0.528,0.613,0.402,0.645,0.799c0.02,0.281-0.129,0.574-0.223,0.923
	C765.129,463.788,764.682,463.076,765.432,462.568 M765.618,478.567c1.08,2.732-0.771,5.218,0.006,7.717
	c0.061,0.208-0.412,0.673-0.721,0.893c-0.387,0.269-0.854,0.129-1.033-0.288c-0.734-1.692,0.318-3.756-1.172-5.439
	C762.487,481.216,764.305,479.412,765.618,478.567 M765.114,492.596c-0.299-1.06-0.598-2.118-0.895-3.177
	c0.268-0.085,0.529-0.171,0.795-0.256C765.719,490.148,765.756,491.281,765.114,492.596 M761.217,499.563
	c0.227-1.684-1.855-3.614,0.658-5.255c0.816,1.762-0.047,3.309-0.17,4.864C761.542,499.303,761.381,499.434,761.217,499.563
	 M762.096,475.591c0.848,0.077,0.684,0.847,0.709,1.433c-0.072,0.652,0.248,1.614-0.801,1.646c-1.102,0.03-0.793-0.956-0.797-1.59
	C761.202,476.438,760.944,475.485,762.096,475.591 M761.659,488.189c0.207,0.335,0.523,0.616,0.482,0.822
	c-0.275,1.314,0.791,2.879-0.688,3.942c-0.17,0.118-0.572-0.083-0.859-0.134C761.659,491.487,759.817,489.47,761.659,488.189
	 M761.731,501.053c0.395-0.216,0.785-0.435,1.178-0.651c0.229,0.171,0.457,0.343,0.684,0.513c0.055-0.48-0.156-0.742-0.631-0.785
	c0.021-0.102,0.049-0.201,0.061-0.305c0.76-0.212,0.949-1.337,2.416-1.198c-1.191,0.604,1.848,3.411-1.846,2.288
	c-1.301,0.922-1.295,2.644-2.242,3.874C759.838,503.264,760.768,502.155,761.731,501.053 M760.534,522.302
	c0-4.498-0.006-8.575,0-12.651c0-0.604-0.131-1.39,0.732-1.431c1.016-0.046,0.969,0.811,1.057,1.535
	c0.143,1.186-0.012,2.449,0.898,3.816c0.453-1.249,0.791-2.191,1.244-3.464c0.832,2.297,2.965,4.034,0.895,6.407
	c-0.34,0.154-0.605,0.018-0.865-0.146c0.084-0.192,0.17-0.386,0.254-0.579c0.037-0.575,0.195-1.403-0.715-1.214
	c-1.506,0.313-1.213,1.885-1.631,2.908c-0.455,1.121,0.482,1,1.193,0.922c0.088-0.202,0.18-0.404,0.27-0.606
	c0.172,0.185,0.303,0.393,0.41,0.618C763.963,520.402,762.434,521.182,760.534,522.302 M763.793,558.938
	c-0.094,0.094-0.695-0.071-0.793-0.256c-0.467-0.863,0.258-1.236,0.922-1.85C764.487,557.745,764.313,558.398,763.793,558.938
	 M765.977,554.117c-0.863-0.346-0.41-1.709-1.613-1.75c-0.271,1.021-0.551,2.066-1.021,3.844c-0.752-2.715-0.563-4.748-0.336-6.786
	c-0.391-1.453-0.785-2.901-1.176-4.354c-1.063-1.846-0.311-3.827-0.135-5.645c0.357-3.811-1.055-7.477-0.561-11.26
	c0.148-1.107-0.098-2.309,1.484-2.745c0.309,4.317,0.57,8.574,0.957,12.821c0.07,0.813-0.705,2.278,1.15,2.266
	c-0.129-2.424,1.348-4.707-0.293-7.37c-0.883-1.439-0.453-4.01,0.416-6c0.314-0.709,1.391-1.54-0.668-2.082
	c-1.131-0.298,0.174-2.509,0.154-3.876c-0.01-0.463,0.426-1.039,1.039-0.815c1.25,0.455,1.475,1.489,1.531,2.732
	c0.139,3.192,0.441,6.375,0.643,9.563c0.174,2.797,0.047,5.554-1.428,8.061c-0.275,0.552-0.637,0.897-1.227,0.707
	c0.012,0.058,0.021,0.112,0.031,0.17c0.154,0.1,0.221,0.213,0.186,0.336c-0.035,0.129-0.076,0.193-0.123,0.193
	c-0.68,1.189-1.354,2.38-2.029,3.567c2.82,0.755,0.328,2.485,0.678,3.693c1.691,0.472,2.438-1.118,3.688-1.995
	C767.977,550.088,766.887,552.069,765.977,554.117 M767.284,542.818c-0.148,0.325-1.414,1.533-1.83-0.217
	c0.211-0.754,0.521-1.445,1.125-1.975C768.276,540.861,767.606,542.091,767.284,542.818 M768.2,511.925
	c-1.561-0.157-0.531-1.886-1.051-2.628c-0.234-1.154,0.346-1.915,1.178-1.854c1.225,0.087,1.396,1.421,1.553,2.326
	C770.075,510.898,769.057,512.009,768.2,511.925"/>
<path fill="#14384D" d="M548.754,471.27c-0.617-0.065-0.889-0.378-0.926-0.985c-0.127-2.512,0.988-5.414-0.875-7.395
	c-1.248-1.332-0.836-3.789-2.447-4.126c-1.875-0.394-1.816-1.34-1.67-2.563c0.211-1.805-0.375-3.188-1.732-4.361
	c-0.605-0.516-1.275-1.058-1.361-1.986c-0.416-4.295-3.178-7.487-5.641-10.579c-4.949-6.226-11.291-10.856-18.85-13.557
	c-10.934-3.903-21.793-4.804-32.656,0.619c-6.299,3.146-11.232,8.014-16.803,12.082c-1.537,1.123-2.523,2.641-3.66,4.119
	c-6.221,8.13-8.02,17.98-10.48,27.479c-1.404,5.428-0.869,11.341-2.129,16.819c-2.365,10.257-1.82,20.702-2.744,31.043
	c-0.654,7.286,1.664,14.529,0.928,21.87c2.66,2.962,1.318,6.536,1.549,9.873c0.025,0.354,0.447,0.668,0.639,1.027
	c1.512,2.805,2.832,5.865,3.068,8.9c0.242,3.141,1.789,5.32,3.559,7.299c1.717,1.921,0.662,4.821,3.184,6.452
	c2.045,1.326,3.967,3.28,4.02,6.17c5.061,1.912,7.865,6.858,12.898,9.149c3.908,1.778,7.795,2.192,11.451,1.771
	c5.373-0.619,10.604-0.668,15.947-0.217c1.279,0.111,3.203-0.41,3.836-1.712c0.678-1.396,1.008-1.375,2.176-0.657
	c0.398,0.246,2.584,2.05,1.957-0.936c-0.057-0.268,0.482-0.956,0.627-0.923c1.928,0.447,3.27-1.332,5.254-1.181
	c2.408,0.181,5.24,1.065,7.09-1.646c0.125-0.18,0.627-0.298,0.818-0.192c2.961,1.615,3.891-1.464,5.727-2.444
	c-0.436-1.009-2.229,0.633-2.266-1.159c1.84-1.802,3.654-3.635,5.541-5.386c0.834-0.775,1.348-1.646,1.039-2.727
	c-0.703-2.472,0.447-4.994,2.863-5.29c2.996-0.369,1.625-1.593,0.734-2.76c-1.203-1.569,0.467-6.662,1.084-8.201
	c0.982-2.468,3.482-1.09,4.563-2.657c-0.979-0.616-4.211-0.516-0.781-2.474c0.365-0.21,0.406-1.365,0.277-2.021
	c-0.898-4.704-2.621-9.197-2.553-14.161c0.031-2.409-1.354-4.939-2.48-7.232c-0.73-1.487-1.82,0.967-2.873,0.23
	c-0.088-0.062-0.191-0.111-0.248-0.189c-1.125-1.557-1.984-0.642-2.906,0.27c-0.389,0.389-0.928,1.196-1.494,0.553
	c-1.229-1.407-2.617-0.431-3.924-0.469c-0.945-0.027-1.896,0.006-2.549-0.819c-1.102-1.392-2.416-1.429-3.08,0.097
	c-0.709,1.63-2.684-0.581-3.049,1.358c-0.34,1.812-1.82,3.654-1.939,5.012c-0.549,6.443-3.254,12.646-2.246,19.249
	c0.117,0.8,0.223,2.207-0.129,2.375c-2.732,1.337-2.357,4.167-3.189,6.342c-1.605,4.199-3.672,8.115-6.893,11.228
	c-1.84,1.772-4.939,0.302-7.053,1.979c-0.189,0.155-0.189-0.677-0.365-0.979c-0.875-1.499-1.619-3.131-2.775-4.381
	c-0.803-0.863-2.951-3.395-3.971-4.393c-2-1.963-0.27-4.985-2.6-6.935c-2.727-2.285-1.826-6.228-3.137-9.279
	c-0.658-1.528,0.299-3.697-2.387-4.183c-1.238-0.226-0.803-1.508-0.813-2.367c-0.031-4.134-0.15-8.279,0.051-12.402
	c0.092-1.871-1.305-3.336-2.051-3.935c-1.922-1.545-1.871-2.059,0.262-2.871c0.941-0.356,2.535-0.926,1.537-1.964
	c-1.639-1.717-0.453-2.352,0.479-3.499c0.551-0.683,1.518-1.56,0.52-3.059c-1.012,1.648-2.561,1.569-3.662,0.587
	c-0.914-0.816-0.846-2.695-0.127-3.42c2.057-2.061,2.025-4.503,2.078-7.046c0.023-1.097-1.482-1.636-0.809-3.005
	c0.895-1.809,1.928-3.757-0.598-5.314c-0.633-0.392-0.217-1.161,0.146-1.66c2.797-3.895-0.781-8.658,1.711-12.598
	c0.031-0.047-0.221-0.335-0.393-0.437c-1.746-1.051-0.852-2.303-0.184-3.427c0.713-1.19,1.131-2.372,1.043-3.786
	c-0.139-2.257-0.371-4.683,0.848-6.622c2.041-3.249-2.281-7.075,1.959-10.641c2.945-2.475,3.221-7.704,5.656-11.387
	c2.256-3.413,6.035-5.169,9.037-2.545c6.803,5.949,11.883,13.225,14.129,22.026c1.857,7.288,3.158,14.671,6.791,21.416
	c1.41,2.618,2.576,4.402,5.688,2.448c3.021-1.903,6.688-2.169,9.76-4.391c2.322-1.681,4.627-3.64,7.049-5.001
	c1.355,0.698-0.197,1.267,0.102,1.739c1.166,0.954,1.6-1.436,2.727-0.38c0.322,0.305-0.109,1.583,0.92,0.9
	c0.586-0.391,1.449-1.082,0.889-2.027c-0.514-0.876-0.574-1.686-0.088-2.912c1.363,2.262,2.51,0.935,2.9-0.304
	C550.78,474.023,552.168,471.65,548.754,471.27 M533.932,571.76c0.277,1.322-0.395,1.853-1.145,2.596
	C532.09,572.948,532.936,572.423,533.932,571.76 M487.711,575.066c1.08,0.98,1.09,1.865,1.227,2.903
	C486.668,577.694,487.348,576.508,487.711,575.066 M489.706,569.092c-1.293-0.226-1.834-1.303-2.965-2.129
	C488.973,566.47,490.379,566.517,489.706,569.092 M483.317,557.542L483.317,557.542c-0.031-0.634,0.225-1.133,1.021-1.792
	c0,1.436,0.566,2.612-0.441,3.724c-0.299,0.8-0.602,1.6-0.932,2.482C480.274,560.177,483.647,559.019,483.317,557.542
	 M484.725,571.813c0.547,0.646,1.285,1.44,0.828,2.168c-0.605,0.959,0.123,2.952-1.49,2.854c-1.238-0.077-1.367-1.598-0.945-2.755
	c0.533-1.48-1.389-0.987-1.451-1.876c-0.154-2.15-4.236-1.518-3.152-4.504c-5.158,1.298-2.229-3.806-4.074-5.167
	c-1.107-0.82-0.26-1.615,0.322-2.658C478.256,564.06,481.487,567.94,484.725,571.813"/>
<path fill="#14384D" d="M811.344,241.111c-1.049,4.216-3.084,8.221-2.523,12.781c0.164,1.342-2.012,0.695-2.195,2.401
	c-0.426,3.943-3.234,6.797-5.291,9.998c-1.094,1.709-2.299,2.12-4.318,1.956c-4.807-0.397-9.563-1.615-14.473-0.743
	c-1.975,0.349-2.395,1.2-2.504,3.025c-0.529,8.548-1.131,17.167-0.947,25.647c0.201,9.087-0.467,18.16,0.018,27.229
	c0.227,4.229-0.996,8.43-0.328,12.663c0.957,6.016,0.082,11.977-0.082,17.972c-0.1,3.583-1.559,7.301,0.199,11.176
	c0.967,2.119-0.992,4.964-0.879,7.727c0.148,3.615-0.607,7.268-0.941,10.905c-0.066,0.707-0.283,1.725,0.078,2.095
	c1.871,1.892,0.811,3.723,0.23,5.668c-0.643,2.157-1.777,4.265-0.006,6.617c0.658,0.875,0.775,2.62-0.092,3.849
	c-0.9,1.264-0.787,2.21,1.82,2.928c-3.039,0.575-3.799,1.876-4.434,3.66c-2.463,6.948-11.072,10.452-17.799,7.422
	c-0.098-0.044-0.189-0.15-0.271-0.14c-4.393,0.587-3.48-3.087-4.164-5.32c-2.814-9.187-3.143-18.562-2.768-28.141
	c0.771-19.611,1.344-39.252,1.25-58.875c-0.066-13.625,0.785-27.25-0.088-40.884c-0.271-4.267,0.768-8.614,1.207-12.925
	c0.064-0.614,0.182-1.223,0.229-1.84c0.189-2.487-0.279-4.186-3.471-3.684c-6.33,0.997-12.68,1.159-19.004-0.206
	c-2.514-0.542-5.094-0.851-7.529-1.622c-1.836-0.581-2.064-2.699-2.699-4.233c-0.557-1.332-1.807-2.237-0.539-4.528
	c1.762-3.182,3.859-6.888,2.488-11.035c-0.213-0.635-0.248-1.134,0.404-1.597c0.484-0.341,1.119-0.858,1.166-1.352
	c0.582-5.851,4.195-5.167,8.686-4.966c8.637,0.391,17.342,0.884,25.982-0.417c0.604-0.09,1.455-0.311,1.807-0.013
	c3.166,2.707,6.926,1.504,10.41,1.525c10.322,0.056,20.65-0.067,30.934,0.992c2.15,0.222,4.299,0.97,6.305,1.825
	c1.395,0.597,2.662,1.019,4.135,0.602v1.859H811.344z"/>
<path fill="#14384D" d="M392.583,463.794c0.128,5.361,0.951,10.833,0.149,16.052c-0.591,3.827,0.756,8.106-2.658,11.712
	c-2.431,2.565-5.264,2.277-7.82,2.478c-1.887,0.146-3.224-2.517-3.774-4.605c-0.385-1.479-0.503-3.069-0.472-4.606
	c0.416-19.519,0.868-39.038,1.346-58.559c0.114-4.764,1.137-5.753,5.779-6.028c0.489-0.027,1.008-0.244,1.429-0.502
	c2.38-1.443,3.738-0.236,5.044,1.697c2.658,3.948,5.774,7.609,7.054,12.372c0.107,0.406,1.501,0.719,2.021,1.476
	c0.313,0.601-0.17,1.428,0.55,1.908c-0.602,2.326,0.166,5.446,1.09,6.41c2.473,2.59,1.357,6.851,4.679,8.682
	c0.981,0.54,0.478,1.38,0.499,2.087c0.041,1.266,0.066,2.483,1.83,3.187c0.365-5.408,0.596-10.693,1.115-15.951
	c0.592-6.057,1.419-12.087,2.2-18.122c0.128-1.011,0.597-1.97,0.813-2.973c0.52-2.457,2.109-2.457,3.933-1.688
	c1.619,0.681,3.055,1.975,5.021,1.169c0.9-0.367,0.854,0.505,1.203,0.946c1.76,2.219,1.404,4.81,1.363,7.332
	c-0.035,2.003-0.592,3.974,0.664,5.912c0.822,1.265-1.014,2.465-0.777,3.684c1.061,5.553-0.328,11.121-0.564,16.57
	c-0.205,4.646,1.566,9.519-0.092,13.781c-2.025,5.219,0.045,10.295-0.846,15.354c-0.082,0.491-0.338,1.112,0.396,1.236
	c1.393,0.235,2.75,1.488,2.107,2.268c-0.951,1.151-1.584,3.116-3.465,3.213c-1.887,0.104-3.209,1.036-4.582,2.172
	c-3.073,2.537-4.385,2.235-7.187-0.475c-7.213-6.973-9.763-16.6-14.483-24.987c-0.91-1.608-1.645-3.315-2.458-4.979
	C392.151,461.877,393.462,463.517,392.583,463.794"/>
<path fill="#14384D" d="M372.697,446.998c0.447,7.745-0.961,14.947-0.473,22.15c0.448,6.608,0.232,13.202,0.309,19.803
	c0.046,4.289-0.592,4.804-4.864,5.054c-1.229,0.068-2.452,0.323-3.676,0.516c-4.545,0.724-7.342-1.55-7.481-6.136
	c-0.056-1.86,0.027-3.722-0.015-5.578c-0.257-11.75-0.539-23.511,0.283-35.238c0.545-7.736,0.673-15.462,0.761-23.205
	c0.052-4.566,1.234-5.622,5.778-6.054c1.43-0.136,2.937-0.005,4.278-0.411c2.952-0.887,3.563,0.707,3.83,3.074
	C372.415,429.793,373.736,438.592,372.697,446.998"/>
<path fill="#14384D" d="M626.737,330.553c-0.705-0.56-1.625,0.55-2.355-0.396c0.176-1.059,2.211-2.17,0.957-3.077
	c-2.223-1.604-0.781-2.655,0.029-3.951c0.35-0.558,1.229-1.688,0.75-1.681c-3.664,0.067-2.842-3.46-4.256-5.042
	c-1.049-0.098-0.598,2.039-2.066,1.239c-1.014-0.551-1.111-1.476-0.945-2.398c0.508-2.794-1.008-4.506-2.752-6.434
	c-2.189-2.417-5.424-2.502-7.84-4.252c-0.709-0.514-1.248-0.704-1.445-1.932c-0.514-3.224,3.615-5.742,1.203-9.126
	c-0.086-0.129,0.588-0.777,0.869-1.203c3.805-5.682,7.068-11.456,6.314-18.785c-0.18-1.771-0.5-3.611-0.473-5.467
	c0.086-6.152-0.15-12.292-2.443-18.462c-0.873,0.93-1.553,1.655-2.445,2.606c-0.797-1.778-0.891-3.01,0.514-4.159
	c1.225-1.002,1.465-2.342,0.016-3.304c-1.08-0.717-0.951-1.627-1.141-2.634c-0.305-1.625-1.281-3.671-2.938-3.185
	c-2.74,0.807-3.66-1.648-3.654-2.496c0.016-3.162-2.273-3.09-4.148-3.661c-0.576-0.175-1.322-0.079-1.672-0.617
	c-1.67-2.555-3.959-3.149-6.996-3.431c-7.811-0.731-15.492-2.649-23.414-2.512c-4.857,0.082-9.717,0.093-14.57-0.018
	c-2.463-0.057-4.785-0.234-5.439,2.941c-0.139,0.685-0.842,0.912-1.424,1.057c-2.107,0.527-3.049,2.118-4.098,3.85
	c-2.381,3.948-3.049,8.2-3.002,12.699c0.227,24.074,0.416,48.151,0.615,72.227c0.229,26.864,0.438,53.732,0.699,80.597
	c0.006,0.936-0.625,2.242,0.576,2.787c2.602,1.181,5.285,2.188,7.959,3.223c0.355,0.141,0.828,0.075,1.229,0
	c4.727-0.881,9.449-0.71,14.217-0.262c3.777,0.352,7.584,1.743,11.33,0.807c3.771-0.944,7.449-1.797,11.389-1.962
	c2.494-0.104,5.338-1.087,7.256-2.629c1.537-1.23,3.223-1.09,4.6-1.939c1.061-0.653,1.086,1.825,1.574,0.483
	c0.822-2.256,3.32-1.858,4.668-3.418c0.746-0.866,1.867-2.118,3.547-2.412c2.355-0.411,4.459-1.562,3.699-4.641
	c1.473-0.088,2.398,1.813,3.807,0.092c2.346-2.874,4.26-5.984,5.262-9.506c1.461-5.111,1.928-10.427,2.738-15.676
	c0.475-3.024,0.547-6.077,1.23-9.11c0.826-3.684,1.449-7.753,0.719-11.366c-0.967-4.776,0.52-8.781,1.867-12.999
	C626.938,330.757,627.014,330.64,626.737,330.553 M572.215,255.85c4.164-0.411,8.102,1.384,12.07,2.702
	c2.395,0.795,3.459,3.443,4.92,5.383c1.984,2.63,3.568,5.556,5.502,8.219c1.078,1.485,0.791,2.987-0.135,3.948
	c-2.52,2.625-2.73,5.994-3.455,9.2c-0.186,0.795-0.111,1.615-0.734,2.271c-5.521,5.832-11.49,10.95-19.625,12.811
	c-1.295,0.298-1.83,0.284-1.896-1.259c-0.596-12.782-1.326-25.557-1.871-38.344C566.784,255.859,566.959,255.85,572.215,255.85
	 M605.083,356.195c-0.881,1.78-1.883,3.43-1.533,5.494c0.254,1.486-1.207,2-1.619,2.93c-2.189,4.905-7.865,4.81-11.197,8.088
	c-0.771,0.76-3.131,0.92-4.699,0.94c-2.129,0.025-2.822,1.093-3.32,3.684c-0.627-2.63-1.461-2.82-3.074-1.745
	c-3.676,2.444-7.717,1.154-11.635,0.663c-1.115-0.139-1.723-0.684-0.822-1.871c0.277-0.371,0.479-0.964,0.406-1.404
	c-0.652-3.882,0.041-7.63,0.441-11.502c0.709-6.811,1.512-13.711,0.967-20.618c-0.189-2.371,0.914-4.671,0.299-7.064
	c-0.324-1.279,0.826-0.888,1.377-0.983c8.879-1.516,17.789-2.499,26.76-0.807c3.42,0.647,5.832,2.807,7.553,5.748
	c0.516,0.879,0.617,2.02,1.209,2.828C610.243,346.116,607.545,351.185,605.083,356.195"/>
<path fill="#14384D" d="M433.456,385.816c-0.545,0.252-0.904,1.063-1.727,0.492c-2.699-1.87-4.021-1.753-6.088,0.703
	c-1.033,1.226-2.035,1.186-3.332,0.244c0.582-0.442,1.137-0.865,2.063-1.565c-6.576-1.927-11.527-5.567-15.973-10.068
	c-2.54-2.573-3.615-8.874-1.579-11.087c-0.21-1.625-1.46-0.725-2.231-0.861c-1.244-0.231-1.45,1.321-2.324,1.817
	c-0.673-1.423,1.265-1.658,0.905-2.798c-1.049-0.279-1.101-2.302-2.601-1.649c-3.097,1.339-1.595-1.293-1.518-1.983
	c0.088-0.801,1.085-1.464,1.485-2.286c0.561-1.151,1.78-2.899,0.982-3.563c-1.655-1.386-1.486,1.608-2.756,1.751
	c-0.18,0.021-0.359,0.06-0.55,0.094c-1.871-3.313,1.054-7.266-1.404-10.546c-0.75,1.038-2.045,1.462-2.407,2.895
	c-0.209,0.847-1.557,0.729-1.557,0.009c-0.015-1.82-1.578-2.946-1.774-4.442c-0.256-1.975-1.357-4.249,1.682-5.732
	c2.19-1.068,4.482-0.934,6.565-1.146c2.94-0.304,4.843-4.298,8.4-2.063c0.776,0.484,0.977-1.117,0.992-1.83
	c0.036-1.841,1.147-3.134,2.591-3.471c1.902-0.441,2.946-1.805,4.154-2.918c6.088-5.606,8.803-12.514,8.16-20.885
	c-0.23-3.034,0.621-6.047,3.666-7.98c1.109-0.707,1.074-3.535,0.775-3.573c-2.391-0.309-1.248-1.81-1.027-2.751
	c0.406-1.696,1.383-3.29,1.578-4.986c0.262-2.26,2.051-4.581,0.289-6.836c-1.221-1.55-2.012-2.92-0.777-4.859
	c0.375-0.588,0.857-2.028,0.205-2.238c-2.186-0.71-1.084-2.505-1.563-3.746c-0.686-1.781,0.803-4.567-2.412-5.216
	c-0.104-0.018-0.051-0.761-0.076-1.167c0.551-0.781,1.938-1.413,0.617-2.576c-0.896-0.781-1.609-0.558-1.889,0.664
	c-1.242-1.738-1.115-2.975,0.547-3.646c1.063-0.429,0.715-1.505,0.426-1.578c-2.904-0.707-1.881-3.167-1.918-4.774
	c-0.057-2.375-1.064-4.115-2.813-5.164c-3.496-2.098-5.72-5.686-10.076-7.074c-2.154-0.684-4.776-2.216-7.121-3.44
	c-2.61-1.362-5.517-2.553-8.406-2.913c-13.28-1.652-26.596-0.377-39.896-0.104c-1.095,0.02-2.555,0.22-2.663,1.133
	c-0.345,3.01-2.483,3.624-4.776,4.054c-1.923,0.358-2.54,1.309-2.808,3.28c-0.74,5.383-0.524,10.72,0.031,16.069
	c0.777,7.535-0.884,14.997-0.318,22.583c1.012,13.688,2.323,27.392,1.635,41.166c-0.314,6.293-0.356,12.602-0.608,18.898
	c-0.252,6.228,0.006,12.457-0.123,18.687c-0.293,14.312,0.15,28.663,1.641,42.963c0.441,4.263,1.84,7.936,3.47,11.702
	c0.54,1.244,1.208,1.008,2.344,0.987c1.856-0.031,2.709-1.743,4.324-1.957c4.766-0.63,8.864-2.853,12.76-5.485
	c0.69-0.465,1.208-1.01,2.134-0.978c2.843,0.107,2.098-2.942,1.769-3.318c-1.707-1.964-0.91-3.578,0.195-5.192
	c-0.72-0.951-1.943,0.093-2.725-1.321c3.049-0.973,2.92-3.61,2.073-5.712c-0.921-2.27-1.065-4.432-1.039-6.748
	c0.031-3.098,0.381-6.278-0.216-9.267c-0.525-2.641,2.894-5.52-0.561-7.872c-0.097-0.065,0.252-0.734,0.325-1.136
	c0.092-0.486,0.323-1.29,0.123-1.43c-2.982-2.079-0.226-3.671,0.288-5.619c6.061,6.194,10.868,12.887,13.501,21.054
	c1.794,5.573,3.516,11.188,6.833,16.164c1.691,2.548,3.768,4.679,5.814,6.896c2.509,2.718,5.312,4.962,8.411,6.994
	c4.051,2.653,8.427,2.017,12.786,2.176c2.633,0.098,4.459-1.063,6.141-2.927c2.193-2.437,3.279-5.416,4.58-8.334
	c1.984-4.445,4.186-8.799,6.576-13.783C434.516,385.282,433.995,385.566,433.456,385.816 M421.827,305.435
	c0.686,0.071,0.613,0.543,0.602,0.898c-0.01,0.236-0.217,0.468-0.334,0.699c-0.199-0.31-0.479-0.6-0.576-0.938
	C421.467,305.911,421.725,305.639,421.827,305.435 M366.444,385.038c-0.133,0.02-0.272,0.041-0.406,0.059
	c-0.087-0.781-0.175-1.567-0.262-2.349c0.221,0.021,0.448,0.046,0.668,0.068V385.038z M369.124,313.906
	c2.15-1.491,1.075-3.154,0.905-4.92c-0.93-9.398-3.259-18.699-1.922-28.272c0.858-6.116-0.725-12.128-1.208-18.19
	c-0.068-0.819-0.279-1.65-0.216-2.457c0.164-2.211,0.668-3.713,3.65-3.472c5.238,0.42,10.514,0.115,15.783,0.487
	c6.211,0.44,10.945,3.33,14.952,7.674c3.16,3.429,3.346,8.154,4.327,12.375c1.615,6.902,2.704,13.943,2.823,21.087
	c0.021,1.524-0.392,2.463-1.558,3.596c-5.646,5.46-12.74,7.421-20.102,8.861C380.835,311.793,375.005,312.323,369.124,313.906
	 M407.895,384.681c2.082-0.89,2.262,0.632,2.997,1.283C409.616,386.174,409.035,385.287,407.895,384.681 M417.715,386.285
	c-0.365-0.053-0.916-0.157-1.016-0.396c-0.146-0.366,0.141-0.821,0.66-0.675c0.363,0.104,0.678,0.4,1.191,0.725
	C418.155,386.115,417.918,386.313,417.715,386.285"/>
<path fill="#14384D" d="M723.819,333.297c1.074-2.335,1.352-4.666,1.496-7.167c0.111-2.029-1.238-3.854-0.863-5.651
	c1.408-6.747-0.32-13.456,0.107-20.168c0.23-3.697-0.98-7.206-1.146-10.85c-0.148-3.383-2.529-6.293-2.164-9.874
	c0.092-0.898,0.709-1.646,0.256-2.838c-1.895-5.006-3.109-10.285-5.223-15.185c-3.939-9.126-8.744-17.727-17.5-23.318
	c-3.084-1.972-6.324-2.857-9.959-2.244c-3.939,0.66-7.922,1.249-11.834,1.798c-6.512,0.921-11.479,3.466-15.936,8.232
	c-9.475,10.136-16.939,21.197-21.166,34.668c-3.859,12.282-5.156,24.673-5.521,37.398c-0.475,16.499,1.197,32.824,3.469,49.074
	c1.359,9.748,3.168,19.596,8.17,28.365c2.047,3.575,4.457,7.014,8.217,9.023c5.102,2.73,10.867,3.486,16.35,5.044
	c3.182,0.904,6.445,2.181,10.047,1.477c3.707,0.614,7.355-0.448,10.863-1.604c3.672-1.205,7.648-2.296,9.547-6.34
	c0.17-0.357,0.469-0.727,0.807-0.927c4.566-2.725,5.506-7.946,8.047-12.018c2.063-3.313,3.271-7.244,4.352-11.047
	c0.432-1.523,2.439-0.945,2.35-2.747c-0.248-4.752,2.035-8.979,2.992-13.48c0.594-2.792,1.994-5.284,2.023-8.391
	c0.035-3.426-0.926-7.403,2.117-10.403c0.551-0.548,0.027-1.591,0.068-2.373C723.944,338.919,722.575,336.004,723.819,333.297
	 M700.022,350.36c-0.457,6.378-1.592,12.712-1.344,19.139c0.059,1.455-0.416,2.549-1.367,3.606c-1.59,1.764-3.172,3.55-4.586,5.45
	c-3.32,4.479-8.334,5.695-13.279,6.164c-6.982,0.663-6.932,0.258-9.521-6.162c-1.557-3.856-2.746-7.714-2.705-11.94
	c0.059-5.789-0.955-11.576-1.959-17.172c-1.094-6.123-0.92-12.339-2.27-18.39c-0.781-3.479,0.184-6.985,0.184-10.487
	c0-14.229,2.668-28.117,5.629-41.945c0.855-3.987,2.229-7.826,4.668-11.306c2.055-2.923,3.387-6.352,5.039-9.55
	c1.127-2.169,3.441-2.544,5.193-0.786c4.801,4.817,8.293,10.385,10.477,16.897c5.08,15.12,6.33,30.842,7.848,46.536
	C702.813,330.502,700.741,340.388,700.022,350.36"/>
<path fill="#14384D" d="M525.86,333.428c1.229-2.4,1.42-4.854,1.594-7.455c0.135-2.041-1.301-3.772-0.896-5.654
	c1.549-7.249-0.035-14.483-0.027-21.714c0-4.702-0.447-9.555-2.352-14.038c-0.535-1.263-0.961-2.545-0.678-3.877
	c0.568-2.699-0.412-5.09-1.219-7.553c-2.682-8.221-4.986-16.564-10.293-23.685c-1.045-1.401-2.598-2.234-3.395-3.826
	c-3.178-6.338-10.971-10.449-18.105-9.549c-3.857,0.486-7.713,1.211-11.527,1.765c-6.258,0.908-11.105,3.25-15.455,7.857
	c-9.744,10.328-17.891,21.472-21.484,35.487c-1.203,4.684-3.568,9.2-4,13.923c-0.857,9.329-2.371,18.668-1.367,26.978
	c-0.689,16.896,1.521,32.457,3.84,47.967c1.291,8.629,3.027,17.292,7.42,25.069c2.139,3.795,4.838,7.076,8.508,9.604
	c3.387,2.338,7.445,2.065,11.094,3.397c8.34,3.049,16.941,4.577,25.646,1.507c3.537-1.244,7.563-1.93,9.496-5.889
	c0.262-0.543,0.693-1.09,1.191-1.412c4.586-2.977,5.83-8.22,8.328-12.555c1.914-3.313,3.158-7.071,4.248-10.767
	c0.432-1.457,2.432-0.851,2.309-2.764c-0.293-4.632,1.984-8.779,2.916-13.182c0.611-2.898,2.07-5.475,2.082-8.688
	c0.016-3.428-0.887-7.396,2.154-10.396c0.502-0.497-0.154-1.664-0.031-2.346C526.344,338.864,524.518,336.055,525.86,333.428
	 M502.159,350.518c-0.596,6.268-1.588,12.509-1.33,18.827c0.064,1.577-0.439,2.77-1.486,3.882c-1.064,1.125-2.115,2.284-2.998,3.551
	c-5.059,7.225-12.504,8.295-20.494,8.099c-1.377-0.036-1.607-0.883-2.051-1.853c-2.924-6.444-4.816-13.098-4.816-20.26
	c0.006-4.533-0.586-9.185-1.531-13.476c-3.449-15.606-2.529-31.229-0.91-46.791c1.039-10,2.793-20.082,6.135-29.598
	c1.973-5.64,5.834-10.601,8.539-16.046c0.857-1.722,3.15-1.309,4.494,0.026c4.74,4.709,8.205,10.19,10.502,16.539
	c3.48,9.604,4.529,19.653,6.205,29.606c1.234,7.36,1.393,14.789,2.021,23.57C503.762,333.671,502.956,342.092,502.159,350.518"/>
<path fill="#14384D" d="M407.01,569.531c-3.285-4.675-3.413-10.29-5.254-15.35c-1.101-3.008-2.036-6.474-2.91-9.649
	c-1.032-3.779-1.337-8.441-4.956-11.418c-0.493-0.407-0.947-2.255-0.005-3.415c0.411-0.514,0.581-1.135,0.236-1.716
	c-3.542-6.007-4.267-13.104-7.63-19.24c-1.537-2.813-3.09-3.665-5.994-3.254c-4.499,0.632-5.707,1.635-7.039,6.604
	c-3.367,12.54-6.596,25.117-10.087,37.621c-2.504,8.967-4.894,17.909-4.139,27.353c0.207,2.608,1.059,5.059,2.931,6.797
	c0.869,0.813,2.334,1.025,2.843,2.492c0.37-0.41,0.587-0.775,0.91-0.986c5.131-3.32,8.858-7.537,9.337-14.003
	c0.107-1.452,0.977-2.938,2.17-3.621c1.763-1.01,4.03-0.945,5.969-1.184c1.588-0.189,3.66-0.158,4.642-0.93
	c2.534-1.99,2.35,0.528,2.534,1.392c1.024,4.637,2.756,8.988,4.89,13.191c1.156,2.273,4.252,2.443,5.501,0.188
	c1.018-1.826,2.504-3.163,3.717-4.744C405.992,573.946,408.414,571.524,407.01,569.531 M382.876,553.427
	c-2.581,0.94-3.342,0.085-2.925-2.698c0.421-2.818,1.676-5.413,2.2-8.411c1.193,3.098,2.627,6.133,3.496,9.32
	C386.254,553.873,383.916,553.046,382.876,553.427"/>
</svg>
