<?xml version="1.0" encoding="utf-8"?>
<!-- Generator: Adobe Illustrator 16.0.0, SVG Export Plug-In . SVG Version: 6.00 Build 0)  -->
<!DOCTYPE svg PUBLIC "-//W3C//DTD SVG 1.1//EN" "http://www.w3.org/Graphics/SVG/1.1/DTD/svg11.dtd">
<svg version="1.1" id="Layer_1" xmlns="http://www.w3.org/2000/svg" xmlns:xlink="http://www.w3.org/1999/xlink" x="0px" y="0px"
	 width="148px" height="28px" viewBox="0 0 148 28" enable-background="new 0 0 148 28" xml:space="preserve">
<g>
	<defs>
		<rect id="SVGID_1_" width="148" height="28"/>
	</defs>
	<clipPath id="SVGID_2_">
		<use xlink:href="#SVGID_1_"  overflow="visible"/>
	</clipPath>
	<path clip-path="url(#SVGID_2_)" fill-rule="evenodd" clip-rule="evenodd" fill="#15394C" d="M127.44,19.455
		c0.28,0.321,0.28,0.321,0.365,1.08C127.371,20.234,127.433,19.856,127.44,19.455 M127.17,19.064
		c-0.203-0.077-0.054,0.169-0.188,0.185c-0.074-0.258-0.148-0.501-0.216-0.743c-0.03-0.108-0.051-0.233,0.079-0.289
		c0.125-0.053,0.149,0.082,0.202,0.147c0.12,0.148,0.232,0.3,0.341,0.454c0.079,0.114,0.094,0.26,0.008,0.354
		C127.244,19.337,127.251,19.094,127.17,19.064 M126.443,16.876c-0.097-0.003-0.191,0.041-0.164-0.146
		c0.018-0.087,0.006-0.236,0.169-0.262c0.141-0.02,0.142,0.097,0.135,0.189C126.575,16.748,126.643,16.889,126.443,16.876
		 M126.024,15.28c-0.043-0.141-0.127-0.235-0.023-0.331c0.022-0.021,0.104-0.017,0.123,0.004
		C126.208,15.064,126.117,15.143,126.024,15.28 M125.714,13.891c-0.074,0.016-0.11-0.039-0.102-0.105
		c0.003-0.031,0.045-0.079,0.072-0.081c0.028-0.002,0.06,0.043,0.096,0.072C125.753,13.824,125.739,13.886,125.714,13.891
		 M122.86,20.354c-0.093,0.069-0.185,0.038-0.246-0.044c-0.076-0.102,0.041-0.12,0.089-0.165c0.088-0.078,0.176-0.153,0.272-0.236
		C123.166,20.118,123.011,20.238,122.86,20.354 M121.592,17.617c-0.603,0.097-1.209,0.169-1.813,0.248
		c-0.089,0.013-0.198,0.06-0.251-0.055c-0.022-0.051-0.018-0.153,0.016-0.179c0.5-0.376,0.17-0.955,0.352-1.415
		c0.068-0.174,0.04-0.411,0.111-0.603c0.315-0.833,0.334-1.734,0.631-2.683c0.241,0.548,0.501,0.992,0.631,1.472
		c0.214,0.78,0.598,1.491,0.869,2.245C122.37,17.291,122.258,17.513,121.592,17.617 M122.053,20.405
		c-0.056,0.003-0.145,0.012-0.127-0.076c0.012-0.07,0.06-0.166,0.111-0.186c0.098-0.036,0.09,0.094,0.14,0.136
		C122.222,20.41,122.123,20.402,122.053,20.405 M128.714,22.275c-0.116-0.146-0.147-0.461-0.476-0.292
		c-0.02,0.01-0.09-0.079-0.137-0.122c-0.07-0.163,0.008-0.354-0.017-0.498c-0.02-0.047-0.034-0.09-0.053-0.113
		c0.03,0.032,0.045,0.071,0.053,0.113c0.025,0.063,0.063,0.133,0.14,0.178c0.267-0.105,0.13-0.297,0.07-0.438
		c-0.257-0.603-0.346-1.249-0.493-1.876c-0.078-0.337,0.059-0.702-0.411-0.862c-0.163-0.056-0.113-0.308-0.071-0.439
		c0.226-0.688-0.664-1.138-0.394-1.83c0.003-0.007-0.121-0.043-0.152-0.088c-0.263-0.405-0.63-0.793-0.292-1.327
		c0.06-0.092,0.01-0.109-0.041-0.176c-0.289-0.373-0.446-0.793-0.404-1.274c0.009-0.119-0.002-0.23-0.171-0.224
		c-0.135,0.007-0.158,0.099-0.144,0.199c0.028,0.186-0.06,0.3-0.208,0.389c-0.087,0.053-0.107-0.028-0.135-0.074
		c-0.101-0.163-0.084-0.342-0.027-0.506c0.028-0.08,0.124-0.147,0.202-0.199c0.197-0.131,0.231-0.23,0.046-0.435
		c-0.214-0.239-0.385-0.536-0.299-0.893c0.021-0.095,0.214-0.168,0.086-0.272c-0.1-0.081-0.239-0.164-0.401-0.102
		c-0.128,0.048-0.236,0.168-0.358,0.14c-0.038-0.491-0.05-0.968-0.126-1.435c-0.034-0.212-0.054-0.351,0.124-0.503
		c0.159-0.134,0.352-0.322-0.066-0.391c-0.077-0.012-0.114-0.108-0.101-0.195c0.046-0.287-0.146-0.513-0.201-0.762
		c-0.093-0.419-0.416-0.723-0.431-1.195c-0.018-0.551-0.405-1.051-0.429-1.624c-0.01-0.234-0.313-0.158-0.337-0.406
		c-0.055-0.601-0.293-1.153-0.572-1.683c-0.217-0.409-0.459-0.803-0.604-1.249c-0.106-0.332-0.319-0.529-0.738-0.553
		c-0.587-0.034-1.161,0.082-1.747,0.035c-0.275-0.022-0.54,0.128-0.68,0.382c-0.289,0.53-0.604,1.042-0.766,1.642
		c-1.295,4.842-2.612,9.678-3.911,14.52c-0.306,1.141-0.746,2.26-0.865,3.433c-0.148,1.477-0.212,2.962-0.16,4.453
		c0.022,0.626,0.449,1.037,0.589,1.586c0.029,0.11,0.249,0.279,0.324,0.469c0.022,0.055,0.108,0.134,0.138,0.063
		c0.104-0.245,0.352-0.048,0.476-0.204c0.047,0.197-0.054,0.397,0.145,0.615c0.047-0.325,0.3-0.385,0.469-0.533
		c0.092,0.137-0.034,0.318,0.132,0.487c0.119-0.206,0.392-0.245,0.459-0.502c0.046-0.063,0.051-0.195,0.185-0.112
		c0.023,0.069,0.105,0.13,0.141,0.097c0.662-0.604,1.141-1.36,1.517-2.141c0.155-0.324,0.187-0.747,0.417-1.078
		c0.051-0.074,0.112-0.165,0.11-0.246c-0.002-0.221,0.176-1.134,0.204-1.289c0.068-0.393,0.514-0.355,0.686-0.642
		c0.099-0.162,0.199-0.563,0.569-0.241c0.081,0.071,0.098-0.07,0.132-0.135c0.053-0.097,0.098-0.109,0.204-0.007
		c0.277,0.273,0.61,0.221,0.814-0.1c0.189-0.293,0.485-0.304,0.644-0.008c0.071,0.134,0.135,0.144,0.261,0.091
		c0.221-0.093,0.448-0.171,0.674-0.255c0.043-0.161-0.09-0.152-0.186-0.185c-0.012-0.007-0.031,0.014-0.03-0.01
		c0-0.002,0.026-0.002,0.042-0.001c0.043,0.001,0.085,0.012,0.127,0.029c0.083,0.056,0.171,0.107,0.246,0.174
		c0.309,0.058,0.337-0.069,0.203-0.302c-0.127-0.222,0.049-0.367,0.189-0.339c0.214,0.046,0.445,0.097,0.607,0.319
		c0.296,0.405,0.25,0.91,0.416,1.318c0.545,1.328,0.866,2.747,1.623,3.983c0.095,0.153,0.047,0.748,0.542,0.335
		c0.342,0.294,0.377-0.005,0.422-0.271c0.274,0.417,0.5,0.442,0.606,0.061c0.241-0.87,1-1.326,1.503-1.981
		C129.044,24.211,129.166,22.832,128.714,22.275"/>
	<path clip-path="url(#SVGID_2_)" fill-rule="evenodd" clip-rule="evenodd" fill="#15394C" d="M146.824,14.616
		c-0.24-0.022-0.081-0.286-0.16-0.396c-0.037-0.176,0.052-0.292,0.181-0.281c0.188,0.014,0.215,0.214,0.237,0.352
		C147.113,14.46,146.956,14.629,146.824,14.616 M146.684,19.291c-0.021,0.049-0.217,0.232-0.281-0.031
		c0.033-0.115,0.083-0.22,0.172-0.3C146.837,18.995,146.734,19.182,146.684,19.291 M146.485,21.001
		c-0.135-0.053-0.065-0.259-0.25-0.266c-0.042,0.156-0.083,0.313-0.157,0.583c-0.115-0.412-0.086-0.719-0.051-1.027
		c-0.061-0.221-0.121-0.439-0.182-0.658c-0.163-0.279-0.046-0.579-0.021-0.854c0.056-0.576-0.161-1.132-0.086-1.704
		c0.023-0.167-0.015-0.35,0.229-0.416c0.047,0.654,0.088,1.298,0.147,1.94c0.01,0.124-0.109,0.345,0.177,0.343
		c-0.021-0.367,0.206-0.712-0.045-1.115c-0.137-0.218-0.071-0.605,0.063-0.908c0.049-0.106,0.213-0.231-0.103-0.314
		c-0.175-0.045,0.027-0.38,0.023-0.587c-0.002-0.069,0.065-0.157,0.16-0.123c0.19,0.068,0.227,0.226,0.234,0.413
		c0.021,0.483,0.068,0.966,0.099,1.448c0.027,0.423,0.008,0.84-0.22,1.219c-0.041,0.083-0.097,0.136-0.187,0.107
		c0,0.008,0.003,0.017,0.004,0.026c0.023,0.014,0.033,0.031,0.028,0.05c-0.005,0.02-0.011,0.029-0.019,0.029
		c-0.104,0.181-0.208,0.36-0.312,0.54c0.433,0.114,0.05,0.376,0.104,0.559c0.26,0.072,0.374-0.168,0.566-0.302
		C146.79,20.392,146.623,20.69,146.485,21.001 M146.147,21.73c-0.014,0.015-0.106-0.011-0.12-0.039
		c-0.073-0.13,0.039-0.187,0.14-0.28C146.255,21.551,146.228,21.649,146.147,21.73 M145.646,16.187c0-0.682-0.001-1.297,0-1.913
		c0-0.093-0.02-0.212,0.112-0.217c0.157-0.009,0.149,0.122,0.164,0.23c0.021,0.181-0.003,0.371,0.138,0.577
		c0.068-0.187,0.121-0.33,0.19-0.523c0.129,0.349,0.456,0.61,0.138,0.969c-0.053,0.025-0.093,0.004-0.133-0.021
		c0.013-0.027,0.026-0.058,0.039-0.086c0.005-0.087,0.029-0.213-0.11-0.185c-0.231,0.048-0.186,0.286-0.25,0.439
		c-0.071,0.17,0.074,0.152,0.184,0.141c0.013-0.03,0.027-0.063,0.041-0.093c0.025,0.027,0.046,0.061,0.063,0.094
		C146.173,15.899,145.939,16.017,145.646,16.187 M145.831,12.971c0.061-0.032,0.121-0.067,0.181-0.098
		c0.036,0.024,0.069,0.051,0.105,0.077c0.008-0.073-0.023-0.113-0.097-0.119c0.003-0.015,0.008-0.031,0.01-0.047
		c0.115-0.03,0.145-0.202,0.371-0.181c-0.185,0.092,0.282,0.516-0.284,0.347c-0.2,0.139-0.199,0.4-0.345,0.585
		C145.54,13.305,145.683,13.137,145.831,12.971 M145.82,11.024c0.03,0.051,0.079,0.093,0.074,0.126
		c-0.044,0.198,0.121,0.434-0.106,0.595c-0.025,0.018-0.087-0.013-0.132-0.019C145.82,11.523,145.537,11.218,145.82,11.024
		 M145.888,9.118c0.13,0.012,0.104,0.128,0.107,0.217c-0.01,0.098,0.038,0.244-0.122,0.249c-0.168,0.004-0.121-0.145-0.123-0.241
		C145.75,9.246,145.711,9.103,145.888,9.118 M145.753,12.746c0.034-0.256-0.286-0.548,0.1-0.796c0.127,0.267-0.007,0.5-0.026,0.736
		C145.803,12.707,145.777,12.726,145.753,12.746 M146.351,11.691l-0.138-0.481c0.042-0.013,0.082-0.025,0.123-0.039
		C146.443,11.321,146.449,11.492,146.351,11.691 M146.429,9.569c0.166,0.414-0.12,0.789,0,1.168c0.01,0.031-0.063,0.102-0.11,0.134
		c-0.06,0.041-0.131,0.019-0.158-0.043c-0.113-0.257,0.049-0.57-0.18-0.824C145.946,9.969,146.227,9.696,146.429,9.569
		 M146.399,7.148c0.12-0.08,0.094,0.061,0.099,0.12c0.004,0.043-0.02,0.087-0.033,0.139C146.353,7.333,146.284,7.224,146.399,7.148
		 M146.505,5.75c0.075,0.005,0.116,0.048,0.105,0.119c-0.012,0.061-0.044,0.119-0.125,0.108c-0.075-0.009-0.101-0.062-0.11-0.128
		C146.388,5.778,146.431,5.744,146.505,5.75 M146.908,10.697c0.246,0.201,0.156,0.425,0.118,0.636
		C146.91,11.15,146.857,10.952,146.908,10.697 M142.222,15.973c-0.153-0.001-0.246-0.063-0.265-0.181
		c-0.018-0.106,0.076-0.179,0.167-0.19c0.142-0.017,0.175,0.104,0.191,0.213C142.328,15.9,142.295,15.965,142.222,15.973
		 M140.083,11.636c-0.105-0.07-0.192-0.157-0.111-0.301c0.132,0.037,0.215,0.115,0.215,0.251
		C140.187,11.604,140.101,11.647,140.083,11.636 M147.714,23.821c0.119-0.398-0.157-0.298-0.358-0.331
		c-0.252-0.042-0.367-0.108-0.328-0.454c0.088-0.81,0.227-1.633,0.001-2.446c-0.069-0.25-0.097-0.483,0.021-0.729
		c0.044-0.09,0.09-0.191,0.044-0.313c-0.273-0.711-0.059-1.452-0.122-2.177c-0.006-0.069-0.025-0.166,0.088-0.184
		c0.107-0.018,0.136,0.06,0.134,0.142c-0.011,0.239,0.146,0.417,0.222,0.722c0.18-1.096-0.078-2.085-0.099-3.08
		c-0.012-0.601-0.369-1.204,0.143-1.761c0.01-0.011-0.039-0.065-0.047-0.101c-0.144-0.745-0.197-1.492,0.078-2.214
		c0.189-0.493-0.116-1.042,0.216-1.508c-0.314-0.704-0.059-1.445-0.138-2.164c-0.018-0.145,0.005-0.233,0.201-0.29
		c0.241-0.071,0.211-0.607-0.035-0.716c-0.1-0.043-0.162-0.067-0.169-0.179c-0.052-0.8,0.003-1.606,0.048-2.397
		c0.027-0.51-0.007-0.973-0.225-1.39c-0.119-0.228-0.224-0.639-0.726-0.489c-0.511,0.151-0.984-0.083-1.398-0.372
		c-0.313-0.22-0.978-0.179-1.109,0.134c-0.139,0.33-0.283,0.656-0.333,1.021c-0.434,3.11-0.9,6.218-1.002,9.365
		c-0.024,0.764-0.172,1.538-0.086,2.289c0.063,0.563-0.035,1.105,0.074,1.722c-0.217-0.178-0.146-0.366-0.227-0.518
		c-0.363-0.679-0.697-1.372-0.904-2.124c-0.058-0.217,0.144-0.386,0.01-0.575c-0.141-0.043-0.372,0.449-0.405-0.021
		c-0.018-0.289-0.042-0.456-0.259-0.694c-0.334-0.367-0.522-0.864-0.519-1.395c0.001-0.086,0.054-0.251-0.13-0.235
		c-0.051,0.005-0.091,0.107-0.193,0.238c0.145-0.62-0.607-0.967-0.438-1.331c0.246-0.526-0.193-0.802-0.274-1.152
		c-0.093-0.398-0.242-0.794-0.198-1.242c-0.532,0.194-0.436-0.369-0.702-0.51c-0.197-0.103,0.099-0.279,0.114-0.543
		c-0.297,0.113-0.342-0.038-0.441-0.273c-0.117-0.281,0.093-0.729-0.385-0.848c-0.009-0.001-0.009-0.055-0.004-0.083
		c0.085-0.523-0.327-0.838-0.588-1.168c-0.399-0.506-0.811-0.991-1.114-1.562c-0.238-0.446-0.769-0.6-1.188-0.352
		c-0.389,0.23-0.769,0.334-1.211,0.174c-0.108-0.04-0.263-0.124-0.362-0.024c-0.423,0.426-0.947,0.756-0.963,1.479
		c-0.135,6.786-0.304,13.572-0.426,20.358c-0.016,0.893,0.038,1.811,0.926,2.44c0.353,0.249,0.585,0.457,0.953,0.102
		c0.213-0.205,0.54,0.096,0.745-0.158c0.228,0.308,0.332,0.071,0.467-0.094c0.067-0.086,0.165-0.156,0.277-0.037
		c0.103,0.108,0.152,0.043,0.198-0.06c0.213-0.494,0.639-0.85,0.892-1.319c0.066-0.12,0.188-0.227,0.123-0.383
		c-0.22-0.529-0.076-1.083-0.114-1.625c-0.007-0.09-0.004-0.25,0.035-0.263c0.416-0.143,0.194-0.407,0.152-0.647
		c-0.052-0.29-0.103-0.597,0.031-0.869c0.105-0.218,0.386-0.365-0.087-0.536c-0.435-0.156,0.415-0.344,0.049-0.578
		c-0.012-0.008-0.022-0.022-0.036-0.029c-0.108-0.08-0.095-0.164-0.058-0.286c0.071-0.223,0.316-0.476-0.077-0.67
		c-0.046-0.023-0.049-0.294,0.017-0.349c0.334-0.28,0.083-0.609,0.109-0.911c0.016-0.153-0.119-0.276-0.104-0.446
		c0.077-0.73,0.157-1.457,0.127-2.194c-0.007-0.16-0.072-0.341,0.075-0.501c0.032,0.042,0.067,0.071,0.081,0.109
		c0.988,2.521,2.351,4.867,3.501,7.31c0.763,1.618,1.671,3.111,3.026,4.314c0.093,0.082,0.163,0.188,0.238,0.287
		c0.055,0.072,0.075,0.143,0.211,0.11c0.292-0.066,0.584,0.025,0.897-0.151c0.313-0.177,0.646-0.288,0.853-0.605
		c0.075-0.115,0.198-0.313,0.269-0.301c0.448,0.074,0.795-0.365,1.251-0.213c0.121,0.041,0.199-0.071,0.253-0.171
		c0.178-0.32,0.443-0.563,0.717-0.771C147.954,23.852,147.677,23.946,147.714,23.821"/>
	<path clip-path="url(#SVGID_2_)" fill-rule="evenodd" clip-rule="evenodd" fill="#15394C" d="M135.491,20.803
		c0.013,0.006,0.022,0.011,0.033,0.014c-0.009-0.043-0.016-0.086-0.023-0.13C135.47,20.724,135.468,20.762,135.491,20.803"/>
	<path clip-path="url(#SVGID_2_)" fill-rule="evenodd" clip-rule="evenodd" fill="#15394C" d="M100.838,24.353
		c0.084,0.1,0.198,0.223,0.128,0.335c-0.094,0.148,0.019,0.458-0.229,0.442c-0.19-0.012-0.209-0.248-0.145-0.427
		c0.082-0.229-0.213-0.152-0.224-0.289c-0.023-0.334-0.649-0.235-0.482-0.698c-0.792,0.203-0.341-0.588-0.625-0.8
		c-0.17-0.127-0.039-0.25,0.05-0.411C99.847,23.152,100.342,23.753,100.838,24.353 M100.623,22.144L100.623,22.144
		c-0.006-0.099,0.034-0.175,0.155-0.277c0,0.223,0.087,0.405-0.066,0.577c-0.047,0.123-0.092,0.247-0.144,0.383
		C100.155,22.552,100.673,22.372,100.623,22.144 M101.603,23.931c-0.198-0.033-0.281-0.2-0.455-0.329
		C101.49,23.526,101.706,23.533,101.603,23.931 M101.297,24.855c0.165,0.152,0.167,0.29,0.188,0.45
		C101.136,25.263,101.24,25.079,101.297,24.855 M108.385,24.345c0.042,0.205-0.061,0.286-0.176,0.4
		C108.103,24.527,108.232,24.447,108.385,24.345 M110.657,8.793c-0.094-0.01-0.136-0.058-0.141-0.153
		c-0.02-0.389,0.15-0.838-0.135-1.144c-0.19-0.206-0.129-0.586-0.374-0.638c-0.288-0.062-0.279-0.208-0.258-0.398
		c0.033-0.278-0.057-0.493-0.266-0.674c-0.094-0.08-0.195-0.163-0.209-0.307c-0.063-0.665-0.487-1.16-0.864-1.637
		c-0.76-0.963-1.731-1.682-2.891-2.097c-1.678-0.605-3.343-0.744-5.01,0.095c-0.964,0.486-1.722,1.24-2.575,1.87
		c-0.236,0.174-0.387,0.409-0.563,0.637c-0.953,1.258-1.229,2.783-1.606,4.253c-0.215,0.839-0.134,1.754-0.327,2.602
		c-0.363,1.587-0.279,3.204-0.422,4.804c-0.099,1.127,0.257,2.247,0.144,3.385c0.407,0.459,0.202,1.011,0.237,1.527
		c0.004,0.055,0.069,0.103,0.099,0.159c0.231,0.433,0.434,0.908,0.471,1.377c0.037,0.486,0.272,0.823,0.544,1.131
		c0.265,0.296,0.103,0.744,0.49,0.999c0.313,0.203,0.607,0.506,0.615,0.953c0.776,0.297,1.207,1.061,1.978,1.415
		c0.6,0.275,1.197,0.341,1.758,0.274c0.823-0.096,1.626-0.104,2.445-0.033c0.195,0.017,0.491-0.063,0.588-0.264
		c0.104-0.218,0.154-0.215,0.333-0.103c0.062,0.037,0.397,0.317,0.301-0.146c-0.009-0.041,0.074-0.148,0.097-0.143
		c0.296,0.07,0.501-0.204,0.806-0.183c0.37,0.028,0.804,0.166,1.087-0.254c0.019-0.029,0.097-0.047,0.125-0.031
		c0.455,0.251,0.597-0.226,0.88-0.377c-0.068-0.156-0.344,0.098-0.349-0.179c0.282-0.28,0.561-0.563,0.851-0.834
		c0.128-0.121,0.206-0.256,0.159-0.423c-0.109-0.383,0.068-0.771,0.438-0.818c0.46-0.058,0.251-0.246,0.114-0.428
		c-0.185-0.241,0.071-1.03,0.166-1.269c0.15-0.382,0.533-0.168,0.699-0.41c-0.149-0.097-0.646-0.081-0.12-0.385
		c0.057-0.031,0.063-0.21,0.042-0.313c-0.138-0.728-0.402-1.423-0.39-2.19c0.004-0.373-0.208-0.765-0.382-1.119
		c-0.111-0.23-0.278,0.149-0.44,0.035c-0.014-0.009-0.028-0.018-0.038-0.027c-0.172-0.242-0.304-0.102-0.444,0.041
		c-0.062,0.059-0.144,0.185-0.229,0.085c-0.189-0.219-0.401-0.067-0.603-0.073c-0.146-0.005-0.29,0.001-0.391-0.126
		c-0.169-0.216-0.37-0.222-0.473,0.015c-0.108,0.252-0.412-0.09-0.468,0.21c-0.052,0.279-0.279,0.565-0.298,0.775
		c-0.083,0.996-0.499,1.956-0.343,2.979c0.017,0.124,0.033,0.343-0.021,0.367c-0.42,0.208-0.362,0.646-0.489,0.983
		c-0.247,0.648-0.563,1.255-1.058,1.736c-0.281,0.274-0.757,0.048-1.081,0.306c-0.029,0.023-0.029-0.104-0.057-0.152
		c-0.134-0.23-0.248-0.483-0.425-0.678c-0.124-0.133-0.453-0.525-0.609-0.678c-0.308-0.305-0.042-0.772-0.398-1.075
		c-0.419-0.354-0.281-0.963-0.48-1.435c-0.102-0.237,0.045-0.572-0.367-0.647c-0.189-0.035-0.122-0.233-0.124-0.366
		c-0.004-0.64-0.022-1.281,0.008-1.92c0.014-0.29-0.2-0.517-0.315-0.609c-0.294-0.238-0.285-0.317,0.041-0.444
		c0.145-0.055,0.389-0.144,0.235-0.304c-0.251-0.267-0.068-0.363,0.074-0.542c0.085-0.104,0.231-0.239,0.079-0.472
		c-0.155,0.255-0.393,0.241-0.562,0.09c-0.141-0.126-0.13-0.417-0.019-0.529c0.315-0.318,0.31-0.695,0.318-1.09
		c0.004-0.169-0.228-0.252-0.125-0.465c0.138-0.279,0.297-0.581-0.092-0.823c-0.096-0.059-0.032-0.179,0.023-0.256
		c0.428-0.603-0.12-1.34,0.262-1.949c0.006-0.008-0.034-0.052-0.06-0.068c-0.269-0.162-0.131-0.356-0.028-0.53
		c0.109-0.184,0.173-0.367,0.161-0.585c-0.022-0.351-0.058-0.726,0.129-1.026c0.313-0.503-0.35-1.094,0.3-1.647
		c0.452-0.383,0.494-1.191,0.868-1.761c0.346-0.528,0.925-0.8,1.386-0.395c1.043,0.922,1.822,2.046,2.167,3.41
		c0.285,1.128,0.484,2.27,1.041,3.313c0.217,0.406,0.396,0.681,0.872,0.379c0.465-0.294,1.026-0.335,1.497-0.679
		c0.355-0.26,0.709-0.563,1.081-0.773c0.208,0.106-0.029,0.194,0.016,0.269c0.179,0.147,0.246-0.222,0.418-0.059
		c0.05,0.047-0.017,0.245,0.142,0.139c0.09-0.061,0.223-0.167,0.137-0.314c-0.079-0.135-0.088-0.26-0.015-0.45
		c0.209,0.349,0.386,0.145,0.445-0.047C110.969,9.218,111.182,8.853,110.657,8.793"/>
	<path clip-path="url(#SVGID_2_)" fill-rule="evenodd" clip-rule="evenodd" fill="#15394C" d="M70.064,2.362
		c-0.148,0.595-0.436,1.159-0.356,1.803c0.023,0.189-0.284,0.097-0.31,0.339c-0.061,0.555-0.456,0.959-0.746,1.41
		c-0.154,0.241-0.324,0.299-0.609,0.275c-0.678-0.056-1.349-0.227-2.042-0.104c-0.279,0.049-0.338,0.17-0.353,0.426
		c-0.075,1.206-0.16,2.422-0.134,3.619c0.029,1.282-0.065,2.561,0.002,3.84c0.032,0.597-0.14,1.19-0.046,1.787
		c0.135,0.849,0.012,1.688-0.011,2.535c-0.014,0.506-0.22,1.03,0.028,1.577c0.137,0.299-0.14,0.7-0.124,1.09
		c0.02,0.509-0.086,1.025-0.133,1.538c-0.01,0.099-0.04,0.243,0.011,0.296c0.264,0.266,0.114,0.524,0.033,0.798
		c-0.091,0.306-0.251,0.603-0.001,0.936c0.093,0.123,0.109,0.368-0.014,0.542c-0.127,0.179-0.11,0.312,0.257,0.413
		c-0.429,0.08-0.535,0.265-0.625,0.517c-0.348,0.979-1.562,1.474-2.511,1.047c-0.013-0.006-0.026-0.021-0.038-0.02
		c-0.62,0.082-0.491-0.436-0.588-0.751c-0.396-1.297-0.443-2.618-0.389-3.971c0.108-2.766,0.188-5.537,0.176-8.304
		c-0.01-1.923,0.111-3.845-0.013-5.768c-0.038-0.602,0.108-1.215,0.171-1.823c0.009-0.087,0.025-0.173,0.032-0.26
		c0.026-0.35-0.039-0.591-0.49-0.519c-0.893,0.14-1.788,0.163-2.681-0.03c-0.354-0.076-0.719-0.12-1.062-0.228
		c-0.259-0.082-0.29-0.381-0.38-0.598c-0.079-0.187-0.255-0.315-0.076-0.639c0.248-0.448,0.543-0.971,0.35-1.556
		c-0.029-0.09-0.035-0.16,0.058-0.225c0.068-0.049,0.158-0.121,0.164-0.191c0.082-0.825,0.592-0.729,1.225-0.7
		c1.218,0.054,2.447,0.125,3.665-0.059c0.085-0.013,0.206-0.044,0.255-0.002c0.447,0.382,0.977,0.212,1.469,0.215
		c1.456,0.008,2.913-0.01,4.363,0.14c0.304,0.031,0.607,0.136,0.89,0.257c0.196,0.084,0.375,0.144,0.583,0.085V2.362z"/>
	<path clip-path="url(#SVGID_2_)" fill-rule="evenodd" clip-rule="evenodd" fill="#15394C" d="M83.125,8.842
		c0.02,0.777,0.139,1.571,0.021,2.328c-0.086,0.555,0.111,1.177-0.387,1.699c-0.354,0.372-0.769,0.33-1.14,0.36
		c-0.276,0.021-0.471-0.365-0.55-0.668c-0.057-0.215-0.074-0.446-0.069-0.669c0.061-2.831,0.126-5.663,0.196-8.495
		c0.016-0.692,0.165-0.834,0.842-0.874c0.071-0.005,0.146-0.036,0.208-0.074c0.347-0.21,0.545-0.034,0.735,0.246
		c0.388,0.574,0.842,1.105,1.028,1.796c0.016,0.059,0.218,0.103,0.295,0.215c0.046,0.086-0.025,0.206,0.08,0.275
		c-0.088,0.338,0.023,0.791,0.159,0.93c0.36,0.376,0.197,0.994,0.681,1.26c0.144,0.078,0.071,0.2,0.073,0.303
		c0.005,0.183,0.01,0.36,0.267,0.462c0.054-0.785,0.087-1.552,0.163-2.314c0.086-0.878,0.207-1.754,0.32-2.629
		c0.019-0.147,0.087-0.286,0.118-0.43c0.076-0.357,0.308-0.357,0.573-0.246c0.236,0.098,0.446,0.287,0.732,0.17
		c0.131-0.054,0.124,0.072,0.176,0.136c0.256,0.323,0.204,0.698,0.198,1.064c-0.006,0.291-0.087,0.576,0.096,0.857
		c0.119,0.184-0.146,0.358-0.112,0.535c0.154,0.805-0.048,1.614-0.081,2.405c-0.031,0.673,0.227,1.379-0.015,1.999
		c-0.295,0.756,0.007,1.493-0.123,2.227c-0.013,0.071-0.05,0.16,0.058,0.179c0.204,0.034,0.401,0.216,0.307,0.329
		c-0.137,0.167-0.23,0.453-0.505,0.466c-0.274,0.015-0.467,0.151-0.666,0.316c-0.449,0.367-0.641,0.322-1.048-0.069
		c-1.052-1.012-1.424-2.409-2.112-3.625c-0.132-0.234-0.239-0.482-0.358-0.723C83.063,8.563,83.253,8.802,83.125,8.842"/>
	<path clip-path="url(#SVGID_2_)" fill-rule="evenodd" clip-rule="evenodd" fill="#15394C" d="M78.955,6.444
		c0.053,1.106-0.113,2.135-0.056,3.164c0.053,0.944,0.027,1.885,0.037,2.829c0.004,0.612-0.07,0.687-0.578,0.722
		c-0.146,0.011-0.292,0.046-0.438,0.073c-0.539,0.105-0.871-0.222-0.888-0.876c-0.007-0.266,0.003-0.533-0.002-0.797
		c-0.03-1.678-0.064-3.359,0.033-5.034c0.065-1.106,0.08-2.209,0.091-3.314c0.006-0.654,0.146-0.804,0.687-0.866
		c0.169-0.019,0.349,0,0.508-0.058c0.351-0.127,0.423,0.1,0.455,0.438C78.922,3.985,79.078,5.242,78.955,6.444"/>
	<path clip-path="url(#SVGID_2_)" fill-rule="evenodd" clip-rule="evenodd" fill="#15394C" d="M38.967,18.597
		c-0.124,0.251-0.266,0.482-0.216,0.773c0.035,0.21-0.171,0.283-0.228,0.414c-0.31,0.692-1.111,0.68-1.58,1.142
		c-0.109,0.107-0.442,0.13-0.664,0.133c-0.299,0.004-0.397,0.153-0.467,0.519c-0.089-0.371-0.206-0.396-0.435-0.246
		c-0.518,0.346-1.088,0.163-1.64,0.095c-0.158-0.02-0.244-0.098-0.117-0.266c0.039-0.051,0.068-0.135,0.058-0.196
		c-0.093-0.549,0.006-1.077,0.061-1.623c0.101-0.961,0.214-1.934,0.137-2.908c-0.026-0.335,0.129-0.659,0.042-0.997
		c-0.046-0.181,0.117-0.125,0.195-0.139c1.252-0.215,2.509-0.353,3.775-0.113c0.482,0.091,0.822,0.395,1.065,0.81
		c0.073,0.124,0.087,0.286,0.17,0.399C39.695,17.175,39.315,17.89,38.967,18.597 M34.331,4.441c0.588-0.058,1.143,0.195,1.703,0.381
		c0.338,0.112,0.489,0.485,0.695,0.759c0.279,0.371,0.503,0.784,0.775,1.16c0.152,0.209,0.112,0.42-0.018,0.556
		c-0.356,0.37-0.385,0.846-0.488,1.298c-0.026,0.112-0.016,0.228-0.103,0.32c-0.78,0.824-1.621,1.545-2.769,1.808
		c-0.182,0.042-0.259,0.04-0.267-0.178c-0.084-1.803-0.188-3.605-0.265-5.409C33.565,4.442,33.589,4.441,34.331,4.441
		 M42.022,14.979c-0.1-0.079-0.23,0.077-0.332-0.057c0.024-0.148,0.311-0.306,0.134-0.434c-0.313-0.227-0.11-0.375,0.004-0.558
		c0.05-0.079,0.174-0.238,0.107-0.237c-0.518,0.009-0.402-0.489-0.601-0.711c-0.148-0.014-0.084,0.288-0.292,0.175
		c-0.142-0.078-0.156-0.208-0.133-0.338c0.072-0.395-0.142-0.636-0.388-0.909c-0.309-0.34-0.765-0.352-1.106-0.599
		c-0.1-0.072-0.177-0.1-0.204-0.273c-0.072-0.455,0.51-0.809,0.17-1.288c-0.013-0.017,0.083-0.109,0.122-0.169
		c0.537-0.801,0.998-1.616,0.891-2.65c-0.026-0.25-0.071-0.509-0.067-0.771c0.013-0.868-0.02-1.734-0.344-2.604
		c-0.123,0.131-0.219,0.233-0.345,0.367C39.526,3.673,39.513,3.5,39.71,3.337c0.173-0.14,0.207-0.33,0.002-0.466
		c-0.152-0.1-0.134-0.229-0.161-0.371c-0.042-0.229-0.18-0.518-0.414-0.45c-0.386,0.114-0.516-0.232-0.516-0.351
		c0.003-0.447-0.32-0.436-0.585-0.517c-0.081-0.024-0.186-0.011-0.235-0.087c-0.236-0.36-0.559-0.444-0.987-0.484
		c-1.102-0.103-2.186-0.373-3.303-0.354c-0.686,0.011-1.371,0.013-2.056-0.003c-0.347-0.008-0.675-0.033-0.767,0.415
		c-0.02,0.097-0.118,0.129-0.2,0.149c-0.298,0.074-0.431,0.299-0.579,0.544c-0.336,0.556-0.43,1.156-0.423,1.791
		c0.032,3.395,0.058,6.792,0.086,10.188c0.033,3.791,0.062,7.581,0.099,11.37c0.001,0.133-0.088,0.316,0.081,0.394
		c0.367,0.167,0.746,0.309,1.123,0.455c0.05,0.019,0.117,0.011,0.173,0c0.667-0.124,1.333-0.101,2.006-0.037
		c0.533,0.05,1.069,0.246,1.599,0.114c0.531-0.135,1.05-0.254,1.606-0.277c0.352-0.015,0.753-0.154,1.023-0.371
		c0.217-0.174,0.455-0.154,0.649-0.273c0.149-0.093,0.153,0.258,0.223,0.068c0.115-0.318,0.467-0.263,0.658-0.482
		c0.105-0.122,0.263-0.3,0.5-0.341c0.333-0.057,0.629-0.22,0.521-0.654c0.209-0.013,0.339,0.257,0.538,0.014
		c0.33-0.406,0.601-0.845,0.742-1.341c0.206-0.722,0.272-1.472,0.386-2.212c0.068-0.426,0.077-0.858,0.174-1.285
		c0.116-0.521,0.204-1.094,0.102-1.604c-0.137-0.675,0.073-1.238,0.262-1.834C42.05,15.008,42.062,14.991,42.022,14.979"/>
	<path clip-path="url(#SVGID_2_)" fill-rule="evenodd" clip-rule="evenodd" fill="#15394C" d="M10.536,22.841
		c-0.052-0.007-0.129-0.021-0.143-0.056c-0.021-0.052,0.02-0.115,0.093-0.095c0.052,0.014,0.096,0.056,0.168,0.103
		C10.598,22.817,10.565,22.845,10.536,22.841 M9.151,22.614c0.293-0.126,0.319,0.089,0.423,0.183
		C9.393,22.824,9.312,22.699,9.151,22.614 M3.682,12.63c0.303-0.21,0.151-0.445,0.127-0.694c-0.13-1.325-0.46-2.638-0.271-3.989
		c0.121-0.862-0.103-1.71-0.17-2.565c-0.01-0.116-0.039-0.233-0.031-0.347c0.023-0.311,0.095-0.523,0.515-0.49
		c0.74,0.06,1.484,0.017,2.227,0.069c0.876,0.062,1.544,0.47,2.108,1.082C8.634,6.182,8.66,6.847,8.799,7.443
		c0.227,0.973,0.381,1.966,0.397,2.974c0.003,0.215-0.055,0.348-0.22,0.507c-0.795,0.77-1.796,1.047-2.835,1.25
		C5.334,12.333,4.512,12.406,3.682,12.63 M3.304,22.664c-0.019,0.004-0.039,0.008-0.057,0.01c-0.013-0.11-0.025-0.223-0.037-0.332
		c0.031,0.004,0.062,0.007,0.094,0.01V22.664z M11.116,11.437c0.097,0.009,0.087,0.076,0.085,0.126
		c-0.001,0.033-0.03,0.066-0.047,0.098c-0.028-0.043-0.067-0.084-0.081-0.132C11.065,11.502,11.101,11.464,11.116,11.437
		 M12.757,22.775c-0.077,0.035-0.127,0.15-0.243,0.069c-0.381-0.265-0.568-0.247-0.86,0.099c-0.145,0.173-0.287,0.168-0.47,0.035
		c0.082-0.063,0.161-0.122,0.291-0.221c-0.927-0.272-1.626-0.786-2.253-1.421c-0.358-0.363-0.51-1.252-0.223-1.563
		c-0.029-0.229-0.205-0.102-0.315-0.122c-0.175-0.033-0.204,0.186-0.328,0.256c-0.094-0.201,0.179-0.233,0.128-0.394
		c-0.147-0.04-0.155-0.325-0.367-0.234c-0.436,0.19-0.225-0.182-0.214-0.278c0.013-0.113,0.154-0.207,0.21-0.323
		c0.079-0.162,0.251-0.408,0.139-0.502c-0.234-0.195-0.21,0.227-0.389,0.247c-0.025,0.003-0.051,0.008-0.078,0.013
		c-0.264-0.468,0.148-1.025-0.198-1.488c-0.106,0.147-0.288,0.206-0.339,0.409c-0.03,0.119-0.22,0.103-0.22,0.001
		c-0.002-0.257-0.222-0.415-0.25-0.627c-0.036-0.279-0.191-0.599,0.237-0.809c0.309-0.15,0.632-0.132,0.926-0.161
		c0.415-0.043,0.684-0.607,1.185-0.291c0.11,0.067,0.139-0.158,0.14-0.259c0.005-0.26,0.162-0.441,0.366-0.489
		c0.268-0.063,0.416-0.254,0.586-0.411c0.858-0.791,1.242-1.766,1.151-2.947c-0.033-0.427,0.088-0.853,0.517-1.126
		c0.157-0.099,0.151-0.499,0.109-0.503c-0.337-0.044-0.176-0.256-0.145-0.388c0.058-0.24,0.196-0.465,0.223-0.704
		c0.037-0.319,0.289-0.647,0.04-0.964c-0.172-0.219-0.283-0.412-0.109-0.686c0.053-0.083,0.121-0.286,0.029-0.315
		c-0.309-0.101-0.153-0.354-0.221-0.528c-0.096-0.252,0.114-0.645-0.339-0.737c-0.015-0.002-0.007-0.107-0.011-0.164
		c0.077-0.11,0.273-0.2,0.087-0.364c-0.126-0.109-0.228-0.078-0.267,0.094c-0.175-0.245-0.157-0.419,0.077-0.514
		c0.151-0.061,0.101-0.213,0.061-0.223c-0.41-0.099-0.266-0.447-0.271-0.673c-0.008-0.335-0.15-0.581-0.397-0.729
		c-0.493-0.296-0.807-0.802-1.421-0.998C9.027,1.745,8.657,1.528,8.326,1.356C7.958,1.165,7.548,0.997,7.14,0.945
		C5.267,0.712,3.389,0.893,1.513,0.93C1.358,0.934,1.152,0.961,1.137,1.09c-0.049,0.425-0.35,0.512-0.674,0.572
		c-0.271,0.05-0.359,0.185-0.396,0.463c-0.104,0.759-0.074,1.512,0.004,2.267c0.11,1.062-0.124,2.115-0.045,3.185
		c0.143,1.931,0.328,3.865,0.231,5.808c-0.044,0.888-0.05,1.777-0.085,2.667c-0.036,0.878,0,1.757-0.018,2.636
		c-0.041,2.018,0.021,4.043,0.232,6.06c0.062,0.602,0.259,1.119,0.489,1.651c0.076,0.175,0.171,0.142,0.331,0.139
		c0.262-0.005,0.382-0.246,0.609-0.275c0.673-0.089,1.251-0.402,1.801-0.774c0.097-0.064,0.17-0.142,0.301-0.137
		c0.401,0.014,0.296-0.416,0.249-0.469c-0.24-0.276-0.128-0.505,0.028-0.732c-0.101-0.134-0.274,0.012-0.385-0.188
		c0.43-0.137,0.413-0.509,0.292-0.806c-0.129-0.319-0.149-0.625-0.146-0.952c0.005-0.436,0.054-0.885-0.03-1.306
		c-0.075-0.373,0.408-0.78-0.079-1.111c-0.014-0.01,0.035-0.103,0.045-0.159c0.013-0.069,0.046-0.184,0.018-0.202
		c-0.421-0.293-0.032-0.519,0.04-0.793c0.856,0.874,1.533,1.817,1.905,2.971c0.253,0.786,0.496,1.578,0.964,2.28
		c0.239,0.358,0.531,0.659,0.82,0.973c0.354,0.382,0.75,0.7,1.186,0.986c0.572,0.374,1.19,0.284,1.804,0.307
		c0.372,0.014,0.629-0.15,0.866-0.413c0.31-0.343,0.463-0.764,0.646-1.175c0.281-0.627,0.59-1.242,0.928-1.945
		C12.906,22.699,12.833,22.739,12.757,22.775"/>
	<path clip-path="url(#SVGID_2_)" fill-rule="evenodd" clip-rule="evenodd" fill="#15394C" d="M53.36,17.773
		c-0.064,0.898-0.225,1.793-0.189,2.7c0.007,0.204-0.059,0.359-0.193,0.509c-0.224,0.248-0.448,0.5-0.647,0.769
		c-0.469,0.631-1.176,0.804-1.873,0.87c-0.986,0.092-0.978,0.036-1.344-0.87c-0.22-0.544-0.387-1.088-0.381-1.685
		c0.008-0.816-0.135-1.633-0.276-2.422c-0.155-0.864-0.13-1.741-0.321-2.595c-0.11-0.49,0.026-0.985,0.026-1.479
		c0-2.008,0.377-3.967,0.794-5.917c0.121-0.563,0.314-1.105,0.659-1.596c0.289-0.412,0.476-0.895,0.711-1.347
		c0.158-0.305,0.485-0.359,0.732-0.111c0.677,0.68,1.17,1.465,1.478,2.384c0.717,2.133,0.892,4.351,1.107,6.564
		C53.754,14.972,53.462,16.367,53.36,17.773 M56.717,15.366c0.152-0.329,0.191-0.658,0.211-1.011
		c0.016-0.286-0.174-0.544-0.122-0.797c0.2-0.952-0.045-1.898,0.016-2.846c0.032-0.521-0.139-1.016-0.162-1.53
		c-0.021-0.477-0.357-0.888-0.306-1.393c0.014-0.126,0.101-0.232,0.037-0.401c-0.267-0.706-0.439-1.45-0.737-2.141
		c-0.556-1.287-1.233-2.501-2.469-3.289C52.75,1.679,52.293,1.554,51.78,1.64c-0.555,0.094-1.117,0.177-1.669,0.254
		c-0.918,0.13-1.619,0.489-2.248,1.161c-1.336,1.431-2.39,2.99-2.985,4.891c-0.545,1.732-0.728,3.48-0.78,5.276
		c-0.066,2.327,0.169,4.63,0.49,6.922c0.191,1.376,0.447,2.765,1.153,4.002c0.288,0.504,0.628,0.988,1.158,1.272
		c0.72,0.386,1.533,0.492,2.307,0.711c0.449,0.128,0.909,0.309,1.417,0.208c0.523,0.087,1.038-0.062,1.532-0.225
		c0.518-0.171,1.079-0.324,1.348-0.896c0.023-0.05,0.065-0.102,0.113-0.131c0.644-0.384,0.776-1.121,1.135-1.694
		c0.291-0.469,0.462-1.022,0.614-1.559c0.06-0.215,0.344-0.133,0.331-0.388c-0.035-0.67,0.287-1.267,0.422-1.902
		c0.084-0.393,0.281-0.745,0.286-1.183c0.005-0.484-0.131-1.045,0.299-1.468c0.077-0.077,0.004-0.225,0.01-0.335
		C56.735,16.159,56.542,15.748,56.717,15.366"/>
	<path clip-path="url(#SVGID_2_)" fill-rule="evenodd" clip-rule="evenodd" fill="#15394C" d="M23.448,17.796
		c-0.084,0.884-0.224,1.765-0.187,2.654c0.009,0.224-0.062,0.392-0.21,0.549c-0.15,0.158-0.298,0.321-0.422,0.501
		c-0.714,1.02-1.765,1.17-2.892,1.143c-0.194-0.005-0.227-0.125-0.289-0.262c-0.413-0.909-0.68-1.849-0.68-2.857
		c0.001-0.64-0.083-1.296-0.216-1.901c-0.487-2.201-0.357-4.405-0.128-6.6c0.146-1.411,0.394-2.833,0.865-4.175
		c0.278-0.796,0.823-1.496,1.205-2.264c0.121-0.243,0.444-0.184,0.634,0.003c0.669,0.665,1.157,1.438,1.481,2.334
		c0.491,1.355,0.639,2.772,0.876,4.176c0.174,1.038,0.196,2.087,0.284,3.325C23.675,15.419,23.561,16.607,23.448,17.796
		 M26.792,15.385c0.174-0.339,0.2-0.685,0.224-1.052c0.02-0.288-0.183-0.532-0.126-0.798c0.219-1.022-0.004-2.043-0.004-3.062
		c0-0.664-0.063-1.349-0.332-1.981c-0.075-0.178-0.135-0.359-0.095-0.547c0.081-0.38-0.058-0.717-0.172-1.065
		c-0.378-1.16-0.703-2.337-1.452-3.342c-0.147-0.197-0.366-0.314-0.479-0.539c-0.448-0.894-1.548-1.474-2.554-1.348
		C21.259,1.72,20.715,1.822,20.177,1.9c-0.883,0.128-1.568,0.459-2.181,1.109c-1.374,1.457-2.524,3.029-3.03,5.006
		c-0.17,0.661-0.504,1.298-0.565,1.965c-0.121,1.315-0.335,2.632-0.193,3.805c-0.097,2.383,0.215,4.579,0.542,6.766
		c0.181,1.218,0.427,2.438,1.047,3.537c0.301,0.535,0.681,0.998,1.2,1.354c0.477,0.331,1.05,0.292,1.564,0.48
		c1.177,0.431,2.39,0.645,3.618,0.213c0.499-0.176,1.067-0.273,1.339-0.831c0.037-0.076,0.099-0.154,0.169-0.199
		c0.647-0.42,0.823-1.16,1.175-1.771c0.27-0.469,0.445-0.998,0.599-1.52c0.061-0.206,0.343-0.12,0.326-0.39
		c-0.042-0.653,0.28-1.238,0.411-1.859c0.086-0.409,0.292-0.771,0.294-1.226c0.002-0.483-0.125-1.043,0.304-1.467
		c0.071-0.069-0.022-0.234-0.005-0.33C26.86,16.15,26.602,15.756,26.792,15.385"/>
	<path clip-path="url(#SVGID_2_)" fill-rule="evenodd" clip-rule="evenodd" fill="#15394C" d="M82.444,22.37
		c-0.374,0.14-0.484,0.014-0.424-0.399c0.061-0.417,0.242-0.804,0.318-1.246c0.172,0.458,0.382,0.909,0.507,1.381
		C82.934,22.437,82.594,22.313,82.444,22.37 M85.938,24.757c-0.477-0.693-0.494-1.525-0.761-2.274
		c-0.159-0.445-0.295-0.959-0.421-1.43c-0.151-0.561-0.194-1.252-0.718-1.692c-0.072-0.062-0.138-0.335-0.001-0.507
		c0.059-0.076,0.084-0.168,0.034-0.254c-0.514-0.891-0.618-1.941-1.104-2.852c-0.223-0.416-0.447-0.543-0.868-0.482
		c-0.652,0.094-0.826,0.243-1.02,0.979c-0.487,1.857-0.954,3.722-1.46,5.574c-0.361,1.329-0.709,2.655-0.6,4.055
		c0.029,0.387,0.152,0.75,0.425,1.008c0.125,0.119,0.338,0.151,0.411,0.369c0.054-0.061,0.086-0.115,0.132-0.146
		c0.743-0.494,1.282-1.119,1.352-2.077c0.016-0.215,0.143-0.435,0.314-0.535c0.255-0.15,0.584-0.141,0.864-0.175
		c0.23-0.03,0.53-0.024,0.673-0.138c0.366-0.297,0.34,0.077,0.366,0.204c0.148,0.688,0.399,1.334,0.708,1.956
		c0.167,0.338,0.615,0.362,0.797,0.028c0.147-0.271,0.361-0.47,0.538-0.703C85.791,25.411,86.143,25.054,85.938,24.757"/>
</g>
</svg>
