<?xml version="1.0" encoding="utf-8"?>
<!-- Generator: Adobe Illustrator 16.0.0, SVG Export Plug-In . SVG Version: 6.00 Build 0)  -->
<!DOCTYPE svg PUBLIC "-//W3C//DTD SVG 1.1//EN" "http://www.w3.org/Graphics/SVG/1.1/DTD/svg11.dtd">
<svg version="1.1" id="Layer_1" xmlns="http://www.w3.org/2000/svg" xmlns:xlink="http://www.w3.org/1999/xlink" x="0px" y="0px"
	 width="1210px" height="1178px" viewBox="0 0 1210 1178" enable-background="new 0 0 1210 1178" xml:space="preserve">
<g>
	<defs>
		<rect id="SVGID_1_" x="27.756" y="103.2" width="1210" height="1178"/>
	</defs>
	<clipPath id="SVGID_2_">
		<use xlink:href="#SVGID_1_"  overflow="visible"/>
	</clipPath>
</g>
<rect x="85.756" y="191.199" fill="none" width="561" height="445.442"/>
<rect x="85.756" y="191.199" fill="none" width="561" height="445.442"/>
<rect x="27.756" y="103.199" fill="none" width="1210" height="1178"/>
<text transform="matrix(1 0 0 1 706.1797 450.3608)" fill="#FF9425" font-family="'NunitoSans-ExtraBold'" font-size="186.512">=</text>
<g>
	<defs>
		<rect id="SVGID_3_" x="27.756" y="103.199" width="1210" height="1178"/>
	</defs>
	<clipPath id="SVGID_4_">
		<use xlink:href="#SVGID_3_"  overflow="visible"/>
	</clipPath>
	<path clip-path="url(#SVGID_4_)" fill="none" stroke="#2C77BC" stroke-width="4.455" stroke-miterlimit="10" d="M929.814,1014.133
		H597.971c-41.093,0-74.715-33.621-74.715-74.715V651.471c0-41.094,33.622-74.718,74.715-74.718h331.843
		c41.093,0,74.715,33.624,74.715,74.718v287.947C1004.529,980.512,970.907,1014.133,929.814,1014.133z"/>
	<polygon clip-path="url(#SVGID_4_)" fill="none" stroke="#2C77BC" stroke-width="4.455" stroke-miterlimit="10" points="
		697.168,799.529 697.168,783.371 884.243,784.693 884.243,799.529 908.28,799.529 908.28,922.611 885.288,922.611 885.288,938.289 
		697.168,938.289 697.168,924.701 673.131,924.701 673.131,799.529 	"/>
	<path clip-path="url(#SVGID_4_)" fill-rule="evenodd" clip-rule="evenodd" fill="#2C77BC" d="M697.495,822.043
		c0,1.994-1.617,3.611-3.612,3.611s-3.612-1.617-3.612-3.611c0-1.996,1.617-3.611,3.612-3.611S697.495,820.047,697.495,822.043"/>
	<path clip-path="url(#SVGID_4_)" fill-rule="evenodd" clip-rule="evenodd" fill="#2C77BC" d="M717.004,822.043
		c0,1.994-1.617,3.611-3.612,3.611s-3.612-1.617-3.612-3.611c0-1.996,1.617-3.611,3.612-3.611S717.004,820.047,717.004,822.043"/>
	<path clip-path="url(#SVGID_4_)" fill-rule="evenodd" clip-rule="evenodd" fill="#2C77BC" d="M736.513,822.043
		c0,1.994-1.617,3.611-3.612,3.611s-3.612-1.617-3.612-3.611c0-1.996,1.617-3.611,3.612-3.611S736.513,820.047,736.513,822.043"/>
	<path clip-path="url(#SVGID_4_)" fill-rule="evenodd" clip-rule="evenodd" fill="#2C77BC" d="M756.021,822.043
		c0,1.994-1.616,3.611-3.611,3.611s-3.612-1.617-3.612-3.611c0-1.996,1.617-3.611,3.612-3.611S756.021,820.047,756.021,822.043"/>
	<path clip-path="url(#SVGID_4_)" fill-rule="evenodd" clip-rule="evenodd" fill="#2C77BC" d="M775.529,822.043
		c0,1.994-1.616,3.611-3.611,3.611s-3.612-1.617-3.612-3.611c0-1.996,1.617-3.611,3.612-3.611S775.529,820.047,775.529,822.043"/>
	<path clip-path="url(#SVGID_4_)" fill-rule="evenodd" clip-rule="evenodd" fill="#2C77BC" d="M795.038,822.043
		c0,1.994-1.616,3.611-3.611,3.611s-3.612-1.617-3.612-3.611c0-1.996,1.617-3.611,3.612-3.611S795.038,820.047,795.038,822.043"/>
	<path clip-path="url(#SVGID_4_)" fill-rule="evenodd" clip-rule="evenodd" fill="#2C77BC" d="M814.547,822.043
		c0,1.994-1.617,3.611-3.611,3.611c-1.995,0-3.612-1.617-3.612-3.611c0-1.996,1.617-3.611,3.612-3.611
		C812.93,818.432,814.547,820.047,814.547,822.043"/>
	<path clip-path="url(#SVGID_4_)" fill-rule="evenodd" clip-rule="evenodd" fill="#2C77BC" d="M834.056,822.043
		c0,1.994-1.617,3.611-3.612,3.611c-1.994,0-3.611-1.617-3.611-3.611c0-1.996,1.617-3.611,3.611-3.611
		C832.438,818.432,834.056,820.047,834.056,822.043"/>
	<path clip-path="url(#SVGID_4_)" fill-rule="evenodd" clip-rule="evenodd" fill="#2C77BC" d="M853.564,822.043
		c0,1.994-1.617,3.611-3.612,3.611c-1.994,0-3.611-1.617-3.611-3.611c0-1.996,1.617-3.611,3.611-3.611
		C851.947,818.432,853.564,820.047,853.564,822.043"/>
	<path clip-path="url(#SVGID_4_)" fill-rule="evenodd" clip-rule="evenodd" fill="#2C77BC" d="M873.073,822.043
		c0,1.994-1.617,3.611-3.612,3.611s-3.611-1.617-3.611-3.611c0-1.996,1.616-3.611,3.611-3.611S873.073,820.047,873.073,822.043"/>
	<path clip-path="url(#SVGID_4_)" fill-rule="evenodd" clip-rule="evenodd" fill="#2C77BC" d="M892.582,822.043
		c0,1.994-1.617,3.611-3.612,3.611s-3.611-1.617-3.611-3.611c0-1.996,1.616-3.611,3.611-3.611S892.582,820.047,892.582,822.043"/>
	<path clip-path="url(#SVGID_4_)" fill-rule="evenodd" clip-rule="evenodd" fill="#2C77BC" d="M697.495,841.789
		c0,1.996-1.617,3.613-3.612,3.613s-3.612-1.617-3.612-3.613c0-1.994,1.617-3.611,3.612-3.611S697.495,839.795,697.495,841.789"/>
	<path clip-path="url(#SVGID_4_)" fill-rule="evenodd" clip-rule="evenodd" fill="#2C77BC" d="M717.004,841.789
		c0,1.996-1.617,3.613-3.612,3.613s-3.612-1.617-3.612-3.613c0-1.994,1.617-3.611,3.612-3.611S717.004,839.795,717.004,841.789"/>
	<path clip-path="url(#SVGID_4_)" fill-rule="evenodd" clip-rule="evenodd" fill="#2C77BC" d="M736.513,841.789
		c0,1.996-1.617,3.613-3.612,3.613s-3.612-1.617-3.612-3.613c0-1.994,1.617-3.611,3.612-3.611S736.513,839.795,736.513,841.789"/>
	<path clip-path="url(#SVGID_4_)" fill-rule="evenodd" clip-rule="evenodd" fill="#2C77BC" d="M756.021,841.789
		c0,1.996-1.616,3.613-3.611,3.613s-3.612-1.617-3.612-3.613c0-1.994,1.617-3.611,3.612-3.611S756.021,839.795,756.021,841.789"/>
	<path clip-path="url(#SVGID_4_)" fill-rule="evenodd" clip-rule="evenodd" fill="#2C77BC" d="M775.529,841.789
		c0,1.996-1.616,3.613-3.611,3.613s-3.612-1.617-3.612-3.613c0-1.994,1.617-3.611,3.612-3.611S775.529,839.795,775.529,841.789"/>
	<path clip-path="url(#SVGID_4_)" fill-rule="evenodd" clip-rule="evenodd" fill="#2C77BC" d="M795.038,841.789
		c0,1.996-1.616,3.613-3.611,3.613s-3.612-1.617-3.612-3.613c0-1.994,1.617-3.611,3.612-3.611S795.038,839.795,795.038,841.789"/>
	<path clip-path="url(#SVGID_4_)" fill-rule="evenodd" clip-rule="evenodd" fill="#2C77BC" d="M814.547,841.789
		c0,1.996-1.617,3.613-3.611,3.613c-1.995,0-3.612-1.617-3.612-3.613c0-1.994,1.617-3.611,3.612-3.611
		C812.93,838.178,814.547,839.795,814.547,841.789"/>
	<path clip-path="url(#SVGID_4_)" fill-rule="evenodd" clip-rule="evenodd" fill="#2C77BC" d="M834.056,841.789
		c0,1.996-1.617,3.613-3.612,3.613c-1.994,0-3.611-1.617-3.611-3.613c0-1.994,1.617-3.611,3.611-3.611
		C832.438,838.178,834.056,839.795,834.056,841.789"/>
	<path clip-path="url(#SVGID_4_)" fill-rule="evenodd" clip-rule="evenodd" fill="#2C77BC" d="M853.564,841.789
		c0,1.996-1.617,3.613-3.612,3.613c-1.994,0-3.611-1.617-3.611-3.613c0-1.994,1.617-3.611,3.611-3.611
		C851.947,838.178,853.564,839.795,853.564,841.789"/>
	<path clip-path="url(#SVGID_4_)" fill-rule="evenodd" clip-rule="evenodd" fill="#2C77BC" d="M873.073,841.789
		c0,1.996-1.617,3.613-3.612,3.613s-3.611-1.617-3.611-3.613c0-1.994,1.616-3.611,3.611-3.611S873.073,839.795,873.073,841.789"/>
	<path clip-path="url(#SVGID_4_)" fill-rule="evenodd" clip-rule="evenodd" fill="#2C77BC" d="M892.582,841.789
		c0,1.996-1.617,3.613-3.612,3.613s-3.611-1.617-3.611-3.613c0-1.994,1.616-3.611,3.611-3.611S892.582,839.795,892.582,841.789"/>
	<path clip-path="url(#SVGID_4_)" fill-rule="evenodd" clip-rule="evenodd" fill="#2C77BC" d="M697.495,861.537
		c0,1.994-1.617,3.611-3.612,3.611s-3.612-1.617-3.612-3.611c0-1.996,1.617-3.613,3.612-3.613S697.495,859.541,697.495,861.537"/>
	<path clip-path="url(#SVGID_4_)" fill-rule="evenodd" clip-rule="evenodd" fill="#2C77BC" d="M717.004,861.537
		c0,1.994-1.617,3.611-3.612,3.611s-3.612-1.617-3.612-3.611c0-1.996,1.617-3.613,3.612-3.613S717.004,859.541,717.004,861.537"/>
	<path clip-path="url(#SVGID_4_)" fill-rule="evenodd" clip-rule="evenodd" fill="#2C77BC" d="M736.513,861.537
		c0,1.994-1.617,3.611-3.612,3.611s-3.612-1.617-3.612-3.611c0-1.996,1.617-3.613,3.612-3.613S736.513,859.541,736.513,861.537"/>
	<path clip-path="url(#SVGID_4_)" fill-rule="evenodd" clip-rule="evenodd" fill="#2C77BC" d="M756.021,861.537
		c0,1.994-1.616,3.611-3.611,3.611s-3.612-1.617-3.612-3.611c0-1.996,1.617-3.613,3.612-3.613S756.021,859.541,756.021,861.537"/>
	<path clip-path="url(#SVGID_4_)" fill-rule="evenodd" clip-rule="evenodd" fill="#2C77BC" d="M775.529,861.537
		c0,1.994-1.616,3.611-3.611,3.611s-3.612-1.617-3.612-3.611c0-1.996,1.617-3.613,3.612-3.613S775.529,859.541,775.529,861.537"/>
	<path clip-path="url(#SVGID_4_)" fill-rule="evenodd" clip-rule="evenodd" fill="#2C77BC" d="M795.038,861.537
		c0,1.994-1.616,3.611-3.611,3.611s-3.612-1.617-3.612-3.611c0-1.996,1.617-3.613,3.612-3.613S795.038,859.541,795.038,861.537"/>
	<path clip-path="url(#SVGID_4_)" fill-rule="evenodd" clip-rule="evenodd" fill="#2C77BC" d="M814.547,861.537
		c0,1.994-1.617,3.611-3.611,3.611c-1.995,0-3.612-1.617-3.612-3.611c0-1.996,1.617-3.613,3.612-3.613
		C812.93,857.924,814.547,859.541,814.547,861.537"/>
	<path clip-path="url(#SVGID_4_)" fill-rule="evenodd" clip-rule="evenodd" fill="#2C77BC" d="M834.056,861.537
		c0,1.994-1.617,3.611-3.612,3.611c-1.994,0-3.611-1.617-3.611-3.611c0-1.996,1.617-3.613,3.611-3.613
		C832.438,857.924,834.056,859.541,834.056,861.537"/>
	<path clip-path="url(#SVGID_4_)" fill-rule="evenodd" clip-rule="evenodd" fill="#2C77BC" d="M853.564,861.537
		c0,1.994-1.617,3.611-3.612,3.611c-1.994,0-3.611-1.617-3.611-3.611c0-1.996,1.617-3.613,3.611-3.613
		C851.947,857.924,853.564,859.541,853.564,861.537"/>
	<path clip-path="url(#SVGID_4_)" fill-rule="evenodd" clip-rule="evenodd" fill="#2C77BC" d="M873.073,861.537
		c0,1.994-1.617,3.611-3.612,3.611s-3.611-1.617-3.611-3.611c0-1.996,1.616-3.613,3.611-3.613S873.073,859.541,873.073,861.537"/>
	<path clip-path="url(#SVGID_4_)" fill-rule="evenodd" clip-rule="evenodd" fill="#2C77BC" d="M892.582,861.537
		c0,1.994-1.617,3.611-3.612,3.611s-3.611-1.617-3.611-3.611c0-1.996,1.616-3.613,3.611-3.613S892.582,859.541,892.582,861.537"/>
	<path clip-path="url(#SVGID_4_)" fill-rule="evenodd" clip-rule="evenodd" fill="#2C77BC" d="M697.495,881.283
		c0,1.996-1.617,3.611-3.612,3.611s-3.612-1.615-3.612-3.611c0-1.994,1.617-3.611,3.612-3.611S697.495,879.289,697.495,881.283"/>
	<path clip-path="url(#SVGID_4_)" fill-rule="evenodd" clip-rule="evenodd" fill="#2C77BC" d="M717.004,881.283
		c0,1.996-1.617,3.611-3.612,3.611s-3.612-1.615-3.612-3.611c0-1.994,1.617-3.611,3.612-3.611S717.004,879.289,717.004,881.283"/>
	<path clip-path="url(#SVGID_4_)" fill-rule="evenodd" clip-rule="evenodd" fill="#2C77BC" d="M736.513,881.283
		c0,1.996-1.617,3.611-3.612,3.611s-3.612-1.615-3.612-3.611c0-1.994,1.617-3.611,3.612-3.611S736.513,879.289,736.513,881.283"/>
	<path clip-path="url(#SVGID_4_)" fill-rule="evenodd" clip-rule="evenodd" fill="#2C77BC" d="M756.021,881.283
		c0,1.996-1.616,3.611-3.611,3.611s-3.612-1.615-3.612-3.611c0-1.994,1.617-3.611,3.612-3.611S756.021,879.289,756.021,881.283"/>
	<path clip-path="url(#SVGID_4_)" fill-rule="evenodd" clip-rule="evenodd" fill="#2C77BC" d="M775.529,881.283
		c0,1.996-1.616,3.611-3.611,3.611s-3.612-1.615-3.612-3.611c0-1.994,1.617-3.611,3.612-3.611S775.529,879.289,775.529,881.283"/>
	<path clip-path="url(#SVGID_4_)" fill-rule="evenodd" clip-rule="evenodd" fill="#2C77BC" d="M795.038,881.283
		c0,1.996-1.616,3.611-3.611,3.611s-3.612-1.615-3.612-3.611c0-1.994,1.617-3.611,3.612-3.611S795.038,879.289,795.038,881.283"/>
	<path clip-path="url(#SVGID_4_)" fill-rule="evenodd" clip-rule="evenodd" fill="#2C77BC" d="M814.547,881.283
		c0,1.996-1.617,3.611-3.611,3.611c-1.995,0-3.612-1.615-3.612-3.611c0-1.994,1.617-3.611,3.612-3.611
		C812.93,877.672,814.547,879.289,814.547,881.283"/>
	<path clip-path="url(#SVGID_4_)" fill-rule="evenodd" clip-rule="evenodd" fill="#2C77BC" d="M834.056,881.283
		c0,1.996-1.617,3.611-3.612,3.611c-1.994,0-3.611-1.615-3.611-3.611c0-1.994,1.617-3.611,3.611-3.611
		C832.438,877.672,834.056,879.289,834.056,881.283"/>
	<path clip-path="url(#SVGID_4_)" fill-rule="evenodd" clip-rule="evenodd" fill="#2C77BC" d="M853.564,881.283
		c0,1.996-1.617,3.611-3.612,3.611c-1.994,0-3.611-1.615-3.611-3.611c0-1.994,1.617-3.611,3.611-3.611
		C851.947,877.672,853.564,879.289,853.564,881.283"/>
	<path clip-path="url(#SVGID_4_)" fill-rule="evenodd" clip-rule="evenodd" fill="#2C77BC" d="M873.073,881.283
		c0,1.996-1.617,3.611-3.612,3.611s-3.611-1.615-3.611-3.611c0-1.994,1.616-3.611,3.611-3.611S873.073,879.289,873.073,881.283"/>
	<path clip-path="url(#SVGID_4_)" fill-rule="evenodd" clip-rule="evenodd" fill="#2C77BC" d="M892.582,881.283
		c0,1.996-1.617,3.611-3.612,3.611s-3.611-1.615-3.611-3.611c0-1.994,1.616-3.611,3.611-3.611S892.582,879.289,892.582,881.283"/>
	<path clip-path="url(#SVGID_4_)" fill-rule="evenodd" clip-rule="evenodd" fill="#2C77BC" d="M697.495,901.031
		c0,1.994-1.617,3.611-3.612,3.611s-3.612-1.617-3.612-3.611c0-1.996,1.617-3.613,3.612-3.613S697.495,899.035,697.495,901.031"/>
	<path clip-path="url(#SVGID_4_)" fill-rule="evenodd" clip-rule="evenodd" fill="#2C77BC" d="M717.004,901.031
		c0,1.994-1.617,3.611-3.612,3.611s-3.612-1.617-3.612-3.611c0-1.996,1.617-3.613,3.612-3.613S717.004,899.035,717.004,901.031"/>
	<path clip-path="url(#SVGID_4_)" fill-rule="evenodd" clip-rule="evenodd" fill="#2C77BC" d="M736.513,901.031
		c0,1.994-1.617,3.611-3.612,3.611s-3.612-1.617-3.612-3.611c0-1.996,1.617-3.613,3.612-3.613S736.513,899.035,736.513,901.031"/>
	<path clip-path="url(#SVGID_4_)" fill-rule="evenodd" clip-rule="evenodd" fill="#2C77BC" d="M756.021,901.031
		c0,1.994-1.616,3.611-3.611,3.611s-3.612-1.617-3.612-3.611c0-1.996,1.617-3.613,3.612-3.613S756.021,899.035,756.021,901.031"/>
	<path clip-path="url(#SVGID_4_)" fill-rule="evenodd" clip-rule="evenodd" fill="#2C77BC" d="M775.529,901.031
		c0,1.994-1.616,3.611-3.611,3.611s-3.612-1.617-3.612-3.611c0-1.996,1.617-3.613,3.612-3.613S775.529,899.035,775.529,901.031"/>
	<path clip-path="url(#SVGID_4_)" fill-rule="evenodd" clip-rule="evenodd" fill="#2C77BC" d="M795.038,901.031
		c0,1.994-1.616,3.611-3.611,3.611s-3.612-1.617-3.612-3.611c0-1.996,1.617-3.613,3.612-3.613S795.038,899.035,795.038,901.031"/>
	<path clip-path="url(#SVGID_4_)" fill-rule="evenodd" clip-rule="evenodd" fill="#2C77BC" d="M814.547,901.031
		c0,1.994-1.617,3.611-3.611,3.611c-1.995,0-3.612-1.617-3.612-3.611c0-1.996,1.617-3.613,3.612-3.613
		C812.93,897.418,814.547,899.035,814.547,901.031"/>
	<path clip-path="url(#SVGID_4_)" fill-rule="evenodd" clip-rule="evenodd" fill="#2C77BC" d="M834.056,901.031
		c0,1.994-1.617,3.611-3.612,3.611c-1.994,0-3.611-1.617-3.611-3.611c0-1.996,1.617-3.613,3.611-3.613
		C832.438,897.418,834.056,899.035,834.056,901.031"/>
	<path clip-path="url(#SVGID_4_)" fill-rule="evenodd" clip-rule="evenodd" fill="#2C77BC" d="M853.564,901.031
		c0,1.994-1.617,3.611-3.612,3.611c-1.994,0-3.611-1.617-3.611-3.611c0-1.996,1.617-3.613,3.611-3.613
		C851.947,897.418,853.564,899.035,853.564,901.031"/>
	<path clip-path="url(#SVGID_4_)" fill-rule="evenodd" clip-rule="evenodd" fill="#2C77BC" d="M873.073,901.031
		c0,1.994-1.617,3.611-3.612,3.611s-3.611-1.617-3.611-3.611c0-1.996,1.616-3.613,3.611-3.613S873.073,899.035,873.073,901.031"/>
	<path clip-path="url(#SVGID_4_)" fill-rule="evenodd" clip-rule="evenodd" fill="#2C77BC" d="M892.582,901.031
		c0,1.994-1.617,3.611-3.612,3.611s-3.611-1.617-3.611-3.611c0-1.996,1.616-3.613,3.611-3.613S892.582,899.035,892.582,901.031"/>
	
		<rect x="559.736" y="648.496" clip-path="url(#SVGID_4_)" fill="none" stroke="#2C77BC" stroke-width="4.455" stroke-miterlimit="10" width="15.677" height="234.799"/>
	
		<rect x="559.736" y="610.779" clip-path="url(#SVGID_4_)" fill="none" stroke="#2C77BC" stroke-width="4.107" stroke-miterlimit="10" width="117.521" height="15.676"/>
	
		<rect x="544.843" y="949.074" clip-path="url(#SVGID_4_)" fill="none" stroke="#2C77BC" stroke-width="4.455" stroke-miterlimit="10" width="78.122" height="15.678"/>
	
		<rect x="726.344" y="610.779" clip-path="url(#SVGID_4_)" fill="none" stroke="#2C77BC" stroke-width="4.455" stroke-miterlimit="10" width="156.244" height="15.676"/>
	
		<rect x="736.512" y="734.551" clip-path="url(#SVGID_4_)" fill="none" stroke="#2C77BC" stroke-width="4.455" stroke-miterlimit="10" width="35.405" height="35.404"/>
	
		<rect x="837.668" y="699.82" clip-path="url(#SVGID_4_)" fill="none" stroke="#2C77BC" stroke-width="4.455" stroke-miterlimit="10" width="35.405" height="17.703"/>
	
		<rect x="888.97" y="660.467" clip-path="url(#SVGID_4_)" fill="none" stroke="#2C77BC" stroke-width="4.455" stroke-miterlimit="10" width="35.406" height="17.703"/>
	
		<rect x="888.97" y="739.184" clip-path="url(#SVGID_4_)" fill="none" stroke="#2C77BC" stroke-width="4.455" stroke-miterlimit="10" width="35.406" height="17.701"/>
	
		<rect x="637.336" y="951.27" clip-path="url(#SVGID_4_)" fill="none" stroke="#2C77BC" stroke-width="4.455" stroke-miterlimit="10" width="106.601" height="40.98"/>
	
		<rect x="778.353" y="951.27" clip-path="url(#SVGID_4_)" fill="none" stroke="#2C77BC" stroke-width="4.455" stroke-miterlimit="10" width="106.602" height="40.98"/>
	
		<rect x="937.999" y="699.82" clip-path="url(#SVGID_4_)" fill="none" stroke="#2C77BC" stroke-width="4.455" stroke-miterlimit="10" width="35.405" height="17.703"/>
	
		<rect x="652.006" y="973.959" clip-path="url(#SVGID_4_)" fill-rule="evenodd" clip-rule="evenodd" fill="#2C77BC" width="4.703" height="4.703"/>
	
		<rect x="670.035" y="973.959" clip-path="url(#SVGID_4_)" fill-rule="evenodd" clip-rule="evenodd" fill="#2C77BC" width="4.703" height="4.703"/>
	
		<rect x="688.063" y="973.959" clip-path="url(#SVGID_4_)" fill-rule="evenodd" clip-rule="evenodd" fill="#2C77BC" width="4.703" height="4.703"/>
	
		<rect x="706.091" y="973.959" clip-path="url(#SVGID_4_)" fill-rule="evenodd" clip-rule="evenodd" fill="#2C77BC" width="4.703" height="4.703"/>
	
		<rect x="724.119" y="973.959" clip-path="url(#SVGID_4_)" fill-rule="evenodd" clip-rule="evenodd" fill="#2C77BC" width="4.703" height="4.703"/>
	
		<rect x="792.84" y="973.959" clip-path="url(#SVGID_4_)" fill-rule="evenodd" clip-rule="evenodd" fill="#2C77BC" width="4.703" height="4.703"/>
	
		<rect x="810.868" y="973.959" clip-path="url(#SVGID_4_)" fill-rule="evenodd" clip-rule="evenodd" fill="#2C77BC" width="4.703" height="4.703"/>
	
		<rect x="828.896" y="973.959" clip-path="url(#SVGID_4_)" fill-rule="evenodd" clip-rule="evenodd" fill="#2C77BC" width="4.703" height="4.703"/>
	
		<rect x="846.924" y="973.959" clip-path="url(#SVGID_4_)" fill-rule="evenodd" clip-rule="evenodd" fill="#2C77BC" width="4.703" height="4.703"/>
	
		<rect x="864.952" y="973.959" clip-path="url(#SVGID_4_)" fill-rule="evenodd" clip-rule="evenodd" fill="#2C77BC" width="4.703" height="4.703"/>
	
		<rect x="905.537" y="954.033" clip-path="url(#SVGID_4_)" fill-rule="evenodd" clip-rule="evenodd" fill="#2C77BC" width="4.703" height="4.703"/>
	
		<rect x="926.631" y="954.033" clip-path="url(#SVGID_4_)" fill-rule="evenodd" clip-rule="evenodd" fill="#2C77BC" width="4.703" height="4.703"/>
	
		<rect x="551.195" y="914.18" clip-path="url(#SVGID_4_)" fill-rule="evenodd" clip-rule="evenodd" fill="#2C77BC" width="4.703" height="4.703"/>
	
		<rect x="572.289" y="914.18" clip-path="url(#SVGID_4_)" fill-rule="evenodd" clip-rule="evenodd" fill="#2C77BC" width="4.703" height="4.703"/>
	
		<rect x="946.191" y="954.033" clip-path="url(#SVGID_4_)" fill-rule="evenodd" clip-rule="evenodd" fill="#2C77BC" width="4.703" height="4.703"/>
	
		<line clip-path="url(#SVGID_4_)" fill="none" stroke="#2C77BC" stroke-width="4.455" stroke-miterlimit="10" x1="564.374" y1="949.074" x2="564.374" y2="964.752"/>
	
		<line clip-path="url(#SVGID_4_)" fill="none" stroke="#2C77BC" stroke-width="4.455" stroke-miterlimit="10" x1="583.904" y1="949.074" x2="583.904" y2="964.752"/>
	
		<line clip-path="url(#SVGID_4_)" fill="none" stroke="#2C77BC" stroke-width="4.455" stroke-miterlimit="10" x1="603.435" y1="949.074" x2="603.435" y2="964.752"/>
	
		<rect x="898.924" y="949.074" clip-path="url(#SVGID_4_)" fill="none" stroke="#2C77BC" stroke-width="3.866" stroke-miterlimit="10" width="58.839" height="15.678"/>
	
		<line clip-path="url(#SVGID_4_)" fill="none" stroke="#2C77BC" stroke-width="4.455" stroke-miterlimit="10" x1="918.454" y1="949.074" x2="918.454" y2="964.752"/>
	
		<line clip-path="url(#SVGID_4_)" fill="none" stroke="#2C77BC" stroke-width="4.455" stroke-miterlimit="10" x1="937.984" y1="949.074" x2="937.984" y2="964.752"/>
	
		<rect x="544.09" y="908.098" clip-path="url(#SVGID_4_)" fill="none" stroke="#2C77BC" stroke-width="4.455" stroke-miterlimit="10" width="39.061" height="15.678"/>
	
		<line clip-path="url(#SVGID_4_)" fill="none" stroke="#2C77BC" stroke-width="4.455" stroke-miterlimit="10" x1="563.621" y1="908.098" x2="563.621" y2="923.775"/>
	
		<line clip-path="url(#SVGID_4_)" fill="none" stroke="#2C77BC" stroke-width="4.455" stroke-miterlimit="10" x1="575.413" y1="863.832" x2="559.735" y2="863.832"/>
	
		<line clip-path="url(#SVGID_4_)" fill="none" stroke="#2C77BC" stroke-width="4.455" stroke-miterlimit="10" x1="575.413" y1="843.803" x2="559.735" y2="843.803"/>
	
		<line clip-path="url(#SVGID_4_)" fill="none" stroke="#2C77BC" stroke-width="4.455" stroke-miterlimit="10" x1="575.413" y1="824.271" x2="559.735" y2="824.271"/>
	
		<line clip-path="url(#SVGID_4_)" fill="none" stroke="#2C77BC" stroke-width="4.455" stroke-miterlimit="10" x1="575.413" y1="804.742" x2="559.735" y2="804.742"/>
	
		<line clip-path="url(#SVGID_4_)" fill="none" stroke="#2C77BC" stroke-width="4.455" stroke-miterlimit="10" x1="575.413" y1="785.211" x2="559.735" y2="785.211"/>
	
		<line clip-path="url(#SVGID_4_)" fill="none" stroke="#2C77BC" stroke-width="4.455" stroke-miterlimit="10" x1="575.413" y1="765.68" x2="559.735" y2="765.68"/>
	
		<line clip-path="url(#SVGID_4_)" fill="none" stroke="#2C77BC" stroke-width="4.455" stroke-miterlimit="10" x1="575.413" y1="746.15" x2="559.735" y2="746.15"/>
	
		<line clip-path="url(#SVGID_4_)" fill="none" stroke="#2C77BC" stroke-width="4.455" stroke-miterlimit="10" x1="575.413" y1="726.619" x2="559.735" y2="726.619"/>
	
		<line clip-path="url(#SVGID_4_)" fill="none" stroke="#2C77BC" stroke-width="4.455" stroke-miterlimit="10" x1="575.413" y1="707.09" x2="559.735" y2="707.09"/>
	
		<line clip-path="url(#SVGID_4_)" fill="none" stroke="#2C77BC" stroke-width="4.455" stroke-miterlimit="10" x1="575.413" y1="687.559" x2="559.735" y2="687.559"/>
	
		<line clip-path="url(#SVGID_4_)" fill="none" stroke="#2C77BC" stroke-width="4.455" stroke-miterlimit="10" x1="575.413" y1="668.027" x2="559.735" y2="668.027"/>
	
		<line clip-path="url(#SVGID_4_)" fill="none" stroke="#2C77BC" stroke-width="4.455" stroke-miterlimit="10" x1="745.874" y1="626.455" x2="745.874" y2="610.779"/>
	
		<line clip-path="url(#SVGID_4_)" fill="none" stroke="#2C77BC" stroke-width="4.455" stroke-miterlimit="10" x1="657.389" y1="626.455" x2="657.389" y2="610.779"/>
	
		<line clip-path="url(#SVGID_4_)" fill="none" stroke="#2C77BC" stroke-width="4.455" stroke-miterlimit="10" x1="637.858" y1="626.455" x2="637.858" y2="610.779"/>
	
		<line clip-path="url(#SVGID_4_)" fill="none" stroke="#2C77BC" stroke-width="4.455" stroke-miterlimit="10" x1="618.327" y1="626.455" x2="618.327" y2="610.779"/>
	
		<line clip-path="url(#SVGID_4_)" fill="none" stroke="#2C77BC" stroke-width="4.455" stroke-miterlimit="10" x1="598.797" y1="626.455" x2="598.797" y2="610.779"/>
	
		<line clip-path="url(#SVGID_4_)" fill="none" stroke="#2C77BC" stroke-width="4.455" stroke-miterlimit="10" x1="579.267" y1="626.455" x2="579.267" y2="610.779"/>
	
		<line clip-path="url(#SVGID_4_)" fill="none" stroke="#2C77BC" stroke-width="4.455" stroke-miterlimit="10" x1="765.405" y1="626.455" x2="765.405" y2="610.779"/>
	
		<line clip-path="url(#SVGID_4_)" fill="none" stroke="#2C77BC" stroke-width="4.455" stroke-miterlimit="10" x1="784.936" y1="626.455" x2="784.936" y2="610.779"/>
	
		<line clip-path="url(#SVGID_4_)" fill="none" stroke="#2C77BC" stroke-width="4.455" stroke-miterlimit="10" x1="804.466" y1="626.455" x2="804.466" y2="610.779"/>
	
		<line clip-path="url(#SVGID_4_)" fill="none" stroke="#2C77BC" stroke-width="4.455" stroke-miterlimit="10" x1="823.996" y1="626.455" x2="823.996" y2="610.779"/>
	
		<line clip-path="url(#SVGID_4_)" fill="none" stroke="#2C77BC" stroke-width="4.455" stroke-miterlimit="10" x1="843.527" y1="626.455" x2="843.527" y2="610.779"/>
	
		<line clip-path="url(#SVGID_4_)" fill="none" stroke="#2C77BC" stroke-width="4.455" stroke-miterlimit="10" x1="863.058" y1="626.455" x2="863.058" y2="610.779"/>
</g>
<path fill="#2A77BC" d="M597.768,595.938v6.028h-2.126v-13.761h4c2.436,0,3.783,1.307,3.783,3.689c0,2.012-1.046,2.877-1.804,3.161
	c1.137,0.483,1.604,1.464,1.604,3.461v0.549c0,1.467,0.063,2.162,0.189,2.9h-2.082c-0.197-0.629-0.226-1.766-0.226-2.926v-0.49
	c0-1.882-0.414-2.612-2.073-2.612H597.768z M597.768,594.187h1.361c1.551,0,2.15-0.744,2.15-2.206c0-1.253-0.591-2.022-1.941-2.022
	h-1.571V594.187z M613.686,594.976c0,4.917-1.282,7.216-4.388,7.216c-2.919,0-4.271-2.25-4.271-7.226
	c0-4.871,1.577-6.971,4.368-6.971C612.343,587.995,613.686,590.237,613.686,594.976z M607.223,594.938
	c0,3.491,0.598,5.444,2.13,5.444c1.603,0,2.138-1.84,2.138-5.433c0-3.473-0.574-5.132-2.144-5.132
	C607.803,589.818,607.223,591.64,607.223,594.938z M615.691,588.206h3.986c2.275,0,3.571,1.292,3.571,3.441
	c0,1.772-0.849,2.602-1.624,2.885c0.996,0.389,2.04,1.305,2.04,3.394c0,2.566-1.631,4.041-4.058,4.041h-3.916V588.206z
	 M619.111,593.78c1.598,0,2.076-0.651,2.076-1.938c0-1.262-0.664-1.919-1.955-1.919h-1.443v3.856H619.111z M617.789,600.277h1.6
	c1.363,0,2.13-0.748,2.13-2.383c0-1.563-0.708-2.425-2.405-2.425h-1.324V600.277z M633.73,594.976c0,4.917-1.282,7.216-4.389,7.216
	c-2.918,0-4.27-2.25-4.27-7.226c0-4.871,1.576-6.971,4.367-6.971C632.387,587.995,633.73,590.237,633.73,594.976z M627.268,594.938
	c0,3.491,0.597,5.444,2.13,5.444c1.602,0,2.138-1.84,2.138-5.433c0-3.473-0.574-5.132-2.145-5.132
	C627.848,589.818,627.268,591.64,627.268,594.938z M637.278,590.087h-2.983v-1.881h8.107v1.881h-2.983v11.88h-2.141V590.087z
	 M649.69,588.206v13.761h-2.141v-13.761H649.69z M652.241,601.967v-13.761h2.478c3.172,8.26,3.715,9.659,3.883,10.308h0.021
	c-0.109-1.722-0.122-3.763-0.122-6.011v-4.297h1.934v13.761h-2.374c-3.284-8.757-3.794-10.15-3.965-10.751h-0.021
	c0.102,1.703,0.107,3.807,0.107,6.276v4.475H652.241z M667.761,601.967h-2.141l3.232-13.761h2.775l3.29,13.761h-2.251l-0.797-3.771
	h-3.318L667.761,601.967z M671.476,596.328c-0.611-2.889-1.058-4.891-1.263-6.13h-0.055c-0.175,1.243-0.654,3.449-1.218,6.13
	H671.476z M687.821,598.027c-0.061,0.732-0.354,4.164-4.006,4.164c-3.827,0-4.217-3.586-4.217-7.151c0-4.3,1.221-7.045,4.371-7.045
	c3.534,0,3.784,3.121,3.833,4.133h-2.124c-0.034-0.467-0.085-2.297-1.743-2.297c-1.76,0-2.121,2.258-2.121,5.246
	c0,2.702,0.279,5.308,2.042,5.308c1.593,0,1.766-1.771,1.826-2.357H687.821z M690.811,601.967h-2.141l3.233-13.761h2.774
	l3.29,13.761h-2.25l-0.798-3.771h-3.317L690.811,601.967z M694.525,596.328c-0.61-2.889-1.057-4.891-1.262-6.13h-0.056
	c-0.174,1.243-0.653,3.449-1.218,6.13H694.525z M699.253,601.967v-13.761h2.478c3.173,8.26,3.715,9.659,3.884,10.308h0.021
	c-0.11-1.722-0.122-3.763-0.122-6.011v-4.297h1.933v13.761h-2.374c-3.284-8.757-3.794-10.15-3.964-10.751h-0.021
	c0.102,1.703,0.107,3.807,0.107,6.276v4.475H699.253z"/>
<path fill="#2A77BC" d="M666.949,748.826v-1.643c0.408-0.055,0.753-0.096,1.278-0.109c-1.044-0.561-1.504-1.424-1.504-2.74
	c0-2.91,2.734-3.861,7.043-3.861c4.926,0,7.153,1.613,7.153,4.514c0,3.582-3.104,3.791-3.923,3.83v-2.117
	c0.532-0.041,2.1-0.156,2.1-1.775c0-1.711-2.175-2.236-5.318-2.236c-3.287,0-5.246,0.426-5.246,2.119
	c0,1.494,1.189,1.898,3.509,1.898h0.737v-2.035h1.838v4.156C674.615,748.826,666.949,748.826,666.949,748.826z M673.939,773.398
	c-4.916,0-7.216-1.281-7.216-4.387c0-2.92,2.249-4.271,7.226-4.271c4.871,0,6.971,1.578,6.971,4.369
	C680.92,772.057,678.678,773.398,673.939,773.398z M680.708,755.006c0,2.234-1.36,3.865-4.003,3.865c-2.586,0-4.04-1.475-4.04-4.066
	v-1.596h-5.716v-2.141h13.759V755.006z M680.708,762.693h-13.759v-2.141h13.759V762.693z M673.976,766.936
	c-3.489,0-5.443,0.598-5.443,2.131c0,1.602,1.84,2.137,5.432,2.137c3.473,0,5.133-0.574,5.133-2.143
	C679.097,767.518,677.274,766.936,673.976,766.936z M674.403,753.209v1.359c0,1.463,0.744,2.15,2.33,2.15
	c1.425,0,2.223-0.738,2.223-2.006v-1.504H674.403z"/>
<path fill="#2A77BC" d="M680.982,645.771h1.293v7.201h2.887l-0.141,1.109h-4.039V645.771z M687.229,645.771v8.311h-1.293v-8.311
	H687.229z M693.511,654.082h-0.992c-0.033-0.246-0.058-0.455-0.066-0.771c-0.338,0.631-0.859,0.908-1.655,0.908
	c-1.758,0-2.332-1.652-2.332-4.254c0-2.977,0.975-4.322,2.727-4.322c2.163,0,2.289,1.875,2.314,2.371h-1.279
	c-0.025-0.322-0.095-1.27-1.073-1.27c-1.032,0-1.351,1.314-1.351,3.213c0,1.986,0.257,3.17,1.28,3.17
	c0.902,0,1.146-0.719,1.146-2.121v-0.445H691v-1.109h2.511V654.082z M694.863,645.771h1.293v3.361h2.24v-3.361h1.293v8.311h-1.293
	v-3.822h-2.24v3.822h-1.293V645.771z M702.31,646.906h-1.802v-1.135h4.897v1.135h-1.803v7.176h-1.293V646.906z"/>
<path fill="#2A77BC" d="M738.98,724.018v3.641h-1.284v-8.313h2.416c1.472,0,2.285,0.789,2.285,2.229c0,1.215-0.632,1.738-1.09,1.91
	c0.688,0.291,0.97,0.885,0.97,2.09v0.332c0,0.885,0.038,1.307,0.114,1.752h-1.258c-0.119-0.381-0.136-1.066-0.136-1.768v-0.297
	c0-1.135-0.251-1.576-1.253-1.576H738.98z M738.98,722.959h0.822c0.938,0,1.299-0.451,1.299-1.334c0-0.756-0.356-1.221-1.172-1.221
	h-0.949V722.959z M748.41,727.658h-0.992c-0.033-0.248-0.058-0.455-0.066-0.773c-0.338,0.631-0.859,0.908-1.655,0.908
	c-1.758,0-2.332-1.65-2.332-4.254c0-2.975,0.974-4.32,2.727-4.32c2.163,0,2.289,1.875,2.313,2.369h-1.279
	c-0.024-0.322-0.094-1.268-1.072-1.268c-1.033,0-1.351,1.313-1.351,3.211c0,1.986,0.257,3.17,1.28,3.17
	c0.902,0,1.146-0.719,1.146-2.119v-0.445h-1.229v-1.111h2.511V727.658z M749.754,719.346h2.408c1.374,0,2.157,0.781,2.157,2.078
	c0,1.072-0.513,1.572-0.981,1.744c0.602,0.234,1.232,0.787,1.232,2.049c0,1.551-0.985,2.441-2.451,2.441h-2.365V719.346z
	 M751.819,722.713c0.965,0,1.255-0.393,1.255-1.17c0-0.762-0.401-1.16-1.182-1.16h-0.871v2.33H751.819z M751.021,726.637h0.966
	c0.823,0,1.286-0.451,1.286-1.439c0-0.943-0.428-1.463-1.453-1.463h-0.799V726.637z M758.051,719.346h1.293v7.201h2.887
	l-0.141,1.111h-4.039V719.346z M766.984,723.863h-2.704v2.676h3.024l-0.163,1.119h-4.137v-8.313h4.109v1.137h-2.834v2.252h2.704
	V723.863z M768.241,719.346h2.057c2.063,0,2.903,1.359,2.903,3.969c0,2.813-0.791,4.344-3.025,4.344h-1.935V719.346z
	 M769.542,726.59h0.611c1.284,0,1.713-0.988,1.713-3.26c0-2.014-0.428-2.9-1.701-2.9h-0.623V726.59z"/>
<path fill="#2A77BC" d="M815.861,769.93h2.407c1.375,0,2.157,0.779,2.157,2.078c0,1.07-0.513,1.57-0.981,1.742
	c0.603,0.234,1.233,0.787,1.233,2.049c0,1.551-0.985,2.441-2.452,2.441h-2.364V769.93z M817.927,773.297
	c0.965,0,1.254-0.395,1.254-1.172c0-0.762-0.4-1.158-1.181-1.158h-0.872v2.33H817.927z M817.128,777.221h0.967
	c0.822,0,1.286-0.453,1.286-1.439c0-0.945-0.428-1.465-1.453-1.465h-0.8V777.221z M823.027,774.6v3.641h-1.284v-8.311h2.417
	c1.471,0,2.284,0.787,2.284,2.227c0,1.217-0.632,1.738-1.089,1.91c0.687,0.293,0.969,0.885,0.969,2.092v0.33
	c0,0.887,0.038,1.307,0.114,1.752h-1.258c-0.118-0.381-0.136-1.066-0.136-1.768v-0.295c0-1.137-0.25-1.578-1.252-1.578H823.027z
	 M823.027,773.541h0.823c0.937,0,1.299-0.449,1.299-1.332c0-0.758-0.357-1.223-1.173-1.223h-0.949V773.541z M831.621,774.445h-2.703
	v2.676h3.023l-0.163,1.119h-4.137v-8.311h4.109v1.135h-2.833v2.254h2.703V774.445z M833.824,778.24h-1.293l1.953-8.311h1.677
	l1.987,8.311h-1.359l-0.482-2.277h-2.004L833.824,778.24z M836.068,774.834c-0.368-1.744-0.639-2.953-0.763-3.701h-0.032
	c-0.105,0.75-0.396,2.084-0.736,3.701H836.068z M838.922,769.93h2.057c2.063,0,2.903,1.359,2.903,3.969
	c0,2.811-0.79,4.342-3.024,4.342h-1.936V769.93z M840.224,777.174h0.61c1.285,0,1.713-0.988,1.713-3.262
	c0-2.012-0.428-2.898-1.7-2.898h-0.623V777.174z M845.081,769.93h2.408c1.374,0,2.157,0.779,2.157,2.078
	c0,1.07-0.513,1.57-0.981,1.742c0.603,0.234,1.232,0.787,1.232,2.049c0,1.551-0.985,2.441-2.451,2.441h-2.365V769.93z
	 M847.146,773.297c0.966,0,1.255-0.395,1.255-1.172c0-0.762-0.401-1.158-1.181-1.158h-0.872v2.33H847.146z M846.349,777.221h0.966
	c0.823,0,1.287-0.453,1.287-1.439c0-0.945-0.428-1.465-1.453-1.465h-0.8V777.221z M855.976,774.018c0,2.969-0.774,4.359-2.651,4.359
	c-1.763,0-2.579-1.359-2.579-4.365c0-2.941,0.953-4.211,2.639-4.211C855.164,769.801,855.976,771.156,855.976,774.018z
	 M852.071,773.996c0,2.107,0.36,3.287,1.286,3.287c0.968,0,1.292-1.111,1.292-3.281c0-2.098-0.347-3.1-1.295-3.1
	C852.422,770.902,852.071,772.002,852.071,773.996z M857.761,778.24h-1.293l1.953-8.311h1.677l1.986,8.311h-1.358l-0.482-2.277
	h-2.004L857.761,778.24z M860.005,774.834c-0.368-1.744-0.639-2.953-0.763-3.701h-0.033c-0.105,0.75-0.395,2.084-0.735,3.701
	H860.005z M864.143,774.6v3.641h-1.284v-8.311h2.417c1.471,0,2.284,0.787,2.284,2.227c0,1.217-0.632,1.738-1.089,1.91
	c0.687,0.293,0.969,0.885,0.969,2.092v0.33c0,0.887,0.038,1.307,0.114,1.752h-1.258c-0.119-0.381-0.136-1.066-0.136-1.768v-0.295
	c0-1.137-0.25-1.578-1.252-1.578H864.143z M864.143,773.541h0.823c0.937,0,1.299-0.449,1.299-1.332c0-0.758-0.357-1.223-1.173-1.223
	h-0.949V773.541z M868.757,769.93h2.057c2.063,0,2.903,1.359,2.903,3.969c0,2.811-0.79,4.342-3.024,4.342h-1.936V769.93z
	 M870.059,777.174h0.61c1.285,0,1.713-0.988,1.713-3.262c0-2.012-0.428-2.898-1.7-2.898h-0.623V777.174z"/>
<path fill="#2A77BC" d="M677.197,702.387c0.069,0.746,0.393,1.379,1.204,1.379c0.78,0,1.108-0.465,1.108-1.199
	c0-0.748-0.342-1.168-1.421-1.686c-1.381-0.658-1.944-1.248-1.944-2.473c0-1.268,0.813-2.178,2.267-2.178
	c1.779,0,2.23,1.225,2.255,2.271h-1.267c-0.046-0.451-0.168-1.24-1.017-1.24c-0.661,0-0.95,0.439-0.95,1.037
	c0,0.666,0.297,0.979,1.294,1.447c1.479,0.689,2.101,1.367,2.101,2.705c0,1.309-0.785,2.346-2.464,2.346
	c-1.827,0-2.397-1.178-2.454-2.41H677.197z M685.894,700.871h-2.704v2.676h3.024l-0.163,1.119h-4.137v-8.313h4.109v1.137h-2.834
	v2.252h2.704V700.871z M687.15,704.666v-8.313h1.496c1.917,4.99,2.244,5.834,2.346,6.225h0.013
	c-0.066-1.037-0.073-2.271-0.073-3.629v-2.596h1.167v8.313h-1.434c-1.983-5.289-2.292-6.131-2.396-6.494h-0.012
	c0.062,1.029,0.064,2.299,0.064,3.791v2.703H687.15z M694.389,702.387c0.07,0.746,0.393,1.379,1.204,1.379
	c0.78,0,1.108-0.465,1.108-1.199c0-0.748-0.342-1.168-1.42-1.686c-1.382-0.658-1.945-1.248-1.945-2.473
	c0-1.268,0.814-2.178,2.267-2.178c1.78,0,2.231,1.225,2.256,2.271h-1.268c-0.045-0.451-0.168-1.24-1.017-1.24
	c-0.66,0-0.949,0.439-0.949,1.037c0,0.666,0.296,0.979,1.293,1.447c1.479,0.689,2.102,1.367,2.102,2.705
	c0,1.309-0.786,2.346-2.465,2.346c-1.827,0-2.397-1.178-2.454-2.41H694.389z M704.068,700.443c0,2.969-0.774,4.357-2.65,4.357
	c-1.763,0-2.579-1.357-2.579-4.365c0-2.941,0.952-4.209,2.638-4.209C703.257,696.227,704.068,697.58,704.068,700.443z
	 M700.165,700.42c0,2.109,0.36,3.289,1.286,3.289c0.968,0,1.291-1.111,1.291-3.281c0-2.098-0.347-3.1-1.295-3.1
	C700.516,697.328,700.165,698.428,700.165,700.42z M706.569,701.025v3.641h-1.284v-8.313h2.416c1.472,0,2.285,0.789,2.285,2.229
	c0,1.215-0.632,1.738-1.089,1.91c0.687,0.291,0.969,0.885,0.969,2.09v0.332c0,0.885,0.038,1.307,0.114,1.752h-1.258
	c-0.119-0.381-0.136-1.066-0.136-1.768v-0.297c0-1.135-0.251-1.576-1.253-1.576H706.569z M706.569,699.967h0.823
	c0.937,0,1.299-0.451,1.299-1.334c0-0.756-0.357-1.221-1.173-1.221h-0.949V699.967z"/>
<text transform="matrix(1 0 0 1 583.6572 666.0469)"><tspan x="0" y="0" fill="#2A77BC" font-family="'OCRAStd'" font-size="15.3282">3.3 </tspan><tspan x="41.14" y="0" fill="#2A77BC" font-family="'OCRAStd'" font-size="15.3282">V</tspan></text>
<text transform="matrix(1 0 0 1 583.6572 685.3613)"><tspan x="0" y="0" fill="#2A77BC" font-family="'OCRAStd'" font-size="15.3282">GN</tspan><tspan x="20.57" y="0" fill="#2A77BC" font-family="'OCRAStd'" font-size="15.3282">D</tspan></text>
<text transform="matrix(1 0 0 1 583.6572 723.9883)"><tspan x="0" y="0" fill="#2A77BC" font-family="'OCRAStd'" font-size="15.3282">4 (IO</tspan><tspan x="51.425" y="0" fill="#2A77BC" font-family="'OCRAStd'" font-size="15.3282">)</tspan></text>
<text transform="matrix(1 0 0 1 583.6572 743.3008)"><tspan x="0" y="0" fill="#2A77BC" font-family="'OCRAStd'" font-size="15.3282">5 (PW</tspan><tspan x="51.425" y="0" fill="#2A77BC" font-family="'OCRAStd'" font-size="15.3282">)</tspan></text>
<text transform="matrix(1 0 0 1 583.6572 762.6152)"><tspan x="0" y="0" fill="#2A77BC" font-family="'OCRAStd'" font-size="15.3282">10 (PW</tspan><tspan x="61.71" y="0" fill="#2A77BC" font-family="'OCRAStd'" font-size="15.3282">)</tspan></text>
<text transform="matrix(1 0 0 1 583.6572 781.9277)"><tspan x="0" y="0" fill="#2A77BC" font-family="'OCRAStd'" font-size="15.3282">16 (PW</tspan><tspan x="61.71" y="0" fill="#2A77BC" font-family="'OCRAStd'" font-size="15.3282">)</tspan></text>
<text transform="matrix(1 0 0 1 583.6572 801.2422)"><tspan x="0" y="0" fill="#2A77BC" font-family="'OCRAStd'" font-size="15.3282">14 (L</tspan><tspan x="51.425" y="0" fill="#2A77BC" font-family="'OCRAStd'" font-size="15.3282">)</tspan></text>
<text transform="matrix(1 0 0 1 583.6572 820.5547)"><tspan x="0" y="0" fill="#2A77BC" font-family="'OCRAStd'" font-size="15.3282">12 (D</tspan><tspan x="51.425" y="0" fill="#2A77BC" font-family="'OCRAStd'" font-size="15.3282">)</tspan></text>
<text transform="matrix(1 0 0 1 583.6572 839.8691)"><tspan x="0" y="0" fill="#2A77BC" font-family="'OCRAStd'" font-size="15.3282">13 (C</tspan><tspan x="51.425" y="0" fill="#2A77BC" font-family="'OCRAStd'" font-size="15.3282">)</tspan></text>
<text transform="matrix(1 0 0 1 896.3525 653.7852)"><tspan x="0" y="0" fill="#2A77BC" font-family="'OCRAStd'" font-size="15.3282">S</tspan><tspan x="10.285" y="0" fill="#2A77BC" font-family="'OCRAStd'" font-size="15.3282">1</tspan></text>
<text transform="matrix(1 0 0 1 896.3525 774.877)"><tspan x="0" y="0" fill="#2A77BC" font-family="'OCRAStd'" font-size="15.3282">S</tspan><tspan x="10.285" y="0" fill="#2A77BC" font-family="'OCRAStd'" font-size="15.3282">3</tspan></text>
<text transform="matrix(1 0 0 1 845.7695 735.0234)"><tspan x="0" y="0" fill="#2A77BC" font-family="'OCRAStd'" font-size="15.3282">S</tspan><tspan x="10.285" y="0" fill="#2A77BC" font-family="'OCRAStd'" font-size="15.3282">4</tspan></text>
<text transform="matrix(1 0 0 1 946.9355 735.0234)"><tspan x="0" y="0" fill="#2A77BC" font-family="'OCRAStd'" font-size="15.3282">S</tspan><tspan x="10.285" y="0" fill="#2A77BC" font-family="'OCRAStd'" font-size="15.3282">2</tspan></text>
<text transform="matrix(1 0 0 1 585.189 859.1816)"><tspan x="0" y="0" fill="#2A77BC" font-family="'OCRAStd'" font-size="10.7297">0 (12C-D</tspan><tspan x="57.596" y="0" fill="#2A77BC" font-family="'OCRAStd'" font-size="10.7297">)</tspan></text>
<text transform="matrix(1 0 0 1 585.189 878.4941)"><tspan x="0" y="0" fill="#2A77BC" font-family="'OCRAStd'" font-size="10.7297">2 (12C-D</tspan><tspan x="57.596" y="0" fill="#2A77BC" font-family="'OCRAStd'" font-size="10.7297">)</tspan></text>
<text transform="matrix(1 0 0 1 543.5469 900.5664)"><tspan x="0" y="0" fill="#2A77BC" font-family="'OCRAStd'" font-size="10.7297">V + GN</tspan><tspan x="43.197" y="0" fill="#2A77BC" font-family="'OCRAStd'" font-size="10.7297">D</tspan></text>
<text transform="matrix(1 0 0 1 545.3389 943.4844)"><tspan x="0" y="0" fill="#2A77BC" font-family="'OCRAStd'" font-size="10.7297">C</tspan><tspan x="7.2" y="0" fill="#2A77BC" font-family="'OCRAStd'" font-size="10.7297">K</tspan></text>
<text transform="matrix(1 0 0 1 606.6484 943.4844)"><tspan x="0" y="0" fill="#2A77BC" font-family="'OCRAStd'" font-size="10.7297">C</tspan><tspan x="7.199" y="0" fill="#2A77BC" font-family="'OCRAStd'" font-size="10.7297">O</tspan></text>
<text transform="matrix(1 0 0 1 586.7231 943.4844)"><tspan x="0" y="0" fill="#2A77BC" font-family="'OCRAStd'" font-size="10.7297">M</tspan><tspan x="7.2" y="0" fill="#2A77BC" font-family="'OCRAStd'" font-size="10.7297">I</tspan></text>
<text transform="matrix(1 0 0 1 566.7983 943.4844)"><tspan x="0" y="0" fill="#2A77BC" font-family="'OCRAStd'" font-size="10.7297">M</tspan><tspan x="7.2" y="0" fill="#2A77BC" font-family="'OCRAStd'" font-size="10.7297">O</tspan></text>
<g>
	<defs>
		<rect id="SVGID_5_" x="27.756" y="103.199" width="1210" height="1178"/>
	</defs>
	<clipPath id="SVGID_6_">
		<use xlink:href="#SVGID_5_"  overflow="visible"/>
	</clipPath>
	
		<rect x="967.429" y="845.402" clip-path="url(#SVGID_6_)" fill="none" stroke="#2C77BC" stroke-width="4.455" stroke-miterlimit="10" width="19.509" height="45.906"/>
	
		<rect x="986.938" y="849.613" clip-path="url(#SVGID_6_)" fill-rule="evenodd" clip-rule="evenodd" fill="#2C77BC" width="8.188" height="8.188"/>
</g>
<text transform="matrix(1 0 0 1 977.1914 909.9941)" fill="#2C77BC" font-family="'Nunito-ExtraBold'" font-size="21.384">0</text>
<text transform="matrix(1 0 0 1 977.1914 835.8555)" fill="#2C77BC" font-family="'Nunito-ExtraBold'" font-size="21.384">1</text>
<g>
	<defs>
		<rect id="SVGID_7_" x="27.756" y="103.199" width="1210" height="1178"/>
	</defs>
	<clipPath id="SVGID_8_">
		<use xlink:href="#SVGID_7_"  overflow="visible"/>
	</clipPath>
	<path clip-path="url(#SVGID_8_)" fill="none" stroke="#2A77BC" stroke-width="1.895" stroke-miterlimit="10" d="M558.975,646.32
		h80.984c12.506,0,22.736,10.232,22.736,22.736v193.646c0,12.506-10.23,22.736-22.736,22.736h-80.984"/>
	<rect x="576.091" y="687.707" clip-path="url(#SVGID_8_)" fill="#2A77BC" width="85.838" height="19.926"/>
</g>
<text transform="matrix(1 0 0 1 608.1816 704.3672)"><tspan x="0" y="0" fill="#FFFFFF" font-family="'OCRAStd'" font-size="16.3571">A</tspan><tspan x="10.975" y="0" fill="#FFFFFF" font-family="'OCRAStd'" font-size="16.3571">O</tspan></text>
<g>
	<defs>
		<rect id="SVGID_9_" x="27.756" y="103.199" width="1210" height="1178"/>
	</defs>
	<clipPath id="SVGID_10_">
		<use xlink:href="#SVGID_9_"  overflow="visible"/>
	</clipPath>
	
		<line clip-path="url(#SVGID_10_)" fill="none" stroke="#2A77BC" stroke-width="1.533" stroke-miterlimit="10" x1="575.325" y1="785.041" x2="662.695" y2="785.041"/>
	
		<line clip-path="url(#SVGID_10_)" fill="none" stroke="#2A77BC" stroke-width="1.533" stroke-miterlimit="10" x1="575.325" y1="842.521" x2="662.695" y2="842.521"/>
	<path clip-path="url(#SVGID_10_)" fill="none" stroke="#2C77BC" stroke-width="4.455" stroke-miterlimit="10" d="M711.684,675.596
		c0-6.451-3.345-12.154-8.38-15.48h-20.331c-5.035,3.326-8.381,9.029-8.381,15.48c0,5.805,2.708,11.004,6.918,14.41h23.256
		C708.976,686.6,711.684,681.4,711.684,675.596z"/>
</g>
<rect x="27.756" y="103.199" fill="none" width="1210" height="1178"/>
<path fill="none" stroke="#010101" stroke-width="6.7365" stroke-miterlimit="10" d="M181.189,129.136"/>
<path fill="none" d="M599.597,440.123c-1.546-4.374-2.796-8.814-4.523-13.091c-0.756-1.891-1.645-3.224-2.466-4.72v45.031
	C600.156,461.06,603.083,449.991,599.597,440.123z"/>
<path d="M592.608,381.113v-18.749h-2.566c0.576,2.861,1.25,5.723,1.513,8.732C591.851,374.452,592.246,377.757,592.608,381.113z"/>
<path fill="#FF9425" d="M591.555,383.926c1.825,4.424,3.486,8.47,5.345,12.992c-3.799,2.088-7.647,3.93-11.48,5.855h18.635
	c4.309-2.681,8.486-5.477,12.631-8.355v-13.272C610.863,385.932,602.394,387.971,591.555,383.926z"/>
<path fill="#FF9425" d="M214.222,320.623h0.691c1.743,0,4.037-0.363,6.866-1.119c7.138-1.81,12.277-2.697,15.394-2.697
	c2.557,0,4.004,0.46,4.391,1.447c0.354,0.954,1.587,2.796,3.643,5.559c2.072,2.763,3.248,5.082,3.569,6.941v0.97
	c0,1.826-0.773,3.24-2.344,4.211c-1.916,1.167-8.568,4.243-19.99,9.243c-9.934,4.227-15.123,6.348-15.592,6.348
	c-0.131,0.247-1.11,6.892-2.943,19.884c14.736-9.802,25.007-14.704,30.812-14.704c1.521,0,2.681,0.444,3.503,1.348
	c1.974,1.925,3.824,4.573,5.559,7.994c1.735,3.421,2.829,6.381,3.306,8.947c0.049,0.378,0.083,0.691,0.132,0.954
	c0.033,0.494,0.065,0.921,0.065,1.151c0,1.349-0.354,2.418-1.094,3.174c-1.431,1.661-9.275,5.839-23.56,12.483
	c-13.511,6.43-21.561,9.604-24.185,9.604c-0.403,0-0.756-0.033-1.028-0.197c-9.432-3.453-14.604-7.795-15.525-12.96l-0.066-0.493
	c-0.058-0.527-0.074-1.02-0.074-1.547c0.46-10.887,2.105-28.041,4.934-51.444c3.856-30.755,7.664-47.003,11.472-48.747
	c3.725-1.595,9.851-3.438,18.412-5.493c9.695-2.303,16.857-3.421,21.487-3.421c3.249,0,5.205,0.79,5.847,2.384
	c1.628,3.175,2.813,6.547,3.487,10.181c0.099,0.641,0.164,1.25,0.214,1.825c0.033,0.773,0.066,1.448,0.066,2.024
	c0,2.598-0.617,4.572-1.851,5.871c-1.299,1.333-7.713,2.912-19.3,4.704c-9.802,1.595-14.703,2.55-14.736,2.878
	c-0.017,0.328-0.37,3.256-1.061,8.848L214.222,320.623z"/>
<path fill="#FF9425" d="M303.716,254.278c11.85,0,20.188,1.233,24.991,3.75c6.734,3.421,10.739,8.453,12.022,15.098
	c0.083,0.575,0.156,1.184,0.206,1.842c0.082,0.871,0.131,1.809,0.131,2.78c0,9.341-4.325,19.801-12.984,31.331
	c2.697,2.499,5.798,7.598,9.26,15.394c3.947,8.388,6.924,17.63,8.93,27.679l0.132,0.445c0.123,0.493,0.238,0.97,0.271,1.48
	c0.033,0.724,0.065,1.381,0.065,2.006c0,9.966-7.59,19.851-22.803,29.718c-13.963,9.045-27.383,14.655-40.245,16.842
	c-1.233,0.279-2.516,0.378-3.84,0.378c-6.406,0-12.212-2.467-17.384-7.336c-5.172-4.851-8.486-11.479-9.95-19.801
	c-0.223-1.201-0.403-2.435-0.56-3.651c-0.131-1.299-0.197-2.599-0.197-3.947c4.581-33.42,9.243-65.342,14.004-95.653
	C269.54,260.412,282.188,254.278,303.716,254.278z M291.62,372.462c3.166,0,8.47-2.401,15.937-7.237
	c2.64-1.727,5.255-4.556,7.763-8.553c2.64-4.045,3.972-7.696,3.972-10.953c0-0.362-0.016-0.724-0.05-1.053
	c-0.033-0.263-0.098-0.591-0.156-0.97c-0.501-3.042-2.492-5.477-5.962-7.384c-1.546-0.971-3.585-1.448-6.11-1.448
	c-6.924,0-15.493,2.731-25.747,8.158c-1.299,6.217-1.924,11.447-1.924,15.69c0,1.135,0.033,2.205,0.14,3.158
	c0.049,0.46,0.082,0.873,0.131,1.25c0.239,1.134,0.535,2.006,0.888,2.599C283.553,370.226,287.262,372.462,291.62,372.462z
	 M303.025,299.669c7.138-4.604,10.707-10.986,10.707-19.127v-0.181l-0.066-0.673c-0.32-1.925-2.648-2.912-6.94-2.912
	c-5.592,0-11.348,1.612-17.293,4.835l-3.66,24.505C292.056,305.212,297.803,303.09,303.025,299.669z"/>
<path fill="#FF9425" d="M389.707,353.039c17.022,9.819,26.792,20.344,29.258,31.659l0.198,0.542v0.872
	c0.049,0.345,0.082,0.658,0.082,1.068c0,2.237-0.822,4.655-2.483,7.204c-2.319,3.355-4.671,5.017-7.006,5.017
	c-1.743,0-2.977-1.053-3.717-3.158c-2.566-9.473-12.984-20.904-31.24-34.225c-3.298,1.529-6.586,2.483-9.884,2.894
	c0.049,0,0.082,0.017,0.082,0.067c0,0.806-0.921,5.048-2.746,12.812c-2.476,10.559-4.104,16.661-4.901,18.288
	c-1.949,4.178-4.564,6.316-7.813,6.316c-3.117,0-6.233-1.957-9.342-5.872c-2.648-3.173-4.251-6.331-4.802-9.407v-0.971
	c0-1.15,0.337-2.038,1.028-2.598c3.889-3.174,7.647-14.604,11.249-34.406c1.751-11.036,3.438-22.055,5.082-33.025
	c0.107-0.477,0.156-1.118,0.156-1.874c0-0.987-0.066-2.089-0.222-3.372c-0.083-0.954-0.255-2.121-0.469-3.454
	c-0.419-2.483-0.707-4.621-0.896-6.364c-0.131-1.414-0.197-2.565-0.197-3.453v-0.773c0.181-5.839,8.265-11.266,24.234-16.348
	c1.545-0.444,3.684-0.691,6.381-0.691c6.833,0,13.239,1.497,19.234,4.44c8.224,4.112,14.094,10.345,17.581,18.766
	c0.346,0.889,0.658,1.81,0.888,2.779c0.05,0.313,0.115,0.675,0.148,1.07c0.065,0.575,0.131,1.201,0.131,1.908
	c0,6.102-2.96,13.437-8.865,22.039C404.36,340.079,397.297,347.529,389.707,353.039z M401.713,305.937
	c-1.103-2.007-5.173-2.977-12.211-2.977c-7.796,0-12.795,1.874-14.992,5.657c-0.501,0.839-1.693,5.708-3.568,14.621
	c-1.563,7.615-2.335,12.516-2.335,14.704c2.105,0,5.435-1.184,10.016-3.569c4.564-2.369,7.779-4.638,9.622-6.825
	c2.845-3.24,5.625-6.924,8.379-10.937c3.396-5,5.074-8.421,5.074-10.296v-0.377H401.713z"/>
<path fill="#FF9425" d="M434.688,402.46c-8.931-1.217-14.013-5.164-15.246-11.825c-0.049-0.28-0.082-0.576-0.131-0.971
	c-0.033-0.591-0.049-1.15-0.049-1.743c0-0.953,0.033-1.957,0.115-2.977c1.892-11.874,9.951-30.804,24.193-56.822
	c14.275-26.15,23.946-39.241,29.044-39.241h0.263c0.362,0.082,0.691,0.115,0.889,0.115c0.526,0,1.069-0.115,1.727-0.313
	c1.332-0.099,2.138-0.197,2.417-0.197c2.386,0,5.329,2.237,8.849,6.661c1.431,1.825,2.73,6.102,3.93,12.779
	c0.904,4.934,1.728,10.673,2.451,17.203c1.02,9.802,1.842,21.528,2.483,35.195c0.543,10.838,0.822,19.062,0.822,24.703
	c0,6.364-0.526,9.884-1.594,10.591c-1.514,1.348-3.717,2.023-6.661,2.023c-3.8,0-6.382-1.283-7.763-3.865
	c-0.412-0.971-0.773-2.204-1.102-3.652c-0.033-0.591-0.1-1.184-0.197-1.842c-0.198-1.71-0.297-3.617-0.297-5.755
	c0-1.35,0.033-2.287,0.066-2.763c-2.615-0.938-5.822-1.381-9.671-1.381c-5.64,0-11.233,1.233-16.775,3.65
	c-4.77,2.006-8.19,4.111-10.229,6.348L434.688,402.46z M474.768,328.994c-0.641-0.378-1.233-0.56-1.826-0.56
	c-2.894,0-6.118,3.52-9.702,10.576c-2.007,4.095-4.31,9.786-6.925,17.104l17.17-1.546c2.155-1.94,3.241-3.141,3.241-3.65v-0.082
	c-0.066-0.132-0.33-3.109-0.757-8.963c-0.23-2.928-0.461-5.346-0.691-7.287c-0.23-2.006-0.444-3.535-0.625-4.622v-0.46
	C474.653,329.158,474.703,328.994,474.768,328.994z"/>
<path fill="#FF9425" d="M517.563,282.204c2.384,0,5.312,2.022,8.765,6.135c3.175,3.7,4.968,6.595,5.461,8.667v0.362
	c0,1.333-0.626,2.023-1.793,2.023h-0.213c-0.625,0-2.27,11.595-4.902,34.751c-2.631,23.157-5.147,42.531-7.532,58.105l-2.96,9.424
	c-1.233,0.445-2.435,0.691-3.553,0.691c-2.796,0-5.395-0.789-7.763-2.319c-3.256-1.859-5.394-4.72-6.38-8.651
	c-0.117-0.444-0.198-0.904-0.297-1.25c-0.049-0.51-0.131-1.102-0.262-1.76c-0.067-0.477-0.067-0.921-0.067-1.233
	c0-0.971,0.067-1.974,0.198-3.076c0.362-3.783,2.927-19.703,7.697-47.76c5.263-31.364,8.618-48.633,10.082-51.774
	C514.799,282.993,515.967,282.204,517.563,282.204z"/>
<path fill="#FF9425" d="M579.647,355.522c0.493-4.967,1.859-16.316,4.079-33.946c3.058-24.505,5.542-37.004,7.467-37.399
	c0.772-0.115,1.579-0.181,2.401-0.181c1.974,0,4.178,0.444,6.66,1.348c4.557,1.661,7.156,4.161,7.748,7.483v0.56
	c0,3.338-2.764,19.966-8.257,49.816c-5.114,27.482-7.696,43.04-7.696,46.626c0.197,0.213,0.295,0.723,0.295,1.562v0.378
	c0,1.184-0.576,2.385-1.727,3.453c-1.134,1.217-2.647,1.826-4.556,1.826c-4.408,0-8.289-3.536-11.578-10.591
	c-0.74-1.529-4.704-11.891-11.891-31.068c-5.214-13.814-8.239-20.738-9.062-20.738c-0.724,0.065-1.316,0.904-1.71,2.483
	c-0.362,1.545-0.691,3.174-0.955,4.901c-0.296,1.085-1.348,10.394-3.173,27.893c-1.563,15.361-2.353,24.67-2.353,27.86v1.25
	c0,2.17-1.48,3.257-4.473,3.257c-3.06,0-5.954-1.086-8.651-3.257c-3.339-2.763-5.411-6.48-6.184-11.15l-0.197-0.954
	c1.776-15.92,3.569-31.709,5.362-47.416c4.243-31.922,8.42-48.254,12.466-49.026c0.428-0.067,1.349-0.708,2.796-1.909
	c1.447-1.217,2.763-1.809,3.947-1.809c1.464,0,2.796,0.806,3.98,2.5c2.895,3.65,7.138,13.354,12.762,29.11
	C571.852,330.918,575.996,343.319,579.647,355.522z"/>
<path fill="none" d="M228.366,255.758c-1.973-4.211-4.35-9.243-6.973-14.835c-16.372,5.723-31.462,21.299-34.521,35.475h32.285
	C222.454,269.77,225.151,262.666,228.366,255.758z"/>
<path fill="none" d="M502.809,424.614c-6.053-6.727-7.138-13.963-6.447-21.561h-59.503c2.27,7.384,4.112,14.95,6.612,22.252
	c0.756,2.22,4.111,4.95,6.315,4.983c16.743,0.362,33.452,0.198,50.178-0.132c1.973-0.049,3.898-1.908,5.839-2.944
	c3.173,0.345,6.447,1.348,9.539,0.971c4.276-0.494,8.47-1.94,12.663-3.141c19.638-5.641,38.616-12.878,57.038-22.022h-85.112
	C498.862,410.158,499.75,417.394,502.809,424.614z"/>
<path fill="none" d="M186.888,282.27v-5.855C186.477,278.223,186.535,280.263,186.888,282.27z"/>
<path fill="none" d="M390.323,426.999c2.549,3.767,5.428,7.566,8.906,10.395c3.092,2.533,32.581-6.596,34.669-10.164
	c3.52-6.053,3.684-11.94-0.23-18.107c-1.283-1.991-2.369-4.03-3.421-6.102h-55.327C380.39,410.75,385.003,419.137,390.323,426.999z"
	/>
<path fill="none" d="M552.314,266.909c-2.682,3.223-5.231,6.282-7.895,9.489h19.703C561.112,272.468,557.543,268.98,552.314,266.909
	z"/>
<path fill="none" d="M545.636,264.737c1.266-1.775,1.233-5.279,0.46-7.565c-5.279-15.723-19.078-17.729-32.729-19.769
	c-1.02-0.148-2.056-0.065-3.093-0.148c-1.002-0.082-1.989-0.214-2.96-1.003c6.58,0,13.288-0.823,19.638,0.28
	c4.687,0.806,6.282-0.576,8.141-4.276c2.665-5.247,6.069-10.099,9.177-15.115c0.542,0.329,1.069,0.625,1.597,0.971
	c-1.35,2.351-3.027,4.556-4.047,7.039c-2.861,7.006-6.676,14.259,2.895,19.588c1.216,0.674,1.809,2.434,2.729,3.684
	c6.513,8.684,12.894,17.483,19.638,25.986c1.069,1.348,4.046,2.105,5.838,1.743c4.852-1.069,9.523-2.895,14.869-3.404
	c-2.073,1.2-4.26,2.483-6.349,3.7h23.337c-3.059-12.582-8.601-24.078-19.061-33.7c-9.622-8.831-19.489-17.811-27.187-28.238
	c-11.545-15.723-26.018-19.473-44.043-15.986c-4.556,0.888-5.691,2.615-5.822,7.006c-0.296,8.404-1.415,16.809-2.17,25.212
	c-1.711-8.602-2.401-16.989-2.977-25.36c-0.724-10.46-6.202-17.878-15.016-22.779c-15.214-8.421-31.495-10.575-48.518-7.252
	c-8.289,1.628-13.88,6.315-16.249,14.571c-1.693,5.822-3.322,11.661-4.967,17.515c-0.362-5.755-0.098-11.38,0.79-16.907
	c1.02-6.15-1.546-9.868-6.907-12.203c-12.977-5.625-25.862-3.634-39.702,0.066c10.189,13.617,8.083,28.091,4.835,43.369
	c5.066,0,8.873,0,13.354,0c-1.027,1.217-1.299,1.875-1.653,1.925c-4.547,0.74-9.111,1.332-13.675,2.088
	c-11.2,1.825-13.889,4.868-13.824,16.348c0.033,6.743,0.757,13.503,1.176,20.246c-5.51-6.989-7.475-14.868-7.055-23.305
	c0.353-7.812,3.618-13.7,11.331-16.792c2.007-0.806,4.548-3.026,4.852-4.918c1.193-7.319,2.394-14.769,2.04-22.121
	c-0.469-9.571-5.37-14.275-14.925-15.788c-13.215-2.105-23.46,3.454-31.207,12.779c-2.607-0.345-4.745-1.25-6.595-0.822
	c-16.273,3.684-32.827,6.579-48.574,11.841c-12.245,4.062-24.234,10.099-34.908,17.351c-12.614,8.552-13.338,19.769-4.26,31.149
	c9.111-7.746,18.199-15.969,32.901-9.209c-17.68-0.231-34.71,15.164-43.345,33.863h27.285c-0.658-0.28-1.283-0.576-1.924-0.871
	c0.337-0.725,0.657-1.432,0.995-2.171c2.171,1.036,4.325,2.04,6.496,3.042h18.059c4.58-5.477,9.349-11.2,14.226-17.038
	c0.427,0.411,0.863,0.822,1.283,1.233c-3.167,5.263-6.184,10.592-9.416,15.805h28.921c-2.532-4.276-3.421-10.839-2.278-15.641
	c6.365-26.709-13.116-47.99-39.356-42.136c-0.436,0.099-0.962-0.197-1.48-0.295c21.676-10.46,38.041-1.02,47.152,29.571
	c11.858-12.599,15.986-23.24,17.737-42.548c0.568,2.582,1.48,5.164,1.612,7.779c0.641,12.877-3.783,24.127-11.2,34.472
	c-10.386,14.538-13.001,20.097-7.171,28.797h91.714c-0.033-0.411,0.033-0.806-0.016-1.25c-0.806-6.415-1.234-12.911-1.858-19.358
	c0.69-0.131,1.381-0.23,2.04-0.345c1.283,6.924,2.582,13.881,3.897,20.953h52.186c2.993-5.822,6.38-11.463,9.588-17.187
	c-1.53,5.904-3.586,11.579-5.691,17.187h70.704C539.814,272.5,542.84,268.701,545.636,264.737z M451.759,234.673
	c-1.842,8.947-3.568,17.598-5.329,26.249c-0.822-0.066-1.677-0.149-2.533-0.231c0-17.252,0-34.538,0-53.171
	c1.941,5.575,4.014,10.147,5.066,14.95c0.987,4.571,3.092,7.006,7.763,7.927c8.717,1.678,17.317,3.832,25.804,7.006
	C472.121,236.465,461.726,235.561,451.759,234.673z"/>
<path fill="none" d="M358.179,453.444c4.071-0.69,8.198-1.809,12.343-3.289c14.571-5.231,19.769-24.966,9.448-36.347
	c-3.388-3.75-7.006-7.302-10.731-10.755h-11.077v50.391H358.179z"/>
<path fill="none" d="M186.888,374.139v-36.1c-2.055-1.875-3.823-3.865-4.596-6.15c-3.15-9.293-0.189-17.286,4.596-24.226v-14.489
	c-2.516-3.109-5.024-6.217-7.631-9.424c-14.571,6.102-19.3,19.324-20.476,33.748c-1.118,13.569,2.829,25.459,17.746,30.689
	c-2.895,0-5.789,0-9.416,0c0.691,8.157,1.11,15.838,2.072,23.469c0.806,6.497,5.354,9.325,11.472,8.833
	c1.719-0.149,3.454-0.46,5.172-0.724v-5.625H186.888z"/>
<path fill="none" d="M551.869,423.743c4.343,2.187,7.451,3.783,10.559,5.328c-14.259-2.269-24.752-1.118-47.975,5.954
	c-9.62,2.96-18.682,6.447-20.147,18.732c-0.641-0.362-1.283-0.708-1.924-1.069c1.48-5.213,2.994-10.427,4.737-16.512
	c-11.924,0-23.749,0.378-35.525-0.164c-7.565-0.345-9.999,4.029-11.315,9.868c-2.877,12.746,6.678,27.268,20,30.41
	c18.058,4.243,36.248,3.833,54.273,0.147c8.617-1.743,14.538-7.368,16.808-16.216c0.773-3.059,1.333-6.151,2.006-9.243
	c0.658,0.147,1.283,0.313,1.941,0.46c-1.546,7.22-3.109,14.44-5.066,23.568c11.563-5.51,23.223-9.67,33.321-16.217
	c16.891-10.904,19.999-29.34,9.16-47.761C572.707,415.141,562.642,419.302,551.869,423.743z"/>
<path fill="#FF9425" d="M462.319,276.415h3.914c2.105-5.625,4.161-11.299,5.691-17.203
	C468.732,264.951,465.312,270.592,462.319,276.415z"/>
<path fill="#FF9425" d="M180.639,380.488c-6.102,0.477-10.649-2.353-11.471-8.833c-0.962-7.614-1.381-15.294-2.073-23.469
	c3.627,0,6.521,0,9.416,0c-14.917-5.247-18.881-17.137-17.754-30.689c1.184-14.407,5.913-27.646,20.484-33.748
	c2.606,3.19,5.115,6.315,7.63,9.424v-10.872c-0.353-2.006-0.395-4.046,0-5.871c3.06-14.194,18.149-29.752,34.521-35.475
	c2.623,5.591,4.983,10.625,6.973,14.834c-3.215,6.907-5.929,14.013-9.209,20.657h4.276c8.634-18.684,25.648-34.078,43.345-33.864
	c-14.719-6.76-23.815,1.463-32.901,9.209c-9.062-11.38-8.338-22.58,4.26-31.165c10.657-7.253,22.663-13.256,34.908-17.335
	c15.748-5.263,32.301-8.157,48.575-11.841c1.833-0.428,3.988,0.46,6.595,0.823c7.755-9.326,17.993-14.884,31.208-12.779
	c9.556,1.512,14.457,6.2,14.925,15.805c0.354,7.335-0.839,14.802-2.04,22.104c-0.304,1.874-2.845,4.111-4.852,4.917
	c-7.713,3.109-10.962,8.996-11.332,16.792c-0.403,8.436,1.546,16.314,7.056,23.304c-0.403-6.726-1.127-13.501-1.176-20.245
	c-0.049-11.48,2.64-14.506,13.824-16.349c4.563-0.756,9.127-1.348,13.675-2.088c0.353-0.049,0.625-0.707,1.652-1.924
	c-4.481,0-8.289,0-13.354,0c3.265-15.262,5.37-29.768-4.835-43.386c13.839-3.684,26.709-5.657,39.718-0.032
	c5.345,2.302,7.911,6.02,6.908,12.187c-0.921,5.509-1.168,11.134-0.823,16.907c1.645-5.839,3.29-11.694,4.967-17.516
	c2.369-8.255,8.01-12.959,16.282-14.571c17.005-3.322,33.288-1.184,48.485,7.269c8.814,4.869,14.308,12.287,15.033,22.762
	c0.575,8.372,1.266,16.759,2.993,25.361c0.757-8.404,1.858-16.809,2.138-25.213c0.164-4.392,1.299-6.102,5.854-7.007
	c18.026-3.486,32.482,0.28,44.044,15.986c7.664,10.428,17.532,19.391,27.17,28.239c10.476,9.621,16.018,21.117,19.078,33.698h8.914
	c-2.961-15.032-9.851-28.403-21.578-39.554c-10.559-10.065-20.64-20.723-30.163-31.808c-9.013-10.459-19.636-16.365-33.518-15.789
	c-5.132,0.231-10.23,1.053-15.361,1.053c-2.138,0-5.279-0.822-6.232-2.335c-14.03-22.466-61.922-29.045-80.803-16.15
	c-1.612,1.085-4.934,1.266-6.645,0.362c-11.939-6.348-24.415-6.924-37.481-4.868c-9.802,1.545-19.859,1.594-29.546,3.486
	c-7.376,1.48-14.432,4.737-21.553,7.384c-4.005,1.497-7.697,4.029-11.792,5.016c-23.691,5.69-48.048,8.98-70.145,20.147
	c-11.866,6.003-22.729,13.091-28.321,26.051c-0.773,1.809-2.969,3.388-4.868,4.26c-17.047,7.96-29.628,20.081-36.512,37.826
	c-0.707,1.842-2.491,3.948-4.292,4.622c-18.987,7.104-31.026,37.416-21.997,58.796c4.778,11.348,6.833,22.252,7.138,34.159
	c0.271,11.118,5.057,16.431,15.188,19.588c2.007,0.626,4.251,2.582,5.107,4.507c1.636,3.65,3.47,6.907,5.386,9.966V379.83
	C184.076,379.995,182.357,380.339,180.639,380.488z"/>
<path fill="#FF9425" d="M628.395,343.352c-7.203-15.46-10.197-31.61-12.056-48.155v41.182c0.823,1.48,1.678,2.828,2.451,4.704
	c1.743,4.276,2.993,8.749,4.539,13.091c3.487,9.869,0.56,20.954-6.99,27.203v13.289c1.102-0.757,2.254-1.447,3.339-2.236
	c9.045-6.646,13.914-15.986,12.96-27.335C631.996,357.743,631.422,349.831,628.395,343.352z"/>
<path fill="#FF9425" d="M404.229,255.791c0.592,6.463,1.036,12.96,1.842,19.358c0.049,0.444-0.016,0.839,0.017,1.25h4.063
	c-1.316-7.071-2.599-14.029-3.881-20.953C405.578,255.593,404.887,255.66,404.229,255.791z"/>
<path fill="#FF9425" d="M528.021,425.042c-4.193,1.201-8.388,2.614-12.663,3.141c-3.109,0.377-6.365-0.592-9.523-0.971
	c-1.973,1.036-3.881,2.895-5.854,2.944c-16.726,0.33-33.453,0.477-50.163,0.132c-2.204-0.033-5.592-2.763-6.315-4.983
	c-2.517-7.319-4.375-14.868-6.628-22.252h-6.627c1.069,2.071,2.138,4.111,3.421,6.085c3.898,6.167,3.75,12.038,0.23,18.107
	c-2.089,3.568-31.578,12.696-34.669,10.181c-3.478-2.862-6.34-6.661-8.906-10.428c-5.32-7.862-9.934-16.216-15.418-23.945h-5.65
	c3.725,3.453,7.343,7.006,10.731,10.755c10.32,11.381,5.123,31.133-9.449,36.347c-4.161,1.48-8.264,2.599-12.343,3.289v7.763
	c2.508-0.378,5-0.559,7.541-1.25c10.764-2.895,21.29-6.726,30.673-9.753c6.57,5.971,12.063,11.792,18.346,16.513
	c14.802,11.117,30.163,21.512,44.965,32.629c8.798,6.629,17.91,13.454,17.334,26.364c22.203-2.252,29.785-9.342,33.221-30.525
	c0.231-1.513,1.316-3.651,2.533-4.095c7.895-2.977,15.772-6.184,23.913-8.141c15.592-3.766,30.82-8.059,43.715-18.124
	c12.252-9.588,18.585-21.907,16.496-37.613c-0.789-6.003-2.582-11.874-3.865-17.433c3.553-2.287,7.105-4.49,10.625-6.694h-18.65
	C566.638,412.164,547.659,419.401,528.021,425.042z M573.563,458.79c-10.131,6.562-21.759,10.707-33.321,16.217
	c1.958-9.128,3.52-16.365,5.066-23.568c-0.659-0.165-1.284-0.33-1.941-0.46c-0.674,3.091-1.216,6.184-2.006,9.243
	c-2.253,8.815-8.191,14.473-16.808,16.216c-18.025,3.685-36.215,4.095-54.273-0.147c-13.322-3.142-22.894-17.664-20-30.41
	c1.316-5.839,3.75-10.213,11.315-9.868c11.776,0.542,23.601,0.164,35.525,0.164c-1.743,6.085-3.257,11.315-4.737,16.512
	c0.641,0.361,1.283,0.708,1.924,1.069c1.465-12.286,10.527-15.805,20.147-18.732c23.223-7.072,33.715-8.191,47.975-5.954
	c-3.108-1.579-6.216-3.158-10.559-5.328c10.773-4.44,20.87-8.602,30.87-12.714C593.594,429.449,590.469,447.885,573.563,458.79z"/>
<path fill="#FF9425" d="M572.954,276.118c-1.76,0.362-4.769-0.378-5.838-1.743c-6.76-8.503-13.141-17.302-19.637-25.986
	c-0.921-1.249-1.514-3.009-2.73-3.684c-9.572-5.328-5.756-12.582-2.896-19.588c1.021-2.45,2.699-4.704,4.047-7.039
	c-0.527-0.345-1.053-0.642-1.596-0.97c-3.091,5.032-6.513,9.9-9.176,15.114c-1.892,3.7-3.455,5.082-8.141,4.276
	c-6.383-1.07-13.076-0.28-19.638-0.28c0.971,0.789,1.973,0.921,2.96,1.003c1.036,0.082,2.073,0,3.091,0.148
	c13.684,2.04,27.45,4.046,32.745,19.77c0.757,2.286,0.79,5.789-0.476,7.565c-2.796,3.964-5.839,7.763-8.717,11.677h7.499
	c2.648-3.19,5.197-6.266,7.895-9.506c5.229,2.072,8.782,5.559,11.809,9.506h17.351c2.088-1.216,4.292-2.5,6.348-3.701
	C582.476,273.224,577.822,275.05,572.954,276.118z"/>
<path fill="#FF9425" d="M502.809,424.614c-3.059-7.22-3.947-14.424-2.862-21.561h-3.585
	C495.671,410.65,496.756,417.854,502.809,424.614z"/>
<path fill="#FF9425" d="M321.544,247.617c7.4-10.345,11.825-21.595,11.2-34.472c-0.131-2.615-1.061-5.181-1.612-7.779
	c-1.751,19.308-5.896,29.966-17.737,42.563c-9.111-30.59-25.476-40.063-47.152-29.571c0.518,0.099,1.044,0.362,1.48,0.28
	c26.241-5.871,45.721,15.41,39.356,42.136c-1.144,4.786-0.255,11.365,2.277,15.641h5.017
	C308.543,267.731,311.158,262.155,321.544,247.617z"/>
<path fill="#FF9425" d="M448.931,222.47c-1.036-4.802-3.108-9.375-5.049-14.95c0,18.633,0,35.919,0,53.171
	c0.872,0.082,1.693,0.165,2.549,0.231c1.744-8.651,3.487-17.269,5.296-26.249c9.966,0.888,20.395,1.775,30.771,2.697
	c-8.471-3.157-17.088-5.312-25.805-7.006C452.023,229.476,449.917,227.042,448.931,222.47z"/>
<polygon points="194.701,344.799 194.881,344.98 194.767,344.799 194.684,344.766 "/>
<polygon points="553.662,323.896 553.728,323.649 553.694,323.714 "/>
</svg>
