<?xml version="1.0" encoding="utf-8"?>
<!-- Generator: Adobe Illustrator 16.0.0, SVG Export Plug-In . SVG Version: 6.00 Build 0)  -->
<!DOCTYPE svg PUBLIC "-//W3C//DTD SVG 1.1//EN" "http://www.w3.org/Graphics/SVG/1.1/DTD/svg11.dtd">
<svg version="1.1" id="Layer_1" xmlns="http://www.w3.org/2000/svg" xmlns:xlink="http://www.w3.org/1999/xlink" x="0px" y="0px"
	 width="1732px" height="1178px" viewBox="0 0 1732 1178" enable-background="new 0 0 1732 1178" xml:space="preserve">
<g>
	<defs>
		<rect id="SVGID_1_" width="1732" height="1178"/>
	</defs>
	<clipPath id="SVGID_2_">
		<use xlink:href="#SVGID_1_"  overflow="visible"/>
	</clipPath>
	<g clip-path="url(#SVGID_2_)">
		<defs>
			<rect id="SVGID_3_" width="1732" height="1178"/>
		</defs>
		<clipPath id="SVGID_4_">
			<use xlink:href="#SVGID_3_"  overflow="visible"/>
		</clipPath>
		<path clip-path="url(#SVGID_4_)" fill="none" stroke="#2A77BC" stroke-width="1.84" stroke-miterlimit="10" d="M607.21,748.891
			l8.662,4.421c0,0-4.317,4.615,3.885,9.363c8.201,4.749,16.834,9.929,22.014,12.519s9.928,0,9.928,0l53.094,27.626
			c0,0-2.59,5.611,6.044,10.792c8.633,5.18,17.698,9.496,23.309,12.086c5.612,2.59,4.317-5.18,9.928-3.453l8.434,5.576
			c-3.021,6.645-78.794,153.706-80.952,157.591c-2.159,3.885-7.339,1.727-9.929,0c-2.589-1.727,4.749-6.121-3.884-11.046
			c-8.634-4.926-18.993-9.674-23.742-12.695c-4.748-3.021-7.338-4.316-10.359,0l-55.253-30.647c0,0,3.454-5.375,0-7.437
			c-3.453-2.061-27.194-13.283-29.784-15.01c-2.59-1.727-7.338,1.727-7.338,1.727l-7.339-2.59L607.21,748.891z"/>
		<polygon clip-path="url(#SVGID_4_)" fill="none" stroke="#1A77BC" stroke-width="3.31" stroke-miterlimit="10" points="
			603.785,742.388 759.183,826.129 671.555,995.082 515.728,906.85 		"/>
		
			<line clip-path="url(#SVGID_4_)" fill="none" stroke="#2A77BC" stroke-width="1.84" stroke-miterlimit="10" x1="587.264" y1="787.828" x2="733.1" y2="867.578"/>
		
			<line clip-path="url(#SVGID_4_)" fill="none" stroke="#2A77BC" stroke-width="1.84" stroke-miterlimit="10" x1="568.389" y1="827.703" x2="706.951" y2="904.259"/>
		
			<line clip-path="url(#SVGID_4_)" fill="none" stroke="#2A77BC" stroke-width="1.84" stroke-miterlimit="10" x1="548.533" y1="867.578" x2="685.369" y2="944.403"/>
		<path clip-path="url(#SVGID_4_)" fill="none" stroke="#2A77BC" stroke-width="1.84" stroke-miterlimit="10" d="M737.6,831.139
			c0,0-17.591,21.905-9.431,24.669c10.186,3.451,21.713-32.442,4.004-24.669c-10.221,4.487-12.889,15.393-10.76,18.408
			c1.295,1.834,5.574-1.361,7.446-7.446c3.971-12.907-2.05-16.295-7.446-12.41c-5.396,3.886-9.928,13.705-8.31,14.568
			c1.619,0.863,9.281-9.389,4.317-18.13s-13.813,10.252-12.41,12.41c1.403,2.158,11.115-9.82,6.676-13.557
			c-3.959-3.332-8.834,12.262-8.834,12.262"/>
		<path clip-path="url(#SVGID_4_)" fill="none" stroke="#2A77BC" stroke-width="1.84" stroke-miterlimit="10" d="M697.132,909.437
			c0,0-17.592,21.905-9.431,24.669c10.186,3.451,21.713-32.442,4.004-24.669c-10.221,4.487-12.889,15.393-10.76,18.408
			c1.295,1.834,5.574-1.361,7.446-7.446c3.971-12.906-2.051-16.295-7.446-12.41c-5.396,3.885-9.928,13.705-8.31,14.568
			c1.619,0.863,9.281-9.389,4.317-18.13c-4.964-8.741-13.813,10.252-12.41,12.41s11.115-9.82,6.676-13.557
			c-3.959-3.332-8.835,12.261-8.835,12.261"/>
		
			<ellipse transform="matrix(0.4738 -0.8806 0.8806 0.4738 -402.0399 1093.3495)" clip-path="url(#SVGID_4_)" fill="none" stroke="#2A77BC" stroke-width="1.84" stroke-miterlimit="10" cx="713.913" cy="883.108" rx="7.968" ry="3.249"/>
		
			<ellipse transform="matrix(0.4738 -0.8806 0.8806 0.4738 -402.0352 1093.3721)" clip-path="url(#SVGID_4_)" fill="none" stroke="#2A77BC" stroke-width="1.84" stroke-miterlimit="10" cx="713.913" cy="883.108" rx="4.745" ry="1.934"/>
		
			<ellipse transform="matrix(0.4739 -0.8806 0.8806 0.4739 -493.2344 1099.2234)" clip-path="url(#SVGID_4_)" fill="none" stroke="#2A77BC" stroke-width="1.84" stroke-miterlimit="10" cx="673.26" cy="962.371" rx="7.968" ry="3.249"/>
		
			<ellipse transform="matrix(0.4738 -0.8806 0.8806 0.4738 -493.2273 1099.2788)" clip-path="url(#SVGID_4_)" fill="none" stroke="#2A77BC" stroke-width="1.84" stroke-miterlimit="10" cx="673.26" cy="962.371" rx="4.745" ry="1.935"/>
		<path clip-path="url(#SVGID_4_)" fill="none" stroke="#2A77BC" stroke-width="1.84" stroke-miterlimit="10" d="M585.08,799.798
			c0,0-5.611,11.655-6.619,15.54c-1.007,3.885,0.72,5.611,4.892,0.863c4.173-4.748,12.375-17.698,10.216-11.799
			c-2.158,5.899-8.921,23.885-4.46,18.849c4.46-5.036,12.806-16.531,11.367-11.287s-4.604,15.316-3.022,13.59
			c1.583-1.727,5.9-10.936,5.9-10.936"/>
		<path clip-path="url(#SVGID_4_)" fill="none" stroke="#2A77BC" stroke-width="1.84" stroke-miterlimit="10" d="M542.846,882.28
			c0,0-5.612,11.654-6.619,15.539c-1.007,3.886,0.72,5.612,4.892,0.863c4.173-4.748,12.375-17.697,10.216-11.798
			c-2.158,5.898-8.921,23.885-4.46,18.849c4.46-5.036,12.806-16.531,11.367-11.287s-4.604,15.316-3.022,13.589
			c1.583-1.727,5.9-10.935,5.9-10.935"/>
		<path clip-path="url(#SVGID_4_)" fill="none" stroke="#2C77BC" stroke-width="3.319" stroke-miterlimit="10" d="M579.455,787.828
			c0,0-61.038-24.688-35.57-92.891s-187.345-96.523-77.901,54.294"/>
		<path clip-path="url(#SVGID_4_)" fill="none" stroke="#2C77BC" stroke-width="3.319" stroke-miterlimit="10" d="M583.215,780.805
			c0,0-57.129-24.604-40.726-67.771c16.403-43.165-14.999-102.947-73.869-73.86c-71.492,35.324-6.576,113.849-6.576,113.849"/>
		<polygon clip-path="url(#SVGID_4_)" fill="none" stroke="#2A77BC" stroke-width="1.84" stroke-miterlimit="10" points="
			455.838,759.317 472.206,742.715 474.526,745.318 473.61,747.543 486.924,761.487 473.742,774.525 461.092,760.514 
			458.679,762.386 		"/>
		<polygon clip-path="url(#SVGID_4_)" fill="none" stroke="#2A77BC" stroke-width="1.84" stroke-miterlimit="10" points="
			460.43,754.659 470.628,764.979 474.656,766.188 462.044,753.021 		"/>
		<polygon clip-path="url(#SVGID_4_)" fill="none" stroke="#2A77BC" stroke-width="1.84" stroke-miterlimit="10" points="
			467.682,747.681 477.601,758.269 478.654,762.34 465.984,749.231 		"/>
		<path clip-path="url(#SVGID_4_)" fill="none" stroke="#1A77BC" stroke-width="4.32" stroke-miterlimit="10" d="M249.8,287.518
			H99.191c-18.651,0-33.91-15.26-33.91-33.91V122.921c0-18.65,15.259-33.91,33.91-33.91H249.8c18.651,0,33.91,15.26,33.91,33.91
			v130.687C283.71,272.258,268.451,287.518,249.8,287.518z"/>
		<polygon clip-path="url(#SVGID_4_)" fill="none" stroke="#2C77BC" stroke-width="2.186" stroke-miterlimit="10" points="
			144.212,190.118 144.212,182.785 229.117,183.385 229.117,190.118 240.027,190.118 240.027,245.98 229.591,245.98 
			229.591,253.095 144.212,253.095 144.212,246.929 133.302,246.929 133.302,190.118 		"/>
		<path clip-path="url(#SVGID_4_)" fill-rule="evenodd" clip-rule="evenodd" fill="#2C77BC" d="M144.36,200.336
			c0,0.906-0.734,1.64-1.639,1.64c-0.906,0-1.64-0.734-1.64-1.64c0-0.905,0.734-1.639,1.64-1.639
			C143.626,198.697,144.36,199.431,144.36,200.336"/>
		<path clip-path="url(#SVGID_4_)" fill-rule="evenodd" clip-rule="evenodd" fill="#2C77BC" d="M153.215,200.336
			c0,0.906-0.734,1.64-1.639,1.64c-0.906,0-1.64-0.734-1.64-1.64c0-0.905,0.734-1.639,1.64-1.639
			C152.48,198.697,153.215,199.431,153.215,200.336"/>
		<path clip-path="url(#SVGID_4_)" fill-rule="evenodd" clip-rule="evenodd" fill="#2C77BC" d="M162.069,200.336
			c0,0.906-0.734,1.64-1.639,1.64c-0.906,0-1.64-0.734-1.64-1.64c0-0.905,0.734-1.639,1.64-1.639
			C161.334,198.697,162.069,199.431,162.069,200.336"/>
		<path clip-path="url(#SVGID_4_)" fill-rule="evenodd" clip-rule="evenodd" fill="#2C77BC" d="M170.923,200.336
			c0,0.906-0.734,1.64-1.639,1.64c-0.906,0-1.64-0.734-1.64-1.64c0-0.905,0.734-1.639,1.64-1.639
			C170.189,198.697,170.923,199.431,170.923,200.336"/>
		<path clip-path="url(#SVGID_4_)" fill-rule="evenodd" clip-rule="evenodd" fill="#2C77BC" d="M179.777,200.336
			c0,0.906-0.734,1.64-1.639,1.64c-0.906,0-1.64-0.734-1.64-1.64c0-0.905,0.734-1.639,1.64-1.639
			C179.043,198.697,179.777,199.431,179.777,200.336"/>
		<path clip-path="url(#SVGID_4_)" fill-rule="evenodd" clip-rule="evenodd" fill="#2C77BC" d="M188.631,200.336
			c0,0.906-0.734,1.64-1.639,1.64c-0.906,0-1.64-0.734-1.64-1.64c0-0.905,0.734-1.639,1.64-1.639
			C187.897,198.697,188.631,199.431,188.631,200.336"/>
		<path clip-path="url(#SVGID_4_)" fill-rule="evenodd" clip-rule="evenodd" fill="#2C77BC" d="M197.485,200.336
			c0,0.906-0.734,1.64-1.639,1.64c-0.906,0-1.64-0.734-1.64-1.64c0-0.905,0.734-1.639,1.64-1.639
			C196.751,198.697,197.485,199.431,197.485,200.336"/>
		<path clip-path="url(#SVGID_4_)" fill-rule="evenodd" clip-rule="evenodd" fill="#2C77BC" d="M206.34,200.336
			c0,0.906-0.734,1.64-1.639,1.64c-0.906,0-1.64-0.734-1.64-1.64c0-0.905,0.734-1.639,1.64-1.639
			C205.605,198.697,206.34,199.431,206.34,200.336"/>
		<path clip-path="url(#SVGID_4_)" fill-rule="evenodd" clip-rule="evenodd" fill="#2C77BC" d="M215.194,200.336
			c0,0.906-0.734,1.64-1.639,1.64c-0.906,0-1.64-0.734-1.64-1.64c0-0.905,0.734-1.639,1.64-1.639
			C214.459,198.697,215.194,199.431,215.194,200.336"/>
		<path clip-path="url(#SVGID_4_)" fill-rule="evenodd" clip-rule="evenodd" fill="#2C77BC" d="M224.048,200.336
			c0,0.906-0.734,1.64-1.639,1.64c-0.906,0-1.64-0.734-1.64-1.64c0-0.905,0.734-1.639,1.64-1.639
			C223.314,198.697,224.048,199.431,224.048,200.336"/>
		<path clip-path="url(#SVGID_4_)" fill-rule="evenodd" clip-rule="evenodd" fill="#2C77BC" d="M232.902,200.336
			c0,0.906-0.734,1.64-1.639,1.64c-0.906,0-1.64-0.734-1.64-1.64c0-0.905,0.734-1.639,1.64-1.639
			C232.168,198.697,232.902,199.431,232.902,200.336"/>
		<path clip-path="url(#SVGID_4_)" fill-rule="evenodd" clip-rule="evenodd" fill="#2C77BC" d="M144.36,209.299
			c0,0.905-0.734,1.639-1.639,1.639c-0.906,0-1.64-0.734-1.64-1.639c0-0.905,0.734-1.64,1.64-1.64
			C143.626,207.659,144.36,208.394,144.36,209.299"/>
		<path clip-path="url(#SVGID_4_)" fill-rule="evenodd" clip-rule="evenodd" fill="#2C77BC" d="M153.215,209.299
			c0,0.905-0.734,1.639-1.639,1.639c-0.906,0-1.64-0.734-1.64-1.639c0-0.905,0.734-1.64,1.64-1.64
			C152.48,207.659,153.215,208.394,153.215,209.299"/>
		<path clip-path="url(#SVGID_4_)" fill-rule="evenodd" clip-rule="evenodd" fill="#2C77BC" d="M162.069,209.299
			c0,0.905-0.734,1.639-1.639,1.639c-0.906,0-1.64-0.734-1.64-1.639c0-0.905,0.734-1.64,1.64-1.64
			C161.334,207.659,162.069,208.394,162.069,209.299"/>
		<path clip-path="url(#SVGID_4_)" fill-rule="evenodd" clip-rule="evenodd" fill="#2C77BC" d="M170.923,209.299
			c0,0.905-0.734,1.639-1.639,1.639c-0.906,0-1.64-0.734-1.64-1.639c0-0.905,0.734-1.64,1.64-1.64
			C170.189,207.659,170.923,208.394,170.923,209.299"/>
		<path clip-path="url(#SVGID_4_)" fill-rule="evenodd" clip-rule="evenodd" fill="#2C77BC" d="M179.777,209.299
			c0,0.905-0.734,1.639-1.639,1.639c-0.906,0-1.64-0.734-1.64-1.639c0-0.905,0.734-1.64,1.64-1.64
			C179.043,207.659,179.777,208.394,179.777,209.299"/>
		<path clip-path="url(#SVGID_4_)" fill-rule="evenodd" clip-rule="evenodd" fill="#2C77BC" d="M188.631,209.299
			c0,0.905-0.734,1.639-1.639,1.639c-0.906,0-1.64-0.734-1.64-1.639c0-0.905,0.734-1.64,1.64-1.64
			C187.897,207.659,188.631,208.394,188.631,209.299"/>
		<path clip-path="url(#SVGID_4_)" fill-rule="evenodd" clip-rule="evenodd" fill="#2C77BC" d="M197.485,209.299
			c0,0.905-0.734,1.639-1.639,1.639c-0.906,0-1.64-0.734-1.64-1.639c0-0.905,0.734-1.64,1.64-1.64
			C196.751,207.659,197.485,208.394,197.485,209.299"/>
		<path clip-path="url(#SVGID_4_)" fill-rule="evenodd" clip-rule="evenodd" fill="#2C77BC" d="M206.34,209.299
			c0,0.905-0.734,1.639-1.639,1.639c-0.906,0-1.64-0.734-1.64-1.639c0-0.905,0.734-1.64,1.64-1.64
			C205.605,207.659,206.34,208.394,206.34,209.299"/>
		<path clip-path="url(#SVGID_4_)" fill-rule="evenodd" clip-rule="evenodd" fill="#2C77BC" d="M215.194,209.299
			c0,0.905-0.734,1.639-1.639,1.639c-0.906,0-1.64-0.734-1.64-1.639c0-0.905,0.734-1.64,1.64-1.64
			C214.459,207.659,215.194,208.394,215.194,209.299"/>
		<path clip-path="url(#SVGID_4_)" fill-rule="evenodd" clip-rule="evenodd" fill="#2C77BC" d="M224.048,209.299
			c0,0.905-0.734,1.639-1.639,1.639c-0.906,0-1.64-0.734-1.64-1.639c0-0.905,0.734-1.64,1.64-1.64
			C223.314,207.659,224.048,208.394,224.048,209.299"/>
		<path clip-path="url(#SVGID_4_)" fill-rule="evenodd" clip-rule="evenodd" fill="#2C77BC" d="M232.902,209.299
			c0,0.905-0.734,1.639-1.639,1.639c-0.906,0-1.64-0.734-1.64-1.639c0-0.905,0.734-1.64,1.64-1.64
			C232.168,207.659,232.902,208.394,232.902,209.299"/>
		<path clip-path="url(#SVGID_4_)" fill-rule="evenodd" clip-rule="evenodd" fill="#2C77BC" d="M144.36,218.261
			c0,0.905-0.734,1.64-1.639,1.64c-0.906,0-1.64-0.735-1.64-1.64c0-0.905,0.734-1.64,1.64-1.64
			C143.626,216.621,144.36,217.355,144.36,218.261"/>
		<path clip-path="url(#SVGID_4_)" fill-rule="evenodd" clip-rule="evenodd" fill="#2C77BC" d="M153.215,218.261
			c0,0.905-0.734,1.64-1.639,1.64c-0.906,0-1.64-0.735-1.64-1.64c0-0.905,0.734-1.64,1.64-1.64
			C152.48,216.621,153.215,217.355,153.215,218.261"/>
		<path clip-path="url(#SVGID_4_)" fill-rule="evenodd" clip-rule="evenodd" fill="#2C77BC" d="M162.069,218.261
			c0,0.905-0.734,1.64-1.639,1.64c-0.906,0-1.64-0.735-1.64-1.64c0-0.905,0.734-1.64,1.64-1.64
			C161.334,216.621,162.069,217.355,162.069,218.261"/>
		<path clip-path="url(#SVGID_4_)" fill-rule="evenodd" clip-rule="evenodd" fill="#2C77BC" d="M170.923,218.261
			c0,0.905-0.734,1.64-1.639,1.64c-0.906,0-1.64-0.735-1.64-1.64c0-0.905,0.734-1.64,1.64-1.64
			C170.189,216.621,170.923,217.355,170.923,218.261"/>
		<path clip-path="url(#SVGID_4_)" fill-rule="evenodd" clip-rule="evenodd" fill="#2C77BC" d="M179.777,218.261
			c0,0.905-0.734,1.64-1.639,1.64c-0.906,0-1.64-0.735-1.64-1.64c0-0.905,0.734-1.64,1.64-1.64
			C179.043,216.621,179.777,217.355,179.777,218.261"/>
		<path clip-path="url(#SVGID_4_)" fill-rule="evenodd" clip-rule="evenodd" fill="#2C77BC" d="M188.631,218.261
			c0,0.905-0.734,1.64-1.639,1.64c-0.906,0-1.64-0.735-1.64-1.64c0-0.905,0.734-1.64,1.64-1.64
			C187.897,216.621,188.631,217.355,188.631,218.261"/>
		<path clip-path="url(#SVGID_4_)" fill-rule="evenodd" clip-rule="evenodd" fill="#2C77BC" d="M197.485,218.261
			c0,0.905-0.734,1.64-1.639,1.64c-0.906,0-1.64-0.735-1.64-1.64c0-0.905,0.734-1.64,1.64-1.64
			C196.751,216.621,197.485,217.355,197.485,218.261"/>
		<path clip-path="url(#SVGID_4_)" fill-rule="evenodd" clip-rule="evenodd" fill="#2C77BC" d="M206.34,218.261
			c0,0.905-0.734,1.64-1.639,1.64c-0.906,0-1.64-0.735-1.64-1.64c0-0.905,0.734-1.64,1.64-1.64
			C205.605,216.621,206.34,217.355,206.34,218.261"/>
		<path clip-path="url(#SVGID_4_)" fill-rule="evenodd" clip-rule="evenodd" fill="#2C77BC" d="M215.194,218.261
			c0,0.905-0.734,1.64-1.639,1.64c-0.906,0-1.64-0.735-1.64-1.64c0-0.905,0.734-1.64,1.64-1.64
			C214.459,216.621,215.194,217.355,215.194,218.261"/>
		<path clip-path="url(#SVGID_4_)" fill-rule="evenodd" clip-rule="evenodd" fill="#2C77BC" d="M224.048,218.261
			c0,0.905-0.734,1.64-1.639,1.64c-0.906,0-1.64-0.735-1.64-1.64c0-0.905,0.734-1.64,1.64-1.64
			C223.314,216.621,224.048,217.355,224.048,218.261"/>
		<path clip-path="url(#SVGID_4_)" fill-rule="evenodd" clip-rule="evenodd" fill="#2C77BC" d="M232.902,218.261
			c0,0.905-0.734,1.64-1.639,1.64c-0.906,0-1.64-0.735-1.64-1.64c0-0.905,0.734-1.64,1.64-1.64
			C232.168,216.621,232.902,217.355,232.902,218.261"/>
		<path clip-path="url(#SVGID_4_)" fill-rule="evenodd" clip-rule="evenodd" fill="#2C77BC" d="M144.36,227.223
			c0,0.906-0.734,1.64-1.639,1.64c-0.906,0-1.64-0.734-1.64-1.64c0-0.905,0.734-1.639,1.64-1.639
			C143.626,225.584,144.36,226.318,144.36,227.223"/>
		<path clip-path="url(#SVGID_4_)" fill-rule="evenodd" clip-rule="evenodd" fill="#2C77BC" d="M153.215,227.223
			c0,0.906-0.734,1.64-1.639,1.64c-0.906,0-1.64-0.734-1.64-1.64c0-0.905,0.734-1.639,1.64-1.639
			C152.48,225.584,153.215,226.318,153.215,227.223"/>
		<path clip-path="url(#SVGID_4_)" fill-rule="evenodd" clip-rule="evenodd" fill="#2C77BC" d="M162.069,227.223
			c0,0.906-0.734,1.64-1.639,1.64c-0.906,0-1.64-0.734-1.64-1.64c0-0.905,0.734-1.639,1.64-1.639
			C161.334,225.584,162.069,226.318,162.069,227.223"/>
		<path clip-path="url(#SVGID_4_)" fill-rule="evenodd" clip-rule="evenodd" fill="#2C77BC" d="M170.923,227.223
			c0,0.906-0.734,1.64-1.639,1.64c-0.906,0-1.64-0.734-1.64-1.64c0-0.905,0.734-1.639,1.64-1.639
			C170.189,225.584,170.923,226.318,170.923,227.223"/>
		<path clip-path="url(#SVGID_4_)" fill-rule="evenodd" clip-rule="evenodd" fill="#2C77BC" d="M179.777,227.223
			c0,0.906-0.734,1.64-1.639,1.64c-0.906,0-1.64-0.734-1.64-1.64c0-0.905,0.734-1.639,1.64-1.639
			C179.043,225.584,179.777,226.318,179.777,227.223"/>
		<path clip-path="url(#SVGID_4_)" fill-rule="evenodd" clip-rule="evenodd" fill="#2C77BC" d="M188.631,227.223
			c0,0.906-0.734,1.64-1.639,1.64c-0.906,0-1.64-0.734-1.64-1.64c0-0.905,0.734-1.639,1.64-1.639
			C187.897,225.584,188.631,226.318,188.631,227.223"/>
		<path clip-path="url(#SVGID_4_)" fill-rule="evenodd" clip-rule="evenodd" fill="#2C77BC" d="M197.485,227.223
			c0,0.906-0.734,1.64-1.639,1.64c-0.906,0-1.64-0.734-1.64-1.64c0-0.905,0.734-1.639,1.64-1.639
			C196.751,225.584,197.485,226.318,197.485,227.223"/>
		<path clip-path="url(#SVGID_4_)" fill-rule="evenodd" clip-rule="evenodd" fill="#2C77BC" d="M206.34,227.223
			c0,0.906-0.734,1.64-1.639,1.64c-0.906,0-1.64-0.734-1.64-1.64c0-0.905,0.734-1.639,1.64-1.639
			C205.605,225.584,206.34,226.318,206.34,227.223"/>
		<path clip-path="url(#SVGID_4_)" fill-rule="evenodd" clip-rule="evenodd" fill="#2C77BC" d="M215.194,227.223
			c0,0.906-0.734,1.64-1.639,1.64c-0.906,0-1.64-0.734-1.64-1.64c0-0.905,0.734-1.639,1.64-1.639
			C214.459,225.584,215.194,226.318,215.194,227.223"/>
		<path clip-path="url(#SVGID_4_)" fill-rule="evenodd" clip-rule="evenodd" fill="#2C77BC" d="M224.048,227.223
			c0,0.906-0.734,1.64-1.639,1.64c-0.906,0-1.64-0.734-1.64-1.64c0-0.905,0.734-1.639,1.64-1.639
			C223.314,225.584,224.048,226.318,224.048,227.223"/>
		<path clip-path="url(#SVGID_4_)" fill-rule="evenodd" clip-rule="evenodd" fill="#2C77BC" d="M232.902,227.223
			c0,0.906-0.734,1.64-1.639,1.64c-0.906,0-1.64-0.734-1.64-1.64c0-0.905,0.734-1.639,1.64-1.639
			C232.168,225.584,232.902,226.318,232.902,227.223"/>
		<path clip-path="url(#SVGID_4_)" fill-rule="evenodd" clip-rule="evenodd" fill="#2C77BC" d="M144.36,236.186
			c0,0.905-0.734,1.64-1.639,1.64c-0.906,0-1.64-0.735-1.64-1.64c0-0.905,0.734-1.64,1.64-1.64
			C143.626,234.545,144.36,235.28,144.36,236.186"/>
		<path clip-path="url(#SVGID_4_)" fill-rule="evenodd" clip-rule="evenodd" fill="#2C77BC" d="M153.215,236.186
			c0,0.905-0.734,1.64-1.639,1.64c-0.906,0-1.64-0.735-1.64-1.64c0-0.905,0.734-1.64,1.64-1.64
			C152.48,234.545,153.215,235.28,153.215,236.186"/>
		<path clip-path="url(#SVGID_4_)" fill-rule="evenodd" clip-rule="evenodd" fill="#2C77BC" d="M162.069,236.186
			c0,0.905-0.734,1.64-1.639,1.64c-0.906,0-1.64-0.735-1.64-1.64c0-0.905,0.734-1.64,1.64-1.64
			C161.334,234.545,162.069,235.28,162.069,236.186"/>
		<path clip-path="url(#SVGID_4_)" fill-rule="evenodd" clip-rule="evenodd" fill="#2C77BC" d="M170.923,236.186
			c0,0.905-0.734,1.64-1.639,1.64c-0.906,0-1.64-0.735-1.64-1.64c0-0.905,0.734-1.64,1.64-1.64
			C170.189,234.545,170.923,235.28,170.923,236.186"/>
		<path clip-path="url(#SVGID_4_)" fill-rule="evenodd" clip-rule="evenodd" fill="#2C77BC" d="M179.777,236.186
			c0,0.905-0.734,1.64-1.639,1.64c-0.906,0-1.64-0.735-1.64-1.64c0-0.905,0.734-1.64,1.64-1.64
			C179.043,234.545,179.777,235.28,179.777,236.186"/>
		<path clip-path="url(#SVGID_4_)" fill-rule="evenodd" clip-rule="evenodd" fill="#2C77BC" d="M188.631,236.186
			c0,0.905-0.734,1.64-1.639,1.64c-0.906,0-1.64-0.735-1.64-1.64c0-0.905,0.734-1.64,1.64-1.64
			C187.897,234.545,188.631,235.28,188.631,236.186"/>
		<path clip-path="url(#SVGID_4_)" fill-rule="evenodd" clip-rule="evenodd" fill="#2C77BC" d="M197.485,236.186
			c0,0.905-0.734,1.64-1.639,1.64c-0.906,0-1.64-0.735-1.64-1.64c0-0.905,0.734-1.64,1.64-1.64
			C196.751,234.545,197.485,235.28,197.485,236.186"/>
		<path clip-path="url(#SVGID_4_)" fill-rule="evenodd" clip-rule="evenodd" fill="#2C77BC" d="M206.34,236.186
			c0,0.905-0.734,1.64-1.639,1.64c-0.906,0-1.64-0.735-1.64-1.64c0-0.905,0.734-1.64,1.64-1.64
			C205.605,234.545,206.34,235.28,206.34,236.186"/>
		<path clip-path="url(#SVGID_4_)" fill-rule="evenodd" clip-rule="evenodd" fill="#2C77BC" d="M215.194,236.186
			c0,0.905-0.734,1.64-1.639,1.64c-0.906,0-1.64-0.735-1.64-1.64c0-0.905,0.734-1.64,1.64-1.64
			C214.459,234.545,215.194,235.28,215.194,236.186"/>
		<path clip-path="url(#SVGID_4_)" fill-rule="evenodd" clip-rule="evenodd" fill="#2C77BC" d="M224.048,236.186
			c0,0.905-0.734,1.64-1.639,1.64c-0.906,0-1.64-0.735-1.64-1.64c0-0.905,0.734-1.64,1.64-1.64
			C223.314,234.545,224.048,235.28,224.048,236.186"/>
		<path clip-path="url(#SVGID_4_)" fill-rule="evenodd" clip-rule="evenodd" fill="#2C77BC" d="M232.902,236.186
			c0,0.905-0.734,1.64-1.639,1.64c-0.906,0-1.64-0.735-1.64-1.64c0-0.905,0.734-1.64,1.64-1.64
			C232.168,234.545,232.902,235.28,232.902,236.186"/>
		
			<rect x="81.838" y="121.572" clip-path="url(#SVGID_4_)" fill="none" stroke="#2C77BC" stroke-width="2.186" stroke-miterlimit="10" width="7.115" height="106.565"/>
		
			<rect x="81.838" y="104.453" clip-path="url(#SVGID_4_)" fill="none" stroke="#2C77BC" stroke-width="2.186" stroke-miterlimit="10" width="62.77" height="7.115"/>
		
			<rect x="75.078" y="257.99" clip-path="url(#SVGID_4_)" fill="none" stroke="#2C77BC" stroke-width="2.186" stroke-miterlimit="10" width="35.456" height="7.115"/>
		
			<rect x="160.932" y="104.453" clip-path="url(#SVGID_4_)" fill="none" stroke="#2C77BC" stroke-width="2.186" stroke-miterlimit="10" width="70.912" height="7.115"/>
		
			<rect x="162.069" y="160.628" clip-path="url(#SVGID_4_)" fill="none" stroke="#2C77BC" stroke-width="2.186" stroke-miterlimit="10" width="16.069" height="16.068"/>
		
			<rect x="207.979" y="144.865" clip-path="url(#SVGID_4_)" fill="none" stroke="#2C77BC" stroke-width="2.186" stroke-miterlimit="10" width="16.069" height="8.034"/>
		
			<rect x="231.263" y="127.004" clip-path="url(#SVGID_4_)" fill="none" stroke="#2C77BC" stroke-width="2.186" stroke-miterlimit="10" width="16.069" height="8.034"/>
		
			<rect x="231.263" y="162.729" clip-path="url(#SVGID_4_)" fill="none" stroke="#2C77BC" stroke-width="2.186" stroke-miterlimit="10" width="16.069" height="8.035"/>
		
			<rect x="117.056" y="258.986" clip-path="url(#SVGID_4_)" fill="none" stroke="#2C77BC" stroke-width="2.186" stroke-miterlimit="10" width="48.382" height="18.6"/>
		
			<rect x="181.058" y="258.986" clip-path="url(#SVGID_4_)" fill="none" stroke="#2C77BC" stroke-width="2.186" stroke-miterlimit="10" width="48.382" height="18.6"/>
		
			<rect x="253.515" y="144.865" clip-path="url(#SVGID_4_)" fill="none" stroke="#2C77BC" stroke-width="2.186" stroke-miterlimit="10" width="16.069" height="8.034"/>
		
			<rect x="123.716" y="269.285" clip-path="url(#SVGID_4_)" fill-rule="evenodd" clip-rule="evenodd" fill="#2C77BC" width="2.134" height="2.134"/>
		
			<rect x="131.897" y="269.285" clip-path="url(#SVGID_4_)" fill-rule="evenodd" clip-rule="evenodd" fill="#2C77BC" width="2.135" height="2.134"/>
		
			<rect x="140.08" y="269.285" clip-path="url(#SVGID_4_)" fill-rule="evenodd" clip-rule="evenodd" fill="#2C77BC" width="2.134" height="2.134"/>
		
			<rect x="148.261" y="269.285" clip-path="url(#SVGID_4_)" fill-rule="evenodd" clip-rule="evenodd" fill="#2C77BC" width="2.135" height="2.134"/>
		
			<rect x="156.444" y="269.285" clip-path="url(#SVGID_4_)" fill-rule="evenodd" clip-rule="evenodd" fill="#2C77BC" width="2.134" height="2.134"/>
		
			<rect x="187.633" y="269.285" clip-path="url(#SVGID_4_)" fill-rule="evenodd" clip-rule="evenodd" fill="#2C77BC" width="2.135" height="2.134"/>
		
			<rect x="195.815" y="269.285" clip-path="url(#SVGID_4_)" fill-rule="evenodd" clip-rule="evenodd" fill="#2C77BC" width="2.135" height="2.134"/>
		
			<rect x="203.997" y="269.285" clip-path="url(#SVGID_4_)" fill-rule="evenodd" clip-rule="evenodd" fill="#2C77BC" width="2.135" height="2.134"/>
		
			<rect x="212.179" y="269.285" clip-path="url(#SVGID_4_)" fill-rule="evenodd" clip-rule="evenodd" fill="#2C77BC" width="2.135" height="2.134"/>
		
			<rect x="220.362" y="269.285" clip-path="url(#SVGID_4_)" fill-rule="evenodd" clip-rule="evenodd" fill="#2C77BC" width="2.135" height="2.134"/>
		
			<line clip-path="url(#SVGID_4_)" fill="none" stroke="#2C77BC" stroke-width="2.186" stroke-miterlimit="10" x1="83.942" y1="257.99" x2="83.942" y2="265.105"/>
		
			<line clip-path="url(#SVGID_4_)" fill="none" stroke="#2C77BC" stroke-width="2.186" stroke-miterlimit="10" x1="92.807" y1="257.99" x2="92.807" y2="265.105"/>
		
			<line clip-path="url(#SVGID_4_)" fill="none" stroke="#2C77BC" stroke-width="2.186" stroke-miterlimit="10" x1="101.67" y1="257.99" x2="101.67" y2="265.105"/>
		
			<rect x="77.638" y="239.394" clip-path="url(#SVGID_4_)" fill="none" stroke="#2C77BC" stroke-width="2.186" stroke-miterlimit="10" width="17.728" height="7.114"/>
		
			<line clip-path="url(#SVGID_4_)" fill="none" stroke="#2C77BC" stroke-width="2.186" stroke-miterlimit="10" x1="86.502" y1="239.394" x2="86.502" y2="246.508"/>
		
			<line clip-path="url(#SVGID_4_)" fill="none" stroke="#2C77BC" stroke-width="2.186" stroke-miterlimit="10" x1="88.953" y1="219.303" x2="81.837" y2="219.303"/>
		
			<line clip-path="url(#SVGID_4_)" fill="none" stroke="#2C77BC" stroke-width="2.186" stroke-miterlimit="10" x1="88.953" y1="210.212" x2="81.837" y2="210.212"/>
		
			<line clip-path="url(#SVGID_4_)" fill="none" stroke="#2C77BC" stroke-width="2.186" stroke-miterlimit="10" x1="88.953" y1="201.348" x2="81.837" y2="201.348"/>
		
			<line clip-path="url(#SVGID_4_)" fill="none" stroke="#2C77BC" stroke-width="2.186" stroke-miterlimit="10" x1="88.953" y1="192.484" x2="81.837" y2="192.484"/>
		
			<line clip-path="url(#SVGID_4_)" fill="none" stroke="#2C77BC" stroke-width="2.186" stroke-miterlimit="10" x1="88.953" y1="183.62" x2="81.837" y2="183.62"/>
		
			<line clip-path="url(#SVGID_4_)" fill="none" stroke="#2C77BC" stroke-width="2.186" stroke-miterlimit="10" x1="88.953" y1="174.756" x2="81.837" y2="174.756"/>
		
			<line clip-path="url(#SVGID_4_)" fill="none" stroke="#2C77BC" stroke-width="2.186" stroke-miterlimit="10" x1="88.953" y1="165.892" x2="81.837" y2="165.892"/>
		
			<line clip-path="url(#SVGID_4_)" fill="none" stroke="#2C77BC" stroke-width="2.186" stroke-miterlimit="10" x1="88.953" y1="157.028" x2="81.837" y2="157.028"/>
		
			<line clip-path="url(#SVGID_4_)" fill="none" stroke="#2C77BC" stroke-width="2.186" stroke-miterlimit="10" x1="88.953" y1="148.164" x2="81.837" y2="148.164"/>
		
			<line clip-path="url(#SVGID_4_)" fill="none" stroke="#2C77BC" stroke-width="2.186" stroke-miterlimit="10" x1="88.953" y1="139.3" x2="81.837" y2="139.3"/>
		
			<line clip-path="url(#SVGID_4_)" fill="none" stroke="#2C77BC" stroke-width="2.186" stroke-miterlimit="10" x1="88.953" y1="130.436" x2="81.837" y2="130.436"/>
		
			<line clip-path="url(#SVGID_4_)" fill="none" stroke="#2C77BC" stroke-width="2.186" stroke-miterlimit="10" x1="169.796" y1="111.568" x2="169.796" y2="104.453"/>
		
			<line clip-path="url(#SVGID_4_)" fill="none" stroke="#2C77BC" stroke-width="2.186" stroke-miterlimit="10" x1="135.437" y1="111.568" x2="135.437" y2="104.453"/>
		
			<line clip-path="url(#SVGID_4_)" fill="none" stroke="#2C77BC" stroke-width="2.186" stroke-miterlimit="10" x1="126.158" y1="111.568" x2="126.158" y2="104.453"/>
		
			<line clip-path="url(#SVGID_4_)" fill="none" stroke="#2C77BC" stroke-width="2.186" stroke-miterlimit="10" x1="117.294" y1="111.568" x2="117.294" y2="104.453"/>
		
			<line clip-path="url(#SVGID_4_)" fill="none" stroke="#2C77BC" stroke-width="2.186" stroke-miterlimit="10" x1="108.43" y1="111.568" x2="108.43" y2="104.453"/>
		
			<line clip-path="url(#SVGID_4_)" fill="none" stroke="#2C77BC" stroke-width="2.186" stroke-miterlimit="10" x1="99.566" y1="111.568" x2="99.566" y2="104.453"/>
		
			<line clip-path="url(#SVGID_4_)" fill="none" stroke="#2C77BC" stroke-width="2.186" stroke-miterlimit="10" x1="90.702" y1="111.568" x2="90.702" y2="104.453"/>
		
			<line clip-path="url(#SVGID_4_)" fill="none" stroke="#2C77BC" stroke-width="2.186" stroke-miterlimit="10" x1="178.66" y1="111.568" x2="178.66" y2="104.453"/>
		
			<line clip-path="url(#SVGID_4_)" fill="none" stroke="#2C77BC" stroke-width="2.186" stroke-miterlimit="10" x1="187.524" y1="111.568" x2="187.524" y2="104.453"/>
		
			<line clip-path="url(#SVGID_4_)" fill="none" stroke="#2C77BC" stroke-width="2.186" stroke-miterlimit="10" x1="196.388" y1="111.568" x2="196.388" y2="104.453"/>
		
			<line clip-path="url(#SVGID_4_)" fill="none" stroke="#2C77BC" stroke-width="2.186" stroke-miterlimit="10" x1="205.252" y1="111.568" x2="205.252" y2="104.453"/>
		
			<line clip-path="url(#SVGID_4_)" fill="none" stroke="#2C77BC" stroke-width="2.186" stroke-miterlimit="10" x1="214.117" y1="111.568" x2="214.117" y2="104.453"/>
		
			<line clip-path="url(#SVGID_4_)" fill="none" stroke="#2C77BC" stroke-width="2.186" stroke-miterlimit="10" x1="222.98" y1="111.568" x2="222.98" y2="104.453"/>
		
			<rect x="266.872" y="210.937" clip-path="url(#SVGID_4_)" fill="none" stroke="#2C77BC" stroke-width="2.186" stroke-miterlimit="10" width="8.854" height="20.836"/>
		
			<rect x="275.726" y="226.239" clip-path="url(#SVGID_4_)" fill-rule="evenodd" clip-rule="evenodd" fill="#2C77BC" width="3.716" height="3.716"/>
		<path clip-path="url(#SVGID_4_)" fill="none" stroke="#2C77BC" stroke-width="2.186" stroke-miterlimit="10" d="M144.953,140.896
			h-5.139c-2.407,0-4.377-1.97-4.377-4.377v-5.14c0-2.406,1.97-4.376,4.377-4.376h5.139c2.407,0,4.376,1.97,4.376,4.376v5.14
			C149.329,138.927,147.359,140.896,144.953,140.896z"/>
	</g>
	<g clip-path="url(#SVGID_2_)">
		<text transform="matrix(1 0 0 1 271.3052 240.2549)" fill="#2C77BC" font-family="'Nunito-ExtraBold'" font-size="9.7053">0</text>
	</g>
	<g clip-path="url(#SVGID_2_)">
		<text transform="matrix(1 0 0 1 271.3052 206.6064)" fill="#2C77BC" font-family="'Nunito-ExtraBold'" font-size="9.7053">1</text>
	</g>
	<g clip-path="url(#SVGID_2_)">
		<defs>
			<rect id="SVGID_5_" width="1732" height="1178"/>
		</defs>
		<clipPath id="SVGID_6_">
			<use xlink:href="#SVGID_5_"  overflow="visible"/>
		</clipPath>
		<polygon clip-path="url(#SVGID_6_)" fill="none" stroke="#1A77BC" stroke-width="3.31" stroke-miterlimit="10" points="
			980.926,503.438 980.926,499.067 999.868,499.067 999.868,488.868 980.926,488.868 980.926,474.296 884.759,474.296 
			788.591,474.296 788.591,488.868 769.649,488.868 769.649,499.067 788.591,499.067 788.591,503.438 826.475,503.438 
			826.475,579.208 788.591,579.208 788.591,585.036 769.649,585.036 769.649,593.777 788.591,593.777 788.591,606.892 
			884.759,606.892 980.926,606.892 980.926,593.777 999.868,593.777 999.868,585.036 980.926,585.036 980.926,579.208 
			943.042,579.208 943.042,503.438 		"/>
		
			<circle clip-path="url(#SVGID_6_)" fill="none" stroke="#1A77BC" stroke-width="2.186" stroke-miterlimit="10" cx="885.487" cy="542.051" r="16.757"/>
		<path clip-path="url(#SVGID_6_)" fill="none" stroke="#2C77BC" stroke-width="3.319" stroke-miterlimit="10" d="M443.695,475.333
			c0,0,42.255-16.028,58.283-49.541c16.028-33.513,77.226-4.371,90.339,18.942c13.114,23.313,6.946,62.046-55.369,55.37
			c-40.798-4.372-55.369-4.372-67.026,4.371"/>
		<path clip-path="url(#SVGID_6_)" fill="none" stroke="#2C77BC" stroke-width="3.319" stroke-miterlimit="10" d="M449.523,484.075
			c0,0,36.427-21.856,43.713-53.912c7.285-32.056,68.482-32.056,84.51-14.57c16.028,17.484,16.028,50.997-42.255,61.197
			c-58.283,10.199-68.483,20.399-68.483,20.399"/>
		<path clip-path="url(#SVGID_6_)" fill="none" stroke="#2C77BC" stroke-width="3.319" stroke-miterlimit="10" d="M449.523,488.446
			c0,0,29.142-14.57,34.97-23.313s18.942-49.541,64.112-40.798c45.169,8.742,52.455,43.712,32.056,58.283
			c-20.4,14.571-107.825-5.828-120.938,11.656"/>
		
			<polygon clip-path="url(#SVGID_6_)" fill="none" stroke="#2A77BC" stroke-width="1.84" stroke-linejoin="round" stroke-miterlimit="10" points="
			421.11,478.976 422.567,483.347 444.423,477.519 442.238,472.418 		"/>
		
			<line clip-path="url(#SVGID_6_)" fill="none" stroke="#2A77BC" stroke-width="1.84" stroke-linejoin="round" stroke-miterlimit="10" x1="421.76" y1="481.728" x2="410.104" y2="484.642"/>
		
			<polygon clip-path="url(#SVGID_6_)" fill="none" stroke="#2A77BC" stroke-width="1.84" stroke-linejoin="round" stroke-miterlimit="10" points="
			442.585,508.262 446.058,511.29 461.939,495.184 457.47,491.896 		"/>
		
			<line clip-path="url(#SVGID_6_)" fill="none" stroke="#2A77BC" stroke-width="1.84" stroke-linejoin="round" stroke-miterlimit="10" x1="444.541" y1="510.304" x2="435.972" y2="518.727"/>
		<polygon clip-path="url(#SVGID_6_)" fill-rule="evenodd" clip-rule="evenodd" fill="#FFFFFF" points="429.837,490.294 
			431.052,494.739 453.195,490.117 451.292,484.905 		"/>
		
			<polygon clip-path="url(#SVGID_6_)" fill="none" stroke="#2A77BC" stroke-width="1.84" stroke-linejoin="round" stroke-miterlimit="10" points="
			429.837,490.294 431.052,494.739 453.195,490.117 451.292,484.905 		"/>
		
			<line clip-path="url(#SVGID_6_)" fill="none" stroke="#2A77BC" stroke-width="1.84" stroke-linejoin="round" stroke-miterlimit="10" x1="430.336" y1="493.077" x2="418.537" y2="495.348"/>
		<polygon clip-path="url(#SVGID_6_)" fill-rule="evenodd" clip-rule="evenodd" fill="#FFFFFF" points="430.004,490.156 
			432.144,494.237 452.782,484.979 449.806,480.295 		"/>
		
			<polygon clip-path="url(#SVGID_6_)" fill="none" stroke="#2A77BC" stroke-width="1.84" stroke-linejoin="round" stroke-miterlimit="10" points="
			430.004,490.156 432.144,494.237 452.782,484.979 449.806,480.295 		"/>
		
			<line clip-path="url(#SVGID_6_)" fill="none" stroke="#2A77BC" stroke-width="1.84" stroke-linejoin="round" stroke-miterlimit="10" x1="431.087" y1="492.769" x2="420.049" y2="497.515"/>
		<polygon clip-path="url(#SVGID_6_)" fill-rule="evenodd" clip-rule="evenodd" fill="#FFFFFF" points="449.554,509.21 
			452.716,512.561 470.087,498.072 465.957,494.366 		"/>
		
			<polygon clip-path="url(#SVGID_6_)" fill="none" stroke="#2A77BC" stroke-width="1.84" stroke-linejoin="round" stroke-miterlimit="10" points="
			449.554,509.21 452.716,512.561 470.087,498.072 465.957,494.366 		"/>
		
			<line clip-path="url(#SVGID_6_)" fill-rule="evenodd" clip-rule="evenodd" fill="#FFFFFF" x1="451.303" y1="511.432" x2="441.957" y2="518.982"/>
		
			<line clip-path="url(#SVGID_6_)" fill="none" stroke="#2A77BC" stroke-width="1.84" stroke-linejoin="round" stroke-miterlimit="10" x1="451.303" y1="511.432" x2="441.957" y2="518.982"/>
		<polygon clip-path="url(#SVGID_6_)" fill-rule="evenodd" clip-rule="evenodd" fill="#FFFFFF" points="452.469,516.495 
			455.63,519.847 473.001,505.357 468.872,501.652 		"/>
		
			<polygon clip-path="url(#SVGID_6_)" fill="none" stroke="#2A77BC" stroke-width="1.84" stroke-linejoin="round" stroke-miterlimit="10" points="
			452.469,516.495 455.63,519.847 473.001,505.357 468.872,501.652 		"/>
		
			<line clip-path="url(#SVGID_6_)" fill-rule="evenodd" clip-rule="evenodd" fill="#FFFFFF" x1="454.217" y1="518.717" x2="444.871" y2="526.269"/>
		
			<line clip-path="url(#SVGID_6_)" fill="none" stroke="#2A77BC" stroke-width="1.84" stroke-linejoin="round" stroke-miterlimit="10" x1="454.217" y1="518.717" x2="444.871" y2="526.269"/>
		<path clip-path="url(#SVGID_6_)" fill="none" stroke="#2C77BC" stroke-width="3.319" stroke-miterlimit="10" d="M168.265,426.811
			c-4.734,0-4.975-27.198-15.847-23.695l-0.001-0.002c-0.004,0.002-0.007,0.004-0.011,0.005c-0.004,0.002-0.008,0.002-0.013,0.003
			l0.001,0.002c-10.8,3.719,5.322,25.624,1.535,28.464c-3.471,2.602,0.092,1.545,3.399,0.325c2.114-0.781,4.124-1.627,4.124-1.627
			l0.013-0.004C161.465,430.281,175.376,426.811,168.265,426.811z"/>
		
			<line clip-path="url(#SVGID_6_)" fill="none" stroke="#2A77BC" stroke-width="1.994" stroke-miterlimit="10" x1="176.554" y1="489.822" x2="158.984" y2="431.912"/>
		
			<line clip-path="url(#SVGID_6_)" fill="none" stroke="#2A77BC" stroke-width="1.994" stroke-miterlimit="10" x1="178.581" y1="474.622" x2="164.885" y2="429.478"/>
		
			<ellipse transform="matrix(0.7871 -0.6169 0.6169 0.7871 -395.5123 275.8521)" clip-path="url(#SVGID_6_)" fill="none" stroke="#2A77BC" stroke-width="1.733" stroke-miterlimit="10" cx="201.82" cy="710.832" rx="19.494" ry="20.833"/>
		
			<ellipse transform="matrix(0.7871 -0.6169 0.6169 0.7871 -395.5181 275.8602)" clip-path="url(#SVGID_6_)" fill="none" stroke="#2A77BC" stroke-width="1.733" stroke-miterlimit="10" cx="201.82" cy="710.832" rx="24.565" ry="26.252"/>
		
			<ellipse transform="matrix(0.7871 -0.6169 0.6169 0.7871 -440.1947 239.4752)" clip-path="url(#SVGID_6_)" fill="none" stroke="#2A77BC" stroke-width="2.144" stroke-miterlimit="10" cx="126.778" cy="757.352" rx="28.727" ry="29.345"/>
		
			<circle clip-path="url(#SVGID_6_)" fill="none" stroke="#2A77BC" stroke-width="1.733" stroke-miterlimit="10" cx="126.936" cy="757.193" r="23.467"/>
		<polyline clip-path="url(#SVGID_6_)" fill="none" stroke="#1A77BC" stroke-width="3.31" stroke-miterlimit="10" points="
			224.11,724.257 229.787,732.991 121.055,804.651 88.838,752.18 100.005,745.687 		"/>
		
			<line clip-path="url(#SVGID_6_)" fill="none" stroke="#1A77BC" stroke-width="3.31" stroke-miterlimit="10" x1="129.819" y1="728.096" x2="178.253" y2="700.19"/>
		<path clip-path="url(#SVGID_6_)" fill="none" stroke="#2A77BC" stroke-width="1.733" stroke-miterlimit="10" d="M177.42,702.79
			l-4.724,10.376c0,0-5.685,16.035,9.475,26.695c15.161,10.66,29.375-1.421,29.375-1.421l8.872-9.128"/>
		<path clip-path="url(#SVGID_6_)" fill="none" stroke="#2A77BC" stroke-width="1.733" stroke-miterlimit="10" d="M141.578,725.714
			l22.146-13.425c0,0,2.727,1.044,3.675,3.311c0.947,2.267,0,3.401,0,3.401s-17.809,10.947-20.136,12.842
			c-2.327,1.896-4.737-1.026-5.685-2.29C140.63,728.29,141.578,725.714,141.578,725.714z"/>
		
			<line clip-path="url(#SVGID_6_)" fill="none" stroke="#2A77BC" stroke-width="1.733" stroke-miterlimit="10" x1="167.521" y1="774.028" x2="178.253" y2="789.608"/>
		
			<line clip-path="url(#SVGID_6_)" fill="none" stroke="#2A77BC" stroke-width="1.733" stroke-miterlimit="10" x1="175.005" y1="769.968" x2="185.737" y2="785.548"/>
		
			<line clip-path="url(#SVGID_6_)" fill="none" stroke="#2A77BC" stroke-width="1.733" stroke-miterlimit="10" x1="181.695" y1="765.412" x2="192.427" y2="780.992"/>
		
			<line clip-path="url(#SVGID_6_)" fill="none" stroke="#2A77BC" stroke-width="1.733" stroke-miterlimit="10" x1="187.771" y1="761.111" x2="198.502" y2="776.691"/>
		
			<rect x="162.528" y="767.876" transform="matrix(0.8332 -0.553 0.553 0.8332 -398.3146 219.4639)" clip-path="url(#SVGID_6_)" fill="none" stroke="#2A77BC" stroke-width="1.733" stroke-miterlimit="10" width="4.185" height="4.184"/>
		
			<rect x="169.39" y="763.32" transform="matrix(0.8332 -0.553 0.553 0.8332 -394.6508 222.4987)" clip-path="url(#SVGID_6_)" fill="none" stroke="#2A77BC" stroke-width="1.733" stroke-miterlimit="10" width="4.185" height="4.184"/>
		
			<rect x="176.161" y="758.825" transform="matrix(0.8332 -0.553 0.553 0.8332 -391.0703 225.5295)" clip-path="url(#SVGID_6_)" fill="none" stroke="#2A77BC" stroke-width="1.733" stroke-miterlimit="10" width="4.185" height="4.185"/>
		
			<rect x="182.869" y="754.372" transform="matrix(0.8332 -0.553 0.553 0.8332 -387.4883 228.4965)" clip-path="url(#SVGID_6_)" fill="none" stroke="#2A77BC" stroke-width="1.733" stroke-miterlimit="10" width="4.185" height="4.184"/>
		<path clip-path="url(#SVGID_6_)" fill="none" stroke="#2A77BC" stroke-width="2.262" stroke-miterlimit="10" d="M346.188,871.336
			c0-2.315-3.05-4.243-7.153-4.783v9.566C343.139,875.579,346.188,873.651,346.188,871.336z"/>
		<path clip-path="url(#SVGID_6_)" fill="none" stroke="#2A77BC" stroke-width="2.262" stroke-miterlimit="10" d="M327.285,871.336
			c0,2.366,3.179,4.34,7.421,4.826v-9.652C330.463,866.997,327.285,868.97,327.285,871.336z"/>
		<polyline clip-path="url(#SVGID_6_)" fill="none" stroke="#2A77BC" stroke-width="2.262" stroke-miterlimit="10" points="
			334.706,877.005 334.706,885.251 339.035,885.251 339.035,873.707 		"/>
		<path clip-path="url(#SVGID_6_)" fill="none" stroke="#2A77BC" stroke-width="2.262" stroke-miterlimit="10" d="M346.188,871.954
			v21.337c0,0-2.361,6.339-9.937,6.339c-7.575,0-8.967-6.648-8.967-6.648v-21.646"/>
		<path clip-path="url(#SVGID_6_)" fill="none" stroke="#1A77BC" stroke-width="3.31" stroke-miterlimit="10" d="M327.851,886.773
			c0,0-10.26,2.2-14.358,10.651c-4.947,10.204,0.309,21.8,9.895,26.284c9.586,4.483,20.409,1.391,20.409,1.391l11.441,5.566
			l23.655-26.593l-16.079-7.156c0,0-6.123-9.542-16.059-11.088"/>
		
			<polyline clip-path="url(#SVGID_6_)" fill="none" stroke="#2A77BC" stroke-width="2.262" stroke-linejoin="round" stroke-miterlimit="10" points="
			325.914,888.068 319.266,896.386 329.315,907.142 344.643,907.142 355.496,896.386 346.189,888.544 		"/>
		
			<ellipse clip-path="url(#SVGID_6_)" fill="none" stroke="#2A77BC" stroke-width="2.262" stroke-miterlimit="10" cx="348.807" cy="919.918" rx="4.164" ry="2.242"/>
		
			<ellipse clip-path="url(#SVGID_6_)" fill="none" stroke="#2A77BC" stroke-width="2.262" stroke-miterlimit="10" cx="357.845" cy="911.635" rx="4.164" ry="2.241"/>
		
			<ellipse clip-path="url(#SVGID_6_)" fill="none" stroke="#2A77BC" stroke-width="2.262" stroke-miterlimit="10" cx="364.524" cy="903.527" rx="4.164" ry="2.241"/>
		
			<line clip-path="url(#SVGID_6_)" fill="none" stroke="#2A77BC" stroke-width="2.262" stroke-miterlimit="10" x1="360.188" y1="925.1" x2="371.11" y2="930.666"/>
		
			<line clip-path="url(#SVGID_6_)" fill="none" stroke="#2A77BC" stroke-width="2.262" stroke-miterlimit="10" x1="367.971" y1="916.751" x2="378.893" y2="922.317"/>
		
			<line clip-path="url(#SVGID_6_)" fill="none" stroke="#2A77BC" stroke-width="2.262" stroke-miterlimit="10" x1="375.091" y1="908.402" x2="386.013" y2="913.968"/>
		<polyline clip-path="url(#SVGID_6_)" fill="none" stroke="#2A77BC" stroke-width="2.262" stroke-miterlimit="10" points="
			319.266,896.386 319.266,901.285 327.967,910.667 345.704,910.667 355.496,900.875 355.496,896.855 		"/>
		<path clip-path="url(#SVGID_6_)" fill="none" stroke="#1A77BC" stroke-width="3.31" stroke-miterlimit="10" d="M116.132,1067.609
			c0,0-7.107-35.104-13.74-44.795c-6.632-9.689-17.529-13.826-25.584-17.917c-8.054-4.09,3.317-17.588,9.95-19.841
			c6.633-2.253,18.951,0.977,18.951,5.047s-4.552,18.411,3.172,27.586c7.725,9.176,31.414,39.971,31.414,39.971
			s0.947,2.843,4.856,1.185"/>
		
			<path clip-path="url(#SVGID_6_)" fill="none" stroke="#2A77BC" stroke-width="1.733" stroke-linejoin="round" stroke-miterlimit="10" d="
			M103.972,1076.611c0,0,1.923-3.79,4.91,0c2.986,3.79-0.107,6.633-1.719,5.686c-0.392-0.23-15.176-26.659-17.088-30.006
			c-2.527-4.422-4.738-4.738-5.37,0c-0.632,4.737,1.263,5.686-3.159,8.844c-4.421,3.158,2.843,6.633,6.633,9.16
			c3.791,2.526,12.95,8.212,12.95,8.212s5.712,2.487,6.034,6.396c0.323,3.909-2.283,2.961-3.349,2.014
			c-1.066-0.947-5.093-4.264-0.947-6.633"/>
		
			<path clip-path="url(#SVGID_6_)" fill="none" stroke="#2A77BC" stroke-width="1.733" stroke-linejoin="round" stroke-miterlimit="10" d="
			M86.166,1048.855c0,0,45.246-23.886,47.378-24.833c2.132-0.948,2.961,1.303,4.382,3.435c1.422,2.132,11.252,21.398,11.252,21.398"
			/>
		
			<path clip-path="url(#SVGID_6_)" fill="none" stroke="#2A77BC" stroke-width="1.733" stroke-linejoin="round" stroke-miterlimit="10" d="
			M104.813,1075.544c0,0,10.372-6.631,12.385-7.935c2.014-1.303,7.225,1.777,4.146,6.988l-12.462,7.561"/>
		
			<path clip-path="url(#SVGID_6_)" fill="none" stroke="#2A77BC" stroke-width="1.733" stroke-linejoin="round" stroke-miterlimit="10" d="
			M140.294,1054.581c0,0,9.002-5.923,10.778-6.515c1.777-0.591,5.686,0.355,5.212,6.515l-11.489,6.869
			C144.795,1061.45,145.27,1054.937,140.294,1054.581z"/>
		
			<path clip-path="url(#SVGID_6_)" fill="none" stroke="#2A77BC" stroke-width="1.733" stroke-linejoin="round" stroke-miterlimit="10" d="
			M123.001,1071.874c0,0,4.856,0.592,5.567-0.829c0.711-1.422,1.54-6.515,1.54-6.515l6.396-3.08c0,0,2.368,1.304,1.184,4.146
			l-9.12,5.448"/>
		
			<polyline clip-path="url(#SVGID_6_)" fill="none" stroke="#2A77BC" stroke-width="1.733" stroke-linejoin="round" stroke-miterlimit="10" points="
			106.357,1087.605 119.211,1080.283 117.052,1077.201 		"/>
		
			<polyline clip-path="url(#SVGID_6_)" fill="none" stroke="#2A77BC" stroke-width="1.733" stroke-linejoin="round" stroke-miterlimit="10" points="
			153.129,1056.468 153.129,1060.03 140.294,1067.609 136.149,1066.724 136.149,1069.86 126.436,1074.735 123.594,1072.939 		"/>
		<path clip-path="url(#SVGID_6_)" fill="none" stroke="#1A77BC" stroke-width="3.31" stroke-miterlimit="10" d="M95.615,1043.871
			c0,0-6.607-0.779-5.778-6.109c0.83-5.33-3.079-10.423-15.16-4.027c-12.082,6.396-13.029,10.897-7.226,12.437
			c5.804,1.54,15.635-1.62,18.715,2.685"/>
		<g clip-path="url(#SVGID_6_)">
			<g>
				<defs>
					<rect id="SVGID_7_" x="262.684" y="49.34" width="66.086" height="66.09"/>
				</defs>
				<clipPath id="SVGID_8_">
					<use xlink:href="#SVGID_7_"  overflow="visible"/>
				</clipPath>
				<path clip-path="url(#SVGID_8_)" fill-rule="evenodd" clip-rule="evenodd" fill="#B9F9F7" d="M328.77,82.385
					c0,18.249-14.794,33.043-33.043,33.043s-33.043-14.794-33.043-33.043s14.794-33.043,33.043-33.043S328.77,64.136,328.77,82.385"
					/>
			</g>
		</g>
	</g>
	<g clip-path="url(#SVGID_2_)">
		<text transform="matrix(1 0 0 1 285.3613 93.418)" fill="#1A303A" font-family="'Nunito-ExtraBold'" font-size="36.1053">1</text>
	</g>
	<g clip-path="url(#SVGID_2_)">
		<defs>
			<rect id="SVGID_9_" width="1732" height="1178"/>
		</defs>
		<clipPath id="SVGID_10_">
			<use xlink:href="#SVGID_9_"  overflow="visible"/>
		</clipPath>
		
			<circle clip-path="url(#SVGID_10_)" fill="none" stroke="#1A77BC" stroke-width="3.31" stroke-miterlimit="10" cx="547.459" cy="113.952" r="5.799"/>
		
			<circle clip-path="url(#SVGID_10_)" fill="none" stroke="#1A77BC" stroke-width="2.186" stroke-miterlimit="10" cx="506.565" cy="124.984" r="4.554"/>
		
			<circle clip-path="url(#SVGID_10_)" fill="none" stroke="#1A77BC" stroke-width="2.186" stroke-miterlimit="10" cx="589.258" cy="124.984" r="4.554"/>
		<path clip-path="url(#SVGID_10_)" fill="none" stroke="#1A77BC" stroke-width="3.31" stroke-miterlimit="10" d="M590.506,116.274
			h-8.453l-0.432-0.654l-0.406-1.465l-0.538-1.629l-0.617-1.602l-0.697-1.57l-0.772-1.533l-0.845-1.492l-0.918-1.451l-0.987-1.403
			l-1.056-1.351l-1.121-1.301l-1.184-1.242l-1.243-1.184l-1.299-1.122l-1.354-1.056l-1.403-0.988l-1.45-0.919l-1.494-0.845
			l-1.532-0.771l-1.569-0.696l-1.6-0.618l-1.631-0.54l-1.654-0.456l-1.673-0.378l-1.693-0.292l-1.701-0.211l-1.712-0.126
			l-1.716-0.042l-1.715,0.042l-1.712,0.126l-1.704,0.211l-1.691,0.292l-1.674,0.378l-1.653,0.458l-1.631,0.538l-1.6,0.618
			l-1.568,0.696l-1.534,0.771l-1.494,0.845l-1.449,0.919l-1.405,0.988l-1.352,1.056l-1.299,1.122l-1.243,1.184l-1.184,1.242
			l-1.121,1.301l-1.054,1.351l-0.99,1.403l-0.917,1.451l-0.847,1.492l-0.77,1.533l-0.695,1.57l-0.62,1.602l-0.539,1.629
			l-0.544,2.051l-0.884,0.068h-8.454c-6.619,0-8.826,4.131-8.826,8.543c0,4.413,2.207,8.543,8.826,8.543
			c2.325,0,4.733,0.104,9.66,0.207l0.054,0.198l0.707,2.319l0.62,1.6l0.695,1.569l0.77,1.534l1.1,1.893l0.938,1.439l1.007,1.388
			l1.627,1.98l10.294,20.459v9.058h31.671l0.125-9.058l10.24-20.459l0.864-1.001l1.056-1.353l0.987-1.404l0.918-1.45l0.845-1.492
			l0.772-1.534l0.697-1.567l0.617-1.602l0.538-1.63l0.249-0.9c4.747-0.098,6.814-0.194,9.042-0.194c6.619,0,8.826-4.13,8.826-8.543
			C599.332,120.405,597.125,116.274,590.506,116.274z"/>
		<path clip-path="url(#SVGID_10_)" fill="none" stroke="#1A77BC" stroke-width="3.31" stroke-miterlimit="10" d="M541.66,177.005
			v91.551c0,27.511,27.623,47.094,54.786,33.196c27.163-13.897,24.005-56.626,24.005-56.626"/>
		<path clip-path="url(#SVGID_10_)" fill="none" stroke="#1A77BC" stroke-width="3.31" stroke-miterlimit="10" d="M546.709,177.005
			v91.551c0,27.511,27.623,47.094,54.786,33.196c27.163-13.897,24.005-56.626,24.005-56.626"/>
		<path clip-path="url(#SVGID_10_)" fill="none" stroke="#1A77BC" stroke-width="3.31" stroke-miterlimit="10" d="M552.538,177.005
			v91.551c0,27.511,27.623,47.094,54.786,33.196c27.163-13.897,24.005-56.626,24.005-56.626"/>
		
			<rect x="613.258" y="230.686" clip-path="url(#SVGID_10_)" fill="none" stroke="#2A77BC" stroke-width="1.994" stroke-miterlimit="10" width="25.98" height="14.44"/>
		
			<circle clip-path="url(#SVGID_10_)" fill="none" stroke="#1A77BC" stroke-width="3.31" stroke-miterlimit="10" cx="666.27" cy="146.798" r="5.799"/>
		
			<circle clip-path="url(#SVGID_10_)" fill="none" stroke="#1A77BC" stroke-width="2.186" stroke-miterlimit="10" cx="707.164" cy="157.83" r="4.554"/>
		
			<circle clip-path="url(#SVGID_10_)" fill="none" stroke="#1A77BC" stroke-width="2.186" stroke-miterlimit="10" cx="624.47" cy="157.83" r="4.554"/>
		<path clip-path="url(#SVGID_10_)" fill="none" stroke="#1A77BC" stroke-width="3.31" stroke-miterlimit="10" d="M623.223,149.121
			h8.453l0.432-0.655l0.406-1.465l0.538-1.629l0.617-1.602l0.697-1.57l0.772-1.533l0.845-1.492l0.918-1.451l0.987-1.403l1.056-1.351
			l1.121-1.301l1.184-1.242l1.243-1.184l1.299-1.122l1.354-1.055l1.403-0.988l1.45-0.92l1.494-0.845l1.532-0.77l1.569-0.695
			l1.6-0.619l1.631-0.54l1.654-0.456l1.673-0.377l1.693-0.293l1.701-0.211l1.712-0.126l1.716-0.041l1.715,0.041l1.712,0.126
			l1.704,0.211l1.691,0.293l1.674,0.377l1.653,0.458l1.631,0.538l1.6,0.619l1.568,0.695l1.534,0.77l1.494,0.845l1.449,0.92
			l1.405,0.988l1.352,1.055l1.299,1.122l1.243,1.184l1.184,1.242l1.121,1.301l1.054,1.351l0.99,1.404l0.917,1.45l0.847,1.492
			l0.77,1.533l0.695,1.57l0.62,1.602l0.539,1.629l0.544,2.051l0.884,0.069h8.454c6.619,0,8.826,4.13,8.826,8.543
			c0,4.412-2.207,8.543-8.826,8.543c-2.325,0-4.733,0.103-9.66,0.206l-0.054,0.198l-0.707,2.32l-0.62,1.599l-0.695,1.57l-0.77,1.533
			l-1.1,1.894l-0.938,1.438l-1.006,1.388l-1.628,1.98l-10.294,20.459v9.059h-31.671l-0.125-9.059l-10.24-20.459l-0.864-1.001
			l-1.056-1.353l-0.987-1.404l-0.918-1.449l-0.845-1.493l-0.772-1.533l-0.697-1.568l-0.617-1.601l-0.538-1.631l-0.249-0.9
			c-4.747-0.097-6.814-0.193-9.042-0.193c-6.619,0-8.826-4.131-8.826-8.543C614.397,153.251,616.604,149.121,623.223,149.121z"/>
		<path clip-path="url(#SVGID_10_)" fill="none" stroke="#1A77BC" stroke-width="3.31" stroke-miterlimit="10" d="M672.068,209.852
			v91.551c0,27.51-27.623,47.093-54.786,33.195c-27.163-13.897-24.005-56.626-24.005-56.626"/>
		<path clip-path="url(#SVGID_10_)" fill="none" stroke="#1A77BC" stroke-width="3.31" stroke-miterlimit="10" d="M667.019,209.852
			v91.551c0,27.51-27.623,47.093-54.786,33.195c-27.163-13.897-24.005-56.626-24.005-56.626"/>
		<path clip-path="url(#SVGID_10_)" fill="none" stroke="#1A77BC" stroke-width="3.31" stroke-miterlimit="10" d="M661.191,209.852
			v91.551c0,27.51-27.623,47.093-54.786,33.195c-27.163-13.897-24.005-56.626-24.005-56.626"/>
		
			<rect x="574.49" y="263.532" clip-path="url(#SVGID_10_)" fill="none" stroke="#2A77BC" stroke-width="1.994" stroke-miterlimit="10" width="25.979" height="14.44"/>
		<g clip-path="url(#SVGID_10_)">
			<g>
				<defs>
					<rect id="SVGID_11_" x="674.121" y="71.79" width="66.086" height="66.09"/>
				</defs>
				<clipPath id="SVGID_12_">
					<use xlink:href="#SVGID_11_"  overflow="visible"/>
				</clipPath>
				<path clip-path="url(#SVGID_12_)" fill-rule="evenodd" clip-rule="evenodd" fill="#B9F9F7" d="M740.207,104.833
					c0,18.249-14.794,33.043-33.043,33.043s-33.043-14.794-33.043-33.043s14.794-33.043,33.043-33.043
					S740.207,86.584,740.207,104.833"/>
			</g>
		</g>
	</g>
	<g clip-path="url(#SVGID_2_)">
		<text transform="matrix(1 0 0 1 696.7798 115.8672)" fill="#1A303A" font-family="'Nunito-ExtraBold'" font-size="36.1053">2</text>
	</g>
	<g clip-path="url(#SVGID_2_)">
		<defs>
			<rect id="SVGID_13_" width="1732" height="1178"/>
		</defs>
		<clipPath id="SVGID_14_">
			<use xlink:href="#SVGID_13_"  overflow="visible"/>
		</clipPath>
		<polyline clip-path="url(#SVGID_14_)" fill="none" stroke="#1A77BC" stroke-width="2.186" stroke-miterlimit="10" points="
			1088.387,181.338 1089.442,182.691 1090.43,184.092 1091.348,185.543 1092.192,187.035 1092.964,188.569 1093.661,190.14 
			1094.279,191.74 1094.816,193.369 1095.221,194.835 1095.561,196.301 1095.874,197.987 1096.105,199.688 1096.25,201.399 
			1096.322,203.518 1096.279,205.234 1096.154,206.946 1095.944,208.65 1095.649,210.341 1095.221,212.201 1094.816,213.668 
			1094.279,215.299 1093.661,216.901 1092.964,218.468 1092.192,220.002 1091.348,221.494 1090.43,222.943 1089.442,224.348 
			1088.387,225.701 1087.521,226.701 1089.731,226.702 1077.282,247.161 1077.157,256.22 1045.487,256.22 1045.487,247.161 
			1032.755,227.748 1035.192,226.701 1033.564,224.722 1032.559,223.333 1031.62,221.896 1030.521,220.002 1029.75,218.468 
			1029.055,216.899 1028.436,215.299 1027.729,212.98 1027.353,211.617 1027.064,210.341 1026.771,208.649 1026.56,206.945 
			1026.436,205.234 1026.393,203.518 1026.436,201.803 1026.53,200.496 1026.721,198.791 1026.994,197.097 1027.353,195.42 
			1027.896,193.369 1028.436,191.74 1029.055,190.14 1029.75,188.569 1030.521,187.035 1031.367,185.543 1032.284,184.094 
			1033.273,182.691 1034.328,181.338 1035.449,180.037 1036.633,178.795 1037.876,177.611 1039.175,176.489 1040.527,175.435 
			1041.932,174.446 1043.381,173.526 1044.876,172.682 1046.409,171.911 1047.978,171.216 1049.577,170.598 1051.208,170.06 
			1052.861,169.602 1054.535,169.225 1056.227,168.932 1057.93,168.721 1059.643,168.596 1061.357,168.554 1063.074,168.596 
			1064.785,168.721 1066.486,168.932 1068.18,169.225 1069.854,169.602 1071.506,170.058 1073.137,170.598 1074.737,171.216 
			1076.307,171.911 1077.838,172.682 1079.332,173.526 1080.782,174.446 1082.186,175.435 1083.539,176.489 1084.838,177.611 
			1086.081,178.795 1087.266,180.037 1088.387,181.338 		"/>
		
			<rect x="1013.517" y="200.316" clip-path="url(#SVGID_14_)" fill="none" stroke="#1A77BC" stroke-width="2.186" stroke-miterlimit="10" width="7.8" height="7.27"/>
		
			<rect x="1101.21" y="200.124" clip-path="url(#SVGID_14_)" fill="none" stroke="#1A77BC" stroke-width="2.186" stroke-miterlimit="10" width="7.674" height="7.27"/>
		
			<rect x="1001.32" y="151.776" clip-path="url(#SVGID_14_)" fill="none" stroke="#1A77BC" stroke-width="3.31" stroke-miterlimit="10" width="119.48" height="122.396"/>
		<rect x="916.81" y="110.978" clip-path="url(#SVGID_14_)" fill="#FFFFFF" width="119.481" height="122.395"/>
		
			<rect x="916.81" y="110.978" clip-path="url(#SVGID_14_)" fill="none" stroke="#1A77BC" stroke-width="3.31" stroke-miterlimit="10" width="119.481" height="122.395"/>
		<polyline clip-path="url(#SVGID_14_)" fill="none" stroke="#1A77BC" stroke-width="2.186" stroke-miterlimit="10" points="
			1003.875,140.54 1004.932,141.892 1005.918,143.293 1006.836,144.745 1007.682,146.237 1008.453,147.77 1009.15,149.341 
			1009.769,150.942 1010.305,152.571 1010.711,154.036 1011.05,155.502 1011.363,157.188 1011.594,158.889 1011.739,160.6 
			1011.812,162.72 1011.769,164.435 1011.644,166.148 1011.434,167.852 1011.138,169.542 1010.711,171.403 1010.305,172.87 
			1009.769,174.5 1009.15,176.103 1008.453,177.67 1007.682,179.203 1006.836,180.695 1005.918,182.145 1004.932,183.55 
			1003.875,184.902 1003.011,185.902 1005.22,185.903 992.771,206.362 992.646,215.421 960.977,215.421 960.977,206.362 
			948.244,186.95 950.682,185.902 949.054,183.924 948.047,182.534 947.109,181.097 946.009,179.203 945.239,177.67 
			944.544,176.101 943.924,174.5 943.218,172.181 942.841,170.818 942.553,169.542 942.259,167.851 942.049,166.146 
			941.924,164.435 941.881,162.72 941.924,161.005 942.021,159.697 942.209,157.993 942.483,156.299 942.841,154.621 
			943.385,152.571 943.924,150.942 944.544,149.341 945.239,147.77 946.009,146.237 946.856,144.745 947.773,143.295 
			948.764,141.892 949.817,140.54 950.938,139.239 952.122,137.996 953.365,136.812 954.664,135.691 956.017,134.636 
			957.421,133.647 958.871,132.728 960.365,131.883 961.898,131.113 963.466,130.417 965.066,129.8 966.697,129.261 
			968.351,128.804 970.024,128.426 971.715,128.133 973.42,127.923 975.131,127.797 976.846,127.755 978.563,127.797 
			980.274,127.923 981.976,128.133 983.668,128.426 985.342,128.804 986.995,129.26 988.626,129.8 990.227,130.417 991.796,131.113 
			993.327,131.883 994.822,132.728 996.271,133.647 997.675,134.636 999.028,135.691 1000.327,136.812 1001.57,137.996 
			1002.754,139.239 1003.875,140.54 		"/>
		
			<rect x="929.006" y="159.517" clip-path="url(#SVGID_14_)" fill="none" stroke="#1A77BC" stroke-width="2.186" stroke-miterlimit="10" width="7.799" height="7.27"/>
		
			<rect x="1016.7" y="159.325" clip-path="url(#SVGID_14_)" fill="none" stroke="#1A77BC" stroke-width="2.186" stroke-miterlimit="10" width="7.674" height="7.27"/>
		<g clip-path="url(#SVGID_14_)">
			<g>
				<defs>
					<rect id="SVGID_15_" x="1115.37" y="229.857" width="66.09" height="66.086"/>
				</defs>
				<clipPath id="SVGID_16_">
					<use xlink:href="#SVGID_15_"  overflow="visible"/>
				</clipPath>
				<path clip-path="url(#SVGID_16_)" fill-rule="evenodd" clip-rule="evenodd" fill="#B9F9F7" d="M1181.457,262.899
					c0,18.249-14.795,33.043-33.044,33.043s-33.043-14.794-33.043-33.043s14.794-33.043,33.043-33.043
					S1181.457,244.65,1181.457,262.899"/>
			</g>
		</g>
	</g>
	<g clip-path="url(#SVGID_2_)">
		<text transform="matrix(1 0 0 1 1138.0479 273.9336)" fill="#1A303A" font-family="'Nunito-ExtraBold'" font-size="36.1053">3</text>
	</g>
	<g clip-path="url(#SVGID_2_)">
		<defs>
			<rect id="SVGID_17_" width="1732" height="1178"/>
		</defs>
		<clipPath id="SVGID_18_">
			<use xlink:href="#SVGID_17_"  overflow="visible"/>
		</clipPath>
		
			<line clip-path="url(#SVGID_18_)" fill="none" stroke="#1A77BC" stroke-width="2.186" stroke-linecap="round" stroke-linejoin="round" stroke-miterlimit="10" x1="1701.945" y1="444.862" x2="1701.945" y2="645.953"/>
		
			<line clip-path="url(#SVGID_18_)" fill="none" stroke="#1A77BC" stroke-width="2.186" stroke-linecap="round" stroke-linejoin="round" stroke-miterlimit="10" x1="1542.752" y1="447.802" x2="1542.752" y2="638.815"/>
		
			<line clip-path="url(#SVGID_18_)" fill="none" stroke="#1A77BC" stroke-width="2.186" stroke-linecap="round" stroke-linejoin="round" stroke-miterlimit="10" x1="1544.805" y1="640.869" x2="1699.891" y2="640.869"/>
		
			<line clip-path="url(#SVGID_18_)" fill="none" stroke="#1A77BC" stroke-width="2.186" stroke-linecap="round" stroke-linejoin="round" stroke-miterlimit="10" x1="1699.892" y1="445.748" x2="1544.806" y2="445.748"/>
		
			<line clip-path="url(#SVGID_18_)" fill="none" stroke="#1A77BC" stroke-width="2.186" stroke-linecap="round" stroke-linejoin="round" stroke-miterlimit="10" x1="1347.63" y1="447.802" x2="1347.63" y2="638.815"/>
		
			<line clip-path="url(#SVGID_18_)" fill="none" stroke="#1A77BC" stroke-width="2.186" stroke-linecap="round" stroke-linejoin="round" stroke-miterlimit="10" x1="1349.684" y1="640.869" x2="1390.772" y2="640.869"/>
		
			<line clip-path="url(#SVGID_18_)" fill="none" stroke="#1A77BC" stroke-width="2.186" stroke-linecap="round" stroke-linejoin="round" stroke-miterlimit="10" x1="1390.772" y1="445.748" x2="1349.684" y2="445.748"/>
		
			<line clip-path="url(#SVGID_18_)" fill="none" stroke="#1A77BC" stroke-width="2.186" stroke-linecap="round" stroke-linejoin="round" stroke-miterlimit="10" x1="1188.738" y1="640.869" x2="1345.576" y2="640.869"/>
		
			<line clip-path="url(#SVGID_18_)" fill="none" stroke="#1A77BC" stroke-width="2.186" stroke-linecap="round" stroke-linejoin="round" stroke-miterlimit="10" x1="1345.576" y1="445.748" x2="1188.738" y2="445.748"/>
		
			<line clip-path="url(#SVGID_18_)" fill="none" stroke="#1A77BC" stroke-width="2.186" stroke-linecap="round" stroke-linejoin="round" stroke-miterlimit="10" x1="1347.63" y1="803.973" x2="1542.752" y2="803.973"/>
		
			<line clip-path="url(#SVGID_18_)" fill="none" stroke="#1A77BC" stroke-width="2.186" stroke-linecap="round" stroke-linejoin="round" stroke-miterlimit="10" x1="1538.85" y1="807.875" x2="1351.532" y2="807.875"/>
		
			<line clip-path="url(#SVGID_18_)" fill="none" stroke="#1A77BC" stroke-width="2.186" stroke-linecap="round" stroke-linejoin="round" stroke-miterlimit="10" x1="1347.63" y1="286.1" x2="1542.752" y2="286.1"/>
		
			<line clip-path="url(#SVGID_18_)" fill="none" stroke="#1A77BC" stroke-width="2.186" stroke-linecap="round" stroke-linejoin="round" stroke-miterlimit="10" x1="1538.85" y1="282.197" x2="1351.532" y2="282.197"/>
		
			<line clip-path="url(#SVGID_18_)" fill="none" stroke="#1A77BC" stroke-width="2.186" stroke-linecap="round" stroke-linejoin="round" stroke-miterlimit="10" x1="1540.697" y1="640.869" x2="1499.608" y2="640.869"/>
		
			<line clip-path="url(#SVGID_18_)" fill="none" stroke="#1A77BC" stroke-width="2.186" stroke-linecap="round" stroke-linejoin="round" stroke-miterlimit="10" x1="1499.609" y1="445.748" x2="1540.698" y2="445.748"/>
		
			<line clip-path="url(#SVGID_18_)" fill="none" stroke="#1A77BC" stroke-width="2.186" stroke-linecap="round" stroke-linejoin="round" stroke-miterlimit="10" x1="1427.732" y1="445.748" x2="1462.648" y2="445.748"/>
		
			<line clip-path="url(#SVGID_18_)" fill="none" stroke="#1A77BC" stroke-width="2.186" stroke-linecap="round" stroke-linejoin="round" stroke-miterlimit="10" x1="1427.732" y1="640.869" x2="1462.648" y2="640.869"/>
		
			<circle clip-path="url(#SVGID_18_)" fill="none" stroke="#1A77BC" stroke-width="2.186" stroke-miterlimit="10" cx="1425.383" cy="543.308" r="12.358"/>
		
			<circle clip-path="url(#SVGID_18_)" fill="none" stroke="#1A77BC" stroke-width="2.186" stroke-miterlimit="10" cx="1508.74" cy="543.309" r="10.929"/>
		
			<rect x="1464.704" y="445.748" clip-path="url(#SVGID_18_)" fill="none" stroke="#1A77BC" stroke-width="2.186" stroke-miterlimit="10" width="32.851" height="1.274"/>
		
			<rect x="1392.826" y="445.748" clip-path="url(#SVGID_18_)" fill="none" stroke="#1A77BC" stroke-width="2.186" stroke-miterlimit="10" width="32.853" height="1.274"/>
		
			<line clip-path="url(#SVGID_18_)" fill="none" stroke="#1A77BC" stroke-width="3.31" stroke-miterlimit="10" x1="1186.684" y1="640.869" x2="1186.684" y2="445.748"/>
		<path clip-path="url(#SVGID_18_)" fill="none" stroke="#1A77BC" stroke-width="3.31" stroke-miterlimit="10" d="M1701.945,549.126
			V374.4c0-3.403-2.758-6.162-6.162-6.162h-101.779c-19.582,0-36.439,3.448-40.28,22.649l-10.973,54.861V286.1l-3.901-3.903V120.616
			l-41.294,0.061v-2.076c0-2.259-1.828-8.161-4.087-8.173l-24.638-0.142c-2.269-0.014-4.114,5.881-4.127,8.15v0.023v2.157h-39.024
			v-2.126c0-2.269-1.843-8.174-4.111-8.174h-0.02l-24.636,0.116c-2.261,0.01-4.087,5.912-4.087,8.173v1.799l-41.294,0.212v161.581
			l-3.902,3.903v159.648l-10.266-32.054c-0.385-1.92-3.779-7.425-5.738-7.425c0,0-62.523-5.103-62.873-4.77
			c0,0-13.133,0.13-14.258,0.13h-55.817c-2.27,0-4.107,1.84-4.107,4.107l-7.886,40.012"/>
		<path clip-path="url(#SVGID_18_)" fill="none" stroke="#1A77BC" stroke-width="3.31" stroke-miterlimit="10" d="M1701.945,549.126
			v163.967c0,3.403-2.758,6.162-6.162,6.162h-101.779c-19.582,0-36.439-3.446-40.28-22.647l-10.973-54.862v163.104l-3.901,3.902
			v161.416l-41.294-0.06v2.076c0,2.259-1.828,8.16-4.087,8.172l-24.638,0.142c-2.269,0.014-4.114-5.88-4.127-8.149v-0.024v-2.156
			h-39.024v2.126c0,2.27-1.843,8.174-4.111,8.174h-0.02l-24.636-0.115c-2.261-0.01-4.087-5.914-4.087-8.174v-1.799l-41.294-0.212
			V808.751l-3.902-3.902V641.745l-10.266,32.054c-0.385,1.92-3.779,7.425-5.738,7.425c0,0-62.523,5.104-62.873,4.771
			c0,0-13.133-0.13-14.258-0.13h-55.817c-2.27,0-4.107-1.84-4.107-4.109l-7.886-40.011"/>
		<polyline clip-path="url(#SVGID_18_)" fill="none" stroke="#1A77BC" stroke-width="2.186" stroke-miterlimit="10" points="
			1454.918,183.792 1455.974,185.144 1456.961,186.545 1457.879,187.997 1458.724,189.489 1459.496,191.022 1460.192,192.593 
			1460.811,194.194 1461.348,195.823 1461.754,197.288 1462.092,198.754 1462.405,200.44 1462.637,202.141 1462.781,203.852 
			1462.854,205.972 1462.811,207.688 1462.686,209.4 1462.476,211.104 1462.181,212.794 1461.754,214.655 1461.348,216.122 
			1460.811,217.752 1460.192,219.355 1459.496,220.922 1458.724,222.455 1457.879,223.947 1456.961,225.397 1455.974,226.802 
			1454.918,228.154 1454.054,229.154 1456.263,229.155 1443.813,249.614 1443.688,258.673 1412.019,258.673 1412.019,249.614 
			1399.287,230.202 1401.724,229.154 1400.096,227.176 1399.09,225.786 1398.151,224.349 1397.052,222.455 1396.281,220.922 
			1395.587,219.353 1394.967,217.752 1394.261,215.434 1393.884,214.07 1393.596,212.794 1393.302,211.103 1393.092,209.398 
			1392.967,207.688 1392.924,205.972 1392.967,204.257 1393.063,202.95 1393.252,201.245 1393.525,199.551 1393.884,197.873 
			1394.428,195.823 1394.967,194.194 1395.587,192.593 1396.281,191.022 1397.052,189.489 1397.898,187.997 1398.815,186.547 
			1399.805,185.144 1400.859,183.792 1401.98,182.491 1403.165,181.248 1404.408,180.065 1405.707,178.943 1407.059,177.888 
			1408.464,176.899 1409.913,175.98 1411.408,175.135 1412.94,174.365 1414.509,173.669 1416.108,173.052 1417.739,172.513 
			1419.393,172.056 1421.066,171.678 1422.758,171.386 1424.463,171.175 1426.174,171.049 1427.889,171.007 1429.605,171.049 
			1431.316,171.175 1433.018,171.386 1434.711,171.678 1436.385,172.056 1438.038,172.512 1439.669,173.052 1441.269,173.669 
			1442.838,174.365 1444.369,175.135 1445.863,175.98 1447.313,176.899 1448.717,177.888 1450.07,178.943 1451.369,180.065 
			1452.612,181.248 1453.797,182.491 1454.918,183.792 		"/>
		<polyline clip-path="url(#SVGID_18_)" fill="none" stroke="#1A77BC" stroke-width="2.186" stroke-miterlimit="10" points="
			1400.704,382.759 1399.647,381.406 1398.661,380.005 1397.743,378.554 1396.897,377.062 1396.126,375.528 1395.429,373.958 
			1394.811,372.357 1394.273,370.728 1393.869,369.262 1393.529,367.797 1393.216,366.11 1392.984,364.41 1392.84,362.698 
			1392.768,360.58 1392.811,358.863 1392.936,357.151 1393.146,355.447 1393.44,353.756 1393.869,351.896 1394.273,350.429 
			1394.811,348.798 1395.429,347.196 1396.126,345.629 1396.897,344.096 1397.743,342.603 1398.661,341.154 1399.647,339.749 
			1400.704,338.397 1401.567,337.396 1399.358,337.396 1411.808,316.937 1411.933,307.878 1443.603,307.878 1443.603,316.937 
			1456.335,336.349 1453.897,337.396 1455.524,339.375 1456.531,340.764 1457.47,342.202 1458.57,344.096 1459.34,345.629 
			1460.035,347.198 1460.654,348.798 1461.361,351.117 1461.738,352.48 1462.025,353.756 1462.32,355.449 1462.529,357.152 
			1462.654,358.863 1462.697,360.58 1462.654,362.295 1462.559,363.601 1462.37,365.305 1462.096,366.999 1461.738,368.677 
			1461.193,370.728 1460.654,372.357 1460.035,373.958 1459.34,375.528 1458.57,377.062 1457.723,378.554 1456.806,380.003 
			1455.815,381.406 1454.762,382.759 1453.641,384.06 1452.457,385.302 1451.214,386.487 1449.915,387.608 1448.563,388.663 
			1447.158,389.651 1445.708,390.57 1444.214,391.415 1442.681,392.186 1441.113,392.882 1439.513,393.5 1437.882,394.037 
			1436.229,394.496 1434.555,394.872 1432.863,395.165 1431.159,395.376 1429.447,395.502 1427.732,395.543 1426.016,395.502 
			1424.305,395.376 1422.604,395.165 1420.911,394.872 1419.236,394.496 1417.584,394.039 1415.953,393.5 1414.353,392.882 
			1412.783,392.186 1411.252,391.415 1409.758,390.57 1408.308,389.651 1406.904,388.663 1405.551,387.608 1404.252,386.487 
			1403.009,385.302 1401.825,384.06 1400.704,382.759 		"/>
		<polyline clip-path="url(#SVGID_18_)" fill="none" stroke="#1A77BC" stroke-width="2.186" stroke-miterlimit="10" points="
			1456.076,704.306 1457.133,705.659 1458.119,707.06 1459.037,708.511 1459.883,710.003 1460.654,711.536 1461.352,713.106 
			1461.97,714.708 1462.506,716.337 1462.911,717.803 1463.25,719.268 1463.564,720.955 1463.795,722.654 1463.94,724.367 
			1464.013,726.484 1463.97,728.202 1463.845,729.914 1463.635,731.618 1463.34,733.308 1462.911,735.169 1462.506,736.635 
			1461.97,738.267 1461.352,739.869 1460.654,741.436 1459.883,742.97 1459.037,744.462 1458.119,745.911 1457.133,747.314 
			1456.076,748.668 1455.213,749.668 1457.422,749.67 1444.973,770.129 1444.848,779.188 1413.178,779.188 1413.178,770.129 
			1400.445,750.716 1402.883,749.668 1401.254,747.689 1400.248,746.3 1399.311,744.862 1398.21,742.97 1397.44,741.436 
			1396.745,739.867 1396.125,738.267 1395.419,735.947 1395.042,734.585 1394.754,733.308 1394.46,731.615 1394.25,729.912 
			1394.125,728.202 1394.082,726.484 1394.125,724.77 1394.221,723.464 1394.41,721.759 1394.685,720.064 1395.042,718.388 
			1395.586,716.337 1396.125,714.708 1396.745,713.106 1397.44,711.536 1398.21,710.003 1399.058,708.511 1399.975,707.062 
			1400.963,705.659 1402.019,704.306 1403.14,703.005 1404.323,701.763 1405.566,700.578 1406.865,699.457 1408.218,698.401 
			1409.622,697.414 1411.071,696.494 1412.566,695.649 1414.1,694.879 1415.667,694.183 1417.268,693.564 1418.898,693.027 
			1420.552,692.568 1422.226,692.192 1423.916,691.899 1425.62,691.688 1427.332,691.563 1429.047,691.521 1430.765,691.563 
			1432.476,691.688 1434.177,691.899 1435.869,692.192 1437.543,692.568 1439.196,693.025 1440.827,693.564 1442.428,694.183 
			1443.996,694.879 1445.528,695.649 1447.022,696.494 1448.473,697.414 1449.875,698.401 1451.229,699.457 1452.528,700.578 
			1453.771,701.763 1454.955,703.005 1456.076,704.306 		"/>
		<polyline clip-path="url(#SVGID_18_)" fill="none" stroke="#1A77BC" stroke-width="2.186" stroke-miterlimit="10" points="
			1401.862,906.563 1400.807,905.21 1399.819,903.809 1398.901,902.357 1398.057,900.865 1397.284,899.332 1396.588,897.762 
			1395.97,896.16 1395.433,894.531 1395.026,893.066 1394.688,891.601 1394.375,889.913 1394.144,888.214 1393.998,886.503 
			1393.927,884.384 1393.97,882.666 1394.095,880.954 1394.305,879.251 1394.6,877.561 1395.026,875.7 1395.433,874.233 
			1395.97,872.602 1396.588,871 1397.284,869.433 1398.057,867.899 1398.901,866.406 1399.819,864.957 1400.807,863.554 
			1401.862,862.2 1402.727,861.2 1400.518,861.198 1412.967,840.74 1413.092,831.681 1444.762,831.681 1444.762,840.74 
			1457.493,860.153 1455.057,861.2 1456.684,863.179 1457.69,864.568 1458.629,866.006 1459.729,867.899 1460.498,869.433 
			1461.193,871.002 1461.813,872.602 1462.52,874.921 1462.896,876.283 1463.185,877.561 1463.479,879.253 1463.688,880.956 
			1463.813,882.666 1463.856,884.384 1463.813,886.099 1463.718,887.404 1463.528,889.109 1463.255,890.804 1462.896,892.48 
			1462.353,894.531 1461.813,896.16 1461.193,897.762 1460.498,899.332 1459.729,900.865 1458.882,902.357 1457.965,903.807 
			1456.975,905.21 1455.921,906.563 1454.8,907.863 1453.615,909.105 1452.372,910.291 1451.073,911.411 1449.722,912.467 
			1448.316,913.454 1446.866,914.375 1445.372,915.219 1443.84,915.989 1442.271,916.686 1440.672,917.304 1439.041,917.841 
			1437.388,918.3 1435.714,918.676 1434.022,918.969 1432.317,919.18 1430.606,919.306 1428.892,919.347 1427.175,919.306 
			1425.464,919.18 1423.763,918.969 1422.069,918.676 1420.396,918.3 1418.742,917.843 1417.111,917.304 1415.512,916.686 
			1413.941,915.989 1412.41,915.219 1410.916,914.375 1409.467,913.454 1408.063,912.467 1406.709,911.411 1405.41,910.291 
			1404.168,909.105 1402.983,907.863 1401.862,906.563 		"/>
		
			<rect x="1380.048" y="202.769" clip-path="url(#SVGID_18_)" fill="none" stroke="#1A77BC" stroke-width="2.186" stroke-miterlimit="10" width="7.799" height="7.27"/>
		
			<rect x="1467.742" y="202.577" clip-path="url(#SVGID_18_)" fill="none" stroke="#1A77BC" stroke-width="2.186" stroke-miterlimit="10" width="7.674" height="7.27"/>
		
			<rect x="1467.002" y="358.045" clip-path="url(#SVGID_18_)" fill="none" stroke="#1A77BC" stroke-width="2.186" stroke-miterlimit="10" width="7.799" height="7.269"/>
		
			<rect x="1379.434" y="358.236" clip-path="url(#SVGID_18_)" fill="none" stroke="#1A77BC" stroke-width="2.186" stroke-miterlimit="10" width="7.674" height="7.271"/>
		
			<rect x="1381.207" y="723.284" clip-path="url(#SVGID_18_)" fill="none" stroke="#1A77BC" stroke-width="2.186" stroke-miterlimit="10" width="7.799" height="7.269"/>
		
			<rect x="1468.9" y="723.09" clip-path="url(#SVGID_18_)" fill="none" stroke="#1A77BC" stroke-width="2.186" stroke-miterlimit="10" width="7.674" height="7.271"/>
		
			<rect x="1468.931" y="880.315" clip-path="url(#SVGID_18_)" fill="none" stroke="#1A77BC" stroke-width="2.186" stroke-miterlimit="10" width="7.8" height="7.269"/>
		
			<rect x="1381.363" y="880.507" clip-path="url(#SVGID_18_)" fill="none" stroke="#1A77BC" stroke-width="2.186" stroke-miterlimit="10" width="7.674" height="7.271"/>
		
			<rect x="1464.704" y="640.233" clip-path="url(#SVGID_18_)" fill="none" stroke="#1A77BC" stroke-width="2.186" stroke-miterlimit="10" width="32.851" height="1.272"/>
		
			<rect x="1392.826" y="640.233" clip-path="url(#SVGID_18_)" fill="none" stroke="#1A77BC" stroke-width="2.186" stroke-miterlimit="10" width="32.853" height="1.272"/>
		<path clip-path="url(#SVGID_18_)" fill="none" stroke="#1A77BC" stroke-width="2.186" stroke-miterlimit="10" d="
			M1244.554,458.477l-1.097,5.363c12.484-2.368,24.824,4.757,29.018,16.754l4.097-3.631
			C1271.192,464.37,1258.147,456.839,1244.554,458.477z"/>
		<path clip-path="url(#SVGID_18_)" fill="none" stroke="#1A77BC" stroke-width="2.186" stroke-miterlimit="10" d="
			M1276.572,501.166l-4.098-3.632c-4.193,11.997-16.533,19.122-29.018,16.754l1.097,5.363
			C1258.147,521.289,1271.192,513.759,1276.572,501.166z"/>
		<path clip-path="url(#SVGID_18_)" fill="none" stroke="#1A77BC" stroke-width="2.186" stroke-miterlimit="10" d="M1223.592,507.55
			l5.194-1.732c-8.294-9.629-8.294-23.877,0-33.507l-5.194-1.732C1215.377,481.534,1215.377,496.595,1223.592,507.55z"/>
		<path clip-path="url(#SVGID_18_)" fill="none" stroke="#1A77BC" stroke-width="2.186" stroke-miterlimit="10" d="
			M1244.554,627.483l-1.097-5.363c12.484,2.368,24.824-4.757,29.018-16.754l4.097,3.632
			C1271.192,621.589,1258.147,629.121,1244.554,627.483z"/>
		<path clip-path="url(#SVGID_18_)" fill="none" stroke="#1A77BC" stroke-width="2.186" stroke-miterlimit="10" d="
			M1276.572,584.793l-4.098,3.634c-4.193-12-16.533-19.123-29.018-16.756l1.097-5.361
			C1258.147,564.67,1271.192,572.202,1276.572,584.793z"/>
		<path clip-path="url(#SVGID_18_)" fill="none" stroke="#1A77BC" stroke-width="2.186" stroke-miterlimit="10" d="
			M1223.592,578.411l5.194,1.729c-8.294,9.631-8.294,23.879,0,33.509l-5.194,1.73
			C1215.377,604.427,1215.377,589.364,1223.592,578.411z"/>
		
			<rect x="1624.399" y="370" clip-path="url(#SVGID_18_)" fill="none" stroke="#1A77BC" stroke-width="2.186" stroke-miterlimit="10" width="7.271" height="7.799"/>
		
			<rect x="1260.119" y="406.269" clip-path="url(#SVGID_18_)" fill="none" stroke="#1A77BC" stroke-width="2.186" stroke-miterlimit="10" width="7.269" height="7.675"/>
		
			<rect x="1624.399" y="708.819" clip-path="url(#SVGID_18_)" fill="none" stroke="#1A77BC" stroke-width="2.186" stroke-miterlimit="10" width="7.271" height="7.799"/>
		
			<rect x="1260.119" y="672.673" clip-path="url(#SVGID_18_)" fill="none" stroke="#1A77BC" stroke-width="2.186" stroke-miterlimit="10" width="7.269" height="7.674"/>
		<g clip-path="url(#SVGID_18_)">
			<g>
				<defs>
					<rect id="SVGID_19_" x="1529.2" y="189.343" width="66.09" height="66.086"/>
				</defs>
				<clipPath id="SVGID_20_">
					<use xlink:href="#SVGID_19_"  overflow="visible"/>
				</clipPath>
				<path clip-path="url(#SVGID_20_)" fill-rule="evenodd" clip-rule="evenodd" fill="#B9F9F7" d="M1595.285,222.387
					c0,18.249-14.794,33.043-33.043,33.043s-33.043-14.794-33.043-33.043s14.794-33.043,33.043-33.043
					S1595.285,204.138,1595.285,222.387"/>
			</g>
		</g>
	</g>
	<g clip-path="url(#SVGID_2_)">
		<text transform="matrix(1 0 0 1 1551.877 233.4209)" fill="#1A303A" font-family="'Nunito-ExtraBold'" font-size="36.1053">4</text>
	</g>
	<g clip-path="url(#SVGID_2_)">
		<defs>
			<rect id="SVGID_21_" width="1732" height="1178"/>
		</defs>
		<clipPath id="SVGID_22_">
			<use xlink:href="#SVGID_21_"  overflow="visible"/>
		</clipPath>
		<g clip-path="url(#SVGID_22_)">
			<g>
				<defs>
					<rect id="SVGID_23_" x="990.216" y="444.534" width="66.084" height="66.086"/>
				</defs>
				<clipPath id="SVGID_24_">
					<use xlink:href="#SVGID_23_"  overflow="visible"/>
				</clipPath>
				<path clip-path="url(#SVGID_24_)" fill-rule="evenodd" clip-rule="evenodd" fill="#B9F9F7" d="M1056.302,477.576
					c0,18.25-14.794,33.043-33.043,33.043s-33.043-14.793-33.043-33.043c0-18.249,14.794-33.043,33.043-33.043
					S1056.302,459.327,1056.302,477.576"/>
			</g>
		</g>
	</g>
	<g clip-path="url(#SVGID_2_)">
		<text transform="matrix(1 0 0 1 1012.8936 488.6104)" fill="#1A303A" font-family="'Nunito-ExtraBold'" font-size="36.1053">5</text>
	</g>
	<g clip-path="url(#SVGID_2_)">
		<defs>
			<rect id="SVGID_25_" width="1732" height="1178"/>
		</defs>
		<clipPath id="SVGID_26_">
			<use xlink:href="#SVGID_25_"  overflow="visible"/>
		</clipPath>
		
			<circle clip-path="url(#SVGID_26_)" fill="none" stroke="#1A77BC" stroke-width="3.31" stroke-miterlimit="10" cx="979.177" cy="947.787" r="125.309"/>
		<polygon clip-path="url(#SVGID_26_)" fill="none" stroke="#1A77BC" stroke-width="2.186" stroke-miterlimit="10" points="
			996.536,918.646 960.362,918.646 942.275,949.974 960.362,981.301 996.536,981.301 1014.623,949.974 		"/>
		<path clip-path="url(#SVGID_26_)" fill="#FFFFFF" d="M1225.425,1011.899c0,69.206-56.104,125.309-125.31,125.309
			s-125.309-56.103-125.309-125.309s56.103-125.31,125.309-125.31S1225.425,942.693,1225.425,1011.899"/>
		
			<circle clip-path="url(#SVGID_26_)" fill="none" stroke="#1A77BC" stroke-width="3.31" stroke-miterlimit="10" cx="1100.116" cy="1011.899" r="125.309"/>
		<polygon clip-path="url(#SVGID_26_)" fill="none" stroke="#1A77BC" stroke-width="2.186" stroke-miterlimit="10" points="
			1117.474,982.758 1081.3,982.758 1063.214,1014.085 1081.3,1045.412 1117.474,1045.412 1135.561,1014.085 		"/>
		<g clip-path="url(#SVGID_26_)">
			<g>
				<defs>
					<rect id="SVGID_27_" x="1218.2" y="973.51" width="66.09" height="66.086"/>
				</defs>
				<clipPath id="SVGID_28_">
					<use xlink:href="#SVGID_27_"  overflow="visible"/>
				</clipPath>
				<path clip-path="url(#SVGID_28_)" fill-rule="evenodd" clip-rule="evenodd" fill="#B9F9F7" d="M1284.288,1006.553
					c0,18.249-14.794,33.043-33.043,33.043s-33.043-14.794-33.043-33.043s14.794-33.043,33.043-33.043
					S1284.288,988.304,1284.288,1006.553"/>
			</g>
		</g>
	</g>
	<g clip-path="url(#SVGID_2_)">
		<text transform="matrix(1 0 0 1 1240.8789 1017.5869)" fill="#1A303A" font-family="'Nunito-ExtraBold'" font-size="36.1053">6</text>
	</g>
	<g clip-path="url(#SVGID_2_)">
		<defs>
			<rect id="SVGID_29_" width="1732" height="1178"/>
		</defs>
		<clipPath id="SVGID_30_">
			<use xlink:href="#SVGID_29_"  overflow="visible"/>
		</clipPath>
		<g clip-path="url(#SVGID_30_)">
			<g>
				<defs>
					<rect id="SVGID_31_" x="566.195" y="472.365" width="66.086" height="66.086"/>
				</defs>
				<clipPath id="SVGID_32_">
					<use xlink:href="#SVGID_31_"  overflow="visible"/>
				</clipPath>
				<path clip-path="url(#SVGID_32_)" fill-rule="evenodd" clip-rule="evenodd" fill="#B9F9F7" d="M632.281,505.408
					c0,18.249-14.794,33.043-33.043,33.043s-33.043-14.794-33.043-33.043s14.794-33.043,33.043-33.043
					S632.281,487.159,632.281,505.408"/>
			</g>
		</g>
	</g>
	<g clip-path="url(#SVGID_2_)">
		<text transform="matrix(1 0 0 1 588.8726 516.4414)" fill="#1A303A" font-family="'Nunito-ExtraBold'" font-size="36.1053">7</text>
	</g>
	<g clip-path="url(#SVGID_2_)">
		<defs>
			<rect id="SVGID_33_" width="1732" height="1178"/>
		</defs>
		<clipPath id="SVGID_34_">
			<use xlink:href="#SVGID_33_"  overflow="visible"/>
		</clipPath>
		<g clip-path="url(#SVGID_34_)">
			<g>
				<defs>
					<rect id="SVGID_35_" x="746.215" y="812.505" width="66.086" height="66.086"/>
				</defs>
				<clipPath id="SVGID_36_">
					<use xlink:href="#SVGID_35_"  overflow="visible"/>
				</clipPath>
				<path clip-path="url(#SVGID_36_)" fill-rule="evenodd" clip-rule="evenodd" fill="#B9F9F7" d="M812.301,845.548
					c0,18.249-14.794,33.043-33.043,33.043s-33.043-14.794-33.043-33.043s14.794-33.043,33.043-33.043
					S812.301,827.299,812.301,845.548"/>
			</g>
		</g>
	</g>
	<g clip-path="url(#SVGID_2_)">
		<text transform="matrix(1 0 0 1 768.8926 856.582)" fill="#1A303A" font-family="'Nunito-ExtraBold'" font-size="36.1053">8</text>
	</g>
	<g clip-path="url(#SVGID_2_)">
		<defs>
			<rect id="SVGID_37_" width="1732" height="1178"/>
		</defs>
		<clipPath id="SVGID_38_">
			<use xlink:href="#SVGID_37_"  overflow="visible"/>
		</clipPath>
		<g clip-path="url(#SVGID_38_)">
			<g>
				<defs>
					<rect id="SVGID_39_" x="309.569" y="922.558" width="66.086" height="66.086"/>
				</defs>
				<clipPath id="SVGID_40_">
					<use xlink:href="#SVGID_39_"  overflow="visible"/>
				</clipPath>
				<path clip-path="url(#SVGID_40_)" fill-rule="evenodd" clip-rule="evenodd" fill="#B9F9F7" d="M375.655,955.602
					c0,18.249-14.794,33.043-33.043,33.043s-33.043-14.794-33.043-33.043s14.794-33.043,33.043-33.043
					S375.655,937.353,375.655,955.602"/>
			</g>
		</g>
	</g>
	<g clip-path="url(#SVGID_2_)">
		<text transform="matrix(1 0 0 1 332.2461 966.6357)" fill="#1A303A" font-family="'Nunito-ExtraBold'" font-size="36.1053">9</text>
	</g>
	<g clip-path="url(#SVGID_2_)">
		<defs>
			<rect id="SVGID_41_" width="1732" height="1178"/>
		</defs>
		<clipPath id="SVGID_42_">
			<use xlink:href="#SVGID_41_"  overflow="visible"/>
		</clipPath>
		<g clip-path="url(#SVGID_42_)">
			<g>
				<defs>
					<rect id="SVGID_43_" x="143.214" y="1035.261" width="66.086" height="66.087"/>
				</defs>
				<clipPath id="SVGID_44_">
					<use xlink:href="#SVGID_43_"  overflow="visible"/>
				</clipPath>
				<path clip-path="url(#SVGID_44_)" fill-rule="evenodd" clip-rule="evenodd" fill="#B9F9F7" d="M209.3,1068.304
					c0,18.25-14.794,33.044-33.043,33.044s-33.043-14.794-33.043-33.044c0-18.249,14.794-33.043,33.043-33.043
					S209.3,1050.055,209.3,1068.304"/>
			</g>
		</g>
	</g>
	<g clip-path="url(#SVGID_2_)">
		<text transform="matrix(1 0 0 1 155.5117 1079.3379)"><tspan x="0" y="0" fill="#1A303A" font-family="'Nunito-ExtraBold'" font-size="36.1053">1</tspan><tspan x="17.655" y="0" fill="#1A303A" font-family="'Nunito-ExtraBold'" font-size="36.1053">0</tspan></text>
	</g>
	<g clip-path="url(#SVGID_2_)">
		<defs>
			<rect id="SVGID_45_" width="1732" height="1178"/>
		</defs>
		<clipPath id="SVGID_46_">
			<use xlink:href="#SVGID_45_"  overflow="visible"/>
		</clipPath>
		<g clip-path="url(#SVGID_46_)">
			<g>
				<defs>
					<rect id="SVGID_47_" x="222.352" y="709.675" width="66.086" height="66.086"/>
				</defs>
				<clipPath id="SVGID_48_">
					<use xlink:href="#SVGID_47_"  overflow="visible"/>
				</clipPath>
				<path clip-path="url(#SVGID_48_)" fill-rule="evenodd" clip-rule="evenodd" fill="#B9F9F7" d="M288.438,742.719
					c0,18.249-14.794,33.043-33.043,33.043s-33.043-14.794-33.043-33.043s14.794-33.043,33.043-33.043
					S288.438,724.47,288.438,742.719"/>
			</g>
		</g>
	</g>
	<g clip-path="url(#SVGID_2_)">
		<text transform="matrix(1 0 0 1 234.6494 753.7529)"><tspan x="0" y="0" fill="#1A303A" font-family="'Nunito-ExtraBold'" font-size="36.1053">1</tspan><tspan x="17.655" y="0" fill="#1A303A" font-family="'Nunito-ExtraBold'" font-size="36.1053">1</tspan></text>
	</g>
	<g clip-path="url(#SVGID_2_)">
		<defs>
			<rect id="SVGID_49_" width="1732" height="1178"/>
		</defs>
		<clipPath id="SVGID_50_">
			<use xlink:href="#SVGID_49_"  overflow="visible"/>
		</clipPath>
		<g clip-path="url(#SVGID_50_)">
			<g>
				<defs>
					<rect id="SVGID_51_" x="175.51" y="443.848" width="66.086" height="66.086"/>
				</defs>
				<clipPath id="SVGID_52_">
					<use xlink:href="#SVGID_51_"  overflow="visible"/>
				</clipPath>
				<path clip-path="url(#SVGID_52_)" fill-rule="evenodd" clip-rule="evenodd" fill="#B9F9F7" d="M241.596,476.892
					c0,18.249-14.794,33.043-33.043,33.043s-33.043-14.794-33.043-33.043s14.794-33.043,33.043-33.043
					S241.596,458.643,241.596,476.892"/>
			</g>
		</g>
	</g>
	<g clip-path="url(#SVGID_2_)">
		<text transform="matrix(1 0 0 1 187.7891 487.9258)"><tspan x="0" y="0" fill="#1A303A" font-family="'Nunito-ExtraBold'" font-size="36.1053">1</tspan><tspan x="17.655" y="0" fill="#1A303A" font-family="'Nunito-ExtraBold'" font-size="36.1053">2</tspan></text>
	</g>
</g>
</svg>
