<?xml version="1.0" encoding="utf-8"?>
<!-- Generator: Adobe Illustrator 16.0.0, SVG Export Plug-In . SVG Version: 6.00 Build 0)  -->
<!DOCTYPE svg PUBLIC "-//W3C//DTD SVG 1.1//EN" "http://www.w3.org/Graphics/SVG/1.1/DTD/svg11.dtd">
<svg version="1.1" id="Layer_1" xmlns="http://www.w3.org/2000/svg" xmlns:xlink="http://www.w3.org/1999/xlink" x="0px" y="0px"
	 width="1732px" height="1178px" viewBox="0 0 1732 1178" enable-background="new 0 0 1732 1178" xml:space="preserve">
<g>
	<defs>
		<rect id="SVGID_1_" width="1732" height="1178"/>
	</defs>
	<clipPath id="SVGID_2_">
		<use xlink:href="#SVGID_1_"  overflow="visible"/>
	</clipPath>
	<g clip-path="url(#SVGID_2_)">
		<defs>
			<rect id="SVGID_3_" width="1732" height="1178"/>
		</defs>
		<clipPath id="SVGID_4_">
			<use xlink:href="#SVGID_3_"  overflow="visible"/>
		</clipPath>
		<path clip-path="url(#SVGID_4_)" fill="none" stroke="#2C77BC" stroke-width="5" stroke-miterlimit="10" d="M700.07,808.442
			H191.624c-62.962,0-114.478-51.515-114.478-114.478v-441.19c0-62.963,51.516-114.478,114.478-114.478H700.07
			c62.962,0,114.478,51.515,114.478,114.478v441.19C814.548,756.928,763.032,808.442,700.07,808.442z"/>
		<polygon clip-path="url(#SVGID_4_)" fill="none" stroke="#2C77BC" stroke-width="5" stroke-miterlimit="10" points="
			343.612,479.63 343.612,454.871 630.246,456.899 630.246,479.63 667.076,479.63 667.076,668.215 631.847,668.215 631.847,692.234 
			343.612,692.234 343.612,671.417 306.782,671.417 306.782,479.63 		"/>
		<path clip-path="url(#SVGID_4_)" fill-rule="evenodd" clip-rule="evenodd" fill="#2C77BC" d="M344.113,514.124
			c0,3.057-2.478,5.534-5.534,5.534c-3.057,0-5.535-2.477-5.535-5.534s2.478-5.534,5.535-5.534
			C341.635,508.59,344.113,511.067,344.113,514.124"/>
		<path clip-path="url(#SVGID_4_)" fill-rule="evenodd" clip-rule="evenodd" fill="#2C77BC" d="M374.004,514.124
			c0,3.057-2.478,5.534-5.534,5.534c-3.057,0-5.535-2.477-5.535-5.534s2.478-5.534,5.535-5.534
			C371.526,508.59,374.004,511.067,374.004,514.124"/>
		<path clip-path="url(#SVGID_4_)" fill-rule="evenodd" clip-rule="evenodd" fill="#2C77BC" d="M403.895,514.124
			c0,3.057-2.478,5.534-5.534,5.534c-3.057,0-5.535-2.477-5.535-5.534s2.478-5.534,5.535-5.534
			C401.417,508.59,403.895,511.067,403.895,514.124"/>
		<path clip-path="url(#SVGID_4_)" fill-rule="evenodd" clip-rule="evenodd" fill="#2C77BC" d="M433.786,514.124
			c0,3.057-2.479,5.534-5.534,5.534c-3.057,0-5.535-2.477-5.535-5.534s2.478-5.534,5.535-5.534
			C431.308,508.59,433.786,511.067,433.786,514.124"/>
		<path clip-path="url(#SVGID_4_)" fill-rule="evenodd" clip-rule="evenodd" fill="#2C77BC" d="M463.677,514.124
			c0,3.057-2.478,5.534-5.534,5.534c-3.057,0-5.535-2.477-5.535-5.534s2.478-5.534,5.535-5.534
			C461.199,508.59,463.677,511.067,463.677,514.124"/>
		<path clip-path="url(#SVGID_4_)" fill-rule="evenodd" clip-rule="evenodd" fill="#2C77BC" d="M493.568,514.124
			c0,3.057-2.478,5.534-5.534,5.534c-3.057,0-5.535-2.477-5.535-5.534s2.478-5.534,5.535-5.534
			C491.09,508.59,493.568,511.067,493.568,514.124"/>
		<path clip-path="url(#SVGID_4_)" fill-rule="evenodd" clip-rule="evenodd" fill="#2C77BC" d="M523.459,514.124
			c0,3.057-2.478,5.534-5.534,5.534c-3.057,0-5.535-2.477-5.535-5.534s2.478-5.534,5.535-5.534
			C520.981,508.59,523.459,511.067,523.459,514.124"/>
		<path clip-path="url(#SVGID_4_)" fill-rule="evenodd" clip-rule="evenodd" fill="#2C77BC" d="M553.35,514.124
			c0,3.057-2.478,5.534-5.534,5.534c-3.057,0-5.535-2.477-5.535-5.534s2.478-5.534,5.535-5.534
			C550.872,508.59,553.35,511.067,553.35,514.124"/>
		<path clip-path="url(#SVGID_4_)" fill-rule="evenodd" clip-rule="evenodd" fill="#2C77BC" d="M583.241,514.124
			c0,3.057-2.478,5.534-5.534,5.534c-3.057,0-5.535-2.477-5.535-5.534s2.478-5.534,5.535-5.534
			C580.763,508.59,583.241,511.067,583.241,514.124"/>
		<path clip-path="url(#SVGID_4_)" fill-rule="evenodd" clip-rule="evenodd" fill="#2C77BC" d="M613.132,514.124
			c0,3.057-2.478,5.534-5.534,5.534c-3.057,0-5.535-2.477-5.535-5.534s2.478-5.534,5.535-5.534
			C610.654,508.59,613.132,511.067,613.132,514.124"/>
		<path clip-path="url(#SVGID_4_)" fill-rule="evenodd" clip-rule="evenodd" fill="#2C77BC" d="M643.023,514.124
			c0,3.057-2.478,5.534-5.534,5.534c-3.057,0-5.535-2.477-5.535-5.534s2.478-5.534,5.535-5.534
			C640.545,508.59,643.023,511.067,643.023,514.124"/>
		<path clip-path="url(#SVGID_4_)" fill-rule="evenodd" clip-rule="evenodd" fill="#2C77BC" d="M344.113,544.38
			c0,3.057-2.478,5.535-5.534,5.535c-3.057,0-5.535-2.478-5.535-5.535c0-3.056,2.478-5.534,5.535-5.534
			C341.635,538.846,344.113,541.324,344.113,544.38"/>
		<path clip-path="url(#SVGID_4_)" fill-rule="evenodd" clip-rule="evenodd" fill="#2C77BC" d="M374.004,544.38
			c0,3.057-2.478,5.535-5.534,5.535c-3.057,0-5.535-2.478-5.535-5.535c0-3.056,2.478-5.534,5.535-5.534
			C371.526,538.846,374.004,541.324,374.004,544.38"/>
		<path clip-path="url(#SVGID_4_)" fill-rule="evenodd" clip-rule="evenodd" fill="#2C77BC" d="M403.895,544.38
			c0,3.057-2.478,5.535-5.534,5.535c-3.057,0-5.535-2.478-5.535-5.535c0-3.056,2.478-5.534,5.535-5.534
			C401.417,538.846,403.895,541.324,403.895,544.38"/>
		<path clip-path="url(#SVGID_4_)" fill-rule="evenodd" clip-rule="evenodd" fill="#2C77BC" d="M433.786,544.38
			c0,3.057-2.479,5.535-5.534,5.535c-3.057,0-5.535-2.478-5.535-5.535c0-3.056,2.478-5.534,5.535-5.534
			C431.308,538.846,433.786,541.324,433.786,544.38"/>
		<path clip-path="url(#SVGID_4_)" fill-rule="evenodd" clip-rule="evenodd" fill="#2C77BC" d="M463.677,544.38
			c0,3.057-2.478,5.535-5.534,5.535c-3.057,0-5.535-2.478-5.535-5.535c0-3.056,2.478-5.534,5.535-5.534
			C461.199,538.846,463.677,541.324,463.677,544.38"/>
		<path clip-path="url(#SVGID_4_)" fill-rule="evenodd" clip-rule="evenodd" fill="#2C77BC" d="M493.568,544.38
			c0,3.057-2.478,5.535-5.534,5.535c-3.057,0-5.535-2.478-5.535-5.535c0-3.056,2.478-5.534,5.535-5.534
			C491.09,538.846,493.568,541.324,493.568,544.38"/>
		<path clip-path="url(#SVGID_4_)" fill-rule="evenodd" clip-rule="evenodd" fill="#2C77BC" d="M523.459,544.38
			c0,3.057-2.478,5.535-5.534,5.535c-3.057,0-5.535-2.478-5.535-5.535c0-3.056,2.478-5.534,5.535-5.534
			C520.981,538.846,523.459,541.324,523.459,544.38"/>
		<path clip-path="url(#SVGID_4_)" fill-rule="evenodd" clip-rule="evenodd" fill="#2C77BC" d="M553.35,544.38
			c0,3.057-2.478,5.535-5.534,5.535c-3.057,0-5.535-2.478-5.535-5.535c0-3.056,2.478-5.534,5.535-5.534
			C550.872,538.846,553.35,541.324,553.35,544.38"/>
		<path clip-path="url(#SVGID_4_)" fill-rule="evenodd" clip-rule="evenodd" fill="#2C77BC" d="M583.241,544.38
			c0,3.057-2.478,5.535-5.534,5.535c-3.057,0-5.535-2.478-5.535-5.535c0-3.056,2.478-5.534,5.535-5.534
			C580.763,538.846,583.241,541.324,583.241,544.38"/>
		<path clip-path="url(#SVGID_4_)" fill-rule="evenodd" clip-rule="evenodd" fill="#2C77BC" d="M613.132,544.38
			c0,3.057-2.478,5.535-5.534,5.535c-3.057,0-5.535-2.478-5.535-5.535c0-3.056,2.478-5.534,5.535-5.534
			C610.654,538.846,613.132,541.324,613.132,544.38"/>
		<path clip-path="url(#SVGID_4_)" fill-rule="evenodd" clip-rule="evenodd" fill="#2C77BC" d="M643.023,544.38
			c0,3.057-2.478,5.535-5.534,5.535c-3.057,0-5.535-2.478-5.535-5.535c0-3.056,2.478-5.534,5.535-5.534
			C640.545,538.846,643.023,541.324,643.023,544.38"/>
		<path clip-path="url(#SVGID_4_)" fill-rule="evenodd" clip-rule="evenodd" fill="#2C77BC" d="M344.113,574.637
			c0,3.056-2.478,5.534-5.534,5.534c-3.057,0-5.535-2.478-5.535-5.534c0-3.057,2.478-5.535,5.535-5.535
			C341.635,569.102,344.113,571.58,344.113,574.637"/>
		<path clip-path="url(#SVGID_4_)" fill-rule="evenodd" clip-rule="evenodd" fill="#2C77BC" d="M374.004,574.637
			c0,3.056-2.478,5.534-5.534,5.534c-3.057,0-5.535-2.478-5.535-5.534c0-3.057,2.478-5.535,5.535-5.535
			C371.526,569.102,374.004,571.58,374.004,574.637"/>
		<path clip-path="url(#SVGID_4_)" fill-rule="evenodd" clip-rule="evenodd" fill="#2C77BC" d="M403.895,574.637
			c0,3.056-2.478,5.534-5.534,5.534c-3.057,0-5.535-2.478-5.535-5.534c0-3.057,2.478-5.535,5.535-5.535
			C401.417,569.102,403.895,571.58,403.895,574.637"/>
		<path clip-path="url(#SVGID_4_)" fill-rule="evenodd" clip-rule="evenodd" fill="#2C77BC" d="M433.786,574.637
			c0,3.056-2.479,5.534-5.534,5.534c-3.057,0-5.535-2.478-5.535-5.534c0-3.057,2.478-5.535,5.535-5.535
			C431.308,569.102,433.786,571.58,433.786,574.637"/>
		<path clip-path="url(#SVGID_4_)" fill-rule="evenodd" clip-rule="evenodd" fill="#2C77BC" d="M463.677,574.637
			c0,3.056-2.478,5.534-5.534,5.534c-3.057,0-5.535-2.478-5.535-5.534c0-3.057,2.478-5.535,5.535-5.535
			C461.199,569.102,463.677,571.58,463.677,574.637"/>
		<path clip-path="url(#SVGID_4_)" fill-rule="evenodd" clip-rule="evenodd" fill="#2C77BC" d="M493.568,574.637
			c0,3.056-2.478,5.534-5.534,5.534c-3.057,0-5.535-2.478-5.535-5.534c0-3.057,2.478-5.535,5.535-5.535
			C491.09,569.102,493.568,571.58,493.568,574.637"/>
		<path clip-path="url(#SVGID_4_)" fill-rule="evenodd" clip-rule="evenodd" fill="#2C77BC" d="M523.459,574.637
			c0,3.056-2.478,5.534-5.534,5.534c-3.057,0-5.535-2.478-5.535-5.534c0-3.057,2.478-5.535,5.535-5.535
			C520.981,569.102,523.459,571.58,523.459,574.637"/>
		<path clip-path="url(#SVGID_4_)" fill-rule="evenodd" clip-rule="evenodd" fill="#2C77BC" d="M553.35,574.637
			c0,3.056-2.478,5.534-5.534,5.534c-3.057,0-5.535-2.478-5.535-5.534c0-3.057,2.478-5.535,5.535-5.535
			C550.872,569.102,553.35,571.58,553.35,574.637"/>
		<path clip-path="url(#SVGID_4_)" fill-rule="evenodd" clip-rule="evenodd" fill="#2C77BC" d="M583.241,574.637
			c0,3.056-2.478,5.534-5.534,5.534c-3.057,0-5.535-2.478-5.535-5.534c0-3.057,2.478-5.535,5.535-5.535
			C580.763,569.102,583.241,571.58,583.241,574.637"/>
		<path clip-path="url(#SVGID_4_)" fill-rule="evenodd" clip-rule="evenodd" fill="#2C77BC" d="M613.132,574.637
			c0,3.056-2.478,5.534-5.534,5.534c-3.057,0-5.535-2.478-5.535-5.534c0-3.057,2.478-5.535,5.535-5.535
			C610.654,569.102,613.132,571.58,613.132,574.637"/>
		<path clip-path="url(#SVGID_4_)" fill-rule="evenodd" clip-rule="evenodd" fill="#2C77BC" d="M643.023,574.637
			c0,3.056-2.478,5.534-5.534,5.534c-3.057,0-5.535-2.478-5.535-5.534c0-3.057,2.478-5.535,5.535-5.535
			C640.545,569.102,643.023,571.58,643.023,574.637"/>
		<path clip-path="url(#SVGID_4_)" fill-rule="evenodd" clip-rule="evenodd" fill="#2C77BC" d="M344.113,604.893
			c0,3.057-2.478,5.534-5.534,5.534c-3.057,0-5.535-2.478-5.535-5.534s2.478-5.534,5.535-5.534
			C341.635,599.358,344.113,601.836,344.113,604.893"/>
		<path clip-path="url(#SVGID_4_)" fill-rule="evenodd" clip-rule="evenodd" fill="#2C77BC" d="M374.004,604.893
			c0,3.057-2.478,5.534-5.534,5.534c-3.057,0-5.535-2.478-5.535-5.534s2.478-5.534,5.535-5.534
			C371.526,599.358,374.004,601.836,374.004,604.893"/>
		<path clip-path="url(#SVGID_4_)" fill-rule="evenodd" clip-rule="evenodd" fill="#2C77BC" d="M403.895,604.893
			c0,3.057-2.478,5.534-5.534,5.534c-3.057,0-5.535-2.478-5.535-5.534s2.478-5.534,5.535-5.534
			C401.417,599.358,403.895,601.836,403.895,604.893"/>
		<path clip-path="url(#SVGID_4_)" fill-rule="evenodd" clip-rule="evenodd" fill="#2C77BC" d="M433.786,604.893
			c0,3.057-2.479,5.534-5.534,5.534c-3.057,0-5.535-2.478-5.535-5.534s2.478-5.534,5.535-5.534
			C431.308,599.358,433.786,601.836,433.786,604.893"/>
		<path clip-path="url(#SVGID_4_)" fill-rule="evenodd" clip-rule="evenodd" fill="#2C77BC" d="M463.677,604.893
			c0,3.057-2.478,5.534-5.534,5.534c-3.057,0-5.535-2.478-5.535-5.534s2.478-5.534,5.535-5.534
			C461.199,599.358,463.677,601.836,463.677,604.893"/>
		<path clip-path="url(#SVGID_4_)" fill-rule="evenodd" clip-rule="evenodd" fill="#2C77BC" d="M493.568,604.893
			c0,3.057-2.478,5.534-5.534,5.534c-3.057,0-5.535-2.478-5.535-5.534s2.478-5.534,5.535-5.534
			C491.09,599.358,493.568,601.836,493.568,604.893"/>
		<path clip-path="url(#SVGID_4_)" fill-rule="evenodd" clip-rule="evenodd" fill="#2C77BC" d="M523.459,604.893
			c0,3.057-2.478,5.534-5.534,5.534c-3.057,0-5.535-2.478-5.535-5.534s2.478-5.534,5.535-5.534
			C520.981,599.358,523.459,601.836,523.459,604.893"/>
		<path clip-path="url(#SVGID_4_)" fill-rule="evenodd" clip-rule="evenodd" fill="#2C77BC" d="M553.35,604.893
			c0,3.057-2.478,5.534-5.534,5.534c-3.057,0-5.535-2.478-5.535-5.534s2.478-5.534,5.535-5.534
			C550.872,599.358,553.35,601.836,553.35,604.893"/>
		<path clip-path="url(#SVGID_4_)" fill-rule="evenodd" clip-rule="evenodd" fill="#2C77BC" d="M583.241,604.893
			c0,3.057-2.478,5.534-5.534,5.534c-3.057,0-5.535-2.478-5.535-5.534s2.478-5.534,5.535-5.534
			C580.763,599.358,583.241,601.836,583.241,604.893"/>
		<path clip-path="url(#SVGID_4_)" fill-rule="evenodd" clip-rule="evenodd" fill="#2C77BC" d="M613.132,604.893
			c0,3.057-2.478,5.534-5.534,5.534c-3.057,0-5.535-2.478-5.535-5.534s2.478-5.534,5.535-5.534
			C610.654,599.358,613.132,601.836,613.132,604.893"/>
		<path clip-path="url(#SVGID_4_)" fill-rule="evenodd" clip-rule="evenodd" fill="#2C77BC" d="M643.023,604.893
			c0,3.057-2.478,5.534-5.534,5.534c-3.057,0-5.535-2.478-5.535-5.534s2.478-5.534,5.535-5.534
			C640.545,599.358,643.023,601.836,643.023,604.893"/>
		<path clip-path="url(#SVGID_4_)" fill-rule="evenodd" clip-rule="evenodd" fill="#2C77BC" d="M344.113,635.148
			c0,3.057-2.478,5.534-5.534,5.534c-3.057,0-5.535-2.478-5.535-5.534s2.478-5.534,5.535-5.534
			C341.635,629.614,344.113,632.092,344.113,635.148"/>
		<path clip-path="url(#SVGID_4_)" fill-rule="evenodd" clip-rule="evenodd" fill="#2C77BC" d="M374.004,635.148
			c0,3.057-2.478,5.534-5.534,5.534c-3.057,0-5.535-2.478-5.535-5.534s2.478-5.534,5.535-5.534
			C371.526,629.614,374.004,632.092,374.004,635.148"/>
		<path clip-path="url(#SVGID_4_)" fill-rule="evenodd" clip-rule="evenodd" fill="#2C77BC" d="M403.895,635.148
			c0,3.057-2.478,5.534-5.534,5.534c-3.057,0-5.535-2.478-5.535-5.534s2.478-5.534,5.535-5.534
			C401.417,629.614,403.895,632.092,403.895,635.148"/>
		<path clip-path="url(#SVGID_4_)" fill-rule="evenodd" clip-rule="evenodd" fill="#2C77BC" d="M433.786,635.148
			c0,3.057-2.479,5.534-5.534,5.534c-3.057,0-5.535-2.478-5.535-5.534s2.478-5.534,5.535-5.534
			C431.308,629.614,433.786,632.092,433.786,635.148"/>
		<path clip-path="url(#SVGID_4_)" fill-rule="evenodd" clip-rule="evenodd" fill="#2C77BC" d="M463.677,635.148
			c0,3.057-2.478,5.534-5.534,5.534c-3.057,0-5.535-2.478-5.535-5.534s2.478-5.534,5.535-5.534
			C461.199,629.614,463.677,632.092,463.677,635.148"/>
		<path clip-path="url(#SVGID_4_)" fill-rule="evenodd" clip-rule="evenodd" fill="#2C77BC" d="M493.568,635.148
			c0,3.057-2.478,5.534-5.534,5.534c-3.057,0-5.535-2.478-5.535-5.534s2.478-5.534,5.535-5.534
			C491.09,629.614,493.568,632.092,493.568,635.148"/>
		<path clip-path="url(#SVGID_4_)" fill-rule="evenodd" clip-rule="evenodd" fill="#2C77BC" d="M523.459,635.148
			c0,3.057-2.478,5.534-5.534,5.534c-3.057,0-5.535-2.478-5.535-5.534s2.478-5.534,5.535-5.534
			C520.981,629.614,523.459,632.092,523.459,635.148"/>
		<path clip-path="url(#SVGID_4_)" fill-rule="evenodd" clip-rule="evenodd" fill="#2C77BC" d="M553.35,635.148
			c0,3.057-2.478,5.534-5.534,5.534c-3.057,0-5.535-2.478-5.535-5.534s2.478-5.534,5.535-5.534
			C550.872,629.614,553.35,632.092,553.35,635.148"/>
		<path clip-path="url(#SVGID_4_)" fill-rule="evenodd" clip-rule="evenodd" fill="#2C77BC" d="M583.241,635.148
			c0,3.057-2.478,5.534-5.534,5.534c-3.057,0-5.535-2.478-5.535-5.534s2.478-5.534,5.535-5.534
			C580.763,629.614,583.241,632.092,583.241,635.148"/>
		<path clip-path="url(#SVGID_4_)" fill-rule="evenodd" clip-rule="evenodd" fill="#2C77BC" d="M613.132,635.148
			c0,3.057-2.478,5.534-5.534,5.534c-3.057,0-5.535-2.478-5.535-5.534s2.478-5.534,5.535-5.534
			C610.654,629.614,613.132,632.092,613.132,635.148"/>
		<path clip-path="url(#SVGID_4_)" fill-rule="evenodd" clip-rule="evenodd" fill="#2C77BC" d="M643.023,635.148
			c0,3.057-2.478,5.534-5.534,5.534c-3.057,0-5.535-2.478-5.535-5.534s2.478-5.534,5.535-5.534
			C640.545,629.614,643.023,632.092,643.023,635.148"/>
		
			<rect x="133.04" y="248.221" clip-path="url(#SVGID_4_)" fill="none" stroke="#2C77BC" stroke-width="5" stroke-miterlimit="10" width="24.02" height="359.756"/>
		
			<rect x="133.04" y="190.429" clip-path="url(#SVGID_4_)" fill="none" stroke="#2C77BC" stroke-width="5" stroke-miterlimit="10" width="180.065" height="24.02"/>
		
			<rect x="110.221" y="708.762" clip-path="url(#SVGID_4_)" fill="none" stroke="#2C77BC" stroke-width="5" stroke-miterlimit="10" width="119.698" height="24.021"/>
		
			<rect x="388.315" y="190.429" clip-path="url(#SVGID_4_)" fill="none" stroke="#2C77BC" stroke-width="5" stroke-miterlimit="10" width="239.395" height="24.02"/>
		
			<rect x="403.895" y="380.07" clip-path="url(#SVGID_4_)" fill="none" stroke="#2C77BC" stroke-width="5" stroke-miterlimit="10" width="54.248" height="54.248"/>
		
			<rect x="558.884" y="326.857" clip-path="url(#SVGID_4_)" fill="none" stroke="#2C77BC" stroke-width="5" stroke-miterlimit="10" width="54.248" height="27.124"/>
		
			<rect x="637.489" y="266.56" clip-path="url(#SVGID_4_)" fill="none" stroke="#2C77BC" stroke-width="5" stroke-miterlimit="10" width="54.248" height="27.124"/>
		
			<rect x="637.489" y="387.167" clip-path="url(#SVGID_4_)" fill="none" stroke="#2C77BC" stroke-width="5" stroke-miterlimit="10" width="54.248" height="27.124"/>
		
			<rect x="251.937" y="712.122" clip-path="url(#SVGID_4_)" fill="none" stroke="#2C77BC" stroke-width="5" stroke-miterlimit="10" width="163.333" height="62.791"/>
		
			<rect x="468.002" y="712.122" clip-path="url(#SVGID_4_)" fill="none" stroke="#2C77BC" stroke-width="5" stroke-miterlimit="10" width="163.333" height="62.791"/>
		
			<rect x="712.609" y="326.857" clip-path="url(#SVGID_4_)" fill="none" stroke="#2C77BC" stroke-width="5" stroke-miterlimit="10" width="54.248" height="27.124"/>
		
			<rect x="274.416" y="746.89" clip-path="url(#SVGID_4_)" fill-rule="evenodd" clip-rule="evenodd" fill="#2C77BC" width="7.206" height="7.206"/>
		
			<rect x="302.038" y="746.89" clip-path="url(#SVGID_4_)" fill-rule="evenodd" clip-rule="evenodd" fill="#2C77BC" width="7.206" height="7.206"/>
		
			<rect x="329.66" y="746.89" clip-path="url(#SVGID_4_)" fill-rule="evenodd" clip-rule="evenodd" fill="#2C77BC" width="7.206" height="7.206"/>
		
			<rect x="357.283" y="746.89" clip-path="url(#SVGID_4_)" fill-rule="evenodd" clip-rule="evenodd" fill="#2C77BC" width="7.206" height="7.206"/>
		
			<rect x="384.906" y="746.89" clip-path="url(#SVGID_4_)" fill-rule="evenodd" clip-rule="evenodd" fill="#2C77BC" width="7.206" height="7.206"/>
		
			<rect x="490.199" y="746.89" clip-path="url(#SVGID_4_)" fill-rule="evenodd" clip-rule="evenodd" fill="#2C77BC" width="7.206" height="7.206"/>
		
			<rect x="517.821" y="746.89" clip-path="url(#SVGID_4_)" fill-rule="evenodd" clip-rule="evenodd" fill="#2C77BC" width="7.206" height="7.206"/>
		
			<rect x="545.444" y="746.89" clip-path="url(#SVGID_4_)" fill-rule="evenodd" clip-rule="evenodd" fill="#2C77BC" width="7.206" height="7.206"/>
		
			<rect x="573.066" y="746.89" clip-path="url(#SVGID_4_)" fill-rule="evenodd" clip-rule="evenodd" fill="#2C77BC" width="7.206" height="7.206"/>
		
			<rect x="600.689" y="746.89" clip-path="url(#SVGID_4_)" fill-rule="evenodd" clip-rule="evenodd" fill="#2C77BC" width="7.206" height="7.206"/>
		
			<rect x="662.872" y="716.358" clip-path="url(#SVGID_4_)" fill-rule="evenodd" clip-rule="evenodd" fill="#2C77BC" width="7.206" height="7.206"/>
		
			<rect x="695.191" y="716.358" clip-path="url(#SVGID_4_)" fill-rule="evenodd" clip-rule="evenodd" fill="#2C77BC" width="7.206" height="7.206"/>
		
			<rect x="129.748" y="655.296" clip-path="url(#SVGID_4_)" fill-rule="evenodd" clip-rule="evenodd" fill="#2C77BC" width="7.206" height="7.206"/>
		
			<rect x="162.068" y="655.296" clip-path="url(#SVGID_4_)" fill-rule="evenodd" clip-rule="evenodd" fill="#2C77BC" width="7.206" height="7.206"/>
		
			<rect x="725.163" y="716.358" clip-path="url(#SVGID_4_)" fill-rule="evenodd" clip-rule="evenodd" fill="#2C77BC" width="7.206" height="7.206"/>
		
			<line clip-path="url(#SVGID_4_)" fill="none" stroke="#2C77BC" stroke-width="5" stroke-miterlimit="10" x1="140.146" y1="708.762" x2="140.146" y2="732.781"/>
		
			<line clip-path="url(#SVGID_4_)" fill="none" stroke="#2C77BC" stroke-width="5" stroke-miterlimit="10" x1="170.07" y1="708.762" x2="170.07" y2="732.781"/>
		
			<line clip-path="url(#SVGID_4_)" fill="none" stroke="#2C77BC" stroke-width="5" stroke-miterlimit="10" x1="199.995" y1="708.762" x2="199.995" y2="732.781"/>
		
			<rect x="652.74" y="708.762" clip-path="url(#SVGID_4_)" fill="none" stroke="#2C77BC" stroke-width="5" stroke-miterlimit="10" width="90.152" height="24.021"/>
		
			<line clip-path="url(#SVGID_4_)" fill="none" stroke="#2C77BC" stroke-width="5" stroke-miterlimit="10" x1="682.664" y1="708.762" x2="682.664" y2="732.781"/>
		
			<line clip-path="url(#SVGID_4_)" fill="none" stroke="#2C77BC" stroke-width="5" stroke-miterlimit="10" x1="712.588" y1="708.762" x2="712.588" y2="732.781"/>
		
			<rect x="118.862" y="645.979" clip-path="url(#SVGID_4_)" fill="none" stroke="#2C77BC" stroke-width="5" stroke-miterlimit="10" width="59.849" height="24.02"/>
		
			<line clip-path="url(#SVGID_4_)" fill="none" stroke="#2C77BC" stroke-width="5" stroke-miterlimit="10" x1="148.786" y1="645.978" x2="148.786" y2="669.997"/>
		
			<line clip-path="url(#SVGID_4_)" fill="none" stroke="#2C77BC" stroke-width="5" stroke-miterlimit="10" x1="157.06" y1="578.152" x2="133.04" y2="578.152"/>
		
			<line clip-path="url(#SVGID_4_)" fill="none" stroke="#2C77BC" stroke-width="5" stroke-miterlimit="10" x1="157.06" y1="547.464" x2="133.04" y2="547.464"/>
		
			<line clip-path="url(#SVGID_4_)" fill="none" stroke="#2C77BC" stroke-width="5" stroke-miterlimit="10" x1="157.06" y1="517.54" x2="133.04" y2="517.54"/>
		
			<line clip-path="url(#SVGID_4_)" fill="none" stroke="#2C77BC" stroke-width="5" stroke-miterlimit="10" x1="157.06" y1="487.615" x2="133.04" y2="487.615"/>
		
			<line clip-path="url(#SVGID_4_)" fill="none" stroke="#2C77BC" stroke-width="5" stroke-miterlimit="10" x1="157.06" y1="457.691" x2="133.04" y2="457.691"/>
		
			<line clip-path="url(#SVGID_4_)" fill="none" stroke="#2C77BC" stroke-width="5" stroke-miterlimit="10" x1="157.06" y1="427.767" x2="133.04" y2="427.767"/>
		
			<line clip-path="url(#SVGID_4_)" fill="none" stroke="#2C77BC" stroke-width="5" stroke-miterlimit="10" x1="157.06" y1="397.843" x2="133.04" y2="397.843"/>
		
			<line clip-path="url(#SVGID_4_)" fill="none" stroke="#2C77BC" stroke-width="5" stroke-miterlimit="10" x1="157.06" y1="367.918" x2="133.04" y2="367.918"/>
		
			<line clip-path="url(#SVGID_4_)" fill="none" stroke="#2C77BC" stroke-width="5" stroke-miterlimit="10" x1="157.06" y1="337.993" x2="133.04" y2="337.993"/>
		
			<line clip-path="url(#SVGID_4_)" fill="none" stroke="#2C77BC" stroke-width="5" stroke-miterlimit="10" x1="157.06" y1="308.069" x2="133.04" y2="308.069"/>
		
			<line clip-path="url(#SVGID_4_)" fill="none" stroke="#2C77BC" stroke-width="5" stroke-miterlimit="10" x1="157.06" y1="278.145" x2="133.04" y2="278.145"/>
		
			<line clip-path="url(#SVGID_4_)" fill="none" stroke="#2C77BC" stroke-width="5" stroke-miterlimit="10" x1="418.239" y1="214.448" x2="418.239" y2="190.428"/>
		
			<line clip-path="url(#SVGID_4_)" fill="none" stroke="#2C77BC" stroke-width="5" stroke-miterlimit="10" x1="282.662" y1="214.448" x2="282.662" y2="190.428"/>
		
			<line clip-path="url(#SVGID_4_)" fill="none" stroke="#2C77BC" stroke-width="5" stroke-miterlimit="10" x1="252.737" y1="214.448" x2="252.737" y2="190.428"/>
		
			<line clip-path="url(#SVGID_4_)" fill="none" stroke="#2C77BC" stroke-width="5" stroke-miterlimit="10" x1="222.813" y1="214.448" x2="222.813" y2="190.428"/>
		
			<line clip-path="url(#SVGID_4_)" fill="none" stroke="#2C77BC" stroke-width="5" stroke-miterlimit="10" x1="192.889" y1="214.448" x2="192.889" y2="190.428"/>
		
			<line clip-path="url(#SVGID_4_)" fill="none" stroke="#2C77BC" stroke-width="5" stroke-miterlimit="10" x1="162.964" y1="214.448" x2="162.964" y2="190.428"/>
		
			<line clip-path="url(#SVGID_4_)" fill="none" stroke="#2C77BC" stroke-width="5" stroke-miterlimit="10" x1="448.164" y1="214.448" x2="448.164" y2="190.428"/>
		
			<line clip-path="url(#SVGID_4_)" fill="none" stroke="#2C77BC" stroke-width="5" stroke-miterlimit="10" x1="478.088" y1="214.448" x2="478.088" y2="190.428"/>
		
			<line clip-path="url(#SVGID_4_)" fill="none" stroke="#2C77BC" stroke-width="5" stroke-miterlimit="10" x1="508.013" y1="214.448" x2="508.013" y2="190.428"/>
		
			<line clip-path="url(#SVGID_4_)" fill="none" stroke="#2C77BC" stroke-width="5" stroke-miterlimit="10" x1="537.937" y1="214.448" x2="537.937" y2="190.428"/>
		
			<line clip-path="url(#SVGID_4_)" fill="none" stroke="#2C77BC" stroke-width="5" stroke-miterlimit="10" x1="567.861" y1="214.448" x2="567.861" y2="190.428"/>
		
			<line clip-path="url(#SVGID_4_)" fill="none" stroke="#2C77BC" stroke-width="5" stroke-miterlimit="10" x1="597.786" y1="214.448" x2="597.786" y2="190.428"/>
	</g>
	<path clip-path="url(#SVGID_2_)" fill="#2A77BC" d="M191.31,167.694v9.232h-3.257v-21.079h6.128c3.731,0,5.794,2,5.794,5.651
		c0,3.083-1.603,4.408-2.763,4.844c1.742,0.741,2.458,2.243,2.458,5.301v0.84c0,2.247,0.097,3.313,0.289,4.442h-3.188
		c-0.302-0.964-0.345-2.703-0.345-4.483v-0.75c0-2.881-0.635-4-3.176-4H191.31z M191.31,165.01h2.086
		c2.376,0,3.294-1.141,3.294-3.38c0-1.919-0.905-3.098-2.974-3.098h-2.407V165.01z M215.698,166.218
		c0,7.53-1.964,11.055-6.722,11.055c-4.471,0-6.541-3.447-6.541-11.07c0-7.461,2.415-10.678,6.69-10.678
		C213.641,155.524,215.698,158.959,215.698,166.218z M205.798,166.162c0,5.346,0.914,8.339,3.262,8.339
		c2.454,0,3.275-2.818,3.275-8.32c0-5.321-0.88-7.863-3.284-7.863C206.688,158.317,205.798,161.108,205.798,166.162z
		 M218.774,155.848h6.106c3.485,0,5.471,1.979,5.471,5.271c0,2.716-1.3,3.985-2.489,4.421c1.527,0.594,3.126,1.997,3.126,5.195
		c0,3.933-2.499,6.191-6.217,6.191h-5.998V155.848z M224.012,164.388c2.448,0,3.182-0.998,3.182-2.97
		c0-1.932-1.017-2.938-2.995-2.938h-2.21v5.908H224.012z M221.988,174.339h2.45c2.087,0,3.262-1.147,3.262-3.651
		c0-2.395-1.085-3.713-3.685-3.713h-2.027V174.339z M246.411,166.218c0,7.53-1.964,11.055-6.722,11.055
		c-4.471,0-6.541-3.447-6.541-11.07c0-7.461,2.415-10.678,6.69-10.678C244.353,155.524,246.411,158.959,246.411,166.218z
		 M236.51,166.162c0,5.346,0.914,8.339,3.262,8.339c2.454,0,3.275-2.818,3.275-8.32c0-5.321-0.879-7.863-3.284-7.863
		C237.399,158.317,236.51,161.108,236.51,166.162z M251.849,158.729h-4.57v-2.88h12.419v2.88h-4.57v18.198h-3.279V158.729z
		 M270.866,155.848v21.079h-3.279v-21.079H270.866z M274.771,176.927v-21.079h3.795c4.86,12.654,5.691,14.795,5.949,15.788h0.031
		c-0.168-2.635-0.187-5.761-0.187-9.206v-6.582h2.961v21.079h-3.637c-5.031-13.413-5.812-15.548-6.073-16.469h-0.031
		c0.156,2.61,0.165,5.833,0.165,9.616v6.853H274.771z M298.553,176.927h-3.279l4.953-21.079h4.251l5.04,21.079h-3.447l-1.222-5.778
		h-5.083L298.553,176.927z M304.244,168.291c-0.936-4.425-1.62-7.492-1.934-9.391h-0.084c-0.268,1.904-1.001,5.285-1.866,9.391
		H304.244z M329.288,170.894c-0.093,1.12-0.541,6.379-6.137,6.379c-5.862,0-6.46-5.493-6.46-10.955
		c0-6.588,1.871-10.793,6.697-10.793c5.415,0,5.798,4.782,5.873,6.333h-3.254c-0.053-0.716-0.131-3.521-2.671-3.521
		c-2.696,0-3.25,3.459-3.25,8.038c0,4.137,0.429,8.13,3.128,8.13c2.441,0,2.705-2.715,2.798-3.61H329.288z M333.87,176.927h-3.279
		l4.953-21.079h4.25l5.04,21.079h-3.447l-1.222-5.778h-5.083L333.87,176.927z M339.562,168.291c-0.936-4.425-1.62-7.492-1.934-9.391
		h-0.084c-0.268,1.904-1.001,5.285-1.866,9.391H339.562z M346.806,176.927v-21.079h3.795c4.86,12.654,5.691,14.795,5.949,15.788
		h0.031c-0.168-2.635-0.187-5.761-0.187-9.206v-6.582h2.961v21.079h-3.637c-5.031-13.413-5.812-15.548-6.074-16.469h-0.031
		c0.155,2.61,0.165,5.833,0.165,9.616v6.853H346.806z"/>
	<path clip-path="url(#SVGID_2_)" fill="#2A77BC" d="M297.311,401.939v-2.516c0.625-0.084,1.154-0.146,1.959-0.168
		c-1.6-0.856-2.305-2.179-2.305-4.197c0-4.458,4.189-5.916,10.79-5.916c7.546,0,10.958,2.471,10.958,6.915
		c0,5.486-4.755,5.807-6.009,5.869v-3.245c0.815-0.062,3.215-0.239,3.215-2.721c0-2.619-3.332-3.424-8.146-3.424
		c-5.036,0-8.037,0.65-8.037,3.247c0,2.289,1.821,2.908,5.375,2.908h1.129v-3.119h2.815v6.367H297.311z M308.019,439.59
		c-7.53,0-11.054-1.964-11.054-6.722c0-4.472,3.446-6.541,11.07-6.541c7.461,0,10.678,2.415,10.678,6.69
		C318.713,437.533,315.278,439.59,308.019,439.59z M318.389,411.411c0,3.423-2.084,5.922-6.133,5.922
		c-3.961,0-6.188-2.26-6.188-6.23v-2.444h-8.757v-3.279h21.079V411.411z M318.389,423.189h-21.079v-3.279h21.079V423.189z
		 M308.075,429.69c-5.346,0-8.339,0.914-8.339,3.262c0,2.454,2.818,3.274,8.32,3.274c5.321,0,7.863-0.879,7.863-3.284
		C315.919,430.579,313.129,429.69,308.075,429.69z M308.729,408.658v2.08c0,2.242,1.142,3.296,3.57,3.296
		c2.184,0,3.405-1.132,3.405-3.073v-2.304H308.729z"/>
	<path clip-path="url(#SVGID_2_)" fill="#2A77BC" d="M318.811,244.051h1.979v11.026h4.42l-0.214,1.699h-6.185V244.051z
		 M328.381,244.051v12.726h-1.979v-12.726H328.381z M338.001,256.776h-1.519c-0.051-0.377-0.088-0.697-0.102-1.183
		c-0.517,0.966-1.316,1.391-2.534,1.391c-2.691,0-3.571-2.529-3.571-6.514c0-4.555,1.492-6.615,4.174-6.615
		c3.313,0,3.506,2.87,3.543,3.627h-1.959c-0.038-0.492-0.145-1.941-1.643-1.941c-1.581,0-2.067,2.011-2.067,4.918
		c0,3.041,0.393,4.852,1.96,4.852c1.381,0,1.755-1.1,1.755-3.245v-0.682h-1.883v-1.699h3.844V256.776z M340.079,244.051h1.98v5.147
		h3.43v-5.147h1.979v12.726h-1.979v-5.852h-3.43v5.852h-1.98V244.051z M351.487,245.79h-2.759v-1.739h7.498v1.739h-2.759v10.987
		h-1.98V245.79z"/>
	<path clip-path="url(#SVGID_2_)" fill="#2A77BC" d="M407.674,363.934v5.574h-1.966v-12.726h3.7c2.252,0,3.498,1.208,3.498,3.412
		c0,1.861-0.967,2.661-1.668,2.924c1.052,0.447,1.484,1.354,1.484,3.201v0.507c0,1.357,0.058,2,0.175,2.682h-1.925
		c-0.182-0.582-0.208-1.632-0.208-2.707v-0.453c0-1.739-0.383-2.415-1.917-2.415H407.674z M407.674,362.313h1.259
		c1.435,0,1.989-0.689,1.989-2.041c0-1.159-0.546-1.87-1.795-1.87h-1.453V362.313z M422.117,369.507h-1.519
		c-0.05-0.377-0.088-0.697-0.101-1.183c-0.517,0.966-1.316,1.391-2.534,1.391c-2.691,0-3.571-2.529-3.571-6.514
		c0-4.556,1.492-6.616,4.175-6.616c3.312,0,3.506,2.871,3.543,3.627h-1.959c-0.038-0.492-0.145-1.941-1.643-1.941
		c-1.581,0-2.067,2.012-2.067,4.918c0,3.041,0.393,4.852,1.96,4.852c1.381,0,1.755-1.1,1.755-3.245v-0.682h-1.883v-1.699h3.844
		V369.507z M424.182,356.782h3.687c2.104,0,3.303,1.195,3.303,3.182c0,1.64-0.785,2.406-1.503,2.669
		c0.922,0.359,1.888,1.206,1.888,3.137c0,2.375-1.509,3.738-3.753,3.738h-3.621V356.782z M427.345,361.938
		c1.478,0,1.92-0.603,1.92-1.793c0-1.167-0.614-1.774-1.808-1.774h-1.334v3.567H427.345z M426.123,367.945h1.479
		c1.259,0,1.969-0.692,1.969-2.204c0-1.445-0.655-2.242-2.225-2.242h-1.224V367.945z M436.895,356.782h1.979v11.026h4.419
		l-0.214,1.699h-6.185V356.782z M450.578,363.697h-4.14v4.098h4.63l-0.25,1.712h-6.333v-12.726h6.292v1.739h-4.339v3.45h4.14
		V363.697z M452.508,356.782h3.149c3.158,0,4.445,2.081,4.445,6.077c0,4.305-1.209,6.649-4.631,6.649h-2.963V356.782z
		 M454.5,367.874h0.935c1.968,0,2.623-1.513,2.623-4.993c0-3.082-0.655-4.439-2.604-4.439H454.5V367.874z"/>
	<path clip-path="url(#SVGID_2_)" fill="#2A77BC" d="M525.471,434.284h3.687c2.104,0,3.303,1.195,3.303,3.182
		c0,1.64-0.785,2.406-1.502,2.669c0.922,0.359,1.887,1.206,1.887,3.137c0,2.375-1.509,3.738-3.753,3.738h-3.621V434.284z
		 M528.633,439.44c1.478,0,1.921-0.603,1.921-1.793c0-1.166-0.614-1.774-1.808-1.774h-1.335v3.567H528.633z M527.411,445.448h1.479
		c1.26,0,1.969-0.692,1.969-2.204c0-1.445-0.655-2.242-2.225-2.242h-1.224V445.448z M536.45,441.436v5.574h-1.966v-12.726h3.7
		c2.252,0,3.498,1.208,3.498,3.412c0,1.861-0.967,2.661-1.668,2.924c1.052,0.447,1.484,1.354,1.484,3.201v0.507
		c0,1.357,0.058,2,0.175,2.682h-1.925c-0.182-0.582-0.208-1.632-0.208-2.707v-0.453c0-1.739-0.383-2.415-1.917-2.415H536.45z
		 M536.45,439.815h1.259c1.435,0,1.989-0.688,1.989-2.041c0-1.159-0.546-1.87-1.795-1.87h-1.453V439.815z M549.614,441.199h-4.14
		v4.098h4.63l-0.25,1.712h-6.333v-12.726h6.292v1.739h-4.339v3.45h4.14V441.199z M552.996,447.01h-1.98l2.99-12.726h2.566
		l3.042,12.726h-2.081l-0.738-3.488h-3.068L552.996,447.01z M556.432,441.796c-0.564-2.671-0.978-4.523-1.167-5.669h-0.051
		c-0.162,1.15-0.604,3.191-1.126,5.669H556.432z M560.805,434.284h3.149c3.158,0,4.444,2.082,4.444,6.077
		c0,4.305-1.209,6.649-4.63,6.649h-2.963V434.284z M562.797,445.376h0.935c1.967,0,2.623-1.513,2.623-4.993
		c0-3.082-0.655-4.439-2.604-4.439h-0.954V445.376z M570.242,434.284h3.687c2.104,0,3.303,1.195,3.303,3.182
		c0,1.64-0.785,2.406-1.502,2.669c0.922,0.359,1.888,1.206,1.888,3.137c0,2.375-1.509,3.738-3.753,3.738h-3.621V434.284z
		 M573.404,439.44c1.478,0,1.921-0.603,1.921-1.793c0-1.166-0.614-1.774-1.808-1.774h-1.335v3.567H573.404z M572.182,445.448h1.48
		c1.259,0,1.969-0.692,1.969-2.204c0-1.445-0.655-2.242-2.225-2.242h-1.224V445.448z M586.928,440.545
		c0,4.546-1.186,6.674-4.058,6.674c-2.7,0-3.949-2.081-3.949-6.684c0-4.504,1.458-6.446,4.039-6.446
		C585.686,434.089,586.928,436.163,586.928,440.545z M580.951,440.511c0,3.228,0.552,5.035,1.969,5.035
		c1.482,0,1.977-1.702,1.977-5.023c0-3.212-0.531-4.747-1.982-4.747C581.488,435.775,580.951,437.46,580.951,440.511z
		 M589.669,447.01h-1.98l2.99-12.726h2.566l3.042,12.726h-2.081l-0.738-3.488h-3.068L589.669,447.01z M593.105,441.796
		c-0.565-2.671-0.978-4.523-1.168-5.669h-0.051c-0.162,1.15-0.604,3.191-1.126,5.669H593.105z M599.446,441.436v5.574h-1.966
		v-12.726h3.7c2.252,0,3.498,1.208,3.498,3.412c0,1.861-0.967,2.661-1.667,2.924c1.051,0.447,1.483,1.354,1.483,3.201v0.507
		c0,1.357,0.059,2,0.175,2.682h-1.925c-0.182-0.582-0.208-1.632-0.208-2.707v-0.453c0-1.739-0.383-2.415-1.917-2.415H599.446z
		 M599.446,439.815h1.26c1.435,0,1.988-0.688,1.988-2.041c0-1.159-0.546-1.87-1.795-1.87h-1.453V439.815z M606.518,434.284h3.149
		c3.158,0,4.445,2.082,4.445,6.077c0,4.305-1.21,6.649-4.631,6.649h-2.963V434.284z M608.51,445.376h0.935
		c1.967,0,2.623-1.513,2.623-4.993c0-3.082-0.655-4.439-2.604-4.439h-0.954V445.376z"/>
	<path clip-path="url(#SVGID_2_)" fill="#2A77BC" d="M313.01,330.791c0.107,1.142,0.601,2.11,1.844,2.11
		c1.194,0,1.697-0.712,1.697-1.836c0-1.145-0.524-1.789-2.175-2.58c-2.116-1.007-2.978-1.911-2.978-3.785
		c0-1.941,1.246-3.337,3.47-3.337c2.724,0,3.416,1.877,3.453,3.478h-1.94c-0.07-0.689-0.257-1.896-1.557-1.896
		c-1.012,0-1.455,0.672-1.455,1.588c0,1.019,0.454,1.498,1.981,2.213c2.264,1.058,3.216,2.094,3.216,4.144
		c0,2.002-1.202,3.592-3.772,3.592c-2.798,0-3.671-1.804-3.758-3.691H313.01z M326.332,328.468h-4.14v4.098h4.63l-0.25,1.712h-6.333
		v-12.726h6.292v1.739h-4.339v3.451h4.14V328.468z M328.261,334.279v-12.726h2.292c2.934,7.639,3.436,8.932,3.592,9.531h0.019
		c-0.102-1.59-0.113-3.478-0.113-5.558v-3.974h1.788v12.726h-2.196c-3.037-8.098-3.509-9.387-3.667-9.943h-0.019
		c0.094,1.576,0.1,3.521,0.1,5.806v4.137H328.261z M339.352,330.791c0.107,1.142,0.601,2.11,1.844,2.11
		c1.194,0,1.697-0.712,1.697-1.836c0-1.145-0.524-1.789-2.175-2.58c-2.116-1.007-2.978-1.911-2.978-3.785
		c0-1.941,1.246-3.337,3.47-3.337c2.724,0,3.416,1.877,3.453,3.478h-1.94c-0.07-0.689-0.258-1.896-1.557-1.896
		c-1.012,0-1.455,0.672-1.455,1.588c0,1.019,0.454,1.498,1.981,2.213c2.264,1.058,3.216,2.094,3.216,4.144
		c0,2.002-1.202,3.592-3.772,3.592c-2.798,0-3.671-1.804-3.758-3.691H339.352z M354.178,327.814c0,4.546-1.186,6.673-4.058,6.673
		c-2.699,0-3.949-2.081-3.949-6.683c0-4.504,1.458-6.446,4.04-6.446C352.936,321.358,354.178,323.432,354.178,327.814z
		 M348.201,327.78c0,3.228,0.552,5.035,1.969,5.035c1.482,0,1.977-1.702,1.977-5.023c0-3.212-0.531-4.747-1.982-4.747
		C348.738,323.044,348.201,324.729,348.201,327.78z M358.014,328.705v5.574h-1.966v-12.726h3.699c2.253,0,3.499,1.208,3.499,3.412
		c0,1.861-0.967,2.661-1.668,2.924c1.051,0.447,1.484,1.354,1.484,3.201v0.507c0,1.357,0.058,2,0.174,2.682h-1.925
		c-0.182-0.582-0.208-1.632-0.208-2.707v-0.453c0-1.739-0.383-2.415-1.917-2.415H358.014z M358.014,327.084h1.259
		c1.435,0,1.989-0.689,1.989-2.041c0-1.159-0.546-1.87-1.795-1.87h-1.453V327.084z"/>
	<g clip-path="url(#SVGID_2_)">
		<text transform="matrix(1 0 0 1 169.6919 275.1094)"><tspan x="0" y="0" fill="#2A77BC" font-family="'OCRAStd'" font-size="23.4856" letter-spacing="-1">3.3 </tspan><tspan x="63.034" y="0" fill="#2A77BC" font-family="'OCRAStd'" font-size="23.4856">V</tspan></text>
	</g>
	<g clip-path="url(#SVGID_2_)">
		<text transform="matrix(1 0 0 1 169.6919 304.7012)"><tspan x="0" y="0" fill="#2A77BC" font-family="'OCRAStd'" font-size="23.4856" letter-spacing="-1">GN</tspan><tspan x="31.517" y="0" fill="#2A77BC" font-family="'OCRAStd'" font-size="23.4856">D</tspan></text>
	</g>
	<g clip-path="url(#SVGID_2_)">
		<text transform="matrix(1 0 0 1 169.6919 363.8848)"><tspan x="0" y="0" fill="#2A77BC" font-family="'OCRAStd'" font-size="23.4856" letter-spacing="-1">4 (IO</tspan><tspan x="78.792" y="0" fill="#2A77BC" font-family="'OCRAStd'" font-size="23.4856">)</tspan></text>
	</g>
	<g clip-path="url(#SVGID_2_)">
		<text transform="matrix(1 0 0 1 169.6919 393.4766)"><tspan x="0" y="0" fill="#2A77BC" font-family="'OCRAStd'" font-size="23.4856" letter-spacing="-1">5 (PW</tspan><tspan x="78.792" y="0" fill="#2A77BC" font-family="'OCRAStd'" font-size="23.4856">)</tspan></text>
	</g>
	<g clip-path="url(#SVGID_2_)">
		<text transform="matrix(1 0 0 1 169.6919 423.0688)"><tspan x="0" y="0" fill="#2A77BC" font-family="'OCRAStd'" font-size="23.4856" letter-spacing="-1">10 (PW</tspan><tspan x="94.551" y="0" fill="#2A77BC" font-family="'OCRAStd'" font-size="23.4856">)</tspan></text>
	</g>
	<g clip-path="url(#SVGID_2_)">
		<text transform="matrix(1 0 0 1 169.6919 452.6606)"><tspan x="0" y="0" fill="#2A77BC" font-family="'OCRAStd'" font-size="23.4856" letter-spacing="-1">16 (PW</tspan><tspan x="94.551" y="0" fill="#2A77BC" font-family="'OCRAStd'" font-size="23.4856">)</tspan></text>
	</g>
	<g clip-path="url(#SVGID_2_)">
		<text transform="matrix(1 0 0 1 169.6919 482.2524)"><tspan x="0" y="0" fill="#2A77BC" font-family="'OCRAStd'" font-size="23.4856" letter-spacing="-1">14 (L</tspan><tspan x="78.792" y="0" fill="#2A77BC" font-family="'OCRAStd'" font-size="23.4856">)</tspan></text>
	</g>
	<g clip-path="url(#SVGID_2_)">
		<text transform="matrix(1 0 0 1 169.6919 511.8442)"><tspan x="0" y="0" fill="#2A77BC" font-family="'OCRAStd'" font-size="23.4856" letter-spacing="-1">12 (D</tspan><tspan x="78.792" y="0" fill="#2A77BC" font-family="'OCRAStd'" font-size="23.4856">)</tspan></text>
	</g>
	<g clip-path="url(#SVGID_2_)">
		<text transform="matrix(1 0 0 1 169.6919 541.436)"><tspan x="0" y="0" fill="#2A77BC" font-family="'OCRAStd'" font-size="23.4856" letter-spacing="-1">13 (C</tspan><tspan x="78.792" y="0" fill="#2A77BC" font-family="'OCRAStd'" font-size="23.4856">)</tspan></text>
	</g>
	<g clip-path="url(#SVGID_2_)">
		<text transform="matrix(1 0 0 1 648.7979 256.3208)"><tspan x="0" y="0" fill="#2A77BC" font-family="'OCRAStd'" font-size="23.4856" letter-spacing="-1">S</tspan><tspan x="15.758" y="0" fill="#2A77BC" font-family="'OCRAStd'" font-size="23.4856">1</tspan></text>
	</g>
	<g clip-path="url(#SVGID_2_)">
		<text transform="matrix(1 0 0 1 648.7979 441.8574)"><tspan x="0" y="0" fill="#2A77BC" font-family="'OCRAStd'" font-size="23.4856" letter-spacing="-1">S</tspan><tspan x="15.758" y="0" fill="#2A77BC" font-family="'OCRAStd'" font-size="23.4856">3</tspan></text>
	</g>
	<g clip-path="url(#SVGID_2_)">
		<text transform="matrix(1 0 0 1 571.2954 380.7944)"><tspan x="0" y="0" fill="#2A77BC" font-family="'OCRAStd'" font-size="23.4856" letter-spacing="-1">S</tspan><tspan x="15.758" y="0" fill="#2A77BC" font-family="'OCRAStd'" font-size="23.4856">4</tspan></text>
	</g>
	<g clip-path="url(#SVGID_2_)">
		<text transform="matrix(1 0 0 1 726.3003 380.7944)"><tspan x="0" y="0" fill="#2A77BC" font-family="'OCRAStd'" font-size="23.4856" letter-spacing="-1">S</tspan><tspan x="15.758" y="0" fill="#2A77BC" font-family="'OCRAStd'" font-size="23.4856">2</tspan></text>
	</g>
	<g clip-path="url(#SVGID_2_)">
		<text transform="matrix(1 0 0 1 172.0386 571.0273)"><tspan x="0" y="0" fill="#2A77BC" font-family="'OCRAStd'" font-size="16.4399">0 (12C-D</tspan><tspan x="88.248" y="0" fill="#2A77BC" font-family="'OCRAStd'" font-size="16.4399">)</tspan></text>
	</g>
	<g clip-path="url(#SVGID_2_)">
		<text transform="matrix(1 0 0 1 172.0386 600.6191)"><tspan x="0" y="0" fill="#2A77BC" font-family="'OCRAStd'" font-size="16.4399">2 (12C-D</tspan><tspan x="88.248" y="0" fill="#2A77BC" font-family="'OCRAStd'" font-size="16.4399">)</tspan></text>
	</g>
	<g clip-path="url(#SVGID_2_)">
		<text transform="matrix(1 0 0 1 118.0171 634.4355)"><tspan x="0" y="0" fill="#2A77BC" font-family="'OCRAStd'" font-size="16.4399">V + GN</tspan><tspan x="66.186" y="0" fill="#2A77BC" font-family="'OCRAStd'" font-size="16.4399">D</tspan></text>
	</g>
	<g clip-path="url(#SVGID_2_)">
		<text transform="matrix(1 0 0 1 110.9644 700.1953)"><tspan x="0" y="0" fill="#2A77BC" font-family="'OCRAStd'" font-size="16.4399">C</tspan><tspan x="11.031" y="0" fill="#2A77BC" font-family="'OCRAStd'" font-size="16.4399">K</tspan></text>
	</g>
	<g clip-path="url(#SVGID_2_)">
		<text transform="matrix(1 0 0 1 204.9023 700.1953)"><tspan x="0" y="0" fill="#2A77BC" font-family="'OCRAStd'" font-size="16.4399">C</tspan><tspan x="11.031" y="0" fill="#2A77BC" font-family="'OCRAStd'" font-size="16.4399">O</tspan></text>
	</g>
	<g clip-path="url(#SVGID_2_)">
		<text transform="matrix(1 0 0 1 174.373 700.1953)"><tspan x="0" y="0" fill="#2A77BC" font-family="'OCRAStd'" font-size="16.4399">M</tspan><tspan x="11.031" y="0" fill="#2A77BC" font-family="'OCRAStd'" font-size="16.4399">I</tspan></text>
	</g>
	<g clip-path="url(#SVGID_2_)">
		<text transform="matrix(1 0 0 1 143.8442 700.1953)"><tspan x="0" y="0" fill="#2A77BC" font-family="'OCRAStd'" font-size="16.4399">M</tspan><tspan x="11.031" y="0" fill="#2A77BC" font-family="'OCRAStd'" font-size="16.4399">O</tspan></text>
	</g>
	<g clip-path="url(#SVGID_2_)">
		<defs>
			<rect id="SVGID_5_" width="1732" height="1178"/>
		</defs>
		<clipPath id="SVGID_6_">
			<use xlink:href="#SVGID_5_"  overflow="visible"/>
		</clipPath>
		
			<rect x="757.703" y="549.915" clip-path="url(#SVGID_6_)" fill="none" stroke="#2C77BC" stroke-width="5" stroke-miterlimit="10" width="29.891" height="70.339"/>
		
			<rect x="787.595" y="601.571" clip-path="url(#SVGID_6_)" fill-rule="evenodd" clip-rule="evenodd" fill="#2C77BC" width="12.543" height="12.544"/>
	</g>
	<g clip-path="url(#SVGID_2_)">
		<text transform="matrix(1 0 0 1 772.6602 648.8818)" fill="#2C77BC" font-family="'Nunito-ExtraBold'" font-size="32.7643">0</text>
	</g>
	<g clip-path="url(#SVGID_2_)">
		<text transform="matrix(1 0 0 1 772.6602 535.2881)" fill="#2C77BC" font-family="'Nunito-ExtraBold'" font-size="32.7643">1</text>
	</g>
	<g clip-path="url(#SVGID_2_)">
		<defs>
			<rect id="SVGID_7_" width="1732" height="1178"/>
		</defs>
		<clipPath id="SVGID_8_">
			<use xlink:href="#SVGID_7_"  overflow="visible"/>
		</clipPath>
		<path clip-path="url(#SVGID_8_)" fill="none" stroke="#2A77BC" stroke-width="2.903" stroke-miterlimit="10" d="M131.874,244.885
			h124.083c19.161,0,34.837,15.677,34.837,34.837v296.703c0,19.16-15.676,34.836-34.837,34.836H131.874"/>
		<rect x="158.099" y="308.296" clip-path="url(#SVGID_8_)" fill="#2A77BC" width="131.52" height="30.532"/>
	</g>
	<g clip-path="url(#SVGID_2_)">
		<text transform="matrix(1 0 0 1 207.2676 333.8232)"><tspan x="0" y="0" fill="#FFFFFF" font-family="'OCRAStd'" font-size="25.0622" letter-spacing="-1">A</tspan><tspan x="16.816" y="0" fill="#FFFFFF" font-family="'OCRAStd'" font-size="25.0622">O</tspan></text>
	</g>
	<g clip-path="url(#SVGID_2_)">
		<defs>
			<rect id="SVGID_9_" width="1732" height="1178"/>
		</defs>
		<clipPath id="SVGID_10_">
			<use xlink:href="#SVGID_9_"  overflow="visible"/>
		</clipPath>
		
			<line clip-path="url(#SVGID_10_)" fill="none" stroke="#2A77BC" stroke-width="2.349" stroke-miterlimit="10" x1="156.925" y1="457.43" x2="290.793" y2="457.43"/>
		
			<line clip-path="url(#SVGID_10_)" fill="none" stroke="#2A77BC" stroke-width="2.349" stroke-miterlimit="10" x1="156.925" y1="545.501" x2="290.793" y2="545.501"/>
		<path clip-path="url(#SVGID_10_)" fill="none" stroke="#2C77BC" stroke-width="5" stroke-miterlimit="10" d="M365.852,289.74
			c0-9.886-5.124-18.623-12.84-23.718h-31.15c-7.716,5.095-12.84,13.832-12.84,23.718c0,8.895,4.149,16.858,10.599,22.079h35.632
			C361.703,306.598,365.852,298.635,365.852,289.74z"/>
		<path clip-path="url(#SVGID_10_)" fill-rule="evenodd" clip-rule="evenodd" fill="#FFFFFF" d="M1537.618,1098.973h-508.446
			c-62.962,0-114.477-51.516-114.477-114.478V543.304c0-62.963,51.515-114.477,114.477-114.477h508.446
			c62.963,0,114.478,51.514,114.478,114.477v441.191C1652.096,1047.457,1600.581,1098.973,1537.618,1098.973"/>
		<path clip-path="url(#SVGID_10_)" fill="none" stroke="#2C77BC" stroke-width="5" stroke-miterlimit="10" d="M1537.618,1098.973
			h-508.446c-62.962,0-114.477-51.516-114.477-114.478V543.304c0-62.963,51.515-114.477,114.477-114.477h508.446
			c62.963,0,114.478,51.514,114.478,114.477v441.191C1652.096,1047.457,1600.581,1098.973,1537.618,1098.973z"/>
		<polygon clip-path="url(#SVGID_10_)" fill="none" stroke="#2C77BC" stroke-width="5" stroke-miterlimit="10" points="
			967.629,552.647 991.648,552.647 991.648,510.613 1031.28,510.613 1031.28,552.647 1057.702,552.647 1057.702,473.383 
			967.629,473.383 		"/>
		<path clip-path="url(#SVGID_10_)" fill-rule="evenodd" clip-rule="evenodd" fill="#2C77BC" d="M1118.01,508.091
			c0,4.776-3.872,8.648-8.648,8.648s-8.648-3.872-8.648-8.648s3.872-8.648,8.648-8.648S1118.01,503.315,1118.01,508.091"/>
		<path clip-path="url(#SVGID_10_)" fill-rule="evenodd" clip-rule="evenodd" fill="#2C77BC" d="M1148.236,508.091
			c0,4.776-3.873,8.648-8.648,8.648c-4.777,0-8.649-3.872-8.649-8.648s3.872-8.648,8.649-8.648
			C1144.363,499.443,1148.236,503.315,1148.236,508.091"/>
		<path clip-path="url(#SVGID_10_)" fill-rule="evenodd" clip-rule="evenodd" fill="#2C77BC" d="M1178.463,508.091
			c0,4.776-3.873,8.648-8.648,8.648c-4.777,0-8.649-3.872-8.649-8.648s3.872-8.648,8.649-8.648
			C1174.59,499.443,1178.463,503.315,1178.463,508.091"/>
		<path clip-path="url(#SVGID_10_)" fill-rule="evenodd" clip-rule="evenodd" fill="#2C77BC" d="M1148.236,1037.202
			c0,4.776-3.873,8.648-8.648,8.648c-4.777,0-8.649-3.872-8.649-8.648s3.872-8.648,8.649-8.648
			C1144.363,1028.554,1148.236,1032.426,1148.236,1037.202"/>
		<path clip-path="url(#SVGID_10_)" fill-rule="evenodd" clip-rule="evenodd" fill="#2C77BC" d="M1178.463,1037.202
			c0,4.776-3.873,8.648-8.648,8.648c-4.777,0-8.649-3.872-8.649-8.648s3.872-8.648,8.649-8.648
			C1174.59,1028.554,1178.463,1032.426,1178.463,1037.202"/>
		<path clip-path="url(#SVGID_10_)" fill-rule="evenodd" clip-rule="evenodd" fill="#2C77BC" d="M1208.688,1037.202
			c0,4.776-3.872,8.648-8.648,8.648s-8.648-3.872-8.648-8.648s3.872-8.648,8.648-8.648S1208.688,1032.426,1208.688,1037.202"/>
		<path clip-path="url(#SVGID_10_)" fill-rule="evenodd" clip-rule="evenodd" fill="#2C77BC" d="M1238.914,1037.202
			c0,4.776-3.871,8.648-8.647,8.648c-4.777,0-8.649-3.872-8.649-8.648s3.872-8.648,8.649-8.648
			C1235.043,1028.554,1238.914,1032.426,1238.914,1037.202"/>
		<path clip-path="url(#SVGID_10_)" fill-rule="evenodd" clip-rule="evenodd" fill="#2C77BC" d="M1269.141,1037.202
			c0,4.776-3.873,8.648-8.648,8.648c-4.776,0-8.648-3.872-8.648-8.648s3.872-8.648,8.648-8.648
			C1265.268,1028.554,1269.141,1032.426,1269.141,1037.202"/>
		<path clip-path="url(#SVGID_10_)" fill-rule="evenodd" clip-rule="evenodd" fill="#2C77BC" d="M1434.064,508.091
			c0,4.776-3.872,8.648-8.648,8.648s-8.648-3.872-8.648-8.648s3.872-8.648,8.648-8.648S1434.064,503.315,1434.064,508.091"/>
		<path clip-path="url(#SVGID_10_)" fill-rule="evenodd" clip-rule="evenodd" fill="#2C77BC" d="M1465.642,508.091
			c0,4.776-3.872,8.648-8.648,8.648s-8.648-3.872-8.648-8.648s3.872-8.648,8.648-8.648S1465.642,503.315,1465.642,508.091"/>
		<path clip-path="url(#SVGID_10_)" fill-rule="evenodd" clip-rule="evenodd" fill="#2C77BC" d="M1497.219,508.091
			c0,4.776-3.872,8.648-8.648,8.648s-8.648-3.872-8.648-8.648s3.872-8.648,8.648-8.648S1497.219,503.315,1497.219,508.091"/>
		<path clip-path="url(#SVGID_10_)" fill-rule="evenodd" clip-rule="evenodd" fill="#2C77BC" d="M1528.797,508.091
			c0,4.776-3.873,8.648-8.648,8.648c-4.777,0-8.649-3.872-8.649-8.648s3.872-8.648,8.649-8.648
			C1524.924,499.443,1528.797,503.315,1528.797,508.091"/>
		<path clip-path="url(#SVGID_10_)" fill-rule="evenodd" clip-rule="evenodd" fill="#2C77BC" d="M1560.373,508.091
			c0,4.776-3.871,8.648-8.647,8.648c-4.777,0-8.649-3.872-8.649-8.648s3.872-8.648,8.649-8.648
			C1556.502,499.443,1560.373,503.315,1560.373,508.091"/>
		<path clip-path="url(#SVGID_10_)" fill-rule="evenodd" clip-rule="evenodd" fill="#2C77BC" d="M1591.951,508.091
			c0,4.776-3.873,8.648-8.648,8.648c-4.777,0-8.649-3.872-8.649-8.648s3.872-8.648,8.649-8.648
			C1588.078,499.443,1591.951,503.315,1591.951,508.091"/>
		<path clip-path="url(#SVGID_10_)" fill-rule="evenodd" clip-rule="evenodd" fill="#2C77BC" d="M1591.951,565.737
			c0,4.777-3.873,8.649-8.648,8.649c-4.777,0-8.649-3.872-8.649-8.649c0-4.776,3.872-8.648,8.649-8.648
			C1588.078,557.089,1591.951,560.961,1591.951,565.737"/>
		<path clip-path="url(#SVGID_10_)" fill-rule="evenodd" clip-rule="evenodd" fill="#2C77BC" d="M1591.951,597.118
			c0,4.776-3.873,8.648-8.648,8.648c-4.777,0-8.649-3.872-8.649-8.648s3.872-8.648,8.649-8.648
			C1588.078,588.47,1591.951,592.342,1591.951,597.118"/>
		<path clip-path="url(#SVGID_10_)" fill-rule="evenodd" clip-rule="evenodd" fill="#2C77BC" d="M1591.951,628.498
			c0,4.776-3.873,8.648-8.648,8.648c-4.777,0-8.649-3.872-8.649-8.648s3.872-8.648,8.649-8.648
			C1588.078,619.85,1591.951,623.722,1591.951,628.498"/>
		<path clip-path="url(#SVGID_10_)" fill-rule="evenodd" clip-rule="evenodd" fill="#2C77BC" d="M1591.951,659.879
			c0,4.776-3.873,8.648-8.648,8.648c-4.777,0-8.649-3.872-8.649-8.648s3.872-8.648,8.649-8.648
			C1588.078,651.23,1591.951,655.103,1591.951,659.879"/>
		<path clip-path="url(#SVGID_10_)" fill-rule="evenodd" clip-rule="evenodd" fill="#2C77BC" d="M1591.951,691.259
			c0,4.776-3.873,8.648-8.648,8.648c-4.777,0-8.649-3.872-8.649-8.648s3.872-8.648,8.649-8.648
			C1588.078,682.61,1591.951,686.482,1591.951,691.259"/>
		<path clip-path="url(#SVGID_10_)" fill-rule="evenodd" clip-rule="evenodd" fill="#2C77BC" d="M1591.951,722.639
			c0,4.776-3.873,8.648-8.648,8.648c-4.777,0-8.649-3.872-8.649-8.648s3.872-8.648,8.649-8.648
			C1588.078,713.99,1591.951,717.862,1591.951,722.639"/>
		<path clip-path="url(#SVGID_10_)" fill-rule="evenodd" clip-rule="evenodd" fill="#2C77BC" d="M1591.951,756.046
			c0,4.776-3.873,8.648-8.648,8.648c-4.777,0-8.649-3.872-8.649-8.648s3.872-8.648,8.649-8.648
			C1588.078,747.397,1591.951,751.27,1591.951,756.046"/>
		<path clip-path="url(#SVGID_10_)" fill-rule="evenodd" clip-rule="evenodd" fill="#2C77BC" d="M1591.951,787.427
			c0,4.776-3.873,8.648-8.648,8.648c-4.777,0-8.649-3.872-8.649-8.648s3.872-8.647,8.649-8.647
			C1588.078,778.779,1591.951,782.65,1591.951,787.427"/>
		<path clip-path="url(#SVGID_10_)" fill-rule="evenodd" clip-rule="evenodd" fill="#2C77BC" d="M1591.951,818.807
			c0,4.776-3.873,8.648-8.648,8.648c-4.777,0-8.649-3.872-8.649-8.648s3.872-8.648,8.649-8.648
			C1588.078,810.158,1591.951,814.03,1591.951,818.807"/>
		<path clip-path="url(#SVGID_10_)" fill-rule="evenodd" clip-rule="evenodd" fill="#2C77BC" d="M1591.951,850.188
			c0,4.776-3.873,8.648-8.648,8.648c-4.777,0-8.649-3.872-8.649-8.648c0-4.777,3.872-8.649,8.649-8.649
			C1588.078,841.538,1591.951,845.41,1591.951,850.188"/>
		<path clip-path="url(#SVGID_10_)" fill-rule="evenodd" clip-rule="evenodd" fill="#2C77BC" d="M1591.951,881.567
			c0,4.776-3.873,8.648-8.648,8.648c-4.777,0-8.649-3.872-8.649-8.648s3.872-8.647,8.649-8.647
			C1588.078,872.92,1591.951,876.791,1591.951,881.567"/>
		<path clip-path="url(#SVGID_10_)" fill-rule="evenodd" clip-rule="evenodd" fill="#2C77BC" d="M1591.951,948.517
			c0,4.776-3.873,8.648-8.648,8.648c-4.777,0-8.649-3.872-8.649-8.648s3.872-8.648,8.649-8.648
			C1588.078,939.868,1591.951,943.74,1591.951,948.517"/>
		<path clip-path="url(#SVGID_10_)" fill-rule="evenodd" clip-rule="evenodd" fill="#2C77BC" d="M1619.01,948.517
			c0,4.776-3.871,8.648-8.647,8.648c-4.777,0-8.649-3.872-8.649-8.648s3.872-8.648,8.649-8.648
			C1615.139,939.868,1619.01,943.74,1619.01,948.517"/>
		
			<rect x="1344.059" y="754.019" clip-path="url(#SVGID_10_)" fill="none" stroke="#2C77BC" stroke-width="5" stroke-miterlimit="10" width="133.701" height="164.807"/>
		
			<rect x="1200.04" y="827.591" clip-path="url(#SVGID_10_)" fill="none" stroke="#2C77BC" stroke-width="5" stroke-miterlimit="10" width="44.836" height="110.115"/>
		
			<rect x="1136.585" y="615.631" clip-path="url(#SVGID_10_)" fill="none" stroke="#2C77BC" stroke-width="5" stroke-miterlimit="10" width="74.266" height="39.458"/>
		
			<line clip-path="url(#SVGID_10_)" fill="none" stroke="#2C77BC" stroke-width="6.826" stroke-miterlimit="10" x1="1479.095" y1="763.899" x2="1506.875" y2="763.899"/>
		
			<line clip-path="url(#SVGID_10_)" fill="none" stroke="#2C77BC" stroke-width="5" stroke-miterlimit="10" x1="1479.095" y1="785.399" x2="1506.875" y2="785.399"/>
		
			<line clip-path="url(#SVGID_10_)" fill="none" stroke="#2C77BC" stroke-width="5" stroke-miterlimit="10" x1="1479.095" y1="806.9" x2="1506.875" y2="806.9"/>
		
			<line clip-path="url(#SVGID_10_)" fill="none" stroke="#2C77BC" stroke-width="5" stroke-miterlimit="10" x1="1479.095" y1="828.4" x2="1506.875" y2="828.4"/>
		
			<line clip-path="url(#SVGID_10_)" fill="none" stroke="#2C77BC" stroke-width="5" stroke-miterlimit="10" x1="1479.095" y1="849.9" x2="1506.875" y2="849.9"/>
		
			<line clip-path="url(#SVGID_10_)" fill="none" stroke="#2C77BC" stroke-width="5" stroke-miterlimit="10" x1="1479.095" y1="871.401" x2="1506.875" y2="871.401"/>
		
			<line clip-path="url(#SVGID_10_)" fill="none" stroke="#2C77BC" stroke-width="5" stroke-miterlimit="10" x1="1479.095" y1="892.901" x2="1506.875" y2="892.901"/>
		
			<line clip-path="url(#SVGID_10_)" fill="none" stroke="#2C77BC" stroke-width="5" stroke-miterlimit="10" x1="1479.095" y1="914.401" x2="1506.875" y2="914.401"/>
		
			<line clip-path="url(#SVGID_10_)" fill="none" stroke="#2C77BC" stroke-width="6.826" stroke-miterlimit="10" x1="1314.814" y1="763.899" x2="1342.595" y2="763.899"/>
		
			<line clip-path="url(#SVGID_10_)" fill="none" stroke="#2C77BC" stroke-width="5" stroke-miterlimit="10" x1="1246.363" y1="833.155" x2="1266.595" y2="833.155"/>
		
			<line clip-path="url(#SVGID_10_)" fill="none" stroke="#2C77BC" stroke-width="5" stroke-miterlimit="10" x1="1246.363" y1="849.9" x2="1266.595" y2="849.9"/>
		
			<line clip-path="url(#SVGID_10_)" fill="none" stroke="#2C77BC" stroke-width="5" stroke-miterlimit="10" x1="1246.363" y1="866.646" x2="1266.595" y2="866.646"/>
		
			<line clip-path="url(#SVGID_10_)" fill="none" stroke="#2C77BC" stroke-width="5" stroke-miterlimit="10" x1="1246.363" y1="883.391" x2="1266.595" y2="883.391"/>
		
			<line clip-path="url(#SVGID_10_)" fill="none" stroke="#2C77BC" stroke-width="5" stroke-miterlimit="10" x1="1246.363" y1="900.136" x2="1266.595" y2="900.136"/>
		
			<line clip-path="url(#SVGID_10_)" fill="none" stroke="#2C77BC" stroke-width="5" stroke-miterlimit="10" x1="1246.363" y1="916.88" x2="1266.595" y2="916.88"/>
		
			<line clip-path="url(#SVGID_10_)" fill="none" stroke="#2C77BC" stroke-width="5" stroke-miterlimit="10" x1="1246.363" y1="933.625" x2="1266.595" y2="933.625"/>
		
			<line clip-path="url(#SVGID_10_)" fill="none" stroke="#2C77BC" stroke-width="5" stroke-miterlimit="10" x1="1177.835" y1="833.155" x2="1198.066" y2="833.155"/>
		
			<line clip-path="url(#SVGID_10_)" fill="none" stroke="#2C77BC" stroke-width="5" stroke-miterlimit="10" x1="1177.835" y1="849.9" x2="1198.066" y2="849.9"/>
		
			<line clip-path="url(#SVGID_10_)" fill="none" stroke="#2C77BC" stroke-width="5" stroke-miterlimit="10" x1="1177.835" y1="866.646" x2="1198.066" y2="866.646"/>
		
			<line clip-path="url(#SVGID_10_)" fill="none" stroke="#2C77BC" stroke-width="5" stroke-miterlimit="10" x1="1177.835" y1="883.391" x2="1198.066" y2="883.391"/>
		
			<line clip-path="url(#SVGID_10_)" fill="none" stroke="#2C77BC" stroke-width="5" stroke-miterlimit="10" x1="1177.835" y1="900.136" x2="1198.066" y2="900.136"/>
		
			<line clip-path="url(#SVGID_10_)" fill="none" stroke="#2C77BC" stroke-width="5" stroke-miterlimit="10" x1="1177.835" y1="916.88" x2="1198.066" y2="916.88"/>
		
			<line clip-path="url(#SVGID_10_)" fill="none" stroke="#2C77BC" stroke-width="5" stroke-miterlimit="10" x1="1177.835" y1="933.625" x2="1198.066" y2="933.625"/>
		
			<line clip-path="url(#SVGID_10_)" fill="none" stroke="#2C77BC" stroke-width="5" stroke-miterlimit="10" x1="1314.814" y1="785.399" x2="1342.595" y2="785.399"/>
		
			<line clip-path="url(#SVGID_10_)" fill="none" stroke="#2C77BC" stroke-width="5" stroke-miterlimit="10" x1="1314.814" y1="806.9" x2="1342.595" y2="806.9"/>
		
			<line clip-path="url(#SVGID_10_)" fill="none" stroke="#2C77BC" stroke-width="5" stroke-miterlimit="10" x1="1314.814" y1="828.4" x2="1342.595" y2="828.4"/>
		
			<line clip-path="url(#SVGID_10_)" fill="none" stroke="#2C77BC" stroke-width="5" stroke-miterlimit="10" x1="1314.814" y1="849.9" x2="1342.595" y2="849.9"/>
		
			<line clip-path="url(#SVGID_10_)" fill="none" stroke="#2C77BC" stroke-width="5" stroke-miterlimit="10" x1="1314.814" y1="871.401" x2="1342.595" y2="871.401"/>
		
			<line clip-path="url(#SVGID_10_)" fill="none" stroke="#2C77BC" stroke-width="5" stroke-miterlimit="10" x1="1314.814" y1="892.901" x2="1342.595" y2="892.901"/>
		
			<line clip-path="url(#SVGID_10_)" fill="none" stroke="#2C77BC" stroke-width="5" stroke-miterlimit="10" x1="1314.814" y1="914.401" x2="1342.595" y2="914.401"/>
		
			<line clip-path="url(#SVGID_10_)" fill="none" stroke="#2C77BC" stroke-width="5" stroke-miterlimit="10" x1="1357.153" y1="932.106" x2="1357.153" y2="917.218"/>
		
			<line clip-path="url(#SVGID_10_)" fill="none" stroke="#2C77BC" stroke-width="5" stroke-miterlimit="10" x1="1378.654" y1="932.106" x2="1378.654" y2="917.218"/>
		
			<line clip-path="url(#SVGID_10_)" fill="none" stroke="#2C77BC" stroke-width="5" stroke-miterlimit="10" x1="1400.154" y1="932.106" x2="1400.154" y2="917.218"/>
		
			<line clip-path="url(#SVGID_10_)" fill="none" stroke="#2C77BC" stroke-width="5" stroke-miterlimit="10" x1="1421.654" y1="932.106" x2="1421.654" y2="917.218"/>
		
			<line clip-path="url(#SVGID_10_)" fill="none" stroke="#2C77BC" stroke-width="5" stroke-miterlimit="10" x1="1443.154" y1="932.106" x2="1443.154" y2="917.218"/>
		
			<line clip-path="url(#SVGID_10_)" fill="none" stroke="#2C77BC" stroke-width="5" stroke-miterlimit="10" x1="1464.655" y1="932.106" x2="1464.655" y2="917.218"/>
		<polyline clip-path="url(#SVGID_10_)" fill="none" stroke="#2C77BC" stroke-width="5" stroke-miterlimit="10" points="
			1333.248,722.639 1333.248,670.689 1382.276,670.689 1382.276,705.852 1410.909,705.852 1410.909,674.627 1436.227,674.627 
			1436.227,702.069 1466.949,702.069 1466.949,670.689 1488.57,670.689 1488.57,717.861 		"/>
		
			<line clip-path="url(#SVGID_10_)" fill="none" stroke="#2C77BC" stroke-width="5" stroke-miterlimit="10" x1="1149.777" y1="655.089" x2="1149.777" y2="684.235"/>
		
			<line clip-path="url(#SVGID_10_)" fill="none" stroke="#2C77BC" stroke-width="5" stroke-miterlimit="10" x1="1173.508" y1="655.089" x2="1173.508" y2="684.235"/>
		
			<line clip-path="url(#SVGID_10_)" fill="none" stroke="#2C77BC" stroke-width="5" stroke-miterlimit="10" x1="1197.238" y1="655.089" x2="1197.238" y2="684.235"/>
		<path clip-path="url(#SVGID_10_)" fill-rule="evenodd" clip-rule="evenodd" fill="#2C77BC" d="M1527.781,1011.301
			c0,4.776-3.871,8.648-8.647,8.648c-4.777,0-8.649-3.872-8.649-8.648s3.872-8.648,8.649-8.648
			C1523.91,1002.652,1527.781,1006.524,1527.781,1011.301"/>
		<path clip-path="url(#SVGID_10_)" fill-rule="evenodd" clip-rule="evenodd" fill="#2C77BC" d="M1554.435,1011.301
			c0,4.776-3.872,8.648-8.649,8.648c-4.775,0-8.647-3.872-8.647-8.648s3.872-8.648,8.647-8.648
			C1550.563,1002.652,1554.435,1006.524,1554.435,1011.301"/>
		<path clip-path="url(#SVGID_10_)" fill-rule="evenodd" clip-rule="evenodd" fill="#2C77BC" d="M1581.087,1011.301
			c0,4.776-3.872,8.648-8.648,8.648s-8.648-3.872-8.648-8.648s3.872-8.648,8.648-8.648S1581.087,1006.524,1581.087,1011.301"/>
		<path clip-path="url(#SVGID_10_)" fill-rule="evenodd" clip-rule="evenodd" fill="#2C77BC" d="M1607.74,1011.301
			c0,4.776-3.873,8.648-8.649,8.648s-8.648-3.872-8.648-8.648s3.872-8.648,8.648-8.648S1607.74,1006.524,1607.74,1011.301"/>
		<path clip-path="url(#SVGID_10_)" fill-rule="evenodd" clip-rule="evenodd" fill="#2C77BC" d="M1353.7,1037.202
			c0,4.776-3.872,8.648-8.649,8.648c-4.775,0-8.647-3.872-8.647-8.648s3.872-8.648,8.647-8.648
			C1349.828,1028.554,1353.7,1032.426,1353.7,1037.202"/>
		<path clip-path="url(#SVGID_10_)" fill-rule="evenodd" clip-rule="evenodd" fill="#2C77BC" d="M1383.926,1037.202
			c0,4.776-3.871,8.648-8.647,8.648c-4.777,0-8.649-3.872-8.649-8.648s3.872-8.648,8.649-8.648
			C1380.055,1028.554,1383.926,1032.426,1383.926,1037.202"/>
		<path clip-path="url(#SVGID_10_)" fill-rule="evenodd" clip-rule="evenodd" fill="#2C77BC" d="M1414.152,1037.202
			c0,4.776-3.872,8.648-8.648,8.648s-8.648-3.872-8.648-8.648s3.872-8.648,8.648-8.648S1414.152,1032.426,1414.152,1037.202"/>
		<path clip-path="url(#SVGID_10_)" fill-rule="evenodd" clip-rule="evenodd" fill="#2C77BC" d="M1444.379,1037.202
			c0,4.776-3.873,8.648-8.648,8.648c-4.777,0-8.649-3.872-8.649-8.648s3.872-8.648,8.649-8.648
			C1440.506,1028.554,1444.379,1032.426,1444.379,1037.202"/>
		<path clip-path="url(#SVGID_10_)" fill-rule="evenodd" clip-rule="evenodd" fill="#2C77BC" d="M1474.605,1037.202
			c0,4.776-3.873,8.648-8.649,8.648s-8.648-3.872-8.648-8.648s3.872-8.648,8.648-8.648S1474.605,1032.426,1474.605,1037.202"/>
		
			<line clip-path="url(#SVGID_10_)" fill="none" stroke="#2C77BC" stroke-width="5" stroke-miterlimit="10" x1="1003.074" y1="511.714" x2="1003.074" y2="542.245"/>
		
			<line clip-path="url(#SVGID_10_)" fill="none" stroke="#2C77BC" stroke-width="5" stroke-miterlimit="10" x1="1020.688" y1="511.714" x2="1020.688" y2="542.245"/>
		
			<line clip-path="url(#SVGID_10_)" fill="none" stroke="#2C77BC" stroke-width="6.826" stroke-miterlimit="10" x1="1356.533" y1="667.894" x2="1356.533" y2="721.91"/>
		<path clip-path="url(#SVGID_10_)" fill="none" stroke="#2A77BC" stroke-width="2.94" stroke-miterlimit="10" d="M1496.301,670.242
			c5.798,0,10.54,4.743,10.54,10.54v76.01"/>
		<path clip-path="url(#SVGID_10_)" fill="none" stroke="#2A77BC" stroke-width="2.94" stroke-miterlimit="10" d="M1316.607,756.792
			v-76.01c0-5.797,4.743-10.54,10.54-10.54"/>
		
			<rect x="1464.567" y="733.653" clip-path="url(#SVGID_10_)" fill="none" stroke="#2A77BC" stroke-width="2.94" stroke-miterlimit="10" width="28.183" height="14.091"/>
		<g clip-path="url(#SVGID_10_)">
			<g>
				<defs>
					<rect id="SVGID_11_" x="939.571" y="540.572" width="67.488" height="67.484"/>
				</defs>
				<clipPath id="SVGID_12_">
					<use xlink:href="#SVGID_11_"  overflow="visible"/>
				</clipPath>
				<path clip-path="url(#SVGID_12_)" fill-rule="evenodd" clip-rule="evenodd" fill="#B9F9F7" d="M1007.056,574.314
					c0,18.635-15.107,33.742-33.742,33.742s-33.742-15.107-33.742-33.742c0-18.636,15.107-33.742,33.742-33.742
					S1007.056,555.679,1007.056,574.314"/>
			</g>
		</g>
	</g>
	<g clip-path="url(#SVGID_2_)">
		<text transform="matrix(1 0 0 1 952.1289 585.582)"><tspan x="0" y="0" fill="#1A303A" font-family="'Nunito-ExtraBold'" font-size="36.8694">1</tspan><tspan x="18.028" y="0" fill="#1A303A" font-family="'Nunito-ExtraBold'" font-size="36.8694">1</tspan></text>
	</g>
	<g clip-path="url(#SVGID_2_)">
		<defs>
			<rect id="SVGID_13_" width="1732" height="1178"/>
		</defs>
		<clipPath id="SVGID_14_">
			<use xlink:href="#SVGID_13_"  overflow="visible"/>
		</clipPath>
		<g clip-path="url(#SVGID_14_)">
			<g>
				<defs>
					<rect id="SVGID_15_" x="698.552" y="518.477" width="67.484" height="67.485"/>
				</defs>
				<clipPath id="SVGID_16_">
					<use xlink:href="#SVGID_15_"  overflow="visible"/>
				</clipPath>
				<path clip-path="url(#SVGID_16_)" fill-rule="evenodd" clip-rule="evenodd" fill="#B9F9F7" d="M766.036,552.22
					c0,18.635-15.107,33.742-33.742,33.742c-18.635,0-33.742-15.107-33.742-33.742c0-18.636,15.107-33.742,33.742-33.742
					C750.929,518.478,766.036,533.584,766.036,552.22"/>
			</g>
		</g>
	</g>
	<g clip-path="url(#SVGID_2_)">
		<text transform="matrix(1 0 0 1 721.709 563.4863)" fill="#1A303A" font-family="'Nunito-ExtraBold'" font-size="36.8694">1</text>
	</g>
	<g clip-path="url(#SVGID_2_)">
		<defs>
			<rect id="SVGID_17_" width="1732" height="1178"/>
		</defs>
		<clipPath id="SVGID_18_">
			<use xlink:href="#SVGID_17_"  overflow="visible"/>
		</clipPath>
		<g clip-path="url(#SVGID_18_)">
			<g>
				<defs>
					<rect id="SVGID_19_" x="669.042" y="732.66" width="67.485" height="67.483"/>
				</defs>
				<clipPath id="SVGID_20_">
					<use xlink:href="#SVGID_19_"  overflow="visible"/>
				</clipPath>
				<path clip-path="url(#SVGID_20_)" fill-rule="evenodd" clip-rule="evenodd" fill="#B9F9F7" d="M736.526,766.402
					c0,18.635-15.107,33.742-33.742,33.742c-18.635,0-33.742-15.107-33.742-33.742c0-18.636,15.107-33.742,33.742-33.742
					C721.419,732.66,736.526,747.767,736.526,766.402"/>
			</g>
		</g>
	</g>
	<g clip-path="url(#SVGID_2_)">
		<text transform="matrix(1 0 0 1 692.1807 777.6689)" fill="#1A303A" font-family="'Nunito-ExtraBold'" font-size="36.8694">2</text>
	</g>
	<g clip-path="url(#SVGID_2_)">
		<defs>
			<rect id="SVGID_21_" width="1732" height="1178"/>
		</defs>
		<clipPath id="SVGID_22_">
			<use xlink:href="#SVGID_21_"  overflow="visible"/>
		</clipPath>
		<g clip-path="url(#SVGID_22_)">
			<g>
				<defs>
					<rect id="SVGID_23_" x="405.36" y="732.66" width="67.484" height="67.483"/>
				</defs>
				<clipPath id="SVGID_24_">
					<use xlink:href="#SVGID_23_"  overflow="visible"/>
				</clipPath>
				<path clip-path="url(#SVGID_24_)" fill-rule="evenodd" clip-rule="evenodd" fill="#B9F9F7" d="M472.844,766.402
					c0,18.635-15.107,33.742-33.742,33.742c-18.636,0-33.743-15.107-33.743-33.742c0-18.636,15.107-33.742,33.743-33.742
					C457.737,732.66,472.844,747.767,472.844,766.402"/>
			</g>
		</g>
	</g>
	<g clip-path="url(#SVGID_2_)">
		<text transform="matrix(1 0 0 1 428.5166 777.6689)" fill="#1A303A" font-family="'Nunito-ExtraBold'" font-size="36.8694">3</text>
	</g>
	<g clip-path="url(#SVGID_2_)">
		<defs>
			<rect id="SVGID_25_" width="1732" height="1178"/>
		</defs>
		<clipPath id="SVGID_26_">
			<use xlink:href="#SVGID_25_"  overflow="visible"/>
		</clipPath>
		<g clip-path="url(#SVGID_26_)">
			<g>
				<defs>
					<rect id="SVGID_27_" x="76.946" y="380.449" width="67.485" height="67.484"/>
				</defs>
				<clipPath id="SVGID_28_">
					<use xlink:href="#SVGID_27_"  overflow="visible"/>
				</clipPath>
				<path clip-path="url(#SVGID_28_)" fill-rule="evenodd" clip-rule="evenodd" fill="#B9F9F7" d="M144.431,414.19
					c0,18.636-15.107,33.743-33.742,33.743c-18.636,0-33.743-15.107-33.743-33.743c0-18.635,15.107-33.742,33.743-33.742
					C129.324,380.448,144.431,395.556,144.431,414.19"/>
			</g>
		</g>
	</g>
	<g clip-path="url(#SVGID_2_)">
		<text transform="matrix(1 0 0 1 100.104 425.457)" fill="#1A303A" font-family="'Nunito-ExtraBold'" font-size="36.8694">4</text>
	</g>
	<g clip-path="url(#SVGID_2_)">
		<defs>
			<rect id="SVGID_29_" width="1732" height="1178"/>
		</defs>
		<clipPath id="SVGID_30_">
			<use xlink:href="#SVGID_29_"  overflow="visible"/>
		</clipPath>
		<g clip-path="url(#SVGID_30_)">
			<g>
				<defs>
					<rect id="SVGID_31_" x="124.543" y="132.95" width="67.484" height="67.483"/>
				</defs>
				<clipPath id="SVGID_32_">
					<use xlink:href="#SVGID_31_"  overflow="visible"/>
				</clipPath>
				<path clip-path="url(#SVGID_32_)" fill-rule="evenodd" clip-rule="evenodd" fill="#B9F9F7" d="M192.027,166.691
					c0,18.635-15.107,33.742-33.742,33.742c-18.635,0-33.742-15.107-33.742-33.742c0-18.636,15.107-33.742,33.742-33.742
					C176.92,132.949,192.027,148.056,192.027,166.691"/>
			</g>
		</g>
	</g>
	<g clip-path="url(#SVGID_2_)">
		<text transform="matrix(1 0 0 1 147.7002 177.958)" fill="#1A303A" font-family="'Nunito-ExtraBold'" font-size="36.8694">5</text>
	</g>
	<g clip-path="url(#SVGID_2_)">
		<defs>
			<rect id="SVGID_33_" width="1732" height="1178"/>
		</defs>
		<clipPath id="SVGID_34_">
			<use xlink:href="#SVGID_33_"  overflow="visible"/>
		</clipPath>
		<g clip-path="url(#SVGID_34_)">
			<g>
				<defs>
					<rect id="SVGID_35_" x="473.898" y="132.95" width="67.485" height="67.483"/>
				</defs>
				<clipPath id="SVGID_36_">
					<use xlink:href="#SVGID_35_"  overflow="visible"/>
				</clipPath>
				<path clip-path="url(#SVGID_36_)" fill-rule="evenodd" clip-rule="evenodd" fill="#B9F9F7" d="M541.383,166.691
					c0,18.635-15.107,33.742-33.742,33.742c-18.636,0-33.743-15.107-33.743-33.742c0-18.636,15.107-33.742,33.743-33.742
					C526.275,132.949,541.383,148.056,541.383,166.691"/>
			</g>
		</g>
	</g>
	<g clip-path="url(#SVGID_2_)">
		<text transform="matrix(1 0 0 1 497.0552 177.958)" fill="#1A303A" font-family="'Nunito-ExtraBold'" font-size="36.8694">6</text>
	</g>
	<g clip-path="url(#SVGID_2_)">
		<defs>
			<rect id="SVGID_37_" width="1732" height="1178"/>
		</defs>
		<clipPath id="SVGID_38_">
			<use xlink:href="#SVGID_37_"  overflow="visible"/>
		</clipPath>
		<g clip-path="url(#SVGID_38_)">
			<g>
				<defs>
					<rect id="SVGID_39_" x="354.908" y="246.228" width="67.484" height="67.484"/>
				</defs>
				<clipPath id="SVGID_40_">
					<use xlink:href="#SVGID_39_"  overflow="visible"/>
				</clipPath>
				<path clip-path="url(#SVGID_40_)" fill-rule="evenodd" clip-rule="evenodd" fill="#B9F9F7" d="M422.392,279.97
					c0,18.636-15.107,33.742-33.742,33.742c-18.636,0-33.743-15.106-33.743-33.742c0-18.635,15.107-33.742,33.743-33.742
					C407.285,246.228,422.392,261.335,422.392,279.97"/>
			</g>
		</g>
	</g>
	<g clip-path="url(#SVGID_2_)">
		<text transform="matrix(1 0 0 1 378.0654 291.2363)" fill="#1A303A" font-family="'Nunito-ExtraBold'" font-size="36.8694">7</text>
	</g>
	<g clip-path="url(#SVGID_2_)">
		<defs>
			<rect id="SVGID_41_" width="1732" height="1178"/>
		</defs>
		<clipPath id="SVGID_42_">
			<use xlink:href="#SVGID_41_"  overflow="visible"/>
		</clipPath>
		<g clip-path="url(#SVGID_42_)">
			<g>
				<defs>
					<rect id="SVGID_43_" x="449.148" y="379.497" width="67.485" height="67.484"/>
				</defs>
				<clipPath id="SVGID_44_">
					<use xlink:href="#SVGID_43_"  overflow="visible"/>
				</clipPath>
				<path clip-path="url(#SVGID_44_)" fill-rule="evenodd" clip-rule="evenodd" fill="#B9F9F7" d="M516.633,413.239
					c0,18.635-15.107,33.742-33.742,33.742c-18.636,0-33.743-15.107-33.743-33.742c0-18.636,15.107-33.742,33.743-33.742
					C501.525,379.498,516.633,394.604,516.633,413.239"/>
			</g>
		</g>
	</g>
	<g clip-path="url(#SVGID_2_)">
		<text transform="matrix(1 0 0 1 472.3052 424.5059)" fill="#1A303A" font-family="'Nunito-ExtraBold'" font-size="36.8694">8</text>
	</g>
	<g clip-path="url(#SVGID_2_)">
		<defs>
			<rect id="SVGID_45_" width="1732" height="1178"/>
		</defs>
		<clipPath id="SVGID_46_">
			<use xlink:href="#SVGID_45_"  overflow="visible"/>
		</clipPath>
		<g clip-path="url(#SVGID_46_)">
			<g>
				<defs>
					<rect id="SVGID_47_" x="629.061" y="304.295" width="67.485" height="67.484"/>
				</defs>
				<clipPath id="SVGID_48_">
					<use xlink:href="#SVGID_47_"  overflow="visible"/>
				</clipPath>
				<path clip-path="url(#SVGID_48_)" fill-rule="evenodd" clip-rule="evenodd" fill="#B9F9F7" d="M696.546,338.037
					c0,18.636-15.107,33.742-33.742,33.742c-18.636,0-33.743-15.106-33.743-33.742c0-18.636,15.107-33.742,33.743-33.742
					C681.439,304.295,696.546,319.401,696.546,338.037"/>
			</g>
		</g>
	</g>
	<g clip-path="url(#SVGID_2_)">
		<text transform="matrix(1 0 0 1 652.2183 349.3037)" fill="#1A303A" font-family="'Nunito-ExtraBold'" font-size="36.8694">9</text>
	</g>
	<g clip-path="url(#SVGID_2_)">
		<defs>
			<rect id="SVGID_49_" width="1732" height="1178"/>
		</defs>
		<clipPath id="SVGID_50_">
			<use xlink:href="#SVGID_49_"  overflow="visible"/>
		</clipPath>
		<g clip-path="url(#SVGID_50_)">
			<g>
				<defs>
					<rect id="SVGID_51_" x="451.052" y="453.747" width="67.484" height="67.484"/>
				</defs>
				<clipPath id="SVGID_52_">
					<use xlink:href="#SVGID_51_"  overflow="visible"/>
				</clipPath>
				<path clip-path="url(#SVGID_52_)" fill-rule="evenodd" clip-rule="evenodd" fill="#B9F9F7" d="M518.536,487.489
					c0,18.635-15.107,33.742-33.742,33.742c-18.635,0-33.742-15.107-33.742-33.742c0-18.636,15.107-33.742,33.742-33.742
					C503.429,453.748,518.536,468.854,518.536,487.489"/>
			</g>
		</g>
	</g>
	<g clip-path="url(#SVGID_2_)">
		<text transform="matrix(1 0 0 1 463.6089 498.7559)"><tspan x="0" y="0" fill="#1A303A" font-family="'Nunito-ExtraBold'" font-size="36.8694">1</tspan><tspan x="18.029" y="0" fill="#1A303A" font-family="'Nunito-ExtraBold'" font-size="36.8694">0</tspan></text>
	</g>
	<g clip-path="url(#SVGID_2_)">
		<defs>
			<rect id="SVGID_53_" width="1732" height="1178"/>
		</defs>
		<clipPath id="SVGID_54_">
			<use xlink:href="#SVGID_53_"  overflow="visible"/>
		</clipPath>
		<g clip-path="url(#SVGID_54_)">
			<g>
				<defs>
					<rect id="SVGID_55_" x="1377.46" y="792.831" width="67.479" height="67.485"/>
				</defs>
				<clipPath id="SVGID_56_">
					<use xlink:href="#SVGID_55_"  overflow="visible"/>
				</clipPath>
				<path clip-path="url(#SVGID_56_)" fill-rule="evenodd" clip-rule="evenodd" fill="#B9F9F7" d="M1444.939,826.573
					c0,18.636-15.106,33.743-33.741,33.743c-18.636,0-33.742-15.107-33.742-33.743c0-18.635,15.106-33.742,33.742-33.742
					C1429.833,792.831,1444.939,807.938,1444.939,826.573"/>
			</g>
		</g>
	</g>
	<g clip-path="url(#SVGID_2_)">
		<text transform="matrix(1 0 0 1 1389.9941 837.8408)"><tspan x="0" y="0" fill="#1A303A" font-family="'Nunito-ExtraBold'" font-size="36.8694">1</tspan><tspan x="18.028" y="0" fill="#1A303A" font-family="'Nunito-ExtraBold'" font-size="36.8694">2</tspan></text>
	</g>
	<g clip-path="url(#SVGID_2_)">
		<text transform="matrix(1 0 0 1 178.96 113.0215)"><tspan x="0" y="0" fill="#2A77BC" font-family="'NunitoSans-ExtraBold'" font-size="45.4418">Fr</tspan><tspan x="43.396" y="0" fill="#2A77BC" font-family="'NunitoSans-ExtraBold'" font-size="45.4418">ont</tspan></text>
	</g>
	<g clip-path="url(#SVGID_2_)">
		<text transform="matrix(1 0 0 1 1007.4092 399.4414)" fill="#2A77BC" font-family="'NunitoSans-ExtraBold'" font-size="45.4418">Back</text>
	</g>
</g>
</svg>
